<svg width="24" height="24" viewBox="0 0 24 24" fill="none" xmlns="http://www.w3.org/2000/svg">
<path d="M10.9745 2.53809C11.897 2.42201 12.8711 2.38527 13.9423 2.44239C14.9774 2.49761 16.1188 2.61559 16.8212 2.75587C17.7229 2.93603 18.2069 3.08684 18.9354 3.55958C19.4009 3.86162 20.1548 4.37602 20.6044 4.70411C21.079 5.05049 21.3044 5.25287 21.5585 5.62501C21.7637 5.92558 21.9915 6.32996 22.2304 6.9004C22.4681 7.46812 22.7257 8.21646 22.8651 9.11036C23.0014 9.98443 23.0184 10.9404 23.0145 11.5234C23.0106 12.1117 22.992 12.4177 22.9228 12.7881C22.8659 13.0922 22.8093 13.3799 22.7479 13.6279C22.6891 13.8661 22.6105 14.133 22.4872 14.3682C22.3965 14.5412 22.2932 14.7403 22.1933 14.9092C22.1024 15.0627 21.9566 15.2938 21.7499 15.4746C21.3382 15.8345 20.7098 16.0423 19.9159 16.0762C19.4683 16.0953 18.9229 16.0757 18.3593 16.0117C18.1103 15.9835 17.8221 15.9525 17.5663 15.915C17.3289 15.8803 17.0267 15.8277 16.7753 15.7315C16.1648 15.4975 15.5685 15.0698 15.2665 14.3623C15.2639 14.3563 15.2613 14.3499 15.2587 14.3438C15.0705 14.5758 14.8641 14.7968 14.622 14.9727C14.2436 15.2475 13.9121 15.4851 13.6562 15.6602C13.5291 15.747 13.4111 15.825 13.3104 15.8867C13.2481 15.9249 13.0825 16.0279 12.9062 16.0811C12.5973 16.1742 11.9341 16.2444 11.1229 16.1982C10.6279 16.1701 9.90457 16.1275 9.27822 15.7695C8.7038 15.4411 7.97663 14.8349 7.62295 14.0137C7.53461 13.8085 7.47546 13.527 7.44228 13.2383C7.40621 12.9239 7.39239 12.5269 7.42666 12.0615C7.47795 11.3658 7.60584 10.6778 7.9833 9.85157C8.16051 9.46377 8.44558 8.84614 8.69814 8.47266C8.86338 8.22839 9.06433 7.92306 9.39443 7.65821C9.71955 7.39741 10.1106 7.21917 10.5985 7.04102C11.0362 6.88125 11.6507 6.71547 12.3964 6.82227C12.8713 6.89032 13.4997 7.02039 14.1317 7.40626C14.5778 7.67873 15.1934 8.06402 15.7401 8.69044C15.9765 8.96126 16.1619 9.18485 16.2958 9.35548C16.3369 9.4079 16.3738 9.45943 16.4081 9.50587C16.7269 9.5691 16.9195 9.76142 17.0067 9.87305C17.097 9.98864 17.1421 10.0988 17.163 10.1563C17.2057 10.2743 17.2185 10.3774 17.2235 10.4287C17.2346 10.5431 17.2296 10.6617 17.2108 10.7725C17.1986 10.8447 17.1754 11.1188 17.0155 11.5254C16.9568 11.6747 16.8781 11.8404 16.7792 12.0303C16.7713 12.0834 16.7628 12.1374 16.7548 12.1914C16.7048 12.53 16.8516 12.9811 17.1063 13.5781C17.1335 13.6411 17.2154 13.7579 17.4901 13.8633C17.4915 13.8637 17.5001 13.8665 17.5165 13.8711C17.5357 13.8764 17.5619 13.8834 17.5956 13.8906C17.6643 13.9054 17.7512 13.9202 17.8563 13.9356C18.0709 13.967 18.3147 13.9938 18.5849 14.0244C19.0592 14.0782 19.4994 14.0922 19.83 14.0781C20.1929 14.0627 20.3653 13.9948 20.4218 13.9688C20.4342 13.9502 20.4521 13.9252 20.4726 13.8906C20.5394 13.7777 20.6124 13.6366 20.7157 13.4395C20.7251 13.4216 20.7582 13.3429 20.8065 13.1475C20.8524 12.9617 20.8999 12.726 20.9569 12.4209C20.9938 12.2236 21.0109 12.0549 21.0145 11.5098C21.0182 10.9591 20.9997 10.1317 20.8886 9.41895C20.7806 8.72646 20.5799 8.13694 20.3856 7.67286C20.1925 7.2117 20.0273 6.92902 19.9071 6.75294C19.8529 6.67344 19.8259 6.64145 19.786 6.60352C19.7305 6.55068 19.6347 6.47257 19.4247 6.31934C19.0095 6.01636 18.2869 5.52304 17.8466 5.23731C17.402 4.94887 17.1838 4.86847 16.4296 4.71778C15.8631 4.60462 14.8302 4.4925 13.8358 4.43946C12.8775 4.38835 12.0229 4.42202 11.2245 4.52247C10.4239 4.62322 9.69373 4.79176 9.13174 4.94825C8.57742 5.10262 8.22466 5.23596 7.95596 5.34766C7.70078 5.45376 7.55456 5.52609 7.30947 5.68848C6.64162 6.13105 6.10655 6.601 5.81435 6.88868C5.76399 6.93827 5.73441 6.971 5.70107 7.01466C5.66224 7.06554 5.60816 7.14555 5.51748 7.29395C5.3365 7.59014 5.06397 8.08325 4.86904 8.48829C4.69177 8.85669 4.59438 9.1191 4.48428 9.61036C4.36847 10.1271 4.24891 10.8628 4.2001 11.7178C4.15101 12.578 4.17564 13.5484 4.21572 14.249C4.25465 14.9292 4.30304 15.2662 4.41006 15.7022C4.5219 16.1577 4.69772 16.7092 4.9999 17.3643C5.3076 18.0312 5.74411 18.795 6.08486 19.3232C6.59486 20.1137 6.92452 20.4022 7.06435 20.5225C7.35342 20.7709 7.74451 20.9318 8.44326 21.0703C8.95081 21.1709 9.86778 21.2524 10.5849 21.3115C11.2486 21.3663 11.5882 21.364 11.8515 21.3486C12.066 21.3361 12.2213 21.3215 12.745 21.1445C13.3025 20.9561 14.198 20.6088 14.9569 20.2617C15.7509 19.8987 16.2665 19.6 16.8632 19.3076C17.4212 19.0342 17.8414 18.8799 18.0644 18.794C18.1722 18.7524 18.2244 18.7302 18.2558 18.7158C18.2805 18.7045 18.2988 18.695 18.3417 18.6709C18.8232 18.4008 19.4327 18.5724 19.703 19.0537C19.973 19.5353 19.8018 20.1459 19.3202 20.416C19.1599 20.5059 19.0456 20.5593 18.7841 20.6602C18.5477 20.7513 18.2095 20.875 17.7431 21.1035C17.3149 21.3133 16.5766 21.7199 15.789 22.0801C14.9661 22.4563 14.0068 22.8292 13.3856 23.0391C12.731 23.2603 12.3971 23.3206 11.9677 23.3457C11.5872 23.3679 11.1504 23.3648 10.4208 23.3047C9.74383 23.2489 8.69812 23.1597 8.05459 23.0322C7.23729 22.8703 6.44038 22.6234 5.76064 22.0391C5.48501 21.802 5.0261 21.3696 4.40517 20.4072C4.02448 19.8171 3.5382 18.971 3.18349 18.2022C2.82338 17.4215 2.6074 16.7479 2.46767 16.1787C2.32317 15.59 2.26323 15.1252 2.21963 14.3633C2.17719 13.6216 2.14797 12.5682 2.20303 11.6035C2.2584 10.6338 2.39385 9.78989 2.53213 9.17286C2.67606 8.53068 2.82502 8.12453 3.06728 7.6211C3.29201 7.15415 3.59583 6.60223 3.81045 6.25098C4.03646 5.88113 4.18628 5.68522 4.41103 5.46387C4.78116 5.09947 5.41537 4.54474 6.20498 4.02149C6.57457 3.7766 6.83731 3.64695 7.18838 3.50098C7.52647 3.36043 7.95577 3.19941 8.59463 3.02149C9.22582 2.84572 10.0542 2.65391 10.9745 2.53809ZM12.1132 8.80177C11.8251 8.76051 11.5663 8.81592 11.2841 8.91895C10.8534 9.0762 10.7108 9.16631 10.6454 9.21876C10.5854 9.26704 10.5379 9.32147 10.3544 9.59278C10.2154 9.79828 10.0036 10.2428 9.80264 10.6826C9.54392 11.2489 9.45862 11.6953 9.4208 12.208C9.39558 12.5504 9.40797 12.8224 9.42959 13.0107C9.4404 13.1047 9.45286 13.1745 9.46279 13.2188C9.46434 13.2257 9.46547 13.2323 9.4667 13.2373C9.59281 13.5148 9.91865 13.8316 10.2714 14.0332C10.4297 14.1235 10.6832 14.1696 11.2372 14.2012C11.571 14.2202 11.8486 14.2137 12.0507 14.1982C12.1581 14.19 12.2334 14.1787 12.2792 14.1719C12.3377 14.1355 12.4202 14.082 12.5272 14.0088C12.7583 13.8508 13.0707 13.628 13.4472 13.3545C13.5128 13.3068 13.621 13.2024 13.8026 12.9629C13.9829 12.7252 14.1922 12.4135 14.4774 11.9844C14.636 11.7459 14.7582 11.5446 14.8554 11.3779C14.881 11.2174 14.9106 11.0529 14.9423 10.8994C14.8999 10.8484 14.8612 10.7927 14.829 10.7324C14.8093 10.7044 14.7749 10.6576 14.7226 10.5908C14.6162 10.4553 14.4542 10.259 14.2333 10.0059C13.9028 9.62721 13.5177 9.37466 13.0897 9.11329C12.7945 8.93298 12.4761 8.85378 12.1132 8.80177Z" fill="black"/>
</svg>
