<svg width="24" height="24" viewBox="0 0 24 24" fill="none" xmlns="http://www.w3.org/2000/svg">
<path d="M12.4685 1.6019C12.8938 1.62542 13.2793 1.68433 13.7498 1.80307C14.201 1.91702 14.7223 2.08265 15.1101 2.21323C15.5205 2.35142 15.8102 2.46019 16.3933 2.72104C16.9429 2.96691 17.8008 3.35703 18.2634 3.59604C18.7104 3.82699 18.9178 3.92966 19.1404 4.1058C19.4871 4.3803 19.7696 4.78529 19.9382 5.04623C20.0319 5.19123 20.1116 5.32541 20.1697 5.42612C20.2068 5.49056 20.226 5.52735 20.2371 5.54721C20.8664 6.34641 21.2855 7.22466 21.4626 7.79135C21.5523 8.07824 21.7044 8.58378 21.8123 9.05893C21.9273 9.56615 21.9887 10.0186 22.0056 10.7484C22.0218 11.4487 21.998 12.4046 21.9558 13.0355C21.912 13.6907 21.8469 14.0213 21.7712 14.3177C21.7019 14.5893 21.6317 14.8086 21.5251 15.1009C21.4303 15.3613 21.2875 15.7685 21.0671 16.2093C20.6763 16.9911 20.4261 17.4818 20.366 17.5882C20.3656 17.5889 20.3633 17.5927 20.3591 17.6009C20.3531 17.6127 20.3477 17.6245 20.3367 17.6468C20.3178 17.685 20.2855 17.7514 20.2439 17.8226C20.1761 17.9386 19.9365 18.407 19.5564 18.8734C19.1312 19.3952 18.7832 19.8251 18.655 19.9779C18.5343 20.1217 18.225 20.5054 17.6453 20.9593C17.3555 21.1861 17.0293 21.4009 16.7273 21.5511C16.2985 21.7644 15.9316 21.9228 15.4275 22.0404C15.1342 22.1088 14.6862 22.2034 14.3005 22.2679C13.8892 22.3367 13.5476 22.3719 13.0193 22.3695C12.5134 22.3671 11.8332 22.332 11.1189 22.2279C10.4128 22.1249 9.70679 21.9611 9.34839 21.8783C9.02892 21.8044 8.59736 21.7646 8.03589 21.5589C7.8171 21.4788 7.03059 21.1877 6.42261 20.8509C6.06744 20.6541 5.81086 20.4923 5.71362 20.431C5.5806 20.3471 5.19608 20.0957 4.73022 19.6556C4.40067 19.3442 4.11713 18.9945 3.96069 18.8187C3.85022 18.6944 3.71947 18.4956 3.61401 18.3333C3.49037 18.1431 3.33565 17.8978 3.16187 17.6214C3.02586 17.4052 2.98068 17.3403 2.75757 16.9144C2.54662 16.5117 2.16906 15.7725 1.94116 15.3089C1.73015 14.8797 1.59082 14.6023 1.50757 14.2396C1.38073 13.687 1.29812 13.2023 1.32495 12.4456C1.34376 11.9157 1.38574 10.9994 1.40601 10.515C1.42582 10.0412 1.42728 9.92133 1.45874 9.64096C1.487 9.38924 1.54025 8.98326 1.59741 8.64975C1.65675 8.30355 1.72266 8.01846 1.83569 7.69174C1.94301 7.38163 2.0879 7.04712 2.25757 6.73569C2.4363 6.40766 2.63016 6.12602 2.94312 5.73569C3.24591 5.35805 3.667 4.86972 3.8894 4.61557C4.00321 4.48553 4.07239 4.40918 4.12085 4.35678C4.14441 4.33131 4.16303 4.31138 4.17358 4.30014C4.17873 4.29467 4.18154 4.29138 4.18335 4.2894L4.1853 4.28745C4.31873 4.13602 4.73805 3.67138 5.45483 3.2103C5.92421 2.9084 6.33161 2.69012 6.76929 2.53256C7.01863 2.44283 7.27648 2.36996 8.00171 2.22006C8.72081 2.07145 9.92485 1.84212 10.739 1.72006C11.5717 1.59527 12.0247 1.57739 12.4685 1.6019ZM15.8865 7.93979C14.313 10.2474 11.2787 14.7044 8.07202 19.4222C8.34906 19.5397 8.59972 19.6357 8.72339 19.681C8.91446 19.751 9.03429 19.7801 9.16284 19.805C9.28586 19.8288 9.52478 19.8667 9.79858 19.93C10.161 20.0138 10.7927 20.1588 11.407 20.2484C12.0132 20.3367 12.5983 20.3675 13.0281 20.3695C13.4349 20.3713 13.6629 20.3467 13.9705 20.2953C14.3039 20.2395 14.709 20.1538 14.9734 20.0921C15.2678 20.0235 15.4801 19.9385 15.8367 19.7611C15.9898 19.6849 16.2008 19.5502 16.4119 19.3851C16.822 19.0641 17.0237 18.8119 17.1238 18.6927C17.2398 18.5545 17.5639 18.1517 18.0056 17.6097C18.2582 17.2998 18.3867 17.0347 18.5164 16.8128C18.5197 16.8072 18.5259 16.7962 18.5437 16.7601C18.5567 16.7338 18.5891 16.668 18.6248 16.6048C18.6259 16.6026 18.6294 16.5957 18.6365 16.5824C18.646 16.5643 18.6592 16.5398 18.6755 16.5081C18.7083 16.4448 18.753 16.3573 18.8093 16.2464C18.922 16.0248 19.0793 15.7124 19.2781 15.3148C19.4382 14.9946 19.5424 14.6986 19.6453 14.4164C19.7364 14.1661 19.7854 14.0128 19.8337 13.8236C19.8757 13.6591 19.923 13.4501 19.9597 12.9017C19.998 12.3289 20.0204 11.4329 20.0056 10.7943C19.9915 10.1851 19.9439 9.86649 19.8611 9.50131C19.771 9.1044 19.639 8.65853 19.5544 8.38803C19.4588 8.08215 19.2022 7.51625 18.8064 6.96713L18.6287 6.73373C18.6144 6.71596 18.6009 6.69703 18.5876 6.67807C18.5799 6.66702 18.5714 6.65614 18.5642 6.64487C18.5634 6.64366 18.562 6.64216 18.5613 6.64096C18.5376 6.6035 18.5101 6.55278 18.4998 6.53452C18.4818 6.50273 18.4605 6.4671 18.4363 6.42514C18.388 6.3413 18.3274 6.23781 18.2585 6.1312C18.1019 5.88892 17.9685 5.72918 17.8992 5.67416C17.8837 5.66191 17.8708 5.65176 17.8064 5.61557C17.7525 5.5853 17.6792 5.54768 17.5662 5.48862C17.485 5.60309 17.1896 6.02871 15.8865 7.93979ZM12.3582 3.59897C12.0897 3.58414 11.7794 3.58714 11.0359 3.69858C10.2734 3.81288 9.10886 4.03378 8.40601 4.17905C7.7103 4.32284 7.56215 4.37297 7.44702 4.4144C7.20004 4.50331 6.93197 4.63879 6.53687 4.89291C6.03546 5.2155 5.75544 5.53122 5.68628 5.60971C5.66459 5.63432 5.6453 5.65469 5.63159 5.66928C5.61736 5.68443 5.6055 5.69595 5.58862 5.7142C5.55584 5.74965 5.49983 5.81235 5.39429 5.93295C5.17678 6.18151 4.77884 6.64348 4.50366 6.98666C4.23873 7.3171 4.11893 7.49907 4.01343 7.69272C3.89895 7.90288 3.79814 8.13562 3.72534 8.34604C3.65829 8.53985 3.61628 8.71236 3.56909 8.98764C3.51972 9.27574 3.47092 9.6429 3.44604 9.86459C3.42441 10.0574 3.42537 10.0893 3.40405 10.599C3.38317 11.0982 3.3425 11.994 3.32397 12.516C3.30513 13.047 3.35538 13.3505 3.45679 13.7923C3.47831 13.8861 3.49972 13.9482 3.73511 14.4271C3.95361 14.8716 4.32378 15.5948 4.52905 15.9867C4.63146 16.1821 4.68366 16.2762 4.72144 16.3412C4.75942 16.4064 4.78512 16.4455 4.85522 16.557C5.0313 16.837 5.17702 17.0685 5.29077 17.2435C5.34756 17.3309 5.39249 17.3988 5.42651 17.4476C5.46693 17.5056 5.47234 17.5093 5.45483 17.4896C5.70157 17.7668 5.8583 17.9701 6.10425 18.2025C6.18759 18.2812 6.26777 18.3503 6.34058 18.4115C9.57601 13.6512 12.6473 9.13999 14.2341 6.81284C15.0841 5.56627 15.5104 4.94243 15.7341 4.61752C15.6798 4.5931 15.6267 4.56896 15.5759 4.54623C15.0494 4.31071 14.8194 4.22587 14.4714 4.10873C14.1006 3.98389 13.6372 3.83764 13.2605 3.74252C12.9034 3.65238 12.6449 3.61483 12.3582 3.59897Z" fill="black"/>
</svg>
