<svg width="24" height="24" viewBox="0 0 24 24" fill="none" xmlns="http://www.w3.org/2000/svg">
<path d="M10.877 13.9884C11.9567 14.0126 12.4752 14.0831 12.793 14.1349C13.2086 14.2026 13.5372 14.3249 13.7949 14.4093C14.1171 14.515 14.3682 14.7154 14.5439 14.8839C14.7291 15.0615 14.8967 15.2686 15.043 15.4718C15.2241 15.7235 15.3745 16.0803 15.5146 16.4259C15.6797 16.833 15.8633 17.3686 16.0469 17.9484C16.1392 18.2398 16.2322 18.5435 16.3154 18.8243L16.5283 19.5636L16.5303 19.5724L16.5332 19.5802C16.6295 19.9531 16.6883 20.2032 16.7168 20.382L16.7354 20.5392L16.7363 20.549C16.7366 20.5548 16.7371 20.561 16.7373 20.5656C16.7375 20.5704 16.7371 20.5746 16.7373 20.5782C16.7377 20.5856 16.7381 20.5906 16.7383 20.5939L16.7471 20.6896C16.7695 21.1957 16.4057 21.6465 15.8936 21.7218C15.3472 21.802 14.8391 21.4244 14.7588 20.8781C14.748 20.8045 14.7435 20.7321 14.7412 20.6896C14.7393 20.6786 14.7344 20.6512 14.7236 20.6017C14.7025 20.5043 14.6649 20.3474 14.6006 20.0978C14.4956 19.7192 14.3176 19.1105 14.1406 18.5519C13.9627 17.9901 13.797 17.5128 13.6611 17.1779C13.588 16.9975 13.5323 16.8649 13.4863 16.7677C13.4388 16.6671 13.4174 16.6364 13.4199 16.6398C13.3137 16.4922 13.2259 16.3905 13.1602 16.3273C13.1427 16.3105 13.1282 16.2994 13.1191 16.2921C12.8199 16.1934 12.6809 16.1428 12.4707 16.1085C12.2527 16.073 11.8271 16.0107 10.832 15.9884C9.81527 15.9657 8.27796 15.9849 7.27441 15.9972C6.27268 16.0094 5.88511 16.0142 5.27344 16.0665C4.63595 16.1211 3.7956 16.2168 3.36914 16.2775C3.35267 16.2798 3.33658 16.2821 3.32129 16.2843C3.29816 16.3916 3.27163 16.5204 3.24414 16.672C3.18966 16.9725 3.13478 17.3365 3.0957 18.0353C3.0555 18.7543 3.03361 19.7798 3.02246 20.3077C3.01694 20.5689 3.01408 20.7007 3.0127 20.7667C3.01203 20.7986 3.01188 20.8151 3.01172 20.8234L3.00684 20.9152C2.95573 21.4195 2.52956 21.8126 2.01172 21.8126C1.45943 21.8126 1.01172 21.3649 1.01172 20.8126C1.01174 20.7967 1.01285 20.767 1.02344 20.2657C1.03438 19.7476 1.05611 18.6847 1.09863 17.924C1.1423 17.143 1.20714 16.6973 1.27637 16.3156C1.33479 15.9934 1.39014 15.7414 1.4375 15.5548C1.47363 15.4125 1.52824 15.2099 1.60449 15.0616L1.69434 14.9132C1.91954 14.5946 2.23975 14.4711 2.43457 14.4161C2.6293 14.3612 2.87689 14.3279 3.08691 14.298C3.55433 14.2315 4.43223 14.1307 5.10254 14.0734C5.79869 14.0138 6.2587 14.0093 7.25 13.9972C8.23987 13.9851 9.8176 13.9647 10.877 13.9884ZM18.6826 6.01379C18.9045 6.00643 19.3871 5.98619 19.7168 6.02063C19.9059 6.04044 20.106 6.09785 20.25 6.1427C20.4117 6.19309 20.5839 6.25485 20.7422 6.31458L21.4805 6.61145L21.5146 6.6261L21.5479 6.6427C21.818 6.7812 22.1572 6.99182 22.5127 7.43274C22.6994 7.66437 22.937 8.00034 23.1143 8.3009C23.3097 8.63234 23.4311 8.91887 23.5391 9.297C23.6375 9.64171 23.7292 10.0722 23.7764 10.4259C23.8262 10.7997 23.8261 11.0789 23.8145 11.3224C23.8029 11.5618 23.7791 11.7803 23.7266 12.0499C23.6767 12.3059 23.5957 12.6372 23.4531 12.9767C23.3134 13.3091 23.1319 13.6132 22.9805 13.8312C22.8088 14.0782 22.6444 14.2594 22.3984 14.4513C22.1933 14.6113 21.9377 14.7746 21.7314 14.8907C21.4906 15.0263 21.2861 15.1141 20.9863 15.1993C20.7508 15.2663 20.3965 15.3561 20.1348 15.3947C19.7575 15.4501 19.3075 15.4603 18.7549 15.3868C18.4538 15.3468 18.2107 15.2794 17.916 15.1447C17.6632 15.029 17.3757 14.8664 17.1543 14.7267C16.9402 14.5916 16.751 14.4596 16.5977 14.3292C16.3838 14.1474 16.2019 13.973 15.9795 13.6593C15.8532 13.4812 15.648 13.1802 15.4824 12.8927C15.311 12.595 15.1829 12.3152 15.0889 12.0304C14.9924 11.738 14.9397 11.4652 14.9062 11.1349C14.8748 10.8238 14.8585 10.4467 14.8662 10.132C14.8734 9.83782 14.8938 9.54222 14.9736 9.24133C15.0868 8.81477 15.2458 8.37729 15.5566 7.93176C15.6823 7.75161 15.9049 7.43331 16.1348 7.19543C16.3664 6.95576 16.7499 6.52582 17.3076 6.32336C17.7134 6.17608 18.1606 6.03117 18.6826 6.01379ZM21.6328 9.91516C21.3321 10.2893 20.9378 10.7879 20.5264 11.337C20.0511 11.9715 19.5611 12.6605 19.0342 13.4044C19.4112 13.4533 19.6689 13.4419 19.8438 13.4161C19.9745 13.3969 20.2291 13.3363 20.4395 13.2765C20.5853 13.235 20.6439 13.2083 20.75 13.1486C20.8907 13.0694 21.0595 12.9595 21.1689 12.8741C21.2375 12.8207 21.2665 12.7923 21.3379 12.6896C21.4295 12.5577 21.5359 12.3771 21.6094 12.2023C21.68 12.0342 21.7285 11.8474 21.7637 11.6671C21.796 11.5009 21.8091 11.3785 21.8164 11.2257C21.8235 11.0769 21.8248 10.9211 21.7939 10.6896C21.7632 10.4592 21.6991 10.1608 21.6328 9.91516ZM10.0918 2.74133C10.2647 2.74848 10.4602 2.76517 10.6484 2.79993C10.8133 2.83038 11.0793 2.89301 11.3203 3.05188L11.3799 3.09094L11.4326 3.13782C11.688 3.36382 12.018 3.6626 12.2744 4.04211C12.3872 4.2091 12.5636 4.47802 12.6885 4.72571C12.8681 5.08213 13.0137 5.41741 13.1191 5.85657C13.1757 6.09214 13.2429 6.41841 13.2891 6.75891C13.335 7.09821 13.3589 7.44494 13.3555 7.755C13.3515 8.11682 13.3084 8.41657 13.1611 8.89758C13.0271 9.33556 12.7994 9.95358 12.6182 10.3702C12.4277 10.808 12.2751 11.058 12.1221 11.2579C11.974 11.4514 11.8361 11.5911 11.6162 11.7491C11.3036 11.9739 10.9234 12.2392 10.5078 12.3966C10.298 12.476 10.0062 12.5731 9.66797 12.6544C9.33682 12.734 8.97663 12.7957 8.71387 12.8273C8.42125 12.8624 8.22889 12.8633 7.99121 12.8468C7.78285 12.8323 7.51925 12.8041 7.23926 12.7501C6.99228 12.7025 6.68001 12.6335 6.37891 12.5138C6.03064 12.3753 5.40728 12.1392 5.00977 11.6456C4.74847 11.3211 4.54238 11.0155 4.36523 10.506C4.25624 10.1924 4.06354 9.61724 3.93359 9.01379C3.802 8.40262 3.73913 7.79288 3.73828 7.19641C3.73755 6.66874 3.76165 6.04407 3.88867 5.57043C3.96374 5.29061 4.03927 5.05615 4.11914 4.8634C4.19381 4.68327 4.29695 4.47773 4.45117 4.30383L4.60352 4.15149C4.78937 3.98188 5.07545 3.76577 5.44922 3.56165C5.76909 3.38698 6.13891 3.21381 6.68359 3.06653C6.98126 2.98606 7.33297 2.91479 7.70605 2.87415C7.8684 2.85647 8.18213 2.82314 8.4873 2.797C8.71198 2.77775 9.02661 2.75532 9.24902 2.75989C9.46187 2.74441 9.77689 2.72836 10.0918 2.74133ZM18.749 8.01184C18.5591 8.01818 18.3602 8.06898 17.9902 8.20325C17.9874 8.20429 17.9596 8.21322 17.8906 8.27161C17.8107 8.33928 17.7248 8.42826 17.5732 8.58508C17.473 8.68875 17.3393 8.87272 17.1973 9.07629C17.0657 9.26491 16.9839 9.46124 16.9062 9.75403C16.8873 9.82571 16.8713 9.93485 16.8652 10.1808C16.8597 10.4066 16.8719 10.6996 16.8955 10.9327C16.9171 11.1463 16.9452 11.2739 16.9883 11.4044C17.0339 11.5427 17.1024 11.6986 17.2158 11.8956C17.2767 12.0013 17.3487 12.1161 17.4199 12.2238C17.9405 11.4887 18.4401 10.7862 18.9258 10.1378C19.499 9.37266 20.0363 8.7029 20.3545 8.3136C20.2553 8.27359 20.1469 8.22746 20.0361 8.18567C19.8968 8.13311 19.7651 8.0861 19.6553 8.05188C19.5276 8.01212 19.4878 8.0077 19.5088 8.00989C19.3501 7.99331 19.0365 8.0023 18.749 8.01184ZM9.35059 4.75598L9.27051 4.76184L9.19043 4.75598C9.20584 4.75721 9.16694 4.75501 9.04102 4.76184C8.93336 4.76769 8.80026 4.77799 8.6582 4.79016C8.3745 4.81446 8.07784 4.84556 7.92285 4.86243C7.66147 4.89089 7.41156 4.94137 7.20508 4.99719C6.84524 5.09452 6.62319 5.20012 6.4082 5.3175C6.24882 5.40455 6.12651 5.48818 6.04395 5.55188C6.01563 5.57373 5.99292 5.59159 5.97656 5.60559C5.9736 5.61232 5.97043 5.62027 5.9668 5.62903C5.93192 5.7132 5.88235 5.85771 5.82031 6.08899C5.76877 6.28132 5.73755 6.6675 5.73828 7.19348C5.73893 7.651 5.78699 8.12069 5.88867 8.5929C5.992 9.07273 6.15135 9.55367 6.25391 9.84875C6.33503 10.0822 6.40429 10.1892 6.56738 10.3917C6.55575 10.3773 6.57062 10.4031 6.67285 10.4591C6.77718 10.5162 6.91541 10.5748 7.11816 10.6554C7.23947 10.7036 7.40149 10.7447 7.61719 10.7863C7.7998 10.8214 7.98098 10.8414 8.12988 10.8517C8.24949 10.86 8.3151 10.8602 8.47559 10.8409C8.6663 10.818 8.94931 10.7703 9.2002 10.7101C9.44382 10.6515 9.65504 10.5813 9.7998 10.5265C9.93823 10.4741 10.123 10.3597 10.4492 10.1251C10.4689 10.1109 10.4809 10.1021 10.4873 10.0968C10.4916 10.0932 10.4942 10.0909 10.4951 10.09C10.4954 10.0897 10.4979 10.0871 10.5029 10.0812C10.5087 10.0745 10.5186 10.0625 10.5342 10.0421C10.5674 9.99877 10.6429 9.89707 10.7842 9.57239C10.935 9.22573 11.1368 8.67823 11.249 8.31165C11.348 7.98832 11.3548 7.87872 11.3564 7.73254C11.3586 7.53463 11.3427 7.2863 11.3076 7.02747C11.2727 6.76956 11.2189 6.51122 11.1738 6.32336C11.1176 6.08914 11.0434 5.90601 10.9023 5.6261C10.8392 5.50085 10.7251 5.322 10.6172 5.16223C10.5367 5.04315 10.4186 4.92356 10.2412 4.76086C10.1821 4.7525 10.1044 4.74427 10.0098 4.74036C9.77042 4.73048 9.50983 4.74295 9.35059 4.75598Z" fill="black"/>
</svg>
