<svg width="24" height="24" viewBox="0 0 24 24" fill="none" xmlns="http://www.w3.org/2000/svg">
<path d="M7.15134 6.76683C7.39967 6.77073 7.86076 6.77044 8.26951 6.76976C8.47246 6.76943 8.65895 6.76908 8.79685 6.76879H9.03904C9.04296 6.76886 9.05299 6.76929 9.06443 6.76976C9.06702 6.76987 9.07192 6.77039 9.0781 6.77074C10.3226 6.80776 13.1873 6.89348 13.9863 6.94262C14.7964 6.99065 14.8959 7.00021 15.1875 7.01879C15.505 7.03901 15.9192 7.05514 16.1963 7.08031C16.341 7.09347 16.5183 7.1144 16.6826 7.15648C16.7649 7.17758 16.8828 7.21344 17.0049 7.27758C17.1044 7.32993 17.2723 7.43516 17.4082 7.62719L17.4648 7.71508L17.5371 7.8557C17.6925 8.19405 17.7552 8.60022 17.8222 9.16918C17.8624 9.5101 17.9552 10.2579 17.9756 10.7024C17.9757 10.7046 17.9762 10.7185 17.9804 10.7688C17.9849 10.8214 17.9918 10.8947 17.999 10.9963C18.0134 11.1995 18.0311 11.5099 18.0508 11.9983C18.0819 12.7723 18.1243 14.0823 18.1435 14.758C18.1641 15.4793 18.1614 15.8043 18.0713 16.2629C17.9708 16.7744 17.9201 17.0538 17.8769 17.2444C17.8387 17.4132 17.713 18.0131 17.166 18.3684C17.0738 18.4282 16.8859 18.5544 16.5957 18.634C16.3324 18.7061 16.0386 18.7274 15.6963 18.719C15.2152 18.7072 14.3769 18.6758 13.3984 18.6682C12.4187 18.6606 11.3432 18.6721 10.792 18.6868C10.4952 18.6946 10.3357 18.7042 10.2353 18.7141C10.1525 18.7223 10.1111 18.7304 10.0488 18.7454C9.99953 18.7572 9.9539 18.7664 9.91697 18.7727C9.88003 18.779 9.84471 18.7835 9.81736 18.7873C9.81421 18.7878 9.81075 18.7879 9.80759 18.7883C9.75216 18.8431 9.68031 18.9149 9.59275 18.9914C9.42437 19.1387 9.19259 19.3148 9.0742 19.4075C8.90513 19.5398 8.77045 19.6462 8.63084 19.7678C8.49705 19.8842 8.34332 19.9765 8.26463 20.0246C8.16237 20.0872 8.09346 20.1283 8.02341 20.178C7.51763 20.5364 7.04898 20.8315 6.85545 20.9524C6.85481 20.9532 6.85418 20.9546 6.85349 20.9553C6.84261 20.9673 6.73519 21.0893 6.67673 21.1496C6.62251 21.2056 6.44726 21.3894 6.19236 21.4954C6.04289 21.5574 5.80722 21.6175 5.53025 21.5579C5.24224 21.4957 5.03583 21.331 4.90525 21.1702C4.79413 21.0333 4.73997 20.8955 4.71287 20.7991C4.68598 20.7034 4.67779 20.6217 4.67478 20.5705C4.66922 20.4756 4.67722 20.3944 4.67966 20.3694C4.68137 20.3518 4.68338 20.3348 4.68455 20.3245C4.68592 20.3123 4.68669 20.3054 4.68748 20.2981C4.68818 20.2915 4.68821 20.2865 4.68845 20.2834C4.68855 20.2823 4.68928 20.2811 4.68943 20.2805V20.2795C4.70838 19.8968 4.72647 19.9171 4.71873 19.7444C4.6977 19.277 4.67067 19.2557 4.62986 18.7034C4.62125 18.5868 4.63038 18.4792 4.63572 18.4231C4.64168 18.3604 4.65016 18.2946 4.6572 18.2414C4.59357 18.2383 4.52509 18.2366 4.45505 18.2317C4.34698 18.2241 4.25647 18.2255 4.0615 18.2209C3.88035 18.2167 3.66035 18.2072 3.37302 18.1789C3.25786 18.1676 3.04425 18.148 2.8408 18.0998C2.69144 18.0645 2.26173 17.9563 1.97752 17.5735C1.79647 17.3296 1.72629 17.0685 1.6865 16.8147C1.64877 16.5738 1.62598 16.2446 1.6074 15.7854C1.57868 15.0754 1.52415 13.7508 1.50779 12.6057C1.49164 11.4747 1.49812 10.5188 1.53611 9.92992C1.58287 9.20547 1.63442 8.77211 1.65134 8.57543C1.65728 8.50629 1.67077 8.28068 1.71091 8.08812C1.73856 7.95562 1.84829 7.43433 2.35252 7.15941L2.49607 7.08617C2.84989 6.91362 3.32529 6.75045 3.77439 6.7473C4.13317 6.74486 4.44982 6.73435 5.0488 6.73949C5.60206 6.74425 6.63238 6.7587 7.15134 6.76683ZM3.78806 8.7473C3.78487 8.74749 3.76858 8.74861 3.73923 8.75414C3.71185 8.75933 3.67868 8.76836 3.6406 8.77953C3.61666 9.0461 3.5758 9.3834 3.5322 10.0588C3.49974 10.5622 3.49168 11.4493 3.50779 12.5774C3.52371 13.692 3.57656 14.9902 3.60545 15.7043C3.61377 15.9102 3.62211 16.0699 3.63084 16.1936C3.82401 16.211 3.97432 16.2178 4.10838 16.2209C4.24264 16.2241 4.42417 16.2247 4.59373 16.2366C4.76756 16.2487 4.89021 16.2519 5.04588 16.259C5.17665 16.265 5.36802 16.2747 5.56052 16.3205C5.58131 16.3255 5.65475 16.3421 5.72947 16.3655C5.79383 16.3856 5.93966 16.4345 6.08787 16.5354C6.46847 16.7948 6.60305 17.176 6.6533 17.4143C6.70443 17.657 6.7002 17.8934 6.68943 18.0579C6.67824 18.2283 6.65408 18.3958 6.6406 18.4973C6.63329 18.5524 6.62967 18.585 6.62791 18.6008C6.63063 18.6345 6.63441 18.669 6.63767 18.7043C6.71224 18.6531 6.78983 18.6009 6.86716 18.5461C7.00477 18.4486 7.14072 18.3675 7.22068 18.3186C7.26541 18.2912 7.2933 18.2745 7.31345 18.261C7.32002 18.2566 7.32397 18.2528 7.32615 18.2512C7.50617 18.0949 7.67513 17.962 7.8408 17.8323C8.00164 17.7063 8.16207 17.5855 8.27634 17.4856C8.32391 17.444 8.36629 17.403 8.41697 17.3528C8.4595 17.3106 8.53417 17.234 8.61033 17.1672C8.7661 17.0306 8.92983 16.9566 9.04783 16.9143C9.16626 16.8719 9.27602 16.8486 9.35154 16.8352C9.42382 16.8224 9.50328 16.8126 9.53709 16.8079C9.5623 16.8043 9.57607 16.8021 9.58201 16.801C9.87956 16.7295 10.1154 16.7043 10.7392 16.6877C11.3163 16.6724 12.4146 16.6604 13.414 16.6682C14.4142 16.676 15.2955 16.7089 15.7451 16.72C15.83 16.722 15.8951 16.7183 15.9433 16.7161C15.9744 16.5662 16.0167 16.3437 16.1084 15.8772C16.1521 15.6544 16.1646 15.5224 16.1445 14.8157C16.1254 14.1439 16.0834 12.8425 16.0527 12.0793C16.0337 11.6067 16.0166 11.3168 16.0039 11.1379C15.9976 11.0489 15.9923 10.9853 15.9883 10.9377C15.9852 10.9016 15.9797 10.842 15.9775 10.7942C15.9614 10.4415 15.8816 9.79147 15.8359 9.40355C15.8195 9.26414 15.8035 9.15013 15.79 9.05687C15.7322 9.05337 15.6691 9.04873 15.6015 9.04516C15.4411 9.03668 15.2525 9.02711 15.0605 9.01488C14.7364 8.99424 14.6809 8.98685 13.8691 8.93871H13.8662C13.4872 8.91529 12.5838 8.88174 11.6181 8.84984L8.99412 8.76879H8.80076C8.66501 8.76907 8.47647 8.76943 8.27341 8.76976C7.86953 8.77043 7.38934 8.77106 7.12009 8.76683C6.60336 8.75873 5.57779 8.74419 5.03123 8.73949C4.44916 8.73449 4.19592 8.74452 3.78806 8.7473ZM6.90623 2.1975C7.61986 2.18809 9.00246 2.1894 10.1474 2.23656C11.3045 2.28425 12.173 2.38376 12.6728 2.43676C13.1479 2.48711 13.2683 2.49348 14.2217 2.54906C15.1755 2.60466 16.9363 2.70789 17.9199 2.76391C19.004 2.82564 19.2907 2.83655 19.5068 2.87035C20.1639 2.97332 20.5306 3.1312 21.0039 3.32641C21.494 3.52857 21.7014 3.98136 21.7676 4.12621C21.8478 4.3021 21.9408 4.5732 21.9756 4.6643C22.0521 4.86485 22.122 5.16157 22.1806 5.36644C22.2712 5.68267 22.3196 5.98116 22.3467 6.16625C22.3726 6.34397 22.3994 6.76083 22.4638 7.61937C22.5123 8.26552 22.5365 9.21897 22.54 9.95043C22.5436 10.7041 22.5128 11.2216 22.4961 11.512C22.4689 11.9825 22.4453 12.287 22.4023 12.5539C22.3566 12.8376 22.2631 13.0849 22.1933 13.2629C22.0535 13.619 21.7718 13.7982 21.6709 13.8586C21.5347 13.94 21.3938 13.9961 21.2861 14.0334C21.0656 14.1097 20.8239 14.1623 20.6465 14.1965C20.6319 14.1994 20.608 14.2056 20.5635 14.2161C20.5286 14.2243 20.4663 14.2393 20.4111 14.2502C20.3432 14.2637 20.2893 14.2702 20.251 14.2746C20.2433 14.2756 20.2353 14.2771 20.2314 14.2776C20.2288 14.2778 20.2266 14.2775 20.2256 14.2776C19.6877 14.36 19.1801 13.9966 19.0879 13.4582C18.995 12.9142 19.3614 12.3973 19.9053 12.3039L19.9853 12.2922C19.9943 12.2911 20.0033 12.2899 20.0088 12.2893C20.0144 12.2887 20.0177 12.2886 20.0205 12.2883H20.0224C20.0342 12.286 20.0556 12.2813 20.1045 12.2698C20.1429 12.2607 20.2066 12.2453 20.2666 12.2336H20.2676C20.3247 12.2226 20.3802 12.2095 20.4316 12.1975C20.4539 12.0452 20.4749 11.8313 20.5 11.3967C20.5159 11.1209 20.5433 10.6511 20.54 9.95922C20.5366 9.24486 20.513 8.34579 20.4697 7.76879C20.4354 7.31235 20.413 7.00655 20.3965 6.7893C20.3883 6.68229 20.3822 6.60329 20.3769 6.54516C20.3744 6.5167 20.3728 6.49461 20.3711 6.47875C20.3695 6.4642 20.3684 6.45673 20.3681 6.45531C20.3454 6.29976 20.3116 6.10515 20.2578 5.91723C20.1416 5.51167 20.146 5.47935 20.1074 5.37816C20.0886 5.3288 20.0704 5.27988 20.0547 5.23656C20.038 5.19065 20.0249 5.15505 20.0107 5.11644C20.0052 5.10139 19.999 5.08742 19.9941 5.07445C19.6994 4.95572 19.5207 4.89761 19.1972 4.84691C19.1736 4.84322 19.1282 4.83656 18.916 4.82348C18.708 4.81066 18.3791 4.79363 17.8056 4.76098C16.8202 4.70486 15.0581 4.60167 14.1054 4.54613C13.1535 4.49064 12.9899 4.48101 12.4619 4.42504C11.9577 4.37159 11.1496 4.2793 10.0654 4.23461C8.96885 4.18943 7.62483 4.18739 6.93259 4.19652C6.89832 4.19698 6.86511 4.19801 6.83396 4.19848C6.82673 4.90481 6.8203 5.22609 6.82029 5.47289C6.8201 6.02502 6.37246 6.47289 5.82029 6.47289C5.26833 6.47264 4.82047 6.02486 4.82029 5.47289C4.8203 5.18863 4.82905 4.77277 4.83689 3.91039C4.83918 3.65864 4.86582 3.40954 4.94627 3.17406C5.03571 2.91256 5.16898 2.73335 5.28611 2.6057L5.39939 2.49828C5.66875 2.27513 5.96893 2.2393 6.11619 2.22484C6.29129 2.2077 6.5489 2.20221 6.90623 2.1975ZM12.9023 11.6858C13.0972 11.6387 13.3356 11.6355 13.5771 11.7346C13.6842 11.7786 13.7654 11.8317 13.8183 11.8713L13.9043 11.9426L13.9765 12.0149C14.3175 12.3897 14.3261 12.9694 13.9804 13.3547C13.8083 13.5464 13.5784 13.655 13.3408 13.6799C13.0765 13.802 12.7611 13.8086 12.4795 13.6702C11.9845 13.4264 11.7803 12.8276 12.0234 12.3323C12.0295 12.3199 12.0682 12.2379 12.1386 12.1487C12.1996 12.0716 12.2603 12.0184 12.2969 11.9885C12.3598 11.9371 12.4219 11.8998 12.4463 11.885C12.4809 11.8639 12.535 11.8322 12.5967 11.801C12.6422 11.778 12.7597 11.7203 12.9023 11.6858ZM9.31931 11.6741C9.73704 11.4605 10.1502 11.5717 10.3965 11.7278C10.5679 11.8365 10.7726 12.0357 10.8584 12.3547C10.9243 12.6004 10.8892 12.8156 10.8662 12.925C10.7586 13.4359 10.2792 13.772 9.77048 13.7112C9.74914 13.7125 9.72772 13.7151 9.70603 13.7151C9.15375 13.7151 8.70603 13.2674 8.70603 12.7151C8.70612 12.3904 8.84087 12.0698 9.0908 11.8352L9.19334 11.7375L9.31931 11.6741ZM5.81052 11.6662C6.10774 11.5027 6.39557 11.531 6.55955 11.5735C6.73198 11.6183 6.86142 11.6988 6.94529 11.7639C7.07057 11.8612 7.15985 11.9734 7.22263 12.0725L7.27634 12.1662L7.32029 12.259C7.51179 12.7283 7.32028 13.2757 6.86326 13.5188C6.67108 13.6208 6.46005 13.6525 6.25974 13.6252C6.08904 13.615 5.91816 13.5619 5.7656 13.4602C5.75686 13.4544 5.66613 13.3961 5.57615 13.2991C5.48868 13.2046 5.43295 13.11 5.39841 13.0393C5.37198 12.9851 5.32386 12.8765 5.29978 12.7356C5.28827 12.6681 5.26987 12.5206 5.30857 12.3411C5.35208 12.1397 5.48565 11.8453 5.81052 11.6662ZM13.7773 13.2864C13.78 13.2819 13.7844 13.2781 13.7871 13.2737C13.8042 13.2442 13.8168 13.2176 13.8183 13.2141C13.806 13.2391 13.7913 13.2629 13.7773 13.2864ZM6.93162 11.8391C6.93014 11.8378 6.92921 11.8354 6.92771 11.8342L6.87498 11.7961C6.89478 11.8093 6.91308 11.8248 6.93162 11.8391ZM8.94627 8.76586C8.96335 8.76718 8.977 8.76763 8.98142 8.76781C8.95747 8.76679 8.9336 8.76462 8.91013 8.76195C8.9267 8.76385 8.93978 8.76534 8.94627 8.76586ZM8.83982 8.75219C8.84871 8.75377 8.86176 8.75532 8.87302 8.75707C8.85697 8.75463 8.84095 8.75146 8.82517 8.74828C8.83086 8.74958 8.83586 8.75136 8.83982 8.75219Z" fill="black"/>
</svg>
