<svg width="24" height="24" viewBox="0 0 24 24" fill="none" xmlns="http://www.w3.org/2000/svg">
<path d="M16.9721 7.75525C17.2049 7.75525 17.8296 7.75538 18.8402 7.81384C20.031 7.88281 20.8354 8.27189 21.2221 8.51306C21.6317 8.76878 21.8855 9.17996 22.0512 9.48962C22.2292 9.82265 22.4003 10.2311 22.5687 10.6302C22.9539 11.5429 23.0542 12.4284 23.0541 13.1244C23.054 13.7561 22.8364 14.2955 22.6713 14.6976C22.2678 15.68 21.614 16.418 21.0394 16.8998C20.7983 17.1019 20.5364 17.2277 20.3363 17.3129C20.2345 17.3562 20.1317 17.3961 20.0463 17.4291C19.9559 17.4639 19.8809 17.4926 19.809 17.5228L19.7875 17.5316L19.765 17.5394C19.4904 17.6401 19.2271 17.7201 19.0287 17.7718L19.0297 17.7738C18.9742 17.7891 18.8806 17.8177 18.6723 17.8676C18.617 17.8808 18.5611 17.8872 18.5062 17.891C18.4945 18.1698 18.4894 18.3145 18.4496 18.5687C18.3519 19.1924 18.2319 19.8704 18.0639 20.308C17.9922 20.4946 17.9094 20.6936 17.8129 20.8734C17.7233 21.0402 17.5779 21.275 17.348 21.4593C17.1874 21.5881 17.0002 21.6683 16.8969 21.7103C16.766 21.7635 16.614 21.8154 16.4545 21.8656C16.1334 21.9665 15.722 22.0784 15.2562 22.1957C14.969 22.268 14.7459 22.3239 14.5844 22.3617C14.457 22.3915 14.2622 22.4371 14.0883 22.4418C14.0869 22.4419 14.0832 22.4423 14.0756 22.4427C14.0698 22.4431 14.0338 22.4454 14.0131 22.4467C13.9547 22.4501 13.8771 22.4533 13.7631 22.4564C13.5381 22.4625 13.1696 22.4666 12.5189 22.4593C11.2904 22.4456 8.94697 22.405 7.56288 22.3363C6.1912 22.2682 5.69248 22.1805 5.3412 22.0717C5.23168 22.0377 5.11551 22.0103 4.93592 21.9652C4.76738 21.9229 4.56342 21.8692 4.33729 21.7943C4.10502 21.7174 3.78958 21.6117 3.49256 21.4642C3.20077 21.3192 2.83528 21.0908 2.56873 20.7191C2.30689 20.3538 1.99754 19.8637 1.90467 19.0052C1.88589 18.8315 1.83067 18.4009 1.75526 17.3373C1.70568 16.6379 1.6474 15.6301 1.61756 14.5687C1.58778 13.5091 1.58657 12.4329 1.58924 11.8646C1.59195 11.2897 1.598 11.2155 1.60194 11.1176C1.60159 11.1097 1.60041 11.0929 1.59803 11.0658C1.59361 11.0154 1.58676 10.9521 1.57655 10.8685C1.55745 10.7122 1.52881 10.4892 1.51307 10.2611C1.49737 10.0332 1.49107 9.7578 1.5287 9.47888C1.56576 9.20444 1.65319 8.86024 1.87538 8.54724L1.98084 8.42126C2.08794 8.31097 2.19629 8.2456 2.26014 8.2113C2.35579 8.15996 2.44676 8.12808 2.51209 8.10779C2.64256 8.06731 2.78118 8.04176 2.89784 8.0238C3.13637 7.98713 3.43937 7.95912 3.75526 7.93396C4.05361 7.91019 4.21383 7.89446 6.55018 7.88806C8.89782 7.88163 13.337 7.88518 15.6576 7.88708C15.9659 7.88734 16.2368 7.88689 16.475 7.88708C16.6213 7.80321 16.7913 7.75525 16.9721 7.75525ZM6.55506 9.88806C4.20363 9.8945 4.12256 9.91151 3.91444 9.9281C3.7567 9.94066 3.61937 9.95164 3.50233 9.96325C3.50314 10.0119 3.50417 10.0661 3.50819 10.1244C3.51945 10.2873 3.54013 10.4481 3.5619 10.6263C3.57912 10.7673 3.6089 11.0009 3.60096 11.1986C3.59788 11.2748 3.59183 11.3258 3.58924 11.8744C3.58662 12.4326 3.58768 13.4845 3.61659 14.5131C3.64546 15.5398 3.70231 16.5187 3.75038 17.1967C3.82293 18.2199 3.87428 18.6177 3.89295 18.7904C3.91631 19.0062 3.96023 19.1433 4.00233 19.2386C4.04641 19.3383 4.10283 19.4259 4.19471 19.5541C4.20333 19.5626 4.25013 19.6076 4.38221 19.6732C4.53693 19.75 4.7271 19.817 4.96522 19.8959C5.11914 19.9468 5.26587 19.9853 5.42323 20.0248C5.56953 20.0615 5.75686 20.1069 5.93299 20.1615C6.02735 20.1907 6.31077 20.2721 7.66151 20.3392C9.00284 20.4058 11.3119 20.4456 12.5414 20.4593C13.1798 20.4665 13.5196 20.4625 13.7084 20.4574C13.8006 20.4549 13.8579 20.4518 13.8959 20.4496C13.9188 20.4482 13.9845 20.4441 14.0346 20.4427C14.0162 20.4432 14.0008 20.4437 13.9906 20.4447C14.016 20.44 14.0598 20.4307 14.1293 20.4144C14.2698 20.3815 14.4702 20.3312 14.768 20.2562C15.2203 20.1424 15.5885 20.0421 15.8549 19.9584C15.9445 19.9302 16.0157 19.9026 16.0717 19.8822C16.1045 19.8149 16.1467 19.7213 16.1967 19.5912C16.2747 19.388 16.3689 18.9302 16.474 18.2592C16.5012 18.0856 16.4959 18.0875 16.5189 17.5834C16.5407 17.106 16.5815 16.2704 16.5736 15.5209C16.5658 14.7811 16.5085 14.1409 16.4633 13.7377C16.4185 13.3391 16.3733 13.0381 16.3295 12.7552C16.2858 12.4738 16.2399 12.192 16.2015 11.8627L16.2006 11.8549V11.847C16.1735 11.5783 16.1237 11.1096 16.098 10.6527C16.0834 10.3918 16.0774 10.1412 16.0765 9.88708C15.9448 9.88698 15.8043 9.8872 15.6556 9.88708C13.3331 9.88518 8.89806 9.88164 6.55506 9.88806ZM18.7758 9.81482C18.6898 9.84978 18.5983 9.87439 18.5023 9.88415L18.3998 9.88904H18.2826C18.2484 9.88904 18.2031 9.88813 18.0765 9.88806C18.0774 10.1109 18.0829 10.323 18.0951 10.5404C18.1174 10.9362 18.1592 11.3471 18.1879 11.6312H18.1889C18.2219 11.9145 18.2603 12.1537 18.306 12.4486C18.3516 12.7422 18.4012 13.0755 18.4506 13.515C18.5007 13.9622 18.5649 14.6726 18.5736 15.4994C18.5747 15.6065 18.5722 15.7149 18.5717 15.8236C18.6985 15.7885 18.8763 15.7347 19.0687 15.6644C19.1609 15.6264 19.2513 15.5919 19.3265 15.5629C19.4165 15.5282 19.4878 15.4998 19.5531 15.472C19.6872 15.4149 19.7373 15.3808 19.7543 15.3666C20.1468 15.0374 20.5703 14.5499 20.8217 13.9379C20.9921 13.5227 21.054 13.3169 21.0541 13.1244C21.0542 12.614 20.9796 12.0086 20.726 11.4076C20.5452 10.9794 20.4128 10.6673 20.2875 10.433C20.2054 10.2796 20.1553 10.2156 20.141 10.1976C19.9695 10.0949 19.5111 9.86643 18.7758 9.81482ZM9.99159 2.30896C10.5382 2.23206 11.0442 2.6129 11.1215 3.15954C11.1753 3.54024 11.2324 3.94206 11.2797 4.43884C11.3264 4.93024 11.3617 5.49966 11.3969 6.06286C11.4309 6.61356 11.0119 7.08865 10.4613 7.12341C9.91023 7.15778 9.43535 6.7379 9.40077 6.18689C9.36506 5.61444 9.3315 5.08057 9.28846 4.62829C9.24593 4.18151 9.19485 3.81991 9.141 3.43884C9.06389 2.8921 9.44483 2.38622 9.99159 2.30896ZM13.974 1.5072C14.5225 1.4438 15.0188 1.83668 15.0824 2.38513C15.1175 2.68812 15.1537 3.00245 15.1869 3.61364C15.2193 4.21086 15.2485 5.09148 15.2777 5.97986C15.2957 6.53154 14.8626 6.9937 14.3109 7.01208C13.7593 7.03005 13.2972 6.59782 13.2787 6.04626C13.2491 5.14837 13.2208 4.29378 13.1898 3.72302C13.1596 3.16709 13.1286 2.89619 13.0961 2.6156C13.0325 2.06701 13.4254 1.57085 13.974 1.5072ZM6.69178 1.94275C7.24112 1.8885 7.73095 2.28985 7.78553 2.83923C7.79461 2.93062 7.80271 3.01935 7.83143 3.4779C7.86023 3.93774 7.90995 4.78087 7.96131 5.64587C7.99381 6.19687 7.5738 6.67054 7.02284 6.70349C6.47178 6.73621 5.99835 6.31594 5.96522 5.76501C5.91374 4.89805 5.86388 4.05867 5.83534 3.6029C5.80687 3.14849 5.80059 3.0897 5.7953 3.0365C5.74083 2.48701 6.14228 1.99734 6.69178 1.94275Z" fill="black"/>
</svg>
