<svg width="24" height="24" viewBox="0 0 24 24" fill="none" xmlns="http://www.w3.org/2000/svg">
<path d="M10.6118 2.21438C11.3529 2.1626 12.1795 2.1705 13.273 2.28958C14.3498 2.40686 15.6586 2.62703 16.481 2.79739C17.3205 2.97134 17.6836 3.09764 17.9302 3.19485C18.1681 3.28863 18.2965 3.35152 18.5132 3.49758C18.87 3.73818 19.3763 4.09316 19.688 4.4761C19.8213 4.63996 19.972 4.81457 20.1324 5.1138C20.3382 5.49816 20.5601 5.88767 20.6909 6.21341C20.775 6.4228 20.9452 6.84848 21.0376 7.13821C21.147 7.48132 21.1996 7.65173 21.2603 7.89407C21.3104 8.09427 21.3803 8.40146 21.4673 9.04153C21.5521 9.66538 21.6527 10.5967 21.7027 11.0659C21.7533 11.5411 21.8017 11.7247 21.7486 12.396C21.7238 12.708 21.6754 13.1873 21.5376 13.8091C21.403 14.4168 21.1917 15.1316 20.9898 15.6997C20.7821 16.284 20.5774 16.7353 20.273 17.2251C19.9834 17.6909 19.6217 18.1644 19.3394 18.4976C19.0466 18.8432 18.8328 19.0474 18.6685 19.1958C18.5095 19.3394 18.3998 19.4294 18.2222 19.5699C18.0276 19.7238 17.8388 19.874 17.6802 19.9917C17.5517 20.0871 17.3405 20.2411 17.1284 20.3267C16.9026 20.4178 16.4049 20.5726 15.7945 20.6714C15.4793 20.7224 15.2413 20.754 14.4195 20.731C13.7625 20.7126 12.6097 20.6637 12.0337 20.6411C11.4165 20.6169 11.1485 20.5828 10.9634 20.5708C10.8837 20.5658 10.6254 20.5607 10.3472 20.5103C10.2257 20.4883 10.0486 20.4564 9.67727 20.4282C9.42369 20.4091 9.06505 20.3882 8.78567 20.3755C8.5341 20.3641 8.36015 20.3594 7.72415 20.3863C7.07568 20.4137 6.03081 20.4696 5.06106 20.5874C4.08845 20.7057 3.21213 20.8807 2.7427 20.9654C2.53203 21.0033 2.35992 21.0318 2.23685 21.0386C2.20376 21.0404 2.12962 21.0437 2.04153 21.0337C1.99696 21.0287 1.91578 21.0166 1.82083 20.9839C1.73281 20.9535 1.55748 20.8792 1.40091 20.7056C1.21684 20.5012 1.13022 20.2387 1.1431 19.9829C1.15411 19.7672 1.23244 19.611 1.27005 19.5435C1.3116 19.4689 1.35312 19.4155 1.37063 19.3941L1.39602 19.3648L1.44485 19.3032C1.50752 19.2228 1.62794 19.0657 1.86477 18.7544C2.33831 18.132 3.23992 16.941 3.69192 16.3433C3.79287 16.2098 3.87041 16.1054 3.93118 16.0249C3.92949 16.0156 3.92842 16.0053 3.9263 15.9947C3.92113 15.9687 3.91333 15.9346 3.90286 15.8911C3.88072 15.8185 3.86151 15.7526 3.84622 15.6978C3.82605 15.6255 3.81307 15.5789 3.79935 15.5347C3.77656 15.4614 3.75792 15.4173 3.72903 15.3677C3.69425 15.3081 3.58861 15.1431 3.49368 14.9058C3.40045 14.6725 3.32066 14.3859 3.25052 13.9995C3.19022 13.6672 3.12336 13.2055 3.08255 12.8697C3.03815 12.5042 3.02141 12.2574 3.03567 11.8238C3.04883 11.4245 3.08802 10.8483 3.147 10.3941C3.20944 9.91355 3.2922 9.57927 3.40774 9.19973C3.51938 8.83312 3.66405 8.41198 3.86966 7.9263C4.07643 7.43791 4.33775 6.89851 4.72806 6.25149C5.11029 5.61792 5.60229 4.902 5.93997 4.45071C6.2925 3.9796 6.50607 3.7564 6.772 3.53274C6.97729 3.3601 7.23701 3.15725 7.46927 3.01614C7.8077 2.81056 8.17881 2.61628 8.85208 2.46633C9.26446 2.37451 9.87784 2.26572 10.6118 2.21438ZM2.89114 20.6929C2.89152 20.6925 2.89239 20.6917 2.8931 20.6909C2.89424 20.6896 2.89586 20.6875 2.89798 20.6851V20.6841C2.89438 20.6881 2.89218 20.6917 2.89114 20.6929ZM10.7505 4.2095C10.1324 4.25276 9.61931 4.34441 9.28665 4.41848C9.06462 4.46794 8.92044 4.51775 8.81595 4.56204C8.71196 4.60614 8.62418 4.65416 8.50735 4.72512C8.40648 4.78642 8.23939 4.91237 8.05911 5.06399C7.93939 5.16469 7.82845 5.26554 7.54153 5.64895C7.23963 6.05243 6.78559 6.71344 6.44095 7.28469C6.10447 7.84248 5.88498 8.29575 5.71145 8.70559C5.53697 9.11773 5.41532 9.4724 5.32083 9.78274C5.23031 10.0801 5.17561 10.3032 5.1304 10.6509C5.08178 11.0252 5.04637 11.535 5.0347 11.8892C5.02419 12.2086 5.03435 12.3523 5.0679 12.6284C5.10508 12.9344 5.1674 13.3562 5.21927 13.6421C5.27364 13.9417 5.32212 14.091 5.3511 14.1636C5.37804 14.2309 5.38974 14.2453 5.45657 14.3599C5.57149 14.557 5.65207 14.7649 5.7095 14.9419L5.82571 15.3423L5.83548 15.3736L5.84329 15.4068C5.88217 15.5661 5.90059 15.6708 5.91067 15.7281H5.90872C5.91625 15.7681 5.92894 15.8305 5.93802 15.9351C5.94495 16.0152 5.94065 16.0942 5.92923 16.1704C5.96486 16.3748 5.93895 16.592 5.83841 16.7915C5.81413 16.8397 5.78946 16.8789 5.76907 16.9087C5.75789 16.9251 5.74692 16.9391 5.7427 16.9448C5.73148 16.9601 5.71434 16.9844 5.68606 17.022C5.62784 17.0995 5.51329 17.2509 5.28763 17.5493C5.07739 17.8274 4.76766 18.2334 4.45071 18.6519C4.57164 18.6353 4.69465 18.6172 4.81888 18.6021C5.86773 18.4746 6.97535 18.4163 7.63919 18.3882C8.31466 18.3596 8.54972 18.3627 8.87552 18.3775C9.17373 18.391 9.55252 18.4133 9.82767 18.4341C10.2839 18.4686 10.5313 18.5113 10.7036 18.5425C10.8331 18.5659 10.8995 18.5633 11.0923 18.5757C11.4071 18.596 11.5072 18.6184 12.1118 18.6421C12.7045 18.6653 13.833 18.714 14.4751 18.732C14.8503 18.7425 15.0554 18.7392 15.1841 18.732C15.2989 18.7254 15.3602 18.7154 15.4751 18.6968C15.9121 18.6261 16.2423 18.5203 16.3531 18.48C16.3825 18.4609 16.4273 18.4309 16.4888 18.3853C16.6168 18.2903 16.7775 18.1632 16.982 18.0015C17.1371 17.8788 17.2107 17.8171 17.3277 17.7115C17.4396 17.6103 17.5894 17.4707 17.814 17.2056C18.0491 16.9281 18.3484 16.5335 18.5747 16.1695C18.7859 15.8296 18.9327 15.5147 19.105 15.0298C19.2832 14.5286 19.4709 13.8934 19.5855 13.3765C19.6968 12.8738 19.7352 12.4923 19.7554 12.2378C19.7756 11.9827 19.7747 11.8722 19.7691 11.7837C19.7609 11.6563 19.7466 11.5803 19.7144 11.2779C19.6638 10.8034 19.5661 9.90121 19.4859 9.31106C19.408 8.73846 19.351 8.50371 19.3199 8.37942C19.2759 8.20398 19.241 8.08636 19.1324 7.74563C19.0667 7.53973 18.9264 7.1874 18.8345 6.95852C18.7579 6.768 18.6273 6.54099 18.3687 6.05813C18.3125 5.95327 18.2836 5.91897 18.1363 5.73782C18.041 5.62116 17.7879 5.42067 17.395 5.15579C17.3356 5.11575 17.3209 5.10851 17.3159 5.10598C17.3059 5.10085 17.2821 5.08982 17.1968 5.05618C17.0757 5.00846 16.8248 4.91178 16.0747 4.75637C15.3055 4.59702 14.0606 4.38726 13.0562 4.27786C12.069 4.17038 11.3617 4.16677 10.7505 4.2095Z" fill="black"/>
</svg>
