<svg width="24" height="24" viewBox="0 0 24 24" fill="none" xmlns="http://www.w3.org/2000/svg">
<path d="M14.3778 2.00874C15.2935 2.02747 15.9148 2.0806 16.3133 2.12104C16.8595 2.17647 17.136 2.20862 17.4178 2.21674C17.8722 2.22984 18.3962 2.28622 18.8455 2.36127C19.0709 2.39892 19.2928 2.44392 19.4862 2.49506C19.6067 2.52697 19.7764 2.57591 19.9403 2.65229L20.1004 2.73823L20.2469 2.84174C20.5656 3.09625 20.735 3.43373 20.8192 3.61127C20.8742 3.72747 20.9253 3.85133 20.9578 3.92768C20.9972 4.02005 21.0169 4.06087 21.0282 4.081C21.0802 4.17441 21.1134 4.26826 21.1239 4.2978C21.1415 4.34749 21.1587 4.40259 21.1756 4.45795C21.2098 4.56995 21.2503 4.71315 21.2948 4.87983C21.3843 5.21513 21.4975 5.67024 21.6239 6.21088C21.7283 6.65797 21.744 6.81887 21.7606 7.03901C21.7767 7.25197 21.7893 7.51313 21.783 8.74213C21.7768 9.97764 21.7511 12.2128 21.7342 13.3876C21.7165 14.6196 21.7019 14.7337 21.6971 14.8906C21.6777 15.5279 21.6464 15.8489 21.5868 16.1435C21.532 16.4139 21.4298 16.6265 21.3797 16.7285C21.0824 17.3343 20.4649 17.4114 20.2703 17.4335C20.0321 17.4607 19.6816 17.4629 19.3407 17.4736C18.6472 17.4954 17.381 17.5031 15.912 17.5165C14.4253 17.5301 12.7602 17.5419 11.8709 17.5507C10.9601 17.5598 10.8886 17.5695 10.4969 17.6083C9.55836 17.7183 8.80716 17.8022 8.53207 17.83C8.46772 17.8864 8.38938 17.9513 8.29867 18.0234C8.10767 18.1752 7.80104 18.4122 7.32699 18.7812C6.71852 19.2549 5.5375 20.0529 4.98422 20.454C4.68456 20.6713 4.51054 20.8042 4.39144 20.8935C4.33799 20.9336 4.2727 20.9824 4.21176 21.0224C4.15777 21.0579 4.02518 21.1425 3.84359 21.1894C3.76946 21.2085 3.51597 21.2702 3.21859 21.1591C2.89642 21.0387 2.73047 20.7989 2.65609 20.6523C2.54319 20.4294 2.52717 20.1908 2.52133 20.121C2.50194 19.8896 2.49799 19.4991 2.50082 18.8662C2.50663 17.5665 2.54583 15.0569 2.57406 13.707C2.60255 12.345 2.61912 12.2152 2.64926 11.5429C2.67884 10.8829 2.72379 9.62427 2.77328 8.70209C2.82358 7.76494 2.87826 7.18577 2.91195 6.8476C2.96877 6.27758 3.04253 5.93145 3.10433 5.56049C3.18041 5.10397 3.24357 4.81183 3.64535 3.5937C3.7145 3.38403 3.80245 3.1744 3.93246 2.98725C4.08225 2.7717 4.25222 2.63781 4.40805 2.54584L4.52719 2.48334C4.81133 2.35144 5.12812 2.31417 5.36215 2.28999C5.67983 2.25716 6.12884 2.23128 6.73422 2.19428C7.68984 2.13589 9.31974 2.1076 10.1366 2.07905C10.942 2.05089 11.0893 2.03398 11.6952 2.01948C12.3151 2.00464 13.4727 1.99023 14.3778 2.00874ZM14.3368 4.00874C13.4727 3.99107 12.3476 4.00403 11.743 4.0185C11.1251 4.03329 11.1087 4.04652 10.2059 4.07807C9.31371 4.10925 7.7817 4.13383 6.85629 4.19038C6.22675 4.22885 5.83284 4.25289 5.5682 4.28022C5.55247 4.28185 5.53728 4.2845 5.52328 4.28608C5.1552 5.40562 5.12766 5.58549 5.07699 5.88959C5.00349 6.33076 4.95033 6.5628 4.90219 7.04584C4.87072 7.36167 4.81864 7.90985 4.77035 8.80952C4.72128 9.72401 4.67846 10.9378 4.6473 11.6328C4.6167 12.3155 4.60095 12.4165 4.57308 13.749C4.54846 14.9265 4.51733 16.9881 4.5057 18.3447C5.07219 17.9493 5.68872 17.5221 6.09848 17.2031C6.58416 16.825 6.87404 16.6014 7.05453 16.458C7.13794 16.3917 7.18446 16.3519 7.21078 16.329C7.33911 16.181 7.50447 16.0799 7.68246 16.0273C7.77651 15.9676 7.88207 15.9225 7.99691 15.8964C8.04369 15.8858 8.13496 15.8641 8.2518 15.8505L8.26937 15.8486L8.28793 15.8476C8.28827 15.8474 8.28959 15.8468 8.29183 15.8466C8.29467 15.8464 8.29864 15.8461 8.30355 15.8456C8.31368 15.8447 8.32705 15.8434 8.34359 15.8417C8.37705 15.8383 8.42133 15.8339 8.47543 15.8281C8.58368 15.8163 8.72889 15.8002 8.90512 15.7802C9.25753 15.7402 9.73133 15.6851 10.2782 15.621L10.287 15.6201L10.2967 15.6191C10.7654 15.5727 10.8961 15.5602 11.8514 15.5507C12.7358 15.542 14.4206 15.53 15.8934 15.5165C17.3841 15.5029 18.6141 15.4954 19.2782 15.4746C19.379 15.4714 19.4721 15.4689 19.5555 15.4667C19.5942 15.4657 19.6306 15.4648 19.6649 15.4638C19.6771 15.3261 19.689 15.1293 19.6981 14.83C19.7037 14.6454 19.7168 14.5694 19.7342 13.3583C19.7511 12.1861 19.7768 9.95785 19.783 8.73139C19.7893 7.4992 19.7757 7.31233 19.7664 7.1894C19.7602 7.10645 19.7574 7.07125 19.7489 7.01557C19.7392 6.95327 19.7204 6.85349 19.6766 6.66596C19.5535 6.13913 19.4448 5.70503 19.3621 5.39545C19.3207 5.24013 19.2871 5.12147 19.2625 5.04096C19.2526 5.00832 19.2445 4.98665 19.2401 4.97358C19.1905 4.87606 19.1477 4.78161 19.118 4.71186C19.0731 4.60657 19.0455 4.53723 19.0125 4.46772C19.0065 4.45509 18.9991 4.44461 18.994 4.43452C18.9878 4.43282 18.9813 4.43048 18.9745 4.42866C18.8591 4.39814 18.7022 4.36497 18.5164 4.33393C18.1435 4.27162 17.7108 4.22587 17.3602 4.21577C16.9844 4.20493 16.6027 4.16018 16.1112 4.1103C15.7564 4.0743 15.1896 4.02618 14.3368 4.00874Z" fill="black"/>
</svg>
