<svg width="24" height="24" viewBox="0 0 24 24" fill="none" xmlns="http://www.w3.org/2000/svg">
<path d="M13.5925 1.25784C14.4038 1.26751 15.0294 1.30112 15.488 1.33792C16.2497 1.39908 16.7574 1.52477 17.1902 1.7178C17.457 1.83685 17.718 1.99997 18.0701 2.2764C18.4204 2.55149 18.8727 2.95759 19.4187 3.4805C19.9677 4.00626 20.6178 4.65685 20.9646 5.01077C21.4143 5.46966 21.6348 5.81664 21.9578 6.32816C22.1776 6.67637 22.3538 7.07357 22.5037 7.43265C22.6678 7.8261 22.8126 8.24087 22.9431 8.71194C23.0729 9.18042 23.1896 9.71242 23.2507 10.2686C23.3142 10.8458 23.3128 11.4188 23.2019 12.168C23.0945 12.8932 22.884 13.7776 22.6697 14.4717C22.4475 15.1911 22.2227 15.6937 21.9519 16.2178C21.6893 16.726 21.3844 17.2491 21.1902 17.5694C20.9604 17.9481 20.8407 18.106 20.4666 18.4942C20.1292 18.8442 19.5246 19.4465 19.0544 19.8643C18.5564 20.3069 18.2207 20.5294 17.8347 20.7647C17.4639 20.9907 17.0134 21.2489 16.4226 21.5049C15.8428 21.7561 15.1543 21.9918 14.6111 22.1485C14.0435 22.3121 13.6188 22.3935 13.0847 22.4336C12.5764 22.4718 11.9878 22.4705 11.4363 22.4453C10.8749 22.4197 10.3464 22.3676 9.75464 22.2696C9.17101 22.1728 8.53949 22.0327 8.02905 21.8897C7.50795 21.7437 7.12743 21.5975 6.82007 21.46C6.54342 21.3362 6.28199 21.1949 6.07983 21.0957C5.55101 20.8363 4.97854 20.5797 4.64917 20.3682C4.12628 20.0322 3.64412 19.5188 3.27515 19.0869C2.86442 18.6062 2.71634 18.1997 2.58472 17.9004C2.47117 17.6422 2.2139 17.0843 2.03101 16.5332C1.84251 15.9653 1.74002 15.4355 1.66968 14.9873C1.59536 14.5137 1.55283 14.0961 1.56812 13.3858C1.58301 12.6947 1.65347 11.7289 1.82788 10.5567C2.0016 9.38925 2.27708 8.04072 2.52319 7.05667C2.77414 6.05335 2.99565 5.43099 3.31909 4.77054C3.57189 4.25463 4.10581 3.76322 4.6228 3.3721C5.18009 2.95055 5.87155 2.53281 6.59937 2.19339C8.13325 1.47823 10.0754 1.36778 10.9109 1.31644C11.8091 1.26125 12.7847 1.24823 13.5925 1.25784ZM13.5681 3.25784C12.7949 3.24865 11.8706 3.26114 11.0339 3.31253C10.1342 3.36782 8.57895 3.47733 7.44507 4.00589C6.83933 4.28836 6.26991 4.63493 5.82983 4.9678C5.61025 5.13393 5.43316 5.28788 5.30444 5.41995C5.24087 5.48521 5.19393 5.54075 5.16089 5.58401C5.13018 5.6243 5.11782 5.64695 5.11597 5.65042C4.86923 6.15425 4.68992 6.63726 4.46362 7.54202C4.23248 8.46622 3.97009 9.75063 3.8064 10.8506C3.64347 11.9456 3.58108 12.8274 3.56812 13.4287C3.5556 14.0103 3.58749 14.3096 3.64526 14.6778C3.70708 15.0716 3.78937 15.4813 3.92944 15.9034C4.07513 16.3422 4.28165 16.793 4.41479 17.0957C4.57486 17.4597 4.6123 17.5735 4.79565 17.7881C5.14354 18.1953 5.46814 18.5172 5.73022 18.6856C5.93065 18.8143 6.28563 18.9691 6.96167 19.3008C7.28829 19.4611 7.38886 19.524 7.63647 19.6348C7.85364 19.732 8.14159 19.8444 8.56812 19.9639C9.0056 20.0864 9.56641 20.2115 10.0818 20.2969C10.5889 20.3809 11.0381 20.425 11.5271 20.4473C12.0261 20.47 12.5299 20.4688 12.9343 20.4385C13.3128 20.4101 13.6023 20.3578 14.0574 20.2266C14.5368 20.0883 15.1421 19.8803 15.6277 19.67C16.1022 19.4643 16.4658 19.2566 16.7937 19.0567C17.1064 18.866 17.3394 18.713 17.7263 18.3692C18.1414 18.0002 18.7049 17.4387 19.0261 17.1055C19.1873 16.9382 19.2579 16.86 19.3064 16.7979C19.3509 16.7408 19.3905 16.6802 19.4802 16.5323C19.6599 16.236 19.9405 15.7546 20.1755 15.2998C20.4024 14.8608 20.5774 14.4675 20.7585 13.8809C20.9475 13.2687 21.1331 12.4848 21.2234 11.875C21.31 11.2897 21.3075 10.8886 21.2634 10.4873C21.217 10.0648 21.1248 9.64121 21.0154 9.24612C20.9067 8.85362 20.7893 8.51795 20.658 8.20316C20.5123 7.85411 20.3907 7.5909 20.2673 7.39554C19.9534 6.89836 19.8266 6.70686 19.5359 6.41019C19.1993 6.06678 18.5655 5.43205 18.0359 4.92484C17.5034 4.41491 17.1068 4.06328 16.8347 3.84964C16.5653 3.63807 16.4462 3.57643 16.3757 3.54495C16.2059 3.46919 15.9341 3.37972 15.3289 3.33109C14.9187 3.29817 14.3376 3.26701 13.5681 3.25784ZM15.6218 12.8135C16.0037 12.4149 16.6361 12.4017 17.0349 12.7832C17.4336 13.1651 17.4478 13.7975 17.0662 14.1963C16.9942 14.2715 16.9472 14.3203 16.7253 14.5323C16.5117 14.7364 16.1144 15.1131 15.8201 15.3692L15.8054 15.3809L15.7908 15.3936C15.3264 15.7678 14.8567 16.1104 14.1433 16.2705C13.778 16.3525 13.286 16.4236 12.7986 16.459C12.2966 16.4955 11.7724 16.4974 11.1472 16.3916C10.5744 16.2947 9.90639 16.1231 9.42554 15.9346C9.11113 15.8113 8.85875 15.7078 8.66089 15.6143C8.46969 15.5239 8.27069 15.4171 8.09839 15.2715C7.87334 15.0813 7.67875 14.9133 7.62573 14.8604C7.23565 14.4698 7.23536 13.8357 7.62573 13.4453C8.01605 13.0553 8.64931 13.0556 9.03979 13.4453L9.03101 13.4366C9.04783 13.4514 9.07386 13.4741 9.10718 13.503C9.1719 13.5591 9.26457 13.6379 9.37866 13.7344C9.38242 13.7366 9.41847 13.7609 9.51538 13.8067C9.6483 13.8695 9.84721 13.9526 10.155 14.0733C10.4756 14.199 11.0046 14.3393 11.4812 14.42C11.9054 14.4917 12.2617 14.4924 12.6541 14.4639C13.0607 14.4343 13.4522 14.376 13.7048 14.3194C13.9499 14.2644 14.1216 14.1671 14.5193 13.8477C14.7734 13.6257 15.1317 13.2884 15.3435 13.086C15.5508 12.8879 15.5759 12.8615 15.6218 12.8135ZM15.1912 7.2764C15.7404 7.22249 16.2295 7.62464 16.2839 8.17386C16.2915 8.25078 16.2969 8.325 16.2996 8.50687C16.302 8.67506 16.3025 8.95661 16.3025 9.23245C16.3022 9.78446 15.8545 10.2324 15.3025 10.2325C14.7504 10.2324 14.3027 9.78447 14.3025 9.23245C14.3025 8.9487 14.3027 8.68517 14.3005 8.53519C14.2995 8.46285 14.2976 8.42528 14.2966 8.40628C14.2959 8.39266 14.2954 8.38668 14.2937 8.36917C14.2401 7.81997 14.6419 7.3306 15.1912 7.2764ZM9.52222 7.10159C10.0745 7.10159 10.5222 7.54932 10.5222 8.10159C10.5222 8.12844 10.5205 8.16275 10.5164 8.27542C10.5115 8.40775 10.5019 8.67008 10.4919 8.93948C10.4712 9.49116 10.0076 9.92188 9.45581 9.9014C8.90413 9.88083 8.47365 9.41692 8.4939 8.86526C8.5039 8.59579 8.51346 8.33412 8.51831 8.20218L8.52222 8.10159C8.52223 7.54942 8.97008 7.10176 9.52222 7.10159Z" fill="black"/>
</svg>
