<svg width="24" height="24" viewBox="0 0 24 24" fill="none" xmlns="http://www.w3.org/2000/svg">
<path d="M11.7939 14.1451C13.5885 14.1468 14.1059 14.2072 14.4297 14.2516C14.6663 14.284 14.9178 14.3168 15.167 14.443L15.2744 14.5035L15.3633 14.566C15.5573 14.7157 15.6584 14.8955 15.7031 14.9781C15.761 15.0853 15.8206 15.2196 15.8809 15.3619C16.0148 15.6783 16.2216 16.2215 16.3701 16.7028C16.5255 17.2062 16.6083 17.6197 16.6758 18.0856C16.7418 18.5415 16.7934 19.0495 16.8262 19.5377C16.859 20.027 16.8721 20.4838 16.8848 20.9323C16.9002 21.4841 16.465 21.9448 15.9131 21.9606C15.3612 21.9761 14.9015 21.5408 14.8857 20.9889C14.8729 20.5357 14.8609 20.1164 14.8311 19.6715C14.8011 19.2256 14.7538 18.7691 14.6963 18.3717C14.6402 17.9843 14.5782 17.6757 14.46 17.2926C14.3466 16.9252 14.1835 16.4976 14.0703 16.2223C13.8334 16.1927 13.3213 16.1466 11.792 16.1451C10.032 16.1435 7.05441 16.1988 5.50293 16.234C4.72261 16.2517 4.32026 16.2622 4.09668 16.2731C4.00416 16.2776 3.95741 16.2816 3.93555 16.2838C3.86256 16.3043 3.80835 16.3191 3.75488 16.3356C3.71257 16.3486 3.6814 16.3598 3.6582 16.3688C3.6095 16.4416 3.53649 16.5639 3.45703 16.7291C3.35946 16.9321 3.28011 17.1327 3.24023 17.2633C3.20395 17.382 3.05069 17.8133 2.98047 18.5524C2.91156 19.278 2.88952 19.6087 2.88867 19.8512C2.88627 20.5536 2.88672 21.0233 2.88672 21.0592C2.88635 21.6111 2.43868 22.0591 1.88672 22.0592C1.33466 22.0592 0.887087 21.6112 0.886719 21.0592C0.886719 21.0218 0.886256 20.5497 0.888672 19.8444C0.889871 19.4993 0.920791 19.0848 0.989258 18.3639C1.08031 17.4052 1.28993 16.8042 1.32812 16.6793C1.40423 16.4301 1.52408 16.1338 1.6543 15.8629C1.77918 15.6031 1.94704 15.2952 2.13672 15.0602L2.22559 14.9596C2.4364 14.739 2.67703 14.611 2.8623 14.5328C3.06619 14.4468 3.28549 14.3887 3.4082 14.3541L3.53906 14.3229C3.66962 14.2966 3.80451 14.2855 3.99902 14.276C4.25419 14.2636 4.68575 14.2515 5.45703 14.234C7.00978 14.1987 10.0083 14.1435 11.7939 14.1451ZM21.1436 7.48401C21.4283 7.01128 22.0426 6.8588 22.5156 7.14319C22.9885 7.4279 23.1408 8.04214 22.8564 8.51526C22.6718 8.82228 22.549 9.01831 22.3564 9.35217C22.1598 9.69313 21.8891 10.1809 21.3721 10.9449C20.8647 11.6948 20.1401 12.6836 19.7656 13.1862C19.6825 13.2977 19.5777 13.4388 19.4746 13.5514C19.3845 13.6498 19.1618 13.8816 18.8047 13.9674C18.3914 14.0666 18.0605 13.9161 17.8896 13.8151C17.7356 13.7239 17.5924 13.6007 17.501 13.5221C17.0775 13.1577 16.2972 12.4444 15.8799 12.0416C15.4199 11.5977 15.3059 11.4748 15.2314 11.3854C14.8784 10.961 14.9361 10.3305 15.3604 9.97717C15.7847 9.6241 16.4152 9.682 16.7686 10.1061L16.7695 10.1071C16.7698 10.1074 16.7716 10.1097 16.7754 10.1139C16.7844 10.1237 16.8037 10.1434 16.8389 10.1793C16.9105 10.2523 17.0387 10.3794 17.2695 10.6022C17.5524 10.8752 18.023 11.3055 18.4092 11.652C18.7949 11.1284 19.3285 10.3963 19.7158 9.82385C20.1867 9.12796 20.4225 8.69983 20.623 8.35217C20.8275 7.99771 20.9783 7.75878 21.1436 7.48401ZM8.27148 2.80334C8.46657 2.80585 8.85272 2.80694 9.24219 2.83362C9.59026 2.85747 10.1106 2.90972 10.5098 3.08459C11.1182 3.3514 11.5465 3.74192 11.8086 3.99182C12.0679 4.2391 12.3871 4.57333 12.6025 4.901C12.8907 5.33945 13.162 5.84997 13.3115 6.46545C13.4157 6.89413 13.5051 7.41324 13.4746 7.94592C13.4577 8.24039 13.4351 8.5884 13.2314 9.06702C13.1141 9.34284 12.9925 9.62595 12.8721 9.86975C12.7609 10.0949 12.6082 10.3774 12.4062 10.5973C12.1066 10.9232 11.6293 11.3053 11.0586 11.6451C10.782 11.8098 10.5604 11.9162 10.251 12.0319C9.96521 12.1387 9.55242 12.2741 9.09277 12.3346C8.63383 12.395 8.17064 12.3768 7.76074 12.3063C7.34473 12.2346 6.99636 12.1125 6.70605 11.9821C6.40608 11.8472 6.1471 11.6948 5.86523 11.4684C5.60279 11.2575 5.32784 10.9894 5.08691 10.7047C4.84169 10.4149 4.63492 10.1127 4.45508 9.78381C4.28066 9.46475 4.13427 9.12902 4.03809 8.8551C3.92004 8.51882 3.8737 8.25645 3.86133 7.81506C3.85092 7.44269 3.85263 6.86646 3.88184 6.48499C3.91577 6.04184 3.95289 5.35751 4.42773 4.68323C4.55605 4.50102 4.6956 4.30738 4.83984 4.13831C4.981 3.9729 5.17061 3.77855 5.41504 3.63245L5.69824 3.46545C5.9933 3.29751 6.32141 3.13296 6.65625 3.04749C7.16754 2.91702 7.65233 2.79543 8.27148 2.80334ZM8.24512 4.80334C7.91754 4.79922 7.66217 4.8544 7.15039 4.98499C7.03255 5.01516 6.84508 5.10722 6.44629 5.34534C6.46139 5.33569 6.43516 5.35059 6.36133 5.43713C6.28319 5.52873 6.18991 5.65368 6.0625 5.83459C5.94182 6.00598 5.91339 6.1617 5.87695 6.63733C5.8552 6.92132 5.85091 7.42037 5.86035 7.75842C5.86465 7.91202 5.87291 7.98863 5.88086 8.03479C5.88757 8.07361 5.89786 8.11246 5.92578 8.19202C5.9869 8.3661 6.08889 8.60235 6.20996 8.82385C6.32568 9.03551 6.45571 9.22646 6.61328 9.41272C6.77512 9.60398 6.95951 9.78132 7.11816 9.90881C7.25736 10.0206 7.3682 10.0872 7.52539 10.1578C7.69244 10.2329 7.87919 10.2976 8.09961 10.3356C8.32637 10.3746 8.58719 10.3834 8.83203 10.3512C9.07621 10.319 9.32772 10.2412 9.55078 10.1578C9.74979 10.0834 9.86322 10.0288 10.0352 9.92639C10.4838 9.65927 10.7962 9.39319 10.9336 9.24377C10.9387 9.23636 10.9877 9.16911 11.0791 8.98401C11.1706 8.79865 11.2712 8.56677 11.3916 8.28381C11.4315 8.18994 11.4465 8.12925 11.4551 8.08167C11.4654 8.02424 11.4709 7.96275 11.4785 7.83069C11.4928 7.57919 11.4508 7.27835 11.3682 6.93811C11.2913 6.62181 11.1449 6.3257 10.9307 5.99963C10.8418 5.86461 10.6551 5.65498 10.4287 5.43909C10.2048 5.22562 9.9834 5.03787 9.70703 4.91663C9.70325 4.91531 9.68951 4.91064 9.66406 4.90393C9.6299 4.89493 9.58362 4.88442 9.52539 4.87463C9.40737 4.85483 9.26389 4.83959 9.10547 4.82874C8.78535 4.80681 8.46732 4.8062 8.24512 4.80334Z" fill="black"/>
</svg>
