<svg width="24" height="24" viewBox="0 0 24 24" fill="none" xmlns="http://www.w3.org/2000/svg">
<path d="M8.45801 13.563C9.03968 13.5417 9.80985 13.542 10.4443 13.5679C11.0846 13.5942 11.5747 13.6447 11.9033 13.689C12.1865 13.7273 12.4285 13.7607 12.6826 13.8511C12.9747 13.9551 13.2647 14.0611 13.5146 14.1754C13.7575 14.2864 14.0431 14.4405 14.2783 14.6734C14.5466 14.9392 14.9334 15.4691 15.2705 16.0308C15.4508 16.3313 15.6519 16.6897 15.8027 17.0836C15.8823 17.2915 15.9753 17.582 16.0293 17.7447C16.0827 17.9058 16.2049 18.3726 16.2402 19.1324C16.2556 19.464 16.2672 19.7742 16.2637 20.0416C16.2604 20.2925 16.2444 20.5839 16.1738 20.8443C16.139 20.9727 16.1 21.1024 16.0547 21.2193C16.0194 21.3104 15.9404 21.5037 15.7861 21.6744C15.7833 21.6775 15.7552 21.7087 15.7344 21.731C15.7095 21.7575 15.6677 21.8006 15.6143 21.8463C15.5174 21.9288 15.286 22.103 14.9404 22.1246C14.8141 22.1325 14.6707 22.1385 14.5488 22.1431C14.4184 22.1481 14.3193 22.1512 14.2559 22.1548C14.2539 22.155 14.2481 22.1556 14.2441 22.1558C14.2366 22.1562 14.2279 22.1565 14.2188 22.1568C14.2013 22.1575 14.1818 22.1584 14.1592 22.1588C14.114 22.1595 14.0396 22.1601 13.9102 22.1607C13.6491 22.1619 13.1465 22.163 12.1631 22.1627C10.1946 22.1621 6.40286 22.1571 4.4541 22.148C2.52904 22.139 2.37487 22.1255 2.24805 22.1138C2.18563 22.1081 2.16175 22.1058 2.10938 22.1011C2.0914 22.0995 2.0632 22.0976 2.03613 22.0943C2.02341 22.0928 1.99662 22.0891 1.96582 22.0836C1.95552 22.0817 1.94002 22.0771 1.9209 22.0728C1.91378 22.0712 1.90647 22.0696 1.89941 22.0679C1.89639 22.0673 1.89276 22.0678 1.88965 22.067C1.87877 22.0641 1.8532 22.0563 1.81836 22.0445C1.77505 22.03 1.7326 22.0137 1.69238 21.9937C1.68303 21.9891 1.67419 21.983 1.66504 21.9781C1.6491 21.9695 1.63354 21.9601 1.61816 21.9507C1.60237 21.9412 1.58638 21.9318 1.57129 21.9214C1.55903 21.913 1.54699 21.904 1.53516 21.8951C1.52555 21.8878 1.51613 21.8802 1.50684 21.8726C1.48805 21.8573 1.46973 21.8413 1.45215 21.8248C1.44698 21.8199 1.44157 21.8151 1.43652 21.8101C1.42013 21.794 1.40389 21.7775 1.38867 21.7603C1.37841 21.7487 1.36905 21.7362 1.35938 21.7242C1.35066 21.7134 1.34225 21.7022 1.33398 21.691C1.32288 21.6759 1.31197 21.6607 1.30176 21.6451C1.29286 21.6315 1.28362 21.618 1.27539 21.6041C1.26825 21.5919 1.26149 21.5794 1.25488 21.567C1.24614 21.5506 1.23732 21.534 1.22949 21.5172C1.22315 21.5034 1.21763 21.4892 1.21191 21.4752C1.2065 21.4619 1.20114 21.4486 1.19629 21.4351C1.19227 21.4239 1.18917 21.4123 1.18555 21.4009C1.17792 21.3771 1.16989 21.3532 1.16406 21.3287C1.16239 21.3216 1.16168 21.3143 1.16016 21.3072C1.15587 21.2872 1.15247 21.267 1.14941 21.2466C1.14725 21.2324 1.1451 21.2181 1.14355 21.2037C1.1417 21.1862 1.1396 21.1686 1.13867 21.1509C1.1377 21.1331 1.1377 21.1152 1.1377 21.0972C1.13772 21.081 1.13785 21.0647 1.13867 21.0484C1.13941 21.0334 1.14116 21.0185 1.14258 21.0035C1.14372 20.9915 1.14393 20.9794 1.14551 20.9673C1.14589 20.9607 1.14908 20.9192 1.15332 20.8277C1.15765 20.734 1.16104 20.62 1.16504 20.5035C1.16894 20.3899 1.17311 20.2715 1.17676 20.1783C1.17858 20.1316 1.1805 20.0858 1.18262 20.0474C1.18364 20.0287 1.18774 19.9552 1.19824 19.8873C1.22394 19.7211 1.25782 19.6029 1.36719 19.2437C1.48048 18.8716 1.69798 18.1687 1.86719 17.6988C2.04639 17.2011 2.18098 16.9474 2.24414 16.8121C2.40179 16.4744 2.63084 16.0673 3.03906 15.65C3.35138 15.3307 3.64422 15.0434 4.03906 14.817C4.26815 14.6856 4.68353 14.4536 5.23438 14.2418C5.77305 14.0346 6.40401 13.859 6.91016 13.7486C7.4458 13.6318 7.85265 13.5853 8.45801 13.563ZM10.3623 15.566C9.78067 15.5422 9.06226 15.5416 8.53125 15.5611C8.02466 15.5797 7.73799 15.6152 7.33691 15.7027C6.90585 15.7967 6.37531 15.9462 5.95215 16.1089C5.54143 16.267 5.2284 16.4409 5.03418 16.5523C4.904 16.627 4.78013 16.7301 4.46875 17.0484C4.26646 17.2552 4.15319 17.4519 4.05664 17.6588C3.97028 17.8437 3.88881 17.9883 3.74902 18.3765C3.59918 18.7927 3.39486 19.4494 3.28027 19.8257C3.22923 19.9934 3.20224 20.083 3.1875 20.1363C3.4813 20.1395 3.89157 20.1453 4.46387 20.148C6.40818 20.1571 10.1962 20.1621 12.1641 20.1627C13.1477 20.163 13.6457 20.1619 13.9014 20.1607C14.0296 20.1601 14.0937 20.1593 14.126 20.1588H14.1416C14.1753 20.1568 14.2148 20.1556 14.2568 20.1539C14.2588 20.1139 14.263 20.0678 14.2637 20.0152C14.2663 19.8119 14.2574 19.5528 14.2422 19.2252C14.2169 18.6811 14.1379 18.3963 14.1318 18.3736C14.0659 18.1746 13.9929 17.9508 13.9346 17.7984C13.8466 17.5686 13.7167 17.3284 13.5557 17.0601C13.4104 16.818 13.2627 16.5969 13.1338 16.4205C12.998 16.2347 12.9054 16.1283 12.8711 16.0943C12.8842 16.1072 12.8502 16.0709 12.6836 15.9947C12.5229 15.9213 12.3095 15.8409 12.0117 15.7349C11.9854 15.7256 11.949 15.7137 11.6357 15.6714C11.3661 15.6351 10.9379 15.5895 10.3623 15.566ZM20.9316 8.24274C21.275 7.8102 21.9044 7.73825 22.3369 8.0816C22.7694 8.42499 22.8414 9.05433 22.498 9.48688C22.3208 9.71005 22.162 9.87504 21.4814 10.5591C20.7846 11.2597 19.5405 12.5033 18.9033 13.1334C18.7546 13.2804 18.6016 13.4315 18.4648 13.5464C18.3409 13.6506 18.1083 13.8339 17.7891 13.9048C17.3995 13.9912 17.0761 13.8766 16.8613 13.7554C16.6874 13.6572 16.5246 13.5183 16.4238 13.4341C15.9385 13.0286 15.0327 12.2371 14.5762 11.8375C14.1212 11.4392 14.0856 11.4074 14.0518 11.3765C13.6441 11.0047 13.6149 10.3726 13.9863 9.96442C14.3583 9.55615 14.9911 9.52705 15.3994 9.89899C15.4144 9.9126 15.4338 9.93019 15.8936 10.3326C16.2929 10.6822 17.0053 11.303 17.4912 11.7164C17.4929 11.7147 17.4953 11.7131 17.4971 11.7115C18.1289 11.0867 19.3687 9.8474 20.0635 9.14899C20.7727 8.43603 20.8395 8.35884 20.9316 8.24274ZM9.80859 2.86774C9.86369 2.87109 9.9322 2.87685 10.0029 2.88824C10.0469 2.89535 10.2042 2.92058 10.3691 3.00836C10.5204 3.08895 10.7024 3.23241 10.8105 3.31891C10.9517 3.4318 11.1155 3.56945 11.2725 3.70367C11.5315 3.92511 11.8147 4.17775 11.9609 4.31696C12.2089 4.51318 12.4199 4.72007 12.585 4.97028L12.6572 5.08649L12.6758 5.11969L12.6924 5.15387C12.7842 5.3463 12.9985 5.76876 13.0654 6.15582C13.0706 6.17462 13.1168 6.37869 13.1318 6.6109C13.1483 6.86509 13.1422 7.21289 13.0996 7.7525C13.07 8.12726 13.0245 8.73765 12.8721 9.23981C12.7709 9.5729 12.6755 9.86201 12.5811 10.0865C12.5338 10.1988 12.4751 10.3243 12.4004 10.442C12.3326 10.5486 12.2038 10.7271 11.9893 10.8609C11.7295 11.0228 11.2752 11.2969 10.5947 11.5005C10.2233 11.6117 9.77414 11.7082 9.35547 11.7632C8.96864 11.8141 8.54913 11.8504 8.15527 11.815C7.67512 11.7717 7.11969 11.7209 6.61523 11.438C6.14692 11.1754 5.59415 10.8659 5.2334 10.566C4.9966 10.369 4.56903 10.0332 4.30957 9.59137C4.14806 9.31616 3.96041 8.98627 3.85645 8.60504C3.74623 8.20048 3.62802 7.64521 3.68359 7.07184C3.72139 6.68248 3.77028 6.13367 4.02344 5.61285C4.1297 5.3944 4.23873 5.16632 4.34277 4.98004C4.43956 4.80678 4.59001 4.56027 4.81543 4.36676L5.20117 4.03668C5.54332 3.74793 5.77426 3.57266 6.07129 3.42633C6.3659 3.28125 6.88906 3.10894 7.47461 3.00836C7.71136 2.96771 7.94421 2.91247 8.41504 2.89313C8.81142 2.87687 9.1658 2.86348 9.43359 2.8609C9.56578 2.85964 9.69646 2.86094 9.80859 2.86774ZM8.49707 4.89215C8.18467 4.90499 8.09804 4.9302 7.81348 4.97906C7.3719 5.05488 7.0408 5.17814 6.95508 5.22028C6.84019 5.27688 6.77803 5.31824 6.14746 5.85895C6.13556 5.87643 6.11609 5.90689 6.08887 5.95563C6.01976 6.07939 5.94134 6.24208 5.82227 6.48688C5.75 6.6356 5.71624 6.82839 5.67383 7.2652C5.65393 7.47112 5.69475 7.74312 5.78613 8.07867C5.81276 8.17609 5.87165 8.3027 6.03418 8.57965C6.07822 8.65416 6.18263 8.75333 6.5127 9.02789C6.70002 9.18359 7.06216 9.39475 7.59375 9.69293C7.66939 9.73525 7.79803 9.77542 8.33496 9.82379C8.50306 9.83883 8.74551 9.82579 9.09473 9.77985C9.41259 9.73801 9.75702 9.66365 10.0215 9.58453C10.3371 9.49008 10.5707 9.37398 10.752 9.27008C10.8015 9.14513 10.869 8.95169 10.958 8.65875C11.0354 8.40392 11.0716 8.0241 11.1055 7.59528C11.1449 7.09508 11.1432 6.85622 11.1357 6.74078C11.1282 6.62495 11.1282 6.69027 11.0947 6.49664C11.0946 6.49621 11.0851 6.45392 11.043 6.35309C11.0071 6.26729 10.9628 6.17715 10.9102 6.06696C10.8903 6.03886 10.8385 5.97552 10.6953 5.86481L10.6426 5.82379L10.5947 5.77496L10.5322 5.71637C10.4933 5.68055 10.4425 5.6349 10.3838 5.58258C10.2662 5.47777 10.1202 5.34938 9.97266 5.22321C9.82442 5.09647 9.67887 4.97527 9.56152 4.88141C9.55318 4.87473 9.54401 4.8681 9.53613 4.86188C9.51112 4.86183 9.48272 4.86061 9.45215 4.8609C9.22097 4.86314 8.89832 4.87569 8.49707 4.89215Z" fill="black"/>
</svg>
