<svg width="24" height="24" viewBox="0 0 24 24" fill="none" xmlns="http://www.w3.org/2000/svg">
<path d="M21.9148 15.75C22.2937 15.3482 22.927 15.3292 23.3289 15.708C23.7306 16.0869 23.7487 16.7193 23.3699 17.1211C21.8385 18.7453 20.3888 20.2751 19.613 21.1016C18.8227 21.9436 18.7748 22.0131 18.7332 22.0694C18.7279 22.0764 18.701 22.1126 18.6726 22.1475C18.6407 22.1866 18.5864 22.2483 18.5125 22.3116C18.3421 22.457 18.0944 22.583 17.783 22.5869C17.5126 22.5902 17.2933 22.4998 17.1531 22.4258C17.0073 22.3488 16.8707 22.249 16.7458 22.1465C16.2888 21.7712 15.5463 20.9841 15.1658 20.5713C14.7587 20.1297 14.6483 19.989 14.5359 19.8418C14.2008 19.403 14.2858 18.7747 14.7244 18.4395C15.1633 18.1047 15.7907 18.1891 16.1257 18.628C16.191 18.7135 16.2592 18.8066 16.6365 19.2159C16.9215 19.5251 17.327 19.9508 17.656 20.2705C17.7841 20.1319 17.9458 19.9563 18.155 19.7334C18.9315 18.9061 20.3912 17.366 21.9148 15.75ZM12.0232 1.62601C12.7018 1.67328 13.1091 1.71588 13.4421 1.78616C13.7719 1.85583 14.0404 1.95971 14.3132 2.04984C15.049 2.29287 15.562 2.59796 15.8171 2.71585L15.8787 2.74417L15.9353 2.7803C16.363 3.05283 16.9539 3.50375 17.2673 4.24319C17.4853 4.75793 17.6716 5.28538 17.6775 5.99222C17.6808 6.38924 17.6647 7.01338 17.6238 7.49124C17.5808 7.99205 17.5093 8.35178 17.3855 8.72073C17.2628 9.08633 17.1009 9.42822 16.822 9.87308C16.5575 10.295 16.1807 10.8232 15.9216 11.1446C15.6472 11.4848 15.4487 11.6752 15.156 11.8399C14.8665 12.0028 14.3353 12.3013 13.5232 12.4629C13.7024 12.5009 13.8891 12.5418 14.071 12.586C14.3932 12.6641 14.8621 12.8358 15.3132 13.0205C16.2709 13.4126 16.8461 13.7376 17.0398 13.8711C17.2586 14.022 17.4298 14.1516 17.5662 14.2569L17.8591 14.4776L17.8611 14.4795C18.0044 14.5778 18.1524 14.7047 18.2771 14.8164C18.2834 14.8202 18.2925 14.8252 18.3044 14.8321C18.7837 15.1062 18.9495 15.718 18.6755 16.1973C18.4013 16.6763 17.7905 16.8423 17.3113 16.5684C17.1745 16.4902 17.0873 16.4319 16.9734 16.333L16.9597 16.3213C16.8405 16.2139 16.7679 16.1551 16.7332 16.1309L16.3435 15.8399C16.2185 15.7433 16.0803 15.6385 15.905 15.5176C15.9012 15.5152 15.8746 15.4986 15.8191 15.4668C15.7573 15.4315 15.6691 15.3827 15.5544 15.3242C15.3251 15.2073 14.9932 15.0513 14.5554 14.8721C14.1161 14.6922 13.7662 14.5706 13.6003 14.5303C13.3066 14.4591 13.02 14.3983 12.7888 14.3545C12.6735 14.3327 12.5751 14.3155 12.4988 14.3037C12.423 14.2921 12.3875 14.2877 12.3826 14.2871C11.8688 14.2554 11.3875 14.2117 10.9988 14.2617C10.7144 14.2985 10.4816 14.3296 10.3074 14.3575C10.2204 14.3714 10.155 14.3832 10.1091 14.3926C10.0916 14.3962 10.0796 14.3988 10.073 14.4004C9.80414 14.4967 9.62628 14.5805 9.38062 14.6905C9.23224 14.7569 9.04074 14.8516 8.86108 14.9561C8.69934 15.0502 8.5621 15.126 8.2146 15.3682C7.93603 15.5624 7.45405 15.9005 7.11401 16.1602C6.78939 16.4081 6.61434 16.569 6.44409 16.7461C6.26759 16.9297 6.09393 17.1326 5.86206 17.4444C5.60907 17.7846 5.32742 18.1796 5.18921 18.4053C4.87906 18.9117 4.74546 19.093 4.42163 19.6866C4.2366 20.0257 3.93563 20.5902 3.78198 20.8985C3.6174 21.2287 3.44431 21.6891 3.37085 21.9043C3.1924 22.4267 2.62384 22.7055 2.10132 22.5274C1.5788 22.3489 1.29992 21.7804 1.47827 21.2578C1.56509 21.0035 1.77099 20.4502 1.99194 20.0069C2.16219 19.6653 2.47699 19.0746 2.66577 18.7285C3.02152 18.0765 3.21563 17.7988 3.48413 17.3604C3.67421 17.05 4.00449 16.5913 4.25757 16.251C4.53166 15.8825 4.75842 15.6135 5.00171 15.3604C5.25121 15.1008 5.5046 14.8724 5.90015 14.5703C6.2804 14.28 6.7983 13.9177 7.07104 13.7276C7.48313 13.4403 7.67319 13.3335 7.85522 13.2276C8.1068 13.0812 8.3635 12.9551 8.56421 12.8653C8.7935 12.7626 9.05208 12.6417 9.42065 12.5108L9.55737 12.4688C9.70126 12.431 9.86211 12.4036 9.99194 12.3828C10.0063 12.3805 10.021 12.3783 10.0359 12.376C9.7953 12.3337 9.55942 12.2813 9.34546 12.2129C8.5463 11.9574 7.9302 11.7071 7.49878 11.3477C7.14107 11.0496 6.707 10.666 6.45288 10.2989C6.29209 10.0664 6.12643 9.75736 6.01733 9.35257C5.91018 8.95434 5.89611 8.2776 5.97437 7.54886C6.02295 7.0966 6.08896 6.69111 6.29761 6.1846C6.51062 5.66748 6.77381 5.03218 7.20386 4.47073C7.43502 4.16897 7.75401 3.80494 8.05054 3.51566C8.35486 3.21878 8.62969 2.99247 9.02319 2.74026C9.39498 2.50201 9.72052 2.29776 9.98413 2.14456C10.2083 2.0143 10.5019 1.851 10.7615 1.78323L10.9851 1.72464C11.2383 1.66135 11.5816 1.59531 12.0232 1.62601ZM11.8845 3.62112C11.6799 3.60693 11.5788 3.63658 11.2908 3.71194C11.2821 3.71572 11.2668 3.72312 11.2439 3.73441C11.1843 3.7638 11.1005 3.80924 10.989 3.87405C10.7657 4.00382 10.4713 4.1874 10.1023 4.42386C9.83334 4.59624 9.66372 4.7359 9.44702 4.9473C9.22246 5.16638 8.96621 5.45753 8.79077 5.68655C8.54496 6.00752 8.37142 6.40206 8.14722 6.94632C8.04 7.2066 8.0013 7.40295 7.96265 7.76273C7.92974 8.06919 7.92114 8.33125 7.92554 8.5303C7.92989 8.72581 7.94618 8.8203 7.948 8.83206C7.98907 8.98447 8.04656 9.0876 8.09741 9.16116C8.17523 9.27358 8.40239 9.49674 8.77905 9.81058C8.88265 9.89689 9.15941 10.0533 9.95483 10.3076C10.3027 10.4188 10.8349 10.4788 11.4666 10.5352C12.0356 10.586 12.5131 10.5886 12.8816 10.542C13.53 10.46 13.914 10.2433 14.1746 10.0967C14.1816 10.0928 14.1862 10.0902 14.1882 10.0889C14.1855 10.0909 14.1866 10.0909 14.1931 10.085C14.2123 10.0673 14.2601 10.0176 14.364 9.8887C14.5704 9.63276 14.9026 9.1706 15.1277 8.81155C15.3382 8.4757 15.4258 8.27533 15.49 8.08401C15.553 7.8961 15.5982 7.6978 15.6306 7.32034C15.6649 6.91972 15.6804 6.35959 15.6775 6.00784C15.6747 5.68679 15.6036 5.44393 15.4255 5.02347C15.3529 4.85235 15.1868 4.68035 14.8884 4.48636C14.4499 4.27695 14.2508 4.13574 13.6863 3.94925C13.2903 3.81843 13.2143 3.78136 13.0291 3.74222C12.8466 3.70373 12.5644 3.66849 11.8845 3.62112Z" fill="black"/>
</svg>
