<svg width="24" height="24" viewBox="0 0 24 24" fill="none" xmlns="http://www.w3.org/2000/svg">
<path d="M10.3262 1.48633C10.7601 1.48633 11.5538 1.48676 12.6114 1.55762C13.6615 1.62799 14.9409 1.76717 15.7061 1.86328C16.7768 1.9978 17.3067 2.19124 17.8204 2.43848C18.3973 2.71626 18.9351 3.22023 19.3487 3.64258C19.6217 3.92142 19.7453 4.12755 20.0684 4.71973C20.3957 5.31952 20.9815 6.43233 21.3682 7.25879C21.7695 8.11642 21.9476 8.65204 22.1173 9.3418C22.28 10.0035 22.4361 10.8105 22.5274 11.6514C22.6185 12.4902 22.6403 13.3382 22.6075 14.002C22.5729 14.7025 22.4749 15.1894 22.2755 15.7812C22.0883 16.3365 21.8114 16.9838 21.5557 17.4932C21.2881 18.0264 21.0424 18.4072 20.71 18.8291C20.3901 19.2351 19.9916 19.6756 19.5821 20.0645C19.1697 20.4561 18.7472 20.7926 18.3282 21.0566C17.8939 21.3303 17.4968 21.5032 17.0421 21.6641C16.5852 21.8256 16.0533 21.9804 15.293 22.125C14.5407 22.268 13.5692 22.3992 12.5362 22.4502C11.5066 22.501 10.4577 22.4671 9.86726 22.4385C9.06011 22.3994 8.69475 22.2766 8.35066 22.1416C8.16241 22.0677 7.81 21.9237 7.1241 21.6426C6.64249 21.4452 6.05876 21.1334 5.6407 20.8945C4.82918 20.4307 4.29489 19.8864 3.91999 19.4531C3.60727 19.0917 3.20197 18.504 2.753 17.791C2.48449 17.3646 2.21093 16.8953 1.92195 16.3047C1.73522 15.923 1.52804 15.4162 1.35163 14.8955C1.1658 14.347 1.02339 13.7798 0.936595 13.0332C0.852303 12.308 0.824768 11.4327 0.836986 10.79C0.849839 10.1148 0.908279 9.68777 1.0196 9.16895C1.12456 8.67984 1.27727 8.10421 1.41706 7.66797C1.66562 6.89237 1.98269 6.35437 2.27839 5.87891C2.45499 5.59498 2.66412 5.30306 2.93367 4.96582C3.48934 4.27063 3.93241 3.80904 4.10066 3.67383C4.42329 3.4146 5.15902 2.97635 5.78132 2.68555C6.01145 2.57801 6.1635 2.50388 6.29499 2.43848C6.42704 2.3728 6.55192 2.30939 6.71199 2.23633L6.73347 2.22656C7.13641 2.05378 7.84203 1.82756 8.8116 1.66406L8.86433 1.65527L8.91902 1.65137C9.00191 1.64647 9.09589 1.64363 9.19831 1.63867C9.35168 1.54298 9.53255 1.48633 9.72663 1.48633H10.3262ZM11.1944 3.49512C11.0871 3.53982 10.9707 3.56865 10.8477 3.57324C10.1514 3.59878 9.49245 3.6228 9.08796 3.64551C8.28686 3.78464 7.7594 3.96377 7.52742 4.0625C7.41007 4.11639 7.31706 4.16314 7.18562 4.22852C7.04754 4.2972 6.87923 4.38065 6.628 4.49805C6.08591 4.75139 5.50611 5.11003 5.35359 5.23242C5.38204 5.20958 5.31431 5.26731 5.13679 5.46094C4.97806 5.63408 4.75836 5.88585 4.49617 6.21387C4.26195 6.50689 4.10171 6.73444 3.97663 6.93555C3.71088 7.36286 3.49601 7.73641 3.32234 8.27832C3.20374 8.6484 3.06663 9.16034 2.97468 9.58887C2.88915 9.98753 2.84631 10.2867 2.83601 10.8281C2.82509 11.4025 2.8512 12.1858 2.92292 12.8027C2.99216 13.3982 3.10076 13.8276 3.24519 14.2539C3.39906 14.7081 3.57497 15.1338 3.71785 15.4258C3.96882 15.9387 4.2057 16.345 4.44538 16.7256C4.8877 17.428 5.22493 17.9055 5.43171 18.1445C5.72334 18.4816 6.08894 18.8468 6.63386 19.1582C7.0299 19.3845 7.52352 19.6447 7.88288 19.792C8.57869 20.0772 8.91195 20.2135 9.0821 20.2803C9.19679 20.3253 9.26698 20.3508 9.37117 20.374C9.4825 20.3988 9.65978 20.4267 9.96394 20.4414C10.5268 20.4687 11.502 20.4983 12.4376 20.4521C13.3701 20.4061 14.25 20.2876 14.92 20.1602C15.5819 20.0343 16.0151 19.9056 16.3751 19.7783C16.7368 19.6504 16.9894 19.5369 17.2618 19.3652C17.5496 19.1838 17.8696 18.933 18.2052 18.6143C18.5435 18.2929 18.8771 17.9238 19.1387 17.5918C19.3879 17.2756 19.5617 17.0089 19.7686 16.5967C19.9877 16.1603 20.2262 15.5988 20.38 15.1426C20.5213 14.7231 20.585 14.418 20.6104 13.9033C20.6377 13.3519 20.6197 12.6092 20.5391 11.8672C20.4587 11.1269 20.3197 10.4081 20.1749 9.81934C20.037 9.25868 19.9032 8.84697 19.5567 8.10645C19.1955 7.33456 18.632 6.26319 18.3126 5.67773C18.1484 5.3769 18.0699 5.23985 18.0177 5.16016C17.9846 5.10974 17.971 5.0941 17.92 5.04199C17.5108 4.62413 17.185 4.35195 16.9532 4.24023C16.6444 4.09161 16.324 3.95667 15.4561 3.84766C14.7128 3.7543 13.4754 3.6196 12.4776 3.55273C11.9854 3.51976 11.5545 3.50347 11.1944 3.49512ZM11.0069 12.9229C11.929 12.828 12.7598 12.9389 13.2559 13.0107C13.9705 13.1143 14.5117 13.4392 14.9473 13.7646L15.3507 14.082L15.376 14.1025L15.3995 14.125C16.4502 15.0931 16.7648 15.417 16.9415 15.6729L17.0108 15.7803L17.0303 15.8135C17.0844 15.9115 17.1523 16.0524 17.2266 16.1992C17.4754 16.6917 17.2785 17.2936 16.7862 17.543C16.2938 17.7923 15.6922 17.5947 15.4425 17.1025C15.3488 16.9175 15.3164 16.8519 15.2882 16.7988C15.2741 16.7812 15.2372 16.7381 15.1534 16.6514C14.9837 16.4759 14.6682 16.1717 14.0635 15.6143C13.5524 15.2026 13.3041 15.0388 12.9688 14.9902C12.4961 14.9218 11.873 14.8442 11.212 14.9121C10.6152 14.9735 10.3263 15.031 9.97273 15.2148C9.55361 15.4328 9.03931 15.6951 8.71296 15.9512C8.05599 16.4668 7.67203 16.8927 7.58503 17.002C7.24103 17.4334 6.61163 17.5047 6.17976 17.1611C5.74778 16.8172 5.6768 16.1879 6.02058 15.7559C6.21846 15.5073 6.7183 14.9746 7.47859 14.3779C7.98689 13.979 8.70291 13.6209 9.04988 13.4404C9.74586 13.0785 10.3406 12.9914 11.0069 12.9229ZM15.2706 8.20312C15.4042 8.21277 15.6271 8.23157 15.7647 8.24414C15.9121 8.25761 15.9695 8.26485 16.1016 8.28027C16.6499 8.34454 17.0426 8.84125 16.9786 9.38965C16.9142 9.9377 16.4174 10.3305 15.8692 10.2666C15.7344 10.2509 15.701 10.2462 15.5821 10.2354C15.4529 10.2236 15.2442 10.2067 15.127 10.1982C15.0704 10.1942 15.042 10.192 15.0284 10.1914C15.0196 10.1911 15.0174 10.1914 15.005 10.1914C14.4528 10.1914 14.0052 9.74347 14.005 9.19141C14.005 8.63912 14.4527 8.19141 15.005 8.19141C15.0677 8.19141 15.1266 8.19274 15.2706 8.20312ZM8.80281 8.17969H8.81648C9.01319 8.18688 9.08853 8.19729 9.14656 8.2041C9.17195 8.20708 9.20507 8.21029 9.26472 8.21484C9.81516 8.2571 10.2276 8.73756 10.1856 9.28809C10.1433 9.83837 9.66274 10.2508 9.11238 10.209C9.06205 10.2051 8.98729 10.2 8.91413 10.1914C8.87085 10.1863 8.87487 10.1861 8.85749 10.1846C8.8428 10.1833 8.81016 10.1812 8.74324 10.1787V10.1777C8.54093 10.173 8.37155 10.1701 8.24812 10.168C8.18517 10.1669 8.13375 10.1665 8.09675 10.166C8.07853 10.1658 8.06353 10.1652 8.05281 10.165C8.04385 10.1649 8.03933 10.165 8.03816 10.165C7.48604 10.165 7.03842 9.7171 7.03816 9.16504C7.03816 8.61275 7.48587 8.16504 8.03816 8.16504C8.0908 8.16505 8.38513 8.16992 8.80281 8.17969Z" fill="black"/>
</svg>
