<svg width="24" height="24" viewBox="0 0 24 24" fill="none" xmlns="http://www.w3.org/2000/svg">
<path d="M8.47559 1.11558C8.83976 1.14616 9.34574 1.26234 9.86816 1.49644C10.2741 1.67837 10.5025 1.8476 10.6562 1.96519C10.8405 2.10607 11.1582 2.41294 11.5283 2.85191C11.6871 3.04018 11.812 3.20835 11.9795 3.47593C12.0203 3.39769 12.0567 3.33 12.0879 3.27476C12.2996 2.90009 12.5818 2.6931 12.9209 2.47105C13.2399 2.2622 13.7815 1.99359 14.0986 1.83921C14.4784 1.65433 14.7367 1.55709 15.0693 1.4857C15.685 1.35359 16.2672 1.34537 16.7285 1.36167C17.1827 1.37773 17.6273 1.47569 17.998 1.5814L18.3418 1.68687L18.5352 1.76304C18.7194 1.84763 18.8735 1.95306 18.9912 2.04136C19.1469 2.15814 19.3079 2.29927 19.4277 2.40171C19.9554 2.85273 20.1539 3.52326 20.2959 4.13999C20.4402 4.76686 20.3612 5.24543 20.2979 5.47886C20.2352 5.70964 20.1087 5.88928 20.0127 6.0062C20.1592 6.00501 20.2964 6.0037 20.4189 6.00327C20.8641 6.00173 21.1736 6.01166 21.3906 6.03257C21.4973 6.04285 21.6128 6.05885 21.7236 6.08726C21.7975 6.1062 21.9753 6.15565 22.1514 6.29038L22.2275 6.35386L22.3027 6.43198C22.4639 6.61579 22.5209 6.80902 22.54 6.8773C22.5686 6.97956 22.5839 7.08197 22.5938 7.15855C22.6142 7.31809 22.6324 7.54993 22.6553 7.8646C22.6942 8.40193 22.7287 9.31541 22.7344 9.93589C22.7387 10.4105 22.7219 10.7568 22.7002 11.0082C22.6893 11.1338 22.6775 11.2343 22.667 11.3119C22.6619 11.3499 22.6568 11.3822 22.6533 11.4056C22.6515 11.418 22.6504 11.4268 22.6494 11.4339C22.6489 11.4375 22.6486 11.4399 22.6484 11.4408C22.6363 11.5354 22.6075 11.6762 22.5303 11.8275C22.4491 11.9864 22.3427 12.1008 22.2471 12.181C22.0118 12.3784 21.7596 12.4233 21.625 12.4437C21.4843 12.4651 21.2791 12.4836 20.9736 12.5033C20.9094 12.5074 20.8375 12.5095 20.7598 12.514C20.78 12.9516 20.7977 13.4907 20.7949 14.3158C20.7905 15.5964 20.7473 17.5239 20.6973 18.6263C20.6475 19.7233 20.591 20.0702 20.5068 20.3763C20.4852 20.455 20.4532 20.5739 20.4189 20.6761C20.3854 20.776 20.3218 20.9498 20.1973 21.1185C20.0565 21.3089 19.893 21.5103 19.7236 21.681C19.5952 21.8105 19.3226 22.0719 18.9639 22.1781C18.8184 22.2211 18.6863 22.2333 18.4863 22.2474C18.2687 22.2627 17.8804 22.2836 17.1621 22.3167C15.7131 22.3837 12.9981 22.4975 11.46 22.5755C9.95425 22.6519 9.56415 22.6955 8.57617 22.7044C7.60013 22.7133 6.05536 22.6897 5.26465 22.6732C4.87715 22.6651 4.64831 22.6599 4.51367 22.6527C4.46424 22.6501 4.14392 22.6529 3.85645 22.4593C3.74463 22.384 3.59702 22.2618 3.47461 22.0628C3.36455 21.884 3.30959 21.6993 3.27832 21.5414C3.19029 21.0963 3.14402 20.628 3.10938 20.1888C3.08816 19.92 3.05281 19.5673 3.01758 18.3509C2.98275 17.1482 2.94863 15.1457 2.93164 14.14C2.91482 13.1444 2.91406 13.1066 2.91406 13.0755C2.91408 12.9782 2.92816 12.8842 2.9541 12.7953C2.94515 12.7949 2.93635 12.7947 2.92773 12.7943C2.65832 12.7819 2.41508 12.7457 2.18555 12.6673C1.94953 12.5867 1.78139 12.4782 1.67578 12.4085C1.55009 12.3256 1.43119 12.2187 1.33496 12.0804C1.24685 11.9538 1.20176 11.8301 1.19824 11.8207L1.1875 11.7923L1.17773 11.763C1.1297 11.6158 1.11918 11.4563 1.11621 11.4203C1.10937 11.3378 1.10318 11.2352 1.09863 11.1156C1.08948 10.8741 1.08358 10.5278 1.08203 10.058V10.0355C1.0932 9.46064 1.13025 8.71287 1.16699 7.96616C1.17352 7.83347 1.20611 7.70762 1.25879 7.59409C1.21776 7.48885 1.19239 7.37466 1.18945 7.25523C1.17628 6.7033 1.61307 6.24521 2.16504 6.23179C2.36271 6.227 2.55997 6.22331 4.48145 6.20249C4.33107 5.92506 4.17882 5.53252 4.16895 4.97105C4.16468 4.7284 4.16354 4.49123 4.1748 4.28452C4.1848 4.10145 4.20824 3.83466 4.30469 3.58823L4.39453 3.36655C4.50814 3.10255 4.70257 2.72868 5.05469 2.40562C5.40094 2.08801 5.76415 1.7689 6.33691 1.59312C6.64942 1.49725 7.22977 1.32459 7.56348 1.23374C7.88798 1.14541 8.07663 1.10166 8.32812 1.10679L8.47559 1.11558ZM7.0459 12.847C5.76198 12.8611 5.20858 12.863 4.88965 12.8607C4.90485 12.93 4.91405 13.0017 4.91406 13.0755C4.91406 13.0843 4.9137 13.1018 4.93066 14.1058C4.94773 15.1158 4.98221 17.1043 5.0166 18.2923C5.05058 19.4658 5.08299 19.7839 5.10254 20.0316C5.12037 20.2576 5.14042 20.4707 5.16504 20.6703C5.20877 20.6712 5.25556 20.6731 5.30566 20.6742C6.09309 20.6906 7.61397 20.713 8.55859 20.7044C9.27522 20.698 9.61442 20.6744 10.4473 20.6273C10.4381 20.1544 10.4389 19.4209 10.4717 17.8343C10.4995 16.4908 10.5485 14.5694 10.5957 12.8041C9.25633 12.8209 7.97088 12.8369 7.0459 12.847ZM18.543 12.6351C17.8893 12.6744 17.7997 12.6965 15.6309 12.7337C14.834 12.7474 13.7538 12.7611 12.5977 12.7767C12.5495 14.5614 12.4988 16.5163 12.4707 17.8753C12.4398 19.368 12.438 20.0819 12.4453 20.5267C13.9766 20.4559 15.9363 20.3721 17.0703 20.3197C17.7581 20.2879 18.1222 20.2667 18.3193 20.2533C18.3818 20.1882 18.4556 20.1001 18.5352 19.9964C18.5373 19.9892 18.5404 19.9811 18.543 19.972C18.5532 19.9358 18.5636 19.899 18.5781 19.846C18.5996 19.7682 18.6505 19.6094 18.6992 18.5355C18.7478 17.4654 18.7906 15.5664 18.7949 14.3089C18.7976 13.5336 18.7813 13.0302 18.7627 12.6224C18.6827 12.6269 18.6088 12.6311 18.543 12.6351ZM5.06934 8.19468C4.16212 8.20434 3.56252 8.21318 3.15723 8.21812C3.12287 8.91798 3.09179 9.57176 3.08203 10.0736C3.08313 10.3719 3.08656 10.6111 3.09082 10.7982C3.47923 10.8152 4.10819 10.8377 4.46875 10.8519C4.80954 10.8654 4.82075 10.8712 7.02441 10.847C7.96749 10.8367 9.28437 10.8204 10.6504 10.8031C10.6636 10.3238 10.6754 9.88909 10.6855 9.52183C10.7036 8.87175 10.7153 8.43163 10.7236 8.13413C8.66501 8.15575 6.49056 8.17955 5.06934 8.19468ZM20.4258 8.00327C19.7362 8.00567 18.561 8.02153 17.9219 8.0355C17.28 8.04953 17.1694 8.062 14.6924 8.09214C14.1331 8.09894 13.4599 8.1046 12.7246 8.11265C12.7164 8.41202 12.7051 8.87139 12.6855 9.57749C12.6759 9.92382 12.6647 10.3296 12.6523 10.7757C13.7755 10.7605 14.8212 10.7471 15.5967 10.7337C17.7331 10.6971 17.7939 10.6768 18.4229 10.639C19.0692 10.6001 20.0817 10.5522 20.7256 10.513C20.7315 10.3621 20.7364 10.1775 20.7344 9.95445C20.729 9.36717 20.6965 8.49628 20.6611 8.00913C20.661 8.00795 20.6603 8.00641 20.6602 8.00523C20.5895 8.00464 20.5116 8.00298 20.4258 8.00327ZM8.25879 3.11948C8.21812 3.1294 8.16304 3.14297 8.08789 3.16343C7.78389 3.2462 7.22785 3.41196 6.92383 3.50523C6.81421 3.53886 6.73485 3.57876 6.40723 3.87925C6.32316 3.95636 6.27136 4.05458 6.18164 4.28062C6.17865 4.30225 6.17486 4.33839 6.17188 4.39292C6.16482 4.52211 6.16476 4.69763 6.16895 4.93589C6.17085 5.04425 6.18604 5.11294 6.19824 5.15366C6.21024 5.1936 6.22504 5.22587 6.24609 5.26304C6.292 5.34402 6.38562 5.45081 6.57715 5.62632C6.82398 5.85249 6.89383 5.86557 7.37012 6.06382C7.38778 6.07049 7.40096 6.07522 7.41016 6.07847C7.41767 6.07917 7.42696 6.08057 7.43848 6.0814C7.46848 6.08356 7.50273 6.08481 7.54883 6.08726C7.66722 6.09357 7.77945 6.12096 7.88281 6.16441C8.94359 6.15335 10.0849 6.14091 11.1738 6.12925L11.1729 6.1273C10.9863 5.72186 10.6578 5.16204 10.416 4.75327C10.2019 4.3913 10.1149 4.27836 9.99902 4.14097C9.84167 3.95437 9.70735 3.80977 9.60547 3.70737C9.49721 3.59859 9.44138 3.55309 9.44141 3.55308C9.3887 3.51277 9.34888 3.48276 9.2959 3.44956C9.24275 3.41628 9.16551 3.37307 9.05078 3.32163C8.86664 3.23911 8.6921 3.18385 8.54883 3.14976C8.42705 3.12079 8.34313 3.11173 8.30566 3.10874C8.29458 3.11116 8.27915 3.11452 8.25879 3.11948ZM16.6582 3.3607C16.2735 3.3471 15.8761 3.35875 15.4893 3.44175C15.3614 3.46918 15.2603 3.49898 14.9746 3.63804C14.6262 3.80763 14.2083 4.01843 14.0166 4.1439C13.945 4.19077 13.8936 4.22619 13.8564 4.25327C13.8366 4.26775 13.8229 4.27888 13.8135 4.28648C13.6993 4.49174 13.5077 4.87111 13.3848 5.34898C13.3338 5.54743 13.3004 5.75353 13.2793 5.95445C13.3016 6.00837 13.3222 6.05871 13.3408 6.10581C13.8274 6.10032 14.2757 6.09691 14.668 6.09214C14.824 6.09024 14.9706 6.08706 15.1084 6.0853C15.2769 5.84878 15.547 5.68748 15.8594 5.66734C16.2625 5.64134 16.5901 5.61908 16.8604 5.57554C17.1075 5.5357 17.3077 5.47639 17.4531 5.42515C17.7235 5.31226 17.9849 5.18214 18.2227 4.97202C18.2843 4.91751 18.3347 4.87167 18.375 4.83335V4.83237C18.3746 4.77108 18.3697 4.68827 18.3467 4.58823C18.2803 4.30014 18.2244 4.12528 18.1758 4.01499C18.1344 3.92113 18.1133 3.9082 18.125 3.91929C17.9734 3.78964 17.8804 3.708 17.791 3.64097C17.7463 3.60747 17.7198 3.59162 17.709 3.5853L17.7197 3.58726C17.3483 3.46573 16.9758 3.37198 16.6582 3.3607Z" fill="black"/>
</svg>
