<svg width="24" height="24" viewBox="0 0 24 24" fill="none" xmlns="http://www.w3.org/2000/svg">
<path d="M10.7764 3.33692C11.3228 3.41705 11.7012 3.92525 11.6211 4.47169C11.607 4.56757 11.5893 4.67299 11.1064 7.25977C11.0357 7.63857 10.9532 8.0705 10.8652 8.54102C12.4541 8.33943 14.0389 8.14028 15.2334 7.98633C15.3416 7.15321 15.4377 6.4201 15.5068 5.87208C15.6984 4.3536 15.7108 4.27072 15.7236 4.19239C15.8132 3.64746 16.3271 3.2787 16.8721 3.36817C17.417 3.45772 17.7868 3.97167 17.6973 4.51661C17.6923 4.54666 17.6867 4.57301 17.4912 6.12305C17.4372 6.55101 17.3648 7.09533 17.2852 7.71485C18.2138 7.58948 18.2533 7.5786 18.2793 7.57227C18.3762 7.54865 18.437 7.53347 18.5049 7.51563C19.0388 7.37539 19.585 7.69472 19.7256 8.22852C19.8658 8.76237 19.5473 9.30855 19.0137 9.44922C18.9428 9.46787 18.8678 9.48764 18.7529 9.51563C18.6099 9.5505 18.4376 9.58098 17.0166 9.76856C16.8924 10.6868 16.7546 11.6563 16.6133 12.5928C16.7957 12.5532 16.97 12.5152 17.1348 12.4795C19.7614 11.9103 19.8554 11.9004 20.0527 11.8604C20.5938 11.7505 21.1222 12.0997 21.2324 12.6406C21.3424 13.1818 20.9923 13.7093 20.4512 13.8193C20.26 13.8582 20.1768 13.8672 17.5586 14.4346C17.1765 14.5174 16.7437 14.612 16.2754 14.7139C15.9482 16.635 15.6392 18.1532 15.4551 19.0381C15.3414 19.5842 15.2785 19.8783 15.2412 20.0469C15.1964 20.2494 15.198 20.2338 15.1904 20.2705C15.1903 20.2711 15.1894 20.2738 15.1885 20.2803C15.1873 20.288 15.1854 20.3018 15.1826 20.3262C15.1767 20.3786 15.1696 20.4564 15.1572 20.5908C15.1063 21.1405 14.6191 21.5448 14.0693 21.4941C13.5194 21.4434 13.1143 20.9562 13.165 20.4063C13.1871 20.167 13.2014 20.0133 13.2314 19.8672C13.24 19.826 13.2612 19.7358 13.2881 19.6143C13.3228 19.4571 13.3844 19.1726 13.4971 18.6309C13.6525 17.884 13.8954 16.6852 14.1641 15.1748C12.5832 15.5195 10.8761 15.8919 9.42676 16.209C9.32218 16.7639 9.22791 17.2755 9.14355 17.7207C8.63456 20.4071 8.59379 20.5632 8.54883 20.7354C8.40924 21.2697 7.86246 21.5897 7.32812 21.4502C6.7939 21.3106 6.47377 20.7638 6.61328 20.2295C6.6363 20.1414 6.66293 20.0708 7.17871 17.3486C7.21876 17.1373 7.25959 16.9106 7.30469 16.6719C6.12565 16.9304 5.52585 17.0627 5.21973 17.1309C5.06245 17.1659 4.98661 17.1821 4.95117 17.1904C4.49805 17.3215 4.00234 17.1172 3.78223 16.6807C3.53392 16.1876 3.73164 15.5865 4.22461 15.3379C4.30655 15.2966 4.37662 15.2748 4.41699 15.2637C4.44339 15.2564 4.47139 15.25 4.49219 15.2451C4.54041 15.2338 4.6271 15.2139 4.78516 15.1787C5.10449 15.1077 5.73606 14.9683 6.99023 14.6934C7.21069 14.645 7.45034 14.5921 7.70605 14.5361C7.92651 13.3634 8.16551 12.0887 8.39355 10.8711C7.50624 10.9833 6.70104 11.0876 6.06348 11.168C4.85724 11.32 4.25051 11.3955 3.94434 11.4336C3.79239 11.4525 3.71221 11.4626 3.66895 11.4678C3.66263 11.4685 3.58347 11.4795 3.50586 11.4795C2.95357 11.4795 2.50586 11.0318 2.50586 10.4795C2.50626 9.92755 2.95382 9.4795 3.50586 9.4795C3.5055 9.4795 3.49507 9.48017 3.48242 9.48047C3.46894 9.4808 3.45654 9.48082 3.44629 9.48145C3.429 9.48252 3.41596 9.48418 3.41406 9.48438C3.41054 9.48474 3.4135 9.4847 3.43262 9.48243C3.46943 9.47805 3.5445 9.46825 3.69727 9.44922C4.00173 9.4113 4.60701 9.3357 5.81348 9.1836C6.6012 9.08429 7.64427 8.9495 8.78125 8.80567C8.91547 8.08795 9.03927 7.43553 9.14062 6.89258C9.63088 4.26639 9.63498 4.22582 9.6416 4.18067C9.72191 3.63443 10.2301 3.25681 10.7764 3.33692ZM4.9834 17.1807C4.99327 17.1775 5.00511 17.1744 5.01758 17.1699C5.01914 17.1693 5.02087 17.1676 5.02246 17.167C5.00951 17.1718 4.99644 17.1764 4.9834 17.1807ZM5.05176 17.1553C5.06204 17.1511 5.07391 17.1475 5.08496 17.1426C5.1057 17.1333 5.12281 17.1251 5.125 17.124C5.10113 17.1361 5.07609 17.1453 5.05176 17.1553ZM10.4775 10.6065C10.267 11.7309 10.0417 12.9309 9.82715 14.0732C11.3332 13.744 13.0199 13.3762 14.5225 13.0488C14.5267 13.0218 14.5319 12.9949 14.5361 12.9678C14.6847 12.0193 14.8272 11.0098 14.9609 10.0371C13.6714 10.2027 12.0508 10.407 10.4775 10.6065Z" fill="black"/>
</svg>
