<svg width="24" height="24" viewBox="0 0 24 24" fill="none" xmlns="http://www.w3.org/2000/svg">
<path d="M17.6631 3.03104C18.1453 3.03443 18.7609 3.07902 19.1406 3.11697C19.7129 3.17419 20.0458 3.27491 20.3457 3.44412C20.5546 3.56207 20.7325 3.72559 20.9062 3.89725C21.1043 4.09293 21.3711 4.38288 21.6279 4.7117C21.8845 5.04014 22.1176 5.39145 22.2598 5.61795C22.4223 5.87697 22.5138 6.05259 22.5977 6.3494C22.6704 6.60718 22.736 6.94154 22.7783 7.53592C22.8198 8.11804 22.8397 8.97817 22.7959 9.80447C22.7517 10.6368 22.6425 11.4004 22.54 11.9529C22.4352 12.5182 22.3365 12.86 22.2373 13.1541C22.1413 13.4386 22.0456 13.6776 21.917 13.9334C21.7812 14.2035 21.6182 14.4725 21.3193 14.8543C21.0085 15.2513 20.5622 15.7512 19.6201 16.5232C18.6981 17.2787 17.2948 18.2954 16.3311 18.9461C15.3445 19.6121 14.8021 19.9047 14.0752 20.1902C13.3941 20.4577 12.5729 20.7098 12.1084 20.8445C11.7578 20.9462 11.4346 20.9945 11.1211 20.9754C10.7966 20.9555 10.5476 20.8673 10.3623 20.7879C10.2023 20.7193 10.0692 20.6162 10.0137 20.573C9.93505 20.5118 9.84974 20.4389 9.76562 20.365C9.59758 20.2174 9.3818 20.0188 9.14648 19.8035C9.05849 19.723 9.00476 19.6759 8.9375 19.617C8.8669 19.5551 8.78541 19.4825 8.64941 19.3592C8.40819 19.1405 7.93122 18.7161 7.16699 17.948C6.4106 17.1879 5.38444 16.104 4.78223 15.448C4.17865 14.7905 4.00261 14.5642 3.87988 14.3924C3.8115 14.2966 3.72113 14.1632 3.625 14.0213C3.52466 13.8732 3.40539 13.6978 3.26562 13.4988C3.13621 13.3146 3.04686 13.1953 2.91895 12.9822C2.53465 12.3421 2.38267 12.085 2.25586 11.8279C2.20085 11.7163 2.14373 11.5563 2.10352 11.4431C2.05637 11.3105 1.99431 11.1306 1.93262 10.9549C1.89965 10.8609 1.87658 10.7864 1.85254 10.6853C1.83545 10.6134 1.81256 10.5051 1.7832 10.3719C1.71836 10.0775 1.585 9.48055 1.51562 9.1619C1.48307 9.01237 1.45346 8.87787 1.4375 8.75369C1.4184 8.60471 1.42003 8.48713 1.42188 8.38553C1.42553 8.18472 1.43773 7.83066 1.4707 7.44705C1.5036 7.06449 1.55562 6.67264 1.58887 6.44998C1.6377 6.123 1.698 5.92177 1.78516 5.64334C1.89674 5.28688 2.01214 5.00793 2.16211 4.77811C2.31874 4.53815 2.50005 4.38383 2.53809 4.34744C2.66989 4.22113 2.80353 4.13626 2.89062 4.07693C3.26824 3.81975 3.76166 3.62363 4.18457 3.48123C4.7426 3.29336 5.23641 3.27667 5.67773 3.25662L5.68652 3.25565C6.05645 3.23885 6.61781 3.24714 6.95508 3.25565C7.56534 3.27107 8.01978 3.40123 8.44727 3.5408C8.7432 3.63744 8.96424 3.75894 9.21582 3.92947C9.42032 4.06812 9.764 4.33349 9.99902 4.50272C10.2493 4.68291 10.644 4.94957 10.9238 5.16678C11.4406 5.56792 11.739 5.91473 11.9023 6.13065C11.962 6.01757 12.0237 5.90552 12.085 5.79959C12.3117 5.40744 12.5703 5.04947 12.8076 4.7742C13.2407 4.27185 13.6337 4.02249 13.8975 3.87088C14.2207 3.68512 14.7164 3.5308 15.2119 3.37967C15.5346 3.28127 15.8791 3.20215 16.0947 3.15799C16.3576 3.10417 16.5017 3.09879 16.6494 3.08475C16.823 3.06824 17.1634 3.02754 17.6631 3.03104Z" fill="black"/>
</svg>
