<svg width="24" height="24" viewBox="0 0 24 24" fill="none" xmlns="http://www.w3.org/2000/svg">
<path d="M6.793 3.0127C8.85288 3.02574 12.6043 3.05242 14.6377 3.0791C16.6779 3.10587 16.8953 3.13276 17.1709 3.15137C18.1201 3.21539 18.581 3.24547 18.9864 3.33984C19.2106 3.39203 19.4125 3.423 19.6016 3.44922C19.761 3.47131 19.9985 3.49969 20.1827 3.54297C20.5419 3.6275 20.7908 3.85708 20.9141 3.9834C21.0614 4.1344 21.1916 4.31066 21.3018 4.47656C21.5245 4.81184 21.7381 5.21889 21.9161 5.5918C22.0496 5.87185 22.1183 6.19706 22.1661 6.51563C22.1803 6.61092 22.1903 6.71364 22.2032 6.82324C22.4581 6.84815 22.7035 6.97027 22.8789 7.18359C23.2294 7.61018 23.1677 8.24014 22.7412 8.59082C22.5909 8.71446 22.4772 8.77681 22.4151 8.81055C22.4118 8.81244 22.4086 8.81453 22.4053 8.81641C22.4007 8.81893 22.3966 8.82207 22.3926 8.82422L22.3916 8.82324C22.3814 8.82893 22.3699 8.83237 22.3594 8.83789C22.4012 9.71794 22.4251 10.6676 22.4336 11.2754C22.4461 12.1662 22.4287 12.3427 22.4034 13.1475C22.3768 13.9916 22.3442 15.3956 22.3184 16.2354C22.2837 17.3628 22.1624 17.8356 22.0147 18.252C21.9178 18.525 21.8063 18.7624 21.6612 19.043C21.4556 19.4401 21.1247 19.6959 20.8047 19.876C20.4886 20.0538 20.0968 20.205 19.6573 20.3545C19.1115 20.5401 18.1916 20.7344 17.7344 20.8389C17.0063 21.0053 16.7034 21.0096 16.4327 21.0264C16.2258 21.0392 15.9314 21.0752 13.8711 21.041C11.8225 21.007 8.00759 20.9066 6.01664 20.8506C4.04754 20.7952 3.94409 20.786 3.8096 20.7734C3.61775 20.7555 3.2963 20.7234 3.04886 20.6299C2.6526 20.48 2.40161 20.1749 2.28421 20.0215C2.16258 19.8625 2.02197 19.6361 1.97855 19.5713C1.63212 19.0546 1.4203 18.4698 1.31937 18.2129C1.1097 17.6792 1.08854 17.1379 1.10062 15.7021C1.11243 14.3005 1.20466 11.6248 1.25492 10.1309C1.30517 8.63716 1.33041 8.32694 1.36918 8.02344C1.39125 7.85069 1.41504 7.66862 1.43949 7.48047C0.979117 7.23064 0.859368 7.15921 0.738316 7.0791C0.277839 6.77433 0.151424 6.15389 0.456089 5.69336C0.738004 5.26738 1.28967 5.12805 1.73539 5.35059C1.81493 4.95888 1.89689 4.62129 1.93168 4.44824L1.97367 4.28125C2.02599 4.11001 2.11172 3.92938 2.24906 3.75781L2.35648 3.62305L2.50296 3.53223C2.77553 3.36344 3.02572 3.27829 3.22464 3.22559C3.39686 3.08483 3.61673 3.0001 3.85648 3H4.15726C4.36645 3 4.73223 2.99965 6.793 3.0127ZM3.33207 8.48438C3.31311 8.70815 3.2899 9.12849 3.25394 10.1973C3.20317 11.7064 3.11215 14.3501 3.10062 15.7197C3.0876 17.2697 3.14145 17.3816 3.1807 17.4814C3.30824 17.8061 3.44014 18.1604 3.63968 18.458C3.665 18.4958 3.69018 18.5338 3.71195 18.5674C3.73494 18.6029 3.75418 18.6332 3.77445 18.6641C3.8005 18.7038 3.82422 18.7361 3.84378 18.7637C3.88639 18.7689 3.93657 18.7768 3.99515 18.7822C4.04686 18.7871 4.06243 18.7951 6.0723 18.8516C8.06398 18.9076 11.8687 19.0082 13.9043 19.042C15.9257 19.0755 16.1659 19.0382 16.3096 19.0293C16.4639 19.0198 16.5415 19.019 16.6768 19.0029C16.8061 18.9876 16.9918 18.9576 17.2891 18.8896C17.8363 18.7646 18.5962 18.6029 19.0137 18.4609C19.4276 18.3202 19.6747 18.2163 19.8233 18.1328C19.8667 18.1084 19.8922 18.0874 19.9073 18.0762C20.0154 17.8645 20.078 17.7266 20.1289 17.583C20.1934 17.4012 20.2897 17.1404 20.3194 16.1738C20.3426 15.4184 20.3796 13.8691 20.4043 13.084C20.4303 12.2604 20.4453 12.1381 20.4336 11.3037C20.4279 10.8944 20.4148 10.3391 20.3955 9.7627C20.3047 9.8084 20.2175 9.85249 20.1368 9.89356C20.0244 9.95072 19.8873 10.0115 19.7002 10.0986C19.4917 10.1958 19.163 10.3518 18.5996 10.6299C17.5731 11.1366 15.5658 12.142 14.4268 12.5898C13.8522 12.8157 13.4133 12.9382 13.0547 12.9639C12.8633 12.9776 12.6732 12.9659 12.4873 12.915C12.2951 12.8624 12.1622 12.7815 12.1045 12.7461C11.9158 12.6304 11.876 12.6071 11.8311 12.5859C11.5212 12.4396 11.1188 12.2381 10.4444 11.9121C9.89393 11.6461 8.92365 11.1687 8.18558 10.834C7.47578 10.5121 6.91878 10.2963 5.76664 9.72949C5.06513 9.38437 4.14942 8.91096 3.33207 8.48438ZM4.29398 5C4.22527 5.03442 4.15137 5.06276 4.07328 5.08106C3.95466 5.10884 3.87917 5.12468 3.82816 5.13574C3.74486 5.5099 3.64678 5.9328 3.58793 6.35938C4.52445 6.85255 5.76749 7.50066 6.64945 7.93457C7.76974 8.48573 8.21583 8.65171 9.01175 9.0127C9.77919 9.36076 10.7871 9.85641 11.3145 10.1113C12.0298 10.4571 12.3802 10.6331 12.6856 10.7773C12.7985 10.8307 12.9019 10.8914 13.0039 10.9531C13.1172 10.9296 13.3314 10.8716 13.6953 10.7285C14.7337 10.3202 16.6355 9.36825 17.7139 8.83594C18.2886 8.55227 18.6313 8.38962 18.8555 8.28516C19.1002 8.17116 19.158 8.14771 19.2295 8.11133C19.5347 7.95602 19.9298 7.75851 20.2715 7.58984C20.2422 7.25928 20.2168 7.00682 20.1875 6.81152C20.1684 6.68391 20.1507 6.59334 20.1348 6.53027C20.1227 6.48269 20.1137 6.45911 20.1114 6.45313C19.9512 6.11759 19.7837 5.80574 19.6358 5.58301C19.6034 5.53432 19.5745 5.4951 19.5508 5.46387C19.4946 5.45605 19.4228 5.44392 19.3272 5.43066C19.1153 5.4013 18.8438 5.3606 18.5323 5.28809C18.3247 5.23977 18.0671 5.21596 17.0371 5.14649C16.8077 5.13101 16.6287 5.10557 14.6114 5.0791C12.586 5.05253 8.84172 5.02575 6.78031 5.0127C5.09693 5.00204 4.54863 5.00035 4.29398 5Z" fill="black"/>
</svg>
