<svg width="24" height="24" viewBox="0 0 24 24" fill="none" xmlns="http://www.w3.org/2000/svg">
<path d="M11.7647 0.932605C11.9099 0.898884 12.0648 0.896074 12.2197 0.932605C12.2248 0.933812 12.2305 0.935353 12.2354 0.936511C12.3023 0.93837 12.3645 0.938083 12.4209 0.940418C12.6119 0.948377 12.7877 1.01109 12.9356 1.11034C13.2094 1.18808 13.6483 1.31183 14.1992 1.44725L15.0049 1.63475L15.0361 1.64257C15.8725 1.85567 16.6378 2.07492 17.0313 2.26561C17.4191 2.45359 17.9007 2.66495 18.2471 2.85057C18.4565 2.96248 19.0593 3.10817 20.3506 4.05565C21.3668 4.80145 21.829 5.54434 22.0684 6.22753C22.2151 6.64646 22.3846 7.33878 22.5274 7.86522C22.5983 8.12702 22.7266 8.60092 22.7627 9.84569C22.787 10.6837 22.8147 12.0595 22.7598 12.9258C22.6845 14.1114 22.5209 14.8222 22.3692 15.4287C22.2928 15.7341 22.1571 16.3926 21.6943 17.1875C21.2167 18.0079 20.8494 18.6212 20.294 19.125C19.3905 19.9443 18.6722 20.5291 18.2129 20.7998C18.0192 20.914 17.2878 21.3541 16.2344 21.748C15.3817 22.0668 14.8611 22.2178 14.4414 22.3467C14.1564 22.4342 13.7265 22.5843 13.1065 22.5859C11.7586 22.5893 10.8057 22.36 10.5449 22.3349C10.3576 22.317 10.1855 22.3262 9.8213 22.3144C9.54114 22.3054 9.11357 22.2819 8.73048 22.1348C8.33315 21.982 7.65313 21.7151 7.32326 21.5293C7.20661 21.4636 6.77095 21.2438 6.52736 21.0918C6.45079 21.0441 5.97051 20.8305 5.18751 20.2685C4.97768 20.1179 4.80104 19.9935 4.6504 19.8877C4.50231 19.7837 4.37144 19.6912 4.26173 19.6123C4.04804 19.4586 3.84644 19.3055 3.66798 19.1084C3.50393 18.9271 3.33357 18.7251 3.17872 18.4463C3.02859 18.1759 2.91385 17.872 2.80275 17.498C2.65025 16.9846 2.41059 16.1355 2.26661 15.6787C2.17833 15.3987 2.08794 15.1727 2.00001 14.9531C1.91888 14.7505 1.81536 14.4971 1.75099 14.2402C1.606 13.6611 1.56201 13.3319 1.53224 12.9922C1.52483 12.9082 1.49474 12.7424 1.44533 12.4639C1.40203 12.2198 1.34861 11.9103 1.3213 11.6338C1.28133 11.2285 1.28296 10.8951 1.33302 10.5459C1.40274 10.06 1.59039 9.01819 1.77638 8.47264C2.04769 7.67721 2.41849 6.78095 2.64845 6.28026C2.68935 6.19123 2.87201 5.52737 3.42482 4.86913C3.80073 4.42163 4.28154 3.96299 4.57326 3.73046C4.58647 3.71991 4.59666 3.70973 4.66896 3.64452C4.73203 3.58764 4.8154 3.51435 4.92775 3.42479C5.15145 3.24649 5.4673 3.02297 5.96876 2.72069C6.15518 2.60829 6.21902 2.5361 6.55958 2.29393C6.85115 2.08663 7.21361 1.86225 7.72755 1.65624C8.30077 1.42648 8.686 1.28008 9.76661 1.09764C10.5256 0.969529 11.2272 0.936265 11.7647 0.932605ZM11.9815 2.93065C11.5038 2.92556 10.8288 2.94723 10.0996 3.0703C9.18242 3.22515 8.93554 3.32677 8.47169 3.51268C8.13473 3.64776 7.91108 3.78708 7.71876 3.92382C7.61027 4.00097 7.5253 4.06739 7.40236 4.15917C7.2896 4.24333 7.15478 4.34087 7.00099 4.43358C6.55321 4.7035 6.31283 4.87749 6.17384 4.98827C6.10513 5.04305 6.05553 5.08773 6.0088 5.12987C5.97162 5.16341 5.89457 5.23397 5.81935 5.29393C5.63923 5.43752 5.25396 5.80187 4.95704 6.15526C4.63484 6.53887 4.67984 6.64826 4.46583 7.11425C4.26095 7.5603 3.91598 8.39392 3.66896 9.11815C3.54805 9.47293 3.38081 10.3541 3.31251 10.8301C3.28997 10.9875 3.28375 11.1558 3.31154 11.4375C3.3301 11.6254 3.37005 11.8606 3.41505 12.1142C3.45389 12.3332 3.50716 12.6212 3.52443 12.8183C3.54523 13.0557 3.57267 13.2806 3.69142 13.7549C3.71619 13.8535 3.76111 13.9718 3.85646 14.2099C3.94522 14.4316 4.0608 14.7186 4.17384 15.0771C4.32304 15.5505 4.58328 16.4693 4.71974 16.9287C4.80976 17.2316 4.87609 17.3825 4.92775 17.4756C4.97462 17.5599 5.02836 17.6317 5.1504 17.7666C5.17618 17.795 5.22884 17.8448 5.4297 17.9892C5.52751 18.0596 5.64495 18.1422 5.79982 18.251C5.95265 18.3583 6.1356 18.4871 6.35353 18.6435C7.1566 19.22 7.11032 19.0971 7.58693 19.3945C7.82075 19.5404 7.96204 19.5935 8.30568 19.7871C8.47874 19.8843 8.99563 20.0936 9.44826 20.2676L9.45021 20.2685C9.45172 20.269 9.45439 20.2697 9.45704 20.2705C9.46296 20.2723 9.47154 20.2748 9.48243 20.2773C9.5055 20.2826 9.537 20.2876 9.57716 20.293C9.66011 20.3039 9.76208 20.3114 9.88673 20.3154C10.0167 20.3196 10.1351 20.3196 10.2852 20.3223C10.4216 20.3247 10.5823 20.329 10.7363 20.3437C11.4368 20.411 11.8239 20.5891 13.1016 20.5859C13.3823 20.5852 13.5412 20.5307 13.8545 20.4346C14.2823 20.3032 14.7459 20.1694 15.5332 19.875C16.4177 19.5443 17.0271 19.1765 17.1973 19.0762C17.4584 18.9223 18.0389 18.47 18.9502 17.6435C19.2396 17.3811 19.4633 17.0438 19.9658 16.1807C20.2669 15.6634 20.3473 15.2689 20.4287 14.9433C20.5627 14.4076 20.6986 13.8235 20.7637 12.7988C20.8119 12.0393 20.7884 10.7547 20.7637 9.90331C20.7322 8.81776 20.6269 8.4999 20.5967 8.38866C20.4259 7.75883 20.2956 7.21677 20.1807 6.88866C20.0791 6.59866 19.8687 6.18292 19.167 5.66796C18.0064 4.81638 17.8709 4.91816 17.3018 4.61327C16.9922 4.44739 16.6724 4.31321 16.1592 4.06444C15.9838 3.97949 15.4307 3.80747 14.542 3.58104V3.58007C13.3804 3.32256 12.4935 3.06526 12.1934 2.97948C12.1519 2.9699 12.08 2.95344 11.9815 2.93065ZM7.69923 13.5078C7.7187 13.5086 7.75417 13.5099 7.81544 13.5117C7.9843 13.5168 8.31811 13.525 8.98243 13.54C10.2747 13.5693 12.9852 13.6266 14.336 13.6572C15.0255 13.6728 15.3932 13.6819 15.5947 13.6894C15.7109 13.6938 15.8359 13.6973 15.9658 13.7217L16.0977 13.7539L16.1934 13.7891C16.66 13.9865 16.9111 14.5092 16.7588 15.0039C16.6082 15.4921 16.1175 15.7816 15.627 15.6933C15.6065 15.6921 15.5721 15.6904 15.5205 15.6885C15.3368 15.6816 14.9859 15.673 14.291 15.6572C12.8715 15.6251 10.3032 15.5699 8.93751 15.5391C8.27373 15.524 7.93303 15.516 7.75587 15.5107C7.63943 15.5073 7.51087 15.5058 7.39259 15.4814C6.85186 15.3698 6.50389 14.8405 6.61525 14.2998C6.72016 13.7915 7.19369 13.4541 7.69923 13.5078ZM7.79689 13.5224C7.79589 13.5222 7.7804 13.5187 7.76173 13.5156C7.74186 13.5123 7.72411 13.5102 7.71095 13.5088C7.70904 13.5086 7.70687 13.5089 7.70509 13.5088C7.73547 13.5122 7.76636 13.5161 7.79689 13.5224ZM15.4736 7.68358C16.0258 7.68371 16.4736 8.13138 16.4736 8.68358C16.4736 8.72196 16.4736 8.72316 16.4736 8.72362L16.4746 8.72557C16.4748 8.72712 16.4743 8.72958 16.4746 8.73241C16.4753 8.7386 16.4762 8.74661 16.4776 8.7578C16.4797 8.77558 16.4852 8.81796 16.4893 8.85253C16.5537 9.40079 16.1615 9.89718 15.6133 9.9619C15.0648 10.0265 14.5676 9.63437 14.5029 9.08593C14.4994 9.05568 14.4861 8.95512 14.4805 8.88671C14.473 8.79555 14.4736 8.72064 14.4736 8.68358C14.4736 8.1313 14.9214 7.68358 15.4736 7.68358ZM9.34962 7.6328C9.9018 7.63293 10.3496 8.08059 10.3496 8.6328V8.63768L10.3506 8.65038C10.3511 8.65944 10.3517 8.67138 10.3535 8.69237C10.3555 8.71492 10.3587 8.75058 10.3652 8.80565C10.4308 9.35393 10.0395 9.85224 9.49122 9.91796C8.94298 9.98353 8.44569 9.5921 8.3799 9.04393C8.36228 8.89667 8.35573 8.81408 8.35255 8.75096C8.34968 8.69376 8.34962 8.6613 8.34962 8.6328C8.34962 8.08052 8.79734 7.6328 9.34962 7.6328Z" fill="black"/>
</svg>
