<svg width="24" height="24" viewBox="0 0 24 24" fill="none" xmlns="http://www.w3.org/2000/svg">
<path d="M6.37718 2.25798C7.18297 2.26795 8.09104 2.27627 9.02659 2.257H9.05491L9.08226 2.25798C9.50819 2.27316 10.0812 2.31156 10.6311 2.34684C11.1942 2.38297 11.7379 2.41568 12.1428 2.42497C12.9947 2.44448 13.2578 2.46756 14.0442 2.49333C14.871 2.52041 16.3201 2.553 17.095 2.57243C17.8706 2.59187 17.9181 2.59726 18.1379 2.60856C18.4331 2.62373 18.6995 2.63744 18.9055 2.64958C19.0843 2.66012 19.2856 2.67221 19.4026 2.69059C19.4833 2.70332 19.5724 2.71609 19.6721 2.73063C19.7693 2.7448 19.8761 2.76075 19.9807 2.77751C20.1726 2.80826 20.4257 2.85307 20.636 2.92204C21.0393 3.05445 21.3039 3.36208 21.4075 3.48551C21.4767 3.56802 21.5378 3.65013 21.5823 3.71012C21.6347 3.78087 21.6574 3.81174 21.677 3.8361C21.8818 4.09114 22.0671 4.3396 22.2024 4.61833C22.3506 4.92376 22.4064 5.28153 22.4504 5.57731C22.5188 6.03751 22.5247 6.42533 22.55 7.03044C22.5753 7.63413 22.5908 8.75014 22.5432 10.0851C22.4955 11.4216 22.3768 12.9413 22.3049 13.7775C22.2212 14.751 22.1749 14.9824 22.1594 15.1095C22.1289 15.3594 22.0713 15.5659 22.0256 15.717C21.9717 15.8955 21.9573 15.9332 21.9465 15.9865C21.8745 16.3424 21.7562 16.6288 21.6379 16.8732C21.5815 16.9898 21.52 17.1061 21.469 17.2043C21.4155 17.3072 21.3674 17.4025 21.3205 17.5021C21.0867 17.9987 20.7456 18.3747 20.4328 18.548C20.1935 18.6804 19.9533 18.6991 19.8528 18.7072C19.7311 18.717 19.5582 18.7227 19.3489 18.7306C18.9544 18.7456 18.2283 18.7373 17.9026 18.7394C17.7091 18.7407 17.5926 18.7434 17.4895 18.7463C17.3843 18.7492 17.2801 18.7525 17.1272 18.7541C15.9907 18.7659 15.7509 18.8254 15.5461 18.8556H15.5451C15.5436 18.8561 15.5395 18.8575 15.5334 18.8605C15.5046 18.875 15.4569 18.9047 15.345 18.9826C15.2134 19.0741 15.1706 19.129 15.1526 19.1535C15.1382 19.173 15.1221 19.1967 15.093 19.2453C15.0692 19.2851 15.018 19.3734 14.9612 19.4572C14.901 19.5457 14.8158 19.6665 14.676 19.9318C14.5062 20.2542 14.2907 20.6839 14.177 20.8966C14.1101 21.0217 14.0336 21.159 13.9543 21.2756C13.915 21.3334 13.8578 21.4118 13.7844 21.4884C13.7256 21.5498 13.5729 21.7007 13.3313 21.7834C12.5014 22.067 11.89 21.5565 11.6408 21.3136C11.5024 21.1787 11.3718 21.0246 11.2864 20.9259C11.1849 20.8088 11.1255 20.7434 11.0783 20.7013C10.5692 20.2472 10.3384 20.1376 10.0891 19.9709C9.89372 19.8402 9.68692 19.7013 9.468 19.5675C9.43656 19.5664 9.39868 19.5649 9.35374 19.5636C9.0513 19.5554 8.31488 19.5468 7.8264 19.5304C6.96072 19.5015 6.53154 19.4423 6.36448 19.4162C6.36212 19.4159 6.35648 19.4153 6.3469 19.4142C6.32176 19.4113 6.30739 19.4098 6.25999 19.4045C6.17882 19.3953 6.06009 19.3819 5.87132 19.3566C5.50094 19.307 4.84817 19.2148 4.45042 19.1584C3.50397 19.0241 2.96801 18.6603 2.61839 18.256C2.54373 18.1696 2.4774 18.0609 2.45433 18.0236C2.41324 17.9572 2.36354 17.8736 2.30784 17.7775C2.19574 17.5841 2.04748 17.3206 1.87132 17.0002C1.5927 16.4934 1.45347 16.0295 1.38304 15.6554C1.34804 15.4695 1.33115 15.3089 1.32151 15.1818C1.31675 15.119 1.31372 15.0646 1.31175 15.0236C1.3106 14.9998 1.30959 14.9893 1.30882 14.9738C1.30851 14.9677 1.30899 14.9626 1.30882 14.9591C1.3087 14.9571 1.30796 14.9558 1.30784 14.9552C1.2833 14.6148 1.31686 14.0167 1.32835 13.7189C1.33599 13.5206 1.3599 13.2386 1.41624 12.2658C1.46522 11.42 1.52361 9.87009 1.56077 8.95622C1.59739 8.05577 1.60155 7.85888 1.61155 7.52458C1.62161 7.18834 1.63791 6.71429 1.65257 6.40251C1.66761 6.08291 1.68145 5.93429 1.70726 5.58219C1.73307 5.22991 1.77547 4.60085 1.80101 4.26676C1.81779 4.0473 1.83347 3.76992 1.85667 3.58415C1.86876 3.48751 1.89096 3.33942 1.94358 3.18962C1.98902 3.06047 2.12241 2.737 2.48265 2.54508C2.56455 2.50152 2.68611 2.43771 2.82933 2.38883C2.98641 2.33531 3.13144 2.31183 3.2678 2.29899C3.47082 2.27995 3.82797 2.27459 4.32444 2.25212H4.34007C4.86312 2.23639 5.5845 2.24816 6.37718 2.25798ZM4.39964 4.25114L4.39866 4.25016C4.149 4.26137 3.95442 4.26848 3.80491 4.2736C3.80161 4.32051 3.79891 4.36995 3.79515 4.41911C3.76925 4.75782 3.73043 5.34469 3.70237 5.7277C3.67432 6.11062 3.66305 6.21125 3.64964 6.49626C3.63586 6.78927 3.62064 7.24881 3.61058 7.58512C3.60046 7.92323 3.59581 8.12772 3.55882 9.03727C3.52233 9.93453 3.46263 11.5135 3.41233 12.382C3.35234 13.4178 3.33422 13.6184 3.32737 13.7961C3.31176 14.2009 3.28891 14.6167 3.30296 14.8117C3.31457 14.9733 3.3095 15.0762 3.34886 15.2853C3.38545 15.4796 3.46048 15.7384 3.62425 16.0363C3.79646 16.3495 3.93656 16.599 4.03831 16.7746C4.08946 16.8628 4.12874 16.9276 4.1555 16.9709C4.1565 16.9725 4.15749 16.9742 4.15843 16.9757C4.18118 16.998 4.20926 17.0206 4.25315 17.0441C4.32264 17.0812 4.46512 17.1401 4.73167 17.1779C5.13209 17.2347 5.77513 17.3259 6.13597 17.3742C6.31128 17.3976 6.41676 17.4095 6.4846 17.4172C6.53526 17.4229 6.61109 17.4309 6.67308 17.4406C6.75301 17.4531 7.10131 17.5049 7.89378 17.5314C8.4138 17.5488 9.00699 17.5527 9.40843 17.5636C9.57127 17.5681 9.72601 17.574 9.85179 17.591C10.0019 17.6114 10.1249 17.6486 10.2356 17.7004L10.343 17.757L10.592 17.9074C10.8349 18.0591 11.0524 18.2091 11.2014 18.3088C11.3624 18.4164 11.7655 18.6348 12.4094 19.2091C12.503 19.2926 12.5895 19.3837 12.6643 19.466C12.7365 19.3246 12.8181 19.167 12.9065 18.9992C13.0989 18.634 13.2339 18.4405 13.3069 18.3332C13.3684 18.2425 13.5742 17.7771 14.2024 17.34C14.4449 17.1713 14.7736 16.9481 15.2532 16.8771C15.5203 16.8377 15.854 16.7671 17.1067 16.7541C17.2383 16.7527 17.3226 16.7503 17.4338 16.7472C17.5475 16.7441 17.679 16.7408 17.8899 16.7394C18.2961 16.7368 18.9169 16.7451 19.2727 16.7316C19.3486 16.7287 19.4135 16.726 19.469 16.7238C19.4817 16.7016 19.4978 16.6774 19.511 16.6496C19.5757 16.5121 19.6395 16.3875 19.6946 16.2814C19.7521 16.1706 19.7973 16.0864 19.8381 16.0021C19.9145 15.8443 19.9595 15.7237 19.9866 15.59C20.0067 15.4904 20.0317 15.3998 20.053 15.3283C20.0637 15.2923 20.0747 15.2564 20.0842 15.2257C20.0942 15.1936 20.1031 15.1657 20.1116 15.1379C20.1442 15.0299 20.1639 14.9502 20.1741 14.8674C20.196 14.6868 20.232 14.5323 20.3117 13.6056C20.3828 12.7792 20.4983 11.2995 20.5442 10.0138C20.59 8.7276 20.575 7.66353 20.552 7.11442C20.5239 6.44387 20.5204 6.19772 20.4719 5.87126C20.4488 5.71615 20.4312 5.61616 20.4153 5.54606C20.3994 5.47636 20.3921 5.46979 20.4026 5.49137C20.3708 5.42603 20.3057 5.32246 20.1174 5.08805C20.0891 5.05272 20.0624 5.01709 20.0403 4.98747C20.0194 4.95958 19.9934 4.92526 19.9758 4.90153C19.9428 4.85707 19.9155 4.82255 19.8918 4.79313C19.8351 4.78152 19.7597 4.76741 19.6643 4.75212C19.5755 4.7379 19.4819 4.72439 19.384 4.71012C19.2887 4.69623 19.1859 4.68113 19.091 4.66618C19.0814 4.66533 19.0602 4.66402 19.0246 4.6613C18.9657 4.65679 18.8864 4.65146 18.7883 4.64567C18.5915 4.63407 18.3334 4.62095 18.0354 4.60563C17.835 4.59533 17.8047 4.59052 17.0442 4.57145C16.2804 4.55231 14.8157 4.51976 13.9787 4.49235C13.1023 4.46363 12.9611 4.44378 12.0969 4.42399C11.6434 4.41359 11.0573 4.37751 10.5032 4.34196C9.94831 4.30636 9.42461 4.27152 9.03733 4.257C8.07699 4.27621 7.15209 4.26787 6.35276 4.25798C5.53251 4.24782 4.8684 4.23703 4.39964 4.25114ZM15.8616 9.757C16.2038 9.32365 16.8334 9.24983 17.2668 9.59196C17.2689 9.59342 17.2719 9.5953 17.2756 9.59782C17.2816 9.60194 17.2973 9.61385 17.3108 9.62321L17.3674 9.66325L17.384 9.67594L17.3996 9.68864C17.5873 9.84062 17.7499 10.0389 17.8752 10.2365L17.926 10.3156L17.9602 10.4035C17.9789 10.4507 18.0418 10.6036 18.0696 10.7795C18.0988 10.9648 18.1149 11.335 17.8518 11.6799C17.7774 11.7774 17.4701 12.22 16.8186 12.3136C16.6349 12.34 16.2627 12.3646 15.8899 12.132C15.7797 12.0632 15.2826 11.7478 15.2463 11.1017C15.2395 10.979 15.2414 10.8053 15.2912 10.6183C15.3375 10.4451 15.4542 10.1639 15.7405 9.95719C15.7727 9.88773 15.812 9.81975 15.8616 9.757ZM7.50413 9.37321C7.63238 9.36363 7.76562 9.36027 7.91331 9.38591L8.06565 9.42204L8.093 9.42985L8.12034 9.43962C8.45877 9.5631 8.73312 9.81875 8.92503 10.1398L9.00901 10.2804L9.04417 10.4396C9.14421 10.8988 8.96756 11.3698 8.63499 11.6925C8.59669 11.7297 8.50091 11.8251 8.39866 11.9074C8.29316 11.9922 8.11177 12.1212 7.86546 12.1916C7.75744 12.2224 7.31196 12.3559 6.85569 12.1164C6.76248 12.0674 6.3947 11.8731 6.2512 11.3996C6.16382 11.111 6.14688 10.8369 6.16722 10.6076C6.17735 10.4937 6.19773 10.378 6.23069 10.2677C6.25334 10.1921 6.3161 9.99753 6.47093 9.8195C6.64369 9.62106 6.87778 9.50815 7.12034 9.48258C7.23623 9.42274 7.36588 9.38359 7.50413 9.37321ZM12.3157 9.52653C12.5421 9.55146 12.8539 9.62203 13.1311 9.82145L13.3235 9.95915L13.4328 10.1691C13.5173 10.3303 13.6894 10.7222 13.553 11.1838C13.4782 11.436 13.3247 11.6484 13.1194 11.797C13.0169 11.8711 12.7242 12.0732 12.3 12.1056C12.2143 12.1122 12.0636 12.1194 11.8948 12.0871C11.7254 12.0547 11.4328 11.9623 11.2063 11.6818C11.1494 11.6113 11.095 11.5174 11.05 11.4093C11.0477 11.4074 11.0446 11.4064 11.0422 11.4045C10.6143 11.0555 10.5499 10.4253 10.8987 9.99723L10.9983 9.88688C11.1031 9.78282 11.2247 9.69794 11.3733 9.63102L11.4709 9.58708L11.5744 9.56462C11.8149 9.51321 12.0718 9.49971 12.3157 9.52653ZM16.7346 11.6007C16.7718 11.6007 16.8023 11.5987 16.8215 11.5968L16.8244 11.5959C16.795 11.5985 16.7647 11.6007 16.7346 11.6007Z" fill="black"/>
</svg>
