<svg width="24" height="24" viewBox="0 0 24 24" fill="none" xmlns="http://www.w3.org/2000/svg">
<path d="M12.4902 1.05948C12.5672 1.03562 13.1271 0.869737 13.5625 1.3378C13.565 1.34054 13.7269 1.49787 13.9014 1.70303C14.0902 1.92522 14.3629 2.27363 14.8008 2.87979C15.0829 3.27043 15.3504 3.64913 15.748 4.49893C15.877 4.77453 16.0301 5.11872 16.1797 5.45401C16.3317 5.79483 16.4821 6.12964 16.6113 6.40421C16.7474 6.69321 16.8238 6.83348 16.8887 6.92081C16.9317 6.9786 16.9561 6.99544 16.9971 7.01456C17.0829 7.05449 17.2395 7.09949 17.4639 7.1376C17.6797 7.17421 17.8909 7.19449 18.0889 7.21573C18.4717 7.25681 18.6397 7.28784 18.6982 7.29581C19.0592 7.34466 19.6083 7.37845 20.3906 7.60538C20.6459 7.67944 20.8934 7.77806 21.0811 7.84952C21.2821 7.92606 21.4643 7.99161 21.6709 8.04385C22.0651 8.14348 22.4431 8.23616 22.7207 8.31631C22.858 8.35599 23.0069 8.40297 23.1367 8.45694C23.2009 8.48364 23.2882 8.52347 23.377 8.57901C23.445 8.62163 23.6258 8.74069 23.7568 8.96378C23.9041 9.21494 23.93 9.48189 23.8906 9.70596C23.8737 9.80149 23.8469 9.87777 23.8291 9.92374C23.8124 9.96673 23.795 10.005 23.792 10.0116C23.6705 10.2759 23.4614 10.5523 22.6748 11.373C21.9547 12.1242 20.5954 13.5177 19.9131 14.2265C19.6619 14.4874 19.5001 14.6582 19.3936 14.7714C19.4016 14.9672 19.4201 15.2901 19.457 15.8378C19.5398 17.0653 19.7005 19.4148 19.7461 20.5849C19.7681 21.1487 19.7675 21.5157 19.7363 21.7489C19.7277 21.8134 19.7124 21.9054 19.6797 22.0048C19.6519 22.0889 19.5778 22.287 19.3896 22.4608C19.1486 22.6833 18.8447 22.7559 18.5801 22.7265C18.4725 22.7144 18.3881 22.6884 18.3418 22.6718C18.33 22.6675 18.3187 22.6621 18.3086 22.6581C18.3017 22.6559 18.2917 22.6531 18.2793 22.6493C18.2232 22.6323 18.1413 22.6068 18.0283 22.5663C17.8059 22.4866 17.4775 22.3544 16.96 22.1132C16.6653 21.9759 16.3273 21.8502 15.4756 21.3681C14.8164 20.9949 13.7138 20.3439 13.0889 19.9599C12.8624 19.8207 12.6974 19.7126 12.5732 19.6317C12.1671 19.8495 11.2836 20.3503 10.4541 20.7714C9.52215 21.2445 8.54075 21.6846 8.01465 21.914C7.77113 22.0201 7.56521 22.1094 7.36816 22.1689C7.14268 22.2368 6.95234 22.2593 6.75586 22.2792C6.25317 22.33 5.79335 22.3755 5.45508 22.3954C5.29154 22.405 5.11942 22.4109 4.97363 22.4032C4.90869 22.3998 4.79007 22.3917 4.66309 22.3573C4.6019 22.3408 4.47874 22.3027 4.34766 22.2167C4.21521 22.1297 3.97778 21.9264 3.9043 21.5644C3.84922 21.2926 3.87758 21.0423 3.88672 20.9501C3.91484 20.6673 3.99039 20.2586 4.07324 19.7831C4.12517 19.485 4.21643 18.9432 4.41211 18.1073C4.59965 17.3063 4.87124 16.194 5.11621 15.4521C5.2778 14.9627 5.42953 14.5853 5.53027 14.3319C5.49178 14.2886 5.44842 14.2383 5.39844 14.1825C4.95605 13.6887 4.12968 12.7788 3.55566 12.1923C2.99675 11.6212 2.69714 11.3813 2.31836 11.0448C1.95343 10.7207 1.64447 10.4488 1.42676 10.2499C1.31815 10.1507 1.21669 10.0564 1.13574 9.97354C1.09563 9.93248 1.04997 9.8832 1.00684 9.83096C0.974977 9.79235 0.893286 9.69222 0.831055 9.55655C0.813505 9.51829 0.748578 9.38123 0.710938 9.22745C0.676788 9.08771 0.602932 8.68999 0.868164 8.30264L0.924805 8.22745C1.06016 8.0637 1.21282 7.98125 1.28125 7.94717C1.37523 7.90039 1.46275 7.87235 1.51953 7.85635C1.63358 7.82427 1.7563 7.80337 1.85742 7.78799C2.06345 7.75668 2.35866 7.72331 2.69043 7.6835C3.0429 7.64121 3.44571 7.57494 3.68945 7.53116C3.94345 7.48553 4.03984 7.46284 4.71582 7.36514C5.37728 7.26955 6.5801 7.10361 7.34961 6.99698C7.71478 6.94638 8.02536 6.89234 8.29004 6.84366C8.39149 6.825 8.49458 6.80803 8.59277 6.78995C8.60771 6.74803 8.62508 6.70499 8.64062 6.66006C8.67658 6.55616 8.72584 6.41254 8.77832 6.28897C8.80361 6.22933 8.96654 5.79588 9.14062 5.40811C9.42337 4.77841 9.65002 4.35136 10.0244 3.6503C10.1692 3.37904 10.3498 2.98828 10.833 2.46964C11.1993 2.07642 11.5222 1.74965 11.7734 1.52432C11.8932 1.41693 12.0287 1.30357 12.1611 1.21768C12.2192 1.18002 12.3378 1.10677 12.4902 1.05948ZM12.2959 3.83292C12.1477 3.99207 12.0599 4.11407 11.9961 4.21573C11.9228 4.33265 11.8806 4.41949 11.7881 4.59268C11.4139 5.29343 11.2166 5.66587 10.9648 6.22647C10.8803 6.41474 10.8156 6.57415 10.7627 6.70792C10.7161 6.82576 10.6613 6.97081 10.6191 7.07022C10.5997 7.11611 10.5754 7.18403 10.5303 7.31436C10.4901 7.43048 10.4372 7.58205 10.373 7.74014L10.3672 7.75577L10.3613 7.77042C10.3476 7.80138 10.3135 7.88035 10.2852 7.93936C10.2564 7.99917 10.2256 8.04687 10.2012 8.08194C10.1763 8.11763 10.1523 8.14734 10.1328 8.16983C10.0951 8.21328 10.0605 8.24645 10.0371 8.26749C9.99141 8.30862 9.94894 8.34053 9.92578 8.35733C9.89984 8.37615 9.8747 8.39259 9.85742 8.40421C9.84849 8.4102 9.83672 8.41737 9.82715 8.42374C9.79912 8.45114 9.77009 8.47712 9.73926 8.50089C9.73326 8.50554 9.7278 8.51102 9.72168 8.51553C9.70406 8.52847 9.68537 8.53993 9.66699 8.55167C9.65706 8.55803 9.6469 8.5642 9.63672 8.57022C9.62481 8.57724 9.61276 8.58421 9.60059 8.59073C9.58296 8.60018 9.56516 8.60966 9.54688 8.61807C9.53325 8.62433 9.51877 8.62902 9.50488 8.63467C9.49064 8.64047 9.47651 8.64711 9.46191 8.65225C9.44178 8.65937 9.42097 8.66497 9.40039 8.67081C9.38909 8.674 9.37769 8.67778 9.36621 8.68057C9.33125 8.68916 9.29564 8.6963 9.25977 8.70108C9.11952 8.7215 8.93881 8.75776 8.65234 8.81046C8.37399 8.86166 8.03162 8.92207 7.625 8.97842C6.84952 9.08588 5.65589 9.25012 5.00195 9.34464C4.36291 9.437 4.29604 9.45445 4.04297 9.49991C3.93964 9.51846 3.80784 9.53885 3.66211 9.56241C3.99953 9.8614 4.37197 10.1671 4.98535 10.7939C5.59275 11.4145 6.44385 12.3521 6.8877 12.8476C7.10643 13.0917 7.23815 13.242 7.31738 13.3388C7.3746 13.4087 7.45076 13.5038 7.51367 13.6327L7.57129 13.7743L7.60547 13.9013C7.66649 14.1924 7.60291 14.4442 7.57617 14.5448C7.53675 14.6931 7.47652 14.8502 7.42578 14.9794C7.31461 15.2626 7.17287 15.5999 7.01465 16.079C6.8019 16.7234 6.5496 17.7509 6.35938 18.5634C6.17744 19.3405 6.09454 19.8354 6.04395 20.1259C6.03054 20.2028 6.01767 20.2754 6.00586 20.3427C6.1732 20.3269 6.35707 20.3099 6.55469 20.2899C6.72715 20.2725 6.75873 20.2645 6.79102 20.2548C6.85179 20.2365 6.94112 20.2003 7.21484 20.081C7.72453 19.8587 8.66644 19.4361 9.54883 18.9882C10.4796 18.5157 11.1842 18.1016 11.7168 17.8222C11.9205 17.7153 12.1688 17.5891 12.4102 17.5399C12.5677 17.5079 12.7696 17.4966 12.9893 17.5624C13.0869 17.5917 13.171 17.6322 13.2324 17.6669L13.3428 17.7382L13.5527 17.8847C13.6661 17.9609 13.8418 18.0751 14.1357 18.2558C14.7416 18.628 15.8238 19.2671 16.4609 19.6278C17.1653 20.0265 17.4151 20.123 17.7266 20.2646C17.6674 19.0502 17.5369 17.0853 17.4619 15.9726C17.4182 15.3246 17.3954 14.946 17.3896 14.7167C17.3843 14.5001 17.386 14.2776 17.4775 14.0341L17.5557 13.8681C17.6431 13.7149 17.75 13.6026 17.8115 13.5351C17.9279 13.4073 18.1283 13.1975 18.4727 12.8398C19.1815 12.1034 20.4932 10.757 21.2246 9.99405C21.2104 9.99046 21.1951 9.98696 21.1807 9.98331C20.8587 9.9019 20.5894 9.80254 20.3691 9.71866C20.1355 9.62968 19.9893 9.57138 19.834 9.52628C19.2367 9.35302 18.9065 9.34181 18.4297 9.27725C18.2841 9.25752 18.2294 9.24193 17.876 9.20401C17.5789 9.17215 16.7547 9.10717 16.1543 8.82803C15.3769 8.46629 15.0629 7.81049 14.8018 7.25577C14.6622 6.95931 14.5038 6.60534 14.3535 6.26846C14.2008 5.92616 14.056 5.60187 13.9365 5.34659C13.6078 4.64405 13.4134 4.37567 13.1787 4.05069C12.9837 3.78076 12.8278 3.57134 12.7031 3.40811C12.5821 3.53125 12.4452 3.67265 12.2959 3.83292Z" fill="black"/>
</svg>
