<svg width="24" height="24" viewBox="0 0 24 24" fill="none" xmlns="http://www.w3.org/2000/svg">
<path d="M10.3076 14.0422C11.6942 14.0349 11.8948 14.0424 12.4551 14.1487C12.917 14.2362 13.7188 14.3988 14.1504 14.4904C14.403 14.5441 14.6055 14.5985 14.7812 14.6662C14.9767 14.7415 15.1066 14.8219 15.1973 14.8791C15.5531 15.1037 15.7729 15.458 15.8721 15.6135C16.0047 15.8214 16.0738 16.0182 16.1592 16.2951C16.2493 16.5876 16.379 17.0593 16.5 17.5754C16.6214 18.0932 16.7313 18.6445 16.8076 19.0862C16.8795 19.5025 16.9181 19.8104 16.9404 19.9748C16.9835 20.1702 17.041 20.4224 17.0459 20.6633V20.675C17.0466 20.7565 17.0445 20.8084 17.043 20.8488C17.0212 21.4005 16.5566 21.8303 16.0049 21.8088C15.4533 21.787 15.0235 21.3223 15.0449 20.7707C15.0456 20.7534 15.0457 20.7444 15.0459 20.7346C15.0461 20.7262 15.046 20.7144 15.0459 20.6975C15.0448 20.6873 15.0417 20.6664 15.0352 20.6301C15.0233 20.5645 15.0064 20.4843 14.9785 20.3567L14.9697 20.3186L14.9648 20.2795C14.941 20.1066 14.9064 19.829 14.8369 19.427C14.7668 19.0214 14.6645 18.5082 14.5527 18.0315C14.4406 17.5533 14.3228 17.1264 14.248 16.884C14.2089 16.7569 14.1887 16.7019 14.1787 16.677C14.1569 16.643 14.1387 16.615 14.1221 16.591C14.1074 16.5699 14.0955 16.5551 14.0869 16.5442C14.0839 16.5424 14.0818 16.5412 14.0801 16.5403C14.0782 16.5392 14.0739 16.5368 14.0625 16.5324C14.0301 16.5199 13.9444 16.4911 13.7344 16.4465C13.3129 16.357 12.527 16.1977 12.083 16.1135C11.7376 16.048 11.7188 16.0348 10.3184 16.0422C8.92649 16.0495 6.33165 16.0732 4.98535 16.0969C4.30934 16.1088 3.9608 16.1194 3.77734 16.1291C3.77237 16.1294 3.76733 16.1298 3.7627 16.1301C3.75821 16.134 3.75308 16.1383 3.74805 16.1428C3.59669 16.279 3.43717 16.423 3.35938 16.511C3.29661 16.582 3.25722 16.63 3.2334 16.6604C3.22179 16.6985 3.20825 16.7496 3.19727 16.8098C3.17728 16.9194 3.1649 16.9768 3.11133 17.4543C3.05793 17.9303 2.95804 18.8084 2.91406 19.2639C2.88925 19.5208 2.87534 19.6654 2.86621 19.7639C2.85737 19.8593 2.85525 19.8874 2.85449 19.9104C2.85272 19.9636 2.84905 20.0282 2.84766 20.0569C2.84578 20.0954 2.84382 20.1459 2.84277 20.2258C2.83675 20.6872 2.83399 20.9778 2.83398 20.9778C2.83382 21.5299 2.38617 21.9778 1.83398 21.9778C1.28192 21.9776 0.834152 21.5298 0.833984 20.9778C0.833984 20.9617 0.836839 20.6536 0.842773 20.1994C0.845145 20.0179 0.854808 19.8628 0.855469 19.844C0.860363 19.6957 0.878189 19.5442 0.923828 19.0715C0.969746 18.5959 1.07203 17.6951 1.12402 17.2317C1.18088 16.7249 1.19978 16.6197 1.23047 16.4514C1.27828 16.1891 1.34673 15.9869 1.39062 15.8733L1.43262 15.7766C1.54063 15.5541 1.71177 15.3538 1.86035 15.1858C2.03259 14.9909 2.29809 14.7563 2.41016 14.6555C2.65876 14.4319 2.87072 14.296 3.14551 14.2092L3.26758 14.177C3.38995 14.1507 3.51552 14.1403 3.67188 14.132C3.89413 14.1203 4.27369 14.1098 4.94922 14.0979C6.30713 14.0739 8.91185 14.0495 10.3076 14.0422ZM19.9346 6.98849C20.4847 6.94166 20.9685 7.3496 21.0156 7.89963C21.0241 7.99945 21.0334 8.09994 21.0537 8.34592C21.0738 8.58993 21.1047 8.97315 21.1611 9.55099C21.1736 9.67821 21.1867 9.81681 21.2012 9.96115C21.704 9.94875 22.2351 9.93616 22.7695 9.92209C23.3214 9.90782 23.7813 10.3439 23.7959 10.8957C23.8104 11.4477 23.3741 11.9073 22.8223 11.9221C22.3274 11.9351 21.8392 11.9469 21.375 11.9582C21.392 12.267 21.3987 12.4827 21.4023 12.6184L21.4346 13.1975C21.4385 13.2749 21.4418 13.3465 21.4443 13.3957C21.4456 13.4209 21.4464 13.4416 21.4473 13.4572C21.4478 13.4667 21.4471 13.4733 21.4473 13.4768C21.5406 13.9911 21.2214 14.496 20.707 14.6242C20.1712 14.7576 19.6286 14.4315 19.4951 13.8957C19.4626 13.7648 19.456 13.6481 19.4541 13.6213L19.4531 13.6194C19.45 13.5746 19.4438 13.4431 19.4365 13.3C19.4286 13.1443 19.4187 12.9452 19.4062 12.7395L19.4043 12.7082C19.4 12.5601 19.3937 12.3408 19.374 12.008C19.1872 12.0129 19.0151 12.0173 18.8604 12.0217C17.9692 12.0472 17.6878 12.0644 17.4082 12.0813C16.857 12.1144 16.383 11.6949 16.3496 11.1438C16.3165 10.5927 16.7361 10.1186 17.2871 10.0852C17.5885 10.067 17.8909 10.0488 18.8027 10.0227C18.9237 10.0192 19.0557 10.0157 19.1973 10.0119C19.1882 9.92078 19.1793 9.83132 19.1709 9.74533C19.113 9.15241 19.0799 8.75769 19.0596 8.51096C19.0394 8.26697 19.0318 8.16797 19.0234 8.06955C18.9768 7.51953 19.3846 7.03552 19.9346 6.98849ZM8.84863 2.42014C9.15401 2.39903 9.44042 2.42435 9.82031 2.55295C10.4227 2.75692 11.1647 3.16094 11.5264 3.38596L11.6201 3.44357L11.6982 3.52072C11.8701 3.689 12.1593 4.01089 12.4336 4.48264C12.6469 4.84945 12.8665 5.30132 13.0137 5.92697C13.0899 6.25106 13.1498 6.61994 13.1826 6.93674C13.2127 7.22733 13.2355 7.53745 13.2051 7.85275C13.1624 8.29583 13.097 8.7252 12.8662 9.20334C12.7701 9.40244 12.5615 9.84659 12.376 10.1311C12.1738 10.4411 11.9639 10.7433 11.6191 10.9699C11.2924 11.1846 10.8222 11.4218 10.1689 11.6067C9.86254 11.6934 9.39699 11.8231 9.00488 11.8723C8.7479 11.9045 8.5207 11.9291 8.32715 11.9397C8.1439 11.9497 7.92295 11.952 7.70508 11.9055C7.39134 11.8384 6.92286 11.688 6.33789 11.3508C6.04112 11.1797 5.6993 10.9589 5.4541 10.7707C5.13409 10.5251 4.77047 10.2349 4.46094 9.80978C4.23138 9.49441 3.94185 9.07054 3.76758 8.44748C3.67721 8.12429 3.5981 7.71467 3.55762 7.39182C3.522 7.10774 3.48508 6.76184 3.56836 6.38303C3.66406 5.94777 3.81835 5.39164 4.125 4.87424C4.31184 4.55899 4.51674 4.22148 4.7959 3.97092C5.10321 3.69508 5.55925 3.3302 6.11914 3.05295C6.39745 2.91515 6.67346 2.80905 7.01074 2.71017C7.21342 2.65074 7.72856 2.47638 8.1709 2.46994C8.49817 2.46519 8.55714 2.44029 8.84863 2.42014ZM8.98633 4.41525C8.91984 4.41991 8.57207 4.46453 8.2002 4.46994C8.10635 4.4713 7.94309 4.5207 7.57324 4.62912C7.33803 4.69808 7.17211 4.76409 7.00684 4.84592C6.67082 5.01233 6.36673 5.24837 6.13184 5.4592C6.12904 5.46195 6.10765 5.48313 6.06348 5.54611C6.01053 5.62163 5.94381 5.72922 5.8457 5.89474C5.69971 6.1412 5.60027 6.45438 5.52148 6.81271C5.51856 6.82595 5.50788 6.87062 5.54199 7.14279C5.57156 7.37856 5.63327 7.69105 5.69434 7.90939C5.77176 8.186 5.8932 8.37897 6.07812 8.63303C6.20555 8.80793 6.36789 8.95143 6.67188 9.18478C6.82749 9.30421 7.09085 9.47654 7.33691 9.61838C7.72217 9.84043 7.98795 9.91738 8.10742 9.94455C8.1221 9.94497 8.15655 9.94593 8.21777 9.9426C8.33748 9.93606 8.50692 9.91913 8.75586 9.88791C8.97236 9.86075 9.29169 9.7759 9.62402 9.68185C10.0767 9.55374 10.3572 9.40419 10.5117 9.30392C10.5142 9.30126 10.5185 9.29706 10.5234 9.29123C10.5547 9.25409 10.6059 9.18437 10.7012 9.0383C10.7978 8.88994 10.9376 8.59798 11.0654 8.33322C11.1429 8.17266 11.1801 8.02125 11.2148 7.66037C11.225 7.55454 11.2201 7.41084 11.1924 7.14279C11.1673 6.9009 11.1219 6.61708 11.0674 6.38498C10.9774 6.002 10.8489 5.73594 10.7051 5.48849C10.5775 5.26909 10.4463 5.1132 10.3623 5.02072C10.0442 4.83325 9.53401 4.56754 9.17969 4.44748C9.10335 4.42163 9.06871 4.41568 9.05762 4.41428C9.04907 4.4132 9.03384 4.41197 8.98633 4.41525Z" fill="black"/>
</svg>
