<svg width="24" height="24" viewBox="0 0 24 24" fill="none" xmlns="http://www.w3.org/2000/svg">
<path d="M10.1992 14.0998C11.8304 14.135 12.4366 14.2354 13.04 14.3879C13.5844 14.5255 14.088 14.6921 14.3965 14.8049C14.8209 14.9601 15.0796 15.1018 15.2871 15.3078C15.4046 15.4247 15.5148 15.5773 15.5908 15.6858C15.6796 15.8124 15.7813 15.9667 15.8887 16.1301C16.2016 16.6066 16.301 17.0958 16.3936 17.6506C16.4665 18.0882 16.5385 18.8477 16.5771 19.1672C16.6142 19.474 16.6462 19.7167 16.6709 19.9016C16.6907 20.0499 16.7087 20.1895 16.7188 20.2873C16.7203 20.2998 16.7222 20.3126 16.7236 20.3254H16.7227C16.7334 20.4205 16.7417 20.523 16.7461 20.6223C16.7479 20.6602 16.7498 20.6906 16.752 20.7268C16.7846 21.278 16.3637 21.7516 15.8125 21.7844C15.2614 21.8168 14.7885 21.3961 14.7559 20.8449C14.7537 20.8087 14.7514 20.7684 14.749 20.718L14.748 20.7141C14.7446 20.636 14.74 20.5742 14.7354 20.5373L14.7324 20.5188L14.7314 20.4992C14.7211 20.3799 14.6748 20.0941 14.5918 19.4074C14.5393 18.973 14.4849 18.3635 14.4209 17.9797C14.3297 17.433 14.2783 17.3199 14.2178 17.2278C14.1096 17.063 14.0225 16.9322 13.9531 16.8332C13.9339 16.8058 13.9162 16.7837 13.9023 16.7649C13.8654 16.7479 13.8049 16.7189 13.709 16.6838C13.4513 16.5896 13.0154 16.4448 12.5508 16.3274C12.1451 16.2249 11.702 16.1322 10.1562 16.0989C8.58868 16.065 6.03002 16.0918 4.64551 16.1164C3.80518 16.1314 3.42551 16.1466 3.25098 16.1555C3.24253 16.1705 3.23005 16.1881 3.21875 16.2121C3.18208 16.2904 3.14517 16.3632 3.11914 16.4153C3.09131 16.4709 3.06931 16.5147 3.04883 16.5608C3.01114 16.6455 2.96514 16.7646 2.90723 16.9739C2.86855 17.1136 2.80878 17.3311 2.74707 17.9865C2.68263 18.6712 2.62119 19.7571 2.58984 20.3244C2.57434 20.6051 2.56723 20.7477 2.56348 20.8215C2.56158 20.8588 2.56078 20.875 2.56055 20.8811V20.8625C2.56055 21.4147 2.11272 21.8624 1.56055 21.8625C1.00826 21.8625 0.560547 21.4148 0.560547 20.8625C0.560559 20.8101 0.563234 20.7487 0.592773 20.2141C0.623475 19.6585 0.687064 18.5311 0.755859 17.8C0.82734 17.0406 0.905969 16.7053 0.979492 16.4397C1.14829 15.8299 1.31425 15.5619 1.40723 15.3635C1.60464 14.9423 1.81897 14.7327 1.96777 14.5813C2.24614 14.2981 2.56643 14.2251 2.78125 14.1906C2.97983 14.1588 3.25847 14.1415 4.60938 14.1174C5.99665 14.0927 8.58927 14.0651 10.1992 14.0998ZM20.8691 8.39475C21.15 7.91924 21.7637 7.76141 22.2393 8.04221C22.7148 8.32304 22.8726 8.93678 22.5918 9.41233C22.5291 9.51851 22.4181 9.65695 22.3457 9.74729C22.2496 9.86715 22.1233 10.0202 21.9766 10.1936C21.9019 10.2818 21.8473 10.3406 21.7715 10.4182C21.699 10.4924 21.6129 10.5781 21.4463 10.7502C21.4144 10.7832 21.3792 10.8189 21.3418 10.8576C21.4672 10.9651 21.5839 11.0665 21.6875 11.1545L22.6377 11.9182L22.6455 11.925L22.6543 11.9309C22.6736 11.9459 22.7519 12.0056 22.8242 12.0813C22.8522 12.1106 22.9534 12.2167 23.0273 12.3801C23.1047 12.5513 23.255 13.0736 22.8281 13.508C22.4411 13.9018 21.808 13.9075 21.4141 13.5207C21.3887 13.4958 21.3649 13.4694 21.3428 13.4426C21.2214 13.3456 20.998 13.1648 20.4248 12.7063L20.4141 12.6975L20.4023 12.6877C20.2701 12.5754 20.1145 12.4405 19.9463 12.2961C19.4459 12.8039 19.086 13.1528 18.9014 13.3352L18.9004 13.3342C18.7089 13.5313 18.5998 13.6453 18.4883 13.7551L18.4893 13.7561C18.4708 13.7748 18.4778 13.7692 18.4307 13.8225C18.0648 14.2358 17.4331 14.274 17.0195 13.9084C16.606 13.5426 16.567 12.9109 16.9326 12.4973C16.9514 12.476 16.997 12.4212 17.0645 12.3528L17.0713 12.3469L17.0771 12.3401C17.173 12.2462 17.2446 12.1696 17.4814 11.926L17.4961 11.9114C17.6867 11.7231 17.9949 11.424 18.4365 10.9778C18.4284 10.9704 18.42 10.9635 18.4121 10.9563C17.8307 10.4292 17.533 10.0912 17.1006 9.59983C16.7361 9.18522 16.7769 8.55344 17.1914 8.1887C17.606 7.82431 18.2378 7.86508 18.6025 8.27952C19.023 8.75733 19.2607 9.02597 19.7559 9.47483C19.7797 9.49648 19.8059 9.51779 19.832 9.54124C19.8964 9.47454 19.9562 9.4139 20.0088 9.3596C20.1786 9.18418 20.2817 9.08023 20.3408 9.01975C20.3966 8.96267 20.4169 8.941 20.4502 8.90159C20.5893 8.73715 20.7033 8.59843 20.7852 8.49631C20.8263 8.44501 20.8569 8.40656 20.877 8.3801C20.907 8.34029 20.8927 8.35487 20.8691 8.39475ZM7.24902 2.31174C7.80599 2.24277 8.62903 2.27028 9.13574 2.29417C9.72767 2.32212 10.0853 2.39353 10.375 2.4719C10.8503 2.60058 11.1652 2.75743 11.458 2.95823C11.9028 3.26336 12.2104 3.59411 12.3809 3.80198C12.5287 3.98241 12.646 4.1895 12.7734 4.45432C13.0669 5.06438 13.2695 5.62439 13.332 6.02854C13.4196 6.59472 13.3738 7.15297 13.3193 7.56565C13.28 7.86366 13.1969 8.15092 13.0889 8.45627C12.9763 8.77417 12.8163 9.14366 12.6631 9.44749C12.371 10.0267 12.04 10.4433 11.7803 10.7453C11.5108 11.0587 11.238 11.2527 11.0439 11.383C10.849 11.5139 10.6358 11.5935 10.4619 11.6477C10.2798 11.7044 10.0731 11.7536 9.8584 11.8C9.1761 11.9474 8.61935 11.8814 8.31348 11.8449C8.04326 11.8128 7.74097 11.7291 7.4541 11.6418C7.13801 11.5456 6.76899 11.4132 6.46973 11.2864C5.90153 11.0455 5.49746 10.759 5.17578 10.5051C4.80824 10.215 4.50038 9.85539 4.26855 9.58811C3.897 9.15973 3.71889 8.68833 3.60742 8.20627C3.52924 7.8679 3.5007 7.43862 3.48438 7.15647C3.46447 6.81187 3.47055 6.52559 3.5 6.21799C3.55542 5.63968 3.64901 5.20778 3.73535 4.95237C3.94345 4.33733 4.30169 3.96896 4.64941 3.61448L4.67188 3.59104L4.69629 3.56956C4.76334 3.50964 4.82785 3.45663 4.88184 3.41428L4.97754 3.34202C4.98018 3.3398 4.98707 3.33467 4.99707 3.32542C5.01857 3.30549 5.04623 3.27798 5.07812 3.24729C5.10432 3.22209 5.14716 3.18117 5.17188 3.15745C5.18625 3.14366 5.20243 3.12892 5.2168 3.11545C5.22828 3.10467 5.25093 3.08261 5.27539 3.06174C5.27743 3.06011 5.28023 3.05853 5.28223 3.05686C5.29186 3.04884 5.30251 3.04115 5.3125 3.03342C5.33847 3.01328 5.36529 2.99399 5.39258 2.97678C5.59397 2.84217 6.2113 2.44043 7.24902 2.31174ZM9.04102 4.29221C8.5062 4.26701 7.85455 4.25166 7.49512 4.29612C6.98273 4.35966 6.67718 4.52666 6.54395 4.61155C6.52013 4.63448 6.49872 4.65609 6.46484 4.6887C6.43112 4.72115 6.39178 4.75956 6.35547 4.79319C6.33746 4.80986 6.31663 4.82873 6.2959 4.8469C6.2785 4.86214 6.24535 4.89044 6.20703 4.91917C6.14707 4.96405 6.09878 5.00112 6.0459 5.0471C5.7277 5.3733 5.67605 5.45662 5.62988 5.59299C5.60833 5.65676 5.53746 5.92594 5.49121 6.40842C5.47149 6.61426 5.46643 6.79832 5.48047 7.04124C5.49816 7.34704 5.52168 7.60897 5.55566 7.75608C5.6241 8.05205 5.69561 8.18107 5.7793 8.27756C6.03593 8.57344 6.22179 8.78224 6.41504 8.93479C6.65936 9.12761 6.90622 9.2988 7.25 9.44456C7.47954 9.54185 7.78195 9.65137 8.03613 9.72874C8.31963 9.815 8.47243 9.84941 8.5498 9.85862C8.81738 9.89047 9.09637 9.91841 9.43652 9.84495C9.63501 9.80207 9.772 9.76817 9.86719 9.7385C9.90849 9.7256 9.93328 9.71506 9.94531 9.71018C10.0748 9.62245 10.1712 9.54922 10.2637 9.44163C10.472 9.19932 10.6887 8.92237 10.8779 8.5471C10.996 8.31285 11.121 8.02133 11.2031 7.78928C11.2896 7.54493 11.3235 7.40565 11.3369 7.30393C11.3821 6.9618 11.4001 6.62303 11.3555 6.3342C11.3377 6.21993 11.2343 5.86933 10.9707 5.32151C10.9211 5.21848 10.8873 5.1553 10.8643 5.11643C10.8532 5.09782 10.8454 5.086 10.8408 5.07932C10.8366 5.07325 10.8346 5.07029 10.834 5.06956C10.7487 4.96553 10.5758 4.7789 10.3262 4.60764C10.2216 4.53597 10.1132 4.47315 9.85254 4.40256C9.7039 4.36235 9.48956 4.31338 9.04102 4.29221Z" fill="black"/>
</svg>
