<svg width="24" height="24" viewBox="0 0 24 24" fill="none" xmlns="http://www.w3.org/2000/svg">
<path d="M10.0186 13.619C10.4163 13.6168 10.7187 13.6219 10.9893 13.6532C11.281 13.6869 11.5091 13.7483 11.7578 13.825C12.2199 13.9677 12.9086 14.2067 13.3027 14.3622C13.7493 14.5383 14.0814 14.6864 14.3809 14.9539C14.5888 15.1398 14.8565 15.4441 15.1406 15.9549C15.3162 16.2706 15.4711 16.6272 15.6836 17.326C15.8905 18.0065 16.1565 19.0222 16.3066 19.6258C16.4566 20.2289 16.5025 20.4647 16.5264 20.6317C16.5302 20.6583 16.5408 20.7343 16.543 20.8182C16.545 20.8981 16.5441 21.089 16.4492 21.3006C16.2083 21.8371 15.6794 21.911 15.6143 21.9217C15.4055 21.9561 15.1251 21.9504 15.0059 21.9461C14.8984 21.9423 14.8512 21.9338 12.7646 21.9256C10.6788 21.9175 6.69031 21.9098 4.66504 21.9041C2.6783 21.8986 2.56583 21.8962 2.46875 21.8895C2.16372 21.8684 1.9005 21.7116 1.73242 21.4832C1.32119 21.3592 1.02159 20.9779 1.02148 20.5262C1.02148 20.5061 1.02145 20.4444 1.02637 20.3768L1.02734 20.3592L1.0293 20.3416C1.02764 20.357 1.0271 20.3676 1.03027 20.3182C1.03259 20.2822 1.03548 20.2292 1.04102 20.1551C1.05206 20.0072 1.07179 19.7773 1.10742 19.4129C1.13065 19.0798 1.16949 18.8061 1.19727 18.5907C1.22705 18.3595 1.2542 18.0769 1.40234 17.6502C1.49486 17.3839 1.65881 16.9391 1.77344 16.6551C1.88882 16.3693 1.97061 16.1947 2.09668 16.0038C2.29166 15.7086 2.57725 15.3556 2.99902 15.0077C3.21764 14.8273 3.47612 14.6407 3.8252 14.4598C4.16214 14.2852 4.56189 14.1269 4.99219 14.0028C5.45686 13.8688 5.93017 13.7836 6.88184 13.7225C7.81354 13.6627 9.21104 13.6234 10.0186 13.619ZM10.0293 15.619C9.25066 15.6232 7.89336 15.6609 7.00977 15.7176C6.14677 15.773 5.82671 15.8427 5.5459 15.9237C5.23076 16.0145 4.95509 16.1274 4.74512 16.2362C4.54777 16.3385 4.40701 16.4396 4.27246 16.5506C4.02375 16.7558 3.86637 16.9538 3.76562 17.1063C3.753 17.1254 3.74383 17.1404 3.72852 17.1717C3.70885 17.212 3.67955 17.2787 3.62891 17.4041C3.52908 17.6515 3.37612 18.0643 3.29199 18.3065C3.25264 18.4198 3.23342 18.4991 3.2207 18.5663C3.20576 18.6452 3.19815 18.7109 3.18066 18.8465C3.1486 19.0952 3.11841 19.3059 3.10059 19.576L3.09961 19.5916L3.09766 19.6073C3.08705 19.7158 3.07898 19.8115 3.07129 19.8954C3.36899 19.897 3.86035 19.9019 4.6709 19.9041C6.69216 19.9098 10.6857 19.9175 12.7725 19.9256C13.5072 19.9285 13.9927 19.9316 14.3193 19.9344C14.1686 19.3379 13.9436 18.4807 13.7695 17.9081C13.5831 17.2949 13.4779 17.08 13.3926 16.9266C13.2073 16.5934 13.0757 16.4692 13.0488 16.4452C13.0403 16.4375 13.0097 16.3962 12.5693 16.2225C12.2303 16.0888 11.5896 15.8667 11.167 15.7362C10.9737 15.6765 10.878 15.6542 10.7598 15.6405C10.6202 15.6244 10.424 15.6169 10.0293 15.619ZM20.8486 6.85043C21.3528 6.90171 21.7471 7.32783 21.7471 7.84555C21.747 7.87444 21.7436 7.90322 21.7412 7.93149C21.7415 7.9274 21.7429 7.92425 21.7432 7.9227V7.92563C21.7428 7.93947 21.7429 7.96 21.7422 7.98813C21.7393 8.10294 21.7336 8.33663 21.7246 8.80844C21.7181 9.15013 21.7085 9.61666 21.6992 10.1209C22.0621 10.1118 22.4349 10.1058 22.8096 10.0956C23.3616 10.0805 23.8218 10.5162 23.8369 11.0682C23.8518 11.6202 23.4163 12.0805 22.8643 12.0956C22.4579 12.1066 22.0539 12.1141 21.6621 12.1239C21.6584 12.3175 21.6555 12.4971 21.6523 12.6551C21.6321 13.6616 21.6266 13.7694 21.6211 13.8592C21.6191 13.8912 21.6177 13.9094 21.6172 13.9217L21.6182 13.9266C21.6197 13.9473 21.6223 13.9836 21.625 14.0311C21.6556 14.5821 21.2336 15.0545 20.6826 15.0858C20.1314 15.1168 19.6593 14.6945 19.6279 14.1434C19.6265 14.1174 19.6248 14.0997 19.623 14.077C19.6214 14.0557 19.6183 14.0146 19.6172 13.9666C19.6153 13.8802 19.6215 13.7942 19.625 13.7372C19.6274 13.6972 19.6319 13.6334 19.6523 12.6151C19.655 12.4809 19.657 12.3312 19.6602 12.1707C19.1839 12.1813 18.7778 12.1927 18.4766 12.1991C17.6228 12.217 17.5998 12.2166 17.584 12.2166C17.0319 12.2165 16.5841 11.7687 16.584 11.2166C16.5842 10.6646 17.032 10.2168 17.584 10.2166H17.5781C17.5918 10.2164 17.6195 10.2158 17.6738 10.2147C17.7829 10.2124 18.0009 10.2082 18.4346 10.1991C18.753 10.1924 19.1878 10.1802 19.6982 10.1688C19.7083 9.63275 19.7187 9.13274 19.7256 8.77036C19.7346 8.29925 19.7392 8.05968 19.7422 7.93832C19.7436 7.88124 19.7448 7.84012 19.7461 7.81235C19.7463 7.80714 19.7488 7.76085 19.7559 7.70981C19.7582 7.69277 19.7631 7.65937 19.7725 7.61899C19.7801 7.58633 19.8012 7.49846 19.8525 7.39633C19.9066 7.28887 20.0339 7.08666 20.292 6.95493C20.4162 6.89156 20.5324 6.86452 20.6191 6.85336C20.66 6.84814 20.6942 6.84719 20.7148 6.84653C20.7247 6.8462 20.7332 6.84559 20.7383 6.84555H20.7471L20.8486 6.85043ZM7.99121 2.35141C8.38331 2.29807 8.66871 2.29148 9.08984 2.34067C9.46431 2.38445 9.96014 2.47419 10.2646 2.53891C10.6281 2.61626 10.9464 2.74576 11.2285 2.96664C11.486 3.16837 11.6629 3.4115 11.7812 3.57211C11.947 3.79703 12.0678 4.09146 12.1348 4.24692C12.2364 4.48275 12.3286 4.73904 12.4307 5.04965C12.5326 5.36004 12.6553 5.7567 12.748 6.1268C12.8421 6.50209 12.9026 6.84473 12.9326 7.15512C12.9911 7.76114 12.9038 8.24645 12.7998 8.61411C12.6886 9.00721 12.5255 9.28721 12.3691 9.52426C12.076 9.96852 11.7027 10.3088 11.4482 10.5145C11.144 10.7604 10.7176 10.9543 10.3672 11.1092C10.0727 11.2393 9.81369 11.2972 9.45312 11.3416C9.11069 11.3838 8.62948 11.4125 8.3623 11.4247C7.91221 11.4451 7.65037 11.3874 7.42383 11.325C7.29666 11.29 6.90774 11.1617 6.37695 10.9676C5.87981 10.7858 5.56561 10.4859 5.30469 10.2342C5.08024 10.0177 4.87977 9.74033 4.71191 9.50278C4.52106 9.23267 4.32253 8.91954 4.18066 8.67758C3.92189 8.23618 3.77994 7.85209 3.67871 7.54868C3.55592 7.18042 3.55668 6.71692 3.5625 6.3309C3.57186 5.71693 3.7998 5.17782 3.88184 4.95786L3.94922 4.80746C4.12233 4.47285 4.40282 4.25268 4.53223 4.1561C4.67542 4.04929 4.81945 3.9631 4.91504 3.90805C4.92862 3.89342 4.94849 3.87377 4.97168 3.84653C4.9884 3.82686 5.0056 3.80567 5.02441 3.78305C5.04214 3.76173 5.06499 3.73446 5.08496 3.71078C5.10474 3.68735 5.13047 3.65709 5.15723 3.62778C5.16518 3.61915 5.1781 3.60736 5.19238 3.59262C5.22563 3.5563 5.26234 3.52104 5.30176 3.48911C5.26502 3.51886 5.86339 2.88037 6.79883 2.58188C7.19185 2.45658 7.70843 2.3899 7.99121 2.35141ZM8.8584 4.32797C8.61061 4.29902 8.49334 4.30121 8.26074 4.33286C7.91887 4.37939 7.59836 4.42637 7.40723 4.48715C7.18757 4.55724 7.01465 4.66228 6.8877 4.75766C6.82472 4.80501 6.77215 4.85027 6.72949 4.8895C6.70716 4.91005 6.68841 4.92782 6.66602 4.94907C6.66131 4.95353 6.64596 4.96576 6.62793 4.98227H6.62891C6.6251 4.98666 6.61971 4.99319 6.61328 5.00082C6.60264 5.01344 6.52853 5.10201 6.49414 5.14243C6.44605 5.19891 6.38048 5.27398 6.30859 5.34555C6.2484 5.40545 6.12813 5.52027 5.96875 5.60922C5.89833 5.64848 5.80638 5.70157 5.72852 5.75961C5.72398 5.763 5.71891 5.76629 5.71484 5.76938C5.6209 6.02273 5.56422 6.18797 5.56152 6.36118C5.55848 6.56327 5.56138 6.70868 5.56836 6.8143C5.57587 6.92733 5.58594 6.94524 5.57617 6.91586C5.65658 7.15686 5.74622 7.3945 5.90527 7.66586C6.02154 7.86418 6.19071 8.12913 6.3457 8.34848C6.52372 8.60041 6.62376 8.72763 6.69336 8.79477C6.94868 9.04107 6.99997 9.06514 7.06445 9.08871C7.32304 9.18326 7.53707 9.25809 7.69434 9.31137C7.77297 9.33801 7.83678 9.35976 7.88379 9.37485C7.93371 9.39087 7.95505 9.39631 7.95508 9.39633C8.01741 9.41347 8.04059 9.41908 8.06836 9.4227C8.09796 9.42654 8.15794 9.43175 8.27148 9.42661C8.52815 9.41492 8.94631 9.38865 9.20898 9.35629C9.34025 9.34011 9.41133 9.32708 9.45508 9.31625C9.49069 9.30739 9.5183 9.29695 9.55859 9.27914C9.95815 9.10252 10.1296 9.00879 10.1914 8.95883C10.3653 8.81818 10.5644 8.62698 10.6992 8.4227C10.7988 8.27177 10.842 8.18666 10.875 8.07016C10.9296 7.87708 10.9712 7.64686 10.9424 7.3475C10.9237 7.15402 10.8823 6.91021 10.8076 6.61215C10.7316 6.30879 10.6255 5.96455 10.5303 5.67465C10.4351 5.38501 10.3656 5.19292 10.2988 5.03793C10.2551 4.93641 10.2239 4.86629 10.1963 4.80942C10.1675 4.75019 10.1592 4.7427 10.1709 4.75864C10.1088 4.6744 10.071 4.62501 10.0391 4.58774C10.0113 4.55545 9.99831 4.54437 9.99512 4.54184C9.9946 4.54143 9.99108 4.538 9.97754 4.53207C9.96072 4.52479 9.922 4.5106 9.84863 4.49496C9.58441 4.4388 9.15338 4.36249 8.8584 4.32797ZM21.1836 8.74301C21.1891 8.74038 21.1957 8.73899 21.2012 8.73618C21.2038 8.73478 21.2064 8.73266 21.209 8.73129C21.2008 8.73557 21.1919 8.73898 21.1836 8.74301ZM6.62109 4.98911C6.60552 5.00395 6.58995 5.01999 6.57324 5.03403C6.59805 5.01324 6.61526 4.99591 6.62207 4.98911C6.62273 4.98804 6.62328 4.98595 6.62402 4.9852C6.62301 4.98612 6.62201 4.98803 6.62109 4.98911Z" fill="black"/>
</svg>
