<svg width="24" height="24" viewBox="0 0 24 24" fill="none" xmlns="http://www.w3.org/2000/svg">
<path d="M10.2566 13.285C11.2081 13.2637 12.7057 13.289 13.5056 13.3123C14.2911 13.3353 14.5289 13.3559 14.8718 13.4627C15.1 13.5338 15.4175 13.6466 15.7644 13.8084C16.1143 13.9716 16.4768 14.1757 16.864 14.4451C17.2478 14.7122 17.6445 15.0333 18.0417 15.408C18.4242 15.7688 18.8163 16.1771 19.073 16.4793C19.4586 16.9333 19.762 17.3716 20.0056 18.0262C20.1298 18.36 20.2542 18.7664 20.3376 19.074C20.4261 19.4 20.4736 19.6318 20.5193 19.9412C20.5257 19.9842 20.5931 20.3209 20.4451 20.6805C20.2835 21.0729 19.9655 21.2936 19.6921 21.4207C19.2017 21.6486 18.4059 21.777 17.1648 21.8563C14.6137 22.0192 9.66206 22.0002 7.22339 21.991C4.84268 21.9821 4.96962 22.0007 4.68823 21.9783C4.32608 21.9495 4.08649 21.7487 3.9646 21.6053C3.84907 21.4693 3.78915 21.3309 3.75854 21.2498C3.69597 21.0838 3.6689 20.9135 3.65503 20.7928C3.62529 20.5336 3.62482 20.224 3.64136 19.9246C3.67248 19.3614 3.77857 18.576 4.02808 18.0457C4.24363 17.5878 4.43473 17.1767 4.7312 16.7459C4.92334 16.4668 5.24833 16.013 5.57104 15.6092C5.89297 15.2064 6.21814 14.8449 6.52515 14.5701C6.85053 14.2789 7.12997 14.1061 7.42163 13.949C7.6982 13.8002 8.02809 13.6416 8.41089 13.5184C8.84769 13.3778 9.28682 13.3067 10.2566 13.285ZM10.3015 15.285C9.42083 15.3047 9.19907 15.3664 9.02417 15.4227C8.79541 15.4963 8.58153 15.5959 8.36987 15.7098C8.1733 15.8156 8.03494 15.9031 7.85913 16.0604C7.66469 16.2344 7.4157 16.503 7.13257 16.8572C6.85029 17.2104 6.55565 17.6226 6.37866 17.8797C6.18955 18.1545 6.06365 18.4171 5.83765 18.8973C5.80983 18.9564 5.76252 19.1011 5.71948 19.3348C5.68159 19.5405 5.65518 19.7709 5.64136 19.9901C5.9767 19.9896 6.47706 19.9882 7.2312 19.991C9.7039 20.0003 14.5704 20.0177 17.0369 19.8602C17.6449 19.8213 18.0763 19.7723 18.3787 19.7215C18.3979 19.7183 18.4165 19.7139 18.4343 19.7108C18.4253 19.6753 18.4187 19.637 18.408 19.5975C18.3356 19.3307 18.229 18.9852 18.1316 18.7234C17.9921 18.3485 17.8332 18.1084 17.5486 17.7733C17.3522 17.5421 17.0139 17.1887 16.6687 16.8631C16.3382 16.5513 16.0183 16.2933 15.7214 16.0867C15.4283 15.8828 15.1657 15.7357 14.9197 15.6209C14.671 15.5049 14.4397 15.4226 14.2771 15.3719C14.2262 15.356 14.2152 15.3519 14.1453 15.3445C14.0374 15.3332 13.8469 15.323 13.447 15.3113C12.6587 15.2883 11.2017 15.2649 10.3015 15.285ZM11.7205 2.26544C11.9485 2.23823 12.2062 2.22392 12.5017 2.27521C12.7486 2.31809 13.0306 2.43144 13.1863 2.49689C13.3041 2.54642 13.4354 2.6089 13.5339 2.65802C13.539 2.66026 13.5446 2.66157 13.5496 2.66388C13.767 2.76508 14.2565 3.02777 14.3289 3.06427C14.5042 3.15262 14.6603 3.24467 14.7693 3.31427L14.7859 3.32501L14.8015 3.33575C14.9214 3.41894 15.2885 3.64313 15.5583 3.97052C15.9306 4.42208 16.3241 4.91059 16.5007 5.20197C16.5828 5.33738 16.8011 5.64053 16.9099 6.04279C17.0047 6.39333 17.1332 6.82126 17.0593 7.51154C17.0006 8.06049 16.9138 8.61469 16.5486 9.34161C16.3852 9.66676 16.1976 10.036 15.99 10.3602C15.8104 10.6406 15.6736 10.8193 15.5564 10.9529C15.4146 11.1147 15.0372 11.5584 14.4265 11.8738C13.8318 12.181 13.1872 12.3877 12.6277 12.3797C12.3558 12.3758 11.9926 12.3642 11.6716 12.3475C11.5118 12.3392 11.3552 12.3298 11.2224 12.3182C11.1189 12.3091 10.9459 12.2929 10.8064 12.2567C10.6469 12.2152 10.4298 12.1655 9.99487 12.0018C9.68961 11.8868 9.40756 11.7778 9.17847 11.6824C8.98057 11.6 8.72561 11.4896 8.5437 11.3631C8.34694 11.2262 7.89592 10.9199 7.55835 10.4656C7.40503 10.2594 6.9995 9.7899 6.85034 9.16681C6.74533 8.72812 6.60771 8.14389 6.6062 7.72638C6.60535 7.48698 6.49911 6.93723 6.80249 5.95294C6.97533 5.39221 7.09288 5.03464 7.18042 4.79572C7.26786 4.55708 7.34492 4.38165 7.45288 4.21954L7.57886 4.05353C7.71818 3.888 7.89135 3.727 8.03198 3.60431C8.24222 3.42093 8.50007 3.22124 8.7439 3.07111L8.86694 3.00275C8.99898 2.93793 9.15195 2.88128 9.28198 2.83575C9.49032 2.76282 9.76256 2.67806 10.0955 2.58673C10.3809 2.50843 10.7552 2.40342 11.0583 2.36212C11.2336 2.33828 11.5624 2.28432 11.7205 2.26544ZM11.9568 4.25177C11.8891 4.25987 11.8113 4.27103 11.7029 4.2879C11.5987 4.30412 11.4718 4.32399 11.3279 4.34357C11.1875 4.36272 10.9642 4.42232 10.6248 4.51544C10.3266 4.59724 10.0994 4.66874 9.94312 4.72345C9.86479 4.75088 9.80892 4.77244 9.77417 4.78693C9.77091 4.78829 9.76802 4.78969 9.76538 4.79083C9.64644 4.86711 9.49144 4.98467 9.34644 5.11115C9.27075 5.17718 9.20701 5.23858 9.15991 5.28693C9.14371 5.30355 9.13004 5.31492 9.12183 5.32404C9.11268 5.34378 9.09223 5.39078 9.05835 5.48322C8.99023 5.66913 8.88566 5.98466 8.71362 6.54279C8.61462 6.86412 8.59382 7.05742 8.5896 7.18536C8.58733 7.25467 8.58906 7.31969 8.59351 7.40216C8.59736 7.47361 8.60577 7.5989 8.6062 7.71954C8.60679 7.85285 8.67095 8.18003 8.79565 8.70099C8.82551 8.82569 8.89065 8.9047 9.16382 9.27228C9.28002 9.42865 9.46528 9.56777 9.68628 9.7215C9.66102 9.70394 9.66352 9.70874 9.72437 9.7381C9.77699 9.76349 9.85104 9.79635 9.948 9.83673C10.1422 9.91761 10.3959 10.0152 10.7 10.1297C10.8714 10.1942 10.9874 10.2325 11.072 10.2576C11.1611 10.284 11.2165 10.297 11.3093 10.3211C11.2613 10.3086 11.268 10.3146 11.3972 10.326C11.497 10.3347 11.6275 10.3427 11.7751 10.3504C12.0704 10.3658 12.4086 10.3761 12.656 10.3797C12.6925 10.3802 12.792 10.3722 12.9539 10.325C13.1098 10.2795 13.2988 10.2048 13.5085 10.0965C13.7551 9.96913 13.9202 9.7854 14.0525 9.63458C14.0908 9.59089 14.1693 9.49611 14.3064 9.28204C14.4491 9.05919 14.5919 8.7816 14.7615 8.44415C14.9754 8.01826 15.0249 7.72976 15.071 7.29865C15.0887 7.13363 15.0825 7.0274 15.0701 6.94318C15.0551 6.84233 15.0301 6.75319 14.9792 6.56525C14.9749 6.54925 14.9697 6.53489 14.949 6.49786C14.9359 6.47453 14.9192 6.44598 14.8914 6.40118C14.8665 6.36125 14.8282 6.30083 14.7908 6.23907C14.7063 6.09977 14.4232 5.73671 14.0154 5.242C14.0045 5.22884 13.9799 5.20361 13.9207 5.159C13.8909 5.13657 13.8566 5.11219 13.8123 5.08185C13.7824 5.06142 13.7326 5.02736 13.6882 4.99689C13.6299 4.95986 13.5345 4.90382 13.4285 4.8504C13.3472 4.80944 13.1933 4.72734 13.0632 4.659C12.9168 4.58203 12.7855 4.51445 12.7058 4.47736C12.6774 4.46414 12.6503 4.44886 12.6238 4.43341V4.43439C12.6494 4.44934 12.6634 4.45607 12.6433 4.44611C12.6319 4.44047 12.6135 4.43187 12.5896 4.42072C12.5417 4.39837 12.4786 4.36909 12.4109 4.34064C12.3422 4.31179 12.276 4.28577 12.2205 4.26642C12.1566 4.24418 12.14 4.2426 12.1589 4.24591C12.127 4.24042 12.0813 4.2369 11.9568 4.25177Z" fill="black"/>
</svg>
