<svg width="24" height="24" viewBox="0 0 24 24" fill="none" xmlns="http://www.w3.org/2000/svg">
<path d="M7.5065 0.999738C8.05851 0.99183 8.51289 1.43315 8.52114 1.98509C8.52818 2.47422 8.53697 2.96174 8.54556 3.447C10.0561 3.40494 12.3035 3.34458 13.6959 3.32884C14.1418 3.3238 14.4958 3.32402 14.7877 3.32689C14.7858 3.18136 14.7844 3.04794 14.7829 2.93138C14.7723 2.14149 14.7721 2.11826 14.7721 2.1013C14.7721 1.54902 15.2198 1.1013 15.7721 1.1013C16.3244 1.10133 16.7721 1.54903 16.7721 2.1013V2.10814C16.7723 2.1218 16.7724 2.14801 16.7731 2.19896C16.7744 2.30192 16.7775 2.50474 16.7829 2.90501C16.7848 3.04607 16.7872 3.21162 16.7897 3.39329C16.949 3.39781 17.1135 3.40491 17.277 3.40892C17.6095 3.41707 17.9426 3.42555 18.1959 3.43626C18.9747 3.46922 19.4986 3.64556 19.9694 3.81712C20.5659 4.03451 20.8463 4.51445 20.984 4.84837C21.1023 5.13529 21.193 5.53696 21.2292 5.66575C21.2915 5.88778 21.3179 6.08323 21.3307 6.50169C21.343 6.90583 21.3441 7.58535 21.3346 8.8054C21.3344 8.83301 21.3339 8.86121 21.3336 8.88939C21.7683 8.97246 22.1107 9.33833 22.1432 9.80052C22.1796 10.3185 21.814 10.7708 21.3122 10.8552C21.2818 13.3531 21.232 16.5558 21.1911 18.4792C21.1388 20.9385 21.107 21.239 21.0563 21.487C20.9785 21.8669 20.8483 22.2291 20.7292 22.5056C20.6689 22.6455 20.6067 22.775 20.5475 22.8835C20.5099 22.9525 20.4161 23.1246 20.2838 23.2595C20.224 23.3204 20.1231 23.41 19.9733 23.4802C19.851 23.5375 19.7403 23.5608 19.6764 23.572C19.5582 23.5927 19.4218 23.5996 19.2936 23.6042C19.0117 23.6145 18.4952 23.6195 17.5387 23.6247C15.6132 23.6352 11.8047 23.637 9.09146 23.5349C6.35988 23.4321 4.84758 23.2236 4.01626 23.0993C3.66668 23.0471 3.30859 22.9964 3.04263 22.8923C2.86935 22.8245 2.68713 22.7194 2.527 22.5486C2.38168 22.3934 2.30144 22.2303 2.26138 22.1462C2.03938 21.6803 1.89461 20.9977 1.79165 18.3542C1.72562 16.6586 1.68082 14.0965 1.65005 11.7829C1.28288 11.6456 1.01554 11.2988 1.00064 10.8826C0.985351 10.45 1.24702 10.0715 1.62661 9.91868C1.61947 9.2554 1.61345 8.64852 1.60903 8.1345C1.58724 5.59586 1.59654 5.38068 1.62564 5.14622C1.65043 4.94653 1.68871 4.74056 1.74966 4.5515C1.79982 4.39596 1.90957 4.10395 2.16372 3.87864L2.27407 3.79271C2.5354 3.61174 2.8222 3.56545 2.95083 3.54466C3.14856 3.5127 3.40667 3.48954 3.70962 3.46556L3.72622 3.46458L3.7438 3.46361C3.98359 3.45291 4.29507 3.44484 4.61685 3.43626C4.9435 3.42755 5.28756 3.41809 5.60806 3.40501C5.9425 3.39136 6.2476 3.3733 6.5436 3.35325C6.53576 2.90652 6.52754 2.45949 6.52114 2.01439C6.51338 1.46239 6.9545 1.00782 7.5065 0.999738ZM18.0299 11.0544C15.192 11.2063 9.7735 11.4851 6.67153 11.6384C5.24772 11.7088 4.31574 11.7515 3.65005 11.781C3.68082 14.078 3.72573 16.6083 3.79068 18.2761C3.85936 20.0398 3.9492 20.7692 4.00747 21.072C4.08857 21.0854 4.18731 21.1033 4.31118 21.1218C5.08171 21.237 6.51998 21.4372 9.16665 21.5368C11.8323 21.6372 15.6022 21.6352 17.528 21.6247C18.2073 21.621 18.6465 21.615 18.9323 21.6101C18.9979 21.4442 19.0608 21.2593 19.0963 21.0857C19.1013 21.0623 19.1369 20.9869 19.1911 18.4372C19.231 16.558 19.2796 13.4502 19.3102 10.9822C18.9605 11.0015 18.5394 11.0272 18.0299 11.0544ZM13.7184 5.32884C12.3418 5.3444 10.1067 5.40575 8.59439 5.44798C8.60209 5.66832 8.60896 5.86128 8.61685 6.01341C8.62733 6.21557 8.63662 6.32018 8.64419 6.37962C8.64978 6.42341 8.65368 6.43999 8.66177 6.47044C8.80368 7.00405 8.48628 7.55197 7.95278 7.69407C7.41913 7.836 6.87119 7.51869 6.72915 6.98509C6.6686 6.75731 6.64288 6.56316 6.61978 6.1179C6.61105 5.94955 6.60355 5.73897 6.59536 5.50169C6.30445 5.50945 6.15248 5.51429 6.00064 5.51829C5.82601 5.5229 5.66022 5.48287 5.51528 5.40794C5.23147 5.41825 4.93972 5.4281 4.67056 5.43529C4.34948 5.44385 4.06585 5.45133 3.85025 5.46068C3.75695 5.46809 3.67481 5.47472 3.6022 5.48118C3.59565 5.64602 3.5923 6.1668 3.60903 8.11693C3.61319 8.60077 3.61908 9.16514 3.62564 9.78001C4.28273 9.7509 5.19684 9.70935 6.5729 9.64134C9.67212 9.48816 15.0874 9.20912 17.9225 9.05736C18.4974 9.02658 18.9589 8.99896 19.3317 8.97825C19.3322 8.91416 19.3341 8.85111 19.3346 8.78978C19.3442 7.5628 19.3427 6.92164 19.3317 6.56224C19.3262 6.38295 19.3184 6.29689 19.3131 6.25462C19.3101 6.22988 19.309 6.22676 19.3034 6.20677C19.2836 6.1365 19.2663 6.06654 19.2506 6.0056C19.2342 5.9415 19.22 5.88802 19.2057 5.8347C19.1834 5.75159 19.1633 5.69218 19.1471 5.6472C18.8116 5.52909 18.5309 5.45207 18.112 5.43431C17.881 5.42453 17.5699 5.41729 17.2282 5.40892C17.094 5.40563 16.9557 5.4001 16.818 5.39622C16.8221 5.67753 16.8254 5.93661 16.8288 6.14915C16.8426 7.01567 16.8474 7.03827 16.8493 7.06126C16.8942 7.61151 16.4845 8.09422 15.9342 8.13939C15.384 8.18438 14.9013 7.7746 14.8561 7.22435C14.8475 7.11962 14.8421 7.01673 14.8288 6.1804C14.825 5.94271 14.8207 5.64736 14.8161 5.32786C14.5292 5.32464 14.1761 5.32367 13.7184 5.32884Z" fill="black"/>
</svg>
