<svg width="24" height="24" viewBox="0 0 24 24" fill="none" xmlns="http://www.w3.org/2000/svg">
<path d="M20.6039 16.9889C21.1543 16.9476 21.6344 17.3604 21.6762 17.9108C21.7176 18.4611 21.3046 18.9411 20.7543 18.9831C20.6761 18.989 20.6128 18.9917 20.5678 18.9938C20.5444 18.9949 20.5302 18.996 20.518 18.9967C20.5093 18.9972 20.5046 18.9976 20.5033 18.9977C20.5017 18.9979 20.4957 18.9985 20.4828 19.0006C20.4714 19.0026 20.4627 19.0042 20.4437 19.0075C20.4273 19.0103 20.4045 19.0145 20.3803 19.0182C20.2632 19.0363 20.1493 19.0389 19.8685 19.0417C19.5562 19.0447 18.9688 19.0466 17.8373 19.0475C15.5707 19.0493 11.2345 19.0461 9.05995 19.0426C7.97407 19.0409 7.42433 19.0397 7.14491 19.0377C7.00805 19.0368 6.92731 19.0351 6.87929 19.0338C6.85971 19.0333 6.82393 19.0322 6.78651 19.029C6.71925 19.0232 6.63777 19.0098 6.54823 18.9801C6.02442 18.806 5.74056 18.2404 5.91444 17.7165C6.06215 17.2714 6.49245 17.0012 6.93984 17.0358C6.969 17.0365 7.03149 17.0369 7.15859 17.0377C7.43185 17.0396 7.97628 17.0409 9.06288 17.0426C11.2362 17.0461 15.5707 17.0493 17.8353 17.0475C18.9686 17.0466 19.5472 17.0446 19.849 17.0417C19.992 17.0402 20.0644 17.039 20.101 17.0377C20.1101 17.0361 20.1234 17.0326 20.1508 17.028C20.1914 17.0212 20.2491 17.0128 20.3168 17.0065C20.379 17.0007 20.4423 16.9973 20.4769 16.9958C20.518 16.9939 20.5569 16.9925 20.6039 16.9889ZM7.17909 17.0827C7.1791 17.0827 7.15936 17.0756 7.13612 17.069C7.12036 17.0646 7.10388 17.0618 7.08827 17.0583C7.11823 17.0652 7.14933 17.0728 7.17909 17.0827ZM7.07167 17.0543C7.06687 17.0533 7.06179 17.0514 7.05702 17.0504C7.04949 17.049 7.04153 17.0487 7.03456 17.0475C7.04678 17.0496 7.05947 17.0517 7.07167 17.0543ZM21.3705 12.9811C21.9225 12.9736 22.3774 13.4154 22.3851 13.9674C22.3926 14.5193 21.9507 14.9731 21.3988 14.9811C20.2009 14.9979 19.0374 15.0139 16.0951 15.0397C13.1545 15.0655 8.57018 15.0998 6.06581 15.1061C3.56234 15.1124 3.13082 15.0916 2.69472 15.069C2.14322 15.0404 1.71892 14.5697 1.74745 14.0182C1.77619 13.4668 2.24679 13.0433 2.79823 13.0719C3.17768 13.0916 3.56469 13.1123 6.06093 13.1061C8.55847 13.0999 13.1371 13.0655 16.0775 13.0397C19.0155 13.0139 20.1755 12.9979 21.3705 12.9811ZM19.7211 8.84341C20.3015 8.87718 20.5688 8.89208 20.7387 8.9147L20.7396 8.91275C20.7445 8.91341 20.7522 8.9156 20.7621 8.91665C20.7639 8.9168 20.7662 8.91639 20.768 8.91665L20.767 8.91763C20.8158 8.92286 20.915 8.93273 21.0443 8.95767C21.5862 9.0625 21.9417 9.58656 21.8373 10.1286C21.7327 10.6707 21.2075 11.0259 20.6654 10.9215C20.6286 10.9144 20.6049 10.911 20.5883 10.9088C20.5788 10.9076 20.5686 10.9064 20.5551 10.9049C20.5438 10.9037 20.5214 10.9006 20.5004 10.8981L20.4857 10.8971L20.4721 10.8952C20.4721 10.8952 20.4685 10.8939 20.4623 10.8932C20.4555 10.8925 20.4449 10.8916 20.4301 10.8903C20.3983 10.8875 20.3522 10.884 20.2836 10.8795C20.15 10.8709 19.9539 10.8595 19.643 10.8415C19.3361 10.8413 18.8465 10.8571 16.8139 10.9001C14.7601 10.9434 11.2549 11.0114 9.40273 11.0456C7.5547 11.0797 7.35066 11.0807 7.14687 11.0807C6.59479 11.0807 6.1472 10.6327 6.14687 10.0807C6.14687 9.52843 6.59458 9.08072 7.14687 9.08072C7.32885 9.08072 7.51401 9.0807 9.36562 9.04654C11.2165 9.01239 14.7203 8.94336 16.7719 8.90005C18.8045 8.85714 19.3277 8.84058 19.6654 8.84146H19.6937L19.7211 8.84341ZM3.04042 4.96646C3.06007 4.96815 3.08577 4.97375 5.4496 5.00161C7.79643 5.02928 12.4216 5.0787 14.8353 5.10025C17.2444 5.12175 17.3016 5.11327 17.9105 5.10513C18.5313 5.09683 19.7088 5.08889 20.3705 5.08267C21.0331 5.07644 21.1537 5.07279 21.2748 5.069C21.8264 5.05198 22.2885 5.48516 22.306 6.03677C22.3233 6.58863 21.8891 7.05051 21.3373 7.06802C21.195 7.07247 21.0578 7.07638 20.3891 7.08267C19.7171 7.08898 18.5527 7.0969 17.9369 7.10513C17.3098 7.11352 17.2377 7.12185 14.8178 7.10025C12.4016 7.07868 7.77431 7.02929 5.42616 7.00161C3.11493 6.97437 2.98779 6.96808 2.87441 6.95865C2.32403 6.91278 1.91545 6.42992 1.96132 5.87954C2.00737 5.32936 2.49017 4.9206 3.04042 4.96646Z" fill="black"/>
</svg>
