<svg width="24" height="24" viewBox="0 0 24 24" fill="none" xmlns="http://www.w3.org/2000/svg">
<path d="M17.0725 5.87134C17.6157 5.77337 18.1362 6.1348 18.2346 6.67798C18.3327 7.22127 17.9712 7.74171 17.4279 7.84009C17.3306 7.85767 17.2417 7.86387 17.0363 7.87427C16.8126 7.88559 16.3963 7.90361 15.5988 7.93482C14.1015 7.99342 11.2336 8.0991 9.5256 8.16431C9.8927 8.58465 10.4821 9.24746 11.3733 10.1516C12.4851 11.2797 14.0419 12.7623 14.8889 13.5725C15.5691 14.2232 15.8664 14.4972 16.135 14.7239L16.4074 14.9475L16.4143 14.9534L16.4221 14.9592C16.6726 15.1683 16.8809 15.3377 17.0422 15.4641L17.3303 15.678L17.3567 15.6956L17.383 15.7141C17.5174 15.8103 17.6456 15.9254 17.7551 16.0247C18.1642 16.3956 18.1952 17.0286 17.8244 17.4377C17.4534 17.8466 16.8214 17.8769 16.4123 17.5061C16.2926 17.3976 16.2455 17.3591 16.219 17.3401V17.3391C15.9896 17.1865 15.6075 16.8831 15.1555 16.5061V16.5071C14.701 16.1424 14.4242 15.8961 13.5061 15.0178C12.669 14.2171 11.087 12.7101 9.94942 11.5559C9.28478 10.8816 8.77851 10.3345 8.40353 9.91724C8.42539 10.9227 8.45148 12.0976 8.45626 12.9114C8.46361 14.1634 8.42096 14.5596 8.38595 15.1213C8.3517 15.671 8.32338 16.4124 8.29415 17.1956C8.27353 17.7473 7.80975 18.1779 7.25802 18.1575C6.70625 18.1369 6.27573 17.6731 6.2961 17.1213C6.32498 16.3476 6.35369 15.5766 6.38985 14.9963C6.42524 14.4287 6.46315 14.0972 6.45626 12.9231C6.44916 11.7149 6.39675 9.73769 6.37814 8.64087C6.36905 8.10547 6.36723 7.77352 6.37521 7.56177C6.38176 7.38777 6.39357 7.12429 6.52657 6.86646L6.60665 6.73462C6.64647 6.67836 6.70106 6.61331 6.77267 6.55005C6.91106 6.42789 7.05444 6.36429 7.15548 6.33033C7.32029 6.27506 7.49523 6.25935 7.60177 6.25025C7.85799 6.22837 8.31728 6.20919 9.12814 6.17798C10.7834 6.11427 13.9227 5.99834 15.5207 5.93579C16.3192 5.90454 16.7251 5.88689 16.9358 5.87622C17.0426 5.87081 17.0895 5.86803 17.1086 5.86646C17.1065 5.8667 17.1033 5.86698 17.0998 5.86743C17.0871 5.8691 17.0754 5.87084 17.0725 5.87134Z" fill="black"/>
</svg>
