<svg width="24" height="24" viewBox="0 0 24 24" fill="none" xmlns="http://www.w3.org/2000/svg">
<path d="M12.1398 1.20799C12.3248 1.20206 12.6007 1.1978 12.8321 1.21971C13.1589 1.25063 13.7805 1.291 14.3126 1.36229C14.6477 1.40724 15.0602 1.52893 15.546 1.68163C16.3244 1.9263 16.8558 2.208 17.1124 2.35643C17.103 2.351 17.114 2.35664 17.2023 2.40038C17.2733 2.43558 17.3725 2.48522 17.4952 2.54784C17.7419 2.67375 18.0817 2.85292 18.5128 3.10155C19.5628 3.70718 20.1206 4.28964 20.3204 4.50292C20.5879 4.78844 20.7973 5.08341 20.9601 5.33104C21.2112 5.71304 21.464 6.32076 21.7091 6.94627C21.8505 7.30719 21.955 7.63818 22.0773 8.16307C22.1968 8.67662 22.3277 9.37671 22.4249 9.99608C22.5231 10.6216 22.5861 11.1592 22.6222 11.6113C22.6791 12.3258 22.6853 12.8731 22.6935 13.0088C22.7321 13.6446 22.663 14.4807 22.5646 15.1973C22.4804 15.8098 22.2212 16.3838 21.9464 16.9775C21.5678 17.7953 21.1193 18.361 20.7999 18.6982C20.4594 19.0577 20.1295 19.2962 19.8321 19.5098C19.3356 19.8663 18.9424 20.1715 18.7452 20.3408C18.3572 20.674 17.8314 20.9018 17.1817 21.1894C16.9392 21.2968 16.6241 21.4435 16.2901 21.5986C15.9623 21.7509 15.6169 21.9113 15.3321 22.0361C14.4788 22.4102 14.0971 22.5198 13.9005 22.582C13.4162 22.7352 12.7882 22.7529 12.1232 22.7558C11.638 22.7579 10.9889 22.7058 10.5304 22.6709C9.7017 22.6077 9.13538 22.5442 8.5128 22.4639C7.44279 22.3258 6.63478 22.0876 6.26183 21.9424C5.31389 21.5733 4.69595 20.9916 4.28136 20.5303C3.99624 20.213 3.73179 19.8127 3.26866 18.9941C2.79851 18.1631 2.10688 16.8416 1.74034 16.1299C1.29422 15.2636 1.19273 14.8755 1.0919 14.3486C1.03137 14.0323 1.02808 13.719 1.01964 13.374C1.00925 12.9497 1.00595 12.3521 1.18175 11.3066C1.35197 10.2944 1.69222 8.87096 1.92491 7.97948C2.16298 7.06745 2.29776 6.67977 2.50108 6.21678C2.68895 5.78903 2.92862 5.30933 3.13194 4.93651C3.4996 4.26238 3.88341 3.76619 4.21104 3.38085C4.78784 2.70251 5.70859 2.31268 5.87022 2.2246C6.08898 2.1051 6.35519 2.01526 6.78819 1.91112C7.23669 1.80326 7.92456 1.67253 8.72276 1.57616C9.46979 1.48597 11.2599 1.2688 11.7696 1.22655L11.7833 1.22557H11.7843L11.7862 1.2246C11.7877 1.2245 11.7898 1.22474 11.7921 1.2246C11.7973 1.22425 11.8055 1.22419 11.8146 1.22362C11.8328 1.22248 11.8584 1.22045 11.8898 1.21874C11.9527 1.21529 12.0404 1.21118 12.1398 1.20799ZM12.2042 3.20702C12.1234 3.20961 12.0509 3.21298 11.9991 3.21581C11.9736 3.21721 11.953 3.21887 11.9396 3.21971C11.9379 3.2198 11.9361 3.21962 11.9347 3.21971L11.3858 3.27538C10.6682 3.35497 9.54827 3.49085 8.963 3.56151C8.23407 3.64952 7.62249 3.76731 7.25597 3.85545C6.94053 3.93132 6.84416 3.97234 6.82921 3.97948C6.73492 4.03098 6.60597 4.09435 6.51671 4.13963C6.41317 4.19217 6.31131 4.24573 6.21104 4.30467C6.00431 4.42623 5.84303 4.54942 5.73546 4.67577C5.46405 4.99496 5.16963 5.37776 4.8878 5.89452C4.70807 6.22411 4.49407 6.65181 4.33214 7.02049C4.18571 7.3539 4.08177 7.63278 3.85948 8.48436C3.63162 9.35733 3.30988 10.7141 3.1544 11.6387C3.0046 12.5297 3.01157 12.9957 3.01964 13.3252C3.02963 13.7334 3.0343 13.8554 3.05675 13.9726C3.12155 14.3113 3.15904 14.5174 3.51768 15.2139C3.88316 15.9235 4.55954 17.2145 5.0089 18.0088C5.46512 18.8152 5.63994 19.0511 5.76866 19.1943C6.07302 19.533 6.44374 19.8663 6.98741 20.0781C7.19433 20.1587 7.84285 20.361 8.76866 20.4805C9.36307 20.5571 9.89397 20.6167 10.6817 20.6767C11.1746 20.7143 11.7289 20.7575 12.1144 20.7558C12.8407 20.7526 13.1537 20.7211 13.297 20.6758C13.4621 20.6235 13.7683 20.5378 14.5294 20.2041C14.7906 20.0896 15.1154 19.9393 15.4474 19.7851C15.7734 19.6337 16.1089 19.4769 16.3722 19.3603C17.1337 19.0232 17.3308 18.92 17.4425 18.8242C17.7023 18.6011 18.1473 18.2567 18.6651 17.8848C18.9589 17.6738 19.1502 17.5308 19.3478 17.3223C19.5433 17.1158 19.8578 16.7268 20.131 16.1367C20.4258 15.4998 20.5462 15.1931 20.5831 14.9248C20.675 14.2561 20.7232 13.5721 20.6964 13.1308C20.674 12.7632 20.6895 12.541 20.628 11.7705C20.5965 11.375 20.5406 10.8883 20.4493 10.3066C20.3571 9.71895 20.2354 9.06866 20.13 8.6162C20.0273 8.1753 19.9494 7.93781 19.8468 7.67577C19.5848 7.00701 19.4045 6.60512 19.2892 6.42967C19.1555 6.22634 19.0171 6.03724 18.8605 5.8701C18.7405 5.74204 18.3346 5.30793 17.5128 4.83397C17.1154 4.60479 16.8065 4.44162 16.586 4.32909C16.4752 4.27252 16.3854 4.22796 16.3136 4.19237C16.2593 4.16545 16.1726 4.12325 16.1114 4.08788C15.9498 3.99442 15.5536 3.78068 14.9464 3.58983C14.4307 3.42772 14.1828 3.36297 14.047 3.34471C13.5618 3.27972 13.0677 3.25106 12.6437 3.21092C12.5473 3.20181 12.3797 3.2014 12.2042 3.20702ZM11.089 6.99413C11.5188 6.64759 12.1486 6.71481 12.4952 7.14452C12.8429 7.57585 13.1834 7.99821 13.9054 8.78612C14.6377 9.58523 15.7471 10.742 16.3409 11.3603C16.4788 11.5039 16.6194 11.6495 16.7247 11.7744C16.8065 11.8714 17.0014 12.1034 17.0743 12.4209C17.1184 12.6132 17.1161 12.8263 17.047 13.039C16.9822 13.2383 16.8759 13.3838 16.7921 13.4775C16.649 13.6374 16.4641 13.7612 16.378 13.8203C15.8692 14.1697 15.0824 14.6554 14.3331 15.1914C13.6363 15.6899 13.1143 16.14 12.5284 16.6377C12.1076 16.995 11.4768 16.9441 11.1192 16.5234C10.7617 16.1026 10.8128 15.4709 11.2335 15.1133C11.8072 14.6259 12.3934 14.12 13.17 13.5644C13.4762 13.3454 13.8316 13.106 14.1661 12.8838C11.6992 13.1295 9.4552 13.3591 8.28136 13.4795C7.64048 13.5452 7.31817 13.5782 7.15636 13.5947C7.07631 13.6029 7.03424 13.6071 7.01183 13.6094C7.00192 13.6103 6.99179 13.6106 6.9835 13.6113C6.98095 13.6116 6.94009 13.6162 6.89073 13.6162C6.33857 13.6161 5.89085 13.1683 5.89073 12.6162C5.89094 12.0641 6.33862 11.6163 6.89073 11.6162H6.86143C6.8474 11.6166 6.83576 11.6177 6.82823 11.6181C6.81558 11.619 6.806 11.6201 6.80577 11.6201C6.80717 11.6199 6.80992 11.6196 6.81456 11.6191C6.8337 11.6172 6.8734 11.6127 6.95421 11.6045C7.11528 11.5881 7.43664 11.5559 8.07725 11.4902C9.12951 11.3823 11.0447 11.1867 13.2101 10.9697C12.9332 10.6758 12.6628 10.3909 12.4308 10.1377C11.6694 9.30685 11.3002 8.84893 10.9386 8.40038C10.5921 7.97054 10.6594 7.34081 11.089 6.99413Z" fill="black"/>
</svg>
