<svg width="24" height="24" viewBox="0 0 24 24" fill="none" xmlns="http://www.w3.org/2000/svg">
<path d="M6.87206 5.79785C7.42414 5.7981 7.87206 6.24572 7.87206 6.79785C7.87205 6.81133 7.87141 6.84579 7.85351 8.2666C7.83526 9.71438 7.79857 12.5998 7.78612 14.1289C7.78372 14.4242 7.78475 14.6641 7.78417 14.8594C7.84157 14.8052 8.08719 14.5723 9.16503 13.5322C10.5532 12.1927 13.2206 9.6186 14.6963 8.18066C16.1698 6.74487 16.4356 6.46066 16.6992 6.18066C17.0778 5.77856 17.7112 5.75913 18.1133 6.1377C18.5154 6.51627 18.5338 7.14965 18.1553 7.55176C17.8631 7.86205 17.5737 8.16928 16.0918 9.61328C14.6118 11.0554 11.9404 13.6326 10.5537 14.9707C10.2013 15.3107 9.93458 15.5666 9.73241 15.7617C9.8588 15.7657 10.0048 15.7731 10.1738 15.7783C11.3886 15.8156 13.794 15.8841 15.0498 15.9238C16.2099 15.9605 16.3826 15.9709 16.5049 15.9893C17.0321 15.9921 17.4707 16.4055 17.4971 16.9385C17.524 17.4899 17.0993 17.9591 16.5478 17.9863C16.4733 17.99 16.4063 17.988 16.3486 17.9834L16.2197 17.9678C16.2298 17.969 16.2346 17.9701 16.2305 17.9697C16.2184 17.9688 16.1836 17.9658 16.0996 17.9619C15.9342 17.9543 15.6156 17.9427 14.9873 17.9229C13.729 17.8831 11.3386 17.8149 10.1123 17.7773C8.91131 17.7405 8.83083 17.7362 8.69335 17.7246C8.36398 17.6969 7.99717 17.6623 7.66698 17.5996C7.36677 17.5426 6.94425 17.4365 6.60351 17.1787C6.3764 17.0068 5.97364 16.6638 5.83007 16.0449C5.79527 15.8947 5.7881 15.7604 5.78417 15.5332C5.78007 15.2955 5.77991 14.8777 5.78612 14.1133C5.79861 12.5788 5.83529 9.688 5.85351 8.24219C5.86261 7.51952 5.86685 7.15542 5.86913 6.97266C5.87025 6.88266 5.8708 6.83622 5.87109 6.8125L5.87206 6.79785C5.87206 6.24557 6.31978 5.79785 6.87206 5.79785Z" fill="black"/>
</svg>
