<svg width="24" height="24" viewBox="0 0 24 24" fill="none" xmlns="http://www.w3.org/2000/svg">
<path d="M9.81357 0.634185C10.3754 0.604839 11.4036 0.561501 12.212 0.674224C13.4049 0.84069 14.2113 0.976885 14.3673 1.00235C14.5928 1.03916 14.9525 1.08444 15.378 1.24649C15.6322 1.34328 16.0044 1.47394 16.3233 1.61172C16.6403 1.74865 17.0362 1.94463 17.3507 2.23672C17.6938 2.55551 18.0187 2.92675 18.2765 3.25821C18.5174 3.56813 18.7596 3.92015 18.8809 4.19766C18.9597 4.37772 19.2198 4.95049 19.3546 6.06485C19.4309 6.69638 19.4477 7.45952 19.3985 8.1127C19.3479 8.78518 19.2312 9.33006 19.0616 9.86465C18.9088 10.3462 18.7132 10.8717 18.5343 11.2123C18.2889 11.6794 17.892 12.5369 16.9483 13.3002C16.8329 13.3936 16.7187 13.4822 16.6046 13.5688C16.6524 13.8012 16.7319 14.2228 16.8741 15.1762L17.4815 18.5424C17.6794 19.6471 17.7695 20.2414 17.8673 20.7211C17.9503 21.1285 18.0194 21.4806 18.0528 21.7328C18.0677 21.8449 18.0866 22.0136 18.0743 22.1772C18.0695 22.2415 18.0524 22.4419 17.9347 22.6508C17.8675 22.7698 17.7448 22.9308 17.5372 23.0463C17.318 23.1682 17.0874 23.1931 16.8936 23.1654C16.7 23.1378 16.5281 23.0629 16.4268 23.017C16.3045 22.9615 16.1569 22.8863 15.9845 22.7943C15.6278 22.6042 15.1044 22.312 14.3917 21.8588C13.6869 21.4106 12.8231 20.8223 12.3722 20.5063C12.2851 20.4452 12.2135 20.3931 12.1544 20.351C12.1465 20.3551 12.1377 20.3591 12.129 20.3637C11.9582 20.4541 11.7123 20.5947 11.2423 20.8568C10.5243 21.2573 9.19436 21.9887 8.49911 22.3559C8.16152 22.5341 7.93288 22.6486 7.77841 22.7113C7.73387 22.7294 7.55932 22.803 7.35165 22.8129C7.23682 22.8183 6.95553 22.8131 6.68466 22.6088C6.38931 22.3858 6.31377 22.0864 6.29306 21.9525C6.2682 21.7916 6.28771 21.6425 6.28915 21.6293C6.29535 21.5728 6.30502 21.5126 6.31454 21.4555C6.33394 21.3391 6.36243 21.1897 6.39853 21.015C6.47132 20.6629 6.58088 20.173 6.72275 19.5668C6.88087 18.8911 7.17378 17.5142 7.38779 16.725C7.51683 16.2491 7.65561 15.6564 7.78134 15.1078C7.84809 14.8166 7.91356 14.527 7.97177 14.2807C7.96859 14.2794 7.96515 14.279 7.962 14.2777C7.346 14.0394 6.7422 13.7373 6.2706 13.1586C6.0483 12.8858 5.80049 12.5004 5.59384 12.142C5.38903 11.7867 5.18188 11.3827 5.0665 11.0658C4.9833 10.8372 4.77419 10.1771 4.62704 8.99454C4.54604 8.34332 4.50204 7.59415 4.50009 7.0834C4.49827 6.59543 4.52385 6.24761 4.61142 5.94961C4.63183 5.88019 4.64143 5.83005 4.67587 5.6879C4.70652 5.56144 4.7485 5.40431 4.81552 5.22012C4.95128 4.84722 5.16955 4.42336 5.55673 3.87344C5.9604 3.30016 6.42771 2.65117 6.98251 2.15567C7.38777 1.79379 7.68638 1.57257 7.89071 1.45547C8.15846 1.30214 8.48947 1.12064 8.79208 0.973052C8.94231 0.899792 9.09942 0.827475 9.24618 0.770903C9.36011 0.727005 9.5806 0.646415 9.81357 0.634185ZM14.754 14.5658C14.5528 14.6458 14.3176 14.7358 14.0684 14.8207C13.5822 14.9865 12.967 15.1619 12.3907 15.1986C11.3674 15.2638 10.7138 15.11 9.88388 14.8852C9.83923 15.0774 9.78796 15.3037 9.73056 15.5541C9.60583 16.0983 9.45937 16.7288 9.31845 17.2484C9.119 17.9839 8.85558 19.2213 8.67782 19.9848C9.24847 19.6732 9.85731 19.3396 10.2677 19.1107C10.706 18.8663 10.9972 18.7 11.1934 18.5961C11.4071 18.483 11.5867 18.4009 11.8136 18.3432L11.9278 18.3188C12.1191 18.2877 12.3061 18.2979 12.4444 18.3158L12.5841 18.3393L12.7325 18.3793C12.7833 18.3965 12.8358 18.4179 12.8897 18.4447C12.9766 18.488 13.0497 18.5369 13.0948 18.5678C13.169 18.6185 13.3311 18.7364 13.5196 18.8686C13.9542 19.1732 14.7925 19.7437 15.4649 20.1713C15.5705 20.2384 15.6724 20.3003 15.7686 20.3598C15.7 19.9633 15.6184 19.4846 15.5128 18.8949C15.3239 17.8404 15.049 16.3511 14.9044 15.518L14.9015 15.5063L14.9005 15.4945C14.8408 15.0942 14.7917 14.7937 14.754 14.5658ZM11.9356 2.65567C11.3675 2.57645 10.5665 2.59865 9.99032 2.62735C9.98335 2.62989 9.97521 2.63353 9.96591 2.63711C9.89378 2.66492 9.79241 2.70928 9.66806 2.76993C9.42116 2.89035 9.13342 3.04848 8.88486 3.19083C8.88387 3.19133 8.87967 3.19352 8.87314 3.19766C8.86552 3.20249 8.85445 3.2099 8.84091 3.21915C8.81307 3.23817 8.7744 3.26592 8.72568 3.30313C8.62736 3.37826 8.49111 3.48922 8.31454 3.64688C7.95597 3.96715 7.61113 4.43024 7.19247 5.02481C6.88103 5.46717 6.75618 5.73503 6.69443 5.90469C6.66298 5.9912 6.64195 6.06891 6.62021 6.1586C6.60218 6.23301 6.56888 6.38311 6.53036 6.51407C6.52751 6.52405 6.49842 6.63446 6.50009 7.07657C6.50174 7.50541 6.54105 8.1739 6.61239 8.74747C6.74226 9.79117 6.91793 10.3041 6.94638 10.3822C7.00246 10.5361 7.14099 10.8216 7.32626 11.143C7.50978 11.4613 7.69664 11.7418 7.82138 11.8949C7.96316 12.0688 8.17564 12.216 8.68368 12.4125C9.06987 12.5619 9.78642 12.775 10.3429 12.9389L10.879 13.0785C11.3642 13.1941 11.7264 13.2367 12.2638 13.2025C12.5709 13.183 12.9847 13.0775 13.4229 12.9281C13.8482 12.7832 14.2267 12.6221 14.4708 12.5209C14.925 12.3325 15.2271 12.1203 15.6905 11.7455C16.2668 11.2795 16.4948 10.7936 16.7638 10.2816C16.8587 10.1009 17.0113 9.71117 17.1544 9.26016C17.2807 8.86194 17.3662 8.46909 17.4044 7.96231C17.444 7.43608 17.4295 6.804 17.3692 6.30508C17.2655 5.44795 17.0803 5.0702 17.0489 4.99844C17.0476 4.99581 17.0409 4.98265 17.0265 4.95743C17.0088 4.92658 16.9834 4.88626 16.9513 4.83731C16.8867 4.73891 16.801 4.61786 16.6983 4.48575C16.4906 4.2186 16.2367 3.93132 15.9893 3.70157C15.9339 3.65016 15.798 3.5633 15.5304 3.44766C15.2642 3.33267 14.9965 3.24146 14.6661 3.11563C14.4691 3.04062 14.3301 3.02251 14.045 2.97598C13.8878 2.95031 13.1025 2.8185 11.9356 2.65567Z" fill="black"/>
</svg>
