<svg width="24" height="24" viewBox="0 0 24 24" fill="none" xmlns="http://www.w3.org/2000/svg">
<path d="M17.0262 5.62918C17.5785 5.62918 18.0262 6.07689 18.0262 6.62918C18.0262 6.79787 18.0256 6.96406 17.9959 8.12527C17.9662 9.28707 17.9075 11.4574 17.8631 12.6604C17.8161 13.9323 17.7923 13.9965 17.7859 14.4368C17.7795 14.8796 17.7944 15.5215 17.7937 16.0716V16.094C17.777 16.8236 17.7438 17.2328 17.7107 17.4622L17.7117 17.4632C17.7109 17.4695 17.7112 17.4738 17.7078 17.5188C17.7045 17.5622 17.6991 17.6206 17.6902 17.7054C17.6327 18.2546 17.1409 18.6534 16.5916 18.596C16.0426 18.5383 15.6445 18.0464 15.7019 17.4973C15.7081 17.4389 15.7102 17.4014 15.7127 17.3684C15.715 17.3373 15.719 17.2835 15.7264 17.2229L15.7283 17.2044L15.7312 17.1868C15.7439 17.1067 15.7763 16.8103 15.7937 16.0696C15.7942 15.6223 15.7797 14.8428 15.7859 14.4075C15.7923 13.9699 15.8226 13.7081 15.8641 12.5872C15.908 11.3969 15.9671 9.23673 15.9969 8.07449C16.0266 6.91223 16.0262 6.76934 16.0262 6.62918C16.0262 6.077 16.474 5.62934 17.0262 5.62918ZM20.3299 5.40359C20.8801 5.3572 21.3634 5.76557 21.41 6.3157C21.4256 6.50173 21.4414 6.68599 21.5232 8.15945C21.6052 9.63549 21.754 12.4166 21.823 13.8977C21.8844 15.2145 21.8804 15.4835 21.865 15.6507L21.866 15.6516C21.8492 15.9075 21.8382 16.0161 21.8269 16.303L21.826 16.3098C21.8139 16.571 21.7899 17.0432 21.7654 17.5247C21.7374 18.0762 21.268 18.5008 20.7166 18.4729C20.1651 18.4448 19.7403 17.9746 19.7684 17.4231C19.793 16.9391 19.8161 16.4733 19.8279 16.218C19.8405 15.9007 19.8573 15.7285 19.8709 15.5208L19.8719 15.4973L19.8748 15.4749C19.8755 15.4689 19.8757 15.4672 19.8758 15.4671C19.8764 15.4505 19.8774 15.4059 19.8758 15.3069C19.8725 15.1063 19.8593 14.7267 19.825 13.9905C19.7564 12.519 19.6081 9.74533 19.5262 8.2698C19.4441 6.79248 19.4307 6.63663 19.4178 6.48367C19.3716 5.93355 19.7797 5.45006 20.3299 5.40359ZM13.6941 5.91629C14.2461 5.91654 14.694 6.36425 14.6941 6.91629C14.6941 7.10645 14.6938 7.29853 14.7098 8.49344C14.7256 9.68372 14.7575 11.8881 14.7371 13.4417C14.7165 15.0106 14.6413 15.858 14.5955 16.3401C14.5478 16.8428 14.5416 16.8616 14.5369 16.9583C14.5322 17.0563 14.532 17.2051 14.532 17.388C14.532 17.9403 14.0843 18.388 13.532 18.388C12.9799 18.3877 12.532 17.9401 12.532 17.388C12.532 17.2239 12.5313 17.0196 12.5389 16.8626C12.5432 16.7723 12.5508 16.6999 12.5603 16.6038C12.5699 16.5078 12.5828 16.3783 12.6043 16.1516C12.646 15.7128 12.7173 14.9203 12.7371 13.4153C12.7571 11.8944 12.7258 9.72134 12.7098 8.5198C12.6938 7.32309 12.6941 7.12033 12.6941 6.91629C12.6942 6.36423 13.1421 5.91651 13.6941 5.91629ZM2.96074 6.51004C3.51239 6.48847 3.977 6.91831 3.99882 7.47C4.00726 7.68363 4.01425 7.85565 4.02421 7.96414C4.03998 8.1357 4.05858 8.23298 4.10136 9.72C4.14405 11.2039 4.21104 14.094 4.28007 17.0657C4.29282 17.6178 3.85559 18.0753 3.30351 18.0882C2.7515 18.1008 2.29387 17.6636 2.28105 17.1116C2.21194 14.1366 2.14482 11.2543 2.10234 9.77762C2.05997 8.30489 2.04308 8.2565 2.033 8.14676C2.01713 7.97389 2.00834 7.73982 2.00078 7.54812C1.97924 6.99647 2.40903 6.53182 2.96074 6.51004ZM6.69804 6.2698C7.25032 6.26981 7.69804 6.71752 7.69804 7.2698V7.27176C7.6986 7.29552 7.6997 7.34289 7.70195 7.4368C7.70646 7.62491 7.71615 8.00017 7.73417 8.74832C7.77024 10.245 7.8425 13.237 7.87773 14.805C7.89532 15.5877 7.90329 15.9978 7.90605 16.219C7.90856 16.4209 7.90762 16.5119 7.89628 16.6116C7.88782 16.686 7.88475 16.6998 7.8787 16.7845C7.83938 17.3352 7.36104 17.7503 6.81035 17.7112C6.25947 17.6719 5.84429 17.1927 5.88359 16.6419C5.89191 16.5254 5.902 16.446 5.90703 16.4055C5.90723 16.3802 5.90715 16.3322 5.90605 16.2434C5.90343 16.0337 5.89534 15.6338 5.87773 14.8499C5.84254 13.2838 5.77025 10.2936 5.73417 8.79617C5.6985 7.31575 5.69804 7.28849 5.69804 7.2698C5.69804 6.71752 6.14576 6.2698 6.69804 6.2698Z" fill="black"/>
</svg>
