<svg width="24" height="24" viewBox="0 0 24 24" fill="none" xmlns="http://www.w3.org/2000/svg">
<path d="M7.76489 13.4655C8.4392 13.4712 9.24624 13.5311 9.91431 13.6286C10.5929 13.7276 11.1126 13.8619 11.5149 13.9899C11.9159 14.1175 12.2013 14.2378 12.4387 14.3571C12.6783 14.4775 12.8698 14.5965 13.0754 14.7565C13.2763 14.9129 13.4853 15.1043 13.718 15.3795C13.9413 15.6436 14.1787 15.974 14.3958 16.3297C14.6106 16.6818 14.8096 17.0647 14.9465 17.3883C15.0927 17.7339 15.1622 17.9972 15.218 18.2702C15.2726 18.537 15.3184 18.8312 15.343 19.2448C15.3659 19.6296 15.376 20.1202 15.3694 20.4069C15.3671 20.5079 15.366 20.7081 15.344 20.861C15.3315 20.9475 15.3015 21.1136 15.2053 21.2887C15.0916 21.4956 14.9083 21.6737 14.6633 21.776C14.4541 21.8633 14.2329 21.8636 14.2073 21.8649C14.1015 21.8704 13.9122 21.8784 13.5725 21.8913C12.877 21.9175 11.5531 21.9666 9.57544 21.9538C7.60477 21.941 5.06364 21.8684 3.7522 21.8239C3.07605 21.8009 2.64924 21.7608 2.37134 21.7194C2.1281 21.6831 1.85958 21.6118 1.98853 21.6393C1.97088 21.6355 1.9532 21.6304 1.93579 21.6256C1.90307 21.6166 1.87115 21.6054 1.84009 21.5934C1.8275 21.5886 1.81438 21.5841 1.802 21.5788C1.78251 21.5703 1.76313 21.561 1.74438 21.5514C1.73503 21.5466 1.72527 21.5419 1.71606 21.5368C1.69537 21.5253 1.6752 21.5125 1.65552 21.4997C1.64873 21.4952 1.6417 21.4906 1.63501 21.486C1.61551 21.4726 1.59677 21.4577 1.57837 21.443C1.57173 21.4378 1.56436 21.4329 1.55786 21.4274C1.54703 21.4182 1.53704 21.4077 1.52661 21.3981C1.44213 21.3206 1.36738 21.2286 1.31177 21.1208C1.3296 21.1553 1.34844 21.182 1.31372 21.1286C1.29367 21.0977 1.25193 21.0331 1.21118 20.9577C1.14525 20.8356 0.976066 20.4996 1.05005 20.0758L1.052 20.0631L1.05493 20.0495C1.13829 19.6371 1.20912 19.3399 1.29517 18.9762C1.35963 18.6857 1.48667 18.0728 1.56567 17.7487C1.65546 17.3803 1.69172 17.2124 1.79614 16.8874C1.87033 16.6564 2.00666 16.2518 2.1272 15.9577C2.24326 15.6745 2.36846 15.4047 2.60181 15.1403C2.89048 14.8131 3.29438 14.4459 3.67505 14.2526C3.82824 14.1748 4.21883 14.0054 4.88013 13.8239C5.24468 13.7239 5.6319 13.6442 6.08618 13.5788C6.54475 13.5127 7.07434 13.4597 7.76489 13.4655ZM7.74731 15.4655C7.17604 15.4607 6.74885 15.5038 6.37036 15.5583C5.98772 15.6134 5.68365 15.6774 5.40942 15.7526C5.13347 15.8283 4.9286 15.8979 4.79028 15.9499C4.72135 15.9758 4.66895 15.9968 4.63306 16.0124C4.59742 16.0278 4.58034 16.0368 4.58032 16.0368C4.57886 16.0376 4.57393 16.0405 4.56567 16.0456C4.55531 16.0519 4.54078 16.0609 4.52368 16.0729C4.48889 16.0974 4.44592 16.1306 4.39771 16.1715C4.30001 16.2545 4.19483 16.357 4.10083 16.4635C4.09385 16.4714 4.08739 16.4802 4.07349 16.5055C4.05447 16.5402 4.02599 16.5988 3.97778 16.7165C3.88731 16.9373 3.76903 17.2821 3.69946 17.4987C3.62212 17.7395 3.60568 17.8258 3.50903 18.2223C3.43326 18.5332 3.32396 19.0675 3.24438 19.4245L3.24146 19.4372C3.2114 19.5642 3.18439 19.6793 3.15845 19.7907C3.3327 19.8033 3.55017 19.8157 3.81958 19.8249C5.12457 19.8691 7.64551 19.9411 9.58911 19.9538C11.4074 19.9656 12.6566 19.9226 13.3665 19.8961C13.3626 19.7198 13.3568 19.5301 13.3469 19.3639C13.3285 19.0546 13.2966 18.8545 13.259 18.6706C13.2228 18.4932 13.1872 18.3626 13.1047 18.1676C13.0127 17.9502 12.861 17.6556 12.6877 17.3717C12.5168 17.0916 12.3391 16.8461 12.1907 16.6706C12.0518 16.5064 11.9441 16.4102 11.8469 16.3346C11.7547 16.2628 11.6752 16.212 11.5403 16.1442C11.4031 16.0753 11.2159 15.994 10.9084 15.8961C10.6017 15.7986 10.1881 15.6902 9.62524 15.6081C9.05152 15.5244 8.33515 15.4704 7.74731 15.4655ZM19.4651 6.23013C19.7586 6.22617 20.1465 6.23964 20.3694 6.25357C20.5133 6.26257 20.6654 6.27143 20.8303 6.31607L21.0002 6.37466L21.137 6.44009C21.2651 6.5099 21.3677 6.59024 21.4446 6.65884C21.5492 6.75223 21.633 6.84828 21.6936 6.92349C21.7321 6.97127 21.7651 7.01909 21.7922 7.0563C21.9764 7.20425 22.114 7.36917 22.1956 7.47134C22.2803 7.57746 22.3235 7.63607 22.3547 7.67838L22.4417 7.78873L22.4573 7.8063C22.5836 7.95659 22.7777 8.19719 22.8997 8.35904C23.0478 8.55566 23.1186 8.67651 23.2024 8.85904C23.2617 8.9883 23.3428 9.17817 23.4026 9.34537C23.472 9.53957 23.5096 9.69441 23.5442 9.89127C23.5761 10.0731 23.6103 10.3149 23.6252 10.5954C23.6397 10.8676 23.6361 11.1601 23.6233 11.3756C23.6108 11.5847 23.5905 11.7634 23.5442 11.946C23.4879 12.1677 23.409 12.4293 23.2424 12.7536C23.1492 12.935 23.0179 13.1667 22.8147 13.4489C22.6366 13.6961 22.3846 14.0204 22.1965 14.2194C22.0899 14.3321 21.9735 14.4468 21.8293 14.5534C21.6828 14.6616 21.5392 14.7384 21.3997 14.8053C21.2265 14.8884 20.9237 15.0283 20.6731 15.1217C20.3969 15.2247 20.1956 15.2684 20.0364 15.2965C19.8716 15.3256 19.7342 15.3408 19.5178 15.3454C19.3074 15.3498 19.0154 15.3444 18.5999 15.2868C18.2058 15.2321 17.716 15.1331 17.4348 15.07C17.1413 15.0041 16.9742 14.9563 16.7678 14.8532C16.6682 14.8034 16.4552 14.6977 16.2512 14.5309C16.043 14.3607 15.7749 14.1312 15.6067 13.8786C15.4778 13.685 15.3178 13.4012 15.1711 12.9372C15.0864 12.6688 14.9904 12.303 14.9319 11.861C14.8754 11.4337 14.8572 10.9653 14.8557 10.6862C14.854 10.3566 14.8764 10.1837 14.9465 9.92349C14.9994 9.72744 15.0846 9.4487 15.2317 9.10123C15.3645 8.78753 15.5515 8.3907 15.6936 8.14517C15.9013 7.78648 16.1214 7.53107 16.4875 7.25455C16.6704 7.11648 16.9029 6.96231 17.1223 6.84146C17.3636 6.70858 17.5745 6.62356 17.8372 6.5397C18.0804 6.46205 18.3851 6.37951 18.6321 6.32486C18.9128 6.26276 19.1332 6.23463 19.4651 6.23013ZM21.5051 9.98306C21.0056 10.6338 20.1654 11.7303 19.6292 12.4118C19.2577 12.8838 19.0381 13.1465 18.8987 13.3092C19.1802 13.3469 19.3582 13.3478 19.4758 13.3454C19.5902 13.343 19.6254 13.338 19.6887 13.3268C19.7298 13.3195 19.7654 13.312 19.8059 13.3014C19.8468 13.2907 19.9012 13.2748 19.9739 13.2477C20.137 13.1869 20.3744 13.0794 20.5344 13.0026C20.6172 12.9629 20.6365 12.9482 20.6409 12.945C20.6472 12.9403 20.6709 12.9221 20.7434 12.8454C20.8397 12.7435 21.0301 12.5042 21.1917 12.2799C21.3279 12.0909 21.4092 11.9474 21.4641 11.8405C21.5392 11.6943 21.5719 11.5868 21.6057 11.4538C21.6076 11.4462 21.6181 11.4088 21.6272 11.2565C21.636 11.1084 21.6383 10.8918 21.6282 10.7018C21.6185 10.5202 21.5961 10.3602 21.5745 10.237C21.5555 10.1292 21.5442 10.0865 21.5198 10.0182C21.5157 10.0068 21.5098 9.99542 21.5051 9.98306ZM10.2346 2.64615C10.5313 2.67328 10.7824 2.78487 10.9534 2.87759C11.1336 2.97536 11.2936 3.09019 11.4182 3.18912C11.5453 3.29 11.6536 3.38817 11.7297 3.45963C11.7669 3.49452 11.7979 3.52561 11.8176 3.54459H11.8186L11.8508 3.57388C12.0547 3.7648 12.3237 4.07815 12.5442 4.36685C12.658 4.51589 12.7731 4.67698 12.8694 4.83072C12.9287 4.92544 13.015 5.07009 13.0803 5.23404L13.137 5.40298L13.1985 5.65494C13.2586 5.92619 13.3097 6.25972 13.3127 6.68619C13.315 7.0129 13.3037 7.48395 13.2639 7.94107C13.224 8.39901 13.1577 8.82625 13.092 9.1442C13.0202 9.49213 12.943 9.737 12.7874 10.0602C12.6512 10.3429 12.4461 10.7063 12.1995 11.0348C11.9674 11.3438 11.7046 11.6279 11.4905 11.8083C11.2328 12.0252 10.987 12.1825 10.6897 12.3063C10.4165 12.4199 10.0123 12.5116 9.40161 12.5456C9.0412 12.5656 8.60041 12.5651 8.16138 12.5397C7.7316 12.5148 7.30572 12.4704 7.01392 12.4274C6.6008 12.3665 6.25236 12.3017 5.80981 12.0827C5.54389 11.9511 5.31721 11.8358 5.14771 11.7458C5.06393 11.7012 4.98679 11.6589 4.9231 11.6217C4.89624 11.6061 4.76665 11.5325 4.6604 11.4352C4.43035 11.2244 3.92764 10.6849 3.67017 10.1139C3.57268 9.89771 3.42461 9.54371 3.34204 9.11783C3.2742 8.76765 3.24942 8.19836 3.27954 7.50259C3.29049 7.24978 3.29934 6.88956 3.36938 6.6022C3.43602 6.32893 3.51843 6.03202 3.61646 5.76041C3.70563 5.51334 3.84214 5.18708 4.05493 4.92935C4.38705 4.52722 4.73037 4.19965 4.97192 4.02115C5.17281 3.87272 5.58951 3.52522 6.3186 3.25162C6.81259 3.06627 7.14266 2.9478 7.39575 2.88345C7.73107 2.79827 8.29042 2.67643 8.8645 2.6608C9.11049 2.65409 9.84078 2.61021 10.2346 2.64615ZM19.4924 8.23013C19.2999 8.23274 19.2154 8.24464 19.0647 8.27798C18.8801 8.31883 18.634 8.38484 18.4456 8.44498C18.2766 8.4989 18.1904 8.53656 18.0872 8.59341C17.962 8.66235 17.8104 8.76306 17.6936 8.85123C17.5381 8.96864 17.4964 9.02221 17.4241 9.14713C17.3417 9.28956 17.1922 9.60013 17.0735 9.88052C16.969 10.1272 16.9114 10.317 16.8772 10.444C16.8606 10.5056 16.8598 10.5151 16.8596 10.5172C16.8583 10.5281 16.8551 10.5637 16.8557 10.6754C16.8569 10.9036 16.8725 11.282 16.9143 11.5983C16.9541 11.8993 17.0199 12.1494 17.0784 12.3346C17.081 12.3429 17.0836 12.3511 17.0862 12.359C17.1168 12.3195 17.154 12.2725 17.2024 12.2145L17.2112 12.2038L17.2209 12.193C17.3143 12.0875 17.4918 11.8938 18.0579 11.1745C18.6332 10.4433 19.5696 9.21987 20.0461 8.59927C20.1267 8.49432 20.194 8.40674 20.2502 8.33365C20.2332 8.3107 20.2165 8.28742 20.2063 8.2731C20.1994 8.26351 20.1927 8.25493 20.1868 8.24673C19.9951 8.23637 19.7011 8.22733 19.4924 8.23013ZM10.0012 4.63638C9.75139 4.62271 9.31026 4.64917 8.91821 4.65982C8.56355 4.66952 8.17235 4.74994 7.88892 4.82193C7.7615 4.85433 7.53559 4.93052 7.02075 5.12369C6.59574 5.2832 6.39798 5.454 6.1604 5.62955C6.08508 5.68525 5.85743 5.88736 5.59692 6.20279C5.61356 6.18265 5.60556 6.1871 5.58032 6.23795C5.55713 6.28468 5.52902 6.35128 5.49731 6.43912C5.43342 6.61616 5.37107 6.83665 5.31274 7.07584C5.31253 7.07676 5.31005 7.08752 5.30688 7.11099C5.30345 7.13651 5.30066 7.17106 5.29712 7.21744C5.2897 7.31471 5.28447 7.42973 5.27759 7.58853C5.24971 8.23226 5.28278 8.61715 5.30591 8.73697C5.34481 8.93761 5.4192 9.12704 5.49341 9.29166C5.53299 9.37943 5.61819 9.51114 5.73657 9.65884C5.82124 9.76446 5.90371 9.85283 5.96118 9.9108C5.99174 9.928 6.0331 9.95094 6.08618 9.97916C6.23156 10.0564 6.43903 10.1623 6.69653 10.2897C6.85891 10.3701 6.96376 10.3984 7.30591 10.4489C7.53073 10.482 7.8968 10.5207 8.27661 10.5426C8.64738 10.5641 9.01291 10.5639 9.29126 10.5485C9.74277 10.5234 9.91044 10.4635 9.92114 10.4596C10.0026 10.4257 10.0761 10.3853 10.2024 10.279C10.2741 10.2185 10.4361 10.054 10.6008 9.83463C10.7511 9.6345 10.891 9.38841 10.9856 9.19205C11.0605 9.03653 11.0896 8.9505 11.1331 8.7399C11.1828 8.49885 11.2385 8.14847 11.2717 7.76724C11.305 7.38529 11.3147 6.97851 11.3127 6.69986C11.3105 6.38066 11.2667 6.16298 11.2151 5.96158C11.2064 5.94563 11.193 5.92247 11.1741 5.89224C11.121 5.80755 11.0454 5.69968 10.9553 5.5817C10.7675 5.33579 10.5739 5.11835 10.4836 5.03384V5.03287C10.4749 5.02486 10.4681 5.02018 10.467 5.0192C10.4549 5.0078 10.4414 4.99511 10.4319 4.98599C10.4104 4.96526 10.3882 4.94358 10.3616 4.91861C10.308 4.86834 10.2437 4.81003 10.175 4.75552C10.1047 4.69965 10.0446 4.66007 10.0012 4.63638Z" fill="black"/>
</svg>
