<svg width="24" height="24" viewBox="0 0 24 24" fill="none" xmlns="http://www.w3.org/2000/svg">
<path d="M19.8092 6.16865C20.2679 5.86166 20.8895 5.98456 21.1969 6.44307C21.504 6.90181 21.381 7.52336 20.9224 7.83076C20.7704 7.93258 20.6637 7.98056 19.3551 9.21455C18.048 10.4471 15.6796 12.7287 14.2056 14.2976C13.4757 15.0746 12.9697 15.6705 12.6041 16.1169C12.2672 16.5283 11.978 16.9049 11.7769 17.1228C11.6732 17.2351 11.5088 17.4026 11.2877 17.5222C11.0172 17.6684 10.7152 17.7173 10.4088 17.6579C10.1589 17.6094 9.95195 17.496 9.82478 17.4216C9.69023 17.3428 9.53139 17.2373 9.38435 17.1413C8.74956 16.727 7.55206 15.9694 6.4283 15.0925C5.30137 14.2131 4.28615 13.2478 3.31111 12.322C2.91111 11.9417 2.89414 11.3093 3.274 10.9089C3.65418 10.5088 4.28762 10.492 4.68806 10.8718C5.67412 11.8081 6.62069 12.7062 7.65877 13.5163C8.6999 14.3287 9.8125 15.0321 10.4781 15.4665C10.496 15.4782 10.5135 15.489 10.5299 15.4997C10.6524 15.3476 10.816 15.1436 11.0562 14.8503C11.4461 14.3742 11.983 13.7434 12.7486 12.9284C14.2667 11.3125 16.6719 8.99577 17.983 7.75947C19.2924 6.52479 19.5051 6.37233 19.8092 6.16865Z" fill="black"/>
</svg>
