<svg width="24" height="24" viewBox="0 0 24 24" fill="none" xmlns="http://www.w3.org/2000/svg">
<path d="M13.8055 5.24428C14.1137 4.7866 14.7351 4.66516 15.1932 4.9728C15.6514 5.28102 15.7728 5.90322 15.4647 6.36147C15.4208 6.4266 15.3648 6.49118 15.2733 6.59975C15.1551 6.73982 14.9253 7.01165 14.4734 7.54311C13.5676 8.60861 11.7731 10.7155 10.8133 11.8615C10.3545 12.4093 10.1103 12.7263 9.98126 12.9123C10.0019 12.9471 10.0305 12.9902 10.0672 13.0431C10.3007 13.3791 10.6283 13.6881 11.3162 14.2199C11.767 14.5683 12.7847 15.2917 13.494 15.8654C14.2487 16.4759 14.7828 16.9951 15.0652 17.2648C15.2067 17.3999 15.2729 17.4613 15.3065 17.4904L15.3074 17.4914C15.7593 17.7839 15.8996 18.3842 15.619 18.8478C15.3329 19.3201 14.7183 19.4716 14.2459 19.1857C14.0753 19.0823 13.9473 18.9631 13.6834 18.7111C13.3978 18.4383 12.9188 17.9723 12.2361 17.4201C11.5074 16.8306 10.6998 16.2712 10.0926 15.8019C9.38059 15.2515 8.84359 14.7875 8.42462 14.1847C8.21352 13.8808 7.94138 13.4328 7.9295 12.8654C7.92201 12.4985 8.0537 12.2057 8.25275 11.8986C8.4374 11.6137 8.75301 11.2066 9.28009 10.5773C10.2462 9.42385 12.0479 7.30831 12.95 6.24721C13.402 5.71558 13.6288 5.44725 13.744 5.31069C13.8023 5.24145 13.8291 5.20957 13.8406 5.19546C13.8466 5.18813 13.8435 5.19253 13.8367 5.20132C13.8324 5.20691 13.8265 5.21547 13.8192 5.22573C13.8127 5.23482 13.8068 5.24236 13.8055 5.24428ZM15.2967 17.4845C15.2946 17.4831 15.292 17.481 15.2899 17.4796L15.282 17.4748C15.287 17.4777 15.2919 17.4815 15.2967 17.4845Z" fill="black"/>
</svg>
