<svg width="24" height="24" viewBox="0 0 24 24" fill="none" xmlns="http://www.w3.org/2000/svg">
<path d="M11.0479 1.78621C11.8891 1.79763 12.6102 1.91769 12.8281 1.96004C13.3464 2.06078 14.4369 2.24817 15.1191 2.42C16.4405 2.75281 17.224 2.99931 17.9844 3.50301C18.3356 3.73571 18.6471 4.05815 18.9043 4.35847C19.1681 4.66647 19.4211 5.00771 19.6436 5.31062C19.7806 5.49723 19.9191 5.71031 20.0537 5.91707C20.1935 6.13185 20.3465 6.36537 20.5342 6.62996C20.9704 7.2452 21.2654 8.23863 21.5703 9.52449C21.9764 11.2374 21.9197 12.417 21.9229 12.6397C21.9305 13.1743 21.9405 13.985 21.8818 14.71C21.7829 15.9311 21.3607 16.8768 20.9805 17.8096C20.4153 19.1962 20.1091 19.7585 19.5469 20.5831C19.0141 21.3644 18.1951 21.8517 17.3984 22.2579C16.7386 22.5942 15.917 22.6922 14.5449 22.7852C13.431 22.8608 11.5954 22.8608 10.5098 22.8565C8.97903 22.8504 8.26044 22.6747 7.71289 22.5098C6.75932 22.2227 5.6462 21.6031 4.89453 21.0694C4.40334 20.7206 3.79442 20.1977 3.2373 19.5177C2.78649 18.9672 2.64225 18.3619 2.46973 17.9005C2.23119 17.2627 2.22181 16.7189 2.19434 16.2471C2.16855 15.8043 2.13446 14.2346 2.21777 12.627C2.24184 12.1629 2.367 11.4612 2.58301 10.4122C2.86163 9.05914 3.26847 7.99956 3.69141 7.19344C4.16774 6.28563 4.54787 5.73962 4.91113 5.33015C5.08996 5.12859 5.25384 4.97207 5.39551 4.83992C5.54172 4.70354 5.64974 4.60566 5.7666 4.48347C6.58324 3.62965 7.80621 2.66499 8.28125 2.37605L8.44434 2.28328C9.27417 1.84567 10.301 1.77608 11.0479 1.78621ZM11.0205 3.78621C10.2888 3.77629 9.66532 3.87471 9.32129 4.08406L9.32031 4.08504C9.01832 4.26879 7.92913 5.11638 7.21191 5.86629C7.04537 6.0404 6.88405 6.1859 6.75977 6.30183C6.63102 6.42193 6.5224 6.5275 6.40723 6.6573C6.18205 6.91113 5.88889 7.31031 5.46289 8.12215C5.13024 8.75616 4.78442 9.63824 4.54199 10.8155C4.3192 11.8974 4.22962 12.4456 4.21484 12.7305C4.13518 14.2676 4.17003 15.764 4.19141 16.1309C4.22335 16.6794 4.23048 16.8989 4.34277 17.1993C4.63081 17.9695 4.61166 18.0383 4.78516 18.2501C5.21392 18.7735 5.68504 19.1781 6.05176 19.4386C6.69256 19.8935 7.60984 20.39 8.29004 20.5948C8.65161 20.7036 9.17883 20.8512 10.5186 20.8565C11.6226 20.8609 13.3809 20.8589 14.4092 20.7891C15.8623 20.6906 16.2579 20.5951 16.4902 20.4766C17.2568 20.0858 17.6686 19.7883 17.8945 19.4571C18.3605 18.7736 18.6043 18.3419 19.1289 17.0548C19.5393 16.048 19.8185 15.4029 19.8877 14.5489C19.9376 13.9322 19.9316 13.2126 19.9238 12.669C19.9201 12.4075 19.9711 11.4503 19.624 9.9864C19.3033 8.63368 19.0765 8.03289 18.9023 7.78719C18.6901 7.48796 18.5188 7.22579 18.377 7.00789C18.2302 6.78246 18.128 6.6247 18.0322 6.49422C17.8091 6.19035 17.5954 5.90404 17.3857 5.65926C17.1695 5.40682 17.0002 5.24973 16.8799 5.17C16.4294 4.87162 15.9429 4.68993 14.6309 4.35945C14.0189 4.20532 13.054 4.04105 12.4463 3.92293C12.3042 3.89534 11.7072 3.79552 11.0205 3.78621ZM15.0996 8.22273C15.5272 7.87326 16.1573 7.93682 16.5068 8.36433C16.8561 8.79189 16.7927 9.42207 16.3652 9.77156C16.3211 9.80763 16.2734 9.84546 15.1191 10.8634C14.6013 11.32 13.8671 11.9685 13.0908 12.6602C13.6076 13.0828 14.0571 13.4384 14.4404 13.7325L15.5098 14.5343L15.5146 14.5372C16.1376 15.0029 16.276 15.1012 16.3486 15.1456C16.3735 15.1579 16.4063 15.1737 16.4668 15.2003C16.9723 15.4227 17.2019 16.0131 16.9795 16.5186C16.7569 17.0237 16.1674 17.2534 15.6621 17.0313C15.5981 17.0031 15.4918 16.9574 15.3838 16.8995L15.3672 16.8907L15.3516 16.8809C15.157 16.7671 14.9223 16.592 14.3213 16.1427L13.2227 15.3194C12.7678 14.9704 12.2197 14.538 11.583 14.0118C11.1433 14.4096 10.7275 14.7904 10.3691 15.1241C9.01461 16.3854 8.57263 16.9026 8.04688 17.5343C7.6936 17.9583 7.06304 18.0161 6.63867 17.6632C6.21434 17.31 6.15683 16.6794 6.50977 16.255C7.08838 15.5598 7.588 14.9805 9.00586 13.6602C9.31712 13.3704 9.67019 13.0463 10.0439 12.7071C9.1657 11.9507 8.3251 11.2115 7.81348 10.7589C7.41116 10.4029 7.20371 10.2181 7.0957 10.1202C7.04505 10.0743 7.0044 10.0363 6.97363 10.0059C6.94968 9.98229 6.84462 9.8826 6.76465 9.72273C6.51772 9.22887 6.71818 8.62803 7.21191 8.38094C7.62004 8.17688 8.10038 8.27878 8.39453 8.59871C8.40411 8.60754 8.41898 8.62018 8.43945 8.63875C8.53708 8.72729 8.73534 8.90494 9.13867 9.2618C9.68982 9.74943 10.6097 10.5586 11.543 11.3595C12.4051 10.5901 13.233 9.8598 13.7959 9.36336C14.9355 8.35837 15.0183 8.28921 15.0996 8.22273ZM8.55371 8.8282C8.55297 8.8267 8.54689 8.81554 8.54004 8.80281C8.53104 8.78608 8.52007 8.76625 8.50684 8.74519C8.50561 8.74324 8.50416 8.74124 8.50293 8.73933C8.52098 8.76783 8.5383 8.79739 8.55371 8.8282Z" fill="black"/>
</svg>
