<svg width="24" height="24" viewBox="0 0 24 24" fill="none" xmlns="http://www.w3.org/2000/svg">
<path d="M8.32944 3.26865C8.7084 2.86759 9.34097 2.84906 9.74253 3.22764C10.1441 3.60648 10.1631 4.23994 9.78452 4.6417C9.51541 4.92703 9.26448 5.18888 8.4105 5.97959C8.2698 6.10987 8.13891 6.24458 7.65269 6.68662C7.27038 7.03418 6.76693 7.48531 6.30894 7.89756C7.00115 7.90975 8.16477 7.93099 8.90073 7.9542C9.66924 7.97845 10.0168 8.00899 11.015 8.04697C12.081 8.08752 13.9476 8.14131 14.973 8.17588C15.6339 8.19817 16.1051 8.24372 16.5179 8.33603C16.9363 8.42965 17.2596 8.56419 17.5902 8.70029C18.2523 8.9731 18.6588 9.34097 18.849 9.52256C18.9889 9.65625 19.0962 9.81697 19.1673 9.93174C19.2477 10.0616 19.3299 10.2113 19.4105 10.3692C19.572 10.6859 19.7563 11.0886 19.9554 11.5401C20.4324 12.6219 20.4308 13.1535 20.5472 13.6681C20.6101 13.946 20.6709 14.3112 20.724 14.6651L20.8539 15.5987L20.8578 15.6339C20.9202 16.2622 20.9557 16.6169 20.9818 17.0929L21.0052 17.6241L21.0062 17.6397V17.6544C21.0092 18.1309 21.0014 18.9511 20.9828 19.8233C20.9708 20.3751 20.5139 20.8132 19.9623 20.8019C19.4102 20.7901 18.9721 20.3324 18.9837 19.7804C19.0017 18.9381 19.0086 18.1548 19.0062 17.6983L18.9847 17.211C18.961 16.7754 18.929 16.4501 18.8675 15.8312H18.8666C18.7964 15.3122 18.6949 14.5477 18.596 14.1104C18.4096 13.2865 18.4992 13.1945 18.1253 12.3468C17.9297 11.9031 17.7633 11.5431 17.6283 11.2784C17.5608 11.1461 17.5071 11.0491 17.4671 10.9845C17.455 10.9649 17.4449 10.9513 17.4388 10.9425C17.3268 10.838 17.1356 10.6765 16.8285 10.5499C16.4883 10.4098 16.3115 10.3397 16.0814 10.2882C15.8454 10.2354 15.5164 10.1945 14.9056 10.1739C13.9029 10.1401 12.0079 10.0866 10.9398 10.046C9.80489 10.0028 9.6594 9.97916 8.83726 9.95322C8.22239 9.93383 7.29542 9.91579 6.60581 9.90342C7.12965 10.4398 7.81592 11.1041 8.27671 11.5528C9.19228 12.3957 9.28617 12.4946 9.61265 12.7208H9.61167C9.71083 12.7875 9.77171 12.8312 9.84605 12.8897C10.2796 13.2314 10.3544 13.8602 10.013 14.294C9.67135 14.7277 9.04256 14.8025 8.60874 14.461C8.58019 14.4385 8.56068 14.4228 8.48667 14.3731L8.47983 14.3692L8.47397 14.3653C8.00082 14.0376 7.77391 13.8079 6.9144 13.0167L6.90366 13.0069L6.8939 12.9972C6.31952 12.4378 5.25217 11.408 4.69175 10.7911C4.09153 10.1305 3.81775 9.79218 3.67905 9.42685C3.66215 9.38235 3.64455 9.34284 3.60776 9.25596C3.57717 9.18369 3.53215 9.07673 3.49546 8.95908C3.42765 8.74152 3.32426 8.29475 3.56089 7.82724C3.64585 7.6597 3.75083 7.54168 3.85581 7.43564C3.95606 7.33442 4.11439 7.18769 4.36558 6.95908C4.82181 6.54386 5.86947 5.60576 6.30796 5.20713C6.82127 4.74046 6.81638 4.73007 7.0521 4.51182C7.87809 3.74702 8.09586 3.51632 8.32944 3.26865Z" fill="black"/>
</svg>
