<svg width="24" height="24" viewBox="0 0 24 24" fill="none" xmlns="http://www.w3.org/2000/svg">
<path d="M3.6748 3.37109C4.22709 3.37109 4.6748 3.81881 4.6748 4.37109V4.34473C4.67616 4.36578 4.6787 4.40098 4.68262 4.45996C4.69255 4.60972 4.71207 4.90767 4.75195 5.50098C4.83173 6.68789 4.99143 9.05351 5.0791 10.3027C5.12329 10.9324 5.1475 11.2461 5.16406 11.416C5.16803 11.4567 5.17042 11.4854 5.17285 11.5049C5.17342 11.5094 5.17339 11.5133 5.17383 11.5166C5.22268 11.6746 5.28472 11.8117 5.32812 11.9004C5.34076 11.9117 5.35593 11.9259 5.37402 11.9414C5.47923 12.0317 5.63851 12.1598 5.86426 12.3359C6.01472 12.4533 6.20369 12.5724 6.62402 12.7607C7.04779 12.9506 7.67442 13.1846 8.20117 13.3545C8.66548 13.5042 9.00945 13.594 10.0957 13.6836C11.2175 13.7761 13.0557 13.8594 14.1094 13.8994C15.1591 13.9393 15.3203 13.9317 15.9482 13.9482C16.5024 13.9628 17.3464 13.9921 18.2256 13.9941C18.0897 13.8881 17.923 13.7605 17.7178 13.6074C16.9585 13.0411 15.6386 12.0778 14.9707 11.5898C14.6382 11.3469 14.4688 11.2232 14.3818 11.1592C14.3397 11.1281 14.3129 11.1074 14.2949 11.0938C14.2874 11.088 14.2337 11.0492 14.1777 10.9932C13.7872 10.6026 13.7872 9.96963 14.1777 9.5791C14.5438 9.21299 15.1229 9.19039 15.5156 9.51074L15.5039 9.50098C15.5095 9.50523 15.5264 9.51789 15.5684 9.54883C15.6516 9.61019 15.8176 9.73244 16.1504 9.97559C16.8132 10.4598 18.1437 11.4301 18.9131 12.0039C19.8746 12.721 20.1124 12.958 20.2471 13.0938C20.2669 13.1137 20.2859 13.1321 20.3115 13.1572C20.3342 13.1795 20.3661 13.2105 20.3975 13.2432C20.4346 13.2819 20.5144 13.3651 20.5898 13.4824L20.6621 13.6104L20.7139 13.7354C20.8168 14.0277 20.7896 14.3226 20.7061 14.5625C20.6167 14.8189 20.4321 15.061 20.2803 15.2686C20.0803 15.5419 19.7458 15.9887 19.2822 16.5107C18.828 17.0222 18.2576 17.5935 17.9209 17.9385C17.44 18.4313 17.3144 18.6016 17.2832 18.6445L17.248 18.6924L17.207 18.7363C16.8823 19.086 16.5108 19.4185 16.3438 19.5684L16.334 19.5771C16.2409 19.6584 16.1873 19.6991 16.1396 19.7344C15.6958 20.0626 15.0697 19.9691 14.7412 19.5254C14.4127 19.0815 14.5063 18.4545 14.9502 18.126C14.9655 18.1147 14.9692 18.1118 14.9746 18.1074C14.9806 18.1027 14.9936 18.0921 15.0186 18.0703C15.1846 17.9213 15.4681 17.6641 15.7119 17.4053C15.832 17.248 16.0411 17.0012 16.4893 16.542C16.6498 16.3775 16.8396 16.1837 17.0381 15.9795C16.5846 15.9687 16.1856 15.9559 15.8955 15.9482C15.3193 15.9331 15.0921 15.9386 14.0342 15.8984C12.9798 15.8584 11.102 15.7733 9.93164 15.6768C8.72586 15.5773 8.22597 15.4639 7.58691 15.2578C7.01031 15.0718 6.31304 14.8128 5.80664 14.5859C5.29736 14.3578 4.95333 14.1624 4.63379 13.9131C4.40377 13.7336 4.21318 13.5807 4.07031 13.458C3.99937 13.3971 3.92845 13.3337 3.86621 13.2715C3.81936 13.2246 3.71626 13.1196 3.63477 12.9795C3.50989 12.7646 3.36586 12.4406 3.25977 12.0938C3.18168 11.8384 3.1659 11.6106 3.08398 10.4434C2.99606 9.19062 2.83655 6.82077 2.75684 5.63477C2.67995 4.49088 2.6748 4.42102 2.6748 4.37109C2.6748 3.81881 3.12252 3.37109 3.6748 3.37109ZM15.5918 9.5791C15.5924 9.57974 15.5871 9.57423 15.5811 9.56836C15.5743 9.56186 15.5667 9.55518 15.5586 9.54785C15.5427 9.53337 15.5294 9.52215 15.5215 9.51562L15.5918 9.5791Z" fill="black"/>
</svg>
