<svg width="24" height="24" viewBox="0 0 24 24" fill="none" xmlns="http://www.w3.org/2000/svg">
<path d="M20.9785 3C21.5304 3.0004 21.9785 3.44801 21.9785 4C21.9785 4.37799 21.7674 4.70596 21.458 4.87597C21.4432 4.88598 21.4189 4.90301 21.3818 4.92871C21.2342 5.03112 20.9364 5.24164 20.3369 5.66992C19.8729 6.00137 19.2334 6.45993 18.5039 6.99121C18.5527 7.1529 18.5789 7.3122 18.5908 7.45801C18.6213 7.83253 18.5807 8.28969 18.54 8.74414C18.3778 10.5568 18.0143 14.0586 17.7871 16.1777C18.6168 16.2203 19.0213 16.2539 19.4336 16.2891C19.9834 16.3365 20.3915 16.8202 20.3447 17.3701C20.2977 17.9201 19.8127 18.3279 19.2627 18.2812C18.8561 18.2465 18.4555 18.2132 17.5615 18.1689C17.4732 18.8809 17.4442 18.999 17.4238 19.1143L17.4209 19.1289L17.418 19.1445C17.3833 19.3107 17.3655 19.4454 17.3613 19.5986L17.3604 19.6113C17.3537 19.78 17.3403 20.0361 17.3105 20.3711C17.2614 20.9208 16.7753 21.327 16.2256 21.2783C15.6757 21.2291 15.2694 20.7433 15.3184 20.1934C15.3448 19.8966 15.3567 19.6743 15.3623 19.5322C15.3707 19.2522 15.4039 19.0088 15.4531 18.7666C15.4661 18.693 15.4872 18.6143 15.5557 18.084C13.1666 17.9959 9.18601 17.8762 7.19434 17.7881C6.70924 17.7666 6.26069 17.7449 5.90039 17.6816C5.53517 17.6175 5.0814 17.4829 4.73242 17.0986C4.39353 16.7252 4.2945 16.2678 4.25 15.9131C4.20508 15.5546 4.19726 15.1039 4.18652 14.6152C4.14829 12.8752 4.0728 9.78325 4.02148 7.65332C3.25049 7.64856 2.81483 7.64605 2.56836 7.64453C2.4099 7.64355 2.32869 7.64282 2.28809 7.64258C2.26861 7.64246 2.25731 7.64259 2.25195 7.64258C1.69967 7.64258 1.25098 7.19486 1.25098 6.64258C1.25112 6.09041 1.69976 5.64258 2.25195 5.64258C2.25977 5.64258 2.30487 5.64199 3.97559 5.65234C3.95021 4.56444 3.94824 4.46646 3.94824 4.37012C3.94824 3.81783 4.39596 3.37012 4.94824 3.37012C5.5003 3.37038 5.94824 3.81799 5.94824 4.37012C5.94824 4.44309 5.94884 4.51656 5.97559 5.66504C8.67977 5.68173 12.7576 5.70687 15.0303 5.71777C15.6707 5.72084 16.2175 5.72242 16.6396 5.75781C16.6852 5.76163 16.732 5.76823 16.7803 5.77344C17.7453 5.0652 18.599 4.45335 19.1748 4.04199C19.7729 3.61474 20.0814 3.39669 20.2422 3.28515C20.3174 3.23299 20.3771 3.19251 20.4229 3.16406C20.4391 3.15397 20.4971 3.11801 20.5703 3.08594C20.6138 3.06691 20.6867 3.03812 20.7793 3.01953C20.8832 2.99878 20.9682 3 20.9785 3ZM16.5596 8.42871C15.9399 8.894 15.3084 9.3751 14.7031 9.85058C12.6082 11.4963 10.9642 12.9517 9.73633 13.9502C8.52274 14.937 7.91365 15.3039 7.4873 15.5859C7.3796 15.6572 7.28276 15.7237 7.19629 15.7852C7.22413 15.7864 7.25307 15.7887 7.28223 15.79C9.29639 15.8791 13.3177 15.9992 15.7275 16.0889C15.7469 16.0896 15.7661 16.0901 15.7852 16.0908C16.011 13.9898 16.3849 10.3973 16.5488 8.5664C16.5531 8.51844 16.5558 8.4725 16.5596 8.42871ZM6.17285 14.0615C6.23927 14.0157 6.3094 13.9672 6.38379 13.918C6.81718 13.6313 7.34782 13.3147 8.47461 12.3984C9.5887 11.4925 11.3865 9.91327 13.4678 8.27832C13.7072 8.09023 13.9505 7.90137 14.1953 7.71289C11.8712 7.7008 8.42145 7.67984 6.02148 7.66504C6.06799 9.59573 6.13283 12.29 6.17285 14.0615ZM20.9785 5C20.9838 5.00002 21.0101 4.99993 21.04 4.99805C21.0437 4.99772 21.0481 4.99637 21.0518 4.99609C21.0277 4.99784 21.003 4.99996 20.9785 5Z" fill="black"/>
</svg>
