<svg width="24" height="24" viewBox="0 0 24 24" fill="none" xmlns="http://www.w3.org/2000/svg">
<path d="M10.417 5.03217C11.8491 5.02586 12.0263 5.04347 13.29 5.10834C14.5449 5.17275 16.8896 5.28499 18.2139 5.33197C19.547 5.37927 19.7242 5.35405 19.8008 5.34564C19.9128 5.33336 20.0354 5.31449 20.2764 5.29681C20.5094 5.27972 20.896 5.26035 21.2734 5.24115C21.8248 5.21325 22.2941 5.63708 22.3223 6.18842C22.3501 6.73974 21.9263 7.21004 21.375 7.23822C21.1043 7.25199 20.8489 7.26665 20.6494 7.27826C20.6062 8.03882 20.5609 8.78679 20.4932 9.42767C20.4171 10.1477 20.3 10.8317 20.1953 11.6806C20.0842 12.5812 19.9538 13.8998 19.751 15.3203C19.5492 16.7335 19.2965 18.2788 19.1035 19.1308C19.0008 19.5841 18.9038 19.9831 18.7461 20.3271C18.5673 20.7168 18.3351 20.9903 18.0518 21.2578C18.0058 21.3012 17.8866 21.4142 17.6953 21.5029C17.5305 21.5792 17.3662 21.6136 17.2314 21.6337C16.9727 21.6723 16.5814 21.6912 15.9697 21.704C14.7276 21.7302 12.3594 21.7591 11.0811 21.7206C10.3835 21.6997 9.93794 21.6767 9.65039 21.6435C9.51005 21.6273 9.35474 21.6036 9.20801 21.5566C9.0411 21.5031 8.83948 21.4046 8.66797 21.2128C8.53938 21.069 8.4478 20.9222 8.3916 20.829C8.32073 20.7116 8.30451 20.681 8.27441 20.6376C8.14372 20.4491 7.96358 20.1958 7.70508 19.5693C7.5405 19.1704 7.2224 18.4023 7.02637 17.8691C6.82036 17.3088 6.74477 17.0014 6.66895 16.6777C6.59722 16.3714 6.52168 16.0374 6.42773 15.5497C6.33788 15.0833 6.21989 14.4553 6.1582 14.0107C6.05862 13.2928 6.04321 13.1006 6 12.9599C5.90377 12.6467 5.74937 11.912 5.58496 11.1777C5.55427 11.0406 5.53149 10.9486 5.49805 10.8134C5.46425 10.6768 5.42336 10.5103 5.36328 10.2421C5.23544 9.67148 5.06987 8.84534 4.9541 8.35248C4.84713 7.89705 4.7754 7.53612 4.69531 7.08392C3.83377 7.09319 3.79757 7.09467 3.7627 7.09467C3.21063 7.09467 2.76306 6.64664 2.7627 6.09467C2.7627 5.54238 3.21041 5.09467 3.7627 5.09467C3.78874 5.09467 3.81345 5.095 5.12402 5.08099C6.42782 5.06706 9.00787 5.03838 10.417 5.03217ZM10.4258 7.03217C9.47669 7.03635 7.99026 7.05239 6.72363 7.06537C6.77686 7.34158 6.83076 7.59486 6.90137 7.89545C7.01285 8.37011 7.21081 9.33864 7.31543 9.8056C7.37152 10.0559 7.40834 10.2072 7.43945 10.3329C7.47086 10.4598 7.50043 10.5764 7.53711 10.7402C7.72316 11.5712 7.84537 12.1589 7.91113 12.373C8.01693 12.7175 8.06457 13.194 8.13965 13.7353C8.19292 14.1193 8.30002 14.6964 8.3916 15.1718C8.4791 15.626 8.54851 15.9326 8.61621 16.2216C8.67982 16.4932 8.73466 16.7172 8.9043 17.1786C9.08394 17.6672 9.38406 18.3954 9.55371 18.8066C9.65263 19.0463 9.72519 19.1902 9.77637 19.2802C9.82625 19.368 9.86122 19.4162 9.91797 19.498C9.96077 19.5597 9.99736 19.619 10.0264 19.6669C10.2413 19.6842 10.5855 19.7049 11.1406 19.7216C12.3621 19.7583 14.6846 19.7302 15.9277 19.704C16.3936 19.6942 16.6596 19.6777 16.8125 19.665C16.8755 19.5932 16.9045 19.5459 16.9287 19.4931C16.9867 19.3665 17.0451 19.1674 17.1533 18.6894C17.3269 17.9232 17.5702 16.4471 17.7715 15.037C17.9718 13.6341 18.0909 12.4084 18.2109 11.4355C18.3373 10.411 18.4246 9.96813 18.5039 9.21771C18.5615 8.67253 18.6016 8.03305 18.6416 7.34369C18.4937 7.33947 18.3284 7.33658 18.1436 7.33002C16.8029 7.28245 14.4446 7.16994 13.1875 7.10541C11.9393 7.04134 11.8042 7.02609 10.4258 7.03217ZM15.3779 8.46869C15.93 8.46895 16.3779 8.91657 16.3779 9.46869C16.3779 9.6783 16.3778 9.88739 16.3613 10.6035C16.3452 11.3073 16.3122 12.5397 16.293 13.3544C16.2735 14.1764 16.2683 14.5773 16.2627 14.9911C16.255 15.5431 15.8009 15.9847 15.249 15.9775C14.6971 15.9699 14.2556 15.5166 14.2627 14.9648C14.2684 14.5469 14.2743 14.1388 14.2939 13.3076C14.3138 12.4686 14.3458 11.274 14.3623 10.5576C14.3785 9.85419 14.3779 9.66058 14.3779 9.46869C14.3779 8.91651 14.8258 8.46885 15.3779 8.46869ZM11.2783 8.40131C11.8304 8.40144 12.2782 8.84924 12.2783 9.40131C12.2783 9.41204 12.2783 9.42254 12.2803 10.2724C12.2822 11.1214 12.286 12.8074 12.29 14.5439C12.2913 15.096 11.845 15.5452 11.293 15.5468C10.7407 15.5481 10.2913 15.1011 10.29 14.5488C10.286 12.8122 10.2822 11.1264 10.2803 10.2773C10.2783 9.42976 10.2783 9.41512 10.2783 9.40131C10.2785 8.84916 10.7261 8.40131 11.2783 8.40131ZM9.17676 2.51263C9.29547 1.97352 9.82892 1.63247 10.3682 1.75092C10.4423 1.76719 10.4973 1.77949 10.5859 1.79291C10.679 1.80697 10.82 1.82331 11.0479 1.84076C11.3868 1.86666 12.0357 1.86263 12.5342 1.8515C13.0343 1.84032 13.1849 1.81482 13.71 1.79193C14.1679 1.77198 14.7878 1.76525 15.3994 1.75873C15.9513 1.75322 16.4042 2.19601 16.4102 2.74799C16.4159 3.29987 15.9727 3.75239 15.4209 3.75873C14.7961 3.76539 14.2143 3.77179 13.7969 3.78998C13.4468 3.80524 13.0622 3.84068 12.5791 3.8515C12.0939 3.86234 11.3483 3.86952 10.8955 3.8349C10.3534 3.7934 10.1325 3.74666 9.93848 3.70404C9.39924 3.58541 9.0583 3.05195 9.17676 2.51263Z" fill="black"/>
</svg>
