<svg width="24" height="24" viewBox="0 0 24 24" fill="none" xmlns="http://www.w3.org/2000/svg">
<path d="M11.5435 9.21973C11.6277 9.21975 11.7094 9.2323 11.7876 9.25195C12.1488 9.26093 12.561 9.30637 12.9858 9.41699C13.1884 9.46975 13.4648 9.54577 13.7075 9.6709C13.955 9.79851 14.343 10.0689 14.4702 10.5908C14.6293 11.2439 14.6851 12.1468 14.1099 13.1484C13.9734 13.3861 13.774 13.7355 13.5151 14.0332C13.2483 14.3399 12.8418 14.6827 12.2593 14.7822C12.1899 14.7941 11.913 14.8529 11.6401 14.8535C11.3451 14.8541 10.9109 14.7938 10.5249 14.4717C9.97535 14.0128 9.24853 13.1477 9.30811 12.0049C9.3208 11.7607 9.32986 11.1342 9.75439 10.543C9.76636 10.471 9.7813 10.3981 9.80225 10.3262C9.91418 9.94255 10.2197 9.449 10.8599 9.31934C10.9665 9.29778 11.0965 9.28024 11.2437 9.26758C11.3147 9.24565 11.4199 9.21974 11.5435 9.21973Z" fill="black"/>
</svg>
