<svg width="24" height="24" viewBox="0 0 24 24" fill="none" xmlns="http://www.w3.org/2000/svg">
<path d="M19.5088 20.1377C20.0599 20.113 20.5273 20.5397 20.5527 21.0908C20.5779 21.6424 20.1511 22.1103 19.5996 22.1357C19.2184 22.1531 18.9653 22.146 16.4199 22.1611C13.8472 22.1764 9.0574 22.2133 6.61426 22.2314C4.17901 22.2495 4.07804 22.249 3.98242 22.249C3.43014 22.249 2.98145 21.8013 2.98145 21.249C2.98171 20.697 3.4303 20.249 3.98242 20.249C4.06835 20.249 4.15873 20.2495 6.59961 20.2314C9.04172 20.2133 13.8337 20.1764 16.4082 20.1611C19.0095 20.1457 19.1804 20.1527 19.5088 20.1377ZM11.9707 2.13379C12.5228 2.13405 12.9707 2.58167 12.9707 3.13379C12.9707 3.44319 12.9704 3.75306 12.9727 5.84473C12.9746 7.67479 12.9794 10.8603 12.9932 14.3457C13.5445 13.9643 13.9835 13.745 14.1807 13.6348C14.2305 13.6069 14.3595 13.5233 14.8398 13.0635C15.3005 12.6225 16.0196 11.8845 16.4238 11.4619C16.8298 11.0374 16.8431 11.0086 16.8672 10.9746C17.1872 10.5246 17.8117 10.4185 18.2617 10.7383C18.7117 11.0583 18.8169 11.6828 18.4971 12.1328C18.3789 12.299 18.2736 12.4219 17.8691 12.8447C17.4613 13.2712 16.7168 14.0358 16.2227 14.5088C15.7484 14.9627 15.4545 15.2142 15.1562 15.3809C14.8378 15.5588 14.3598 15.7884 13.7412 16.2773C13.4557 16.5031 13.2022 16.7018 12.998 16.8457C12.8954 16.9181 12.7826 16.993 12.668 17.0547C12.5681 17.1084 12.3875 17.1967 12.1641 17.2256C11.5935 17.2992 11.0707 17.0267 10.7188 16.707C10.7366 16.7232 10.7238 16.7113 10.5986 16.624C10.4997 16.555 10.3556 16.4554 10.1895 16.3359C9.85214 16.0934 9.4072 15.7561 8.90039 15.3037C8.13305 14.6187 7.49446 13.9525 6.86816 13.2764C6.49312 12.8713 6.51716 12.2386 6.92188 11.8633C7.32698 11.488 7.95964 11.512 8.33496 11.917C8.94616 12.5769 9.53514 13.1891 10.2324 13.8115C10.5102 14.0594 10.7685 14.265 10.9941 14.4385C10.9801 10.9167 10.9746 7.69171 10.9727 5.84668C10.9704 3.75511 10.9707 3.44433 10.9707 3.13379C10.9707 2.5815 11.4184 2.13379 11.9707 2.13379Z" fill="black"/>
</svg>
