<svg width="24" height="24" viewBox="0 0 24 24" fill="none" xmlns="http://www.w3.org/2000/svg">
<path d="M11.7712 8.64636C12.323 8.63203 12.7829 9.06816 12.7976 9.62C12.8046 9.88235 12.8118 10.1475 12.8728 11.7675C12.932 13.3381 13.041 16.1704 13.1707 19.1542C13.243 19.1137 13.3043 19.0813 13.364 19.0438C13.3675 19.0408 13.3732 19.0371 13.3796 19.0311C13.4063 19.0063 13.4444 18.9684 13.4968 18.912C13.6063 18.7942 13.7301 18.6502 13.9011 18.4559L13.9167 18.4384L13.9333 18.4218C14.0849 18.2649 14.2782 18.0396 14.5291 17.7235L14.532 17.7206C14.6399 17.5855 14.7231 17.4833 14.8718 17.3505C15.2836 16.9831 15.9151 17.0192 16.283 17.4305C16.6509 17.8424 16.6158 18.4747 16.2039 18.8427C16.193 18.8524 16.1874 18.8572 16.1853 18.8593C16.1837 18.8608 16.182 18.8631 16.1785 18.8671C16.1666 18.8804 16.1465 18.9019 16.0955 18.9657L16.0964 18.9667C15.8386 19.2916 15.6083 19.5598 15.4021 19.7762C15.2524 19.9463 15.0951 20.1298 14.9607 20.2743C14.84 20.4041 14.6602 20.5902 14.4558 20.7206C14.2937 20.824 14.1248 20.9149 14.0144 20.9764C13.8887 21.0465 13.8153 21.091 13.7605 21.1317C13.525 21.3064 13.3832 21.4335 13.2361 21.5585C13.1068 21.6683 12.8865 21.8579 12.5798 21.9696C12.1765 22.1163 11.8376 21.9721 11.7341 21.9247C11.6089 21.8672 11.4948 21.7905 11.4207 21.7391C11.2658 21.6319 11.0173 21.4441 10.696 21.2089C10.1703 20.8239 9.29951 20.2122 8.74683 19.8173C8.19749 19.4247 8.00207 19.2746 7.80835 19.1249C7.37171 18.787 7.29096 18.1584 7.62866 17.7216C7.96631 17.285 8.59416 17.2048 9.03101 17.5419C9.20606 17.6772 9.38098 17.813 9.90894 18.1903C10.2401 18.427 10.721 18.7701 11.1667 19.0878C11.0398 16.1552 10.932 13.3883 10.8738 11.8427C10.8127 10.2205 10.8049 9.94657 10.7976 9.67273C10.7831 9.1208 11.2193 8.66111 11.7712 8.64636ZM11.6833 1.70203C12.3425 1.6456 12.7791 1.65349 13.073 1.66589C13.4231 1.68069 13.6087 1.71104 14.1628 1.84363C14.6959 1.97117 15.6435 2.21122 16.2351 2.37976C16.8249 2.54783 17.2583 2.73598 17.5876 2.95691C17.9443 3.19628 18.128 3.44118 18.2449 3.61121C18.5634 4.07466 18.6883 4.66515 18.7722 5.06824L18.7761 5.08777L18.78 5.10632C18.8312 5.41063 18.8746 5.79336 18.9031 6.26746C18.927 6.66736 18.9381 7.13197 18.949 7.59949C19.2689 7.7579 19.5723 7.91844 19.8406 8.08093C20.3393 8.38301 20.6756 8.80216 20.9656 9.24109C21.1876 9.57732 21.3781 10.0363 21.5408 10.4296C21.7246 10.8741 21.9094 11.3819 22.0349 11.7909C22.2708 12.5596 22.3062 13.2873 22.2957 13.9344C22.284 14.6501 21.992 15.206 21.78 15.5829L21.7478 15.6405L21.7078 15.6932C21.3908 16.1154 20.9351 16.5284 20.5134 16.8563L20.5056 16.8622L20.4968 16.869C20.3075 17.0099 20.1944 17.0749 20.0564 17.1327C19.547 17.3454 18.9618 17.1049 18.7488 16.5956C18.5417 16.1001 18.763 15.5323 19.2439 15.3055C19.2543 15.2983 19.2704 15.2869 19.2927 15.2704C19.6237 15.0123 19.9038 14.7454 20.073 14.5331C20.2317 14.2427 20.2928 14.0734 20.2957 13.9022C20.3046 13.3495 20.2705 12.8593 20.1228 12.3778C20.0182 12.037 19.8554 11.588 19.6921 11.1932C19.5079 10.7476 19.391 10.4855 19.2966 10.3427C19.0703 10.0001 18.9307 9.86837 18.8044 9.79187C18.5011 9.60813 18.1091 9.40762 17.6501 9.19324C17.3021 9.03068 17.0904 8.69363 17.073 8.33484C17.0021 8.20153 16.9605 8.0498 16.9568 7.88855C16.9441 7.32948 16.9314 6.81198 16.906 6.38757C16.8816 5.97998 16.8452 5.67554 16.8093 5.45691C16.7142 5.00404 16.65 4.82199 16.5964 4.74402C16.5565 4.68592 16.5414 4.66369 16.4734 4.61804C16.3779 4.55398 16.1596 4.4382 15.6873 4.30359C15.1331 4.14571 14.215 3.91189 13.697 3.78796C13.4354 3.72539 13.3064 3.69862 13.2195 3.68445C13.1492 3.67301 13.0997 3.66865 12.988 3.66394C12.7634 3.65447 12.4141 3.64727 11.8542 3.69519C11.2682 3.74537 10.4893 3.84326 10.0476 3.91589C9.46894 4.01109 9.0659 4.09614 8.5769 4.31824C8.06144 4.55244 7.82933 4.70173 7.71753 4.82996C7.51742 5.06028 7.28021 5.3847 7.06421 5.85535C6.95283 6.09812 6.85296 6.36786 6.76245 6.71863C6.66832 7.08362 6.58606 7.52318 6.53882 7.84363C6.53035 7.90114 6.52444 7.95977 6.51831 8.0282C6.51326 8.08468 6.50555 8.18257 6.49487 8.2655C6.48494 8.34244 6.46269 8.49508 6.39819 8.65515C6.32826 8.82837 6.16914 9.10517 5.83179 9.26453C5.56966 9.38816 5.29399 9.42847 5.1394 9.45007C4.93381 9.4788 4.84119 9.48632 4.71558 9.5116C4.48044 9.55898 4.2179 9.62234 3.95679 9.78894C3.68878 9.96008 3.61747 10.0363 3.56226 10.1122C3.26183 10.5258 3.13158 10.7379 3.10034 10.8329C3.01124 11.1055 2.97618 11.2259 2.97144 11.4579C2.96302 11.8731 2.95763 12.2244 2.96265 12.4969C2.96516 12.6329 2.96981 12.736 2.97632 12.8085C2.97823 12.8297 2.97983 12.8457 2.9812 12.8563C2.99841 12.9065 3.01201 12.9384 3.03394 12.9784C3.06344 13.0322 3.12079 13.1251 3.24487 13.2782C3.50693 13.6016 3.81687 13.9931 4.04858 14.201C4.27291 14.4023 4.42198 14.5274 4.50952 14.5975C4.553 14.6324 4.5785 14.6517 4.58862 14.6591C4.58676 14.6578 4.5842 14.6555 4.58081 14.6532C4.57696 14.6506 4.56149 14.6405 4.53979 14.6278C4.53777 14.6266 4.53451 14.6249 4.53101 14.6229C4.83428 14.7946 5.03965 15.1207 5.03979 15.494C5.03966 16.0459 4.5916 16.4935 4.03979 16.494C3.85929 16.494 3.7223 16.443 3.70386 16.4364C3.6587 16.4204 3.62425 16.4036 3.60718 16.3954C3.57169 16.3784 3.54413 16.3628 3.53296 16.3563C3.50754 16.3415 3.4866 16.328 3.47632 16.3212C3.45303 16.3057 3.43028 16.2894 3.41089 16.2753C3.37023 16.2456 3.31949 16.2069 3.25854 16.1581C3.13562 16.0596 2.95777 15.9102 2.71265 15.6903C2.32975 15.3467 1.89041 14.7828 1.69116 14.537C1.31592 14.0739 1.17519 13.769 1.07202 13.4559C1.01646 13.287 0.996144 13.1099 0.985107 12.9872C0.972603 12.8479 0.965577 12.6927 0.962646 12.5341C0.956797 12.2167 0.963113 11.8274 0.971436 11.4169C0.982348 10.8811 1.09399 10.533 1.19897 10.2118C1.34809 9.75594 1.7 9.27242 1.94409 8.9364C2.21355 8.56568 2.5259 8.32989 2.88062 8.10339C3.46367 7.73124 4.02524 7.61008 4.32007 7.55066C4.40014 7.53454 4.48662 7.52134 4.56714 7.50964C4.62269 7.14228 4.7143 6.65246 4.82593 6.2196C4.9455 5.75607 5.08416 5.37382 5.24585 5.02136C5.55301 4.35202 5.90268 3.86957 6.20776 3.51843C6.6378 3.02381 7.25039 2.72384 7.74976 2.49695C8.48277 2.16403 9.09488 2.04565 9.72339 1.94226C10.2201 1.86057 11.0502 1.75626 11.6833 1.70203ZM4.38647 14.5565C4.38239 14.555 4.37806 14.5532 4.37378 14.5516C4.37035 14.5504 4.36608 14.5491 4.36206 14.5477C4.37018 14.5505 4.37845 14.5535 4.38647 14.5565ZM4.29468 14.5282C4.28628 14.526 4.27748 14.5226 4.26831 14.5204C4.26356 14.5193 4.2576 14.5178 4.25171 14.5165C4.26616 14.5196 4.28046 14.5244 4.29468 14.5282Z" fill="black"/>
</svg>
