<svg width="24" height="24" viewBox="0 0 24 24" fill="none" xmlns="http://www.w3.org/2000/svg">
<path d="M12.7871 1C13.3394 1 13.7871 1.44772 13.7871 2C13.7871 2.01653 13.787 2.02895 13.7871 2.03906L13.8193 2.2041L13.8262 2.24316L13.8311 2.2832C13.8359 2.32863 13.8523 2.42848 13.9541 2.7041C14.0173 2.87513 14.1411 3.14135 14.4814 3.7168C14.7149 4.11152 15.1072 4.77559 15.333 5.12402C15.6045 5.54278 15.6682 5.64928 16.0723 6.12305C16.4516 6.56778 17.1764 7.39961 17.8574 8.23633C18.5383 9.07285 19.1726 9.90876 19.5742 10.5029C19.9962 11.1272 20.1797 11.5107 20.3467 12.0186C20.4965 12.4743 20.6401 13.0392 20.708 13.6211C20.7773 14.2151 20.7663 14.7934 20.6689 15.4365C20.5739 16.0645 20.3999 16.7394 20.1797 17.3574C19.9597 17.9747 19.7023 18.5168 19.5088 18.8809C19.298 19.2774 19.1441 19.4983 18.8711 19.8154C18.6286 20.0971 18.2723 20.4801 17.9424 20.7842C17.5985 21.1011 17.2897 21.3281 16.9443 21.5303C16.6081 21.7271 16.2432 21.8983 15.8262 22.0342C15.423 22.1655 14.9962 22.2563 14.6885 22.3066C14.3014 22.3699 14.0453 22.371 13.2998 22.3262C12.5625 22.2818 11.2663 22.187 10.3281 22.0586C9.40656 21.9324 8.77467 21.7902 8.28711 21.583C7.66344 21.318 7.05164 21.0085 6.50879 20.4951C6.21286 20.2152 5.97991 19.9107 5.6748 19.4062C5.37924 18.9176 4.9896 18.1992 4.7002 17.5146C4.40816 16.8239 4.23069 16.2035 4.13281 15.8047C4.02145 15.3509 4.00002 15.1158 4 14.6328C3.99998 14.2018 4.01486 13.4924 4.08887 12.8701C4.1657 12.2244 4.30091 11.6978 4.50098 11.1543C4.69975 10.6144 4.95801 10.0653 5.36328 9.42285C5.76863 8.78027 6.29755 8.07796 7.28809 6.94336C7.784 6.37532 8.39327 5.71011 8.96094 5.09082C9.53519 4.46434 10.0621 3.88978 10.4141 3.48242C10.8227 3.00944 11.0421 2.74542 11.1582 2.60156C11.2158 2.53016 11.2452 2.49249 11.2578 2.47559C11.2655 2.46529 11.2627 2.46923 11.2656 2.46484C11.3961 2.27097 11.5825 2.1375 11.7891 2.07129C11.7887 2.04074 11.7871 2.01579 11.7871 2C11.7871 1.44781 12.235 1.00016 12.7871 1ZM11.9277 4.78906C11.5518 5.22423 11.0006 5.82591 10.4355 6.44238C9.86389 7.06603 9.27183 7.71157 8.79492 8.25781C7.83978 9.35185 7.38382 9.96846 7.05469 10.4902C6.72548 11.0121 6.52908 11.4342 6.37793 11.8447C6.22822 12.2514 6.13238 12.6258 6.0752 13.1064C6.01518 13.6111 5.99998 14.2277 6 14.6328C6.00002 14.9856 6.00874 15.0573 6.0752 15.3281C6.15523 15.6542 6.30293 16.1685 6.54297 16.7363C6.78565 17.3103 7.12579 17.9413 7.38574 18.3711C7.63594 18.7848 7.76204 18.9277 7.88281 19.042C8.16728 19.311 8.52036 19.5089 9.06934 19.7422C9.30577 19.8427 9.72395 19.9573 10.5996 20.0771C11.4586 20.1947 12.6916 20.2863 13.4199 20.3301C13.7862 20.3521 13.978 20.3589 14.1045 20.3574C14.2086 20.3562 14.2657 20.3493 14.3652 20.333C14.6 20.2946 14.9233 20.2249 15.2061 20.1328C15.4748 20.0453 15.7098 19.9357 15.9336 19.8047C16.1485 19.6788 16.3427 19.5386 16.5869 19.3135C16.845 19.0755 17.1475 18.7523 17.3555 18.5107C17.5327 18.3048 17.6018 18.2064 17.7422 17.9424C17.9 17.6455 18.1152 17.1937 18.2959 16.6865C18.4763 16.1801 18.6169 15.6289 18.6914 15.1367C18.7636 14.6599 18.7683 14.2602 18.7207 13.8525C18.6717 13.4329 18.565 13.0017 18.4473 12.6436C18.3466 12.3373 18.2521 12.1187 17.917 11.623C17.5615 11.0972 16.9685 10.3122 16.3066 9.49902C15.6449 8.68598 14.9485 7.88725 14.5508 7.4209C14.0694 6.85652 13.9533 6.67164 13.6553 6.21191C13.4013 5.82018 12.9825 5.1109 12.7598 4.73438C12.6371 4.52703 12.5349 4.34413 12.4463 4.18066C12.3154 4.3363 12.147 4.5353 11.9277 4.78906Z" fill="black"/>
</svg>
