<svg width="24" height="24" viewBox="0 0 24 24" fill="none" xmlns="http://www.w3.org/2000/svg">
<path d="M12.8335 1.86034C13.6704 1.84676 14.1368 1.85127 14.3999 1.87108C14.4918 1.87802 14.7069 1.89349 14.9087 1.98143C15.0334 2.03587 15.2723 2.16952 15.4214 2.46092C15.4929 2.60094 15.5195 2.73321 15.5288 2.83006C15.5332 2.87559 15.5339 2.91341 15.5337 2.93749C15.5336 2.94953 15.5339 2.96012 15.5337 2.96678C15.5335 2.97193 15.5328 2.97669 15.5327 2.9785C15.5195 3.27417 15.5282 3.84498 15.5386 4.15135C15.5435 4.2968 15.5465 4.36918 15.5278 7.11229C15.5091 9.87402 15.4682 15.3565 15.4448 18.2002C15.4331 19.6209 15.4264 20.3443 15.4214 20.7168C15.417 21.0408 15.4156 21.1514 15.4009 21.2529C15.3997 21.2612 15.3909 21.3259 15.3745 21.3945C15.3564 21.4701 15.3206 21.5884 15.2456 21.7158C15.0927 21.9753 14.872 22.0867 14.812 22.1162C14.7238 22.1595 14.6448 22.1829 14.602 22.1943C14.5135 22.218 14.429 22.2295 14.3735 22.2363C14.2542 22.2509 14.1107 22.2598 13.9663 22.2656C13.67 22.2776 13.2674 22.2821 12.812 22.2832C12.5126 22.2839 12.5041 22.2885 12.2876 22.2959C12.0725 22.3033 11.6942 22.3122 10.3325 22.3232C8.96872 22.3342 6.61729 22.3466 5.36084 22.3545C4.73722 22.3584 4.38973 22.3618 4.19482 22.3613C4.10125 22.3611 4.01827 22.3594 3.95068 22.3555C3.87494 22.351 3.76531 22.3407 3.63916 22.3008C3.31459 22.1977 3.0839 21.9712 2.95654 21.7129C2.85397 21.5045 2.83147 21.3016 2.82275 21.2012C2.81303 21.0887 2.81234 20.9696 2.81201 20.8828C2.81163 20.7836 2.81185 20.6924 2.80908 20.5869C2.80311 20.36 2.78582 20.0765 2.85107 19.292C2.90097 18.6924 3.04223 17.6448 3.10303 17.1211C3.20207 16.2677 3.19576 16.0163 3.23096 15.6377C3.23164 15.6301 3.23151 15.6273 3.23486 15.5742C3.23783 15.5274 3.2425 15.4658 3.25049 15.3769C3.26177 15.2516 3.28911 15.0109 3.32861 13.334C3.36821 11.6527 3.41879 8.56045 3.44678 6.94432C3.47474 5.32963 3.47896 5.28917 3.48389 5.12987C3.5034 4.35142 3.53892 3.92552 3.55127 3.66014C3.55292 3.57976 3.55545 3.48086 3.5581 3.38378C3.53089 3.29288 3.51516 3.19641 3.51514 3.09667C3.51533 2.54467 3.96314 2.09687 4.51514 2.09667C4.52872 2.09667 4.5367 2.09767 6.20654 2.04491C7.85588 1.99279 11.1378 1.88787 12.8335 1.86034ZM6.27002 4.04393C5.97609 4.05322 5.7322 4.05911 5.53076 4.06542C5.51478 4.32885 5.49631 4.64804 5.48291 5.18651V5.19237C5.47838 5.33863 5.47368 5.3695 5.4458 6.97948C5.41792 8.58931 5.3684 11.6925 5.32861 13.3818C5.28879 15.0723 5.25892 15.3641 5.2417 15.5557C5.2355 15.6246 5.23297 15.6683 5.23096 15.7002C5.22946 15.7238 5.22654 15.7761 5.22217 15.8232C5.2044 16.0143 5.18629 16.5163 5.08935 17.3515C5.01931 17.955 4.89081 18.8985 4.84424 19.458C4.80365 19.9459 4.80202 20.1887 4.80518 20.3574C4.95569 20.3564 5.13496 20.3558 5.34814 20.3545C6.06525 20.35 7.13387 20.3422 8.17236 20.3359C8.28648 16.1922 8.39506 12.2364 8.42529 9.51073C8.45717 6.63593 8.40496 5.1785 8.37939 4.44725C8.3722 4.24134 8.36758 4.09057 8.36377 3.97948C7.56561 4.00386 6.82712 4.02633 6.27002 4.04393ZM12.8667 3.86034C12.2111 3.87098 11.3128 3.89443 10.3628 3.92088C10.3665 4.02892 10.3714 4.17611 10.3784 4.37694C10.4048 5.13054 10.4566 6.61956 10.4243 9.53221C10.394 12.2621 10.2875 16.2082 10.1743 20.3232C10.2229 20.3229 10.2705 20.3236 10.3169 20.3232C11.678 20.3122 12.0329 20.3033 12.2192 20.2969C12.4038 20.2905 12.4655 20.284 12.8071 20.2832C13.0357 20.2826 13.2429 20.2798 13.4243 20.2773C13.4289 19.8515 13.4365 19.1956 13.4448 18.1836C13.4682 15.3413 13.5091 9.86087 13.5278 7.0996C13.5467 4.3206 13.5427 4.31095 13.5395 4.21874C13.5363 4.12234 13.5343 3.99545 13.5317 3.85546C13.351 3.85608 13.1317 3.85604 12.8667 3.86034ZM20.6714 13.915C20.8103 13.9367 21.0599 13.9987 21.2856 14.2051C21.8165 14.6908 21.6466 15.349 21.563 15.5928C21.463 15.8839 21.2647 16.2436 21.1021 16.5254C20.9291 16.8249 20.7257 17.1553 20.5933 17.3769C20.4078 17.6873 20.294 17.9047 20.2075 18.0654C20.1701 18.1351 20.1167 18.234 20.062 18.3174C20.034 18.36 19.9835 18.4339 19.9116 18.5088C19.8457 18.5774 19.6958 18.7176 19.4585 18.792C19.1474 18.8894 18.8367 18.8394 18.5903 18.7031C18.3798 18.5864 18.2507 18.4271 18.1831 18.332C18.0507 18.1457 17.9666 17.9305 17.9194 17.8037C17.7858 17.4445 17.7498 17.2771 17.6519 17.0596C17.4533 16.6958 17.2775 16.357 17.1519 16.0918C17.1441 16.0813 17.1299 16.0642 17.1079 16.0371C16.968 15.8647 16.8967 15.6591 16.8872 15.4531C16.7992 15.3043 16.7467 15.1316 16.7466 14.9463C16.7466 14.3942 17.1945 13.9465 17.7466 13.9463C17.7481 13.9463 17.7485 13.9465 18.1138 13.9433C18.4767 13.9402 19.1895 13.9336 19.5796 13.9277C20.102 13.9198 20.1975 13.9079 20.3745 13.9004C20.4105 13.8989 20.5321 13.8934 20.6714 13.915ZM18.2612 5.12694C18.4715 4.99305 18.741 4.92627 19.0239 4.97948C19.2638 5.02467 19.4288 5.1406 19.5063 5.20213C19.6465 5.31339 19.7571 5.45804 19.7935 5.50389C19.9866 5.74778 20.4699 6.41197 20.728 6.74706C21.0239 7.13116 21.1983 7.32015 21.3374 7.45116C21.4096 7.51911 21.4791 7.57768 21.5532 7.63963C21.5869 7.66776 21.6304 7.70491 21.6694 7.73924L21.8286 7.89647L21.8804 7.95897C21.9416 8.03941 22.0251 8.17189 22.0708 8.34862C22.1509 8.6594 22.0876 9.01876 21.8423 9.29393C21.6588 9.4995 21.444 9.57475 21.3745 9.59764C21.2843 9.62729 21.2042 9.64052 21.1675 9.64647C20.9389 9.68345 20.586 9.70631 20.2563 9.7412C19.9495 9.77368 19.4354 9.80118 19.1655 9.82128C18.9095 9.84035 18.6559 9.86452 18.5444 9.87206C18.4633 9.87753 18.394 9.87961 18.3394 9.88182C18.2833 9.88409 18.2401 9.88616 18.1909 9.88964C18.1478 9.89268 18.105 9.892 18.063 9.88964C17.8334 10.0346 17.5465 10.0875 17.2642 10.0098C16.7318 9.86311 16.4194 9.31265 16.5659 8.78026C16.5982 8.66288 16.6884 8.39114 16.9253 7.78612C17.1212 7.28576 17.4973 6.40661 17.6772 5.97264C17.7185 5.87314 17.7695 5.74976 17.8169 5.65233C17.8416 5.60153 17.8799 5.5261 17.9331 5.44823C17.9812 5.37793 18.085 5.23919 18.2612 5.12694Z" fill="black"/>
</svg>
