<svg width="24" height="24" viewBox="0 0 24 24" fill="none" xmlns="http://www.w3.org/2000/svg">
<path d="M7.4891 3.19143C8.37162 3.16961 10.0948 3.14227 11.3524 3.18362C12.5812 3.22404 13.4206 3.34089 14.2401 3.39553C15.1304 3.45486 16.2205 3.46641 16.8241 3.47463C17.1353 3.47887 17.3777 3.48788 17.5643 3.51662C17.6671 3.53249 17.7861 3.55907 17.91 3.6094C17.9769 3.63662 18.0347 3.66648 18.0819 3.69436L18.1932 3.76858L18.3114 3.86623C18.4167 3.9658 18.4857 4.06609 18.5272 4.12698C18.5879 4.21615 18.674 4.35318 18.7967 4.54787C19.0585 4.9632 19.5452 5.74963 20.0174 6.70217C20.2531 7.17771 20.4782 7.68275 20.6825 8.14748C20.8909 8.62169 21.0733 9.04308 21.2362 9.38869C21.5456 10.0454 21.7625 10.3711 22.0243 10.7471C22.1511 10.9294 22.2079 11.1396 22.202 11.3457C22.3907 11.5164 22.515 11.7582 22.5301 12.0322C22.5325 12.0763 22.5314 12.1202 22.5282 12.1631C22.5388 12.2186 22.5457 12.2756 22.5467 12.334C22.554 12.7561 22.5535 13.0433 22.5633 13.2432C22.5699 13.3764 22.5988 13.6115 22.5789 13.9375C22.57 14.0833 22.551 14.2744 22.536 14.4405C22.5197 14.6207 22.5035 14.8182 22.495 15.0332C22.4797 15.4169 22.4872 16.0958 22.4393 16.7295C22.3913 17.3648 22.3038 18.1179 22.1795 18.6104C22.1198 18.8469 22.0505 19.1394 21.9715 19.3614C21.9165 19.516 21.7308 20.0476 21.1776 20.2627C21.0188 20.3244 20.695 20.4012 20.3621 20.4629C20.1327 20.5054 19.8882 20.5655 19.117 20.7451C18.7512 20.8303 18.185 20.9521 17.5077 21.0479C16.8002 21.1479 16.0257 21.2112 13.7049 21.2158C11.3878 21.2205 7.59816 21.1681 5.60727 21.1153C4.61946 21.089 4.053 21.066 3.71273 21.0401C3.37788 21.0145 3.14646 20.9808 2.90609 20.8701C2.36064 20.6189 1.82771 20.2906 1.52328 19.5596C1.38473 19.2267 1.3128 18.9144 1.26645 17.8789C1.22876 17.0368 1.16732 15.5127 1.08969 14.5508C1.01496 13.6252 0.93031 13.2654 0.84457 12.8926C0.769167 12.5635 0.865572 12.2348 1.07504 12.001C1.1331 11.8506 1.22602 11.7175 1.34457 11.6123C1.44313 11.3261 1.58088 10.9477 1.77914 10.459C2.136 9.57951 2.68793 8.33949 3.22152 7.32326C3.76165 6.29467 4.26251 5.54001 4.65707 4.99319C5.05279 4.44477 5.32974 4.12345 5.48617 3.93655C5.52273 3.89286 5.55345 3.85563 5.5809 3.82229C5.60683 3.79079 5.63436 3.75679 5.65902 3.72756C5.70296 3.67549 5.78453 3.58062 5.89535 3.49221L5.97055 3.43655C6.05319 3.38067 6.15646 3.32608 6.28598 3.28713C6.41047 3.24974 6.5312 3.23633 6.6141 3.22854C6.78688 3.21231 7.0582 3.20209 7.4891 3.19143ZM5.95395 13.1035C5.30825 13.1539 4.15051 13.2433 3.44516 13.2881C3.26222 13.2997 3.10208 13.3071 2.96176 13.3155C3.00372 13.5944 3.04627 13.9366 3.08285 14.3897C3.16422 15.3978 3.22797 16.974 3.26449 17.7901C3.28653 18.2823 3.31262 18.5292 3.33383 18.6582C3.34325 18.7155 3.35064 18.7404 3.35238 18.7461C3.3536 18.7501 3.35489 18.7548 3.36996 18.791C3.38424 18.8253 3.3951 18.8424 3.40023 18.8496C3.4048 18.856 3.41191 18.8642 3.42563 18.876C3.45859 18.9042 3.52796 18.9495 3.69125 19.0274C3.7222 19.0314 3.77711 19.0392 3.86508 19.0459C4.14869 19.0675 4.66711 19.0898 5.66098 19.1162C7.6346 19.1686 11.4046 19.2205 13.701 19.2158C15.9927 19.2112 16.6581 19.1479 17.2274 19.0674C17.8266 18.9827 18.3318 18.8742 18.6639 18.7969C19.3913 18.6275 19.7084 18.5496 19.9969 18.4961C20.0525 18.4858 20.1047 18.4729 20.1532 18.4629C20.1789 18.3644 20.2054 18.2586 20.2401 18.1211C20.3199 17.8049 20.3976 17.1957 20.4442 16.5791C20.4909 15.9611 20.4742 15.5278 20.4969 14.9541C20.5074 14.6907 20.5262 14.4548 20.5438 14.2598C20.5626 14.0512 20.5763 13.9226 20.5829 13.8155C20.5938 13.6359 20.5805 13.6499 20.5653 13.3418C20.5623 13.2822 20.5632 13.2148 20.5614 13.1416C18.8891 13.2347 17.3652 13.3235 16.5125 13.377C16.2336 13.3945 16.0296 13.4094 15.8807 13.4199C15.8751 13.4292 15.8701 13.4394 15.8641 13.4492C15.7602 13.62 15.6351 13.8999 15.326 14.5489C15.1368 14.9461 14.8629 15.491 14.7118 15.7803C14.6575 15.8842 14.4623 16.3224 13.9393 16.5137C13.7485 16.5834 13.5613 16.603 13.4286 16.6123C13.2878 16.6222 13.1221 16.6246 12.9442 16.626C12.2119 16.6319 10.8241 16.62 10.1131 16.6035C9.76431 16.5955 9.54865 16.5855 9.41098 16.5723C9.34885 16.5663 9.24674 16.5559 9.13949 16.5254C8.96563 16.4759 8.84522 16.397 8.76937 16.3379C8.76594 16.3353 8.73818 16.3136 8.7098 16.2891C8.67638 16.2602 8.64518 16.2303 8.61605 16.2002C8.56311 16.1456 8.50555 16.0786 8.43832 15.9971C8.08886 15.5732 7.73929 15.1307 7.49301 14.7061C7.37672 14.5056 7.13197 14.1014 6.97055 13.7315C6.83215 13.4143 6.7354 13.196 6.67074 13.0479C6.51034 13.0601 6.28394 13.0778 5.95395 13.1035ZM11.286 5.18264C10.0897 5.14333 8.41583 5.16877 7.53891 5.19045C7.32107 5.19584 7.15824 5.20112 7.03598 5.20608C7.03479 5.20611 7.03322 5.20603 7.03207 5.20608C7.02817 5.21075 7.02438 5.2159 7.02035 5.22073C6.862 5.40993 6.6276 5.68022 6.27914 6.16311C5.92938 6.64785 5.48072 7.32231 4.99203 8.25295C4.49691 9.1959 3.97245 10.3735 3.63266 11.211C3.62459 11.2309 3.61707 11.2511 3.60922 11.2705C4.29711 11.2236 5.23527 11.1534 5.79867 11.1094C6.67033 11.0414 6.9036 11.0193 7.17562 11.0244C7.70247 11.0345 8.01076 11.3922 8.10434 11.5088C8.23242 11.6685 8.32474 11.8456 8.38559 11.9766C8.44554 12.1057 8.57339 12.4042 8.80355 12.9317C8.9065 13.1676 9.07049 13.4384 9.22348 13.7022C9.36264 13.9422 9.5807 14.232 9.87582 14.5947C9.95262 14.5974 10.046 14.6009 10.159 14.6035C10.8515 14.6196 12.2181 14.6326 12.9276 14.627C12.9749 14.6266 13.0176 14.6236 13.0555 14.6231C13.1981 14.3433 13.3849 13.9729 13.5204 13.6885C13.7832 13.1367 13.9819 12.6966 14.1561 12.4102C14.2352 12.2802 14.3131 12.1491 14.3748 12.0557C14.4073 12.0066 14.452 11.9409 14.5067 11.876C14.559 11.8139 14.6539 11.7115 14.7948 11.624L14.8573 11.585L14.9246 11.5567C15.1158 11.4738 15.3026 11.4594 15.4246 11.4483C15.5891 11.4333 15.8747 11.413 16.3866 11.3809C17.1535 11.3328 18.4552 11.257 19.9178 11.1748C19.7672 10.9208 19.607 10.624 19.4266 10.2412C19.2491 9.86448 19.0512 9.40446 18.8524 8.95217C18.6493 8.49009 18.4392 8.02113 18.2254 7.58987C17.7985 6.72856 17.3538 6.01005 17.1043 5.61428C17.0725 5.56383 17.0443 5.5189 17.0194 5.47951C16.958 5.47756 16.8848 5.47582 16.7977 5.47463C16.2122 5.46666 15.0612 5.4543 14.1063 5.39065C13.0807 5.32225 12.5107 5.22292 11.286 5.18264Z" fill="black"/>
</svg>
