<svg width="24" height="24" viewBox="0 0 24 24" fill="none" xmlns="http://www.w3.org/2000/svg">
<path d="M13.3176 1.47651C14.3332 1.46907 14.6371 1.50329 14.9455 1.52339C15.4715 1.55765 15.8644 1.60009 16.219 1.67866C16.5843 1.75966 16.8751 1.87079 17.1907 2.0019C17.5407 2.14737 18.0723 2.41472 18.4856 2.66011C19.2737 3.12802 19.6912 3.58676 20.0344 4.0478C20.2987 4.40302 20.5928 4.93479 20.969 5.78413C21.3509 6.64654 21.8168 7.87896 22.136 8.87495C22.4606 9.88798 22.6252 10.6386 22.7268 11.3525C22.8266 12.0544 22.8601 12.6903 22.8616 13.1259C22.8641 13.8877 22.6462 14.5639 22.4231 15.1953C22.1968 15.8351 21.8152 16.29 21.8147 16.29C21.6816 16.5007 21.4703 16.7666 21.051 17.2314C20.6273 17.7012 19.941 18.4187 19.4934 18.8955C19.0601 19.357 18.7886 19.6601 18.5412 19.8984C18.2556 20.1736 17.9823 20.3828 17.5569 20.6279C17.1601 20.8564 16.6225 21.1199 16.2434 21.2998C15.5684 21.6199 14.9883 21.8008 14.4885 21.9121C14.0571 22.0081 13.433 22.1646 13.0129 22.2509C12.7313 22.3087 12.314 22.3656 11.6789 22.3896C11.0508 22.4133 10.2088 22.3981 9.72484 22.3798C8.97719 22.3515 8.47615 22.1804 7.84691 21.9355C6.98816 21.6012 6.4956 21.2253 6.26 21.0673C6.10101 20.9608 5.60175 20.6437 5.31761 20.4472C4.97238 20.2085 4.7561 20.0287 4.4514 19.7177C3.81348 19.0665 3.35364 18.5068 3.17796 18.2392C2.88418 17.7915 2.65625 17.2835 2.43871 16.7294C2.32578 16.4418 2.29237 16.1764 2.25023 15.9443C2.19361 15.6324 2.1453 15.1392 2.10277 14.3613C2.05919 13.5639 2.0282 12.4234 2.09691 11.2392C2.16554 10.0572 2.33382 8.88351 2.43187 8.23823C2.55532 7.42591 2.65071 7.09668 2.84886 6.51167C2.99513 6.07991 3.26278 5.4624 3.47386 5.02143C3.8562 4.22276 4.24246 3.76041 4.48949 3.47065C5.00302 2.86853 5.56519 2.69164 6.1057 2.55366L6.11742 2.55073L7.91039 2.12007C8.07551 2.07961 8.16243 2.03826 8.23851 1.998C8.26284 1.98512 8.28749 1.97179 8.31957 1.95405C8.34898 1.93779 8.38804 1.91601 8.42894 1.89448C8.47376 1.8709 8.52557 1.8451 8.58324 1.81929C8.68503 1.75398 8.78391 1.71096 8.86449 1.68354C8.9984 1.63803 9.1434 1.61001 9.29418 1.59077C9.44923 1.571 9.63642 1.55692 9.86449 1.55073C10.6827 1.52852 12.3273 1.48378 13.3176 1.47651ZM13.3323 3.47651C12.3665 3.4836 10.7449 3.52829 9.9182 3.55073C9.73877 3.55561 9.6265 3.56479 9.56273 3.57222C9.55486 3.57644 9.54638 3.57987 9.53832 3.58393C9.49941 3.60351 9.45947 3.62294 9.41722 3.63765L9.17504 3.76558C8.98206 3.86775 8.74018 3.97569 8.38597 4.06245C7.87668 4.1872 7.00715 4.39273 6.59007 4.49409C6.36366 4.55218 6.25649 4.58948 6.18382 4.62593C6.13144 4.65224 6.08159 4.68568 6.01097 4.76851C5.81319 5.00049 5.55228 5.31091 5.27757 5.88472C5.084 6.28911 4.85391 6.8271 4.74339 7.15327C4.57749 7.64309 4.51292 7.85787 4.40941 8.53901C4.31339 9.1709 4.15701 10.2695 4.09398 11.3554C4.03108 12.4395 4.0587 13.4992 4.09984 14.2519C4.14199 15.0229 4.18554 15.4079 4.218 15.5869C4.23216 15.6648 4.2439 15.7357 4.25316 15.788C4.26303 15.8439 4.27039 15.882 4.2766 15.9121C4.28678 15.9613 4.29227 15.9792 4.30004 15.999C4.5009 16.5106 4.6705 16.8668 4.85082 17.1416C4.92202 17.2499 5.27684 17.7025 5.88011 18.3183C6.09244 18.535 6.21054 18.6335 6.45531 18.8027C6.76169 19.0145 7.08918 19.2148 7.37328 19.4052C7.65588 19.5946 7.95836 19.8322 8.5725 20.0712C9.13461 20.2901 9.38826 20.3652 9.80101 20.3808C10.2623 20.3982 11.0476 20.4125 11.6037 20.3916C12.1525 20.3708 12.4576 20.3234 12.6106 20.2919C13.0371 20.2043 13.5061 20.082 14.0549 19.9599C14.4179 19.8791 14.8551 19.7454 15.3869 19.4931C15.76 19.3162 16.235 19.0814 16.5578 18.8955C16.8516 18.7262 16.9927 18.6129 17.1536 18.458C17.3529 18.2659 17.5479 18.0456 18.0354 17.5263C18.5087 17.0222 19.1593 16.3429 19.5657 15.8925C19.9749 15.4389 20.0884 15.2794 20.1243 15.2226C20.3459 14.8714 20.4083 14.8933 20.5373 14.5283C20.7561 13.9091 20.8628 13.519 20.8616 13.1328C20.8603 12.7812 20.8322 12.2373 20.7463 11.6337C20.6621 11.042 20.5253 10.4016 20.2317 9.4853C19.9325 8.55154 19.4907 7.38582 19.1399 6.5937C18.7839 5.78999 18.5611 5.4185 18.4299 5.24214C18.2099 4.94662 17.98 4.68613 17.4641 4.37983C17.1225 4.17703 16.6757 3.95455 16.4231 3.84956C16.1428 3.73311 15.98 3.67471 15.7864 3.63179C15.5818 3.58644 15.3092 3.55066 14.8157 3.51851C14.5159 3.49897 14.2719 3.46963 13.3323 3.47651ZM10.4211 15.7617C10.5692 15.2299 11.1207 14.9177 11.6526 15.0654C11.7666 15.0971 11.8454 15.1188 11.8987 15.1308C11.9178 15.1351 11.9297 15.1376 11.9368 15.1386C11.9438 15.1397 11.9523 15.1401 11.968 15.1416C12.0219 15.1466 12.0999 15.1523 12.2766 15.1796C12.822 15.2642 13.1957 15.7748 13.1116 16.3203C13.0272 16.8659 12.5166 17.2403 11.9709 17.1562C11.9106 17.1469 11.8766 17.1428 11.8567 17.1406C11.8308 17.1377 11.8283 17.1379 11.7834 17.1337C11.6974 17.1258 11.5958 17.1132 11.4612 17.083C11.3478 17.0575 11.2146 17.0202 11.1174 16.9931C10.5855 16.8451 10.2735 16.2936 10.4211 15.7617ZM11.5334 6.15034C12.0782 6.05976 12.5932 6.42789 12.6838 6.97261C12.7176 7.17574 12.7415 7.365 12.7659 8.20308C12.7892 9.00561 12.8164 10.6027 12.8606 12.2109C12.8758 12.763 12.44 13.223 11.8879 13.2382C11.3362 13.2532 10.877 12.8183 10.8616 12.2666C10.8149 10.569 10.7908 9.11909 10.7659 8.26167C10.742 7.44041 10.7216 7.3634 10.7112 7.30073C10.6206 6.75598 10.9887 6.24095 11.5334 6.15034ZM8.9055 1.71089C8.91164 1.70975 8.91789 1.70898 8.92406 1.70796C8.926 1.70763 8.92798 1.7073 8.92992 1.70698C8.92176 1.70829 8.91356 1.70938 8.9055 1.71089Z" fill="black"/>
</svg>
