<svg width="24" height="24" viewBox="0 0 24 24" fill="none" xmlns="http://www.w3.org/2000/svg">
<path d="M11.8515 19.7146C12.3982 19.6367 12.9052 20.0167 12.9834 20.5633C13.0068 20.7277 13.0349 20.9235 13.0527 21.1277C13.0673 21.2944 13.0796 21.5606 13.082 21.5955C13.0825 21.6031 13.0816 21.6096 13.082 21.6141L13.083 21.615C13.0836 21.6178 13.0841 21.6219 13.0849 21.6258C13.2053 22.1647 12.8661 22.6997 12.3271 22.8201C11.7886 22.94 11.2544 22.6007 11.1338 22.0623C11.1187 21.9949 11.0989 21.9073 11.0869 21.7332C11.0747 21.5572 11.076 21.4805 11.0605 21.3025C11.0482 21.1614 11.0275 21.0191 11.0029 20.8465C10.925 20.3 11.3052 19.7929 11.8515 19.7146ZM16.0244 18.1287C16.5764 18.1115 17.0384 18.5455 17.0556 19.0975C17.0614 19.2807 17.0672 19.473 17.0703 19.6707C17.0742 19.9187 17.0724 20.0116 17.0752 20.1609C17.076 20.2084 17.0774 20.2314 17.0781 20.242C17.0787 20.2522 17.0784 20.2559 17.081 20.284C17.1328 20.8337 16.7294 21.3219 16.1797 21.3738C15.6301 21.4256 15.143 21.022 15.0908 20.4725C15.085 20.4107 15.0779 20.3457 15.0752 20.1971C15.0737 20.1154 15.0723 19.8317 15.0703 19.7019C15.0675 19.5223 15.0614 19.3454 15.0556 19.16C15.0384 18.608 15.4724 18.146 16.0244 18.1287ZM9.0908 17.2439C9.64278 17.2441 10.0905 17.692 10.0908 18.2439C10.0908 18.3966 10.0906 18.5536 10.0879 18.7908C10.0851 19.0258 10.0798 19.3359 10.0742 19.6502C10.0643 20.2022 9.60862 20.6422 9.05662 20.6326C8.50457 20.6228 8.06464 20.167 8.07419 19.615C8.07981 19.2985 8.08519 18.995 8.08787 18.7674C8.09051 18.5423 8.0908 18.3947 8.0908 18.2439C8.09105 17.6919 8.53867 17.2439 9.0908 17.2439ZM11.5771 2.00078C12.2765 1.99442 12.6057 2.04607 12.8711 2.10429C13.3292 2.20483 13.6689 2.37906 14.1142 2.68632C14.4522 2.91957 14.9118 3.32378 15.1836 3.56816C15.7422 4.0705 16.0281 4.57029 16.2978 5.16484C16.4769 5.55962 16.6496 6.08715 16.7715 6.55449C16.9046 7.06515 16.9653 7.51851 17.0039 8.06328C17.0298 8.42885 17.0446 8.84649 17.0508 9.20976C17.274 9.17869 17.4846 9.15605 17.6338 9.14042C18.2728 9.07349 18.648 9.12364 18.8926 9.16972C19.1254 9.21359 19.325 9.31101 19.4853 9.40312C19.6493 9.49734 19.8353 9.6232 20.0478 9.77519C20.3864 10.0174 20.8512 10.4292 21.0849 10.6336C21.5385 11.0302 21.7871 11.4315 22 11.8035C22.1297 12.0302 22.2063 12.2838 22.2627 12.5174C22.3213 12.7606 22.3749 13.0585 22.4326 13.41C22.5171 13.9251 22.5003 14.5717 22.498 14.8641C22.4934 15.468 22.3566 15.9293 22.2431 16.3133C22.1195 16.7316 21.8763 17.1013 21.6406 17.4266C21.2911 17.9087 20.819 18.1697 20.5234 18.3318L20.4951 18.3484L20.4648 18.3621C20.0994 18.5324 19.7296 18.6768 19.3291 18.7576C18.7877 18.8667 18.2595 18.5158 18.1504 17.9744C18.0417 17.4332 18.3924 16.9057 18.9336 16.7967C19.1097 16.7612 19.3099 16.6911 19.5879 16.5633C19.866 16.4093 19.9636 16.3325 20.0215 16.2527C20.2399 15.9514 20.3048 15.8156 20.3252 15.7469C20.4364 15.3705 20.4957 15.1458 20.498 14.8484C20.5009 14.472 20.5089 14.0371 20.459 13.7332C20.4024 13.3891 20.3586 13.1531 20.3183 12.9861C20.2759 12.8101 20.2526 12.7756 20.2646 12.7967C20.0874 12.487 19.9702 12.3158 19.7685 12.1394C19.4954 11.9006 19.122 11.5716 18.8838 11.4012C18.6843 11.2585 18.5643 11.1797 18.4892 11.1365C18.4816 11.1321 18.4744 11.1289 18.4687 11.1258C18.4282 11.1194 18.3797 11.1132 18.3154 11.1102C18.2159 11.1054 18.0639 11.1064 17.8418 11.1297C17.4647 11.1692 17.0677 11.2173 16.8711 11.2742C16.7327 11.3143 16.6234 11.3624 16.5244 11.407C16.5045 11.416 16.3921 11.4688 16.2949 11.4998C16.2627 11.51 16.2053 11.5273 16.1338 11.5389C16.074 11.5485 15.9274 11.5675 15.748 11.5281C15.5391 11.4822 15.2557 11.3452 15.082 11.033C14.9308 10.761 14.949 10.5055 14.9648 10.3953L14.997 10.2293C15.0044 10.1948 15.0112 10.1574 15.0185 10.1111C15.0331 10.019 15.0507 9.86803 15.0537 9.63652C15.0583 9.27068 15.0428 8.68561 15.0088 8.20488C14.9757 7.73755 14.9293 7.41402 14.8369 7.05937C14.7331 6.66135 14.5939 6.24966 14.4765 5.99101C14.2663 5.5275 14.1204 5.30165 13.8467 5.05546C13.5612 4.79876 13.194 4.48051 12.9785 4.33183C12.6601 4.1122 12.5615 4.08355 12.4424 4.05742C12.3426 4.03554 12.1653 3.99464 11.5957 3.9998C10.9922 4.00529 10.0492 4.06013 9.39353 4.15117C8.76174 4.23892 8.44902 4.35141 8.24412 4.44999C8.04775 4.5445 7.92277 4.63679 7.73044 4.83085C7.51471 5.04858 7.26782 5.34084 7.07029 5.62968C6.86293 5.93293 6.71153 6.20993 6.63376 6.38847C6.48203 6.73701 6.40946 6.95256 6.35544 7.24589C6.31701 7.45469 6.27044 7.7505 6.25583 8.24882C6.24043 8.77508 6.26113 9.47058 6.31247 9.90019C6.32551 10.0091 6.33851 10.0896 6.35447 10.2019C6.36731 10.2924 6.3875 10.4378 6.38669 10.5867C6.3858 10.7413 6.36344 10.9897 6.2197 11.243C6.066 11.5136 5.8398 11.6764 5.63376 11.7703C5.32162 11.9125 4.94044 11.9454 4.73142 11.9598C4.50074 11.9756 4.26214 11.9773 4.10837 11.9793C4.06379 12.0666 4.00942 12.1826 3.94919 12.3328C3.81844 12.6591 3.6708 13.0845 3.58884 13.366C3.51975 13.6035 3.50916 13.6911 3.50486 13.8787C3.49809 14.1743 3.49782 14.4495 3.53025 14.6336C3.61818 15.1323 3.66784 15.2538 3.75193 15.3894C3.91938 15.6594 4.18857 16.0925 4.33982 16.3103C4.51743 16.5661 4.58337 16.6262 4.66794 16.6814C4.69939 16.702 4.73823 16.7241 4.80466 16.7498C4.87633 16.7775 4.9925 16.8146 5.18064 16.8514C5.46935 16.9077 5.83765 16.9667 6.05466 16.9822C6.6054 17.0217 7.01971 17.5008 6.98044 18.0516C6.94084 18.6021 6.46271 19.0166 5.91208 18.9773C5.56946 18.9528 5.10409 18.8741 4.79783 18.8143C4.2274 18.7029 3.86773 18.5479 3.57419 18.3562C3.164 18.0884 2.92075 17.7743 2.69626 17.451C2.50812 17.18 2.20626 16.6933 2.05173 16.4441C1.75746 15.9696 1.65765 15.5321 1.56052 14.9812C1.48791 14.5692 1.49888 14.0935 1.50486 13.8328C1.51332 13.4642 1.5524 13.2045 1.66794 12.8074C1.77071 12.4543 1.9413 11.9666 2.09275 11.5887C2.22708 11.2535 2.3644 10.976 2.50388 10.7566C2.62096 10.5725 2.81573 10.3052 3.11033 10.1443L3.26169 10.074C3.40935 10.0182 3.5429 10.0009 3.64158 9.99296C3.74904 9.98438 3.88988 9.98344 4.03708 9.98124C4.12532 9.97993 4.21748 9.97461 4.31052 9.97246C4.25812 9.43045 4.24116 8.72482 4.25681 8.19023C4.27495 7.5714 4.33544 7.17257 4.38865 6.88359C4.47881 6.394 4.6092 6.02736 4.79978 5.58964C4.93918 5.26953 5.15919 4.88203 5.4199 4.50078C5.69053 4.10505 6.01531 3.72059 6.30955 3.42363C6.62705 3.10321 6.93382 2.8615 7.37693 2.64824C7.81163 2.43905 8.33469 2.27963 9.11912 2.1707C9.88023 2.06504 10.9112 2.00684 11.5771 2.00078ZM12.2041 14.8719C12.7563 14.8719 13.2039 15.3197 13.2041 15.8719V15.8533C13.2042 15.8572 13.2048 15.8622 13.2051 15.868C13.2067 15.9054 13.21 15.9801 13.2168 16.1287C13.2303 16.4265 13.2572 17.0203 13.2851 17.6316C13.3103 18.1833 12.8836 18.6513 12.332 18.6766C11.7804 18.7017 11.3124 18.2751 11.2871 17.7234C11.2592 17.112 11.2323 16.5176 11.2187 16.2195C11.2065 15.9497 11.2041 15.9045 11.2041 15.8719C11.2042 15.3197 11.6519 14.8719 12.2041 14.8719ZM16.0498 13.4217C16.602 13.4217 17.0498 13.8694 17.0498 14.4217C17.0498 14.4055 17.0489 14.3927 17.0488 14.3894C17.0486 14.3848 17.0489 14.3806 17.0488 14.3787L17.0498 14.3885C17.0509 14.4058 17.0522 14.4325 17.0547 14.4676C17.0594 14.5343 17.0664 14.6307 17.0761 14.7527L17.1211 15.1971C17.1392 15.4403 17.1605 15.8396 17.1816 16.2322C17.2113 16.7837 16.7878 17.2552 16.2363 17.285C15.6849 17.3145 15.2142 16.891 15.1845 16.3396C15.1628 15.9362 15.1421 15.5629 15.126 15.3455C15.1097 15.1267 15.1039 15.1223 15.0869 14.9539L15.0859 14.9432L15.0849 14.9334C15.0656 14.693 15.0498 14.4783 15.0498 14.4217C15.0498 13.8694 15.4975 13.4217 16.0498 13.4217ZM9.04685 12.8035C9.58902 12.6999 10.1138 13.0554 10.2177 13.5975C10.2393 13.7101 10.2572 13.8047 10.2705 13.866C10.2799 13.9097 10.3013 13.9937 10.3281 14.1414C10.354 14.2843 10.3899 14.5085 10.4326 14.8006C10.5125 15.3468 10.134 15.8551 9.58786 15.9353C9.04151 16.0153 8.5332 15.6369 8.4531 15.0906C8.41167 14.8073 8.38026 14.6088 8.36033 14.4988C8.34134 14.3941 8.33875 14.3968 8.3154 14.2889C8.29591 14.1988 8.2726 14.0773 8.2529 13.9744C8.14905 13.4321 8.50461 12.9075 9.04685 12.8035ZM13.2041 15.8426C13.2041 15.8447 13.204 15.8488 13.2041 15.8533C13.2037 15.8446 13.2032 15.8398 13.2031 15.8377C13.2031 15.8386 13.2039 15.8405 13.2041 15.8426Z" fill="black"/>
</svg>
