<svg width="24" height="24" viewBox="0 0 24 24" fill="none" xmlns="http://www.w3.org/2000/svg">
<path d="M7.23141 19.7169C7.78257 19.6904 8.25116 20.116 8.27829 20.667C8.30498 21.2185 7.87952 21.688 7.32809 21.7149C7.03577 21.729 6.73199 21.7436 6.37985 21.7471C6.03217 21.7506 5.6514 21.7433 5.29 21.7364C4.73823 21.7255 4.29919 21.2697 4.30954 20.7178C4.32025 20.1659 4.77708 19.726 5.32907 19.7364C5.69742 19.7434 6.04725 19.7503 6.36032 19.7471C6.66912 19.744 6.93674 19.7311 7.23141 19.7169ZM15.8965 19.626C16.4439 19.5557 16.9458 19.943 17.0166 20.4903C17.087 21.0379 16.6998 21.5397 16.1523 21.6104C16.0197 21.6275 15.913 21.6318 15.8222 21.6338C15.7768 21.6349 15.759 21.6353 15.7256 21.6368C15.6946 21.6382 15.6477 21.6406 15.5722 21.6475C15.3765 21.6655 15.0778 21.6989 14.1162 21.7188C13.1715 21.7384 11.6155 21.7456 10.8086 21.7462C10.0227 21.7467 9.90505 21.7413 9.7861 21.7305C9.23607 21.6807 8.83002 21.1946 8.87985 20.6446C8.93 20.095 9.41612 19.6897 9.96579 19.7393C9.97281 19.74 9.98841 19.7467 10.8076 19.7462C11.613 19.7456 13.1519 19.7379 14.0752 19.7188C14.9808 19.7 15.2309 19.6708 15.3886 19.6563C15.6008 19.6368 15.7013 19.6356 15.7773 19.6338C15.828 19.6327 15.8585 19.6309 15.8965 19.626ZM14.0586 16.2178C15.0794 16.2189 17.1205 16.2213 18.1943 16.2247C19.2553 16.228 19.3298 16.2325 19.4043 16.2364C19.4177 16.2371 19.4349 16.2374 19.4814 16.2374C20.0335 16.2376 20.4814 16.6852 20.4814 17.2374C20.4812 17.7893 20.0333 18.2371 19.4814 18.2374C19.4416 18.2374 19.3727 18.2373 19.2988 18.2335C19.2855 18.2327 19.259 18.228 18.1875 18.2247C17.1162 18.2213 15.0784 18.2189 14.0566 18.2178C13.0895 18.2168 13.0357 18.2168 13.0312 18.2169C12.4789 18.2169 12.0312 17.7691 12.0312 17.2169C12.0312 16.6646 12.4789 16.2169 13.0312 16.2169C13.0358 16.2168 13.0784 16.2168 14.0586 16.2178ZM9.52829 15.9249C10.079 15.8843 10.5589 16.298 10.5996 16.8487C10.64 17.3992 10.2263 17.8782 9.67575 17.919C8.80781 17.9831 8.03068 18.0367 7.03805 18.0811C6.05015 18.1254 4.88591 18.1597 4.26657 18.1768C3.64959 18.1939 3.55803 18.1944 3.46481 18.1944C2.91256 18.1944 2.46487 17.7466 2.46481 17.1944C2.46483 16.6421 2.91254 16.1944 3.46481 16.1944C3.52673 16.1944 3.59211 16.1949 4.2109 16.1778C4.82865 16.1607 5.97834 16.1265 6.94821 16.0831C7.91312 16.0399 8.66859 15.9884 9.52829 15.9249ZM9.67868 2.13678C10.5154 2.09806 11.5653 2.10568 12.372 2.17291C13.2103 2.24281 13.7647 2.37812 14.2881 2.55572C14.8028 2.73045 15.2739 2.94158 15.8369 3.27056C16.3829 3.58966 17.0055 4.01578 17.4082 4.30963C17.84 4.62479 18.066 4.82512 18.3603 5.17681C18.6149 5.48108 18.9303 5.90805 19.1269 6.20513C19.5235 6.80453 19.6256 7.49639 19.7021 8.08111C19.7587 8.51397 19.7158 8.96949 19.6533 9.37701C19.7845 9.41406 19.9074 9.44853 20.0195 9.47857C20.1474 9.51285 20.2749 9.5465 20.3759 9.57525C20.4151 9.58639 20.4715 9.60265 20.5332 9.6231L20.7256 9.69732L20.9082 9.79107C21.3123 10.0157 21.568 10.282 21.8535 10.546C22.1289 10.8006 22.3294 11.0669 22.4648 11.3878C22.5834 11.6689 22.6343 11.9632 22.6728 12.1583C22.8097 12.8522 22.6424 13.4647 22.5341 13.7745C22.3519 14.2958 21.7811 14.571 21.2597 14.3887C20.7387 14.2063 20.4633 13.6355 20.6455 13.1143C20.7042 12.9463 20.7477 12.7315 20.7109 12.545C20.6864 12.4209 20.6718 12.3438 20.6552 12.2754C20.6401 12.213 20.6291 12.1819 20.622 12.1651C20.6171 12.1533 20.603 12.1126 20.4961 12.0137C20.0965 11.6443 20.0473 11.5919 19.8945 11.5176C19.882 11.5137 19.8601 11.5072 19.8281 11.4981C19.7466 11.4749 19.6425 11.4479 19.5019 11.4102C19.229 11.3371 18.8609 11.2371 18.4511 11.1036C18.3801 11.0804 18.2642 11.0404 18.1504 10.9805C18.0323 10.9184 17.8194 10.7852 17.6738 10.5235C17.5252 10.256 17.528 10.0017 17.5381 9.87701C17.5467 9.77027 17.5717 9.65978 17.5761 9.63775C17.6933 9.05973 17.7583 8.64259 17.7187 8.3399C17.6378 7.72203 17.5681 7.47479 17.459 7.30963C17.3004 7.07009 17.0302 6.7027 16.8271 6.46002C16.6639 6.265 16.5686 6.17236 16.2295 5.92486C15.8605 5.65564 15.2959 5.2711 14.8271 4.99713C14.3758 4.73339 14.0267 4.57901 13.6445 4.44928C13.2708 4.32246 12.8767 4.22103 12.206 4.1651C11.5033 4.10654 10.542 4.09918 9.77145 4.13482C9.01218 4.16998 8.47074 4.24402 8.11618 4.30767C7.75656 4.37225 7.61898 4.4144 7.4775 4.46978C7.24984 4.55894 7.07046 4.63283 6.93551 4.69537C6.82265 4.7477 6.77313 4.77748 6.76168 4.78424C6.64159 4.87811 6.46279 5.02435 6.28317 5.28717C6.06487 5.6066 5.87371 5.95238 5.75094 6.34576C5.6969 6.51901 5.65067 6.70676 5.61618 7.18463C5.57918 7.69761 5.56039 8.45363 5.54586 8.8858C5.54256 8.9841 5.53907 9.08436 5.53317 9.169C5.52791 9.2443 5.51747 9.37437 5.47946 9.5108C5.43492 9.67057 5.34035 9.8862 5.13375 10.0674C4.95164 10.2271 4.76001 10.2878 4.69625 10.3077C4.64379 10.324 4.58847 10.3401 4.54684 10.3526C4.50191 10.366 4.4645 10.3773 4.42965 10.3887C4.36063 10.4113 4.31341 10.4308 4.27633 10.4493C4.21903 10.4779 4.15558 10.5195 4.07809 10.628C3.76344 11.0685 3.57827 11.392 3.5234 11.6055C3.43712 11.9418 3.39154 12.2063 3.43454 12.461C3.51981 12.965 3.67957 13.238 3.70797 13.2833C4.00215 13.7507 3.86094 14.369 3.39352 14.6631C2.92619 14.9567 2.30864 14.8159 2.01461 14.3487C1.86533 14.1113 1.59679 13.592 1.46188 12.794C1.34363 12.0941 1.49138 11.4768 1.5859 11.1085C1.74387 10.493 2.14273 9.8966 2.45114 9.4649C2.80015 8.97647 3.21428 8.72579 3.55465 8.58209C3.56793 8.15109 3.58735 7.50728 3.62106 7.0401C3.66425 6.44179 3.73324 6.09903 3.84176 5.75103C4.04173 5.11008 4.3427 4.5827 4.63278 4.15826C4.97745 3.65407 5.33501 3.36067 5.53024 3.20806C5.70608 3.07068 5.91803 2.96281 6.09469 2.88092C6.28588 2.79232 6.51024 2.7006 6.74801 2.60748C7.05344 2.48788 7.3287 2.41783 7.76266 2.3399C8.20247 2.26094 8.83074 2.17604 9.67868 2.13678Z" fill="black"/>
</svg>
