<svg width="24" height="24" viewBox="0 0 24 24" fill="none" xmlns="http://www.w3.org/2000/svg">
<path d="M17.6631 3.03104C18.1453 3.03443 18.7609 3.07902 19.1406 3.11697C19.7129 3.17419 20.0458 3.27491 20.3457 3.44412C20.5546 3.56207 20.7325 3.72559 20.9062 3.89725C21.1043 4.09293 21.3711 4.38288 21.6279 4.7117C21.8845 5.04013 22.1176 5.39145 22.2598 5.61795C22.4223 5.87697 22.5138 6.05259 22.5977 6.3494C22.6704 6.60719 22.736 6.94154 22.7783 7.53592C22.8198 8.11804 22.8397 8.97817 22.7959 9.80447C22.7517 10.6368 22.6425 11.4004 22.54 11.9529C22.4352 12.5182 22.3365 12.86 22.2373 13.1541C22.1413 13.4386 22.0456 13.6776 21.917 13.9334C21.7812 14.2035 21.6182 14.4725 21.3193 14.8543C21.0085 15.2513 20.5622 15.7512 19.6201 16.5232C18.6981 17.2787 17.2948 18.2954 16.3311 18.9461C15.3445 19.6121 14.8021 19.9047 14.0752 20.1902C13.3941 20.4577 12.5729 20.7098 12.1084 20.8445C11.7578 20.9462 11.4346 20.9945 11.1211 20.9754C10.7966 20.9555 10.5476 20.8673 10.3623 20.7879C10.2023 20.7193 10.0692 20.6162 10.0137 20.573C9.93505 20.5118 9.84974 20.4389 9.76562 20.365C9.59758 20.2174 9.3818 20.0188 9.14648 19.8035C9.05849 19.723 9.00476 19.6759 8.9375 19.617C8.8669 19.5551 8.78541 19.4825 8.64941 19.3592C8.40819 19.1405 7.93122 18.7161 7.16699 17.948C6.4106 17.1879 5.38444 16.104 4.78223 15.448C4.17865 14.7905 4.00261 14.5642 3.87988 14.3924C3.8115 14.2966 3.72113 14.1632 3.625 14.0213C3.52466 13.8732 3.40539 13.6978 3.26562 13.4988C3.13621 13.3146 3.04686 13.1953 2.91895 12.9822C2.53465 12.3421 2.38267 12.085 2.25586 11.8279C2.20085 11.7163 2.14373 11.5563 2.10352 11.4431C2.05637 11.3105 1.99431 11.1306 1.93262 10.9549C1.89965 10.8609 1.87658 10.7864 1.85254 10.6853C1.83545 10.6134 1.81256 10.5051 1.7832 10.3719C1.71836 10.0775 1.585 9.48055 1.51562 9.1619C1.48307 9.01237 1.45346 8.87787 1.4375 8.75369C1.4184 8.60471 1.42003 8.48713 1.42188 8.38553C1.42553 8.18472 1.43773 7.83066 1.4707 7.44705C1.5036 7.06449 1.55562 6.67264 1.58887 6.44998C1.6377 6.123 1.69801 5.92177 1.78516 5.64334C1.89674 5.28688 2.01214 5.00793 2.16211 4.77811C2.31874 4.53815 2.50005 4.38383 2.53809 4.34744C2.66989 4.22114 2.80353 4.13626 2.89062 4.07693C3.26824 3.81975 3.76166 3.62363 4.18457 3.48123C4.74586 3.29227 5.24291 3.2758 5.68652 3.25565C6.05645 3.23885 6.61781 3.24714 6.95508 3.25565C7.56534 3.27107 8.01978 3.40123 8.44727 3.5408C8.7432 3.63744 8.96424 3.75894 9.21582 3.92947C9.42032 4.06812 9.764 4.33349 9.99902 4.50272C10.2493 4.68291 10.644 4.94957 10.9238 5.16678C11.4406 5.56792 11.739 5.91473 11.9023 6.13065C11.962 6.01757 12.0237 5.90552 12.085 5.79959C12.3117 5.40744 12.5703 5.04947 12.8076 4.7742C13.2407 4.27185 13.6337 4.02249 13.8975 3.87088C14.2207 3.68512 14.7164 3.5308 15.2119 3.37967C15.5346 3.28127 15.8791 3.20215 16.0947 3.15799C16.3576 3.10417 16.5017 3.09879 16.6494 3.08475C16.823 3.06824 17.1634 3.02754 17.6631 3.03104ZM17.6494 5.03104C17.2684 5.02837 17.0284 5.05696 16.8389 5.07498C16.7882 5.07979 16.7435 5.08388 16.7109 5.0867C16.6766 5.08968 16.6545 5.09136 16.6348 5.09354C16.6032 5.09702 16.5667 5.10251 16.4961 5.11697C16.3204 5.15295 16.0399 5.21804 15.7949 5.29276C15.215 5.46964 14.9763 5.55833 14.8945 5.60526C14.7521 5.68714 14.5619 5.80403 14.3232 6.08084C14.1678 6.26117 13.9809 6.5162 13.8164 6.80057C13.632 7.11954 13.4946 7.40837 13.4453 7.5535C13.378 7.75171 13.2969 7.95 13.25 8.06912C13.227 8.12755 13.2127 8.16539 13.2041 8.19022C13.196 8.23546 13.1838 8.27925 13.1699 8.32205C13.1668 8.33183 13.1636 8.34165 13.1602 8.35135C13.156 8.36281 13.152 8.37428 13.1475 8.38553C13.1273 8.43581 13.103 8.48477 13.0742 8.53201C13.0657 8.54609 13.0561 8.55943 13.0469 8.57303C13.0373 8.5871 13.0279 8.60132 13.0176 8.61502C12.854 8.8314 12.6058 8.97723 12.3252 9.00662C12.2714 9.0123 12.2171 9.01455 12.1631 9.01151C12.1615 9.01142 12.1598 9.01158 12.1582 9.01151C12.1517 9.0111 12.1451 9.00913 12.1387 9.00858C12.1123 9.00643 12.0858 9.00402 12.0596 8.99979C12.0537 8.99884 12.0478 8.99695 12.042 8.99588C12.0165 8.99128 11.991 8.98588 11.9658 8.97928C11.9554 8.97654 11.9449 8.97355 11.9346 8.97049C11.9149 8.96464 11.8953 8.95805 11.876 8.95096C11.8588 8.94467 11.8419 8.93763 11.8252 8.93045C11.8142 8.92569 11.8029 8.92098 11.792 8.9158C11.7732 8.90687 11.7545 8.89753 11.7363 8.88748C11.7247 8.88103 11.7126 8.8749 11.7012 8.86795C11.6824 8.8565 11.6644 8.84347 11.6465 8.83084C11.6389 8.82549 11.6305 8.82079 11.623 8.81522C11.6012 8.79889 11.58 8.78146 11.5596 8.76346C11.5562 8.76047 11.5522 8.7577 11.5488 8.75467C11.5553 8.76055 11.5439 8.75064 11.4912 8.7117C11.4682 8.69469 11.4433 8.67605 11.4131 8.65408C11.384 8.63293 11.3504 8.60888 11.3164 8.58377C11.2498 8.53447 11.1689 8.47283 11.0898 8.40604C11.0148 8.34265 10.9136 8.25161 10.8223 8.14041L10.7793 8.08768L10.7441 8.02908C10.4967 7.62683 10.4268 7.49821 10.3242 7.35818C10.2653 7.27785 10.0884 7.04874 9.69824 6.74588C9.44799 6.55165 9.17892 6.37692 8.83008 6.12576C8.46619 5.86376 8.29036 5.71905 8.09375 5.58572C7.94421 5.48435 7.89235 5.46281 7.82617 5.44119C7.46825 5.32435 7.22902 5.26291 6.90527 5.25467C6.56801 5.24616 6.06939 5.24043 5.77734 5.25369C5.29998 5.27539 5.07764 5.29077 4.82227 5.37674C4.44005 5.50546 4.16025 5.63243 4.0166 5.73026C3.98394 5.7525 3.96288 5.76601 3.94238 5.78006C3.92357 5.79296 3.91395 5.8003 3.9082 5.80447C3.88779 5.82382 3.86532 5.8458 3.8584 5.85233C3.84406 5.86585 3.83798 5.87168 3.83496 5.87479C3.82279 5.8948 3.77359 5.98469 3.69336 6.241C3.61697 6.48504 3.59342 6.57149 3.56738 6.74588C3.53784 6.94382 3.49102 7.29174 3.46289 7.61893C3.43489 7.94482 3.42498 8.25132 3.42188 8.42166C3.42106 8.4664 3.42063 8.48376 3.4209 8.49295C3.42102 8.49664 3.42157 8.49647 3.42188 8.49881C3.42267 8.50499 3.42479 8.52249 3.43262 8.56229C3.44063 8.603 3.45244 8.65672 3.46973 8.73611C3.53964 9.05727 3.66673 9.62527 3.73633 9.94119C3.7535 10.0191 3.76735 10.0808 3.77734 10.1267C3.78785 10.1751 3.79404 10.2033 3.79883 10.2234C3.80268 10.2396 3.80442 10.2466 3.80566 10.2508C3.80729 10.2562 3.8105 10.2676 3.81934 10.2928C3.88797 10.4883 3.94168 10.6421 3.98828 10.7732C4.01072 10.8363 4.02839 10.8852 4.04199 10.9207C4.05824 10.9631 4.05955 10.9629 4.0498 10.9431C4.13183 11.1095 4.23361 11.2863 4.63379 11.9529C4.71444 12.0872 4.74691 12.1281 4.90234 12.3494C5.05185 12.5623 5.17899 12.7483 5.28125 12.8992C5.38758 13.0561 5.45791 13.1604 5.50781 13.2303C5.55899 13.3019 5.67032 13.4576 6.25586 14.0955C6.84422 14.7364 7.85153 15.8008 8.58496 16.5379C9.31042 17.2669 9.75479 17.6625 9.99219 17.8777C10.1165 17.9905 10.1892 18.0547 10.2559 18.1131C10.3255 18.1741 10.3926 18.2324 10.4971 18.3279C10.7454 18.5551 10.9376 18.7328 11.0859 18.8631C11.1391 18.9098 11.1812 18.9434 11.2119 18.9685C11.2309 18.9746 11.2369 18.9789 11.2432 18.9793C11.2653 18.9806 11.3517 18.9813 11.5508 18.9236C11.9962 18.7944 12.7483 18.5628 13.3438 18.3289C13.8934 18.113 14.3038 17.9019 15.2119 17.2888C16.1431 16.6602 17.493 15.6807 18.3525 14.9763C19.192 14.2885 19.5321 13.8917 19.7441 13.6209C19.968 13.3349 20.0581 13.1777 20.1299 13.0349C20.2087 12.8782 20.2707 12.7283 20.3428 12.5144C20.4118 12.3098 20.4868 12.0602 20.5742 11.5887C20.6641 11.1041 20.7601 10.4278 20.7988 9.69803C20.8379 8.96223 20.8193 8.18622 20.7832 7.6785C20.748 7.18403 20.6999 6.98934 20.6729 6.89334C20.6578 6.83995 20.6522 6.82883 20.6504 6.82498C20.6438 6.81109 20.6265 6.77768 20.5654 6.68045C20.4461 6.49036 20.2528 6.20061 20.0518 5.94315C19.851 5.68618 19.6423 5.45977 19.501 5.3201C19.4248 5.24486 19.3795 5.20423 19.3535 5.1824L19.3516 5.18045C19.3444 5.17713 19.3335 5.17192 19.3115 5.1658C19.2599 5.1515 19.1513 5.1282 18.9414 5.10721C18.5971 5.07281 18.0481 5.03386 17.6494 5.03104Z" fill="black"/>
</svg>
