<svg width="24" height="24" viewBox="0 0 24 24" fill="none" xmlns="http://www.w3.org/2000/svg">
<path d="M11.8264 1.15849C12.4075 1.17461 13.6349 1.208 14.5237 1.30791C15.9993 1.47381 16.7832 1.87598 17.1409 2.02666C17.5377 2.19395 17.9117 2.43735 18.2747 2.71611C19.0757 3.33144 19.9348 4.22765 20.2034 4.4915C20.4436 4.72769 20.6435 5.05731 20.7913 5.32549C20.9525 5.61807 21.1109 5.9493 21.2532 6.25713C21.3891 6.55137 21.5184 6.93429 21.6243 7.2083C21.7748 7.59797 21.8657 7.95505 22.0647 8.68779C22.1769 9.10103 22.3783 10.0468 22.4905 11.306C22.5433 11.9001 22.5199 12.9341 22.5217 13.3997C22.5252 14.294 22.397 14.7558 22.2024 15.5384C21.9408 16.5899 21.5876 17.3314 21.4788 17.5638C21.1795 18.2027 20.7757 18.804 19.7375 19.7874C19.244 20.2549 18.7143 20.4791 18.2542 20.6839C17.5892 20.9798 17.0694 21.1906 16.6829 21.3421C16.2645 21.506 16.0777 21.5728 15.9709 21.6194C15.9001 21.6504 15.6292 21.7834 15.1946 21.9563C14.5346 22.2189 13.9378 22.4522 12.9456 22.4671C12.1866 22.4784 10.7825 22.428 10.0315 22.3987C9.10621 22.3626 8.84424 22.2959 8.68579 22.2747C8.4529 22.2436 7.61763 22.0651 6.56079 21.8528C6.04547 21.7493 5.6767 21.6166 5.3606 21.4466C5.11833 21.3162 4.80804 21.0914 4.72876 21.0403C4.16038 20.6751 3.62139 20.1259 3.16333 19.5091C2.89241 19.1441 2.66283 18.7177 2.4397 18.3001C1.94627 17.3766 1.64703 16.7104 1.5481 16.4104C1.41203 15.9975 1.24934 15.1118 1.10767 13.8938C0.954508 12.577 1.10383 11.693 1.14771 11.3333C1.21147 10.81 1.43753 9.86754 1.73169 8.85674C1.98015 8.003 2.23738 7.43562 2.37036 7.15068C2.47591 6.92452 2.64822 6.52526 2.78931 6.25615C2.89554 6.05369 3.28045 5.42442 3.84497 4.56865C4.2332 3.98013 4.8361 3.4447 5.46021 2.9124C6.13867 2.33383 6.71105 2.19155 7.08911 2.05693C7.49427 1.91261 8.24207 1.61913 8.49438 1.53838C8.64316 1.49079 8.82685 1.456 8.96704 1.43193C9.12418 1.40496 9.30156 1.37942 9.46606 1.35576C9.63622 1.33129 9.79014 1.30962 9.9231 1.28935C9.98841 1.27939 10.0428 1.27055 10.0852 1.26299C10.1226 1.25632 10.1403 1.25202 10.1438 1.25127C10.153 1.24893 10.1629 1.24848 10.1721 1.24638C10.1854 1.24338 10.1987 1.24006 10.2122 1.23759C10.2313 1.23405 10.2507 1.23122 10.2698 1.22881C10.2849 1.22694 10.3003 1.2251 10.3157 1.22392C10.3221 1.2234 10.3288 1.22235 10.3352 1.22197H10.3333C10.3272 1.22234 10.3219 1.22277 10.3196 1.22295C10.317 1.22314 10.3144 1.22287 10.3127 1.22295C10.319 1.22237 10.3296 1.22113 10.342 1.22002C10.3673 1.21776 10.4037 1.21494 10.4485 1.21123C10.5389 1.20374 10.6658 1.19412 10.8118 1.18486C11.0975 1.16674 11.4843 1.14903 11.8264 1.15849ZM14.6926 16.0638C14.315 16.2845 13.9327 16.4825 13.5842 16.5784C12.9967 16.74 11.8882 17.0318 10.7659 16.8353C10.2847 16.7509 9.79079 16.6353 9.35571 16.4476C9.15674 16.3617 8.95445 16.2515 8.76392 16.1126C8.51737 16.5484 8.21297 17.0787 7.92505 17.5354L7.91138 17.5569L7.89673 17.5784C6.68048 19.3053 6.61452 19.4326 6.51392 19.5774C6.48753 19.6158 6.45902 19.6551 6.40454 19.7327C6.51538 19.7812 6.68155 19.8371 6.95435 19.8919C7.50973 20.0034 7.98253 20.1009 8.33228 20.1722C8.50831 20.208 8.65264 20.2367 8.76294 20.2581C8.81777 20.2687 8.86259 20.2774 8.89673 20.2835C8.91336 20.2865 8.92694 20.2887 8.93677 20.2903C8.94482 20.2916 8.94936 20.2921 8.95044 20.2923C9.01436 20.3008 9.08792 20.313 9.12915 20.3196C9.17887 20.3276 9.23488 20.3363 9.30786 20.345C9.45587 20.3627 9.69521 20.3845 10.1096 20.4007C10.8788 20.4307 12.2219 20.4784 12.9153 20.4681C13.5289 20.4589 13.8458 20.3404 14.4553 20.0979C14.8563 19.9384 14.998 19.8623 15.1692 19.7874C15.3201 19.7214 15.6229 19.6093 15.9534 19.4798C16.2779 19.3526 16.7027 19.1775 17.2405 18.9417C17.1257 18.8326 16.9742 18.6797 16.5334 18.181C16.0306 17.612 15.1546 16.6008 14.6926 16.0638ZM5.00122 6.4622C4.74524 6.86627 4.59415 7.11942 4.55981 7.18486C4.44476 7.40431 4.3391 7.66161 4.18286 7.99638C4.07318 8.2314 3.86078 8.6966 3.65161 9.41533C3.36072 10.4149 3.17585 11.2239 3.13306 11.5745C3.08767 11.9469 2.9727 12.6111 3.09497 13.6624C3.23685 14.8822 3.38177 15.585 3.44751 15.7845C3.48905 15.9102 3.71739 16.4482 4.20337 17.3577C4.43863 17.798 4.60094 18.0916 4.7688 18.3177C4.80084 18.3608 4.83335 18.4026 4.86548 18.4436C4.8665 18.4422 4.86835 18.4412 4.86938 18.4397L4.87134 18.4368C4.92154 18.3645 5.0561 18.1378 6.23657 16.4612C6.64974 15.8051 7.11526 14.9706 7.3606 14.5286C7.41951 14.4225 7.46387 14.3408 7.49829 14.2786C7.33129 13.9376 7.18956 13.5963 7.11157 13.2864C7.01284 12.8936 6.922 12.314 7.05688 11.5657C7.14688 11.0668 7.298 10.5206 7.6311 9.97978C7.60453 9.93543 7.58076 9.8886 7.56079 9.83916C7.43856 9.53642 7.37039 9.36652 7.06372 8.94951C6.7602 8.53681 6.13319 7.77848 5.7522 7.31865C5.29984 6.8081 5.10164 6.57795 5.00122 6.4622ZM18.6145 6.32256L18.6077 6.33134L18.6018 6.34013C18.2621 6.80791 17.6591 7.55635 17.0803 8.32353C16.7421 8.77184 16.4881 9.11287 16.3196 9.34209C16.2736 9.40469 16.2345 9.45793 16.2024 9.50224C16.5214 9.89282 16.8779 10.4312 16.9807 11.0628C17.0319 11.3771 17.1183 11.8203 17.1604 12.1165C17.1839 12.2823 17.2037 12.4644 17.2063 12.6419C17.2087 12.8087 17.1982 13.0457 17.1125 13.2854C16.9858 13.64 16.7632 14.0813 16.4885 14.4905C16.4183 14.5951 16.3395 14.7035 16.2542 14.8128C16.7239 15.3584 17.5534 16.3157 18.0315 16.8567C18.5257 17.4159 18.5969 17.4749 18.6506 17.5247C18.7352 17.6031 18.8035 17.6669 18.9231 17.7718C19.3805 17.2773 19.5428 16.9828 19.6682 16.7151C19.7617 16.5156 20.0473 15.9149 20.261 15.056C20.456 14.2719 20.5241 14.0269 20.5217 13.4075C20.5194 12.8178 20.5411 11.9652 20.4983 11.4837C20.3958 10.3334 20.2143 9.50329 20.135 9.21123C19.9208 8.42264 19.8622 8.19605 19.759 7.929C19.5956 7.50613 19.5406 7.3185 19.4377 7.09599C19.3005 6.79907 19.1655 6.51938 19.0393 6.29033C18.9766 6.17663 18.9213 6.08465 18.8743 6.01494C18.864 5.99969 18.8531 5.98718 18.845 5.97588C18.7946 6.0536 18.7281 6.15879 18.6145 6.32256ZM12.551 9.32646C12.1633 9.28877 11.8333 9.28999 11.592 9.304C11.4216 9.31391 11.3112 9.32872 11.262 9.33623C11.2185 9.35795 11.1532 9.39464 11.0627 9.44756C10.8814 9.5537 10.6343 9.70946 10.3225 9.91533C9.92728 10.1763 9.65469 10.5402 9.3645 10.9788C9.19071 11.2415 9.09442 11.5335 9.02466 11.9202C8.95333 12.3159 9.00091 12.5987 9.05103 12.7981C9.13922 13.1486 9.45502 13.7465 9.87134 14.4319C9.87865 14.4438 9.93042 14.5174 10.1487 14.6116C10.3709 14.7075 10.6855 14.7909 11.1116 14.8655C11.7455 14.9764 12.4589 14.8134 13.054 14.6497C13.2632 14.5921 13.638 14.3805 14.2981 13.9612C14.4329 13.8755 14.627 13.6754 14.8284 13.3753C15.0035 13.1143 15.1346 12.8477 15.2063 12.6653C15.2051 12.6099 15.1979 12.5243 15.1799 12.3978C15.1375 12.0991 15.0801 11.8328 15.0071 11.3841C14.9844 11.2446 14.8616 11.004 14.5696 10.6673C14.2799 10.3333 14.0632 10.1493 13.7874 9.86748C13.7671 9.85455 13.7348 9.83656 13.6917 9.81084C13.5911 9.75095 13.4565 9.67569 13.3079 9.60185C12.9776 9.43794 12.6973 9.34091 12.551 9.32646ZM16.1877 9.47197C16.1898 9.46651 16.1934 9.4612 16.1956 9.45537C16.1967 9.45234 16.1973 9.4451 16.2004 9.43584C16.1963 9.44791 16.1923 9.46011 16.1877 9.47197ZM11.7717 3.15752C11.5215 3.15058 11.2065 3.16398 10.9387 3.18095C10.8083 3.18923 10.6943 3.1977 10.6135 3.20439C10.5814 3.20706 10.5541 3.20843 10.5334 3.21025C10.4316 3.23111 10.3194 3.2515 10.2249 3.26591C10.0807 3.28789 9.9079 3.31258 9.75024 3.33525C9.58702 3.35873 9.4338 3.38167 9.30591 3.40361C9.16616 3.4276 9.1077 3.44172 9.10376 3.44267C8.85999 3.52068 8.34215 3.7337 7.76099 3.94072C7.28076 4.11177 7.09984 4.14247 6.75806 4.43388C6.57444 4.59049 6.4125 4.73176 6.26978 4.86064C6.32315 4.92606 6.35936 4.97128 6.38599 5.00517C6.40126 5.02462 6.40803 5.03314 6.41528 5.04228C6.41779 5.04544 6.41922 5.04795 6.42017 5.04912L7.26001 6.0042L7.28149 6.02959C7.64401 6.46708 8.32584 7.28916 8.67505 7.76396C8.84399 7.99367 8.96868 8.18405 9.06763 8.35478C9.11742 8.31857 9.16734 8.28114 9.21997 8.24638C9.5459 8.03117 9.82728 7.85309 10.053 7.72099C10.2342 7.61495 10.4949 7.46755 10.7268 7.40654C11.0086 7.33262 11.7703 7.24152 12.7444 7.33623C13.2755 7.388 13.8322 7.62944 14.1975 7.81084C14.3907 7.90677 14.5819 8.01439 14.7415 8.11162C14.9156 7.87523 15.1637 7.54253 15.4836 7.11845C16.1456 6.24104 16.6377 5.64039 16.9827 5.16533C17.116 4.97262 17.1642 4.89482 17.2307 4.79326L17.2375 4.78252C17.2604 4.74852 17.2621 4.74635 17.2688 4.73564C17.273 4.7289 17.2828 4.71347 17.3 4.68095C17.3223 4.639 17.3472 4.5992 17.3743 4.56181C17.268 4.47163 17.1622 4.38392 17.0569 4.30302C16.7649 4.07877 16.5432 3.94483 16.3645 3.86943C15.99 3.71164 15.4523 3.42477 14.3 3.29521C13.5119 3.20665 12.3763 3.17428 11.7717 3.15752ZM10.3069 1.22392C10.3074 1.22373 10.3092 1.22308 10.3108 1.22295H10.3127C10.3097 1.22322 10.3077 1.22378 10.3069 1.22392ZM10.3499 1.22099C10.3576 1.22067 10.3656 1.22115 10.3733 1.22099C10.3799 1.22084 10.3872 1.22002 10.3938 1.22002C10.38 1.22012 10.3582 1.22068 10.3499 1.22099Z" fill="black"/>
</svg>
