<svg width="24" height="24" viewBox="0 0 24 24" fill="none" xmlns="http://www.w3.org/2000/svg">
<path d="M11.0714 7.85588C11.1802 7.85592 11.3024 7.85878 11.422 7.87248C11.5277 7.8846 11.711 7.91343 11.8986 8.00431C12.2644 8.1816 13.0395 8.50776 13.7892 9.42131C14.3149 10.0619 14.7432 10.6691 14.9913 11.1235C15.2557 11.6081 15.0775 12.2163 14.5929 12.4809C14.1085 12.7451 13.5013 12.5664 13.2365 12.0824C13.0725 11.7822 12.73 11.2829 12.2433 10.6899C11.8441 10.2034 11.4759 10.0204 11.1368 9.85783C11.1193 9.85733 11.0972 9.85589 11.0704 9.85588C10.9133 9.85583 10.7078 9.86657 10.4064 9.87931C10.0408 9.89478 9.84717 9.95419 9.40833 10.182C8.97203 10.4086 8.1522 10.8842 7.65345 11.1762C7.1566 11.4671 6.69005 11.8858 5.92688 12.5912C5.56194 12.9286 5.24959 13.3487 4.8302 13.9985C4.50134 14.5081 4.25595 15.2005 3.94935 16.0404C3.82138 16.3911 3.78439 16.574 3.77063 16.6791C3.75164 16.8246 3.76492 16.8246 3.75306 17.101C3.72929 17.6564 3.82219 17.9424 3.93763 18.266C4.04774 18.5741 4.39958 18.8963 4.99915 19.2475C5.66215 19.6357 6.23177 19.7508 6.7472 19.7895C7.23076 19.8258 8.15321 19.8309 8.77649 19.8276C9.30616 19.8247 9.63008 19.781 9.87122 19.7289C10.1332 19.6723 10.2947 19.6101 10.63 19.5082C10.6415 19.4979 10.7224 19.4405 10.8986 19.2445C11.0117 19.1188 11.1332 18.9728 11.2892 18.7885C11.4405 18.6096 11.6149 18.4049 11.8126 18.1879C11.9106 18.0785 12.0292 17.9376 12.1271 17.8344C12.278 17.6753 12.3575 17.6062 12.5763 17.3686C12.9505 16.9623 13.5832 16.9358 13.9894 17.31C14.3952 17.6842 14.421 18.317 14.047 18.7231C13.8461 18.9412 13.6252 19.1609 13.5783 19.2104C13.4806 19.3133 13.5083 19.2934 13.296 19.5297L13.2911 19.5356C13.1193 19.7242 12.9646 19.9055 12.8165 20.0805C12.6733 20.2498 12.5248 20.4269 12.3859 20.5815C12.1418 20.8528 11.7593 21.2574 11.2355 21.4154C10.6552 21.5905 10.121 21.8203 8.78821 21.8276C8.17978 21.8308 7.17546 21.8279 6.59778 21.7846C5.85476 21.7288 4.97279 21.5504 3.98841 20.974C3.36311 20.6078 2.42454 19.9766 2.05384 18.9379C1.89108 18.4816 1.71608 17.9237 1.75501 17.0151C1.75752 16.9561 1.75432 16.6713 1.78724 16.4194C1.82556 16.1265 1.90934 15.7963 2.07044 15.3549C2.34461 14.6038 2.67045 13.657 3.14954 12.9145C3.58847 12.2344 4.01188 11.6379 4.56946 11.1225C5.29526 10.4516 5.92326 9.87083 6.6427 9.44963C7.12747 9.16583 7.99556 8.66156 8.48645 8.40666C9.09418 8.09111 9.57669 7.91179 10.3214 7.88029C10.5885 7.869 10.8585 7.85581 11.0714 7.85588ZM15.6193 2.1215C16.6126 1.99835 17.3437 2.11297 17.5275 2.13224C18.4162 2.22533 18.8068 2.42503 19.0909 2.54338C19.5405 2.73062 19.9346 2.9294 20.4884 3.41447C20.692 3.59281 20.8639 3.82307 21.0021 4.02873C21.1482 4.24615 21.2979 4.49979 21.4484 4.76701C21.9985 5.7438 21.9639 6.60602 21.9786 6.97892C22.0004 7.52856 21.99 7.91183 21.9288 8.31096C21.8728 8.67686 21.7722 9.05362 21.6583 9.52482C21.4011 10.5899 20.8535 11.212 20.7286 11.4037C20.1054 12.3611 19.43 12.7765 19.0499 13.0951C18.1373 13.8603 17.5956 14.1569 17.4093 14.2895C17.0985 14.5109 16.7402 14.6769 16.2413 14.9516C15.8103 15.1888 15.2908 15.3028 14.8634 15.391C14.3611 15.4947 13.6132 15.5226 12.8468 15.5248C11.7493 15.528 10.9446 15.2017 10.131 14.7143C9.54166 14.361 9.318 13.8955 9.17493 13.6401L9.12415 13.557C9.10423 13.5251 9.07409 13.4768 9.04505 13.4272C8.981 13.3177 8.92806 13.2116 8.87806 13.0961C8.65857 12.5893 8.89177 12.0002 9.39856 11.7807C9.90532 11.5613 10.4945 11.7945 10.714 12.3012C10.736 12.352 10.753 12.3855 10.7716 12.4174C10.7839 12.4383 10.7976 12.4606 10.8224 12.5004L10.9074 12.6401L10.9122 12.6488C10.9632 12.7392 10.9869 12.7844 11.0197 12.8403C11.0474 12.8876 11.0657 12.9134 11.0783 12.9301C11.0925 12.949 11.1069 12.968 11.1593 12.9994C11.7718 13.3664 12.2185 13.5266 12.8409 13.5248C13.6231 13.5225 14.1803 13.4905 14.4591 13.433C14.9215 13.3376 15.1498 13.2699 15.2775 13.1996C15.958 12.8249 16.0616 12.7934 16.2482 12.6606C16.6342 12.3856 16.9187 12.2723 17.7648 11.5629C18.3439 11.0774 18.6427 10.942 19.0529 10.3119C19.3236 9.89607 19.5616 9.68611 19.714 9.0551C19.8469 8.50487 19.9132 8.26337 19.9523 8.00822C19.9863 7.78628 19.9989 7.54433 19.9796 7.05803C19.9613 6.59441 19.9801 6.23481 19.7062 5.74846C19.5649 5.49762 19.4446 5.29679 19.3419 5.14396C19.2912 5.06848 19.2499 5.01179 19.2169 4.97111C19.1902 4.93823 19.1748 4.92305 19.171 4.91935C18.8169 4.60916 18.6212 4.5149 18.3214 4.39006C18.1377 4.31356 18.0737 4.27976 17.9366 4.23674C17.8149 4.19858 17.6297 4.154 17.3195 4.1215C17.092 4.09768 16.5927 4.01571 15.8654 4.10588C15.2788 4.17863 15.1493 4.22747 15.0577 4.26994C14.9508 4.31953 14.8298 4.36377 14.7667 4.3881C14.6896 4.41786 14.6207 4.44645 14.545 4.48283C14.4004 4.55245 14.1899 4.6729 13.8888 4.92228C13.2602 5.443 12.9414 5.77499 12.7931 5.95158C12.438 6.37444 11.8078 6.42951 11.3849 6.07463C10.9619 5.7195 10.9067 5.08842 11.2618 4.66545C11.5119 4.36766 11.926 3.95091 12.6124 3.38224C13.4641 2.67673 14.0673 2.52438 14.2159 2.45549C14.6066 2.27421 14.9986 2.19848 15.6193 2.1215Z" fill="black"/>
</svg>
