<svg width="24" height="24" viewBox="0 0 24 24" fill="none" xmlns="http://www.w3.org/2000/svg">
<path d="M20.72 17.1297C21.2706 17.0888 21.7501 17.502 21.7913 18.0526C21.8321 18.6028 21.4196 19.0824 20.8694 19.1239C20.6297 19.1418 20.3749 19.1611 20.1468 19.1708C19.9792 19.1779 19.6662 19.1832 19.6302 19.1844C19.4896 19.1894 19.4044 19.1977 17.2298 19.2118C15.0531 19.2259 10.8973 19.2454 8.60476 19.2499C6.31279 19.2543 5.8868 19.2444 5.45926 19.2342C4.90735 19.2211 4.46992 18.7626 4.48269 18.2108C4.49583 17.6588 4.95417 17.2213 5.50613 17.2342C5.90799 17.2438 6.31378 17.2543 8.60086 17.2499C10.8898 17.2454 15.0428 17.2259 17.2171 17.2118C19.3927 17.1977 19.4514 17.1892 19.5598 17.1854C19.776 17.1778 19.8126 17.1833 20.0618 17.1727C20.2514 17.1647 20.4716 17.1483 20.72 17.1297ZM18.845 10.3436C19.382 10.2152 19.9215 10.5469 20.0501 11.0839C20.1785 11.6207 19.8476 12.1602 19.3108 12.2889C19.2194 12.3108 19.1065 12.3356 18.9114 12.3495C18.7451 12.3613 18.5171 12.365 17.803 12.3671C17.0654 12.3691 15.849 12.3693 15.0979 12.3895C14.3528 12.4096 14.12 12.4457 13.1429 12.5067C12.2006 12.5655 10.663 12.6406 9.5198 12.6786C8.37043 12.7167 7.63937 12.7174 6.91824 12.7186C6.36596 12.7196 5.91725 12.2729 5.91629 11.7206C5.91548 11.1685 6.36224 10.7197 6.91434 10.7186C7.62959 10.7174 8.33587 10.7166 9.4534 10.6796C10.5778 10.6422 12.0965 10.5682 13.0188 10.5106C13.9059 10.4553 14.2561 10.4117 15.0442 10.3905C15.8264 10.3694 17.0771 10.3691 17.7971 10.3671C18.5392 10.365 18.6867 10.3611 18.7688 10.3553C18.7868 10.354 18.7995 10.3523 18.8069 10.3514C18.8128 10.3508 18.8166 10.3506 18.8177 10.3505C18.818 10.3503 18.8191 10.3498 18.8206 10.3495C18.8244 10.3486 18.8299 10.3472 18.845 10.3436ZM19.3889 4.99791C19.9395 4.95838 20.4183 5.3722 20.4583 5.92272C20.498 6.47347 20.0832 6.95218 19.5325 6.99205C19.3845 7.00272 19.244 7.01218 18.7639 7.01549C18.2931 7.01873 17.4985 7.01649 17.0696 7.01549C16.6218 7.01461 16.5403 7.03523 15.7698 7.09752C15.4345 7.12463 14.9599 7.16054 14.4895 7.19616C14.0171 7.23192 13.5476 7.26704 13.2171 7.29381C12.5521 7.34768 12.4252 7.36732 11.2327 7.42858C10.0529 7.48917 7.87524 7.58896 6.76102 7.63854C5.66399 7.68735 5.57849 7.68931 5.49734 7.68932C4.94519 7.68932 4.49756 7.24142 4.49734 6.68932C4.49742 6.1371 4.9451 5.68932 5.49734 5.68932C5.521 5.68933 5.54667 5.69057 6.67215 5.64049C7.78665 5.5909 9.95804 5.49171 11.1302 5.43151C12.2887 5.372 12.3863 5.35488 13.0559 5.30065C13.393 5.27335 13.8687 5.23666 14.3391 5.20104C14.8116 5.16527 15.2798 5.12997 15.6087 5.10338C16.3105 5.04664 16.5181 5.01437 17.0745 5.01549C17.5079 5.01651 18.291 5.01865 18.7503 5.01549C19.1991 5.0124 19.2948 5.00471 19.3889 4.99791Z" fill="black"/>
</svg>
