<svg width="24" height="24" viewBox="0 0 24 24" fill="none" xmlns="http://www.w3.org/2000/svg">
<path d="M11.4072 11.1465C11.915 11.1233 12.4498 11.1297 13.0683 11.1797C13.6773 11.229 14.3483 11.3206 14.7148 11.376C15.1815 11.4466 15.3757 11.5107 15.5234 11.5489C15.685 11.5906 15.8601 11.6636 16.0107 11.7305C16.1764 11.8041 16.3811 11.9011 16.622 12.0176C16.9357 12.1693 17.2666 12.3666 17.5273 12.5342C17.8175 12.7208 18.0476 12.8992 18.2871 13.1319C18.7481 13.5798 19.044 13.9848 19.2529 14.3653C19.3915 14.6178 19.555 14.9897 19.6777 15.2832C19.7959 15.5662 19.8828 15.7902 19.9453 15.9532C19.9773 16.0369 19.999 16.0963 20.0175 16.1426C20.038 16.1938 20.0419 16.1977 20.0341 16.1826C20.2817 16.6633 20.4015 17.1454 20.4443 17.2969C20.4991 17.4913 20.509 17.7298 20.416 17.9766C20.3479 18.1567 20.2433 18.2856 20.2021 18.336C20.1167 18.4401 19.9715 18.5895 19.8203 18.7491C19.4673 19.1213 18.7864 19.8372 18.2675 20.3467C17.7415 20.8633 17.3839 21.1654 17.079 21.3867C16.7583 21.6196 16.5139 21.7471 16.2187 21.8711C15.9408 21.9878 15.6084 22.1055 15.1748 22.2139C14.7474 22.3207 14.2243 22.4167 13.6884 22.4668C13.1421 22.5179 12.6064 22.5169 12.0156 22.4658C11.4297 22.4152 10.8031 22.3154 10.1962 22.1856C9.5893 22.0558 8.99979 21.8945 8.49604 21.7158C7.99553 21.5383 7.59279 21.3454 7.32319 21.2266C7.05548 21.1086 6.74802 20.9898 6.28901 20.7491C5.84088 20.514 5.23838 20.1581 4.85737 19.9209C4.25115 19.5435 3.93279 19.2342 3.69428 18.9658L3.66303 18.9287C3.57617 18.8209 3.49615 18.7272 3.40522 18.6309L3.4062 18.6299C3.36898 18.5909 3.33185 18.5547 3.27338 18.4883C3.20733 18.4133 3.15489 18.3305 3.11518 18.2442C2.69439 17.9665 2.54219 17.4105 2.77827 16.9522C2.77438 16.9597 2.77667 16.9543 2.80659 16.8907C2.83003 16.8408 2.86307 16.772 2.90424 16.6866C2.98671 16.5155 3.10315 16.2799 3.25483 15.9912C3.46942 15.583 3.79658 15.1632 3.99995 14.9014C4.24823 14.5818 4.45755 14.3535 4.74506 14.085C5.02805 13.8207 5.38637 13.5195 5.90229 13.169C6.40775 12.8256 7.0554 12.4421 7.61225 12.1553C8.18086 11.8625 8.63904 11.6793 9.00678 11.5508C9.38727 11.4178 9.67488 11.3439 10.0683 11.2803C10.4409 11.22 10.9059 11.1694 11.4072 11.1465ZM11.499 13.1446C11.0685 13.1642 10.6793 13.2068 10.3876 13.2539C10.1169 13.2977 9.94281 13.3427 9.66596 13.4395C9.37627 13.5407 9.00523 13.688 8.52827 13.9336C8.03916 14.1855 7.46042 14.5277 7.02534 14.8233C6.60087 15.1117 6.32344 15.3478 6.1103 15.5469C5.90172 15.7417 5.76434 15.8917 5.58002 16.1289C5.35082 16.424 5.14106 16.6998 5.02436 16.9219C4.9607 17.0431 4.90627 17.1549 4.85639 17.2539L4.85932 17.2569C4.98281 17.3876 5.08803 17.5123 5.1894 17.6367C5.31208 17.7748 5.48501 17.9556 5.91401 18.2227C6.27082 18.4448 6.82907 18.7732 7.2187 18.9776C7.59735 19.1761 7.79106 19.2472 8.12983 19.3965C8.46651 19.5449 8.75621 19.6864 9.16401 19.8311C9.56909 19.9747 10.0727 20.1147 10.6142 20.2305C11.156 20.3464 11.6993 20.4315 12.1874 20.4737C12.6706 20.5154 13.0857 20.5145 13.5019 20.4756C13.9282 20.4358 14.3512 20.358 14.6894 20.2735C15.0212 20.1905 15.2575 20.1058 15.4443 20.0274C15.6138 19.9562 15.7212 19.9005 15.9042 19.7676C16.1032 19.6232 16.3838 19.3926 16.8662 18.919C17.3558 18.4381 18.0135 17.7481 18.3691 17.3731C18.3701 17.372 18.371 17.3703 18.372 17.3692C18.3391 17.2807 18.3023 17.189 18.2558 17.0987C18.1925 16.9758 18.1253 16.7948 18.0771 16.669C18.0165 16.5109 17.9384 16.3093 17.832 16.0547C17.71 15.7629 17.5824 15.4784 17.4999 15.3282C17.3932 15.1337 17.2219 14.8855 16.8935 14.5664C16.7606 14.4373 16.6383 14.3394 16.4462 14.2158C16.2245 14.0733 15.9664 13.9226 15.7509 13.8184C15.5115 13.7027 15.3327 13.6179 15.1992 13.5586C15.0853 13.5081 15.0345 13.4895 15.0234 13.4854C14.9742 13.4727 14.9214 13.4584 14.8876 13.4492C14.8498 13.439 14.8156 13.43 14.7773 13.4209C14.7027 13.4032 14.5951 13.3806 14.416 13.3535C14.0705 13.3013 13.4506 13.2168 12.9072 13.1729C12.3732 13.1297 11.9229 13.1252 11.499 13.1446ZM12.6591 14.9395C12.8989 14.9984 13.1738 15.1269 13.4081 15.375C13.5298 15.5038 14.25 16.1715 14.0478 17.1836C14.0216 17.3148 13.9783 17.5011 13.8964 17.6846C13.8139 17.8695 13.6523 18.1402 13.3378 18.3213C13.2173 18.3907 12.8304 18.6304 12.3769 18.6485C12.2136 18.6549 11.983 18.6618 11.7636 18.6328C11.5801 18.6086 11.1477 18.5314 10.8398 18.1533C10.661 17.9338 10.335 17.4778 10.4072 16.7647L10.4589 16.3887C10.4785 16.2779 10.5002 16.1802 10.5234 16.0948C10.5465 16.0094 10.5725 15.9302 10.6015 15.8584C10.6217 15.8084 10.6688 15.696 10.7509 15.585C10.9618 15.3 11.2957 15.1609 11.6249 15.1836C11.8192 15.0467 12.0799 14.9171 12.3994 14.9102L12.5312 14.9073L12.6591 14.9395ZM11.7177 6.88382C12.0891 6.87221 12.5496 6.88094 13.1171 6.95803C13.5315 7.01434 13.9888 7.10621 14.3496 7.1885L14.6728 7.26565L14.7246 7.27835L14.7753 7.2969C15.4073 7.53011 15.8562 7.78406 16.1689 8.12112L16.2949 8.27053L16.3066 8.28616L16.3173 8.30178C16.3265 8.31488 16.3339 8.32565 16.3505 8.34866C16.3662 8.37037 16.3872 8.39873 16.4111 8.43362C16.7223 8.88957 16.6051 9.51178 16.1494 9.82327C15.6933 10.1347 15.0712 10.0175 14.7597 9.56155C14.7211 9.50507 14.7442 9.54048 14.7011 9.47952L14.6972 9.47561C14.6649 9.44609 14.5303 9.34384 14.1308 9.19241C13.7933 9.10938 13.2764 8.99774 12.8476 8.93948C12.4105 8.88012 12.0634 8.87399 11.7802 8.88284C11.4716 8.89249 11.2885 8.91088 11.1513 8.93753C10.7319 9.01909 10.5517 9.06832 10.454 9.11428C10.3067 9.18371 10.1836 9.23997 10.0556 9.31741C9.93113 9.39276 9.84002 9.46674 9.77924 9.53909C9.69205 9.64304 9.62837 9.74389 9.58881 9.81643C9.57479 9.84216 9.56468 9.86079 9.55952 9.8721C9.4242 10.344 8.9598 10.6566 8.45991 10.586C7.91347 10.5084 7.5332 10.0026 7.6103 9.45608L7.63178 9.34671C7.65685 9.24315 7.69076 9.15872 7.70795 9.11721C7.74175 9.03564 7.78436 8.94756 7.83295 8.85843C7.93021 8.6801 8.06726 8.46823 8.24702 8.25393C8.72157 7.68837 9.38208 7.40911 9.60151 7.30569C9.96128 7.13617 10.3883 7.04796 10.7705 6.97366C11.0644 6.91656 11.3723 6.89462 11.7177 6.88382ZM11.6708 1.7344C12.2388 1.7006 12.9396 1.68535 13.8955 1.83987C14.82 1.98934 15.9475 2.29604 16.58 2.48733C16.9935 2.61239 17.3125 2.73829 17.5888 2.89944C17.7291 2.98126 17.8484 3.06698 17.9521 3.14944L18.2236 3.38284L18.2324 3.39163L18.2421 3.40042C18.4826 3.62823 18.878 4.01813 19.1826 4.35647C19.502 4.71145 19.7036 4.99118 19.9169 5.29007C20.2375 5.73955 20.1329 6.36379 19.6835 6.6846C19.2342 7.00513 18.6099 6.90132 18.289 6.45218C18.0839 6.1648 17.9365 5.96132 17.6962 5.69436C17.4426 5.41264 17.0912 5.06621 16.8701 4.85647C16.7237 4.72494 16.6633 4.67499 16.581 4.62698C16.4915 4.57485 16.3357 4.50264 16.0009 4.40139C15.4005 4.2198 14.3712 3.94303 13.5761 3.81448C12.8126 3.69106 12.2687 3.70201 11.79 3.7305C11.296 3.7599 10.9258 3.80346 10.6054 3.86233C10.2875 3.92076 10.015 3.99383 9.70991 4.09768C9.40373 4.20193 9.08336 4.33066 8.6894 4.5303C8.28651 4.7345 7.82556 5.00271 7.40815 5.29104C6.93272 5.61947 6.59801 5.8742 6.46772 6.01077C6.29474 6.19215 6.18759 6.32784 6.12788 6.41311C6.10186 6.45028 6.08664 6.47484 6.08002 6.48635C5.88591 6.964 5.35486 7.22101 4.85444 7.0635C4.32813 6.89753 4.03573 6.33605 4.20112 5.8096L4.25678 5.66507C4.32065 5.5217 4.40669 5.38352 4.4892 5.26565C4.61547 5.08532 4.78949 4.87208 5.02045 4.62991C5.31772 4.31836 5.83077 3.94895 6.27143 3.64456C6.77044 3.29987 7.3106 2.98708 7.78608 2.74612C8.27046 2.50068 8.67769 2.3371 9.06538 2.20511C9.45408 2.07278 9.82124 1.97324 10.2441 1.89553C10.6645 1.8183 11.1184 1.76729 11.6708 1.7344Z" fill="black"/>
</svg>
