<svg width="24" height="24" viewBox="0 0 24 24" fill="none" xmlns="http://www.w3.org/2000/svg">
<path d="M3.52931 2.7765C3.65281 2.23827 4.18928 1.90209 4.72755 2.02552C4.96902 2.0809 5.33336 2.1696 5.67189 2.26771C5.84031 2.31653 6.01558 2.3715 6.17091 2.42884C6.29559 2.47488 6.51124 2.55936 6.68849 2.68763C6.92478 2.85879 7.05937 3.07068 7.14943 3.28431C7.21915 3.44979 7.28069 3.6625 7.34669 3.89955C7.48248 4.38727 7.68636 5.28646 7.834 6.02259C7.86135 6.15899 7.88432 6.29025 7.90724 6.41517C7.92445 6.41573 7.94171 6.41664 7.959 6.4181C7.97962 6.41854 8.02001 6.41856 8.09474 6.41908C8.28706 6.4204 8.66933 6.42068 9.43361 6.42005C10.9605 6.41881 14 6.4122 17.1983 6.39564C17.7505 6.39278 18.2013 6.83848 18.2041 7.39076C18.2068 7.94281 17.7611 8.39272 17.209 8.39564C14.0074 8.41221 10.9651 8.41881 9.43556 8.42005C8.78893 8.42058 8.41046 8.41995 8.18751 8.41908C8.20838 8.60233 8.22748 8.7779 8.24611 8.93763L8.33302 9.69349L8.33497 9.70619L8.33595 9.71888C8.34145 9.78945 8.35335 9.97157 8.33693 10.1261C8.33101 10.1817 8.31813 10.2351 8.30372 10.2872C8.45975 10.2639 8.61168 10.2513 8.7588 10.2521C9.12519 10.254 9.5706 10.3157 9.93654 10.3849C10.2254 10.4396 10.5825 10.5247 10.8438 10.6281C10.8785 10.6399 10.9133 10.6531 10.9473 10.6691C10.95 10.6703 10.9534 10.6707 10.9561 10.672C10.9602 10.674 10.9647 10.6758 10.9688 10.6779C11.0952 10.7408 11.5569 10.9515 11.9932 11.1984C12.3074 11.3762 12.7313 11.6399 13.0703 11.9738C13.2101 11.9135 13.366 11.8835 13.5283 11.8937C13.7667 11.9086 14.0043 11.9242 14.7129 11.9279C15.4088 11.9314 16.6497 11.9225 17.3106 11.9298C17.8368 11.9357 18.2235 11.9809 18.5527 12.0636C18.8698 12.1432 19.1228 12.2594 19.2549 12.3126C19.5413 12.4279 19.7318 12.607 19.8516 12.7462L19.9492 12.8683L20.0567 13.0119L20.1074 13.1847C20.1611 13.3664 20.1839 13.5861 20.1973 13.7423C20.2129 13.9253 20.2238 14.1355 20.2305 14.3458C20.2438 14.7659 20.2429 15.2283 20.2315 15.5577V15.5597C20.2296 15.6112 20.2295 15.6899 20.2295 15.7931C20.4902 15.8663 20.6808 16.0123 20.8047 16.132C20.9378 16.2606 21.0479 16.41 21.1397 16.5499C21.3227 16.8293 21.526 17.219 21.7656 17.716C21.9967 18.1955 22.057 18.6434 22.002 19.0636C21.9546 19.4239 21.8111 19.7623 21.7715 19.8722C21.5127 20.5899 20.8473 20.9922 20.6221 21.1456C20.172 21.4523 19.6853 21.5467 19.294 21.5695C18.9093 21.5918 18.5426 21.5473 18.3174 21.5216C17.7537 21.4574 17.2695 21.193 16.9268 20.9513C16.5751 20.7033 16.2879 20.419 16.1055 20.2013C15.8772 19.9288 15.7434 19.6009 15.6611 19.3468C15.5735 19.076 15.5151 18.7946 15.4766 18.5509L15.4697 18.5109L15.4668 18.4699C15.4612 18.3961 15.4359 18.142 15.5342 17.8702L15.5908 17.7404C15.641 17.6416 15.7013 17.5583 15.7627 17.4884C15.8827 17.3014 16.0352 17.0884 16.2051 16.8869C16.3953 16.6611 16.6586 16.3864 16.9629 16.1954C17.2099 16.0405 17.4969 15.9648 17.7051 15.9181C17.8616 15.883 18.0392 15.8515 18.2295 15.8204C18.2294 15.7123 18.2289 15.5847 18.2324 15.4874C18.2421 15.2068 18.2435 14.7896 18.2315 14.4093C18.2273 14.2788 18.2187 14.1568 18.2119 14.0499C18.1653 14.0327 18.1217 14.0172 18.0654 14.0031C17.9333 13.9699 17.7119 13.9345 17.2881 13.9298C16.6135 13.9224 15.4657 13.9318 14.7031 13.9279C14.4597 13.9266 14.2661 13.9207 14.1065 13.9171C14.1088 13.9252 14.1119 13.9334 14.1143 13.9415C14.2446 14.3949 14.3272 14.8835 14.3545 15.2179C14.3943 15.7052 14.3579 16.4972 14.1856 17.5451C14.1107 18.0004 14.0253 18.4121 13.8291 18.8292C13.5754 19.3687 13.2631 20.0384 12.7041 20.4992C12.4183 20.7347 12.1479 20.9486 11.9043 21.1183C11.6792 21.2751 11.3982 21.4508 11.1045 21.5411C10.6376 21.6847 9.99695 21.8717 9.23927 21.8869C8.46117 21.9023 7.5712 21.9107 6.917 21.756C6.51306 21.6605 6.08331 21.5486 5.69435 21.3351C5.30285 21.1201 4.68096 20.6961 3.97462 19.9865C3.63041 19.6406 3.29127 19.2592 3.06056 18.9396C2.74734 18.5056 2.48244 18.0724 2.37111 17.6163C2.29173 17.2909 2.19997 16.4566 2.33009 15.3527C2.41648 14.6199 2.58332 13.9492 3.23341 13.1232C3.43459 12.8676 3.86502 12.407 4.52345 11.9093C4.85259 11.6605 5.01216 11.5457 5.1465 11.4572C5.35391 11.3205 5.8678 11.0225 6.65431 10.7443C6.43711 10.5375 6.31463 10.2365 6.34865 9.91517C6.34707 9.9301 6.34599 9.94111 6.34572 9.94642V9.94154C6.34548 9.93239 6.34441 9.92133 6.34376 9.90931C6.34341 9.90282 6.34223 9.89589 6.34181 9.88978C6.33012 9.77956 6.29997 9.52209 6.2588 9.16908C6.21774 8.81691 6.16838 8.38386 6.12306 7.95326V7.95423C6.08557 7.64675 6.01276 7.11275 5.87306 6.41615C5.72896 5.69766 5.53628 4.85357 5.41993 4.43568C5.40218 4.37193 5.38574 4.31751 5.37208 4.27064C5.29759 4.24585 5.21122 4.21643 5.11525 4.18861C4.82572 4.1047 4.50073 4.0253 4.28029 3.97474C3.74206 3.85124 3.4059 3.31476 3.52931 2.7765ZM8.74806 12.2521C8.57498 12.2512 8.27626 12.318 7.52833 12.5587C6.77762 12.8004 6.33584 13.0686 6.24708 13.1271C6.17015 13.1778 6.05384 13.2589 5.7295 13.504C5.19936 13.9047 4.89366 14.2475 4.8047 14.3605C4.44384 14.8191 4.37192 15.1081 4.31544 15.587C4.26263 16.0353 4.25847 16.412 4.27052 16.6896C4.27654 16.8281 4.28591 16.94 4.29591 17.0216C4.30519 17.0972 4.31333 17.136 4.31447 17.1417C4.32929 17.2023 4.3977 17.3739 4.68263 17.7687C4.83006 17.9729 5.08989 18.2732 5.39161 18.5763C5.96885 19.1562 6.43873 19.4626 6.65626 19.5822C6.78182 19.6511 6.97062 19.7134 7.37794 19.8097C7.73713 19.8945 8.35346 19.9046 9.19923 19.8878C9.65857 19.8787 10.0715 19.7659 10.5166 19.629C10.4987 19.6345 10.5672 19.6115 10.7608 19.4767C10.9368 19.3541 11.1575 19.1812 11.4317 18.9552C11.585 18.8288 11.7284 18.5967 12.0195 17.9777C12.0929 17.8217 12.1443 17.6368 12.2129 17.2199C12.3705 16.2617 12.382 15.6465 12.3604 15.381C12.3438 15.1782 12.2861 14.8201 12.1924 14.4943C12.0145 13.8756 11.7994 13.5646 11.7227 13.4581C11.6526 13.3609 11.4143 13.1697 11.0078 12.9396C10.6365 12.7294 10.3078 12.5823 10.0869 12.4728C10.0693 12.4669 10.0281 12.456 9.959 12.4376C9.85255 12.4093 9.71548 12.3783 9.56447 12.3497C9.25043 12.2903 8.94006 12.2531 8.74806 12.2521ZM19.5049 17.7081C19.3495 17.7023 19.115 17.706 18.8154 17.7521C18.5147 17.7983 18.3003 17.8351 18.1436 17.8702C18.0777 17.885 18.0333 17.8967 18.0059 17.9054C17.9538 17.9442 17.8572 18.0302 17.7344 18.1759C17.6844 18.2353 17.6374 18.2975 17.5928 18.3576C17.5718 18.4198 17.5439 18.4797 17.5108 18.5372C17.5271 18.6057 17.5442 18.6711 17.5635 18.7306C17.6142 18.8872 17.6511 18.932 17.6387 18.9171C17.7227 19.0172 17.8849 19.1799 18.0801 19.3175C18.2846 19.4616 18.4473 19.5233 18.544 19.5343C18.7923 19.5626 18.9914 19.5832 19.1777 19.5724C19.3575 19.5619 19.4489 19.5245 19.4961 19.4923C19.6642 19.3778 19.7614 19.3109 19.8379 19.2413C19.9067 19.1788 19.9005 19.1644 19.8897 19.1945C19.909 19.1409 19.9315 19.0818 19.9463 19.0421C19.9629 18.9975 19.9756 18.9622 19.9863 18.9298C20.0075 18.8664 20.0162 18.829 20.0195 18.8038C20.0224 18.7824 20.0216 18.7627 20.0176 18.7384C20.0133 18.7126 20.0016 18.6625 19.9639 18.5841C19.7546 18.1502 19.6084 17.8768 19.5049 17.7081ZM17.2022 18.8702L17.2041 18.8693C17.2048 18.8687 17.2051 18.8672 17.2061 18.8663L17.2022 18.8702ZM8.33497 14.8585C8.64543 14.8051 8.99224 14.8389 9.29982 15.005L9.44923 15.0988L9.6006 15.2238C9.92 15.5276 10.0203 15.9053 10.0576 16.1398C10.0795 16.2776 10.0858 16.4054 10.0889 16.4943C10.0929 16.6089 10.0925 16.6354 10.0957 16.6876C10.0965 16.7008 10.102 16.7734 10.1016 16.8439C10.1011 16.9208 10.0942 17.0523 10.0488 17.2033C9.99732 17.3747 9.89541 17.5683 9.71193 17.7296C9.53304 17.8868 9.33426 17.9629 9.167 17.9972C8.61196 18.1108 8.11935 17.9661 7.79786 17.8156C7.6315 17.7376 7.48362 17.6461 7.36329 17.5538C7.30374 17.5082 7.23973 17.4542 7.1797 17.3927C7.14428 17.3564 7.01917 17.2279 6.93751 17.0343L6.92482 17.004L6.91407 16.9728C6.86207 16.8223 6.83387 16.6698 6.8213 16.4933C6.80767 16.3016 6.81286 16.0781 6.86427 15.757C6.95166 15.2118 7.46463 14.8408 8.00978 14.9279C8.02061 14.9296 8.03132 14.9336 8.042 14.9357C8.11192 14.9131 8.16754 14.8971 8.18361 14.8927L8.33497 14.8585ZM8.13087 6.44642C8.13088 6.44642 8.12129 6.44416 8.11036 6.44154C8.097 6.43834 8.08136 6.43497 8.06447 6.43177C8.06186 6.43128 8.05919 6.43125 8.05665 6.4308C8.08125 6.43535 8.10629 6.43995 8.13087 6.44642Z" fill="black"/>
</svg>
