<svg width="24" height="24" viewBox="0 0 24 24" fill="none" xmlns="http://www.w3.org/2000/svg">
<path d="M11.2024 0.767906C11.4298 0.788992 11.5969 0.880872 11.6926 0.947594C11.7356 0.977569 11.7721 1.00904 11.7981 1.03255L11.8411 1.07357L11.925 1.16439C11.9471 1.18913 11.9713 1.21544 12.0022 1.24935C12.0623 1.3152 12.1532 1.41405 12.2932 1.55502C12.504 1.75735 12.844 2.06953 13.2268 2.39974C13.617 2.73631 14.0365 3.07735 14.4944 3.45638C14.9198 3.80848 14.9792 4.43914 14.6272 4.86459C14.275 5.28999 13.6444 5.34954 13.219 4.9974C13.0596 4.86548 12.8986 4.73306 12.7385 4.60091C12.7654 5.04836 12.787 5.86622 12.7825 7.67318C12.7806 8.39714 12.7737 9.28287 12.7649 10.2884C14.3466 10.289 15.8691 10.2905 16.9719 10.2913C17.4613 10.2917 17.8631 10.2938 18.1936 10.2943C17.9572 10.0791 17.7336 9.87405 17.5911 9.74642C17.4724 9.64016 17.4172 9.59089 17.3928 9.56966C17.1641 9.3865 17.017 9.10518 17.0168 8.78939C17.0168 8.23715 17.4646 7.78945 18.0168 7.78939C18.0314 7.78939 18.1381 7.78807 18.2678 7.82162C18.3791 7.85042 18.4618 7.89222 18.5051 7.91634C18.5784 7.9572 18.6315 8.00016 18.6379 8.00521C18.6656 8.02683 18.6927 8.05003 18.7063 8.06185C18.7429 8.09374 18.8079 8.15127 18.925 8.25619C19.1624 8.46876 19.64 8.8981 20.0188 9.2513C20.4165 9.62216 20.6342 9.8408 20.927 10.0863C21.2437 10.3517 21.5357 10.5898 21.7209 10.7542C21.8085 10.8319 21.9256 10.9393 22.0188 11.054C22.0592 11.1038 22.1557 11.2269 22.219 11.4007C22.2859 11.5846 22.3798 12.0419 22.0266 12.4417C21.9262 12.5553 21.8144 12.6627 21.7346 12.7415C21.6474 12.8278 21.5562 12.9202 21.4465 13.0433C21.275 13.236 21.0126 13.5228 20.8167 13.7494C20.6374 13.9567 20.545 14.0771 20.4397 14.2259C20.3292 14.3821 20.2086 14.5646 20.054 14.8158C19.7644 15.2855 19.148 15.432 18.678 15.1429C18.2078 14.8534 18.0616 14.2372 18.3508 13.7669C18.5259 13.4826 18.6701 13.265 18.8069 13.0716C18.949 12.8708 19.0805 12.6981 19.303 12.4408C19.3418 12.3959 19.385 12.3479 19.429 12.2982C19.1038 12.2966 18.4308 12.2925 16.97 12.2913C15.8637 12.2905 14.3333 12.289 12.7444 12.2884C12.7241 14.2063 12.6985 16.3929 12.6702 18.6517C13.0902 18.2197 13.5637 17.7375 14.0393 17.2523C14.4259 16.8579 15.059 16.8521 15.4534 17.2386C15.8475 17.6252 15.8545 18.2584 15.468 18.6527C14.4808 19.6598 13.5405 20.6188 13.0461 21.1517C12.8031 21.4137 12.6785 21.5605 12.6155 21.639C12.5854 21.6765 12.5682 21.7007 12.5569 21.7161C12.5536 21.7206 12.55 21.7245 12.5461 21.7298C12.5427 21.7346 12.5379 21.743 12.5325 21.7503C12.5231 21.763 12.4998 21.7945 12.47 21.8294C12.3913 21.9215 11.9905 22.349 11.3723 22.1634C11.1383 22.093 10.9906 21.9573 10.928 21.8939C10.8632 21.8281 10.8188 21.7655 10.8059 21.7474C10.824 21.7727 10.833 21.7753 10.7268 21.6663C10.6231 21.56 10.4464 21.3841 10.1223 21.0619C9.66675 20.6089 8.87436 19.8056 8.47778 19.4027C8.28034 19.2021 8.17694 19.0968 8.12231 19.0404C8.1111 19.0288 8.01788 18.9389 7.95044 18.8372C7.6455 18.3771 7.77176 17.7567 8.23169 17.4515C8.65185 17.173 9.20497 17.2534 9.53052 17.6195L9.55884 17.6488C9.60708 17.6986 9.70537 17.799 9.90356 18.0003C10.095 18.1948 10.3781 18.4785 10.6682 18.7718C10.6972 16.4678 10.7247 14.2378 10.7454 12.2874C9.26694 12.2867 7.87165 12.2869 6.86255 12.2855C5.97187 12.2842 5.37948 12.2805 4.97974 12.2786C5.30118 12.4918 5.64598 12.7237 5.99634 12.9613C6.45342 13.2713 6.57293 13.8929 6.26294 14.3499C5.95294 14.8066 5.33121 14.9262 4.87427 14.6165C4.05897 14.0636 3.31481 13.5669 2.82837 13.2689C2.72599 13.2062 2.57095 13.1145 2.44751 13.0277C2.32599 12.9421 2.11914 12.7848 1.96899 12.5355C1.79007 12.2383 1.74483 11.9056 1.80981 11.5863C1.86545 11.3133 1.9947 11.0792 2.1106 10.9017C2.33865 10.5524 2.71317 10.1247 3.052 9.75619C3.40389 9.3735 3.77538 8.99365 4.02661 8.7347C4.53219 8.21359 4.60556 8.12663 4.67505 8.04623C5.03609 7.62876 5.66744 7.58304 6.08521 7.94369C6.50306 8.30482 6.54888 8.93696 6.18774 9.35482C6.08093 9.47841 5.97628 9.59736 5.46216 10.1273C5.41518 10.1757 5.36494 10.2268 5.31274 10.2806C5.68562 10.2819 6.18761 10.2845 6.86548 10.2855C7.87844 10.2869 9.28032 10.2867 10.7649 10.2874C10.7737 9.27927 10.7806 8.39217 10.7825 7.6683C10.7871 5.8269 10.7625 5.06825 10.7405 4.71029C10.7137 4.74752 10.6892 4.78749 10.6604 4.82552C10.5482 4.97367 10.4607 5.08539 10.3967 5.16439C10.3653 5.20321 10.3357 5.23911 10.3098 5.26888C10.2975 5.28298 10.2807 5.30193 10.262 5.32162C10.2528 5.33128 10.237 5.34761 10.218 5.36556C10.2089 5.37419 10.1581 5.42253 10.0862 5.47103C9.62831 5.77942 9.00715 5.65829 8.69849 5.20052C8.43215 4.80503 8.48636 4.28793 8.80103 3.95541L8.84204 3.9056C8.88839 3.84838 8.96286 3.75458 9.06665 3.61752C9.27391 3.34371 9.39513 3.11448 9.5481 2.76205C9.6558 2.51386 9.91473 1.86945 10.0452 1.5892C10.0982 1.47519 10.198 1.25994 10.3508 1.09701C10.4235 1.01959 10.7199 0.723263 11.2024 0.767906ZM9.61841 17.7318C9.61804 17.7312 9.60806 17.7173 9.59595 17.7005C9.59354 17.6972 9.59049 17.6939 9.58813 17.6908C9.59809 17.7043 9.60904 17.7176 9.61841 17.7318ZM17.9348 9.78646C17.9767 9.78991 18.0127 9.7895 18.0168 9.78939C17.9869 9.78938 17.9572 9.78709 17.928 9.78451C17.9303 9.78471 17.9325 9.78624 17.9348 9.78646ZM17.7668 9.75716C17.7696 9.75788 17.7729 9.75745 17.7756 9.75814C17.7704 9.75684 17.7652 9.75561 17.76 9.75423C17.7624 9.75487 17.7645 9.75655 17.7668 9.75716ZM17.5315 9.66341C17.5326 9.66394 17.5343 9.66379 17.5354 9.66439C17.5298 9.66131 17.5243 9.65782 17.5188 9.65462C17.5231 9.65713 17.5269 9.66088 17.5315 9.66341ZM8.88208 3.87728C8.86563 3.89123 8.8531 3.90378 8.84497 3.91146C8.84118 3.91505 8.83748 3.91902 8.83423 3.9222C8.87526 3.88277 8.92019 3.84573 8.96899 3.81283C8.92782 3.84059 8.89664 3.86495 8.88208 3.87728Z" fill="black"/>
</svg>
