<svg width="24" height="24" viewBox="0 0 24 24" fill="none" xmlns="http://www.w3.org/2000/svg">
<path d="M3.32324 19.5246C4.09014 19.5307 5.59896 19.5433 6.62988 19.5519C7.66324 19.5606 8.16753 19.5655 8.4502 19.5666C8.73022 19.5677 8.75505 19.5647 8.77441 19.5637C9.32552 19.5331 9.79708 19.955 9.82812 20.506C9.85893 21.0574 9.43701 21.5298 8.88574 21.5607C8.80537 21.5652 8.73252 21.5677 8.44238 21.5666C8.15367 21.5655 7.64124 21.5606 6.61328 21.5519C5.58277 21.5433 4.07441 21.5307 3.30762 21.5246C2.5415 21.5185 2.51914 21.5187 2.5 21.5187C1.94772 21.5187 1.5 21.071 1.5 20.5187C1.50016 19.9666 1.94782 19.5187 2.5 19.5187C2.5296 19.5187 2.56302 19.5185 3.32324 19.5246ZM15.5068 2.00115C15.7793 1.98868 16.0018 2.07957 16.1455 2.16522C16.3023 2.25877 16.4147 2.3741 16.4844 2.4533C16.6223 2.61029 16.7382 2.79921 16.8213 2.94158C17.0288 3.29738 17.152 3.55593 17.3555 3.87127C17.4515 4.02011 17.5126 4.12823 17.5664 4.22088C17.617 4.30791 17.6711 4.39971 17.7676 4.54705C17.9766 4.86634 18.3628 5.42412 18.6211 5.77264C18.9263 6.18437 19.1849 6.40015 19.5283 6.65936C19.7742 6.84491 20.0456 6.96399 20.4199 7.08709C20.8511 7.2288 21.3309 7.2347 21.8516 7.27752C21.9404 7.28484 22.1514 7.30945 22.3662 7.44158C22.6539 7.61876 22.8658 7.94328 22.8633 8.33514C22.8613 8.62159 22.7421 8.82747 22.7021 8.89373C22.6495 8.98101 22.5928 9.04963 22.5635 9.08416C22.4045 9.27097 22.1734 9.465 21.9414 9.64276C21.6928 9.83317 21.3828 10.0497 21.0254 10.2844C20.2684 10.7813 19.6435 10.9589 19.2363 11.0236C18.9168 11.0743 18.5581 11.0428 18.2715 11.007C18.0825 10.9834 17.8785 10.9511 17.6719 10.9162C17.6864 11.0257 17.701 11.1302 17.7119 11.2277C17.7496 11.5649 17.7359 11.7652 17.6826 12.1623C17.6607 12.3255 17.6346 12.5036 17.6104 12.675C17.9023 12.6866 18.2232 12.7025 18.4785 12.7267C18.7305 12.7507 18.9696 12.7865 19.2129 12.8625C19.4594 12.9396 19.6684 13.0455 19.874 13.1642C20.2664 13.3909 20.7749 13.7452 21.127 14.0207C21.7362 14.4976 22.0427 14.8955 22.2568 15.2687C22.552 15.7834 22.6371 16.2562 22.6748 16.4904C22.8282 17.4446 22.369 18.2549 22.0781 18.7111C21.8793 19.0228 21.5775 19.2751 21.292 19.4953C20.9616 19.75 20.5123 20.0393 20.124 20.2531C19.4051 20.649 18.855 20.8041 18.4502 20.8888C17.975 20.9883 17.5697 20.9977 17.3428 21.0119C16.9001 21.0397 16.7692 21.081 16.3145 21.1252C16.1 21.146 15.5133 21.2212 15.0508 21.2541L15.0176 21.256C14.1745 21.2883 13.5803 21.2715 13.2266 21.2375L12.9443 21.2306C12.3922 21.2306 11.9445 20.7827 11.9443 20.2306C11.9445 19.6786 12.3922 19.2307 12.9443 19.2306C13.0005 19.2306 13.0648 19.2301 13.1367 19.2316L13.375 19.2433L13.4023 19.2453C13.6202 19.2676 14.1147 19.2875 14.9248 19.257C15.3659 19.225 15.7852 19.1676 16.1211 19.1349C16.3113 19.1164 16.795 19.0423 17.2178 19.0158C17.5241 18.9966 17.7433 18.9939 18.04 18.9318C18.2858 18.8804 18.6426 18.7856 19.1592 18.5012C19.4719 18.329 19.8337 18.0945 20.0713 17.9113C20.2007 17.8115 20.2846 17.7402 20.3398 17.6877C20.395 17.6353 20.4017 17.6202 20.3916 17.6359C20.656 17.2212 20.7266 16.9718 20.7002 16.8078C20.6754 16.6537 20.6365 16.4644 20.5215 16.2638C20.4405 16.1228 20.3077 15.9194 19.8945 15.5959C19.5973 15.3632 19.1669 15.0649 18.874 14.8957C18.7373 14.8167 18.6694 14.7883 18.6162 14.7717C18.5597 14.754 18.4739 14.7355 18.2891 14.718C17.8877 14.6799 17.2958 14.6666 16.9033 14.6506C16.8242 14.6473 16.6987 14.6425 16.5811 14.6252C16.4708 14.609 16.2295 14.5652 15.999 14.3928C15.7277 14.1896 15.6089 13.9175 15.5625 13.7023C15.5239 13.5229 15.5287 13.3535 15.5332 13.259C15.551 12.8847 15.6604 12.1934 15.7002 11.8967C15.7239 11.72 15.7315 11.6434 15.7334 11.5949C15.7346 11.5622 15.7338 11.5314 15.7246 11.4494C15.6608 10.8782 15.5791 10.4728 15.4844 10.2824C15.3893 10.0914 15.3119 9.97514 15.2061 9.86932C15.0815 9.74492 14.7383 9.46414 14.1533 9.15447C13.9174 9.0296 13.6903 8.92803 12.9688 8.70623C12.2259 8.4779 11.0889 8.16059 10.3291 8.01385C9.5528 7.86394 9.27413 7.88557 9.14062 7.91424C8.58219 8.03445 8.40361 8.11856 8.30176 8.19158C7.8189 8.53798 7.54595 8.7562 7.42969 8.89471C7.21009 9.1565 6.94953 9.52797 6.74902 10.007C6.64317 10.26 6.55758 10.524 6.49805 10.7599C6.44388 10.9748 6.41223 11.1602 6.39062 11.5099C6.37993 11.6833 6.38083 11.8767 6.37598 12.1291C6.37207 12.3318 6.36488 12.639 6.31055 12.8888C6.25929 13.1243 6.17616 13.373 5.97656 13.6203C5.89662 13.7193 5.81151 13.7997 5.74902 13.8576C5.69713 13.9057 5.60288 13.9903 5.54492 14.0431C5.25487 14.3076 4.73035 14.7916 4.44434 15.0676C4.29214 15.2144 4.23055 15.277 4.19824 15.3137C4.18711 15.3263 4.18606 15.3283 4.18945 15.3234C4.19287 15.3185 4.19283 15.318 4.18555 15.3312C3.91702 15.8189 3.86069 16.2431 3.8584 16.3244C3.84433 16.8765 3.38507 17.313 2.83301 17.299C2.28096 17.2849 1.84433 16.8257 1.8584 16.2736C1.86865 15.8743 2.01002 15.1367 2.43359 14.3674C2.59415 14.0758 2.76903 13.9047 3.05566 13.6281C3.36331 13.3313 3.90528 12.8309 4.19727 12.5646C4.24008 12.5256 4.27954 12.4909 4.31152 12.4621C4.33013 12.4453 4.34552 12.4298 4.35938 12.4172C4.36091 12.4018 4.3646 12.3818 4.36621 12.3576C4.37102 12.2853 4.37394 12.197 4.37598 12.091C4.37965 11.8997 4.38036 11.6166 4.39453 11.3869C4.42274 10.9302 4.47132 10.6206 4.55957 10.2707C4.64251 9.94192 4.75864 9.58366 4.9043 9.23553C5.20001 8.52885 5.58097 7.98687 5.89746 7.60955C6.20622 7.24157 6.70319 6.8769 7.13574 6.56658C7.59537 6.23688 8.12531 6.08712 8.71973 5.95916C9.25711 5.84355 9.85981 5.88599 10.709 6.04998C11.5757 6.21741 12.7941 6.55973 13.5566 6.79412C13.74 6.85049 13.9003 6.9015 14.043 6.9494C14.0011 6.71299 13.9776 6.48363 13.96 6.29119C13.9244 5.90272 13.9162 5.48333 13.9863 4.93279C14.0533 4.40748 14.1916 3.78043 14.3027 3.35662C14.3561 3.15313 14.4174 2.94025 14.4932 2.76483C14.5301 2.67922 14.5933 2.54857 14.6943 2.42205C14.7898 2.30263 15.0128 2.07099 15.3867 2.01287L15.5068 2.00115ZM14.9912 15.6232C15.1614 15.6247 15.2417 15.628 15.3203 15.631C15.8718 15.6522 16.3019 16.1167 16.2812 16.6681C16.2602 17.2199 15.7959 17.6509 15.2441 17.6301C15.1791 17.6276 15.119 17.6244 14.9736 17.6232C14.8209 17.6219 14.5869 17.6222 14.3984 17.6222H13.9502C13.3979 17.6222 12.9502 17.1745 12.9502 16.6222C12.9505 16.0702 13.3981 15.6222 13.9502 15.6222H14.3984C14.5836 15.6222 14.8281 15.6218 14.9912 15.6232ZM8.08008 15.4992H8.08105C8.64994 15.5024 9.70754 15.509 10.2734 15.5109C10.8545 15.5129 10.8596 15.5102 10.8633 15.5099C11.4141 15.4759 11.8892 15.8946 11.9238 16.4455C11.9581 16.9962 11.5389 17.4711 10.9883 17.506C10.9029 17.5114 10.8196 17.5128 10.2666 17.5109C9.69778 17.509 8.63593 17.5024 8.06934 17.4992V17.4982C7.43077 17.495 7.27058 17.4963 7.10254 17.4963C6.55025 17.4963 6.10254 17.0486 6.10254 16.4963C6.10263 15.9441 6.55031 15.4963 7.10254 15.4963C7.2748 15.4963 7.43849 15.496 8.08008 15.4992ZM15.9482 5.40447C15.9254 5.68036 15.9328 5.89671 15.9521 6.10858C15.9832 6.44812 16.0094 6.64817 16.0547 6.79217C16.1221 7.00591 16.1905 7.26764 16.2441 7.46014C16.3039 7.67446 16.3613 7.86189 16.4287 8.02752C16.5673 8.36775 16.6968 8.49201 16.8066 8.54412C17.0076 8.63892 17.1919 8.72746 17.2627 8.76092C17.3175 8.7868 17.3467 8.79985 17.3604 8.80584C17.3678 8.80764 17.3789 8.80988 17.3945 8.81365C17.4528 8.82769 17.5342 8.84862 17.6582 8.88299C17.9926 8.94195 18.2789 8.99242 18.5205 9.02264C18.6427 9.03791 18.7406 9.04614 18.8164 9.04901C18.8862 9.05161 18.9186 9.04925 18.9229 9.04901C19.0183 9.0338 19.2045 8.99138 19.4658 8.87029C19.0959 8.73012 18.7072 8.54412 18.3242 8.25506C17.9058 7.93925 17.48 7.59082 17.0146 6.96307C16.7311 6.58046 16.3229 5.99117 16.0947 5.64276C16.0345 5.55075 15.9891 5.4713 15.9482 5.40447Z" fill="black"/>
</svg>
