<svg width="24" height="24" viewBox="0 0 24 24" fill="none" xmlns="http://www.w3.org/2000/svg">
<path d="M10.9634 12.9883C11.5153 12.9886 11.9632 13.4363 11.9634 13.9883C11.9634 14.2215 11.8827 14.3984 11.854 14.46C11.8172 14.5389 11.7725 14.6156 11.7309 14.6826C11.6446 14.8219 11.5041 15.0287 11.2798 15.3447C11.0465 15.6733 10.7385 16.0855 10.4575 16.4727C10.8128 16.4927 11.2128 16.5217 11.5845 16.5733C11.9083 16.6182 12.2635 16.6854 12.5786 16.7988C12.8141 16.8837 13.2022 17.0541 13.4682 17.4102L13.5747 17.5742L13.6255 17.6768C13.8546 18.1899 13.6981 18.6839 13.5688 18.959C13.4225 19.2704 13.1981 19.5538 12.9946 19.7813C12.5835 20.2408 12.0361 20.7067 11.6948 21.0069C10.9862 21.6302 10.8335 21.8164 10.7495 21.9199C10.6541 22.0375 10.6235 22.0849 10.5561 22.207C10.2894 22.6906 9.68035 22.8663 9.19676 22.5996C8.71346 22.3328 8.53763 21.7247 8.80418 21.2412C8.9275 21.0176 9.02406 20.8718 9.19578 20.6602C9.37928 20.434 9.62474 20.1654 10.3745 19.5059C10.7181 19.2036 11.092 18.878 11.3891 18.5674C11.3635 18.5635 11.3371 18.5575 11.31 18.5537C10.7745 18.4795 10.1643 18.4604 9.66941 18.4356C9.44066 18.4241 9.21374 18.4106 9.02488 18.3828C8.88819 18.3627 8.53638 18.3094 8.24851 18.0654C8.06796 17.9123 7.92648 17.697 7.87058 17.4346C7.81995 17.1962 7.85533 16.9907 7.89109 16.8594C7.9554 16.6236 8.0847 16.4087 8.16258 16.2822C8.51021 15.718 9.30906 14.6663 9.6489 14.1875C9.86972 13.8764 9.97917 13.712 10.0307 13.6289C10.1753 13.2546 10.538 12.9883 10.9634 12.9883ZM15.5757 1.58205C15.6844 1.53615 16.0274 1.41091 16.4214 1.58791C16.8015 1.75883 16.9431 2.08409 16.9887 2.20998C17.0149 2.28221 17.0331 2.35285 17.0454 2.41701L17.0688 2.584L17.0942 2.89552C17.1146 3.20174 17.1217 3.48442 17.1313 3.67775C17.1474 4.00088 17.1726 4.07299 17.1684 4.06349C17.4525 4.71695 17.6633 5.09424 17.853 5.3672C18.0424 5.63966 18.2308 5.83817 18.5298 6.14845C18.9363 6.57033 19.6952 7.24879 20.311 7.75587C20.8062 8.16357 21.1854 8.43091 21.4448 8.60158C21.5749 8.68718 21.6777 8.75041 21.7583 8.79982C21.7957 8.82277 21.839 8.84948 21.8745 8.87209C21.8844 8.87842 21.9099 8.8937 21.9419 8.91603L22.0503 9.00001L22.1401 9.08888C22.2296 9.18871 22.3134 9.32177 22.3618 9.48927C22.4265 9.71337 22.4044 9.92036 22.3559 10.0772C22.2727 10.3463 22.1021 10.5063 22.0493 10.5547C21.9172 10.6757 21.7664 10.7576 21.687 10.7988C21.4953 10.8984 21.2429 11.0008 20.9917 11.0947C20.0973 11.4292 18.7924 11.4926 17.6802 11.5039H17.6557L17.6313 11.5029C17.3766 11.4931 17.1688 11.4684 16.9907 11.4356C16.9629 11.7766 16.8949 12.079 16.8198 12.333C17.0817 12.3219 17.3394 12.3049 17.6401 12.2891C17.9242 12.2742 18.3286 12.2563 18.6509 12.3223C19.1682 12.4283 19.5007 12.7641 19.7397 13.086C19.9691 13.3948 20.2167 13.8357 20.518 14.3965C21.163 15.5971 21.1161 16.9635 20.853 18.2383C20.686 19.0474 20.1935 19.9298 19.8628 20.4697C19.5962 20.9047 19.2059 21.1042 18.9018 21.207C18.6578 21.2895 18.3135 21.3506 18.188 21.3789L18.1518 21.3867L18.1157 21.3926C17.6601 21.4604 17.157 21.4964 16.7602 21.4912H16.7417C16.5583 21.4854 16.4438 21.4713 16.228 21.4483C15.6788 21.3897 15.2808 20.8968 15.3393 20.3477C15.398 19.7986 15.8908 19.4005 16.4399 19.459C16.6672 19.4832 16.7083 19.4873 16.7934 19.4902C17.063 19.4933 17.444 19.4677 17.7993 19.416C17.8459 19.4059 17.8907 19.397 17.9311 19.3887C17.989 19.3768 18.0354 19.3673 18.0815 19.3574C18.1413 19.3446 18.1841 19.332 18.2163 19.3233C18.5207 18.8144 18.8105 18.2432 18.895 17.834C19.1206 16.7412 19.0746 15.9351 18.7563 15.3428C18.4433 14.7603 18.2621 14.4505 18.1343 14.2783C18.1336 14.2774 18.133 14.2763 18.1323 14.2754C18.1262 14.2753 18.1195 14.2755 18.1128 14.2754C18.0149 14.2745 17.8931 14.2784 17.7456 14.2861C17.4784 14.3002 17.0784 14.3303 16.7456 14.3399C16.4225 14.3492 15.9938 14.3479 15.6274 14.249C15.4439 14.1994 15.1629 14.0967 14.9292 13.8574C14.6519 13.5733 14.5364 13.1951 14.5825 12.8184L14.6128 12.6504C14.6501 12.4862 14.7056 12.3366 14.7378 12.2481C14.7952 12.0901 14.845 11.9612 14.8921 11.8086C14.9816 11.5181 15.0331 11.2227 14.9907 10.9053C14.9407 10.5312 14.9026 10.3462 14.8198 10.1709C14.741 10.0041 14.5859 9.77417 14.1919 9.4297C13.5239 8.84572 13.1139 8.54387 12.9292 8.45998C12.748 8.37797 12.3909 8.22641 11.5249 8.17873C10.9145 8.14516 10.0287 8.1455 9.25828 8.21974C8.42042 8.30052 7.82703 8.40408 7.55808 8.50392C6.68391 8.82874 6.38458 9.04418 6.29246 9.16701C5.87851 9.72097 5.7102 10.0371 5.7241 10.4649C5.72616 10.5282 5.74445 10.6416 5.79344 10.8262C5.84371 11.0156 5.89945 11.1871 5.96922 11.4229C6.03026 11.6292 6.10354 11.8897 6.13719 12.1445C6.16687 12.3697 6.19611 12.7887 5.9741 13.1856C5.79402 13.5071 5.50755 13.6357 5.43699 13.668C5.38857 13.6902 5.34065 13.7088 5.31785 13.7178C5.28822 13.7294 5.2706 13.7361 5.25144 13.7442C4.44136 14.0833 4.12034 14.1019 3.72215 14.4951C3.5969 14.6189 3.50861 14.7294 3.4575 14.8203C3.4216 14.8843 3.4147 14.9185 3.41355 14.9277C3.4274 15.265 3.46891 15.7421 3.56883 16.2158C3.67242 16.7068 3.82039 17.1036 3.99558 17.3486C4.11264 17.5123 4.73538 18.2218 5.72117 19.0449C5.92161 19.2123 6.02857 19.2942 6.07859 19.3311C6.38437 19.502 6.59107 19.829 6.59129 20.2041C6.59129 20.7563 6.14344 21.204 5.59129 21.2041C5.35857 21.204 5.18411 21.1188 5.17429 21.1143C5.12127 21.0904 5.07872 21.0661 5.0532 21.0508C5.00009 21.019 4.94772 20.9823 4.89988 20.9473C4.80117 20.875 4.65715 20.7615 4.43992 20.5801C3.38162 19.6965 2.62026 18.8636 2.36863 18.5117C1.95806 17.9374 1.73797 17.2262 1.61179 16.6279C1.48203 16.0126 1.43229 15.4186 1.41551 15.0098C1.37884 14.1152 1.9481 13.4357 2.3159 13.0723C2.88636 12.5088 3.58268 12.2276 4.06883 12.0508C4.06325 12.0315 4.05839 12.0111 4.05222 11.9902C4.00127 11.8181 3.92019 11.5626 3.86082 11.3389C3.80014 11.1102 3.73562 10.8229 3.72605 10.5303C3.6881 9.36558 4.24523 8.56483 4.68992 7.96974C5.17691 7.31827 6.0254 6.93969 6.86179 6.62892C7.40674 6.42658 8.2457 6.30867 9.06687 6.22951C9.9561 6.14381 10.9438 6.1437 11.6343 6.18166C11.9017 6.19637 12.1395 6.21952 12.352 6.24904C12.342 6.06743 12.3394 5.87211 12.3471 5.66701C12.3755 4.92132 12.784 4.32722 13.1401 3.75099C13.9312 2.47104 15.0221 1.90506 15.3882 1.68068C15.3892 1.68005 15.3909 1.67908 15.393 1.67775C15.3952 1.67639 15.3984 1.67401 15.4018 1.67189C15.409 1.66748 15.4212 1.66039 15.435 1.65236C15.4599 1.63787 15.5106 1.6095 15.5757 1.58205ZM5.88523 19.249C5.88365 19.2485 5.88194 19.2476 5.88035 19.2471C5.8737 19.2451 5.86574 19.2434 5.85789 19.2412C5.86697 19.2437 5.87626 19.2463 5.88523 19.249ZM5.7739 19.2217C5.75086 19.2174 5.72094 19.2125 5.68601 19.209C5.71563 19.212 5.74514 19.2164 5.7739 19.2217ZM15.187 4.33888C15.0677 4.47425 14.9499 4.62608 14.8413 4.80177C14.6226 5.15569 14.4984 5.35615 14.4184 5.52052C14.3511 5.65892 14.3464 5.7114 14.3452 5.74318C14.3352 6.00877 14.3505 6.23696 14.3725 6.40724C14.3929 6.56436 14.4157 6.64767 14.4184 6.65919C14.4675 6.79809 14.4823 6.9404 14.4702 7.07814C14.8028 7.32062 15.1581 7.61769 15.5083 7.92384C15.9696 8.32714 16.3025 8.71412 16.5337 9.13185C16.6002 9.14821 16.6658 9.1722 16.73 9.20314C17.0454 9.35541 17.0566 9.3726 17.1841 9.42287C17.2271 9.43982 17.268 9.45383 17.3325 9.46681C17.4004 9.48046 17.5097 9.49527 17.685 9.50294C18.2485 9.49675 18.7641 9.47423 19.2036 9.43068C19.1507 9.38811 19.0957 9.34527 19.0405 9.29982C18.397 8.77 17.5716 8.03668 17.0893 7.53615C16.7947 7.23033 16.5027 6.92783 16.2114 6.5088C15.9204 6.0901 15.6489 5.58465 15.3345 4.86134C15.2611 4.69257 15.2158 4.51201 15.187 4.33888Z" fill="black"/>
</svg>
