<svg width="24" height="24" viewBox="0 0 24 24" fill="none" xmlns="http://www.w3.org/2000/svg">
<path d="M13.291 20.022C13.6418 19.5954 14.2717 19.5335 14.6982 19.8843C15.1247 20.2349 15.1863 20.8649 14.8359 21.2915C14.819 21.3122 14.8032 21.3315 14.79 21.3472C14.7762 21.3637 14.7666 21.3747 14.7578 21.3853C14.7524 21.3918 14.7475 21.396 14.7451 21.3989C14.6264 21.5806 14.4304 21.8128 13.9482 22.2857L13.9092 22.3237L13.8672 22.3569C13.7368 22.4597 13.5575 22.5873 13.3105 22.6831C13.0681 22.7771 12.813 22.8204 12.54 22.8345C12.2786 22.8479 11.7391 22.8721 11.3262 22.8042C10.7944 22.7167 10.3532 22.5727 9.95215 22.3247C9.58308 22.0965 9.25855 21.7519 8.96777 21.3931C8.62045 20.9641 8.68644 20.3345 9.11523 19.9868C9.5443 19.6391 10.1747 19.7052 10.5225 20.1343C10.7725 20.4427 10.9261 20.5753 11.0039 20.6235C11.1242 20.698 11.2987 20.7736 11.6504 20.8316C11.8157 20.8588 12.1397 20.8527 12.4375 20.8374C12.5269 20.8328 12.5692 20.8226 12.583 20.8189C12.5847 20.8178 12.5873 20.8164 12.5908 20.814C12.8356 20.5726 12.9648 20.4348 13.0312 20.3579C13.048 20.3386 13.059 20.3242 13.0664 20.3149C13.0687 20.3121 13.0708 20.31 13.0723 20.3081L13.0879 20.2808L13.1152 20.2417C13.154 20.1864 13.1942 20.1372 13.2168 20.1099C13.2295 20.0945 13.2436 20.0774 13.2549 20.064C13.267 20.0494 13.2793 20.0363 13.291 20.022ZM13.5215 1.00929C13.7796 1.02185 14.0313 1.03558 14.291 1.08253C14.5654 1.13215 14.8174 1.21266 15.1123 1.33155C15.5756 1.51832 16.4328 1.87564 16.9404 2.11085C17.4807 2.36121 17.7267 2.51917 18.0098 2.80811C18.2168 3.01951 18.4589 3.30522 18.6846 3.65382C18.9093 4.00109 19.1081 4.39282 19.2676 4.80616C19.4279 5.22175 19.5444 5.64489 19.6328 6.10401C19.7259 6.58738 19.7836 7.08833 19.8281 8.31593C19.8713 9.50572 19.9056 11.4906 19.9395 12.5601C19.9743 13.6606 20.0107 13.9304 20.0273 14.0532C20.0328 14.0933 20.0368 14.1228 20.04 14.1441C20.0403 14.146 20.0398 14.1482 20.04 14.1499C20.1075 14.3551 20.1804 14.6088 20.3896 14.8843C20.4701 14.9901 20.6512 15.1901 20.9033 15.4126C21.0793 15.5679 21.4056 15.8216 21.7568 16.1577C21.7735 16.1736 21.8321 16.2282 21.8867 16.2944C21.9152 16.329 21.9659 16.394 22.0127 16.4819C22.0557 16.5629 22.1343 16.7354 22.1348 16.9673C22.1352 17.2404 22.0262 17.5007 21.834 17.6919C21.6706 17.8543 21.4939 17.9209 21.4033 17.9487C21.23 18.0019 21.0725 18.0012 21.0137 18.0005C20.8775 17.9988 20.6949 17.9793 20.5605 17.9653C20.4014 17.9488 20.2282 17.9299 20.043 17.9165C19.6643 17.8892 19.241 17.8812 18.9756 17.8735C18.7431 17.8668 18.7125 17.8619 16.0186 17.8667C13.3303 17.8715 8.15674 17.8858 5.42578 17.8931C2.69596 17.9004 2.41546 17.8999 2.13477 17.8999C1.58257 17.8999 1.1349 17.4521 1.13477 16.8999C1.13499 16.3478 1.58262 15.8999 2.13477 15.8999C2.29592 15.8999 2.45713 15.8984 3.09863 15.897C3.1582 15.7779 3.24263 15.6693 3.34961 15.5796L3.56836 15.4155C3.58564 15.4005 3.59816 15.3864 3.6123 15.3716C3.67318 15.2985 3.73909 15.2002 3.87402 14.9878C3.90508 14.9248 3.9133 14.9098 3.92871 14.854C3.95035 14.7755 3.98487 14.6029 3.99219 14.2612C4.00449 13.6859 4.02019 12.5794 4.07227 11.687C4.12599 10.7667 4.21707 10.0726 4.43945 9.10011C4.65489 8.15805 4.98734 6.97476 5.14941 6.38722C5.31063 5.80276 5.32566 5.72457 5.45996 5.3462C5.58087 5.00556 5.82791 4.33187 6.12988 3.74854C6.42973 3.16939 6.76126 2.69437 6.99707 2.41456C7.12118 2.26732 7.33235 2.01913 7.67188 1.80518C8.01439 1.58938 8.42923 1.44224 8.94922 1.37061C9.55102 1.28776 10.691 1.14497 11.5771 1.07276C12.4603 1.0008 13.0898 0.988275 13.5215 1.00929ZM13.4238 3.00733C13.1101 2.99207 12.5743 2.99886 11.7393 3.0669C10.9073 3.13471 9.81006 3.27119 9.22266 3.35206C8.93086 3.39223 8.79768 3.45926 8.73828 3.49659C8.67622 3.53571 8.63028 3.58034 8.52637 3.70362C8.39238 3.86265 8.14228 4.21255 7.90625 4.66847C7.67222 5.12059 7.46302 5.68189 7.34473 6.01514C7.23996 6.3103 7.24563 6.30866 7.07715 6.91944C6.90935 7.52775 6.59268 8.65852 6.38965 9.54639C6.1936 10.4038 6.11604 10.9873 6.06836 11.8042C6.01908 12.6489 6.00506 13.7019 5.99219 14.3042C5.98241 14.7609 5.9345 15.1055 5.85742 15.3853C5.78826 15.6361 5.69597 15.8173 5.6582 15.8921C8.44155 15.8846 13.4012 15.8714 16.0146 15.8667C17.6443 15.8638 18.3081 15.8658 18.6387 15.8687C18.2967 15.3404 18.166 14.8505 18.1328 14.7524C18.084 14.6088 18.066 14.4773 18.0449 14.3218C18.0151 14.1015 17.9763 13.7546 17.9404 12.6235C17.9036 11.4606 17.8736 9.61367 17.8291 8.38819C17.786 7.20127 17.7337 6.81801 17.6689 6.48194C17.5996 6.12168 17.5139 5.81498 17.4023 5.52589C17.2899 5.2345 17.1522 4.96689 17.0059 4.74073C16.8605 4.51623 16.7049 4.33396 16.5811 4.20753C16.5307 4.15613 16.5143 4.14328 16.4824 4.12257C16.4305 4.08883 16.3298 4.03196 16.0996 3.9253C15.6396 3.71217 14.8214 3.37092 14.3652 3.18702C14.1485 3.09964 14.033 3.06793 13.9355 3.0503C13.8234 3.03002 13.698 3.02067 13.4238 3.00733Z" fill="black"/>
</svg>
