<svg width="24" height="24" viewBox="0 0 24 24" fill="none" xmlns="http://www.w3.org/2000/svg">
<path d="M3.77661 6.19336C3.86113 6.19589 3.89429 6.20183 5.78833 6.20996C7.6808 6.21809 11.4341 6.22873 13.3821 6.24316C14.3521 6.25036 14.8619 6.25837 15.1331 6.26855C15.257 6.27322 15.3756 6.2802 15.4739 6.29492C15.5199 6.30183 15.6297 6.3195 15.7532 6.37207C15.9333 6.4489 16.0465 6.55684 16.1008 6.61426C16.3143 6.84019 16.3847 7.10945 16.4172 7.21973C16.5031 7.5108 16.569 7.90074 16.6125 9.62793C16.6568 11.3829 16.6748 14.6316 16.7014 16.7031C16.7281 18.7812 16.7628 19.6161 16.7747 20.0811C16.7804 20.3054 16.7816 20.4719 16.7737 20.5947C16.7695 20.6587 16.7607 20.7513 16.7346 20.8535C16.7021 20.9806 16.6559 21.0724 16.6282 21.123C16.4169 21.5094 16.0809 21.6896 15.8186 21.7812C15.5902 21.861 15.3176 21.9072 15.0803 21.9463C14.6023 22.0249 13.8325 22.0887 12.3889 22.1191C10.9344 22.1498 8.77938 22.1312 7.27466 22.0957C5.76149 22.06 4.9555 22.0075 4.49243 21.9746C3.87969 21.9311 3.53912 21.8519 3.18677 21.748C2.70236 21.6052 2.43482 21.2451 2.30005 20.9922C2.16367 20.7361 2.09365 20.4647 2.05396 20.2607C2.01242 20.0472 1.99188 19.844 1.97974 19.7012C1.97527 19.6486 1.96747 19.5472 1.96606 19.5303C1.96574 19.5264 1.96634 19.5227 1.96606 19.5195C1.96536 19.5162 1.96381 19.513 1.96313 19.5098C1.95565 19.4732 1.94836 19.4327 1.94067 19.3838C1.92578 19.2888 1.90641 19.1455 1.87915 18.9121C1.82429 18.4422 1.73012 17.5499 1.69067 16.582C1.65115 15.6117 1.67018 14.6042 1.71899 13.7422C1.76802 12.8767 1.8461 12.1832 1.90356 11.7451C1.98261 11.1426 2.04089 10.8929 2.06958 10.7314C2.19764 10.0109 2.23129 9.94081 2.27563 9.50684C2.29183 9.34821 2.30322 8.90386 2.31274 8.38086C2.32143 7.90395 2.32875 7.36784 2.34399 7.12695C2.34435 7.12141 2.34551 7.11587 2.34595 7.11035C2.34754 7.09032 2.35003 7.07047 2.35278 7.05078C2.35481 7.03632 2.35796 7.02206 2.3606 7.00781C2.36393 6.98979 2.36705 6.97177 2.37134 6.9541C2.37452 6.94096 2.37839 6.92796 2.38208 6.91504C2.38754 6.89599 2.39312 6.87696 2.39966 6.8584C2.40393 6.84626 2.40861 6.83417 2.41333 6.82227C2.42179 6.80097 2.4318 6.78032 2.44165 6.75977C2.44584 6.751 2.44991 6.74201 2.45435 6.7334C2.46282 6.71698 2.47137 6.70045 2.48071 6.68457C2.48862 6.67113 2.49662 6.65754 2.50513 6.64453C2.51394 6.63106 2.52304 6.61751 2.53247 6.60449C2.5417 6.59179 2.55198 6.57962 2.56177 6.56738C2.57139 6.55536 2.58189 6.54379 2.59204 6.53223C2.60234 6.5205 2.61246 6.50829 2.62329 6.49707C2.63506 6.48488 2.64705 6.47252 2.65942 6.46094C2.67114 6.44998 2.68333 6.43909 2.69556 6.42871C2.7057 6.4201 2.71632 6.41153 2.72681 6.40332C2.74082 6.39236 2.75519 6.3813 2.76978 6.37109C2.78025 6.36377 2.79124 6.35654 2.802 6.34961C2.82006 6.338 2.83885 6.32686 2.85767 6.31641C2.86021 6.31495 2.8629 6.31292 2.86548 6.31152L2.92212 6.2832C2.92324 6.28283 2.92496 6.28272 2.92603 6.28223C2.94801 6.27215 2.9706 6.2624 2.99341 6.25391C3.0036 6.25012 3.01432 6.24663 3.02466 6.24316C3.04218 6.23732 3.06043 6.23244 3.07837 6.22754C3.09314 6.22349 3.10827 6.21919 3.12329 6.21582C3.13931 6.21225 3.15582 6.20885 3.17212 6.20605C3.18655 6.20358 3.20144 6.20106 3.21606 6.19922C3.23722 6.19657 3.25897 6.19467 3.28052 6.19336C3.2927 6.19264 3.30535 6.19267 3.31763 6.19238C3.3256 6.19214 3.33402 6.19043 3.34204 6.19043C3.48766 6.19043 3.6587 6.18985 3.77661 6.19336ZM4.31274 8.41797C4.30411 8.89228 4.29285 9.44559 4.26587 9.70996C4.21158 10.2413 4.14502 10.4872 4.03931 11.082C4.00014 11.3024 3.95812 11.4634 3.88696 12.0059C3.83432 12.4073 3.76071 13.05 3.71509 13.8555C3.66926 14.6648 3.6523 15.6057 3.68872 16.5C3.72524 17.3964 3.81326 18.2335 3.86548 18.6807C3.89169 18.9052 3.90747 19.0172 3.91626 19.0732C3.91833 19.0864 3.92017 19.0961 3.92114 19.1016C3.92153 19.1037 3.92191 19.1054 3.92212 19.1064V19.1084C3.92259 19.1096 3.92408 19.1141 3.927 19.127C3.94214 19.1933 3.94874 19.2526 3.95142 19.2764C3.95497 19.3079 3.95711 19.3397 3.95923 19.3652C3.96539 19.4398 3.96631 19.4537 3.9729 19.5312C3.98293 19.6492 3.9966 19.7698 4.01782 19.8789C4.01912 19.8856 4.02042 19.8921 4.02173 19.8984C4.17325 19.9314 4.35551 19.9597 4.63403 19.9795C5.06964 20.0104 5.8443 20.0618 7.32251 20.0967C8.81034 20.1318 10.9329 20.149 12.3469 20.1191C13.7707 20.0891 14.424 20.0273 14.7561 19.9727C14.7609 19.9718 14.766 19.9705 14.7708 19.9697C14.7562 19.4821 14.7254 18.5947 14.7014 16.7285C14.6744 14.6258 14.6574 11.4174 14.6135 9.67773C14.596 8.9843 14.5714 8.54198 14.551 8.25586C14.2742 8.25146 13.8924 8.24706 13.3674 8.24316C11.4234 8.22876 7.67912 8.21812 5.77954 8.20996C5.06229 8.20688 4.60842 8.2036 4.31567 8.20117C4.31443 8.2717 4.31408 8.34447 4.31274 8.41797ZM6.62524 15.3223C6.70167 15.3269 6.78495 15.3337 7.73267 15.334C8.67674 15.3343 10.4508 15.3284 11.3997 15.3262C12.3343 15.324 12.4205 15.325 12.5071 15.3281C13.0589 15.3478 13.4905 15.8115 13.4709 16.3633C13.4511 16.915 12.9876 17.3468 12.4358 17.3271C12.3971 17.3258 12.3572 17.324 11.4036 17.3262C10.4603 17.3284 8.68 17.3343 7.73267 17.334C6.79082 17.3337 6.64965 17.3271 6.50415 17.3184C5.95329 17.2848 5.53362 16.8107 5.56665 16.2598C5.60008 15.7087 6.07418 15.2892 6.62524 15.3223ZM11.5237 2.83008C12.697 2.8512 15.0453 2.89299 16.302 2.9209C17.5508 2.94863 17.6742 2.96127 17.7834 2.9707C17.944 2.98457 18.3602 3.03712 18.8938 3.12793C18.943 3.1363 19.2875 3.17681 19.5686 3.4248C19.7901 3.62022 19.887 3.86721 19.926 3.99609L19.9485 4.0791L20.0022 4.32227C20.0549 4.613 20.1054 5.08407 20.1633 6.05664C20.2417 7.37144 20.3335 9.66406 20.3733 10.9736C20.4134 12.2936 20.3992 12.5766 20.3889 12.8311C20.3804 13.0406 20.3778 13.2121 20.3752 13.4014C20.3678 13.9536 19.9138 14.3951 19.3616 14.3877C18.8095 14.3801 18.3679 13.9271 18.3752 13.375C18.3778 13.1862 18.3802 12.9897 18.3899 12.75C18.3978 12.5552 18.4134 12.3211 18.3743 11.0342C18.3348 9.73511 18.244 7.46395 18.1672 6.17578C18.1339 5.61713 18.1017 5.25762 18.0774 5.02441C17.8324 4.98865 17.6663 4.96859 17.6116 4.96387C17.576 4.96079 17.5151 4.94883 16.2571 4.9209C15.0055 4.89311 12.6626 4.85025 11.4875 4.8291C10.9005 4.81853 10.6059 4.81416 10.4583 4.81152C10.385 4.81021 10.3481 4.80892 10.3293 4.80859H10.3264C9.77415 4.80857 9.32642 4.36086 9.32642 3.80859C9.32645 3.25635 9.77417 2.80862 10.3264 2.80859C10.3408 2.80859 10.3612 2.80915 11.5237 2.83008ZM6.11255 10.7607C6.10977 10.7604 6.10714 10.7591 6.10474 10.7588C6.09017 10.7572 6.07876 10.7562 6.07349 10.7559C6.0707 10.7557 6.06801 10.755 6.06665 10.7549H6.06958C6.07329 10.755 6.0792 10.7556 6.08618 10.7559C6.10044 10.7563 6.12075 10.757 6.14868 10.7578C6.26327 10.7611 6.49228 10.7662 6.95142 10.7764C7.86687 10.7966 9.69902 10.8358 10.6555 10.8574C11.6072 10.879 11.6602 10.8826 11.7874 10.8906C11.8832 10.8967 12.05 10.9056 12.2317 10.915C12.7829 10.944 13.2065 11.4146 13.178 11.9658C13.1492 12.5173 12.6787 12.9408 12.1272 12.9121C11.9514 12.9029 11.7704 12.8937 11.6604 12.8867C11.5817 12.8817 11.5715 12.8782 10.6096 12.8564C9.65199 12.8348 7.8289 12.7967 6.90747 12.7764C6.449 12.7663 6.21381 12.7603 6.09204 12.7568C6.03378 12.7552 5.99281 12.7544 5.96411 12.7529C5.94853 12.7521 5.85897 12.7488 5.75317 12.7227C5.21723 12.5898 4.89006 12.0477 5.02271 11.5117C5.14571 11.0163 5.61837 10.7007 6.11255 10.7607ZM6.23364 10.7812C6.23176 10.7808 6.22378 10.7793 6.21509 10.7773C6.20297 10.7746 6.18901 10.7713 6.17407 10.7686C6.16664 10.7672 6.1593 10.7667 6.15259 10.7656C6.17949 10.77 6.20672 10.7746 6.23364 10.7812Z" fill="black"/>
</svg>
