<svg width="24" height="24" viewBox="0 0 24 24" fill="none" xmlns="http://www.w3.org/2000/svg">
<path d="M10.8942 2.47959C11.6828 2.4349 12.5718 2.45946 13.5172 2.59189C14.4564 2.72348 15.4144 2.95958 16.0749 3.15635C16.7553 3.35906 17.1335 3.52599 17.4635 3.70127C18.0528 4.01429 18.4843 4.37356 18.8747 4.75595C19.1471 5.02288 19.4067 5.3717 19.6979 5.78525C20.0058 6.22255 20.3749 6.79369 20.6315 7.21103C20.9014 7.65006 21.0668 7.95128 21.2565 8.45713C21.432 8.92513 21.6276 9.56842 21.7643 10.1319C21.9059 10.7156 21.9804 11.2058 22.0221 11.7853C22.0628 12.3502 22.071 12.992 22.0475 13.5392C22.0232 14.1055 21.9641 14.5778 21.8151 15.1407C21.6735 15.6755 21.4562 16.2658 21.32 16.6134C21.0821 17.2201 20.7729 17.6296 20.2692 18.2101C19.8938 18.6427 19.3106 19.1706 18.5797 19.7765C17.8308 20.3973 16.8881 21.1023 16.2799 21.5304C15.3922 22.1552 14.8863 22.3535 14.5036 22.4835C14.0738 22.6294 13.5094 22.6566 12.6745 22.6505C12.0129 22.6456 11.0785 22.5367 10.0993 22.3517C9.10113 22.163 8.06251 21.8707 7.49088 21.7042C6.75881 21.4909 6.46071 21.3501 6.12662 21.1417C5.8927 20.9957 5.67108 20.7943 5.37076 20.5108C5.04383 20.2023 4.55187 19.7137 4.12467 19.2276C3.69197 18.7353 3.34976 18.2703 3.10025 17.9034C2.84875 17.5336 2.68791 17.2575 2.56314 17.0099C2.40302 16.692 2.31974 16.4303 2.12564 15.5958C1.93008 14.7549 1.60474 13.2471 1.43326 12.381C1.34915 11.9561 1.2952 11.6508 1.27213 11.3858C1.24678 11.0944 1.26145 10.8733 1.28385 10.63C1.32647 10.1671 1.4168 9.43888 1.48697 8.97568L1.48893 8.96006L1.49186 8.94443C1.54957 8.63081 1.60428 8.38121 1.66373 8.18857C1.71156 8.03365 1.81045 7.74113 2.05533 7.51377L2.09146 7.48056L2.12955 7.45127C2.16212 7.42644 2.19248 7.40575 2.21158 7.39267C2.22144 7.38593 2.23195 7.37853 2.2399 7.37314C2.24838 7.3674 2.25656 7.36184 2.26432 7.35654C2.29283 7.33703 2.32832 7.3123 2.3776 7.27451C2.81575 6.93841 3.44377 7.02101 3.77994 7.45908C4.116 7.89721 4.03337 8.52524 3.59537 8.86142C3.57778 8.8749 3.5596 8.8866 3.54361 8.89853C3.52304 8.98389 3.49625 9.1051 3.46451 9.27549L3.36002 10.0479C3.32565 10.3264 3.29438 10.6038 3.27506 10.8136C3.25738 11.0056 3.25419 11.0904 3.26334 11.2022C3.38825 11.2111 3.51818 11.2213 3.67154 11.2306C3.8886 11.2437 4.10706 11.2544 4.22916 11.255C4.72058 11.107 5.25151 11.3564 5.44498 11.8419C5.64903 12.3551 5.39862 12.9367 4.88541 13.1407C4.86139 13.1503 4.75655 13.195 4.61881 13.2228C4.49186 13.2483 4.37072 13.2542 4.26432 13.255C4.09747 13.2561 3.85496 13.2432 3.65299 13.2315C3.79945 13.9202 3.95867 14.6515 4.07291 15.1427C4.26472 15.9674 4.30602 16.0237 4.34928 16.1095C4.42791 16.2655 4.54145 16.4665 4.75357 16.7784C4.95709 17.0777 5.23194 17.4499 5.57291 17.8438C5.61448 17.7886 5.65908 17.7268 5.70963 17.6603C5.8101 17.5249 5.94174 17.3431 6.01822 17.2315C6.05443 17.1787 6.06875 17.155 6.07486 17.1446C6.07843 17.1385 6.08217 17.132 6.09439 17.1065C6.33296 16.6085 6.93031 16.3973 7.42838 16.6358C7.92629 16.8744 8.13646 17.4718 7.89811 17.9698C7.83436 18.1029 7.77765 18.2008 7.66764 18.3614C7.57186 18.5012 7.4249 18.705 7.31607 18.8517L7.30924 18.8604C7.12935 19.0974 7.05251 19.2013 7.01627 19.255C7.00936 19.2652 7.00103 19.2744 6.99381 19.2843C7.02448 19.3118 7.04991 19.337 7.07389 19.3575C7.14396 19.4174 7.17408 19.4374 7.18521 19.4444C7.27599 19.5011 7.33922 19.5374 7.4401 19.5802C7.55396 19.6284 7.73238 19.6916 8.05045 19.7843C8.61125 19.9477 9.57238 20.2171 10.4704 20.3868C10.7637 20.4422 11.0462 20.4865 11.3102 20.5245C11.3034 20.3964 11.3008 20.2722 11.2995 20.1573C11.2985 20.125 11.2967 20.1085 11.2956 20.0948C11.2947 20.0848 11.2944 20.0752 11.2926 20.0567C11.291 20.0395 11.288 20.0167 11.2858 19.9903C11.2406 19.4401 11.6506 18.9567 12.2008 18.9112C12.751 18.8661 13.2345 19.2761 13.2799 19.8263L13.2985 20.0968V20.1153C13.3018 20.3995 13.3081 20.5117 13.3229 20.587C13.3272 20.6057 13.3305 20.6244 13.3346 20.6427C13.4294 20.6392 13.5107 20.6366 13.5807 20.631C13.7751 20.6154 13.8457 20.5938 13.86 20.589C14.0719 20.517 14.4062 20.4047 15.1296 19.8956C15.594 19.5687 16.2695 19.0633 16.8825 18.5753C16.8015 18.4552 16.6889 18.2905 16.5876 18.1593C16.4805 18.0207 16.3849 17.9177 16.2419 17.7755C15.8503 17.3861 15.8486 16.7531 16.2379 16.3614C16.6273 15.9701 17.2604 15.9683 17.652 16.3575C17.8254 16.5299 17.989 16.7007 18.1706 16.9356C18.2524 17.0415 18.3345 17.1571 18.4069 17.2608C18.5498 17.1225 18.668 17.0037 18.7585 16.8995C19.2184 16.3694 19.3465 16.1675 19.4577 15.8839C19.5842 15.5611 19.769 15.0537 19.8815 14.629C19.9865 14.2323 20.03 13.9065 20.0495 13.4532C20.0549 13.3275 20.0587 13.1952 20.0602 13.0597C19.9574 13.0584 19.832 13.0549 19.6481 13.0343C19.4891 13.0165 19.098 12.9606 19.0133 12.9503C18.9449 12.942 18.9086 12.9396 18.8903 12.9386C18.8747 12.9377 18.8654 12.9376 18.8356 12.9376C18.2833 12.9376 17.8356 12.4899 17.8356 11.9376C17.8358 11.3855 18.2834 10.9376 18.8356 10.9376C18.935 10.9376 19.0413 10.939 19.2546 10.9649C19.5064 10.9956 19.6537 11.0227 19.8708 11.047C19.8868 11.0488 19.9018 11.0486 19.9157 11.0499C19.8889 10.907 19.8589 10.7602 19.821 10.6036C19.7011 10.1096 19.5277 9.54395 19.3835 9.15927C19.2535 8.81287 19.1561 8.63077 18.9274 8.25888C18.6853 7.8651 18.3403 7.33028 18.0631 6.93662C17.9892 6.83158 17.9202 6.74192 17.861 6.66123C17.8533 6.67051 17.847 6.68068 17.8395 6.68955C17.7751 6.76605 17.682 6.87261 17.571 7.00107C17.4878 7.10483 17.4219 7.2025 17.3864 7.26084C17.384 7.26481 17.3812 7.26784 17.3796 7.2706C17.2213 7.79446 16.671 8.09434 16.1442 7.9415C15.6141 7.78725 15.3095 7.23248 15.4635 6.70224C15.5135 6.5305 15.574 6.39239 15.6784 6.2208C15.7628 6.08205 15.8826 5.90823 16.0221 5.73545L16.0436 5.71006C16.1666 5.56776 16.2534 5.46791 16.3102 5.40049C16.3195 5.38948 16.3271 5.38001 16.3337 5.37217C16.1542 5.28928 15.909 5.19314 15.5036 5.07236C14.9135 4.89659 14.0561 4.68672 13.2399 4.57236C13.0729 4.54896 12.908 4.52952 12.7458 4.51377C12.7537 4.72945 12.7642 5.1405 12.7741 5.55088C12.7872 6.10269 12.3503 6.5608 11.7985 6.57431C11.2466 6.58735 10.7874 6.15063 10.7741 5.59873C10.764 5.17972 10.7551 4.78501 10.7477 4.58603C10.7462 4.54628 10.7449 4.51673 10.7438 4.49521C10.1693 4.53761 9.73361 4.60229 9.49967 4.66611C9.25734 4.73228 9.11737 4.77661 9.04654 4.80088C9.03251 4.80569 9.02182 4.80923 9.01529 4.81162C8.88629 4.87229 8.74249 4.9083 8.59049 4.9083C8.03857 4.908 7.59067 4.46025 7.59049 3.9083C7.59049 3.66242 7.68089 3.48366 7.72916 3.40146C7.78206 3.31144 7.83785 3.24824 7.86978 3.21494C7.93325 3.14881 7.99204 3.10638 8.01529 3.08994C8.06785 3.05279 8.11355 3.0286 8.13053 3.01963C8.17182 2.9978 8.20895 2.98113 8.23111 2.97177C8.28049 2.95095 8.3373 2.93012 8.39811 2.90927C8.52229 2.86672 8.70539 2.8103 8.97232 2.7374C9.44493 2.60836 10.1458 2.52204 10.8942 2.47959ZM4.3942 4.63486C4.77185 4.23191 5.40431 4.21135 5.80728 4.58896C6.09867 4.86206 6.33721 5.09222 7.12271 5.91416C7.91119 6.73921 9.18874 8.09403 10.0749 8.97177C10.7457 9.63623 11.1442 9.97576 11.4421 10.2325C11.5494 10.1931 11.6657 10.172 11.7868 10.172C11.9175 10.172 12.0539 10.1716 12.1891 10.1729L12.5856 10.1827L12.5983 10.1837L12.612 10.1847C13.0476 10.2161 13.4842 10.2838 13.819 10.4474L13.8942 10.4835L13.9626 10.5323C14.2397 10.7308 14.6814 11.1078 14.8249 11.7403C14.8779 11.9745 14.9528 12.2869 14.9792 12.5558C14.9928 12.6949 15.0011 12.8847 14.9635 13.086C14.9245 13.2946 14.8233 13.5764 14.57 13.8067C14.3641 13.9938 14.0288 14.2199 13.5456 14.2901C13.1871 14.3422 12.768 14.3887 12.3893 14.3927C12.2012 14.3946 11.9932 14.3863 11.7936 14.3526C11.6199 14.3233 11.3226 14.2556 11.0622 14.0489C10.8464 13.8775 10.5543 13.5596 10.3922 13.0763C10.3447 12.9345 10.2638 12.7036 10.2253 12.4806C10.1961 12.3118 10.1795 12.0844 10.237 11.836C9.97104 11.6054 9.43497 11.1527 8.66764 10.3927C7.75576 9.48941 6.44604 8.10029 5.6774 7.29599C4.90603 6.48884 4.69505 6.2869 4.4401 6.04795C4.03722 5.67036 4.0168 5.03784 4.3942 4.63486ZM10.7985 4.68857L10.8327 4.76474C10.8191 4.73726 10.8074 4.70881 10.7965 4.68076C10.7974 4.6831 10.7976 4.68621 10.7985 4.68857ZM9.30436 4.60654C9.3068 4.60405 9.31064 4.60223 9.31314 4.5997C9.32311 4.58931 9.33442 4.57484 9.3483 4.55869C9.3342 4.57509 9.31948 4.59109 9.30436 4.60654ZM9.44596 4.42197C9.44766 4.41913 9.45104 4.41702 9.45279 4.41416C9.45398 4.41213 9.45451 4.40948 9.45572 4.40732C9.45279 4.41235 9.44896 4.41699 9.44596 4.42197Z" fill="black"/>
</svg>
