<svg width="24" height="24" viewBox="0 0 24 24" fill="none" xmlns="http://www.w3.org/2000/svg">
<path d="M9.59961 12.2518C9.6821 12.2544 9.78701 12.2591 9.88672 12.2753C9.98828 12.2918 10.1146 12.325 10.2451 12.3954L10.377 12.4794L10.4609 12.5487C10.6422 12.714 10.7274 12.9044 10.7686 13.0233C10.8127 13.151 10.8318 13.2723 10.8408 13.3368C10.8507 13.4073 10.8598 13.4926 10.8672 13.5585C10.8754 13.6321 10.8846 13.7127 10.8975 13.8046C10.9501 14.18 11.0076 14.7759 11.0156 15.8095C11.0235 16.8335 10.9757 18.284 10.9453 19.0546C10.9148 19.8273 10.8933 20.1285 10.7979 20.3934C10.7568 20.5072 10.6785 20.6619 10.5283 20.8016C10.3958 20.9249 10.2597 20.9873 10.1777 21.0184C10.0355 21.0724 9.89249 21.0921 9.82227 21.1014C9.64692 21.1247 9.35538 21.1481 8.88281 21.1815C7.91181 21.2502 6.02939 21.3618 5.04492 21.4218C4.55701 21.4515 4.28848 21.4688 4.14258 21.4764C4.0757 21.4799 4.00327 21.4832 3.94043 21.4823C3.85579 21.4811 3.73058 21.4723 3.58594 21.4227C3.27125 21.3148 3.08325 21.0924 2.9834 20.91C2.90239 20.7619 2.86413 20.6143 2.84473 20.5321C2.80349 20.3573 2.76655 20.1063 2.72266 19.7938C2.64391 19.2333 2.4885 18.1659 2.38867 17.1337C2.28848 16.0974 2.24852 15.1355 2.22949 14.6268C2.21103 14.1332 2.21023 14.0222 2.23145 13.8222C2.23591 13.7802 2.24358 13.7391 2.25293 13.6991C2.20739 13.5952 2.17665 13.482 2.16895 13.3622C2.13381 12.8115 2.55191 12.3365 3.10254 12.3007C3.22285 12.2929 3.34226 12.2872 4.3916 12.2772C5.45333 12.2671 7.48645 12.2522 8.57324 12.2479C9.10791 12.2458 9.41832 12.2463 9.59961 12.2518ZM20.3125 11.1298C20.8648 11.1298 21.3125 11.5775 21.3125 12.1298C21.3125 12.1453 21.3123 12.1654 21.3096 12.4472C21.3068 12.7383 21.301 13.3095 21.2803 14.5663C21.2595 15.8231 21.2242 17.7501 21.1875 19.7333C21.177 20.2853 20.721 20.7249 20.1689 20.7147C19.617 20.7044 19.1775 20.2481 19.1875 19.6962C19.2242 17.7119 19.2596 15.7873 19.2803 14.5331C19.3009 13.2809 19.3068 12.7145 19.3096 12.4276C19.3123 12.149 19.3125 12.1332 19.3125 12.1298C19.3125 11.5775 19.7603 11.1299 20.3125 11.1298ZM14.2441 14.4618C14.7354 14.2992 15.2635 14.5385 15.4707 15.0009L15.5078 15.0966L15.541 15.2245C15.5639 15.3436 15.5635 15.4412 15.5635 15.4481C15.566 15.5212 15.569 15.6515 15.5732 15.8895C15.5818 16.3671 15.5958 17.3253 15.5918 17.9276C15.5877 18.55 15.5638 18.7824 15.5527 18.952C15.5436 19.0922 15.543 19.2082 15.543 19.3583C15.5429 19.9104 15.0951 20.3581 14.543 20.3583C13.9907 20.3583 13.543 19.9105 13.543 19.3583C13.543 19.2098 13.5429 19.0353 13.5566 18.8231C13.5685 18.6403 13.5881 18.4687 13.5918 17.9149C13.5956 17.3402 13.5818 16.4044 13.5732 15.9257C13.5689 15.686 13.5663 15.5719 13.5645 15.5184C13.5644 15.5167 13.5645 15.515 13.5645 15.5136C13.5169 15.0567 13.7902 14.6123 14.2441 14.4618ZM17.3955 11.4315C17.9476 11.4317 18.3955 11.8793 18.3955 12.4315C18.3955 12.4364 18.3956 12.4995 18.4033 13.5282C18.4115 14.6204 18.4285 16.7985 18.4453 19.0419C18.4492 19.5938 18.0041 20.0454 17.4521 20.0497C16.9002 20.0537 16.4497 19.6085 16.4453 19.0565C16.4285 16.8135 16.4115 14.6361 16.4033 13.5438C16.3953 12.4713 16.3955 12.4428 16.3955 12.4315C16.3955 11.8792 16.8432 11.4315 17.3955 11.4315ZM4.41016 14.2772C4.34252 14.2779 4.27853 14.2796 4.21875 14.2802C4.22074 14.3474 4.22318 14.4359 4.22754 14.5526C4.24616 15.0506 4.28553 15.9643 4.37988 16.9403C4.4706 17.8784 4.60976 18.8535 4.69238 19.4393C4.76251 19.435 4.83941 19.4307 4.92285 19.4257C5.91657 19.3652 7.78406 19.2542 8.74219 19.1864C8.81216 19.1815 8.87699 19.1751 8.93652 19.1708C8.93915 19.1116 8.94351 19.0468 8.94629 18.9764C8.97666 18.2072 9.02315 16.7976 9.01562 15.8251C9.00947 15.0313 8.97096 14.5475 8.93652 14.2489C8.83343 14.2491 8.71537 14.2474 8.58105 14.2479C7.49854 14.2522 5.46874 14.2671 4.41016 14.2772ZM13.5957 15.6815C13.6021 15.7044 13.6086 15.7233 13.6094 15.7255C13.6007 15.6993 13.5943 15.6727 13.5879 15.6464C13.5906 15.6578 13.5924 15.6697 13.5957 15.6815ZM13.5771 15.6024C13.5778 15.6059 13.5793 15.6096 13.5801 15.6132C13.5772 15.5992 13.5755 15.5851 13.5732 15.5712C13.5747 15.5807 13.5751 15.5914 13.5771 15.6024ZM19.6475 2.14344C19.7636 2.14303 19.9394 2.14236 20.1064 2.16883C20.2986 2.19937 20.5652 2.27738 20.8027 2.49696C21.0206 2.69854 21.1201 2.93568 21.1709 3.07801C21.2214 3.21964 21.2615 3.38297 21.2939 3.51551C21.4369 4.09975 21.6945 5.21814 21.8428 6.16883C21.9926 7.12936 22.0282 7.88887 22.0303 8.31434C22.0312 8.49763 22.0285 8.69168 21.999 8.85731C21.983 8.94707 21.948 9.09764 21.8555 9.25574C21.7454 9.44379 21.6018 9.56337 21.4814 9.6366C21.2257 9.79208 20.9516 9.82516 20.7852 9.84657C20.5773 9.87327 20.2415 9.90532 19.709 9.95887C18.7425 10.0561 16.9071 10.2511 15.9785 10.3427C15.7642 10.3638 15.5217 10.3887 15.3154 10.3856C15.1228 10.3827 14.746 10.3586 14.4121 10.0956C14.0564 9.81499 13.9562 9.43173 13.9189 9.2118C13.882 8.99361 13.8774 8.74239 13.875 8.52528C13.8646 7.58743 13.9036 5.78969 13.9229 4.77137C13.9422 3.74591 13.9424 3.4737 13.9424 3.20301C13.9426 2.65105 14.3904 2.20324 14.9424 2.20301C14.9789 2.20301 15.0153 2.20602 15.0508 2.20985C15.1559 2.17676 15.2683 2.15903 15.3848 2.16297C15.995 2.18411 16.5696 2.20376 17.3477 2.19422C18.0695 2.18535 19.1716 2.14517 19.6475 2.14344ZM5.61426 2.28797C6.57962 2.28375 7.91921 2.30978 8.58398 2.32215C8.84168 2.32695 9.00143 2.33011 9.10059 2.33192C9.45615 2.28088 9.7996 2.42572 10.0156 2.69032C10.1625 2.86429 10.2518 3.0884 10.252 3.33387C10.252 3.33501 10.2511 3.33662 10.251 3.33778C10.2676 3.50568 10.2857 3.77075 10.3174 4.28992C10.3718 5.18383 10.4707 6.85942 10.5195 7.73621C10.5314 7.94859 10.5425 8.1392 10.5449 8.29383C10.5471 8.43372 10.5457 8.63102 10.501 8.82508C10.4465 9.06129 10.3142 9.34633 10.0234 9.5536C9.79516 9.71615 9.55065 9.76286 9.47656 9.77821C9.07743 9.86093 8.42192 9.90814 7.44629 9.91395C6.48658 9.91965 5.10439 9.91378 4.31934 9.84266C3.5052 9.76887 3.05713 9.69737 2.69922 9.48133C2.63408 9.442 2.44146 9.32186 2.30273 9.07215C2.2004 8.88777 2.17042 8.70717 2.15723 8.61219C2.12956 8.4126 2.12341 8.12572 2.12695 7.72254C2.13421 6.89824 2.16584 5.30221 2.22754 4.44813C2.25925 4.00933 2.29025 3.69161 2.33398 3.46766C2.37778 3.24366 2.47599 2.86995 2.83887 2.60731L2.97949 2.52039C3.11786 2.4477 3.25024 2.4142 3.3584 2.39539C3.46983 2.37607 3.60696 2.36454 3.75098 2.3534C4.07839 2.32809 4.63891 2.29225 5.61426 2.28797ZM17.3721 4.19422C16.8172 4.20103 16.3581 4.19153 15.9316 4.17957C15.9289 4.35266 15.9276 4.55937 15.9229 4.80946C15.9043 5.79344 15.8705 7.40856 15.875 8.34266C16.8369 8.24697 18.538 8.06725 19.5088 7.96961C19.7104 7.94934 19.8775 7.93 20.0166 7.9159C19.9983 7.55612 19.9574 7.06248 19.8662 6.47742C19.743 5.68724 19.5295 4.74077 19.3877 4.1493C18.8561 4.159 18.1212 4.18502 17.3721 4.19422ZM5.62305 4.28797C4.98849 4.29075 4.54828 4.31008 4.24414 4.32703C4.23766 4.40525 4.22981 4.49362 4.22266 4.59266C4.16601 5.37695 4.13421 6.91571 4.12695 7.74012C4.12674 7.76412 4.12708 7.78805 4.12695 7.81043C4.22959 7.82227 4.35257 7.83711 4.5 7.85047C5.17183 7.91133 6.45472 7.91977 7.43457 7.91395C7.90502 7.91115 8.26132 7.89698 8.52441 7.87977C8.52385 7.86932 8.52404 7.85835 8.52344 7.84754C8.4749 6.97583 8.37567 5.30356 8.32129 4.41102C8.31931 4.37873 8.31629 4.34734 8.31445 4.31727C7.6027 4.30422 6.462 4.2843 5.62305 4.28797Z" fill="black"/>
</svg>
