<svg width="24" height="24" viewBox="0 0 24 24" fill="none" xmlns="http://www.w3.org/2000/svg">
<path d="M5.79667 2.02246C6.17766 2.06106 6.56915 2.1232 7.12089 2.13282C8.25621 2.15256 10.453 2.17846 11.6082 2.19043C12.772 2.20249 12.7726 2.19479 12.7859 2.19336C12.8731 2.18576 12.9373 2.18245 13.0633 2.1709C13.4091 2.09696 13.7839 2.20832 14.031 2.49512C14.0076 2.46788 14.0076 2.47227 14.0672 2.52735C14.1147 2.57121 14.1837 2.6325 14.2732 2.70899C14.4523 2.86195 14.7063 3.0679 15.0223 3.30664C15.1923 3.43516 15.3237 3.55436 15.4451 3.667C15.5682 3.78118 15.6741 3.88199 15.8289 4.01758C16.0826 4.23986 16.5844 4.62987 16.9099 4.88282C17.1697 5.08461 17.3323 5.19971 17.7156 5.50293C18.1212 5.82379 18.8381 6.40453 19.2234 6.7168C19.5041 6.9443 19.6414 7.05731 19.7674 7.15918L19.8933 7.25879L19.9724 7.31348C20.1455 7.444 20.2371 7.59687 20.2771 7.6709C20.3311 7.77078 20.364 7.86509 20.3836 7.93067C20.4231 8.063 20.4463 8.2021 20.4617 8.32129C20.4936 8.56743 20.51 8.87585 20.5164 9.20996C20.5213 9.46607 20.5275 9.44556 20.5623 11.0547C20.5962 12.6209 20.6581 15.7023 20.6863 17.3223C20.7159 19.0162 20.6614 19.3728 20.5457 19.8272C20.481 20.0811 20.4046 20.3233 20.3113 20.5313C20.2369 20.6969 20.0788 21.016 19.7625 21.2227C19.4237 21.4439 19.05 21.4612 18.8201 21.4717C18.5573 21.4836 18.1339 21.4852 17.5369 21.4971C16.4027 21.5196 14.2808 21.505 12.1639 21.502C10.0336 21.4989 7.93403 21.4932 6.8201 21.4844C6.14601 21.479 5.68267 21.4349 5.33768 21.3555C4.94123 21.2642 4.72919 21.1311 4.60233 21.0537C4.41484 20.9393 4.29811 20.7929 4.23026 20.6885C4.16343 20.5856 4.11965 20.4856 4.09256 20.418C4.04303 20.2941 3.9954 20.1353 3.96171 20.0283C3.79409 19.4961 3.69236 18.854 3.60624 17.8711C3.54393 17.1599 3.51674 16.0563 3.49784 15.501C3.47461 14.8184 3.4931 14.6188 3.5076 14.417C3.51598 14.3004 3.53498 14.0802 3.62479 12.3125C3.70606 10.713 3.85257 7.70988 3.93241 6.12598C4.01582 4.47122 4.02737 4.35809 4.03592 4.17676C4.04821 3.91654 4.06656 3.6571 4.0828 3.40137C4.09139 3.26615 4.10939 3.04928 4.1785 2.83008L4.21073 2.74024C4.29513 2.5332 4.43746 2.35353 4.62674 2.22364C4.82145 2.09013 5.01895 2.04136 5.15018 2.02051C5.38971 1.98254 5.6429 2.00689 5.79667 2.02246ZM16.2752 16.7266C13.9967 16.7929 9.67938 16.9173 7.51737 16.9795C6.35636 17.0129 5.81379 17.0269 5.55643 17.0342C5.56842 17.2747 5.58147 17.5027 5.59842 17.6963C5.68071 18.6355 5.76731 19.1019 5.86698 19.4209C6.02927 19.4491 6.32073 19.4803 6.83573 19.4844C7.9423 19.4931 10.0361 19.4989 12.1668 19.502C14.3103 19.505 16.391 19.519 17.4969 19.4971C18.0159 19.4868 18.3395 19.4822 18.5662 19.4766C18.5785 19.4343 18.5936 19.3872 18.6072 19.334C18.6527 19.1554 18.7154 19.0259 18.6863 17.3564C18.6826 17.1449 18.6763 16.9083 18.6717 16.6533C18.4883 16.6597 18.0078 16.6761 16.2752 16.7266ZM6.03397 4.27149C6.02619 4.43621 6.01123 4.62423 5.93046 6.22657C5.85124 7.79803 5.70379 10.8207 5.62284 12.4141C5.53276 14.1871 5.5125 14.4235 5.50272 14.5596C5.49614 14.6512 5.49049 14.7085 5.48807 14.8213C5.48689 14.8764 5.48715 14.9458 5.48807 15.0361C5.51071 15.0355 5.53615 15.035 5.56424 15.0342C5.83694 15.0264 6.37931 15.0116 7.45975 14.9805C9.62188 14.9182 13.9395 14.7929 16.2176 14.7266C18.0737 14.6725 18.4866 14.6593 18.6326 14.6543C18.607 13.343 18.5824 11.9796 18.5633 11.0977C18.5304 9.57722 18.5214 9.45821 18.5174 9.24805C18.513 9.01784 18.5003 8.83342 18.4881 8.69629C18.3792 8.60795 18.1905 8.45354 17.9646 8.27051C17.5754 7.95509 16.8695 7.38308 16.4754 7.07129C16.0591 6.74204 16.0494 6.747 15.6824 6.46192C15.3811 6.22781 14.82 5.79354 14.5105 5.52246C14.3276 5.36222 14.1881 5.22876 14.0857 5.13379C13.9818 5.03742 13.907 4.97097 13.8162 4.90235C13.6854 4.80354 13.5644 4.70805 13.4519 4.61914C13.4595 4.76413 13.4704 4.909 13.4764 5.04492C13.489 5.33239 13.4988 5.57007 13.5096 5.72852C13.5329 6.07299 13.5175 6.11662 13.5486 6.41309C13.572 6.63495 13.7059 7.57347 13.5369 8.68164C13.5052 8.88936 13.4319 9.23551 13.1668 9.50977C12.8263 9.86164 12.4013 9.8563 12.3787 9.85742C12.2951 9.86162 12.2341 9.8693 11.5008 9.88184C10.776 9.89423 9.4098 9.91085 8.68436 9.90918C8.52264 9.90881 8.31483 9.90931 8.12967 9.88477C7.93437 9.85884 7.6257 9.79097 7.35233 9.54883C7.07966 9.3073 6.97215 9.00777 6.92069 8.80664C6.87089 8.61169 6.84703 8.39229 6.82792 8.19922C6.74759 7.38754 6.66606 5.84344 6.61893 5.07617C6.58834 4.57828 6.57339 4.29327 6.56522 4.10742C6.37368 4.09377 6.19844 4.07807 6.04569 4.06153C6.04157 4.1315 6.03729 4.20108 6.03397 4.27149ZM18.7654 8.90821L18.8406 8.95899L18.7566 8.90039C18.7596 8.90275 18.7623 8.90584 18.7654 8.90821ZM8.61503 4.95313C8.66307 5.73509 8.73684 7.12409 8.80936 7.90821C9.53869 7.9079 10.7832 7.89352 11.4666 7.88184C11.5177 7.88096 11.5657 7.87876 11.6101 7.87793C11.6437 7.29243 11.5807 6.82534 11.5594 6.62207C11.5282 6.3254 11.5218 5.97397 11.5144 5.86426C11.5016 5.67485 11.4901 5.40017 11.4783 5.13379C11.4666 4.86801 11.4527 4.59587 11.4353 4.36133C11.4273 4.29975 11.4247 4.27322 11.4207 4.25C11.4167 4.22656 11.4144 4.21863 11.408 4.1875C10.6507 4.17948 9.54989 4.16441 8.56913 4.15137C8.57755 4.31453 8.59101 4.56233 8.61503 4.95313Z" fill="black"/>
</svg>
