<svg width="24" height="24" viewBox="0 0 24 24" fill="none" xmlns="http://www.w3.org/2000/svg">
<path d="M20.7812 15.1172C21.3306 15.0617 21.8212 15.4625 21.877 16.0117C21.8831 16.0729 21.889 16.1359 21.96 17.0616C21.9955 17.5248 22.0524 18.2601 22.0361 19.003C22.0207 19.7058 21.9403 20.5916 21.5947 21.2686C21.193 22.0553 20.5181 22.415 19.9131 22.5664C19.3453 22.7084 18.7722 22.6831 18.4639 22.6729C17.8121 22.6512 17.6185 22.6474 17.4199 22.6426C16.8679 22.6293 16.4302 22.1702 16.4434 21.6182C16.4569 21.0666 16.9152 20.6298 17.4668 20.6426C17.6723 20.6475 17.8724 20.652 18.5303 20.6739C18.8772 20.6854 19.1736 20.6905 19.4277 20.627C19.6446 20.5727 19.7458 20.491 19.8135 20.3584C19.9371 20.1156 20.0214 19.6298 20.0361 18.959C20.05 18.328 20.0019 17.6847 19.9658 17.2139C19.8936 16.2721 19.8898 16.243 19.8867 16.2129C19.8314 15.6638 20.2321 15.173 20.7812 15.1172ZM3.19336 15.0723C3.74564 15.0723 4.19336 15.52 4.19336 16.0723C4.19336 16.0723 4.19343 16.0667 4.19336 16.0606C4.19327 16.0537 4.19263 16.046 4.19238 16.0391C4.19195 16.0266 4.19167 16.0162 4.19141 16.0117L4.19727 16.0821C4.20522 16.1732 4.22185 16.3544 4.25391 16.7149C4.31823 17.4383 4.44571 18.8714 4.53027 19.7276C4.56254 20.0542 4.59106 20.3106 4.61523 20.5127C4.64724 20.5101 4.68101 20.5088 4.71582 20.5059C5.54361 20.4364 7.08083 20.2914 8.67383 20.1416C9.22368 20.0899 9.71098 20.4941 9.7627 21.044C9.81423 21.5937 9.41101 22.0811 8.86133 22.1328C7.27444 22.2821 5.72444 22.4285 4.88379 22.4991C4.48028 22.5329 4.19137 22.5541 3.99414 22.5528C3.83072 22.5517 3.39908 22.5464 3.05859 22.1924L2.91602 22.045L2.84375 21.8535C2.76815 21.6535 2.72225 21.4245 2.68164 21.1524C2.63962 20.8707 2.59489 20.4801 2.54004 19.9248C2.4543 19.0568 2.32577 17.612 2.26172 16.8916C2.2297 16.5315 2.21319 16.3489 2.20508 16.2559C2.20075 16.2063 2.19339 16.132 2.19336 16.0723C2.19336 15.5201 2.64119 15.0724 3.19336 15.0723ZM19.0088 10.5752C19.5603 10.5535 20.0258 10.9826 20.0479 11.5342C20.0697 12.0858 19.6395 12.5511 19.0879 12.5733C18.8457 12.5829 18.7664 12.5923 16.626 12.6573C14.4884 12.7222 10.4107 12.84 8.1416 12.8985C5.87148 12.957 5.4163 12.9571 4.95898 12.9571C4.40691 12.9571 3.95933 12.5091 3.95898 11.9571C3.95898 11.4048 4.4067 10.9571 4.95898 10.9571C5.39137 10.9571 5.82706 10.9568 8.08984 10.8985C10.355 10.8401 14.4298 10.7231 16.5654 10.6582C18.6963 10.5935 18.7671 10.5849 19.0088 10.5752ZM7.93555 2.21683C8.48743 2.23387 8.92112 2.69526 8.9043 3.2471C8.88718 3.79906 8.426 4.2329 7.87402 4.21585C7.73975 4.2117 7.60539 4.20688 6.92188 4.21292C6.27029 4.21868 5.1669 4.23333 4.53516 4.24612C4.49459 4.43365 4.4512 4.65606 4.41113 4.90335C4.33191 5.39252 4.26927 5.96731 4.24512 6.51859C4.22089 7.07203 4.2342 7.59792 4.24414 7.88773C4.24917 8.03418 4.25259 8.10678 4.25488 8.14261C4.2554 8.15067 4.25655 8.1559 4.25684 8.15823C4.25661 8.15668 4.25601 8.1546 4.25586 8.15335C4.33418 8.69994 3.95473 9.2067 3.4082 9.28519C2.86161 9.36341 2.35475 8.9841 2.27637 8.43753C2.26236 8.33964 2.25618 8.25078 2.24609 7.95706C2.2356 7.65123 2.21943 7.06365 2.24707 6.43167C2.27488 5.79684 2.3458 5.14423 2.43652 4.58401C2.5279 4.01991 2.6361 3.57095 2.69434 3.33304C2.71994 3.22845 2.7431 3.1341 2.76367 3.06546C2.78323 3.00019 2.84283 2.80056 3.01465 2.61429L3.10156 2.5303C3.14014 2.49717 3.18866 2.46055 3.24707 2.42581C3.35237 2.36319 3.44933 2.33108 3.51465 2.31351C3.62539 2.28378 3.7299 2.27432 3.77832 2.27054C3.89724 2.26126 4.08694 2.25561 4.3877 2.24905C5.00697 2.23556 6.21036 2.21905 6.9043 2.21292C7.60161 2.20676 7.76487 2.21156 7.93555 2.21683ZM17.2197 2.28909C17.9273 2.31898 19.2725 2.33861 20.0205 2.35745C20.3737 2.36635 20.5881 2.37311 20.7168 2.38187C20.7707 2.38554 20.8741 2.39322 20.9814 2.41898C21.159 2.46165 21.3161 2.54455 21.4482 2.66312C21.5807 2.78204 21.6802 2.9296 21.7422 3.10159C21.7827 3.21407 21.8018 3.32427 21.8125 3.39163C21.8363 3.54178 21.8612 3.77936 21.8945 4.16116C21.9624 4.93867 22.0752 6.44658 22.1963 8.00101C22.239 8.55134 21.8276 9.03215 21.2773 9.07523C20.7269 9.11798 20.2452 8.70667 20.2021 8.15628C20.0809 6.60052 19.9703 5.12642 19.9033 4.3555C19.1831 4.33818 17.8413 4.3179 17.1357 4.28812C16.3626 4.25546 16.143 4.23541 15.9707 4.22659C15.4194 4.19827 14.9944 3.72815 15.0225 3.17679C15.0507 2.62548 15.521 2.20066 16.0723 2.22855C16.3201 2.24121 16.438 2.25607 17.2197 2.28909Z" fill="black"/>
</svg>
