<svg width="24" height="24" viewBox="0 0 24 24" fill="none" xmlns="http://www.w3.org/2000/svg">
<path d="M17.9453 3.43747C18.3454 3.37592 18.8546 3.33252 19.3223 3.45505C19.4927 3.4997 19.6375 3.54405 19.751 3.58395C19.8063 3.60341 19.8641 3.62482 19.918 3.64841C19.9441 3.65983 19.9811 3.67733 20.0215 3.69919C20.0228 3.69988 20.0248 3.70215 20.0283 3.70407C20.0329 3.70598 20.0388 3.70793 20.0459 3.71091C20.0686 3.72038 20.1102 3.73749 20.1543 3.75876C20.1773 3.76988 20.207 3.78536 20.2393 3.80368L20.3613 3.88278L20.5117 4.00485C20.5407 4.03105 20.5708 4.06058 20.6016 4.09274L20.6943 4.19821L20.7441 4.26071L20.7842 4.33102C20.8735 4.48917 21.0125 4.74485 21.1104 5.16208C21.2033 5.55848 21.2513 6.0642 21.2285 6.74411C21.2134 7.19606 21.1658 7.70007 20.8682 8.31833C20.6497 8.77213 20.4827 9.11391 20.3418 9.34665C20.207 9.56934 19.9744 9.90978 19.5342 10.0615C19.3306 10.1316 19.0746 10.1498 18.8652 10.1523C18.6157 10.1553 18.3013 10.136 17.9326 10.0742C17.6769 10.0313 17.3926 9.9864 17.1602 9.93161C16.9656 9.88575 16.598 9.79113 16.3086 9.5361C16.1019 9.35388 15.764 9.05951 15.4678 8.71286C15.4154 8.74952 15.3595 8.78267 15.2988 8.80954C14.8432 9.01123 14.5148 9.15667 13.6641 9.45798C12.9125 9.72415 11.493 10.1986 10.7441 10.4492L10.7373 10.4511C9.96783 10.7024 9.60149 10.8585 9.0752 11.0947L9.0625 11.0996C8.94469 11.1506 8.86498 11.1826 8.79883 11.209C8.73606 11.234 8.69486 11.2509 8.63477 11.2773C8.5471 11.3158 8.45663 11.3393 8.36621 11.3515C8.40889 11.6324 8.43028 11.9541 8.37598 12.2822C8.33385 12.5365 8.24231 12.81 8.10156 13.1064C8.18758 13.1598 8.28273 13.2196 8.3877 13.2773C8.65083 13.4219 9.10168 13.6781 9.8877 14.0254C10.6872 14.3786 11.8208 14.8204 12.8389 15.1709C13.869 15.5254 14.7017 15.759 15.377 15.9736L15.4121 15.9853C16.1149 16.2376 16.5252 16.3783 16.7695 16.4609C16.8549 16.3475 16.9389 16.2391 17.0186 16.1425C17.1196 16.02 17.2599 15.8591 17.4189 15.7353C17.6159 15.5822 17.9507 15.355 18.3945 15.2207C18.6777 15.135 19.2312 14.9983 19.8975 15.1963C20.2513 15.3014 20.5166 15.4969 20.6729 15.6318C20.7352 15.6856 20.7856 15.7387 20.8271 15.7812L20.8779 15.8144L20.9795 15.9482C21.1463 16.1677 21.3309 16.5284 21.4668 16.8623L21.584 17.1816L21.5996 17.2285L21.6094 17.2773C21.6526 17.4771 21.712 17.7987 21.7451 18.0566C21.7821 18.345 21.7878 18.5613 21.7695 18.8369C21.7552 19.0524 21.7273 19.3694 21.6836 19.5976C21.6515 19.7651 21.575 20.3034 21.126 20.6679C20.8683 20.877 20.5494 21.0348 20.1357 21.1435C19.949 21.1926 19.6458 21.2685 19.3984 21.3027C19.1002 21.3439 18.6588 21.3987 18.167 21.3115C17.8991 21.264 17.4769 21.1754 17.0771 20.8535C16.8875 20.7007 16.4947 20.3897 16.3047 19.956C16.2373 19.8022 16.0589 19.4365 16.043 18.9668C16.037 18.79 16.0303 18.5653 16.0459 18.3281C15.7886 18.2401 15.3884 18.1016 14.7568 17.875C14.1661 17.6877 13.2311 17.4213 12.1885 17.0625C11.1249 16.6964 9.93756 16.2337 9.0791 15.8545C8.20839 15.4698 7.69328 15.1777 7.4248 15.0302C7.23342 14.9251 7.06181 14.8186 6.92871 14.7334C6.91683 14.7427 6.9058 14.7535 6.89355 14.7627C6.69338 14.9132 6.37194 15.1319 5.94922 15.2275C5.70127 15.2836 5.36849 15.3386 5.00098 15.3037C4.7401 15.2788 4.36011 15.2187 3.98926 15.0088C3.79299 14.8976 3.48589 14.7142 3.22363 14.4111C3.07111 14.2348 2.82415 13.9397 2.6582 13.541C2.52693 13.2255 2.40109 12.8029 2.37402 12.2461C2.36008 11.9586 2.37094 11.6443 2.41016 11.333C2.44312 11.0714 2.49671 10.7259 2.60254 10.4336C2.71804 10.1146 2.88102 9.70775 3.2373 9.36423C3.37438 9.23207 3.53104 9.09087 3.69824 8.96872C3.85706 8.85272 4.07973 8.71279 4.34668 8.63766L4.53418 8.58786C4.74927 8.53576 5.04421 8.48714 5.41113 8.52341C5.61554 8.54364 5.85946 8.56723 6.08008 8.61325C6.30653 8.66054 6.5945 8.74772 6.8623 8.94626C7.11836 9.1362 7.32538 9.31001 7.47656 9.45212C7.52205 9.49489 7.56378 9.54046 7.60449 9.58298C7.67187 9.52866 7.74707 9.48174 7.83008 9.44528C7.9255 9.40338 7.99612 9.37544 8.05859 9.35056C8.11492 9.32812 8.17133 9.30591 8.25586 9.2695C8.83083 9.01143 9.26465 8.82783 10.1162 8.54977C10.8755 8.29566 12.2675 7.83029 12.9961 7.57224C13.7865 7.29229 14.0664 7.16859 14.4893 6.98141C14.5653 6.94777 14.6433 6.92487 14.7217 6.9111C14.7075 6.69022 14.6975 6.43676 14.7158 6.18063C14.7413 5.82507 14.8213 5.37094 15.0781 4.95993C15.3487 4.52724 15.8798 3.91809 16.707 3.70798C17.0815 3.61286 17.5227 3.50251 17.9453 3.43747ZM19.3281 17.1142C19.2129 17.08 19.1089 17.0938 18.9736 17.1347C18.8566 17.1702 18.7471 17.2379 18.6582 17.3056C18.6557 17.3082 18.652 17.3117 18.6475 17.3164C18.6279 17.337 18.5987 17.3687 18.5605 17.415C18.4832 17.5088 18.3886 17.6345 18.2715 17.7929C18.2191 17.8639 18.1555 17.9975 18.0586 18.3144C18.042 18.3686 18.0288 18.5126 18.042 18.8994C18.0427 18.9202 18.0431 18.9351 18.1172 19.1064C18.1195 19.1089 18.122 19.1121 18.125 19.1152C18.165 19.1563 18.2288 19.2128 18.332 19.2959C18.333 19.2966 18.3334 19.2974 18.334 19.2978C18.3351 19.2984 18.34 19.3008 18.3506 19.3047C18.3762 19.3139 18.4204 19.3259 18.5156 19.3427C18.6747 19.371 18.8471 19.3596 19.125 19.3213C19.2419 19.3051 19.4416 19.2586 19.627 19.2099C19.6652 19.1999 19.6974 19.1879 19.7246 19.1787C19.7416 19.0692 19.7624 18.8848 19.7744 18.7041C19.7841 18.5574 19.7823 18.4704 19.7617 18.3105C19.74 18.1414 19.6984 17.9146 19.666 17.7568C19.6293 17.6507 19.5767 17.5199 19.5166 17.3955C19.4836 17.3273 19.4514 17.2681 19.4248 17.2216C19.4138 17.2024 19.4048 17.188 19.3984 17.1777C19.3892 17.1683 19.378 17.1565 19.3652 17.1455C19.3217 17.108 19.306 17.1076 19.3281 17.1142ZM5.0791 10.5166C5.03818 10.5229 4.99585 10.5333 4.91895 10.5547C4.90945 10.5606 4.89604 10.5707 4.87793 10.584C4.81437 10.6304 4.73067 10.7018 4.625 10.8037C4.62111 10.8073 4.58392 10.8367 4.4834 11.1142C4.45922 11.181 4.42579 11.3349 4.39453 11.583C4.36958 11.7811 4.36284 11.9795 4.37109 12.1494C4.38523 12.4401 4.44779 12.6352 4.50488 12.7724C4.54093 12.859 4.60676 12.9527 4.73633 13.1025C4.7646 13.1351 4.82079 13.1814 4.97461 13.2685C4.97815 13.2705 4.99413 13.2788 5.03027 13.2881C5.06827 13.2977 5.11983 13.3067 5.19043 13.3134C5.25362 13.3195 5.34938 13.3121 5.50781 13.2763C5.50781 13.2763 5.52191 13.2735 5.55273 13.2568C5.5862 13.2387 5.63001 13.2102 5.69141 13.164C5.69323 13.1624 5.69663 13.159 5.70215 13.1533C5.7179 13.1369 5.74648 13.1047 5.7959 13.042C5.88975 12.9228 6.02385 12.729 6.13672 12.542C6.34468 12.1973 6.39316 12.0105 6.40234 11.955C6.41837 11.8578 6.40866 11.6946 6.35352 11.458C6.32731 11.3718 6.29461 11.2882 6.25977 11.2177C6.22704 11.1516 6.20229 11.0913 6.18457 11.0468C6.1759 11.0251 6.16801 11.0035 6.16211 10.9883C6.1556 10.9714 6.15054 10.9603 6.14648 10.9502C6.146 10.9491 6.14492 10.9482 6.14453 10.9472C6.13403 10.9368 6.12141 10.9242 6.10645 10.9101C6.02381 10.8324 5.88942 10.7179 5.70605 10.58C5.69735 10.5778 5.68565 10.5743 5.6709 10.5713C5.57539 10.5514 5.44478 10.5365 5.21387 10.5136C5.15868 10.5082 5.11736 10.5107 5.0791 10.5166ZM18.8154 5.38962C18.7599 5.37506 18.5882 5.363 18.25 5.41501C17.9345 5.46355 17.5795 5.54987 17.1992 5.64645C17.1413 5.66117 17.0694 5.69582 16.9883 5.76559C16.906 5.83641 16.8316 5.92808 16.7744 6.0195C16.7638 6.03649 16.7255 6.11947 16.7109 6.32321C16.6969 6.51913 16.7095 6.74445 16.7314 6.99704C16.734 7.02409 16.7709 7.15592 16.9736 7.39743C17.1419 7.5978 17.3478 7.78445 17.5537 7.96677C17.5703 7.97143 17.5916 7.97883 17.6191 7.98532C17.7701 8.0209 17.9659 8.05172 18.2627 8.10153C18.4461 8.13231 18.5993 8.1427 18.7178 8.14743C18.7955 8 18.9064 7.78244 19.0664 7.45016C19.1934 7.18635 19.2188 6.99617 19.2295 6.6777C19.2482 6.11948 19.205 5.79808 19.1631 5.61911C19.1507 5.56651 19.137 5.52371 19.124 5.48727C19.1174 5.48393 19.1104 5.47972 19.1025 5.47556C19.0985 5.47408 19.0936 5.47267 19.0879 5.47067C19.0354 5.45223 18.9439 5.42328 18.8154 5.38962Z" fill="black"/>
</svg>
