<svg width="24" height="24" viewBox="0 0 24 24" fill="none" xmlns="http://www.w3.org/2000/svg">
<path d="M11.7149 18.3439C12.2641 18.2873 12.7558 18.6872 12.8125 19.2365L12.833 19.4357L12.8359 19.466L12.8369 19.4972C12.8387 19.5538 12.842 19.628 12.8457 19.923V19.9357C12.8457 20.1922 12.842 20.6616 12.832 21.1388C12.8204 21.6909 12.3636 22.1288 11.8115 22.1173C11.2597 22.1055 10.8216 21.6487 10.833 21.0968C10.8425 20.6416 10.8456 20.1938 10.8457 19.9484L10.8389 19.5919C10.8347 19.5509 10.8292 19.5082 10.8223 19.4415C10.7657 18.8924 11.1657 18.4007 11.7149 18.3439ZM15.8906 16.3956C16.4429 16.3956 16.8906 16.8434 16.8906 17.3956C16.8906 17.3957 16.8908 17.3887 16.8906 17.381L16.8916 17.3898C16.8943 17.4305 16.8994 17.5108 16.9111 17.671C16.9344 17.9886 16.9817 18.6231 17.0049 18.965C17.0259 19.2756 17.0326 19.3938 17.0215 19.5187C16.9723 20.0685 16.4865 20.4748 15.9365 20.4259C15.4211 20.3798 15.0318 19.9501 15.0254 19.4435L15.0274 19.3898C15.0273 19.3881 15.0265 19.3858 15.0264 19.3829C15.0251 19.3472 15.0212 19.269 15.0098 19.1007C14.9871 18.7661 14.9408 18.143 14.917 17.8175C14.8956 17.5246 14.8906 17.4566 14.8906 17.3956C14.8906 16.8435 15.3385 16.3958 15.8906 16.3956ZM7.81739 16.3839C8.36967 16.3839 8.81739 16.8316 8.81739 17.3839C8.81739 17.3855 8.81725 17.3891 8.81739 17.6271C8.81753 17.8667 8.81808 18.3437 8.81837 18.8351C8.81866 19.3874 8.37064 19.8358 7.81837 19.8361C7.26647 19.8359 6.8187 19.3881 6.81837 18.8361C6.81808 18.3446 6.81753 17.8676 6.81739 17.6281C6.81725 17.3901 6.81739 17.3863 6.81739 17.3839C6.81739 16.8318 7.26528 16.3841 7.81739 16.3839ZM11.7813 13.5861C12.3334 13.5863 12.7813 14.0339 12.7813 14.5861C12.7812 14.5948 12.781 14.6071 12.7822 14.8966C12.7835 15.1883 12.7865 15.7595 12.7891 16.3478C12.7913 16.8998 12.345 17.35 11.793 17.3527C11.241 17.3549 10.7917 16.9086 10.7891 16.3566C10.7865 15.7684 10.7835 15.1972 10.7822 14.9054C10.781 14.6178 10.7813 14.6004 10.7813 14.5861C10.7813 14.0338 11.229 13.5861 11.7813 13.5861ZM11.5107 2.00208C12.3694 1.98758 12.7834 2.07337 13.1514 2.20325C13.6807 2.39016 14.0114 2.61747 14.2734 2.82923C14.4712 2.98906 14.6822 3.21304 14.8652 3.42982C15.0775 3.68122 15.2694 3.95778 15.4883 4.34876C15.6995 4.72592 15.943 5.22439 16.1084 5.63001C16.2897 6.07479 16.373 6.40422 16.4434 6.85755C16.4959 7.19647 16.5391 7.61474 16.5703 7.99525C16.6956 7.98931 16.8202 7.99276 16.9561 7.99915C17.2738 8.01411 17.818 8.05635 18.3242 8.14857C18.8446 8.2434 19.2903 8.38602 19.6357 8.52454C19.9956 8.66887 20.2483 8.81034 20.4912 8.97181C20.9337 9.26589 21.2554 9.55981 21.4502 9.80579C21.9162 10.3944 21.9559 11.1009 21.9854 11.4552C22.0134 11.7937 21.9978 12.2273 21.96 12.6359C21.9193 13.0754 21.84 13.5088 21.7441 13.9122C21.6485 14.3149 21.5366 14.6831 21.4697 14.8917C21.3922 15.1332 21.2614 15.358 21.1484 15.5363C21.0293 15.7242 20.88 15.9361 20.7256 16.1554C20.4077 16.6068 19.7845 16.7152 19.333 16.3976C18.8814 16.0797 18.773 15.4556 19.0908 15.004C19.253 14.7737 19.372 14.6037 19.46 14.465C19.5368 14.3437 19.5611 14.2897 19.5654 14.2804C19.6225 14.1024 19.7179 13.7868 19.7979 13.4503C19.8776 13.1146 19.9387 12.776 19.9688 12.4513C20.0016 12.0958 20.0065 11.7928 19.9922 11.6202C19.9752 11.4151 19.9614 11.2892 19.9365 11.1857C19.9146 11.0947 19.8929 11.0609 19.8818 11.047C19.8499 11.0068 19.7018 10.8476 19.3848 10.6368C19.2479 10.5459 19.1159 10.4709 18.8916 10.381C18.6529 10.2852 18.3367 10.183 17.9658 10.1154C17.581 10.0453 17.1341 10.01 16.8623 9.9972C16.7917 9.99388 16.7436 9.99183 16.708 9.99134C16.6969 9.99119 16.6878 9.99128 16.6807 9.99134C16.5113 10.0494 16.3796 10.098 16.29 10.1339C16.2604 10.1458 16.239 10.1549 16.2246 10.1613C16.1903 10.183 16.1433 10.2112 16.0859 10.2365C15.992 10.2778 15.824 10.3352 15.6094 10.3214C15.3744 10.3063 15.1677 10.2116 15.0117 10.0773C14.7603 9.86067 14.6939 9.58835 14.6807 9.53724C14.6558 9.44143 14.6459 9.3522 14.6406 9.2931C14.6309 9.18418 14.6264 9.0304 14.6221 8.90345C14.6171 8.75872 14.6113 8.5892 14.5986 8.39564C14.5728 8.00053 14.5225 7.51677 14.4678 7.16419C14.4181 6.84361 14.371 6.66739 14.2559 6.3849C14.1246 6.06298 13.9183 5.63916 13.7432 5.3263C13.5759 5.02766 13.4545 4.85912 13.3369 4.71986C13.1902 4.54604 13.073 4.43052 13.0166 4.3849C12.9397 4.32271 12.8738 4.2747 12.7988 4.2306C12.7243 4.18677 12.6261 4.13836 12.4863 4.089C12.4185 4.06506 12.3545 4.04568 12.2383 4.02943C12.1086 4.01128 11.8984 3.99515 11.5449 4.00111C10.8179 4.01338 9.6383 4.11025 8.86329 4.20814C8.10473 4.30396 7.811 4.39091 7.63087 4.45716C7.42737 4.53202 7.32425 4.59196 7.24512 4.64564C6.95498 4.84248 6.7772 4.97331 6.6543 5.13001C6.52836 5.29064 6.40066 5.47748 6.26563 5.84779C6.1701 6.1098 6.05758 6.48052 5.99317 6.72962C5.96366 6.84381 5.95008 6.90907 5.93946 6.98743C5.92721 7.07797 5.91658 7.20121 5.90235 7.4347C5.87393 7.90131 5.83967 8.64792 5.84083 9.09876C5.84111 9.20901 5.84389 9.30004 5.84571 9.39564C5.84737 9.48312 5.84869 9.58993 5.84376 9.69447C5.83229 9.93631 5.78468 10.2084 5.61719 10.4962C5.48447 10.7243 5.30288 10.9143 5.17579 11.0392C5.04214 11.1705 4.89494 11.2979 4.81153 11.3722C4.64799 11.5179 4.59525 11.5736 4.49805 11.7052C4.33904 11.9205 4.19366 12.1328 4.1377 12.2501C4.01095 12.516 3.99969 12.5698 4.00001 12.7296C4.00059 13.0226 4.00857 13.433 4.03419 13.6456C4.06447 13.8964 4.10912 14.059 4.26466 14.3624C4.38676 14.6007 4.53263 14.8676 4.62208 15.004C4.72996 15.1686 4.79245 15.2512 5.04591 15.4425C5.48672 15.7752 5.57486 16.4021 5.24219 16.8429C4.90949 17.2835 4.28257 17.3708 3.8418 17.0382C3.40656 16.7098 3.18472 16.459 2.94923 16.0997C2.79653 15.8667 2.60897 15.5176 2.48438 15.2745C2.22833 14.7749 2.10927 14.3863 2.04883 13.8859C2.00673 13.5372 2.00056 13.0093 2.00001 12.7335C1.99885 12.1496 2.14513 11.7838 2.33301 11.3898C2.48443 11.0723 2.7464 10.7107 2.88966 10.5167C3.09478 10.239 3.25339 10.0822 3.48145 9.87904C3.59378 9.77896 3.68606 9.69922 3.77442 9.61243C3.80334 9.58402 3.82649 9.55838 3.84571 9.53724C3.84566 9.51117 3.84654 9.47777 3.84571 9.43372C3.84414 9.35107 3.84118 9.23606 3.84083 9.10462C3.83949 8.58781 3.87727 7.7885 3.90626 7.31263C3.93682 6.81097 3.96262 6.59345 4.05665 6.22962C4.13512 5.92606 4.26641 5.49222 4.38673 5.16224C4.60476 4.56438 4.84636 4.19595 5.08106 3.89661C5.42374 3.45959 5.85871 3.16969 6.12305 2.99036C6.34241 2.84158 6.59113 2.70774 6.94044 2.57923C7.31318 2.44216 7.76885 2.33031 8.61231 2.22376C9.43994 2.11922 10.694 2.01588 11.5107 2.00208ZM16.042 11.7033C16.5937 11.7214 17.0266 12.1828 17.0088 12.7345C17.0038 12.8895 16.9983 13.0421 16.9932 13.3585C16.9878 13.6865 16.9827 14.1537 16.9785 14.4327C16.9745 14.698 16.9718 14.7599 16.9668 14.8283C16.9262 15.379 16.4472 15.7925 15.8965 15.7521C15.3458 15.7115 14.9322 15.2325 14.9727 14.6818C14.9729 14.6785 14.9755 14.6704 14.9795 14.4025C14.9833 14.1477 14.9889 13.6457 14.9941 13.3263C14.9996 12.9956 15.0045 12.8313 15.0098 12.6701C15.0277 12.1181 15.49 11.6854 16.042 11.7033ZM7.62403 11.4728C8.13843 11.4729 8.56163 11.8619 8.61719 12.3615C8.61704 12.3595 8.61739 12.3573 8.61719 12.3556C8.61904 12.3674 8.62194 12.383 8.62501 12.4025L8.66016 12.63L8.66407 12.6564L8.667 12.6837C8.6737 12.7523 8.67862 12.8101 8.68262 12.8908L8.69337 13.2384V13.2521C8.69594 13.543 8.69659 14.0814 8.69044 14.6876C8.68483 15.2398 8.23185 15.6834 7.67969 15.6779C7.12776 15.672 6.68504 15.22 6.69044 14.6681C6.6964 14.0811 6.69665 13.5633 6.69434 13.2843C6.6907 13.1272 6.68724 13.0431 6.68458 12.9894C6.68265 12.9506 6.68163 12.9273 6.67872 12.8966C6.6671 12.8213 6.65661 12.7588 6.64942 12.713C6.6454 12.6874 6.64211 12.6644 6.63966 12.6486C6.63849 12.6411 6.63691 12.6321 6.63575 12.6242C6.6352 12.6205 6.63391 12.6129 6.63282 12.6046C6.63228 12.6005 6.63106 12.5911 6.62989 12.5802C6.62928 12.5746 6.62794 12.5643 6.62696 12.5519C6.62632 12.5437 6.62403 12.5123 6.62403 12.4728C6.62424 11.9207 7.07187 11.4728 7.62403 11.4728ZM8.62403 12.4728C8.62403 12.45 8.62358 12.4313 8.62305 12.421C8.62248 12.4102 8.62159 12.4009 8.6211 12.3947C8.62069 12.3899 8.6195 12.3848 8.61915 12.381C8.62189 12.4111 8.62401 12.4419 8.62403 12.4728ZM8.61524 12.337C8.61541 12.3382 8.61578 12.3415 8.61622 12.3449C8.61644 12.3465 8.61664 12.3508 8.61719 12.3556C8.61653 12.3514 8.61576 12.3472 8.61524 12.3439C8.6145 12.339 8.61438 12.3359 8.61426 12.3351L8.61524 12.337Z" fill="black"/>
</svg>
