<svg width="24" height="24" viewBox="0 0 24 24" fill="none" xmlns="http://www.w3.org/2000/svg">
<path d="M4.35059 13.2034C5.40632 13.2132 7.51351 13.2328 8.62012 13.2454C9.16887 13.2516 9.46711 13.2557 9.63281 13.261C9.70689 13.2634 9.90584 13.2616 10.1143 13.3333L10.2041 13.3684L10.3662 13.4583C10.7127 13.6871 10.8372 14.0397 10.8818 14.1897C10.9451 14.4023 10.9687 14.6289 10.9795 14.8137C11.0012 15.187 10.9855 15.6745 10.9766 16.1321C10.9635 16.798 10.8927 17.8149 10.8691 18.2971C10.8565 18.5565 10.8523 18.6868 10.8516 18.7561C10.851 18.8075 10.8517 18.8122 10.8535 18.8382C10.8551 18.8616 10.8572 18.8865 10.8584 18.9055C10.8596 18.926 10.8601 18.9442 10.8613 18.9612C10.8637 18.9952 10.8666 19.0205 10.8691 19.0403C10.9399 19.5877 10.5533 20.0893 10.0059 20.1604C9.4586 20.2313 8.95726 19.8453 8.88574 19.2981C8.8682 19.1631 8.86109 19.0138 8.8584 18.9739C8.84912 18.8374 8.84516 18.7309 8.87109 18.1995C8.89501 17.7096 8.94512 16.9647 8.9668 16.3636C8.87483 16.4678 8.77142 16.5866 8.65234 16.72C7.8376 17.6325 6.24442 19.3801 5.4209 20.2893C5.00619 20.7472 4.79941 20.9779 4.69238 21.1009C4.64149 21.1593 4.62134 21.184 4.61523 21.1917L4.56445 21.262C4.24627 21.656 3.67482 21.7533 3.24121 21.471C2.77864 21.1696 2.64805 20.5499 2.94922 20.0872C3.04669 19.9376 3.14876 19.8185 3.93848 18.9466C4.77171 18.0266 6.3515 16.2936 7.16016 15.388C7.20907 15.3332 7.2538 15.2802 7.29688 15.2317C6.25339 15.2213 5.05044 15.21 4.33203 15.2034C3.80418 15.1985 3.5384 15.1958 3.4043 15.1946C3.33721 15.194 3.30268 15.1938 3.28516 15.1936H3.27344C2.7213 15.1936 2.27367 14.7457 2.27344 14.1936C2.27344 13.6413 2.72115 13.1936 3.27344 13.1936C3.28528 13.1936 3.30029 13.1937 4.35059 13.2034ZM19.9072 2.73855C20.2633 2.31668 20.8944 2.26269 21.3164 2.61844C21.7383 2.97449 21.7923 3.60555 21.4365 4.02762C21.3899 4.08283 21.269 4.23273 21.1641 4.35476C21.0265 4.51463 20.819 4.74669 20.4883 5.06277C20.3284 5.21554 20.1403 5.38684 19.9473 5.56472C19.7505 5.74612 19.5383 5.94311 19.3135 6.16043C18.8787 6.58065 18.3259 7.14821 17.7002 7.72488C17.3813 8.0188 17.0427 8.31682 16.7373 8.58426C16.5537 8.74506 16.3857 8.89361 16.2373 9.02469C16.9861 9.03751 17.8644 9.05011 18.4189 9.05594C19.2125 9.06428 19.2749 9.06516 19.3389 9.0657C19.891 9.07055 20.3348 9.52232 20.3301 10.0745C20.325 10.6264 19.8733 11.0704 19.3213 11.0657C19.2549 11.0651 19.1893 11.0643 18.3975 11.0559C17.6083 11.0476 16.1185 11.0325 15.3076 11.0091C14.5482 10.9871 14.2494 10.9628 13.9492 10.847C13.8209 10.7974 13.5283 10.6729 13.3115 10.3333C13.1446 10.0715 13.0827 9.77214 13.0498 9.51687C12.9832 8.9991 12.98 8.14688 13.0166 7.14871C13.0538 6.1334 13.1336 4.93467 13.1729 4.34207C13.1925 4.04553 13.2022 3.89536 13.207 3.81961L13.21 3.78347V3.80105C13.21 3.24877 13.6577 2.80105 14.21 2.80105C14.7621 2.8012 15.21 3.24886 15.21 3.80105C15.2099 3.85073 15.2046 3.91949 15.168 4.4739C15.1284 5.07189 15.0506 6.24102 15.0146 7.22195C15.0119 7.2972 15.01 7.37079 15.0078 7.44265C15.1393 7.32721 15.2781 7.20352 15.4199 7.07937C15.7246 6.81259 16.0463 6.52924 16.3447 6.25418C16.9541 5.69254 17.4229 5.20621 17.9229 4.72293C18.1652 4.48868 18.3918 4.27935 18.5918 4.095C18.7956 3.90714 18.9634 3.75313 19.1064 3.61648C19.3814 3.35372 19.544 3.17136 19.6475 3.05105C19.7833 2.89313 19.764 2.90827 19.9072 2.73855Z" fill="black"/>
</svg>
