<svg width="24" height="24" viewBox="0 0 24 24" fill="none" xmlns="http://www.w3.org/2000/svg">
<path d="M13.1874 13.0001C13.7397 13.0001 14.1874 13.4478 14.1874 14.0001C14.1874 14.1798 14.1882 14.8622 14.2031 15.9288C14.527 15.7536 14.838 15.5912 15.0771 15.4766C15.6757 15.1899 15.9069 15.1014 16.0781 15.0372C16.5949 14.8438 17.1712 15.1055 17.3652 15.6222C17.559 16.1391 17.297 16.7162 16.7802 16.9102C16.6682 16.9522 16.4913 17.0169 15.9413 17.2804C15.7962 17.3499 15.6136 17.4439 15.412 17.5509C15.4192 17.556 15.4265 17.5613 15.4335 17.5665C15.7056 17.7651 15.814 17.8618 16.0517 18.0177C16.213 18.1123 16.3649 18.1962 16.497 18.2716C16.7892 18.363 17.0363 18.5861 17.1445 18.8975C17.3252 19.4192 17.0489 19.9891 16.5273 20.17C16.3582 20.2286 16.1835 20.2418 16.0175 20.2159C15.8752 20.1937 15.767 20.1469 15.7158 20.1231C15.6624 20.0984 15.6157 20.0717 15.5927 20.0587C15.5736 20.0478 15.5322 20.0243 15.5156 20.0147C15.4215 19.9609 15.1958 19.836 15.0107 19.7266L14.9736 19.7032C14.7763 19.5747 14.5916 19.4371 14.4452 19.3263C14.4706 19.6446 14.4868 20.0592 14.4999 20.4464C14.5183 20.9981 14.0858 21.4608 13.5341 21.4796C12.9824 21.4981 12.5197 21.0655 12.5009 20.5138C12.4864 20.0855 12.4733 19.7108 12.4511 19.4522C12.4408 19.3745 12.4314 19.2944 12.4218 19.212C11.8601 19.4988 11.5997 19.5926 11.4228 19.672L11.4218 19.671C11.2103 19.7744 11.0206 19.8641 10.8925 19.919L10.8681 19.9298L10.8437 19.9386C10.7164 19.9853 10.5645 20.0285 10.3339 20.0841C9.79703 20.2134 9.25625 19.8826 9.12689 19.3458C8.99796 18.8091 9.32853 18.2691 9.86517 18.1397C10.0276 18.1006 10.1015 18.0774 10.1347 18.0665C10.2285 18.0251 10.3831 17.9542 10.5722 17.8614L10.5878 17.8546L10.6034 17.8468C10.7849 17.7654 10.929 17.7111 11.1738 17.5977C10.7407 17.3589 10.324 17.119 10.0429 16.9366C9.56436 16.626 9.39303 16.4985 9.28997 16.3946C8.90121 16.0025 8.90388 15.3694 9.29583 14.9806C9.68799 14.5917 10.321 14.5943 10.7099 14.9864C10.6568 14.9329 10.6241 14.9143 10.6943 14.9649C10.758 15.0109 10.8871 15.1001 11.1318 15.2589C11.3754 15.417 11.7762 15.6467 12.2031 15.8809C12.1889 14.8454 12.1874 14.1812 12.1874 14.0001C12.1874 13.4479 12.6353 13.0003 13.1874 13.0001ZM14.1445 2.0079C14.793 2.03327 15.2983 2.23826 15.7158 2.42489C16.5085 2.77939 17.0988 3.53336 17.4452 4.06063C17.8818 4.72521 17.9878 5.49217 18.0409 5.795C18.1317 6.31225 18.078 6.80928 18.0077 7.1954C17.9994 7.24102 17.9884 7.28807 17.9784 7.33602C18.277 7.31861 18.6029 7.30164 18.8837 7.31063C19.4202 7.32788 19.8583 7.57322 20.1679 7.81454C20.4831 8.06032 20.7446 8.36272 20.9452 8.63387C21.1576 8.92097 21.3163 9.27985 21.4413 9.60653C21.5718 9.94733 21.6953 10.3361 21.8154 10.7237C22.0662 11.5337 21.9987 12.2907 21.9687 12.796C21.8975 13.9954 21.5405 14.7074 21.2978 15.046L21.1972 15.1876L21.0546 15.2862C20.7827 15.4743 20.4458 15.5614 20.2421 15.6085C20.0008 15.6643 19.7313 15.7076 19.497 15.7442L19.4833 15.7462C19.3392 15.7666 19.2414 15.7667 19.1777 15.7667C18.6255 15.7666 18.1778 15.3188 18.1777 14.7667C18.1779 14.2147 18.6256 13.7668 19.1777 13.7667C19.1892 13.7667 19.195 13.7667 19.1972 13.7667C19.1952 13.7668 19.1933 13.7677 19.1933 13.7677C19.1936 13.7676 19.1964 13.7665 19.2021 13.7657C19.4294 13.7301 19.6228 13.6977 19.7792 13.6622C19.8531 13.4738 19.9442 13.1563 19.9726 12.6778C20.0069 12.1002 20.0298 11.718 19.9052 11.3155C19.7852 10.9282 19.6779 10.595 19.5732 10.3214C19.4631 10.0339 19.3819 9.88423 19.3368 9.82333C19.1975 9.63508 19.0596 9.48623 18.9384 9.39168C18.8626 9.33257 18.8188 9.31445 18.8056 9.30965C18.5976 9.30403 18.3229 9.31918 17.9736 9.33993C17.6393 9.35978 17.2435 9.38329 16.8779 9.37997C16.7962 9.37921 16.6851 9.37493 16.5673 9.35067C16.4669 9.32996 16.2294 9.26952 16.0185 9.06454C15.7547 8.80798 15.696 8.49243 15.704 8.27743C15.708 8.17293 15.732 8.06618 15.7402 8.03426C15.7625 7.94484 15.7948 7.84445 15.8085 7.79989C15.827 7.74016 15.8401 7.69635 15.8495 7.65438C15.9228 7.32758 15.9812 7.16004 16.04 6.837C16.0907 6.55812 16.1027 6.32603 16.0702 6.14071C16.001 5.74589 15.9419 5.41591 15.7734 5.15926C15.4666 4.69231 15.1412 4.35901 14.9003 4.25106C14.5359 4.08811 14.3184 4.01582 14.0663 4.00594C13.794 3.9953 13.3531 3.99402 12.6542 4.04305C11.8983 4.09609 11.0145 4.16348 10.5439 4.25692C9.97418 4.37004 9.7826 4.49753 9.62396 4.64168C9.46435 4.78678 9.28831 4.98111 9.11712 5.29696C8.89429 5.70809 8.74248 6.02287 8.66302 6.36141C8.51725 6.98284 8.42132 7.47471 8.46673 7.81649C8.5061 8.11265 8.56384 8.24117 8.69036 8.47567C8.79389 8.6676 8.87725 8.97898 8.74896 9.32137C8.63597 9.62268 8.41966 9.77866 8.31536 9.84188C8.12221 9.95893 7.92697 9.98995 7.87786 9.99813C7.72418 10.0237 7.53666 10.0312 7.38177 10.0362C7.00668 10.0484 6.59194 10.0494 5.98138 10.0753C5.63147 10.0901 5.41745 10.1009 5.26946 10.1182C5.2307 10.1228 5.20325 10.1277 5.18548 10.1309C4.94385 10.2744 4.75118 10.4337 4.57903 10.7403C4.35251 11.1439 4.14083 11.5257 4.04583 11.8897C3.99674 12.0779 3.98385 12.1837 4.02239 12.4249C4.0733 12.7431 4.11983 12.994 4.17767 13.1954C4.23725 13.4028 4.28748 13.4801 4.30071 13.4962C4.68816 13.967 4.99332 14.2803 5.29095 14.4347C5.89846 14.7496 6.21766 14.8986 6.40228 14.9317C6.5696 14.9616 6.69274 14.9806 6.77142 14.9923C6.81064 14.9981 6.83828 15.0019 6.85442 15.004C6.85791 15.0044 6.86113 15.0037 6.86321 15.004C7.36852 15.0542 7.7636 15.4816 7.7636 16.0001C7.76352 16.5521 7.31559 16.9998 6.7636 17.0001C6.73465 17.0001 6.7114 16.9985 6.70501 16.9981C6.69529 16.9976 6.68719 16.9975 6.68255 16.9972C6.67326 16.9964 6.66522 16.9956 6.66107 16.9952C6.65238 16.9943 6.64428 16.9929 6.6386 16.9923C6.62657 16.9909 6.61297 16.9892 6.59857 16.9874C6.56876 16.9835 6.52809 16.9781 6.47845 16.9708C6.37888 16.9561 6.23636 16.9336 6.05071 16.9005C5.49826 16.8017 4.87141 16.47 4.37005 16.21C3.6675 15.8458 3.13408 15.2252 2.75677 14.7667C2.49286 14.446 2.34823 14.069 2.25579 13.7472C2.16165 13.4193 2.09944 13.0643 2.04778 12.7413C1.96181 12.2038 1.99737 11.8177 2.11028 11.3848C2.28232 10.7255 2.63735 10.1137 2.83489 9.7618C3.24454 9.03196 3.76164 8.63946 4.23724 8.36727L4.34173 8.31356C4.58698 8.19746 4.83875 8.1551 5.03607 8.13192C5.27229 8.10418 5.56502 8.09129 5.89642 8.07723C6.09969 8.06861 6.29831 8.06256 6.48235 8.0577C6.3865 7.29068 6.59128 6.43596 6.71575 5.90536C6.86019 5.28963 7.12418 4.77585 7.35833 4.34383C7.65311 3.79997 7.98017 3.43319 8.27825 3.16219C8.77326 2.71223 9.32917 2.45884 10.1542 2.295C10.7777 2.1712 11.8098 2.09732 12.5136 2.04793C13.2743 1.99456 13.7892 1.99401 14.1445 2.0079ZM6.85345 15.004C6.85043 15.0037 6.84637 15.0034 6.84173 15.003C6.83762 15.0027 6.82964 15.0026 6.82024 15.002L6.7636 15.0001C6.79386 15.0001 6.82387 15.0013 6.85345 15.004Z" fill="black"/>
</svg>
