<svg width="24" height="24" viewBox="0 0 24 24" fill="none" xmlns="http://www.w3.org/2000/svg">
<path d="M9.48291 1.82172C10.0225 1.70429 10.5548 2.04689 10.6724 2.58636C10.6871 2.65404 10.6919 2.71079 10.6929 2.72211C10.6947 2.74391 10.6962 2.76364 10.6968 2.77679C10.698 2.80366 10.6984 2.83212 10.6987 2.85687C10.6995 2.90806 10.6993 2.97424 10.6987 3.05023C10.6975 3.20392 10.6945 3.42077 10.688 3.69476C10.6749 4.24444 10.6495 5.03772 10.6089 6.0473C10.5895 6.52815 10.551 6.94699 10.5063 7.45551C10.4615 7.96658 10.4084 8.59577 10.355 9.52875C10.2469 11.4166 10.1217 14.5044 10.0249 16.5903C9.92847 18.6684 9.86425 19.6323 9.8208 20.1821C9.78823 20.594 9.74504 20.913 9.68018 21.1586C9.61779 21.3947 9.50021 21.7077 9.21436 21.9418C8.99835 22.1186 8.70981 22.2277 8.39014 22.2016C8.10729 22.1784 7.89583 22.0571 7.77295 21.9702C7.54351 21.8077 7.36791 21.578 7.26221 21.434C7.14166 21.2698 7.01025 21.07 6.89307 20.895C6.76867 20.7092 6.64386 20.5265 6.51123 20.351C6.03479 19.7205 5.59033 19.1958 5.24561 18.8012C5.06916 18.5993 4.92922 18.4437 4.80713 18.3051C4.7603 18.252 4.70307 18.1875 4.64795 18.1215L4.49951 17.9272C4.43571 17.8313 4.33676 17.6827 4.26318 17.5522C4.16431 17.3767 4.0819 17.1815 4.05225 16.9164C3.99105 16.3678 4.38651 15.8735 4.93506 15.812C5.45219 15.7542 5.92112 16.1016 6.0249 16.601C6.05604 16.6526 6.10178 16.7244 6.16455 16.8188L6.30811 16.9828C6.41421 17.1033 6.57446 17.2832 6.75146 17.4858C7.06617 17.846 7.46666 18.3185 7.90381 18.8823C7.93699 18.3201 7.9777 17.5566 8.02686 16.4975C8.12256 14.4351 8.24907 11.3161 8.35791 9.41449C8.41293 8.45332 8.46839 7.802 8.51416 7.2807C8.56013 6.75706 8.59381 6.3898 8.61084 5.96625C8.65107 4.96523 8.67523 4.18345 8.68799 3.64691C8.69437 3.3784 8.69766 3.17349 8.69873 3.03461V2.86859C8.66421 2.38099 8.99131 1.92884 9.48291 1.82172ZM13.6362 2.06C14.0916 1.748 14.7145 1.86472 15.0269 2.31976C15.056 2.3623 15.0864 2.42084 15.769 3.19672C16.4465 3.96671 17.7273 5.40018 18.4067 6.16547C18.7589 6.56219 18.9515 6.78387 19.061 6.91449C19.116 6.98 19.1541 7.02744 19.1831 7.06488C19.1864 7.06917 19.2031 7.09225 19.2163 7.1098L19.2808 7.18207L19.2905 7.19281L19.3003 7.20453C19.3218 7.22956 19.346 7.25901 19.3647 7.28168C19.3864 7.30778 19.4146 7.34122 19.4526 7.38617C19.8096 7.80761 19.7569 8.43939 19.3354 8.79633C18.914 9.15293 18.2831 9.10044 17.9263 8.67914C17.8103 8.54218 17.8207 8.55224 17.7837 8.50922V8.50824C17.7403 8.46044 17.6882 8.40257 17.6382 8.33832L17.6304 8.32855C17.6207 8.31518 17.5952 8.2636 16.9116 7.49359C16.4053 6.92324 15.5439 5.95511 14.8589 5.18304C14.8417 5.41556 14.8235 5.67399 14.8022 5.96039C14.5887 8.84201 14.1615 14.5949 13.937 17.5961C13.7092 20.6414 13.7066 20.6335 13.6958 20.7778C13.6892 20.867 13.6831 20.9858 13.6763 21.1274C13.6495 21.6787 13.1808 22.105 12.6294 22.0786C12.0779 22.0519 11.6518 21.5822 11.6782 21.0307C11.6846 20.8979 11.6916 20.7495 11.7007 20.6284C11.7057 20.5619 11.7208 20.4017 11.9419 17.4467C12.1664 14.4463 12.5936 8.69461 12.8071 5.81293C12.9139 4.37254 12.968 3.64921 12.9946 3.28558C13.0079 3.10433 13.0139 3.01313 13.0171 2.96722C13.0179 2.95612 13.0187 2.94752 13.019 2.94183V2.94867C13.0188 2.95411 13.0182 2.96126 13.0181 2.96918C13.0179 2.97736 13.0181 2.98466 13.0181 2.9848C13.0181 2.56847 13.2724 2.21048 13.6343 2.06H13.6362Z" fill="black"/>
</svg>
