<svg width="24" height="24" viewBox="0 0 24 24" fill="none" xmlns="http://www.w3.org/2000/svg">
<path d="M11.1497 1.66901C11.7161 1.66325 12.734 1.66842 13.3284 1.71589C13.643 1.74102 13.9233 1.7646 14.1409 1.80671C14.3589 1.84892 14.7022 1.94078 14.9778 2.23932C15.2711 2.55703 15.6147 3.04476 15.8265 3.9151C15.8834 4.14944 15.8948 4.44371 15.9026 4.753C15.9113 5.09494 15.916 5.5967 15.9261 6.31257C15.9407 7.34895 15.9755 8.96871 15.9964 9.81061C16.017 10.642 16.0227 10.6933 16.0433 11.0264C16.0679 11.4265 16.0862 11.97 16.1204 12.3048C16.1385 12.4814 16.1501 12.6391 16.1604 12.7637C16.1714 12.8957 16.1794 12.9826 16.1888 13.0499C16.2262 13.0845 16.2767 13.1286 16.3489 13.1915C16.4049 13.2401 16.4787 13.3047 16.5491 13.3731C16.5837 13.4067 16.6231 13.4472 16.6644 13.4932L16.7903 13.6495L16.9749 13.9288C17.1719 14.2488 17.3909 14.6707 17.4964 15.0255C17.6274 15.4665 17.8427 16.0605 17.8987 16.713C17.9019 16.7504 17.9097 16.8038 17.9261 16.921C17.9403 17.023 17.958 17.1574 17.97 17.3018C17.9926 17.5724 18.005 17.9848 17.8675 18.3936C17.7068 18.8705 17.4732 19.4481 17.0335 19.9883C16.7703 20.3116 16.4768 20.6583 16.18 20.9649C15.8938 21.2605 15.5529 21.5737 15.1888 21.7813C14.6441 22.0918 14.1017 22.3634 13.2229 22.378C12.6565 22.3874 11.8175 22.411 10.889 22.2012C10.4383 22.0994 10.0033 21.9985 9.63017 21.8829C9.26969 21.7712 8.87438 21.6192 8.55009 21.377C7.81674 20.8291 7.53536 20.6223 7.30009 20.3321C7.07411 20.0533 6.5366 19.349 6.16044 18.1114C6.03665 17.7038 5.99998 17.2897 6.07646 16.7423C6.14755 16.2337 6.25946 15.4662 6.62822 14.7608C6.86381 14.3103 7.12849 13.8049 7.40751 13.501C7.58177 13.3113 7.79636 13.1166 7.99736 12.9503C7.99431 12.4513 7.99228 11.9855 7.98564 11.6231V11.6221C7.96511 10.8974 7.94507 10.5192 7.97099 9.4405V9.43171C8.00204 8.48613 8.02786 6.54699 8.12724 5.51178C8.2471 4.26331 8.31141 3.81636 8.49248 3.42096C8.57865 3.23284 8.71033 2.9668 8.87919 2.71393C9.0292 2.48938 9.2969 2.13653 9.70146 1.93757L9.90165 1.84967C9.988 1.8166 10.0958 1.78176 10.2288 1.753C10.4687 1.70114 10.7633 1.67295 11.1497 1.66901ZM11.1702 3.66901C10.8621 3.67215 10.7133 3.69477 10.6517 3.70807C10.6398 3.71064 10.6313 3.71253 10.6263 3.71393C10.6069 3.73526 10.5779 3.77098 10.5423 3.82428C10.4593 3.94852 10.3791 4.10502 10.3108 4.25397C10.3005 4.27651 10.2495 4.33803 10.1185 5.70319C10.0271 6.65523 10.0042 8.45787 9.97001 9.49811C9.95791 10.0051 9.95696 10.3408 9.96123 10.6407L9.98564 11.5762V11.586C9.9933 12.0041 9.996 12.5502 9.99931 13.1124C10.1372 13.5483 9.96146 14.0364 9.55009 14.2764C9.56397 14.2683 9.54512 14.2795 9.48564 14.3233C9.4337 14.3616 9.36717 14.413 9.29423 14.4727C9.14352 14.5962 8.99021 14.7349 8.88115 14.8536C8.88115 14.8536 8.877 14.8585 8.86943 14.8682C8.86114 14.8789 8.84943 14.8945 8.83525 14.9151C8.80618 14.9574 8.76996 15.0149 8.72587 15.0899C8.63626 15.2423 8.53093 15.4385 8.40068 15.6876C8.21112 16.0502 8.13001 16.4958 8.05693 17.0186C8.03512 17.1746 8.03377 17.2763 8.03837 17.3448C8.04275 17.4092 8.05361 17.4647 8.07353 17.5303C8.35098 18.4431 8.72984 18.9204 8.8538 19.0733C8.86459 19.0867 8.88137 19.1094 8.99931 19.2051C9.13259 19.3134 9.34818 19.4762 9.74736 19.7745C9.79231 19.808 9.9225 19.8789 10.222 19.9717C10.5097 20.0609 10.8716 20.1466 11.3294 20.2501C11.9915 20.3997 12.6009 20.3878 13.1897 20.378C13.5729 20.3716 13.7655 20.2898 14.1985 20.043C14.3129 19.9777 14.4966 19.8292 14.7435 19.5743C14.9801 19.3299 15.2308 19.0351 15.4827 18.7257C15.7005 18.458 15.8413 18.1428 15.972 17.7549C15.9725 17.7529 15.9741 17.7464 15.9759 17.7364C15.9783 17.7226 15.9812 17.7027 15.9827 17.6768C15.9859 17.6222 15.9839 17.5528 15.9769 17.4678C15.9697 17.3826 15.9582 17.2947 15.9446 17.1973C15.9331 17.115 15.9146 16.9894 15.9056 16.8839C15.8722 16.496 15.7564 16.1905 15.5794 15.5948C15.5269 15.4186 15.3239 15.0404 15.1692 14.8214C15.166 14.8181 15.1615 14.8134 15.1556 14.8077C15.1288 14.7817 15.0929 14.7494 15.0364 14.7003C14.9436 14.6195 14.7623 14.4672 14.6116 14.295C14.3187 13.9599 14.243 13.5744 14.2083 13.3253C14.1793 13.1167 14.1548 12.749 14.1302 12.5079C14.0911 12.1251 14.0652 11.4418 14.0472 11.1495C14.0251 10.7912 14.0176 10.7157 13.9964 9.86042C13.9753 9.01419 13.9409 7.38678 13.9261 6.34089C13.9157 5.6062 13.9119 5.13094 13.9036 4.80378C13.8946 4.4499 13.8806 4.37804 13.8831 4.38776C13.818 4.12023 13.7427 3.94612 13.681 3.83405C13.6642 3.8037 13.6446 3.77799 13.6282 3.753C13.6081 3.75061 13.5856 3.74682 13.5608 3.74421C13.4591 3.73347 13.3322 3.72207 13.1692 3.70905C12.6742 3.66952 11.7374 3.66324 11.1702 3.66901ZM12.1741 15.5919L12.3509 15.6055L12.3802 15.6094L12.4095 15.6143C12.5984 15.6494 12.7815 15.7158 12.9515 15.8116L13.1175 15.9171L13.1731 15.9571L13.222 16.0049C13.2614 16.0424 13.6484 16.3665 13.7024 16.9102L13.7083 17.0225L13.7073 17.2003C13.7052 17.2655 13.7007 17.3358 13.6927 17.4063C13.6783 17.5314 13.643 17.7561 13.5179 17.9786C13.498 18.0141 13.2988 18.4302 12.8587 18.6622C12.5971 18.8 12.2788 18.8531 11.9583 18.7725C11.8882 18.7549 11.5999 18.6929 11.3538 18.5772C11.1075 18.4613 10.5943 18.1454 10.5276 17.4708C10.5128 17.3208 10.5067 17.0636 10.5745 16.793C10.6331 16.5594 10.8274 16.0304 11.4183 15.8243C11.5918 15.6791 11.8149 15.5909 12.0589 15.5909C12.0823 15.5909 12.1233 15.5902 12.1741 15.5919Z" fill="black"/>
</svg>
