<svg width="24" height="24" viewBox="0 0 24 24" fill="none" xmlns="http://www.w3.org/2000/svg">
<path d="M16.4624 6.89689C16.9708 6.88662 17.8063 6.87882 18.4331 7.04337C18.8227 7.14566 19.0978 7.23095 19.2837 7.29435C19.3762 7.32589 19.4509 7.35316 19.5083 7.37638C19.5357 7.38745 19.5667 7.40022 19.5972 7.41447C19.6099 7.42043 19.6379 7.43442 19.6704 7.45255C19.6833 7.45973 19.7221 7.48206 19.7681 7.51505C19.7879 7.52928 19.843 7.56885 19.9028 7.63029C19.9325 7.66074 19.9877 7.72042 20.0405 7.80704C20.0864 7.88236 20.1859 8.0679 20.186 8.32755C20.186 8.87981 19.7383 9.32751 19.186 9.32755C19.0258 9.32753 18.875 9.28907 18.7407 9.22208C18.7453 9.2243 18.7482 9.22633 18.7495 9.22697C18.7627 9.23314 18.7673 9.23449 18.7583 9.23087C18.7429 9.22464 18.7045 9.20956 18.6382 9.18693C18.5062 9.14191 18.278 9.07054 17.9253 8.97794C17.6138 8.89617 17.062 8.88559 16.5024 8.89689C16.057 8.9059 15.7756 8.95923 15.4976 9.03556C15.2057 9.11572 14.9539 9.21265 14.7124 9.34806C14.4629 9.48804 14.204 9.6822 13.9683 9.88322C13.752 10.0677 13.5962 10.223 13.3872 10.4906C13.1613 10.78 12.8838 11.19 12.688 11.5063C12.514 11.7873 12.4323 11.9484 12.3032 12.3031C12.1613 12.6932 11.9787 13.2778 11.856 13.7299C11.7409 14.154 11.6938 14.4077 11.6675 14.8051C11.6392 15.2317 11.6399 15.7848 11.7153 16.3266C11.7904 16.8651 11.9435 17.4054 12.103 17.849C12.2572 18.2776 12.395 18.551 12.5708 18.8139C12.7594 19.0958 12.995 19.3667 13.1773 19.5385C13.2613 19.6177 13.3231 19.6656 13.3696 19.6967C13.4149 19.727 13.4604 19.7517 13.521 19.7797C13.5588 19.7972 13.5786 19.8066 13.6509 19.8207C13.7504 19.8401 13.934 19.8637 14.2925 19.8832C15.0123 19.9224 16.2829 19.9365 17.1216 19.9125C17.9005 19.8902 18.2382 19.8346 18.4419 19.7943C18.7043 19.7312 18.8707 19.669 18.9888 19.6186C19.3539 19.2983 19.9085 19.2836 20.2915 19.6059C20.7138 19.9615 20.768 20.5926 20.4126 21.0151C20.3843 21.0487 20.3219 21.1216 20.2329 21.1967C20.1421 21.2733 20.0533 21.3269 19.98 21.3666L19.9595 21.3783L19.938 21.3881C19.6693 21.5173 19.3492 21.6341 18.8999 21.7416L18.8823 21.7455L18.8657 21.7494C18.5386 21.8155 18.0917 21.8854 17.1792 21.9115C16.2908 21.937 14.9638 21.9228 14.1831 21.8803C13.3858 21.8369 13.0421 21.7612 12.6812 21.5942C12.3986 21.4634 12.1255 21.2965 11.8052 20.9945C11.5132 20.7193 11.1799 20.3321 10.9077 19.9252C10.623 19.4994 10.418 19.0731 10.2212 18.5258C10.0296 17.9929 9.83312 17.315 9.73389 16.6029C9.63515 15.8941 9.63651 15.1998 9.67139 14.6733C9.70821 14.1178 9.7827 13.7308 9.9253 13.2055C10.0604 12.7079 10.2605 12.0698 10.4243 11.6195C10.601 11.1341 10.7419 10.8492 10.9868 10.4535C11.2099 10.0931 11.5294 9.62089 11.811 9.26017C12.1097 8.87775 12.3605 8.62605 12.6704 8.36173C12.9608 8.11406 13.3294 7.83081 13.7339 7.60392C14.1464 7.37254 14.556 7.22006 14.9683 7.10685C15.3946 6.9898 15.8403 6.90946 16.4624 6.89689ZM18.6021 9.13908C18.6058 9.14178 18.6101 9.14434 18.6138 9.14689C18.6054 9.14102 18.5975 9.13444 18.5894 9.12833C18.5948 9.13235 18.5986 9.13659 18.6021 9.13908ZM6.74854 2.54728C6.84371 2.54596 7.00391 2.54784 7.16553 2.58536C7.26024 2.60741 7.34851 2.64352 7.42921 2.68888C7.58048 2.70841 7.73383 2.74073 7.90772 2.82658L8.01124 2.87736L8.1001 2.9506C8.47178 3.25605 8.83779 3.74693 9.12354 4.38712L9.24073 4.67033L9.27784 4.76798L9.29444 4.8715C9.36427 5.31325 9.46849 6.07712 9.03174 6.76505C8.85524 7.04294 8.47347 7.57393 7.76612 8.03361C7.51842 8.19456 7.27099 8.35102 7.04151 8.47111C6.82592 8.58388 6.53372 8.71546 6.21046 8.74943C5.96966 8.77476 5.39198 8.85236 4.84913 8.63908C4.55083 8.52184 4.10236 8.31887 3.74171 7.92423C3.55597 7.72099 3.24387 7.37401 3.0669 6.89201C2.95423 6.5849 2.81451 6.13872 2.83838 5.63224C2.85443 5.2932 2.90914 4.75247 3.23585 4.26017C3.40632 4.0035 3.69531 3.58317 4.15577 3.27579C4.40922 3.10668 4.81015 2.82065 5.43702 2.70744C5.79458 2.64296 6.11597 2.59623 6.37745 2.57072C6.50721 2.55807 6.63371 2.54891 6.74854 2.54728ZM6.57178 4.56095C6.37998 4.57967 6.11487 4.61709 5.79249 4.67521C5.62213 4.706 5.53398 4.75951 5.26514 4.93888C5.1635 5.00686 5.06041 5.1279 4.90186 5.36662C4.8962 5.3753 4.88091 5.40203 4.86671 5.46232C4.85164 5.52648 4.8419 5.61137 4.83643 5.72697C4.83183 5.82623 4.85745 5.96696 4.94385 6.20255C4.97348 6.28319 5.04005 6.3796 5.21827 6.57462C5.23726 6.5954 5.2721 6.62575 5.33448 6.66251C5.39795 6.69989 5.47781 6.73735 5.58057 6.77775C5.56807 6.77291 5.58755 6.78263 5.66749 6.78361C5.75231 6.78459 5.85032 6.77604 6.00147 6.76017C5.94225 6.76651 5.96218 6.77791 6.11378 6.69865C6.25241 6.62611 6.43145 6.51593 6.67628 6.35685C7.06217 6.10609 7.25872 5.82589 7.34327 5.69279H7.34424C7.34456 5.69206 7.34502 5.68916 7.3462 5.68497C7.34906 5.67499 7.35457 5.65228 7.35694 5.61173C7.36127 5.53625 7.35221 5.43492 7.33155 5.28556C7.19612 4.96016 7.05087 4.74478 6.94483 4.61759C6.89085 4.59812 6.83848 4.57515 6.78956 4.54728C6.78606 4.54727 6.78152 4.54722 6.77686 4.54728C6.73554 4.54787 6.66774 4.5516 6.57178 4.56095Z" fill="black"/>
</svg>
