<svg width="24" height="24" viewBox="0 0 24 24" fill="none" xmlns="http://www.w3.org/2000/svg">
<path d="M16.624 1.99887C17.5108 2.00454 18.057 2.09059 19.0205 2.20493C19.2996 2.23804 19.5767 2.25134 19.8955 2.27524C20.1571 2.29486 20.5379 2.32577 20.8428 2.42758C21.5274 2.65647 21.8205 3.25427 21.9805 3.57114C22.3513 4.30562 22.6413 5.43374 22.8057 6.37973C22.9069 6.96254 22.8922 7.53996 22.8623 8.34555C22.8312 9.18429 22.7541 10.3609 22.709 11.0594C22.6795 11.5164 22.6544 11.8455 22.625 12.0819C22.599 12.2908 22.5585 12.5539 22.4355 12.7928C22.1797 13.2899 21.7325 13.517 21.457 13.6327C21.3102 13.6943 21.1582 13.7445 21.0361 13.785C20.9036 13.8289 20.7972 13.864 20.6895 13.9041C19.8583 14.2143 19.2875 14.3671 18.8262 14.4452C18.4019 14.5169 18.0083 14.5257 17.8301 14.5418L17.8203 14.5428C17.7304 14.5501 17.6336 14.5556 17.54 14.5604C17.5305 14.566 17.519 14.5719 17.5068 14.5789C17.4955 14.6003 17.4839 14.623 17.4717 14.6463C17.3614 14.8574 17.2154 15.1496 17.0654 15.4969C16.8089 16.0911 16.3164 16.9477 16.0449 17.4305C15.4724 18.4489 15.3167 18.7083 15.0693 19.1903C14.6553 19.9973 14.4635 20.4749 14.3506 20.786C14.088 21.5098 13.5474 22.1118 13.0664 22.4305C12.5166 22.7947 11.9604 22.6645 11.6738 22.5575C11.5302 22.5038 11.4037 22.4386 11.332 22.4012C11.2339 22.35 11.2325 22.3496 11.2422 22.3534C10.9171 22.2278 10.5409 22.0318 10.2139 21.743C9.94405 21.5046 9.79059 21.2281 9.69727 21.0272C9.65082 20.9271 9.61267 20.8295 9.58496 20.7596C9.55382 20.681 9.53604 20.6362 9.51855 20.5975C9.27912 20.0677 9.18398 19.5015 9.10938 19.2049C9.02387 18.865 9.01281 18.4186 9.0127 18.077C9.01258 17.7068 9.02863 17.3017 9.03613 17.0145C9.04494 16.6772 9.03211 16.4403 9.01172 16.244C8.96881 16.2436 8.92317 16.2467 8.87891 16.244C8.74815 16.236 8.55178 16.2189 8.35645 16.203C8.15056 16.1862 7.91903 16.1686 7.68359 16.1561C7.43134 16.1427 6.54349 16.0511 5.43945 15.9549C4.33606 15.8588 3.39472 15.6519 3.08203 15.5623C2.73444 15.4626 2.48481 15.2547 2.3125 15.0789C2.14442 14.9074 1.98495 14.6968 1.83887 14.4989C1.50376 14.0447 1.37223 13.5789 1.32812 13.0506C1.28907 12.582 1.31459 11.9824 1.33496 11.2625C1.34792 10.8058 1.46111 10.3281 1.57812 9.92075C1.69514 9.51344 1.84713 9.07739 1.95215 8.75278C2.03484 8.49713 2.10253 8.25198 2.16992 8.00473C2.23481 7.76665 2.30338 7.50887 2.38184 7.27231C2.57232 6.69802 2.83017 5.96493 2.9873 5.41196C3.15466 4.82303 3.33887 4.40905 3.53711 3.94418C3.69291 3.57889 3.91637 3.36444 4.11426 3.2186L4.22949 3.14047C4.50309 2.96979 4.79883 2.88207 5.01758 2.82309C5.15197 2.78686 5.30133 2.75152 5.43945 2.71762C5.58322 2.68233 5.731 2.64529 5.88867 2.60141C6.49841 2.43168 7.13848 2.38072 7.3916 2.3436C8.10506 2.23873 8.9514 2.19634 9.33496 2.15903C9.55345 2.13775 9.85076 2.09443 10.7451 2.07895C11.4402 2.06693 12.755 2.03459 13.9043 2.01743C15.0643 2.00011 16.0577 1.99526 16.624 1.99887ZM13.9346 4.01645C12.773 4.03379 11.5138 4.06529 10.7803 4.07797C9.97184 4.09196 9.74317 4.12835 9.52832 4.14926C8.97133 4.20346 8.34796 4.22432 7.68262 4.32211C7.2304 4.38855 6.87427 4.40305 6.4248 4.52817C6.23678 4.58049 6.06478 4.62348 5.91602 4.66C5.76176 4.69787 5.64419 4.72612 5.53809 4.75473C5.43876 4.78152 5.37642 4.80182 5.33984 4.81528C5.15328 5.25211 5.03025 5.53966 4.91113 5.95883C4.73817 6.56744 4.45137 7.38635 4.28027 7.90219C4.22264 8.076 4.16921 8.27478 4.09961 8.53012C4.03242 8.77662 3.95327 9.06365 3.85449 9.36899C3.72947 9.75541 3.60603 10.1069 3.50098 10.4725C3.39592 10.8382 3.33964 11.1206 3.33398 11.3192C3.31137 12.1181 3.29427 12.5588 3.32129 12.8836C3.34335 13.1481 3.38783 13.2308 3.44727 13.3114C3.51873 13.4082 3.57797 13.486 3.62891 13.5497C3.66994 13.6009 3.70206 13.6366 3.72559 13.662C4.01374 13.7332 4.74816 13.8873 5.61328 13.9627C6.79704 14.0659 7.57878 14.1478 7.78906 14.159C8.05299 14.173 8.30745 14.1916 8.51953 14.2088C8.74129 14.2269 8.89717 14.2415 9.00098 14.2479C9.02476 14.2493 9.06612 14.2486 9.16504 14.2459C9.24537 14.2438 9.3745 14.2395 9.50293 14.245C9.62729 14.2503 9.81654 14.2667 10.0146 14.3329C10.1951 14.3932 10.4332 14.5129 10.6221 14.7469L10.7002 14.8553L10.7549 14.95C10.8709 15.1714 10.9078 15.3953 10.9209 15.4715C10.9873 15.8572 11.0557 16.2778 11.0352 17.0663C11.0267 17.3898 11.0126 17.742 11.0127 18.077C11.0128 18.44 11.032 18.6494 11.0488 18.7166C11.1819 19.2453 11.1993 19.4601 11.3408 19.7733C11.3822 19.8647 11.4194 19.9594 11.4443 20.0223C11.4728 20.0941 11.4923 20.1426 11.5117 20.1844C11.545 20.2561 11.5582 20.2635 11.5459 20.2508C11.6492 20.3397 11.7978 20.4237 11.9619 20.4872C12.0333 20.5147 12.0969 20.5454 12.1406 20.5672C12.1489 20.5714 12.1576 20.5766 12.166 20.5809C12.1891 20.5559 12.2136 20.529 12.2373 20.4998C12.3426 20.3701 12.4235 20.2306 12.4697 20.1034C12.614 19.7056 12.8416 19.1512 13.29 18.2772C13.5604 17.7502 13.7493 17.4326 14.3018 16.45C14.6055 15.9097 15.0251 15.1751 15.2285 14.7039C15.4034 14.2988 15.5732 13.9606 15.6992 13.7196C15.7621 13.5993 15.8148 13.5026 15.8496 13.4383L15.8779 13.3836C15.8845 13.3692 15.8912 13.3547 15.8984 13.3407C15.918 13.3027 15.9406 13.2667 15.9648 13.2323C15.9069 12.7256 15.801 11.8035 15.751 10.7235C15.6847 9.29413 15.5626 6.81423 15.502 5.46274C15.4664 4.6698 15.4526 4.25649 15.4463 3.99985C15.0015 4.00262 14.4878 4.00819 13.9346 4.01645ZM17.4463 4.03989C17.4534 4.285 17.4688 4.6775 17.5 5.37289C17.5607 6.72626 17.6812 9.18735 17.748 10.6307C17.7864 11.4591 17.8459 12.0615 17.8994 12.5331C18.1143 12.5196 18.241 12.5161 18.4932 12.4735C18.7921 12.4229 19.2356 12.3117 19.9902 12.0301C20.1419 11.9735 20.2936 11.9242 20.4072 11.8866C20.5089 11.8529 20.583 11.8252 20.6436 11.8016C20.6636 11.6291 20.6861 11.361 20.7139 10.9305C20.7597 10.2212 20.8344 9.07725 20.8643 8.27231C20.8954 7.43443 20.8945 7.06544 20.835 6.7225C20.6812 5.83781 20.4319 4.94117 20.1953 4.4725C20.1587 4.40009 20.1284 4.34705 20.1045 4.30551C20.0984 4.30463 20.0917 4.30349 20.085 4.30258C19.9957 4.29051 19.8843 4.28072 19.7461 4.27036C19.4905 4.25119 19.1214 4.23114 18.7852 4.19125C18.1956 4.12129 17.8104 4.07203 17.4463 4.03989Z" fill="black"/>
</svg>
