<svg width="24" height="24" viewBox="0 0 24 24" fill="none" xmlns="http://www.w3.org/2000/svg">
<path d="M10.387 1.39444C11.0141 1.39376 11.5588 1.39674 11.9729 1.41006C12.1788 1.4167 12.367 1.4269 12.5227 1.44131C12.6059 1.44902 12.7558 1.46263 12.9094 1.50284L13.0627 1.55264L13.4163 1.70499C13.7964 1.88365 14.2607 2.15963 14.8323 2.68546C15.4049 3.21228 15.8473 3.63863 16.1653 4.01651C16.4947 4.40802 16.7393 4.80296 16.8567 5.27823C16.989 5.81433 17.0506 6.35606 17.0725 6.60635C17.1207 7.1564 16.7133 7.64194 16.1633 7.69034C15.6133 7.73836 15.1285 7.33123 15.0803 6.78116C15.063 6.58342 15.0123 6.15466 14.9143 5.75772C14.8957 5.68252 14.849 5.55786 14.635 5.30362C14.4093 5.03543 14.0546 4.68779 13.4778 4.15714C12.9838 3.70276 12.6544 3.54698 12.386 3.43741C12.3735 3.43594 12.3574 3.43432 12.3381 3.43253C12.2407 3.4235 12.0983 3.4152 11.9084 3.40909C11.5304 3.39693 11.0147 3.39376 10.3889 3.39444C9.95736 3.39492 9.74263 3.45096 9.63599 3.48917C9.58088 3.50896 9.53391 3.53108 9.47974 3.56046C9.46066 3.57083 9.30874 3.65829 9.22192 3.70108C9.02025 3.80046 8.76805 3.96621 8.58325 4.13174C8.3106 4.3762 8.20276 4.66678 8.11841 5.03506C7.98861 5.6019 8.03897 5.7937 8.00903 6.32315C7.98805 6.6937 7.937 7.13708 7.9104 7.45401C7.88168 7.79627 7.84217 8.15072 7.82349 8.57901C7.79339 9.26925 7.78734 9.65549 7.77466 10.2948C9.90336 10.2744 12.4886 10.2494 14.0588 10.2372C16.2713 10.22 16.3582 10.2275 16.7415 10.2421C18.4986 10.3089 18.8241 10.3408 19.385 10.4101C20.0674 10.4945 20.5044 10.8471 20.7961 11.1649C21.2565 11.6667 21.4007 12.3162 21.4963 12.6698C21.5738 12.9566 21.6034 13.3083 21.6731 14.1562C21.7384 14.9509 21.7632 16.3609 21.7795 17.0946C21.8046 18.221 21.7063 18.8296 21.5588 19.8759C21.4949 20.3295 21.4059 20.6847 21.2756 20.9931C21.1427 21.3077 20.985 21.5276 20.8674 21.6903C20.3914 22.3492 19.6249 22.4765 19.2366 22.5605C18.6302 22.6916 17.9981 22.6697 16.5129 22.6874C15.2211 22.7028 12.757 22.7048 11.4543 22.706C10.1393 22.7072 10.0471 22.6979 9.37231 22.6884C8.71931 22.6792 7.39271 22.6685 6.59302 22.6562C5.81653 22.6442 5.26554 22.6104 4.83228 22.5175C4.34041 22.412 4.02923 22.2375 3.73267 22.039C3.28095 21.7365 2.9296 21.3242 2.69165 20.8593C2.46682 20.4199 2.36176 19.8382 2.31372 19.62C2.26857 19.415 2.24914 19.1999 2.23657 19.039C2.22192 18.8514 2.21584 18.7286 2.20142 18.6015C2.16659 18.2943 2.16214 17.837 2.14478 17.4511C2.11942 16.8876 2.12219 15.7914 2.09595 14.6767C2.06429 13.3312 2.15271 12.8401 2.19653 12.4774C2.20792 12.2976 2.21907 12.1287 2.23364 11.9599C2.23932 11.8703 2.24347 11.7458 2.24829 11.5937C2.25337 11.4338 2.29741 11.2841 2.36841 11.1523C2.45518 10.6884 2.86078 10.3368 3.34985 10.3368C3.3539 10.3368 3.41363 10.3364 5.48169 10.3163C5.57505 10.3154 5.67249 10.3144 5.77368 10.3134C5.78711 9.64539 5.79321 9.23028 5.82544 8.49112C5.84647 8.00938 5.89307 7.57408 5.91724 7.28604C5.95383 6.85006 5.99215 6.56 6.01196 6.20987C6.0266 5.95038 5.98939 5.37399 6.16919 4.58878C6.28557 4.08061 6.51422 3.30099 7.24731 2.64346C7.57651 2.34838 7.98386 2.0811 8.33911 1.90616C8.39101 1.88056 8.3809 1.8817 8.52661 1.80264C8.63695 1.74281 8.7802 1.67129 8.96118 1.60635C9.32793 1.47488 9.7781 1.3951 10.387 1.39444ZM14.0745 12.2372C11.8606 12.2544 7.624 12.2957 5.50024 12.3163C4.93365 12.3218 4.51726 12.3251 4.21118 12.328C4.2033 12.4305 4.19543 12.5352 4.18872 12.6444L4.18677 12.6728L4.18384 12.7011C4.14304 13.0441 4.0664 13.4159 4.09497 14.6298C4.12383 15.8555 4.11794 16.8082 4.14282 17.3612C4.16653 17.888 4.16379 18.1558 4.18872 18.3759C4.20837 18.5491 4.22059 18.7541 4.23071 18.8837C4.24288 19.0394 4.25432 19.1322 4.26685 19.1894C4.34753 19.5558 4.39636 19.8005 4.47192 19.9482C4.56582 20.1316 4.69553 20.2767 4.84497 20.3769C5.01112 20.4881 5.08696 20.526 5.2522 20.5614C5.47644 20.6095 5.85468 20.6453 6.62427 20.6571C7.45654 20.6699 8.69063 20.6784 9.40063 20.6884C10.0886 20.6981 10.1577 20.7071 11.4534 20.706C12.762 20.7048 15.2117 20.7036 16.4895 20.6884C18.1539 20.6686 18.4664 20.6805 18.8137 20.6054C18.9346 20.5792 19.0271 20.5588 19.1067 20.538C19.1852 20.5175 19.2338 20.5015 19.2639 20.4892C19.265 20.4887 19.2659 20.4876 19.2668 20.4872C19.3582 20.3598 19.3981 20.2994 19.4338 20.2148C19.4749 20.1174 19.5294 19.9441 19.5784 19.5966C19.7267 18.544 19.8006 18.0837 19.7795 17.1396C19.7623 16.3654 19.7389 15.0384 19.6799 14.3202C19.6426 13.8661 19.6192 13.597 19.5999 13.4208C19.5807 13.2465 19.5692 13.2044 19.5657 13.1913C19.4308 12.6924 19.3857 12.5854 19.3225 12.5165C19.2637 12.4525 19.2295 12.4278 19.2112 12.4169C19.1992 12.4097 19.1811 12.4006 19.1389 12.3954C18.6643 12.3368 18.4071 12.3073 16.6663 12.2411C16.3348 12.2285 16.291 12.22 14.0745 12.2372Z" fill="black"/>
</svg>
