<svg width="24" height="24" viewBox="0 0 24 24" fill="none" xmlns="http://www.w3.org/2000/svg">
<path d="M10.9494 9.46094C11.2559 9.329 11.54 9.37003 11.7199 9.42774C11.7963 9.45226 11.8646 9.48284 11.9182 9.51074L12.0315 9.57617L12.3469 9.79492C12.4642 9.87867 12.616 9.98652 12.8225 10.126C13.2325 10.4028 13.9371 10.8553 14.6145 11.3857C15.2983 11.9213 15.9362 12.5235 16.5969 13.1484C16.9976 13.528 17.0152 14.1604 16.636 14.5615C16.2564 14.9627 15.6231 14.9801 15.2219 14.6006C14.5499 13.9649 13.9793 13.4284 13.3811 12.96C13.2415 12.8506 13.1016 12.7452 12.9631 12.6445C12.9755 12.9007 13.002 13.3153 13.0588 14.043C13.1728 15.5035 13.4043 18.1894 13.6614 21.0479C13.7108 21.5979 13.3052 22.0843 12.7551 22.1338C12.2052 22.183 11.7196 21.7765 11.6701 21.2266C11.413 18.3668 11.1806 15.671 11.0656 14.1982C11.0329 13.7788 11.0101 13.4568 10.9934 13.2041C10.6707 13.6142 10.1196 14.313 9.37033 15.2715C9.03015 15.7065 8.40109 15.7835 7.96604 15.4434C7.5314 15.1031 7.45417 14.474 7.79416 14.0391C8.8032 12.7484 9.41678 11.977 9.65158 11.6748C9.69984 11.6126 9.78757 11.4587 9.91135 11.1709C10.0287 10.8979 10.1477 10.5796 10.2824 10.2236L10.3459 10.0732C10.3722 10.0174 10.4042 9.95693 10.4426 9.89746C10.5169 9.78251 10.6725 9.58035 10.9494 9.46094ZM14.133 1.5C15.195 1.50145 15.6849 1.62455 16.1487 1.78125C16.6141 1.93867 16.9441 2.26062 17.2258 2.55078C17.7906 3.13265 18.0602 3.76301 18.2737 4.33594C18.444 4.79317 18.6485 5.53758 18.7639 5.95996C18.889 6.41824 18.9361 6.88187 18.9621 7.31152C19.243 7.34787 19.6119 7.39965 20.0451 7.48535C20.593 7.5938 21.0058 7.91301 21.301 8.20801C21.5956 8.50253 21.8579 8.86077 22.0774 9.16406C22.4971 9.7443 22.6804 10.3246 22.7053 10.8975C22.7286 11.4356 22.6077 11.9225 22.5178 12.2744L22.4875 12.3916L22.4309 12.498C22.278 12.7843 22.0518 13.115 21.633 13.6064C21.2239 14.0866 20.6044 14.7478 19.9299 15.4727C19.5537 15.8769 18.9202 15.8996 18.5158 15.5234C18.1119 15.1473 18.0892 14.5146 18.4651 14.1104C19.1594 13.3642 19.7378 12.747 20.1106 12.3096C20.3906 11.981 20.5309 11.7796 20.6096 11.6514C20.6792 11.3658 20.7152 11.1689 20.7072 10.9844C20.6996 10.8083 20.6511 10.6039 20.4572 10.3359C20.2279 10.019 20.0523 9.78843 19.8869 9.62305C19.7393 9.47546 19.6664 9.45001 19.6574 9.44727C19.0752 9.33207 18.6632 9.29131 18.3274 9.24609C18.1894 9.22751 17.9741 9.19827 17.7864 9.13281C17.6364 9.08049 17.0281 8.83173 16.9983 8.11817C16.9694 7.42264 16.961 6.94824 16.8352 6.48731C16.7118 6.03542 16.5317 5.38871 16.3996 5.03418C16.2113 4.52871 16.0588 4.21898 15.7912 3.94336C15.6571 3.80521 15.579 3.73443 15.5276 3.69434C15.5118 3.68204 15.5014 3.67507 15.4963 3.67188C15.3498 3.62261 15.2246 3.58547 15.0461 3.55664C14.8537 3.52562 14.5743 3.50062 14.1311 3.5C13.3373 3.49894 11.9922 3.51644 11.0168 3.61328C10.0353 3.71078 9.49023 3.85002 9.10178 4.02051C8.61714 4.2333 8.23187 4.40423 7.93479 4.56836C7.62992 4.73683 7.54786 4.8304 7.54319 4.83496C7.29592 5.21029 7.13264 5.44917 7.01291 5.64356C6.90252 5.82282 6.88792 5.87347 6.89182 5.8584C6.85316 6.02818 6.74714 6.55136 6.91819 7.46387C6.91354 7.43907 6.91309 7.4565 6.96115 7.55078C6.98342 7.59442 7.00786 7.63903 7.04123 7.7002C7.07129 7.75529 7.11072 7.8289 7.14768 7.9043C7.20522 8.02169 7.34263 8.30657 7.33811 8.64844C7.33543 8.84618 7.28567 9.07028 7.15256 9.2832C7.02196 9.492 6.84674 9.6323 6.68186 9.72363C6.53631 9.80417 6.40058 9.8318 6.36155 9.83984C6.30165 9.85219 6.24593 9.85987 6.20627 9.86426C6.1266 9.87305 6.03674 9.87854 5.96018 9.88281C5.79062 9.89227 5.61488 9.89955 5.41233 9.91602C4.9812 9.95108 4.63307 10.0163 4.44065 10.1113C4.34715 10.1576 4.26658 10.2101 4.18967 10.2939C4.112 10.3787 4.00448 10.5319 3.9094 10.8164C3.77823 11.209 3.67069 11.5373 3.59397 11.7998C3.55588 11.9302 3.52843 12.0334 3.51096 12.1123C3.49837 12.1692 3.49378 12.2 3.49241 12.21C3.48054 12.492 3.48748 12.658 3.51682 12.7734C3.62648 13.2036 3.68004 13.3049 3.79319 13.418C3.88454 13.5092 4.08388 13.6624 4.34299 13.8359C4.58683 13.9992 4.82551 14.1426 4.94846 14.2119C5.42933 14.4831 5.60021 15.0932 5.32932 15.5742C5.0582 16.0552 4.44808 16.225 3.96701 15.9541C3.79936 15.8596 3.51696 15.6897 3.23069 15.498C2.95972 15.3166 2.61874 15.0724 2.37912 14.833C1.85393 14.3082 1.6987 13.7358 1.57932 13.2676C1.47101 12.8426 1.4821 12.4173 1.49436 12.126C1.50616 11.8459 1.59366 11.5144 1.67405 11.2393C1.76315 10.9343 1.88337 10.5704 2.01291 10.1826C2.3771 9.09278 3.007 8.58881 3.55393 8.31836C4.01302 8.09145 4.55443 7.99661 4.98069 7.94922C4.97085 7.91105 4.9599 7.8722 4.95237 7.83203C4.71638 6.57301 4.86173 5.76352 4.94553 5.39941L4.9758 5.28516C5.05555 5.02261 5.19224 4.78661 5.30979 4.5957C5.45091 4.36654 5.65132 4.07127 5.87326 3.73438C6.15356 3.30902 6.60109 3.02111 6.96799 2.81836C7.35986 2.60186 7.83233 2.39254 8.29709 2.18848C8.96072 1.89715 9.74261 1.73001 10.8196 1.62305C11.9032 1.51545 13.3347 1.49894 14.133 1.5Z" fill="black"/>
</svg>
