<svg width="24" height="24" viewBox="0 0 24 24" fill="none" xmlns="http://www.w3.org/2000/svg">
<path d="M12.9502 14.6191C12.9697 14.6195 12.9877 14.6203 13.0049 14.6211L13.0381 14.623L13.3828 14.6494C13.5199 14.6628 13.6726 14.6817 13.8203 14.71C14.473 14.8346 14.9674 15.1262 15.3291 15.3818C15.6103 15.5806 16.0584 15.9563 16.252 16.1143C16.6529 16.4415 16.8765 16.8168 17.0693 17.1416C17.2737 17.4859 17.3613 17.8993 17.4785 18.5498C17.5769 19.0957 17.6529 20.028 17.6973 20.4141C17.7232 20.6392 17.7392 20.7516 17.748 20.8076C17.7508 20.8252 17.7524 20.8341 17.7529 20.8369L17.7959 21.0029C17.9351 21.5373 17.6144 22.0833 17.0801 22.2227C16.5458 22.3619 15.9999 22.042 15.8604 21.5078C15.8229 21.3641 15.8397 21.4225 15.8193 21.3457C15.7865 21.2217 15.7635 21.0997 15.7109 20.6426C15.65 20.1127 15.5948 19.3708 15.5107 18.9043C15.4493 18.5635 15.4079 18.3703 15.376 18.252C15.3471 18.1449 15.3365 18.141 15.3496 18.1631C15.1522 17.8305 15.0837 17.7427 14.9873 17.6641C14.7361 17.4591 14.381 17.1604 14.1748 17.0146C13.9332 16.8439 13.7076 16.7249 13.4453 16.6748C13.2903 16.6452 13.0948 16.6308 12.9111 16.6191H12.9082C12.8879 16.6187 12.8449 16.6176 12.7549 16.6172C12.5758 16.6165 12.2289 16.617 11.5459 16.6191C10.1767 16.6234 7.56555 16.6357 6.12695 16.6689C4.66951 16.7026 4.49172 16.7509 4.45312 16.7598C4.2813 16.799 4.11699 16.8402 3.98438 16.8789C3.91825 16.8982 3.86758 16.9148 3.83203 16.9277C3.80157 16.9389 3.79493 16.9423 3.80469 16.9375C3.67654 17.0096 3.64337 17.0335 3.62305 17.0508C3.6166 17.0563 3.59099 17.077 3.54102 17.1631C3.53838 17.1683 3.53042 17.1852 3.5166 17.2168C3.49796 17.2595 3.47392 17.3164 3.44629 17.3896C3.39069 17.5372 3.32566 17.7274 3.25098 17.9551C3.21944 18.0512 3.20626 18.0928 3.18945 18.1631C3.17059 18.242 3.14562 18.3673 3.10645 18.6094C3.02618 19.1054 2.89989 19.9555 2.8418 20.46C2.80168 20.8084 2.77846 21.0249 2.76562 21.1533C2.75922 21.2175 2.75592 21.2587 2.75391 21.2822C2.75291 21.2939 2.75209 21.3001 2.75195 21.3018C2.7519 21.3012 2.7518 21.2994 2.75195 21.2969C2.75208 21.2949 2.75268 21.29 2.75293 21.2842L2.75391 21.2422L2.74902 21.3438C2.698 21.8482 2.27182 22.2422 1.75391 22.2422C1.236 22.2422 0.809808 21.8482 0.758789 21.3438L0.753906 21.2422C0.753916 21.1739 0.76503 21.0588 0.775391 20.9551C0.78953 20.8135 0.813586 20.5857 0.854492 20.2305C0.917685 19.6817 1.04962 18.7982 1.13184 18.29C1.2205 17.7421 1.26922 17.5801 1.35059 17.332C1.49239 16.8997 1.65405 16.4294 1.81152 16.1582C1.95688 15.9079 2.12051 15.7032 2.32422 15.5293C2.51302 15.3682 2.70926 15.2589 2.8457 15.1826C3.03252 15.0781 3.26507 15.0053 3.42383 14.959C3.60923 14.9049 3.81524 14.8534 4.00684 14.8096C4.27128 14.7491 4.64279 14.7022 6.08105 14.6689C7.54362 14.6351 10.1759 14.6233 11.54 14.6191C12.223 14.617 12.5758 14.6164 12.7627 14.6172C12.8553 14.6176 12.9125 14.6184 12.9502 14.6191ZM18.3701 14.6768C18.6497 14.2005 19.262 14.0409 19.7383 14.3203C19.9815 14.4631 20.341 14.6814 20.7266 14.9355C20.8676 15.0285 21.0014 15.1371 21.1367 15.3057C21.2393 15.4335 21.336 15.5901 21.4307 15.7432C21.6435 16.0872 22.0078 16.7033 22.2324 17.1123C22.4762 17.5562 22.5888 17.8194 22.6748 18.25C22.8248 19.0012 22.8562 19.535 22.8604 19.6992C22.8616 19.7371 22.865 19.797 22.8691 20.0234C22.8733 20.249 22.879 20.6502 22.8701 21.1543C22.8602 21.7063 22.4046 22.1464 21.8525 22.1367C21.3007 22.1268 20.8607 21.671 20.8701 21.1191C20.8784 20.6472 20.874 20.272 20.8701 20.0605C20.8663 19.8519 20.8639 19.8141 20.8623 19.7637L20.8613 19.7568V19.749C20.8613 19.749 20.8612 19.7198 20.8574 19.6631C20.8538 19.608 20.8473 19.5295 20.8369 19.4326C20.8161 19.2385 20.778 18.9679 20.7129 18.6416C20.6911 18.5324 20.6751 18.4777 20.6533 18.4229C20.6266 18.3556 20.5808 18.2604 20.4785 18.0742C20.2738 17.7015 19.929 17.1169 19.7305 16.7959C19.6796 16.7137 19.6438 16.6572 19.6162 16.6152C19.6089 16.6041 19.6019 16.5946 19.5967 16.5869C19.2559 16.3631 18.9393 16.1698 18.7266 16.0449C18.2505 15.7655 18.0911 15.1529 18.3701 14.6768ZM9.6875 2.25781C10.3192 2.25338 10.6809 2.37924 10.9883 2.50488C11.3286 2.64399 11.6115 2.83945 11.8555 3.0166C12.2454 3.29984 12.5151 3.57689 12.666 3.7627C12.8867 4.03456 13.0508 4.40315 13.1758 4.70215C13.2966 4.99125 13.3623 5.28813 13.4043 5.7373C13.4451 6.17399 13.4595 6.80093 13.4473 7.27637C13.4267 8.07412 13.3333 8.53033 13.2324 8.82422C13.0949 9.22489 12.8835 9.59051 12.7109 9.84668C12.5045 10.1531 12.2638 10.3784 11.9355 10.624C11.6623 10.8284 11.2439 11.0441 11.0156 11.1621C10.5123 11.4223 10.115 11.5413 9.79102 11.6309C9.3264 11.7593 8.74063 11.7812 8.26367 11.7832C7.48354 11.7865 6.96319 11.5211 6.4834 11.2197C6.1647 11.0195 5.92638 10.7847 5.7666 10.6191C5.62442 10.4718 5.49567 10.2683 5.40527 10.1201C5.29838 9.9449 5.17441 9.72693 5.04004 9.48535C4.76445 8.98976 4.65596 8.46243 4.55469 7.82129C4.47611 7.3236 4.46305 6.65762 4.47266 6.1582C4.48328 5.60733 4.5451 5.18877 4.60742 4.88867C4.7824 4.04659 5.18559 3.50369 5.48145 3.20312L5.55078 3.13281L5.63281 3.07715C5.72344 3.01575 5.82872 2.95615 5.93555 2.91016L5.9668 2.89941C6.07598 2.81576 6.20405 2.75309 6.34668 2.71973C6.71048 2.63473 7.27329 2.50049 8.12695 2.35449C8.69084 2.25807 9.36238 2.26009 9.6875 2.25781ZM15.7129 1.91211C15.7442 1.91707 15.7702 1.92206 15.7861 1.92578C15.8166 1.93294 15.8408 1.94005 15.8516 1.94336C15.8729 1.9499 15.891 1.95641 15.8955 1.95801C15.9037 1.96089 15.9158 1.9659 15.918 1.9668C15.9259 1.96968 15.939 1.97367 15.959 1.98047C16.001 1.99473 16.0825 2.02155 16.2227 2.0625C16.4765 2.13667 16.7085 2.18602 16.8975 2.22168C16.999 2.24083 17.0689 2.25216 17.1533 2.26758C17.2033 2.2767 17.3271 2.29901 17.4326 2.33301C17.5445 2.36909 17.6457 2.42224 17.6875 2.44434C17.748 2.47635 17.8161 2.51462 17.8848 2.55469C18.023 2.63535 18.1993 2.74324 18.3994 2.86621C18.8421 3.13832 19.0791 3.49501 19.2344 3.72656C19.395 3.96603 19.5027 4.24152 19.582 4.48535C19.6644 4.73854 19.7378 5.02567 19.8076 5.31934C19.9757 6.02696 19.9927 6.62998 19.9746 7.00781C19.9603 7.30352 19.8361 7.6028 19.751 7.79785C19.6459 8.03845 19.497 8.33831 19.3105 8.69727C19.0575 9.18437 18.6527 9.67453 18.5215 9.84668L18.4805 9.90039L18.4336 9.94727C17.9474 10.4343 17.4437 10.8013 17.3154 10.8896H17.3145C17.2698 10.9204 17.2372 10.9428 17.1826 10.9795C16.7244 11.2874 16.1031 11.166 15.7949 10.708C15.4872 10.2497 15.6082 9.62729 16.0664 9.31934C16.1141 9.28727 16.141 9.26914 16.1816 9.24121C16.2475 9.19578 16.6195 8.92315 16.9795 8.56934C17.1779 8.31192 17.3968 8.04163 17.5352 7.77539C17.7175 7.42441 17.8412 7.17399 17.918 6.99805C17.9485 6.92805 17.9654 6.87816 17.9766 6.84668C17.9826 6.61195 17.9681 6.23073 17.8613 5.78125C17.7942 5.49875 17.7368 5.27717 17.6807 5.10449C17.6531 5.01993 17.628 4.95611 17.6074 4.90918C17.5974 4.88646 17.5892 4.8691 17.583 4.85742C17.5778 4.84763 17.5749 4.84185 17.5742 4.84082C17.4249 4.61812 17.3918 4.59448 17.3525 4.57031C17.152 4.4471 16.9924 4.35016 16.876 4.28223C16.8421 4.26247 16.814 4.2467 16.792 4.23438C16.7357 4.22412 16.6296 4.206 16.5264 4.18652C16.3021 4.14421 16.0014 4.08155 15.6621 3.98242C15.4998 3.93499 15.3902 3.90005 15.3164 3.875C15.2791 3.86232 15.2517 3.85201 15.2344 3.8457C15.2326 3.84505 15.2308 3.84422 15.2295 3.84375C15.2285 3.84342 15.2272 3.84299 15.2266 3.84277C14.8368 3.70624 14.5566 3.33581 14.5566 2.89941C14.5569 2.34739 15.0046 1.89955 15.5566 1.89941C15.6284 1.89941 15.6851 1.90773 15.7129 1.91211ZM9.70117 4.25781C9.32236 4.26047 8.83283 4.2621 8.46387 4.3252C7.82009 4.4353 7.36005 4.53817 7.01855 4.61719C6.9531 4.66241 6.88211 4.7006 6.80566 4.72949C6.72147 4.84646 6.62088 5.02895 6.56543 5.2959C6.52581 5.48675 6.47969 5.78095 6.47168 6.19629C6.46269 6.66317 6.47968 7.18809 6.53027 7.50879C6.62972 8.13844 6.69877 8.35363 6.78711 8.5127C6.91933 8.75042 7.02746 8.93905 7.1123 9.07812C7.15453 9.14734 7.18643 9.19699 7.20898 9.22949C7.21354 9.23604 7.21781 9.24117 7.2207 9.24512C7.34161 9.36939 7.44117 9.45993 7.54688 9.52637C7.88179 9.73671 8.01916 9.78414 8.25488 9.7832C8.73494 9.78116 9.07796 9.75281 9.25781 9.70312C9.52543 9.62913 9.77212 9.55408 10.0977 9.38574C10.3747 9.24248 10.6251 9.10636 10.7373 9.02246C10.9593 8.85631 11.0133 8.78648 11.0518 8.72949C11.1655 8.56066 11.279 8.35499 11.3408 8.1748C11.3556 8.13176 11.431 7.89121 11.4482 7.22461C11.4589 6.81011 11.444 6.2642 11.4121 5.92285C11.3963 5.75376 11.3801 5.65278 11.3662 5.58984C11.354 5.53439 11.3424 5.50301 11.3301 5.47363C11.2693 5.32824 11.2195 5.21719 11.1768 5.13379C11.1382 5.05856 11.1164 5.02792 11.1133 5.02344C11.0739 4.97494 10.9312 4.81743 10.6797 4.63477C10.4536 4.47059 10.3345 4.39856 10.2314 4.35645C10.1305 4.31521 10.0798 4.29729 10.0215 4.28418C9.96402 4.2713 9.86799 4.25664 9.70117 4.25781ZM15.4004 3.88672C15.4069 3.88775 15.4149 3.88762 15.4229 3.88867C15.4079 3.88666 15.3927 3.88451 15.3779 3.88184C15.385 3.88312 15.3925 3.88544 15.4004 3.88672ZM15.3281 3.87305C15.3326 3.8741 15.3387 3.87469 15.3447 3.87598C15.325 3.87169 15.3054 3.86578 15.2861 3.86035C15.2974 3.86352 15.3116 3.86913 15.3281 3.87305Z" fill="black"/>
</svg>
