<svg width="24" height="24" viewBox="0 0 24 24" fill="none" xmlns="http://www.w3.org/2000/svg">
<path d="M9.21143 13.4513C9.8168 13.457 10.1006 13.4861 10.4204 13.5461C10.7117 13.6007 11.0198 13.6768 11.4253 13.8175C11.794 13.9455 12.2808 14.1302 12.5854 14.2746C12.9915 14.467 13.3981 14.7103 13.9038 15.1222C14.2939 15.4399 14.673 15.7545 14.9292 16.1017C15.2233 16.5003 15.5451 17.0209 15.7437 17.6125C15.8384 17.8949 15.9145 18.1877 15.9761 18.5578C16.0351 18.9124 16.0791 19.3283 16.0991 19.6554C16.1195 19.9883 16.1169 20.2256 16.1128 20.3683C16.1093 20.4911 16.1235 20.8258 16.0151 21.1681C15.992 21.2411 15.9096 21.4957 15.647 21.7013C15.4542 21.8522 15.248 21.9101 15.1343 21.9367C14.8945 21.9928 14.5493 22.0215 14.0532 22.0382C13.0349 22.0726 11.1043 22.0611 10.1479 22.0587C9.18908 22.0564 9.16391 22.0625 8.04346 22.0793C6.92584 22.096 4.79231 22.1225 3.7251 22.1359C2.78279 22.1477 2.65769 22.1484 2.63428 22.1486H2.63232C2.63122 22.1486 2.63007 22.1493 2.62939 22.1496C2.57841 22.1496 2.52793 22.1442 2.479 22.1369C2.44973 22.1324 2.42056 22.1262 2.39209 22.1193C2.34869 22.1087 2.30611 22.0953 2.26514 22.0793C2.25943 22.077 2.25322 22.0747 2.24756 22.0724C2.23177 22.0659 2.21604 22.0583 2.20068 22.0509C2.18608 22.044 2.17097 22.0371 2.15674 22.0294C2.11287 22.0058 2.07136 21.9781 2.03174 21.9484C1.99498 21.9209 1.95896 21.8918 1.92627 21.8595C1.91867 21.852 1.9121 21.8429 1.90479 21.8351C1.84638 21.7735 1.79388 21.7055 1.75244 21.63C1.72309 21.5766 1.6985 21.5199 1.6792 21.4611C1.65785 21.3958 1.64289 21.3271 1.63525 21.256C1.63451 21.249 1.63485 21.2416 1.63428 21.2345C1.59621 20.8642 1.58413 20.3544 1.5874 20.1847C1.59081 20.0095 1.59866 19.9395 1.60596 19.8712L1.60791 19.8498L1.61084 19.8283C1.63332 19.6795 1.66282 19.535 1.68604 19.4191C1.71103 19.2943 1.72916 19.2025 1.7417 19.1193C1.76984 18.9324 1.85402 18.3814 2.12256 17.6037C2.33063 17.0011 2.52701 16.4863 2.70459 16.1623C2.73049 16.115 2.75257 16.0721 2.78662 16.005C2.81905 15.9411 2.8601 15.8615 2.91162 15.7707C2.91779 15.7594 3.07568 15.4372 3.24268 15.2043C3.4486 14.917 3.73503 14.6277 4.15967 14.3625C4.70549 14.0215 5.21778 13.7258 5.75049 13.6408C6.18237 13.5719 6.5835 13.4946 7.20068 13.4767C7.69929 13.4623 8.62446 13.4459 9.21143 13.4513ZM9.19287 15.4513C8.64221 15.4462 7.74516 15.4626 7.2583 15.4767C6.79637 15.4901 6.53289 15.5407 6.06494 15.6154C5.99138 15.6272 5.80732 15.6914 5.21924 16.0587C5.01836 16.1843 4.9238 16.2924 4.86865 16.3693C4.83757 16.4127 4.8097 16.4594 4.77783 16.5187C4.76063 16.5507 4.74554 16.58 4.72412 16.6212C4.70487 16.6583 4.67922 16.708 4.65088 16.758C4.62345 16.8063 4.59945 16.8519 4.56982 16.9103C4.54184 16.9655 4.50325 17.0425 4.4585 17.1242C4.37329 17.2798 4.22557 17.641 4.01318 18.256C3.7994 18.8751 3.73761 19.2951 3.71924 19.4171C3.69815 19.5571 3.66962 19.6986 3.64697 19.8117C3.62436 19.9245 3.60619 20.0177 3.59229 20.1056C3.59127 20.1151 3.59078 20.1176 3.59033 20.1242C3.59012 20.1272 3.58963 20.1315 3.58936 20.1369C3.62465 20.1364 3.6618 20.1364 3.69971 20.1359C4.7681 20.1225 6.8996 20.0959 8.01416 20.0793C9.12519 20.0626 9.17206 20.0564 10.1528 20.0587C11.1368 20.0611 13.0144 20.072 13.9858 20.0392C14.0305 20.0377 14.073 20.0331 14.1128 20.0314C14.111 19.9581 14.1089 19.8734 14.103 19.7775C14.0867 19.5111 14.0498 19.1645 14.0034 18.8859C13.9597 18.6232 13.9091 18.4337 13.8472 18.2492C13.738 17.9239 13.5423 17.5908 13.3198 17.2892C13.2414 17.1829 13.0755 17.0258 12.6411 16.672C12.2598 16.3614 11.9891 16.2055 11.729 16.0822C11.5227 15.9844 11.1167 15.8275 10.77 15.7072C10.4605 15.5998 10.2479 15.5487 10.0513 15.5119C9.88298 15.4803 9.72424 15.4563 9.19287 15.4513ZM20.5532 7.95328C20.951 7.57024 21.5842 7.58196 21.9673 7.97964C22.3496 8.37725 22.3379 9.00973 21.9409 9.39273C21.816 9.51306 21.6879 9.63673 20.9741 10.3742C20.8386 10.5142 20.683 10.6768 20.5142 10.8517C20.8351 11.0695 21.1142 11.2512 21.3198 11.3869L21.3452 11.4044L21.3696 11.422C21.6378 11.6234 21.8441 11.7893 22.0161 11.9298C22.1923 12.0738 22.3089 12.1718 22.4312 12.2668C22.4551 12.2851 22.4731 12.2982 22.4858 12.3078C22.4954 12.3149 22.5008 12.3195 22.5034 12.3214C22.9604 12.5962 23.1238 13.1841 22.8657 13.6564C22.6008 14.1407 21.9928 14.3195 21.5083 14.0548C21.3965 13.9937 21.3122 13.9287 21.2144 13.8537L21.2104 13.8507C21.0596 13.7338 20.9034 13.6036 20.7505 13.4787C20.5946 13.3513 20.4156 13.2076 20.1841 13.0334C19.9413 12.8738 19.5518 12.6217 19.1079 12.3127C18.8014 12.6316 18.5172 12.9255 18.2974 13.1554L18.2983 13.1564C17.5194 13.9888 17.4719 14.0546 17.4585 14.0724L17.4536 14.0793L17.4478 14.0871C17.4073 14.1391 17.3627 14.1918 17.3306 14.2306C16.9783 14.6555 16.3485 14.7143 15.9233 14.3625C15.4981 14.0101 15.4391 13.3795 15.7915 12.9543C15.8282 12.91 15.8515 12.8818 15.8696 12.8586C15.9644 12.7342 16.117 12.56 16.8374 11.7902L16.8452 11.7824C17.0262 11.5931 17.2512 11.3595 17.4966 11.1037C17.3201 10.9656 17.1644 10.8418 17.0278 10.7404C16.7032 10.4995 16.4832 10.3392 16.3423 10.2375C16.2721 10.1868 16.2208 10.1507 16.1851 10.1252C16.1655 10.1112 16.1167 10.0767 16.0874 10.0539C15.6526 9.71372 15.5758 9.08452 15.9155 8.64957C16.2558 8.21466 16.8849 8.13758 17.3198 8.47769C17.3261 8.48221 17.3357 8.48831 17.3481 8.49722C17.3849 8.52349 17.439 8.56282 17.5132 8.61636C17.6617 8.72358 17.889 8.88912 18.2202 9.13492C18.419 9.28243 18.6528 9.46661 18.8911 9.65347C19.1311 9.40441 19.3523 9.17303 19.5366 8.98257C20.2559 8.2395 20.4034 8.09764 20.5532 7.95328ZM7.61572 2.40054C7.95233 2.36152 8.32741 2.388 8.61084 2.42105C8.85762 2.44983 9.09744 2.49477 9.27393 2.53531C9.28704 2.5375 9.29987 2.54136 9.31299 2.5441C9.33045 2.54833 9.34788 2.5497 9.36377 2.55386C9.36579 2.55439 9.36761 2.55624 9.36963 2.55679C9.37243 2.55755 9.37561 2.557 9.37842 2.55777C9.76591 2.6658 10.4038 2.85504 10.6606 2.93765L10.6743 2.94156L10.687 2.94644C10.9976 3.05587 11.2393 3.15866 11.4722 3.30093L11.7046 3.45816L11.7241 3.47183L11.7427 3.48746C11.9055 3.62078 12.0751 3.76087 12.2163 3.89078C12.3076 3.97482 12.4391 4.10054 12.5532 4.25601L12.6597 4.42105L12.7788 4.64468C12.9072 4.89815 13.0537 5.23698 13.146 5.64175C13.2558 6.12361 13.3599 6.80867 13.2222 7.53336C13.1329 8.00279 13.0347 8.39261 12.7593 8.87222C12.6202 9.11448 12.3334 9.6222 12.1167 9.92691C11.7891 10.3876 11.4151 10.7426 10.7905 11.1271C10.456 11.333 10.0442 11.552 9.78174 11.6818C9.50751 11.8174 9.33211 11.8929 9.06592 11.9572C8.69603 12.0466 8.23949 12.151 7.78857 12.1349C7.33496 12.1187 6.76808 12.0721 6.32373 11.9269C6.08767 11.8497 5.67743 11.7049 5.20654 11.3908C4.95994 11.2263 4.6529 11.022 4.43311 10.7589C4.22787 10.5133 3.89245 10.0124 3.55029 9.3273C3.38275 8.99181 3.26559 8.69922 3.17822 8.42105C3.09738 8.16361 3.00782 7.85647 3.00439 7.40445C3.00166 7.04366 3.00444 6.74159 3.01221 6.51187C3.01607 6.39779 3.02146 6.29291 3.02881 6.20425C3.0337 6.14521 3.04562 6.0046 3.08447 5.87125C3.14013 5.68013 3.30419 4.94168 3.80127 4.30582C3.99718 4.05523 4.29307 3.70953 4.70361 3.42203C5.02529 3.19683 5.48996 2.91026 6.26221 2.69254C6.65801 2.58097 7.21822 2.44665 7.61572 2.40054ZM7.84619 4.38687C7.60864 4.41443 7.17025 4.51444 6.80518 4.61734C6.30427 4.75853 6.04284 4.92645 5.85107 5.0607C5.67734 5.18237 5.5234 5.34931 5.37646 5.53726C5.18178 5.7863 5.10807 6.06737 5.02197 6.36832V6.37027C5.01836 6.41397 5.0145 6.48256 5.01123 6.57925C5.00472 6.77176 5.00178 7.04479 5.00439 7.3898C5.0051 7.47908 5.01342 7.54119 5.02393 7.5939C5.03568 7.65282 5.05286 7.71456 5.08643 7.82144C5.13906 7.98904 5.21446 8.18364 5.33936 8.43375C5.63456 9.02487 5.88948 9.38347 5.96729 9.47672C5.9572 9.4647 5.96579 9.47882 6.02783 9.52652C6.09091 9.57501 6.17948 9.63568 6.31592 9.72672C6.57073 9.89672 6.78731 9.97403 6.94482 10.0255C7.10288 10.0772 7.42787 10.1205 7.85986 10.1359C7.9997 10.1409 8.20431 10.1075 8.59619 10.0128C8.64346 10.0014 8.6643 9.99423 8.68896 9.98453C8.724 9.97075 8.77893 9.94624 8.89502 9.88882C9.11984 9.77763 9.47509 9.5887 9.74268 9.42398C10.1654 9.16374 10.3318 8.98577 10.4868 8.76773C10.6319 8.56377 10.8564 8.16958 11.0249 7.87613C11.1414 7.67333 11.1868 7.5312 11.2573 7.16031C11.3207 6.82695 11.2803 6.45261 11.1968 6.08609C11.1409 5.84101 11.0387 5.62853 10.9312 5.43082C10.9172 5.41615 10.8953 5.39327 10.8618 5.36246C10.7739 5.28154 10.6551 5.18318 10.4937 5.05093C10.4075 4.98898 10.3129 4.93473 10.0376 4.83707C9.8076 4.76358 9.21842 4.59005 8.85107 4.48746C8.78259 4.47007 8.6005 4.43317 8.37939 4.40738C8.14454 4.37999 7.95136 4.37471 7.84619 4.38687Z" fill="black"/>
</svg>
