<svg width="24" height="24" viewBox="0 0 24 24" fill="none" xmlns="http://www.w3.org/2000/svg">
<path d="M16.415 18.8856C16.9628 18.8154 17.464 19.203 17.5342 19.7508C17.6042 20.2984 17.2174 20.7996 16.6699 20.8699C16.6282 20.8753 16.5926 20.8793 16.5615 20.8836C16.5325 20.8876 16.4995 20.8924 16.4697 20.8963C16.4005 20.9053 16.3329 20.913 16.2441 20.9188C16.0795 20.9294 15.8432 20.9342 14.7168 20.9393C13.5782 20.9444 11.5351 20.9575 10.4814 20.9481C9.34252 20.9378 9.22243 20.9295 9.1377 20.9295C8.58566 20.9293 8.13783 20.4816 8.1377 19.9295C8.13775 19.3774 8.58561 18.9297 9.1377 18.9295C9.21407 18.9295 9.4372 18.9385 10.5 18.9481C11.5358 18.9574 13.556 18.9445 14.707 18.9393C15.865 18.934 16.0261 18.9284 16.1152 18.9227C16.1529 18.9202 16.1762 18.9183 16.21 18.9139C16.2315 18.9111 16.2542 18.9071 16.29 18.9022C16.324 18.8975 16.3652 18.8919 16.415 18.8856ZM15.2529 14.8514C15.8026 14.7999 16.291 15.2031 16.3428 15.7527C16.3945 16.3024 15.99 16.7896 15.4404 16.8416C15.3846 16.8469 15.3051 16.8555 15.2051 16.8592H15.1846C15.0447 16.8616 14.8624 16.8712 13.2324 16.8904H13.2275C11.6675 16.9006 8.76106 16.9032 7.27344 16.9217C5.75158 16.9406 5.51697 16.95 5.2168 16.95C4.66461 16.95 4.21695 16.5022 4.2168 15.95C4.2168 15.3977 4.66451 14.95 5.2168 14.95C5.50411 14.95 5.68377 14.9411 7.24805 14.9217C8.73823 14.9032 11.6736 14.9014 13.209 14.8914V14.8904C14.8042 14.8716 14.9831 14.8631 15.1416 14.8602C15.1743 14.8587 15.2031 14.8561 15.2529 14.8514ZM20.3633 14.8094C20.9137 14.7642 21.3971 15.1741 21.4424 15.7244C21.4874 16.2747 21.0776 16.7583 20.5273 16.8035C20.2975 16.8224 20.2117 16.828 19.8877 16.8358C19.5808 16.8431 19.0457 16.8528 18.6826 16.8524C18.3072 16.8519 18.1156 16.8411 17.9336 16.8309C17.3826 16.7996 16.9614 16.3273 16.9922 15.7762C17.0232 15.2248 17.4955 14.8028 18.0469 14.8338C18.2074 14.8428 18.3596 14.852 18.6855 14.8524C19.0242 14.8528 19.5395 14.8439 19.8398 14.8367C20.1228 14.83 20.17 14.8253 20.3633 14.8094ZM21.2754 10.5369C21.8136 10.4135 22.35 10.7498 22.4736 11.2879C22.5971 11.8262 22.261 12.3627 21.7227 12.4861C21.5526 12.5251 21.4051 12.5331 21.2334 12.5438H21.2305C20.7366 12.5733 20.3447 12.6009 20.1182 12.617L20.083 12.619C19.7353 12.6314 19.4685 12.6502 17.5879 12.6707C15.773 12.6905 12.3057 12.7221 10.5527 12.7342C9.67769 12.7402 9.22454 12.7412 8.98535 12.7401C8.79189 12.7391 8.66241 12.7395 8.53027 12.7137C7.98843 12.6077 7.6345 12.0828 7.74023 11.5408C7.84027 11.0283 8.31549 10.6856 8.8252 10.7391C8.84715 10.7397 8.89601 10.7396 8.99512 10.7401C9.22089 10.7412 9.66303 10.7403 10.5391 10.7342C12.289 10.7221 15.7529 10.6905 17.5654 10.6707C19.4024 10.6507 19.6669 10.633 20 10.6209C20.234 10.6043 20.6233 10.5777 21.1094 10.5486V10.5477C21.2075 10.5416 21.2512 10.5386 21.2773 10.536C21.2807 10.5356 21.2836 10.5352 21.2852 10.535C21.2835 10.5352 21.2812 10.5356 21.2793 10.536C21.2774 10.5363 21.2754 10.5369 21.2754 10.5369ZM8.91309 10.7508C8.9102 10.7503 8.90048 10.7487 8.88965 10.7469C8.87397 10.7443 8.85889 10.7425 8.8457 10.741H8.84375C8.86663 10.7439 8.89011 10.7463 8.91309 10.7508ZM5.5459 6.62482C6.09818 6.62482 6.5459 7.07253 6.5459 7.62482C6.54567 8.17691 6.09804 8.62482 5.5459 8.62482H3.04199C2.48985 8.62482 2.04222 8.17691 2.04199 7.62482C2.04199 7.07253 2.48971 6.62482 3.04199 6.62482H5.5459ZM7.67871 7.0965C7.83356 6.62927 8.29979 6.35429 8.77051 6.42267C8.77954 6.42309 8.79276 6.42303 8.81055 6.42365C8.92144 6.42753 9.14686 6.43273 9.60742 6.4383C10.5245 6.44938 12.3372 6.46292 13.4551 6.46564C14.5671 6.46834 14.9308 6.45917 15.3047 6.45001C15.8566 6.43672 16.3146 6.87362 16.3281 7.4256C16.3414 7.97746 15.9054 8.43636 15.3535 8.45001C14.9618 8.4596 14.5802 8.46839 13.4502 8.46564C12.3256 8.4629 10.5071 8.44847 9.58398 8.43732C9.12488 8.43177 8.87714 8.42747 8.74023 8.42267C8.65165 8.41958 8.48698 8.41765 8.31348 8.36017C7.78948 8.18644 7.50534 7.62055 7.67871 7.0965ZM8.94238 6.46173C8.93953 6.46079 8.92581 6.4565 8.91016 6.45197C8.90006 6.44906 8.8893 6.44775 8.87891 6.44513C8.8999 6.45061 8.92149 6.45482 8.94238 6.46173ZM8.5166 3.0838L9.82324 3.10626L9.83301 3.10724C10.5688 3.12933 11.1325 3.13745 11.9082 3.13361C12.0457 3.13168 12.1126 3.12881 12.1455 3.12677C12.1525 3.12634 12.1574 3.12602 12.1602 3.1258H12.1641L12.165 3.12482C12.1671 3.12459 12.1703 3.12492 12.1777 3.12384C12.7242 3.04478 13.2313 3.42314 13.3105 3.96955C13.3896 4.51581 13.011 5.02288 12.4648 5.10236C12.3456 5.11964 12.2406 5.12935 11.9355 5.13361H11.9258C11.121 5.13767 10.5324 5.12908 9.77246 5.10626V5.10529C9.0929 5.09106 7.85559 5.07218 7.22656 5.07013C7.07043 5.06963 6.95507 5.07085 6.87012 5.07208C6.81324 5.07292 6.77261 5.07396 6.74512 5.07501C6.31985 5.16753 5.86733 4.97362 5.65137 4.57111C5.39058 4.08448 5.57407 3.4786 6.06055 3.21759L6.17871 3.16193C6.22807 3.14253 6.28802 3.12387 6.35742 3.10919C6.44806 3.09007 6.53394 3.08341 6.59277 3.0799C6.71857 3.0724 6.91469 3.0691 7.2334 3.07013C7.55812 3.07119 8.03551 3.07677 8.5166 3.0838Z" fill="black"/>
</svg>
