<svg width="24" height="24" viewBox="0 0 24 24" fill="none" xmlns="http://www.w3.org/2000/svg">
<path d="M11.9424 2.69724C12.2864 2.71566 12.8281 2.64578 13.6318 2.95115C14.2773 3.19645 15.1271 3.5755 15.5947 3.89646C15.9848 4.16424 16.3142 4.39942 16.5713 4.61423C16.8209 4.8228 17.0734 5.06882 17.2441 5.374C17.2778 5.43411 17.3441 5.53604 17.4785 5.75095C17.5979 5.94181 17.7463 6.18396 17.8896 6.4492C18.1382 6.90922 18.4689 7.60752 18.4951 8.29685C18.5726 8.93048 18.7039 9.73602 18.7607 10.3105C18.8223 10.9323 18.8467 11.6423 18.6191 12.2812C18.359 13.0114 17.8741 14.3782 17.5508 15.1904C17.4447 15.4568 17.3502 15.6853 17.2666 15.8828C17.2747 15.8881 17.2826 15.894 17.291 15.8994C17.725 16.1805 18.5816 16.7162 19.208 17.1592C19.8491 17.6125 20.2595 17.9785 20.5879 18.2461C20.9295 18.5244 21.2478 18.754 21.7119 19.1054C22.1522 19.4388 22.2387 20.0665 21.9053 20.5068C21.5719 20.9469 20.9451 21.0334 20.5049 20.7002C20.0806 20.379 19.7036 20.1051 19.3252 19.7969C18.9335 19.4777 18.6198 19.193 18.0527 18.792C17.4709 18.3805 16.6841 17.889 16.2041 17.5781C16.1971 17.5736 16.1904 17.5689 16.1836 17.5644C16.1562 17.5908 16.1303 17.6192 16.1016 17.6445C15.8209 17.8921 15.4478 18.1287 14.8799 18.4101C14.3539 18.6707 13.7586 18.891 12.9766 19.0127C12.3058 19.117 11.7634 19.215 11.4951 19.25C11.0562 19.3072 10.3259 19.3219 9.6084 19.2969C9.2233 19.2834 8.84543 19.2174 8.42773 19.1357C8.1064 19.0729 7.57245 19.0036 7.04688 18.8418C6.63803 18.7159 5.97421 18.4906 5.39355 18.1601C5.3333 18.1258 5.25825 18.0859 5.1582 18.0332C5.06326 17.9831 4.94928 17.9233 4.83398 17.8594C4.61201 17.7362 4.32843 17.5672 4.08496 17.3584C3.91565 17.2131 3.65506 16.956 3.41016 16.6836C3.17709 16.4243 2.8831 16.0691 2.70605 15.7344C2.5339 15.4086 2.33182 14.9533 2.21973 14.4892C2.21304 14.4615 2.1281 14.1798 2.08398 13.9121C2.03385 13.6076 2.00438 13.2123 2.00586 12.6133C2.00733 12.0244 2.02668 11.1189 2.05762 10.5742C2.07194 10.3222 2.07516 9.97439 2.1123 9.66502C2.15546 9.30584 2.24362 8.93004 2.41992 8.41599C2.64794 7.75125 2.84813 7.28277 2.95996 7.04783C3.0419 6.87571 3.25431 6.46133 3.5752 5.95506C3.74774 5.68283 4.00674 5.30372 4.56055 4.83884C5.00853 4.4628 5.60419 3.95667 6.24902 3.74216C6.94657 3.51011 7.24876 3.38869 7.9707 3.22361C8.46218 3.11123 9.38825 2.91053 10.1533 2.80466C10.9174 2.69898 11.5166 2.6744 11.9424 2.69724ZM11.835 4.69431C11.569 4.68007 11.1024 4.69182 10.4277 4.78513C9.75397 4.87834 8.89843 5.06252 8.41602 5.17283C7.81404 5.31048 7.63314 5.38905 6.87988 5.63963C6.6698 5.70951 6.37836 5.92395 5.8457 6.37107C5.49624 6.66446 5.36459 6.86615 5.26367 7.02537C4.98992 7.45729 4.81643 7.8005 4.76562 7.9072C4.69084 8.06431 4.51859 8.46168 4.31152 9.06541C4.16793 9.4841 4.11985 9.71872 4.09766 9.9033C4.06952 10.1376 4.07746 10.2697 4.05371 10.6875C4.0256 11.1823 4.00728 12.0485 4.00586 12.6181C4.00453 13.1559 4.032 13.4312 4.05762 13.5869C4.08925 13.7789 4.09871 13.7488 4.16406 14.0195C4.22403 14.2678 4.34896 14.562 4.47461 14.7998C4.52937 14.903 4.68008 15.1048 4.89746 15.3467C5.10346 15.5758 5.30131 15.7665 5.38672 15.8398C5.4709 15.912 5.60973 16.0022 5.80469 16.1103C5.89777 16.162 5.9922 16.2117 6.09082 16.2636C6.18417 16.3128 6.28916 16.3685 6.38281 16.4219C6.76871 16.6414 7.26318 16.8162 7.63477 16.9306C8.02755 17.0516 8.30525 17.0738 8.81152 17.1728C9.22281 17.2533 9.46551 17.2914 9.67871 17.2988C10.3592 17.3226 10.9604 17.3026 11.2363 17.2666C11.4849 17.2342 11.8947 17.1566 12.6689 17.0361C13.2214 16.9501 13.6221 16.8015 13.9922 16.6181C14.4834 16.3748 14.6829 16.2287 14.7783 16.1445C14.9002 16.037 14.8718 16.0375 15.0996 15.7734C15.1025 15.77 15.1462 15.7176 15.2471 15.5068C15.3494 15.2928 15.4876 14.9681 15.6934 14.4511C15.9996 13.6819 16.4676 12.3582 16.7344 11.6094C16.8037 11.4147 16.8278 11.0852 16.7705 10.5068C16.7094 9.89037 16.6075 9.34925 16.5059 8.50584L16.498 8.44431V8.38377C16.4984 8.21696 16.3847 7.87107 16.1299 7.39939C16.0162 7.189 15.8938 6.98839 15.7832 6.8115C15.688 6.65929 15.5634 6.46734 15.498 6.35056C15.4901 6.34003 15.4426 6.27671 15.2891 6.14841C15.11 5.99882 14.8481 5.80929 14.4629 5.5449C14.204 5.36735 13.545 5.0581 12.9219 4.82127C12.5037 4.66233 12.4949 4.72971 11.835 4.69431ZM13.2354 9.43552C13.7875 9.43572 14.2354 9.88336 14.2354 10.4355C14.2353 10.9877 13.7875 11.4353 13.2354 11.4355C12.7426 11.4355 12.2909 11.436 11.5908 11.4941C11.233 11.5238 10.8157 11.5678 10.3877 11.6133C9.96594 11.658 9.53092 11.7043 9.15918 11.7353L9.12793 11.7373C7.95094 11.7978 7.48154 11.7988 7.4541 11.7988C6.90204 11.7986 6.45424 11.3509 6.4541 10.7988C6.4541 10.2466 6.90195 9.79897 7.4541 9.79881H7.46973C7.48229 9.79871 7.50314 9.79826 7.53125 9.79783C7.58772 9.79697 7.67669 9.79558 7.80176 9.79197C8.04943 9.78481 8.43964 9.77007 9.00391 9.74119C9.34635 9.71237 9.75247 9.66904 10.1768 9.624C10.5991 9.57917 11.0399 9.53293 11.4248 9.50095C12.2103 9.43571 12.7293 9.43552 13.2354 9.43552Z" fill="black"/>
</svg>
