<svg width="24" height="24" viewBox="0 0 24 24" fill="none" xmlns="http://www.w3.org/2000/svg">
<path d="M11.0928 1C11.2054 1.00003 11.3131 1.02034 11.4141 1.05469C11.496 1.0508 11.5835 1.04559 11.6777 1.04395C12.1846 1.03511 12.8882 1.06147 13.5752 1.16016C14.2906 1.26294 14.9424 1.43623 15.9951 1.82227C17.0137 2.1958 18.4595 2.76175 19.2666 3.1377C20.2252 3.58423 20.7884 3.91748 21.3232 4.42383C21.6356 4.7196 21.9381 5.05436 22.1435 5.57812C22.326 6.04317 22.511 6.55474 22.6172 7.2666C22.6828 7.70688 22.7638 8.3735 22.8047 9.04004C22.8464 9.72099 22.8455 10.3727 22.7793 11.3213C22.7141 12.255 22.5881 13.4555 22.4941 14.1875C22.3989 14.9286 22.3374 15.2465 22.1875 15.6982C21.9194 16.5061 21.6176 17.386 21.2519 17.9814C20.9431 18.4843 20.4614 19.146 19.6611 19.8281C18.9382 20.4443 18.213 21.0266 17.6308 21.3203C17.1079 21.5841 16.5423 21.8848 16.125 22.04C15.4657 22.2852 15.0901 22.4511 14.707 22.543C14.3755 22.6224 13.977 22.816 12.6963 22.9336C12.158 22.983 11.4528 23.0055 10.957 22.999C10.4522 22.9924 10.1453 22.9601 9.93163 22.9248C9.52777 22.8581 8.86037 22.733 8.31346 22.5762C7.98514 22.482 7.58499 22.3544 7.20604 22.2031C6.85032 22.0611 6.42285 21.8637 6.10448 21.6074C5.67159 21.2587 5.29756 20.9302 4.99901 20.6631C4.68232 20.3797 4.4916 20.2035 4.36815 20.1045C4.08309 19.8759 3.52241 19.298 2.98339 18.7637C2.83438 18.6161 2.3751 18.2572 2.12206 17.7041C1.7139 16.8117 1.43755 15.9134 1.34862 15.5488C1.23927 15.1005 1.08411 14.3965 0.955065 13.5898C0.873532 13.0802 0.766896 12.1113 0.886706 11.1914C0.981052 10.4672 1.15005 9.74239 1.33202 9.23242C1.47708 8.82584 1.66108 8.2705 1.98241 7.57422C2.14877 7.2137 2.30793 6.78881 2.93651 5.8418C3.2487 5.37146 3.62073 4.79594 4.041 4.30664C4.28225 4.02577 4.54789 3.7125 4.81932 3.51758C5.05688 3.34704 5.65262 2.88482 6.41991 2.54688C6.59469 2.46991 6.81602 2.37988 7.03612 2.29004C7.26243 2.19767 7.49668 2.10098 7.71971 2.00488C7.72103 2.00428 7.736 1.99764 7.77049 1.97949C7.80524 1.96121 7.84764 1.9385 7.90233 1.9082C8.00712 1.85015 8.15013 1.76988 8.3076 1.68848C8.62018 1.5269 9.04329 1.33181 9.51659 1.22168C10.3157 1.03575 10.8307 1 11.0928 1ZM11.7129 3.04395C11.312 3.05094 11.1039 3.08372 10.7695 3.12695C10.6231 3.14588 10.4801 3.13158 10.3476 3.09082C10.2348 3.11204 10.1087 3.1366 9.96971 3.16895C9.73288 3.22405 9.48005 3.3333 9.22557 3.46484C9.0997 3.52991 8.98631 3.59339 8.87108 3.65723C8.77403 3.71099 8.63561 3.78836 8.51171 3.8418C8.26806 3.94678 8.01545 4.05039 7.79198 4.1416C7.56246 4.23528 7.37061 4.31352 7.22655 4.37695C6.69176 4.61246 6.28242 4.93001 5.98632 5.14258C5.98524 5.14348 5.95302 5.16815 5.87401 5.25195C5.79419 5.33662 5.69511 5.45026 5.5576 5.61035C5.23675 5.98397 4.94138 6.43677 4.60253 6.94727C4.06892 7.75117 3.96645 8.04674 3.79784 8.41211C3.5227 9.0083 3.37182 9.4653 3.21483 9.90527C3.09051 10.2539 2.95023 10.835 2.8701 11.4502C2.78649 12.0922 2.86056 12.8423 2.92967 13.2744C3.04862 14.0179 3.19174 14.6682 3.291 15.0752C3.35163 15.3238 3.58784 16.1012 3.94042 16.8721C3.95802 16.9106 3.97985 16.9431 4.0371 17.0029C4.07119 17.0385 4.11212 17.0771 4.17479 17.1357C4.23275 17.1899 4.31039 17.2633 4.39159 17.3438C5.02588 17.9725 5.44329 18.4028 5.61913 18.5439C5.79856 18.6879 6.06338 18.9316 6.33299 19.1729C6.62089 19.4304 6.96473 19.7327 7.35839 20.0498C7.43248 20.1095 7.62626 20.2175 7.94725 20.3457C8.24503 20.4646 8.57799 20.5719 8.86522 20.6543C9.29941 20.7788 9.87588 20.8881 10.2578 20.9512C10.3524 20.9668 10.5563 20.9934 10.9834 20.999C11.4198 21.0047 12.0544 20.9846 12.5137 20.9424C13.6039 20.8423 13.6887 20.7308 14.2402 20.5986C14.4671 20.5443 14.5953 20.4746 15.4277 20.165C15.7076 20.0609 16.1134 19.8454 16.7305 19.5342C17.0636 19.366 17.612 18.9478 18.3642 18.3066C18.9706 17.7898 19.3226 17.3014 19.5478 16.9346C19.7683 16.5754 20.0009 15.9365 20.289 15.0684C20.38 14.7943 20.4222 14.6219 20.5107 13.9326C20.6005 13.234 20.722 12.0728 20.7842 11.1826C20.8452 10.3076 20.8442 9.74369 20.8086 9.16211C20.772 8.56603 20.6979 7.95876 20.6387 7.56152C20.565 7.0674 20.4425 6.71734 20.2822 6.30859C20.2304 6.17653 20.1643 6.08053 19.9482 5.87598C19.6442 5.5881 19.3076 5.36275 18.4219 4.9502C17.6947 4.61148 16.3145 4.06981 15.3066 3.7002C14.3328 3.34309 13.8228 3.21605 13.291 3.13965C12.731 3.05919 12.1367 3.03657 11.7129 3.04395ZM15.5 7.2793C15.9956 7.03571 16.5952 7.23984 16.8389 7.73535C17.0824 8.23089 16.8782 8.8305 16.3828 9.07422C16.319 9.10556 16.2439 9.12963 16.1943 9.14648C16.1632 9.2131 16.141 9.26209 16.1094 9.33203C15.9925 9.59616 15.9029 9.82833 15.6191 10.8281L15.6162 10.8389L14.6572 10.5547L15.6152 10.8389C15.3679 11.6754 14.8962 13.2464 14.6514 14.0596C14.5327 14.4536 14.464 14.6889 14.4248 14.8154C14.4066 14.874 14.3825 14.9509 14.3535 15.0215C14.3145 15.1165 14.2518 15.2396 14.1406 15.3613C13.9587 15.5604 13.751 15.6676 13.5146 15.7598C13.2938 15.8459 12.9545 15.9532 12.4121 16.1064C11.407 16.3905 9.53477 16.9055 8.57421 17.166C8.3581 17.2246 8.11159 17.2933 7.9121 17.3242C7.81399 17.3394 7.64577 17.3596 7.45897 17.333C7.25827 17.3044 6.92138 17.2011 6.68944 16.8633C6.47714 16.554 6.48593 16.2347 6.50194 16.084C6.51921 15.9218 6.56423 15.7767 6.5996 15.6768C6.67131 15.474 6.78732 15.2257 6.90819 14.9697C7.41812 13.89 8.44854 11.8005 8.97948 10.7324C9.23948 10.2094 9.38621 9.91029 9.46874 9.74902C9.50615 9.67591 9.55291 9.58448 9.60448 9.50586C9.67648 9.39614 9.79306 9.25293 9.98534 9.14258L10.1601 9.05371C10.3422 8.97187 10.5432 8.9085 10.7334 8.84863C11.0263 8.75645 11.4059 8.6422 11.9834 8.4541C12.77 8.19787 14.18 7.72071 14.8935 7.47852C15.2489 7.35789 15.4269 7.29745 15.5166 7.2666C15.5627 7.25074 15.5814 7.24416 15.5869 7.24219C15.5896 7.24122 15.58 7.24457 15.5664 7.25C15.5578 7.25343 15.5453 7.25885 15.5303 7.26562C15.5225 7.2691 15.5148 7.2725 15.5088 7.27539C15.5042 7.27758 15.5002 7.2792 15.5 7.2793ZM12.6025 10.3564C12.0143 10.548 11.5994 10.6733 11.334 10.7568C11.2697 10.7771 11.2173 10.7961 11.1738 10.8105C11.092 10.9747 10.9681 11.2255 10.7705 11.623C10.3636 12.4416 9.66912 13.8472 9.14159 14.9365C10.0736 14.6807 11.1789 14.3764 11.8682 14.1816C12.2106 14.0849 12.4387 14.0121 12.5918 13.9619C12.6268 13.8444 12.6738 13.6899 12.7363 13.4824C12.9805 12.6714 13.4479 11.1156 13.6943 10.2822L13.7871 9.96094C13.3493 10.1077 12.9255 10.2512 12.6025 10.3564Z" fill="black"/>
</svg>
