<svg width="24" height="24" viewBox="0 0 24 24" fill="none" xmlns="http://www.w3.org/2000/svg">
<path d="M10.9394 0.0358028C12.1392 -0.0191388 13.8338 -0.00694081 14.8701 0.0514278C15.9354 0.111442 16.3915 0.222237 16.8603 0.417639C17.2162 0.566 17.6189 0.758683 17.9755 1.01822C18.5274 1.41986 19.0358 1.84185 19.5537 2.60416C19.8691 3.06854 20.3318 3.80229 20.6796 4.47916C21.0336 5.16804 21.2665 5.78877 21.4111 6.40397C21.5566 7.02316 21.6063 7.59921 21.5908 8.25553C21.5755 8.9004 21.4993 9.62096 21.3447 10.3825C21.1899 11.1447 20.9641 11.9201 20.6533 12.7624C20.3537 13.574 19.9839 14.4832 19.6777 15.0768C19.2743 15.8588 19.0773 16.2279 18.8642 16.6012C18.6987 16.8912 18.4526 17.2962 17.7929 18.1725C17.1429 19.0359 16.1019 20.3452 15.3574 21.2096C14.6005 22.0883 14.1555 22.503 13.8789 22.7546C13.616 22.9936 13.5188 23.0733 13.4208 23.153C13.3815 23.1849 13.3391 23.212 13.2968 23.237C13.0095 23.5319 12.5582 23.631 12.163 23.4489C12.0175 23.3817 12.0199 23.382 11.9921 23.3698V23.3688C11.7407 23.2593 11.5115 23.1062 11.3193 22.9606V22.9596C11.2622 22.9173 11.2095 22.8741 11.1777 22.8483C11.1377 22.8159 11.105 22.7903 11.0673 22.7624C10.9969 22.7101 10.8869 22.6355 10.6943 22.5329C10.3271 22.3374 10.0098 22.1746 9.76753 22.0514C9.54753 21.9396 9.34142 21.8361 9.24995 21.7838C9.20065 21.7557 9.14385 21.7274 9.04194 21.6755C8.94829 21.6277 8.82955 21.5673 8.69917 21.4919C8.36911 21.3009 7.81876 20.9445 7.21381 20.3756C6.88218 20.0638 6.62273 19.7559 6.08881 19.0016C5.56019 18.2548 4.74816 17.0526 4.25776 16.2848C3.76044 15.5062 3.57331 15.1438 3.40717 14.7467C3.26676 14.4111 3.11891 14.0249 3.03217 13.6706C2.91369 13.1862 2.84528 12.9047 2.76948 12.4665C2.7061 12.1 2.59087 11.4022 2.53706 10.7057C2.48268 10.0015 2.49172 9.33206 2.54096 8.69987C2.59016 8.06856 2.67684 7.48993 2.78315 6.95182C2.89071 6.40741 3.01715 5.90594 3.23042 5.26725C3.43818 4.64511 3.72086 3.91449 3.88178 3.5192C4.05039 3.10504 4.10658 3.00801 4.16792 2.90104C4.36845 2.55132 4.76452 1.88842 5.80659 1.42643C6.31671 1.2003 7.27445 0.790401 8.10346 0.516272C8.98465 0.224907 9.6985 0.0926501 10.9394 0.0358028ZM14.7578 2.0485C13.7901 1.99399 12.1628 1.98197 11.0302 2.03385C9.93924 2.08385 9.41031 2.19024 8.73139 2.41471C7.99999 2.65656 7.11629 3.03329 6.61713 3.25455C6.35434 3.37105 6.20689 3.49248 6.11909 3.58463C6.02797 3.68032 5.97381 3.77143 5.90229 3.89615C5.88464 3.92694 5.88847 3.91976 5.88374 3.92838C5.88253 3.93059 5.8779 3.93924 5.86909 3.95768C5.84849 4.00083 5.809 4.08968 5.73432 4.27311C5.58325 4.64419 5.31668 5.3327 5.1269 5.90104C4.94265 6.45284 4.83851 6.87155 4.74604 7.33951C4.65233 7.81385 4.5763 8.31399 4.53413 8.85514C4.49205 9.39537 4.48555 9.96141 4.5312 10.5524C4.57748 11.1511 4.67911 11.7725 4.74018 12.1256C4.80309 12.4893 4.85618 12.711 4.97456 13.195C5.02303 13.393 5.12131 13.6631 5.2519 13.9753C5.35679 14.2259 5.47906 14.4808 5.94331 15.2077C6.41528 15.9466 7.20975 17.1232 7.72163 17.8463C8.22801 18.5617 8.39685 18.7427 8.58393 18.9186C9.05117 19.3579 9.46944 19.6264 9.70112 19.7604C9.78332 19.8079 9.86224 19.8494 9.95014 19.8942C10.0297 19.9347 10.1399 19.9897 10.2412 20.0475C10.2426 20.0483 10.253 20.0538 10.2763 20.0661C10.3001 20.0785 10.3313 20.0941 10.3701 20.1139C10.4498 20.1546 10.5487 20.2051 10.6748 20.2692C10.9222 20.395 11.2512 20.5635 11.6337 20.7672C12.1062 21.0188 12.3732 21.2422 12.4746 21.3258C12.4926 21.3095 12.5137 21.2937 12.5341 21.2751C12.7583 21.0712 13.1442 20.7137 13.8417 19.904C14.5519 19.0796 15.5657 17.8057 16.1953 16.9694C16.8142 16.1473 17.011 15.813 17.1269 15.61C17.3183 15.2747 17.5 14.9359 17.9003 14.1598C18.1485 13.6787 18.4836 12.863 18.7763 12.07C19.0577 11.3075 19.2534 10.6307 19.3847 9.98405C19.5161 9.33706 19.5783 8.73434 19.5908 8.20865C19.603 7.69454 19.5655 7.2908 19.4648 6.86197C19.3631 6.42917 19.1922 5.96136 18.9003 5.39322C18.6021 4.81284 18.1873 4.15208 17.8994 3.72819C17.5595 3.2279 17.2497 2.96353 16.7988 2.63541C16.6264 2.50996 16.3884 2.38743 16.0908 2.26334C15.9061 2.18636 15.6955 2.10133 14.7578 2.0485ZM11.29 5.93033C11.6639 5.90052 12.1373 5.91379 12.455 5.93619C12.8239 5.96223 13.0596 6.00614 13.416 6.11588C13.4519 6.12698 13.4888 6.14161 13.5273 6.15397C13.7086 6.10009 13.9069 6.09585 14.1015 6.15494C14.1765 6.17775 14.2488 6.20112 14.3183 6.22623L14.5214 6.30729L14.5371 6.31412L14.5527 6.32194C14.747 6.41502 14.931 6.53027 15.0986 6.66569L15.2607 6.80729L15.3085 6.85221L15.3496 6.90397C15.5706 7.17633 15.7071 7.45999 15.8437 7.99381C15.9395 8.36844 16.1002 9.04137 16.1835 9.52311C16.269 10.0173 16.2869 10.3429 16.2607 10.654C16.2278 11.0439 16.173 11.4778 15.9804 11.9381C15.8855 12.1651 15.7343 12.4759 15.5009 12.7721C15.2701 13.0651 14.9866 13.3117 14.704 13.4909C14.41 13.6774 14.1303 13.7845 13.871 13.8561C13.6094 13.9284 13.3593 13.9672 13.0566 13.9889C12.7691 14.0095 12.4231 14.0156 12.1201 14.0036C11.8092 13.9912 11.5447 13.9609 11.2988 13.9157C11.0437 13.8688 10.7957 13.8037 10.497 13.6735C10.2639 13.5718 9.92239 13.4083 9.64155 13.2008C9.2937 12.9438 8.8963 12.626 8.60542 12.1559C8.38154 11.7939 8.13265 11.351 8.03217 10.9176C7.96734 10.6376 7.85722 10.1555 7.88374 9.62076C7.89935 9.30707 7.92998 8.85371 8.15131 8.37565C8.30332 8.04743 8.51613 7.61842 8.81342 7.29459C9.01992 7.0697 9.3771 6.72694 9.85639 6.41764C10.1661 6.21778 10.5803 5.98697 11.29 5.93033ZM12.3144 7.93131C12.0487 7.91257 11.6848 7.90472 11.4492 7.9235C11.2934 7.93592 11.2033 7.96269 11.1484 7.98405C11.0905 8.00661 11.0375 8.03627 10.9414 8.0983C10.6377 8.29428 10.4071 8.51532 10.2861 8.64713C10.2212 8.71788 10.1184 8.88596 9.96577 9.21549C9.91759 9.31961 9.89573 9.44012 9.88178 9.72037C9.87045 9.95063 9.91697 10.1924 9.98042 10.4665C9.99972 10.5491 10.0853 10.7453 10.3066 11.1032C10.3843 11.2286 10.514 11.3589 10.83 11.5924C10.9258 11.6632 11.0999 11.755 11.2958 11.8405C11.4259 11.8972 11.5218 11.9234 11.6601 11.9489C11.8079 11.9761 11.9782 11.9967 12.1992 12.0055C12.4281 12.0146 12.6998 12.0091 12.913 11.9938C13.111 11.9796 13.228 11.958 13.3388 11.9274C13.4519 11.8961 13.5404 11.86 13.6328 11.8014C13.7368 11.7355 13.8476 11.6388 13.9296 11.5348C14.0089 11.4343 14.0782 11.3041 14.1357 11.1667C14.2056 10.9997 14.2397 10.8163 14.2675 10.486C14.2749 10.3982 14.2801 10.2528 14.2128 9.86393C14.1434 9.46246 13.9987 8.85172 13.9062 8.4899C13.9005 8.4677 13.8929 8.44676 13.8876 8.4274C13.8605 8.4131 13.8338 8.39662 13.8076 8.37955C13.7956 8.37376 13.7564 8.35562 13.665 8.31998C13.4606 8.24028 13.0861 8.10679 12.8271 8.02701C12.614 7.96139 12.5284 7.94641 12.3144 7.93131Z" fill="black"/>
</svg>
