<svg width="24" height="24" viewBox="0 0 24 24" fill="none" xmlns="http://www.w3.org/2000/svg">
<path d="M8.19539 1.00787C8.53711 1.03897 8.84172 1.159 9.05671 1.24908C9.36667 1.37895 9.55249 1.47342 9.88191 1.60064C10.4142 1.80623 11.1305 2.18314 11.9141 2.6397C12.7046 3.10026 13.6155 3.69898 14.251 4.09478C14.8681 4.47905 15.2874 4.7123 15.544 4.85748C15.9224 4.61157 16.5758 4.18385 17.0128 3.91412C17.2582 3.76262 17.4351 3.66117 17.587 3.57623C17.7407 3.49026 17.8442 3.43389 17.9747 3.35552C18.109 3.27482 18.2646 3.17505 18.4591 3.05181C18.6466 2.93298 18.86 2.79877 19.0831 2.669C19.5262 2.41116 19.9794 2.18802 20.2091 2.07232C20.5269 1.91219 20.9038 1.74466 21.3956 1.59283C21.5316 1.55084 21.7767 1.5001 22.0587 1.58501C22.3831 1.68276 22.5985 1.91063 22.71 2.14166C22.8053 2.33923 22.8185 2.52 22.8204 2.61041C22.8225 2.71127 22.8113 2.79519 22.8038 2.84283C22.7986 2.8756 22.7934 2.90383 22.7891 2.92584C22.7871 2.93619 22.7848 2.94721 22.7833 2.95513C22.7816 2.96365 22.7808 2.97124 22.7794 2.97857C22.7745 3.00424 22.7674 3.03933 22.7589 3.09966C22.7504 3.15958 22.717 3.32968 22.7569 5.74615C22.7962 8.12627 22.9052 12.6198 22.9591 14.96C22.9859 16.1237 22.9984 16.7287 23.0001 17.0567C23.0016 17.3696 22.997 17.5342 22.9415 17.7393C22.7323 18.5115 22.3893 19.041 22.1085 19.4102C21.8282 19.7787 21.4351 19.9679 20.9718 20.1954C20.731 20.3135 20.3823 20.471 20.0147 20.6407C19.6361 20.8154 19.2111 21.0153 18.7784 21.2344C17.9026 21.6781 17.0017 22.1874 16.504 22.4659C15.9375 22.7828 15.7456 22.8544 15.5128 22.9336C15.4979 22.9387 15.3818 22.9814 15.2344 22.9952C15.0739 23.0101 14.933 22.9887 14.8194 22.9581C14.6405 22.9098 14.4657 22.8189 14.3341 22.7481C14.0267 22.5828 13.4794 22.2581 13.0216 21.9786C12.5515 21.6915 12.2028 21.4684 11.5987 21.1241C10.9905 20.7773 10.1399 20.3185 9.65925 20.0655C9.19258 19.8198 8.87809 19.7324 8.39656 19.5977C8.38356 19.5941 8.37128 19.5893 8.35945 19.586C8.34115 19.5996 8.32156 19.6143 8.30085 19.6299C7.93352 19.9065 6.96817 20.6773 6.33992 21.1407C5.64287 21.6547 5.15447 21.951 4.67878 22.2042C4.2493 22.4327 3.90326 22.5976 3.64558 22.7081C3.51801 22.7627 3.40343 22.8085 3.30574 22.8419C3.25785 22.8582 3.20242 22.8754 3.14558 22.8897C3.12034 22.8961 2.98384 22.9327 2.82039 22.9268C2.36654 22.9103 2.10594 22.6207 2.02937 22.5274C1.93139 22.4079 1.87284 22.2882 1.84382 22.2237C1.76898 22.0571 1.74083 21.8901 1.72761 21.7999C1.71151 21.6899 1.70168 21.5704 1.69441 21.4532C1.67987 21.2189 1.67279 20.9208 1.66609 20.586C1.65846 20.2045 1.67078 19.836 1.71199 19.2686C1.75236 18.7128 1.82283 17.9898 1.85261 16.5176C1.88267 15.031 1.86867 12.8101 1.85164 11.6114C1.83468 10.4179 1.81636 10.3598 1.795 10.1876C1.76441 9.94101 1.73047 9.6242 1.66511 9.24126C1.59285 8.81795 1.52496 8.48289 1.47175 8.2315C1.42629 8.0167 1.37195 7.7776 1.35359 7.64556L1.35457 7.64459C1.30455 7.315 1.26536 7.04082 1.24617 6.87212L1.20808 6.62798C1.16356 6.56999 1.12377 6.50674 1.09187 6.43755C0.860856 5.93599 1.08058 5.34151 1.5821 5.11041C1.67465 5.06771 2.13256 4.83625 2.43464 4.62994C2.4406 4.6246 2.4501 4.61792 2.46296 4.6065C2.52449 4.55185 2.61176 4.47652 2.75789 4.36041C3.02951 4.14457 3.5491 3.7419 4.06843 3.39849C4.59058 3.05325 5.08808 2.78627 5.34285 2.64459C5.58454 2.51016 5.84341 2.30344 6.41218 1.84771C6.65912 1.64985 6.89738 1.46224 7.10652 1.32525C7.26698 1.22015 7.61876 0.996017 8.04695 1.00005L8.19539 1.00787ZM9.78718 3.75396C9.77315 4.11786 9.74544 4.76348 9.6739 6.18658C9.56147 8.42305 9.34566 12.5664 9.24031 14.7989C9.14419 16.8357 9.15076 17.1284 9.15535 17.1895C9.16335 17.2384 9.17074 17.2807 9.18074 17.3252L9.22664 17.5167L9.23054 17.5342C9.24781 17.612 9.26315 17.6946 9.27742 17.7686C9.66522 17.8824 10.0754 18.0236 10.5909 18.295C11.0832 18.5541 11.9546 19.0252 12.5889 19.3868C13.2276 19.7508 13.6203 20.0009 14.0635 20.2715C14.344 20.4428 14.6455 20.6198 14.8946 20.7637C14.8824 20.6949 14.8781 20.6239 14.8809 20.5518L14.8887 20.4571C14.8901 20.4227 14.8907 20.3522 14.8917 20.2002C14.8937 19.8991 14.8942 19.3237 14.8927 18.1856C14.8895 15.917 14.8795 11.5356 14.9151 9.14263C14.932 8.00519 14.9587 7.30439 14.9884 6.85064C14.9343 6.82125 14.8902 6.79469 14.8604 6.77642C14.7914 6.73415 14.7176 6.6884 14.5958 6.61919C14.3552 6.48248 13.8848 6.22358 13.1934 5.79302C12.4877 5.3535 11.668 4.81145 10.9073 4.36822C10.4792 4.11877 10.1019 3.91319 9.78718 3.75396ZM7.66316 3.40826C7.155 3.81543 6.73972 4.15518 6.31453 4.39166C6.03423 4.54754 5.61465 4.77308 5.17097 5.06646C4.72415 5.36192 4.25826 5.72222 4.00203 5.92584C3.88465 6.0191 3.82544 6.0711 3.79109 6.10162C3.7814 6.11022 3.74488 6.14269 3.72468 6.16021C3.69372 6.18705 3.6511 6.22202 3.59675 6.25982C3.47626 6.34361 3.34321 6.42539 3.21199 6.50298L3.22859 6.60552L3.23054 6.61724L3.23152 6.62994L3.33308 7.35748L3.33503 7.37017C3.33548 7.37284 3.33667 7.38164 3.33992 7.39849C3.34447 7.42209 3.35082 7.45333 3.35945 7.49419C3.38427 7.61174 3.39274 7.64713 3.42878 7.81744C3.48547 8.08528 3.55876 8.44725 3.63679 8.90435C3.71221 9.34614 3.75332 9.73153 3.77937 9.94146C3.81465 10.2257 3.83444 10.3726 3.85164 11.5831C3.86876 12.7885 3.88337 15.0362 3.85261 16.5577C3.82157 18.0928 3.74542 18.8723 3.70613 19.4131C3.67067 19.9013 3.66271 20.1972 3.66609 20.4756C3.68984 20.4631 3.71481 20.4516 3.73933 20.4385C4.1258 20.2328 4.53199 19.9896 5.15339 19.5313C5.84365 19.0222 6.57008 18.4286 7.09773 18.0313C7.15522 17.988 7.21106 17.9483 7.26375 17.9102L7.22859 17.7598C7.2093 17.673 7.18944 17.5725 7.17195 17.4571L7.16902 17.4346L7.16609 17.4112C7.14294 17.1888 7.13899 16.8925 7.24226 14.7042C7.34779 12.4681 7.56481 8.31523 7.67683 6.08697C7.78465 3.94218 7.79365 3.58392 7.80085 3.29888C7.75811 3.33259 7.71222 3.36894 7.66316 3.40826ZM20.7393 4.04498C20.5397 4.14756 20.3119 4.26778 20.0889 4.39751C19.9003 4.50726 19.713 4.62488 19.5294 4.74126C19.3528 4.85313 19.1661 4.97356 19.005 5.07037C18.84 5.16944 18.6969 5.24678 18.5635 5.32134C18.4284 5.39694 18.2774 5.48328 18.0635 5.61529C17.7836 5.78808 17.412 6.02774 17.0782 6.24517C17.0718 6.27714 17.0626 6.32523 17.0479 6.39751C17.029 6.49077 16.9505 6.79362 16.9151 9.1729C16.8799 11.5453 16.8895 15.9053 16.8927 18.1836C16.8939 19.0692 16.8927 19.6192 16.8917 19.9659C17.2069 19.7958 17.5417 19.6186 17.8741 19.4502C18.3393 19.2146 18.7906 19.0035 19.1768 18.8252C19.5738 18.642 19.8787 18.5046 20.0909 18.4004C20.3529 18.2719 20.4752 18.2045 20.5411 18.1631C20.7112 17.9349 20.8828 17.6577 20.9971 17.2598C20.9981 17.2268 21.0006 17.1676 21.0001 17.0665C20.9986 16.761 20.9861 16.1782 20.9591 15.0059C20.9053 12.6724 20.7963 8.1681 20.7569 5.77935C20.7442 5.00931 20.7402 4.4533 20.7393 4.04498Z" fill="black"/>
</svg>
