<svg width="24" height="24" viewBox="0 0 24 24" fill="none" xmlns="http://www.w3.org/2000/svg">
<g clip-path="url(#clip0_109_179)">
<path d="M0.220248 2.81028C0.312993 2.26597 0.829243 1.90035 1.37357 1.9929C1.52156 2.01817 1.65601 2.07604 1.77201 2.15599C1.86924 2.12444 1.97285 2.10619 2.0806 2.10618L2.65579 2.114L2.67337 2.11497L2.68997 2.11595C2.9019 2.13313 3.772 2.14495 5.17435 2.18235L5.17337 2.18333C5.98364 2.19733 7.50076 2.21313 10.5044 2.18821C13.5253 2.16315 17.901 2.09826 20.1587 2.07298C21.2788 2.06044 21.8865 2.0577 22.2222 2.06419C22.3813 2.06728 22.5232 2.07288 22.6402 2.0886C22.7927 2.1092 22.9824 2.15684 23.1724 2.29075C23.2885 2.37263 23.4194 2.49619 23.5181 2.67943C23.6021 2.83566 23.635 2.98443 23.6509 3.07982C23.6801 3.25507 23.6856 3.47299 23.687 3.70091C23.6912 4.36204 23.6969 5.01432 23.6841 5.56224C23.6721 6.07701 23.6429 6.61815 23.5415 7.00071C23.4811 7.22896 23.395 7.50907 23.2554 7.76243C23.1158 8.01571 22.8603 8.35438 22.4126 8.51439C22.2074 8.58766 21.9508 8.63544 21.7017 8.67064C21.7364 9.01705 21.7626 9.58732 21.7681 10.9685V10.9763L21.7671 10.9851C21.7483 12.5452 21.687 15.3387 21.6519 16.7761C21.6167 18.2158 21.6076 18.3087 21.604 18.3962C21.592 18.6965 21.5887 19.0819 21.5201 19.6872C21.4963 19.8968 21.4569 20.2372 21.3726 20.5417C21.3305 20.6937 21.2617 20.8961 21.1411 21.0876C21.0218 21.277 20.7862 21.5559 20.3824 21.6648C20.1275 21.7333 19.8682 21.7739 19.7056 21.8034C19.293 21.8783 18.2184 21.9173 16.9273 21.8669C16.3769 21.8454 16.2086 21.8179 15.1021 21.7986C14.0202 21.7797 12.023 21.77 10.8667 21.7429C9.68064 21.7151 9.25532 21.6589 8.88919 21.6365C7.92295 21.5774 7.24907 21.4721 6.31888 21.4568C5.67902 21.4463 5.04212 21.4435 4.52298 21.4255C4.02963 21.4084 3.50257 21.3762 3.11185 21.2634C2.96866 21.222 2.64086 21.114 2.4097 20.7898C2.19064 20.4825 2.1902 20.147 2.18802 20.1013C2.18113 19.9567 2.16535 19.8085 2.14115 19.5242C2.11824 19.255 2.09254 18.9108 2.07376 18.4411C2.05423 17.9524 2.02419 17.1587 1.97708 15.5749C1.92988 13.988 1.86752 11.6916 1.82083 10.3865C1.77449 9.0909 1.74562 8.80653 1.71829 8.52806C1.7155 8.49954 1.71379 8.47123 1.71341 8.4431C1.69445 8.43998 1.67435 8.43685 1.65286 8.43333C1.56121 8.41833 1.43959 8.39767 1.31693 8.36888C1.08475 8.31432 0.702324 8.19832 0.391146 7.87571C0.227288 7.70556 0.163296 7.51697 0.150912 7.48216C0.125491 7.41075 0.108791 7.3438 0.0981773 7.29564C0.0763211 7.19636 0.0608108 7.08673 0.0483726 6.98216C0.0228932 6.76783 0.00321828 6.49527 -0.00729146 6.19407C-0.028304 5.59137 -0.0162726 4.8154 0.0659507 4.06712C0.113138 3.63779 0.146983 3.24058 0.220248 2.81028ZM3.73197 8.62571C3.75612 8.91982 3.78552 9.35525 3.81986 10.3152C3.86683 11.6283 3.92923 13.9392 3.97611 15.5154C4.02305 17.0937 4.0526 17.8804 4.07181 18.3611C4.08913 18.7944 4.11236 19.1078 4.13333 19.3542C4.13468 19.3701 4.1349 19.3863 4.13626 19.4021C4.26231 19.4113 4.4136 19.4213 4.59232 19.4275C5.08849 19.4446 5.67126 19.4456 6.35208 19.4568C7.30534 19.4725 8.27253 19.5952 9.01126 19.6404C9.46703 19.6683 9.77416 19.7162 10.9136 19.7429C12.0843 19.7704 13.9868 19.7785 15.1372 19.7986C16.2622 19.8182 16.5424 19.8508 17.0054 19.8689C18.2917 19.9191 19.1716 19.8677 19.3482 19.8357C19.3979 19.8266 19.4434 19.8176 19.4849 19.8103C19.4869 19.7986 19.4908 19.7865 19.4927 19.7742C19.5079 19.6753 19.5203 19.5713 19.5327 19.4617C19.591 18.948 19.5913 18.6571 19.605 18.3161C19.6083 18.2349 19.618 18.1547 19.6529 16.7273C19.6879 15.2953 19.7492 12.5261 19.7681 10.9763L19.7564 9.89232C19.7441 9.2311 19.7198 8.96349 19.7017 8.81224C19.2496 8.81448 18.4287 8.81233 16.7896 8.79759C13.8588 8.77123 8.4435 8.71184 5.6099 8.66478C4.79398 8.65122 4.18747 8.63743 3.73197 8.62571ZM15.1519 10.6687C15.7003 10.6073 16.1954 11.0022 16.2574 11.5505C16.319 12.0991 15.924 12.5949 15.3755 12.657C14.9072 12.7097 14.5811 12.7362 14.2417 12.7497C13.9249 12.7624 13.6555 12.762 12.982 12.8357C12.2844 12.912 11.2094 13.0616 10.4927 13.1609C9.78184 13.2594 9.46093 13.3028 9.14115 13.3464C8.59418 13.4208 8.08996 13.0378 8.01517 12.4909C7.94059 11.9437 8.32439 11.4396 8.87161 11.365C9.19033 11.3215 9.50938 11.2777 10.2183 11.1794C10.9223 11.0819 12.0311 10.9276 12.7642 10.8474C13.5206 10.7646 13.8646 10.7636 14.1626 10.7517C14.4381 10.7407 14.7128 10.7181 15.1519 10.6687ZM20.1802 4.07298C17.9375 4.0981 13.5421 4.16314 10.5201 4.18821C7.49259 4.21333 5.95863 4.19673 5.1304 4.18235H5.12064C3.85444 4.14858 2.88541 4.13174 2.56204 4.11009V4.11107C2.44455 4.10556 2.28257 4.10618 2.0806 4.10618C2.07814 4.10618 2.07524 4.10532 2.07279 4.10521C2.06671 4.16236 2.06116 4.22281 2.05423 4.28587C1.98483 4.91762 1.97329 5.59415 1.99173 6.12376C1.99611 6.24933 2.00247 6.36407 2.00931 6.46458C2.08873 6.47749 2.19181 6.49465 2.29349 6.51536C2.32431 6.52165 2.35248 6.52781 2.37552 6.53294C2.40073 6.53855 2.41756 6.54215 2.43802 6.54661C2.47265 6.55416 2.51322 6.56272 2.57279 6.57298C2.63053 6.58297 2.7773 6.61815 5.6431 6.66575C8.46896 6.71269 13.8787 6.77222 16.8081 6.79857C19.7593 6.82511 19.9957 6.81452 20.1685 6.80345C20.5652 6.77801 20.9305 6.74975 21.2271 6.71556C21.3552 6.70077 21.4642 6.68377 21.5533 6.66868C21.5699 6.61911 21.5891 6.56012 21.6079 6.489C21.6396 6.36949 21.6714 6.05944 21.6841 5.51536C21.6939 5.09356 21.6914 4.60023 21.688 4.06126C21.349 4.06185 20.8668 4.06529 20.1802 4.07298Z" fill="black"/>
</g>
<defs>
<clipPath id="clip0_109_179">
<rect width="24" height="24" fill="white"/>
</clipPath>
</defs>
</svg>
