<svg width="24" height="24" viewBox="0 0 24 24" fill="none" xmlns="http://www.w3.org/2000/svg">
<path d="M7.9232 2.56132C9.02751 2.5066 11.161 2.46993 12.6664 2.53202C14.2119 2.59579 15.0486 2.7835 15.5179 2.89432C16.0119 3.01103 16.4885 3.26874 16.8558 3.50272C17.2375 3.74589 17.5767 4.01211 17.807 4.20682C18.2217 4.55754 18.461 5.05258 18.5961 5.38651C18.7402 5.743 18.831 6.09161 18.8666 6.21561C18.9303 6.43798 18.9286 6.65729 18.9173 6.82499C18.9052 7.00499 18.875 7.21527 18.8304 7.45878C18.6484 8.4532 18.1884 9.19201 17.9418 9.54569C17.7403 9.83448 17.4323 10.0934 17.1576 10.3055C16.8964 10.5071 16.5786 10.7292 16.2338 10.9676C16.2678 10.984 16.3034 10.9997 16.3392 11.0174C16.8922 11.2901 17.7045 11.7345 18.138 11.9783C19.0861 12.5116 19.5193 13.5863 19.7543 14.2498C19.8148 14.4209 19.8313 14.5888 19.8382 14.6951C19.8461 14.8159 19.8456 14.9473 19.8421 15.0799C19.8351 15.345 19.8122 15.6896 19.7796 16.1082C19.6866 17.3062 19.3178 18.101 19.1664 18.3933C19.059 18.6006 18.8463 18.9713 18.514 19.4451C18.3082 19.7386 18.032 19.9696 17.7777 20.1521C17.5166 20.3395 17.2169 20.5184 16.9183 20.6883C16.3496 21.0118 15.9303 21.1008 15.2845 21.1941C14.7265 21.2748 13.7487 21.3679 12.3675 21.3982C10.9872 21.4285 9.22556 21.382 8.20641 21.3426C7.43218 21.3126 6.93881 21.2727 6.60582 21.2146C6.4338 21.1846 6.26994 21.1442 6.11559 21.0808C5.94431 21.0105 5.82574 20.9288 5.74254 20.865L5.72594 20.8533L5.71129 20.8406C5.71479 20.8435 5.71431 20.843 5.70738 20.8377C5.69885 20.8312 5.69242 20.8263 5.67516 20.8133C5.64716 20.7922 5.59462 20.7531 5.53941 20.7049C5.36965 20.5565 5.26027 20.3983 5.13707 20.1883C4.92982 19.8349 4.96476 19.4072 5.19078 19.0955C5.1955 18.8004 5.20078 18.3847 5.21031 17.7976C5.24237 15.8232 5.30614 11.8971 5.35094 9.78788C5.39596 7.66798 5.4201 7.4857 5.45055 6.84159C5.48061 6.20546 5.51704 5.10298 5.53844 4.49979C5.54983 4.17876 5.5644 3.93827 5.59312 3.7576C5.62961 3.52845 5.69976 3.3213 5.84996 3.12089L5.97105 2.98417C6.26488 2.70179 6.63138 2.66006 6.77477 2.64139C7.00262 2.61177 7.36161 2.58915 7.9232 2.56132ZM12.5834 4.53007C11.1523 4.47107 9.08212 4.50689 8.02281 4.55936C7.82872 4.56898 7.66831 4.5779 7.53648 4.58573C7.51543 5.18032 7.47914 6.28995 7.44859 6.93632C7.41819 7.57946 7.39535 7.73948 7.35094 9.83085C7.30628 11.9339 7.24142 15.8534 7.20934 17.8299C7.19804 18.5254 7.19159 18.9791 7.18687 19.2752C7.41118 19.2988 7.75446 19.3241 8.28355 19.3445C9.28902 19.3834 11.0036 19.4272 12.3236 19.3982C13.6427 19.3693 14.5374 19.2813 14.9984 19.2146C15.544 19.1358 15.6776 19.0931 15.9291 18.95C16.2145 18.7875 16.4394 18.6508 16.6117 18.5271C16.7906 18.3987 16.8585 18.3221 16.8763 18.2967C17.1599 17.8923 17.3264 17.598 17.391 17.4734C17.4607 17.3387 17.7192 16.8074 17.7855 15.9539C17.8182 15.5333 17.8376 15.2351 17.8431 15.0271C17.8454 14.941 17.8437 14.8825 17.8421 14.8455C17.6049 14.1955 17.3763 13.8446 17.1576 13.7215C16.7345 13.4835 15.9589 13.0601 15.4545 12.8113C14.9682 12.5715 14.7928 12.5217 14.6429 12.489C14.5011 12.4582 14.3521 12.4308 13.0648 12.4129C12.4318 12.4041 11.5732 12.397 10.8441 12.3885C10.4832 12.3842 10.1542 12.3795 9.90953 12.3738C9.78825 12.371 9.68042 12.3679 9.59801 12.364C9.55819 12.3622 9.51473 12.3606 9.47496 12.3572C9.45581 12.3556 9.42634 12.352 9.39391 12.3474C9.38817 12.3467 9.27996 12.3339 9.16051 12.2879C9.12348 12.2736 9.05487 12.2444 8.97691 12.1941C8.91097 12.1516 8.75149 12.039 8.63707 11.826C8.49444 11.5601 8.47604 11.2355 8.60484 10.9461C8.70822 10.714 8.86965 10.587 8.93687 10.5389C9.07357 10.4411 9.20291 10.4022 9.22496 10.3953C9.27087 10.381 9.30941 10.373 9.32945 10.3689C9.39831 10.3549 9.46492 10.3487 9.48863 10.3465C9.55848 10.34 9.65136 10.3342 9.7484 10.3289C9.94868 10.318 10.233 10.3061 10.5462 10.2928C11.183 10.2656 11.9537 10.2326 12.515 10.1932C13.0753 10.1537 13.3906 10.1106 13.5912 10.0682C13.7687 10.0306 13.8663 9.99175 14.0004 9.93241C14.3321 9.78554 14.647 9.63354 14.9574 9.41971C15.3634 9.13999 15.6878 8.9132 15.9349 8.72245C16.0569 8.62827 16.1489 8.55156 16.2152 8.49003C16.2837 8.42631 16.3048 8.39819 16.3021 8.40214C16.4723 8.15812 16.7539 7.69272 16.8627 7.0994C16.9014 6.88749 16.9175 6.76087 16.9222 6.69022V6.68925C16.8772 6.52939 16.8227 6.33738 16.7416 6.13651C16.6375 5.87915 16.5474 5.76097 16.516 5.73417C16.3321 5.57869 16.0664 5.37171 15.7816 5.19022C15.4826 4.99973 15.2294 4.88099 15.0589 4.84061C14.6825 4.7517 13.9739 4.58743 12.5834 4.53007Z" fill="black"/>
</svg>
