<svg width="24" height="24" viewBox="0 0 24 24" fill="none" xmlns="http://www.w3.org/2000/svg">
<path d="M12.8908 1.09013C14.3373 1.09372 16.9411 1.1248 18.3127 1.13798C19.691 1.15123 19.8265 1.14707 19.9582 1.14384C20.5101 1.13037 20.9688 1.56665 20.9826 2.11845C20.9882 2.3453 20.9164 2.55597 20.7931 2.72685L20.8478 2.98857L20.8488 2.99638L20.8498 3.00322C20.8863 3.21883 20.9201 3.41333 20.9504 3.61162L21.0324 4.2454L21.0344 4.26494C21.0675 4.64702 21.1161 5.30731 21.1545 6.40947C21.193 7.5164 21.2207 9.02258 21.1515 11.5618C21.0827 14.0891 20.9367 17.5495 20.8312 19.3343C20.777 20.2519 20.7425 20.8099 20.7033 21.1468C20.6726 21.4106 20.6215 21.8969 20.2111 22.2376H20.2101V22.2386C20.2096 22.2391 20.2083 22.2397 20.2072 22.2405C20.2047 22.2427 20.201 22.2462 20.1965 22.2503C20.1868 22.259 20.1748 22.2693 20.1584 22.2845C20.1283 22.3122 20.0808 22.3563 20.0285 22.4017C19.9203 22.4954 19.7681 22.6161 19.5705 22.722C19.3281 22.8517 19.1022 22.881 18.8625 22.8968C18.6317 22.912 18.2597 22.9201 17.6369 22.9261C16.3729 22.9382 14.0295 22.9435 12.5363 22.9349C11.042 22.9262 10.4044 22.9043 9.9992 22.8821C9.52649 22.8562 9.50343 22.8378 9.18085 22.8343C8.29355 22.8245 7.61808 22.7871 7.31463 22.7708C6.92383 22.7498 6.54496 22.711 6.2287 22.6409C5.97011 22.5836 5.3247 22.5292 4.79608 22.0589C4.46024 21.7601 4.15074 21.3368 4.01581 20.8362C3.91942 20.4785 3.85076 20.0765 3.76776 18.8528C3.69998 17.8536 3.58157 16.0108 3.51385 15.0423C3.44671 14.082 3.43338 14.0299 3.40643 13.7044C3.37823 13.3636 3.34378 12.8164 3.35077 11.554C3.3576 10.319 3.38009 8.38257 3.44842 7.28251C3.52956 5.97645 3.58411 5.51427 3.64764 5.08037C3.70888 4.66222 3.77214 4.26225 3.8371 3.93095C3.89406 3.64048 3.97457 3.27532 4.1076 3.01005C4.18211 2.86136 4.42509 2.19622 5.05878 1.82841L5.29803 1.69267C5.41294 1.63394 5.56413 1.56694 5.75213 1.50908C6.10406 1.40085 6.56107 1.32693 7.21502 1.29033C8.04871 1.24369 9.53901 1.18865 10.3547 1.15068C11.1942 1.11159 11.4233 1.0865 12.8908 1.09013ZM17.9797 18.0403C16.6586 18.0397 14.0464 18.039 11.9875 18.1038C9.93894 18.1683 8.51407 18.2986 7.75702 18.3724C6.98164 18.4479 6.98688 18.4575 6.97479 18.4602C6.81785 18.4943 6.73242 18.5248 6.68573 18.5452C6.67221 18.5635 6.65643 18.5861 6.6369 18.6136C6.62262 18.6337 6.60766 18.6544 6.591 18.678C6.57465 18.7012 6.55688 18.7271 6.53827 18.7532C6.47641 18.84 6.46298 18.8736 6.45917 18.8831C6.45387 18.8963 6.44832 18.9124 6.43377 18.9563C6.42076 18.9957 6.39852 19.0635 6.36932 19.139L6.36249 19.1585L6.3537 19.177C6.28404 19.337 6.22462 19.4762 6.18085 19.5813C6.15896 19.6339 6.14229 19.6746 6.13104 19.7034L6.13006 19.7063C6.0945 19.8766 6.0153 20.0273 5.90838 20.1517C5.92247 20.2237 5.93487 20.2727 5.94647 20.3157C5.95869 20.3611 6.01274 20.4647 6.12518 20.5647C6.12896 20.5681 6.13144 20.5704 6.13299 20.5716C6.13558 20.5728 6.14559 20.5768 6.16815 20.5833C6.20374 20.5936 6.25283 20.6046 6.341 20.6224C6.41956 20.6382 6.53878 20.6604 6.66229 20.6878C6.82398 20.7236 7.078 20.7553 7.42108 20.7737C7.71735 20.7896 8.35885 20.825 9.20233 20.8343C9.56088 20.8382 9.81846 20.8692 10.1086 20.8851C10.4663 20.9046 11.0669 20.9263 12.548 20.9349C14.0308 20.9434 16.3644 20.9381 17.6183 20.9261C18.2181 20.9203 18.5302 20.9125 18.7014 20.9026C18.7065 20.8984 18.7133 20.8949 18.7189 20.8899V20.889C18.7488 20.6181 18.7809 20.1346 18.8351 19.2161C18.855 18.8796 18.8746 18.4815 18.8967 18.0403C18.7003 18.0402 18.4098 18.0405 17.9797 18.0403ZM12.8859 3.09013C11.4705 3.08663 11.2828 3.10984 10.4474 3.14873C9.58772 3.18874 8.15499 3.24111 7.32733 3.2874C6.75827 3.31923 6.47809 3.37871 6.34002 3.42119C6.23021 3.45499 6.2093 3.47108 6.07733 3.54814C6.0857 3.54059 6.08368 3.53868 6.06854 3.56279C6.05395 3.58609 6.03468 3.6208 6.00506 3.68095C5.99012 3.7113 5.97602 3.74241 5.95721 3.78154C5.93946 3.81846 5.91818 3.8617 5.89569 3.90654C5.90875 3.88042 5.89887 3.89483 5.8742 3.98564C5.85228 4.06639 5.82651 4.17643 5.79901 4.31669C5.74395 4.59761 5.68765 4.95626 5.62713 5.36943C5.57453 5.72864 5.52376 6.131 5.44452 7.40654C5.3803 8.44037 5.35766 10.3199 5.35077 11.5657C5.34404 12.7833 5.37729 13.2699 5.3996 13.5394C5.42313 13.8237 5.44087 13.9287 5.50897 14.9026C5.54326 15.3931 5.5895 16.1155 5.6369 16.8362C5.90494 16.6792 6.20098 16.581 6.54999 16.5052C6.69583 16.4735 6.80403 16.4551 7.56366 16.3811C8.34678 16.3049 9.81734 16.1711 11.924 16.1048C14.0206 16.0387 16.666 16.0398 17.9806 16.0403C18.4828 16.0405 18.7945 16.0402 18.9885 16.0403C19.0526 14.5366 19.1151 12.8825 19.1525 11.5071C19.2205 9.00906 19.1926 7.54428 19.1555 6.4788C19.1189 5.42918 19.0741 4.80763 19.0441 4.4583C19.0017 4.06329 18.9521 3.77387 18.8781 3.3372H18.8771C18.8639 3.26635 18.8528 3.20939 18.8361 3.14091C18.6798 3.13963 18.4999 3.13997 18.2931 3.13798C16.9118 3.12471 14.3228 3.09369 12.8859 3.09013Z" fill="black"/>
</svg>
