<svg width="24" height="24" viewBox="0 0 24 24" fill="none" xmlns="http://www.w3.org/2000/svg">
<path d="M22.1757 1.54784C22.2604 1.55316 22.4189 1.56398 22.58 1.61815C22.6774 1.65094 22.7957 1.7057 22.912 1.79784C22.9703 1.84401 23.017 1.89095 23.0527 1.93163L23.1279 2.02831L23.2206 2.17675C23.2538 2.23808 23.2881 2.31209 23.3193 2.40136C23.3716 2.55164 23.4053 2.71779 23.4316 2.90136C23.4837 3.26542 23.5244 3.84502 23.5527 4.81933C23.6038 6.58565 23.6947 9.95685 23.7363 11.6777C23.7773 13.3761 23.772 13.4916 23.7655 13.6133C23.7607 13.7058 23.7583 13.8033 23.6982 14.3486C23.6428 14.8503 23.5422 15.8509 23.4404 16.4375C23.3938 16.7056 23.3427 17.081 23.2851 17.3193C23.2315 17.5409 23.0808 18.1036 22.5048 18.3711C22.2999 18.4662 22.1074 18.5183 21.8124 18.5713C21.5346 18.6211 21.1083 18.6812 20.4101 18.7734C19.093 18.9473 16.6267 19.2659 15.3075 19.4355C13.9502 19.6101 13.8385 19.6208 13.7255 19.6426C13.6087 19.6651 13.4947 19.6812 13.4072 19.6943C13.4069 19.7052 13.4075 19.7165 13.4072 19.7275C13.4026 19.883 13.3861 20.1585 13.2646 20.4394C13.124 20.7642 12.8638 21.0495 12.4755 21.206C12.2808 21.2846 12.0651 21.3008 11.8583 21.25C11.668 21.2031 11.5323 21.1117 11.453 21.0459C11.3106 20.9274 11.236 20.7971 11.2177 20.7656C11.1892 20.7164 11.1693 20.6734 11.1611 20.6553C11.1557 20.6434 11.1504 20.6314 11.1464 20.6221C10.9952 20.4245 10.5845 19.9893 9.91789 19.5332C9.88204 19.5088 9.73409 19.4256 9.44817 19.3105C9.17821 19.2019 8.82627 19.0811 8.41399 18.9678C7.86187 18.816 7.59888 18.7149 6.80071 18.7168C6.09688 18.7185 4.98984 18.6932 4.22942 18.7734C3.5851 18.8415 3.16833 18.9038 2.80949 18.9463C2.65239 18.9649 2.47574 18.9837 2.32121 18.9834C2.24521 18.9832 2.12318 18.9787 1.98918 18.9473C1.87071 18.9195 1.59691 18.8372 1.38274 18.5713C1.23269 18.385 1.16191 18.189 1.12297 18.0557C1.08423 17.9229 1.05585 17.7765 1.03215 17.6435C0.898213 16.8923 0.820028 16.5995 0.723557 15.6787C0.686405 15.3241 0.676018 15.002 0.765549 13.4844C0.855754 11.9554 1.04663 9.23502 1.15422 7.78319C1.2666 6.26687 1.28595 6.18338 1.2968 6.01855C1.31109 5.80096 1.21036 5.09533 1.50481 3.84472C1.55991 3.61066 1.63012 3.3131 1.7343 3.06249C1.83929 2.80999 2.06083 2.40061 2.54778 2.20214L2.69621 2.15233C2.84586 2.11152 2.99221 2.09572 3.07512 2.0869C3.22949 2.0705 3.41419 2.0587 3.61614 2.05077C4.02254 2.03482 4.54444 2.03176 5.12688 2.04394C5.50136 2.05176 5.64245 2.06175 6.0761 2.07323C6.5549 2.0859 7.49549 2.104 8.28117 2.17089C9.05746 2.237 9.69871 2.33721 10.1113 2.44335C10.4908 2.54103 10.8754 2.65388 11.1982 2.91698L11.332 3.03905L11.495 3.21386C11.6681 3.41188 11.8678 3.68457 12.0497 4.07323C12.0601 4.09538 12.0706 4.11752 12.081 4.13964C12.227 3.90658 12.4151 3.66213 12.6591 3.40526C12.969 3.07912 13.2413 2.80032 13.4599 2.59179C13.5685 2.48817 13.6758 2.39033 13.7753 2.30956C13.8468 2.2515 14.008 2.12183 14.207 2.04491L14.4863 1.94823C14.8329 1.84473 15.426 1.72818 16.6425 1.66698C17.9031 1.60359 20.0357 1.55398 21.1239 1.54101C21.6536 1.53469 21.9778 1.53543 22.1757 1.54784ZM3.69524 4.04882C3.62817 4.05145 3.56671 4.05733 3.51164 4.06054C3.4939 4.12958 3.47426 4.20849 3.45207 4.30272C3.20294 5.36084 3.33657 5.48452 3.29289 6.1494C3.28735 6.23372 3.27452 6.35284 3.25578 6.56737C3.23494 6.80606 3.20188 7.20946 3.14836 7.93163C3.04101 9.38017 2.85193 12.0886 2.76262 13.6025C2.67264 15.1277 2.6948 15.2988 2.71281 15.4707C2.78416 16.1515 2.8344 16.3935 2.93156 16.9141C3.216 16.8773 3.59021 16.8304 4.01848 16.7851C4.91421 16.6906 6.19501 16.7182 6.79582 16.7168C7.88695 16.7142 8.3764 16.883 8.94426 17.0391C9.80016 17.2743 10.5408 17.5709 10.956 17.8262C10.9521 17.5005 10.9585 16.8974 11.0029 15.4326C11.0668 13.3235 11.2061 9.51671 11.2753 7.57323C11.2819 7.38784 11.2865 7.2194 11.2919 7.0664L11.2909 7.06542C11.1038 6.68766 10.6502 5.80121 10.2382 4.92089C10.1349 4.70018 10.032 4.5743 9.94231 4.47948C9.89361 4.46004 9.79911 4.42772 9.6132 4.37987C9.3523 4.31273 8.83341 4.22555 8.11125 4.16405C7.39847 4.10338 6.52986 4.08664 6.02336 4.07323C5.47188 4.05864 5.50578 4.05273 5.08489 4.04394C4.52943 4.03233 4.05003 4.03491 3.69524 4.04882ZM21.1474 3.54101C20.0707 3.55385 17.9662 3.60248 16.7421 3.66405C15.624 3.72032 15.1869 3.82284 15.0195 3.87694C14.9791 3.91085 14.9199 3.96253 14.8407 4.03808C14.6595 4.21103 14.4153 4.46114 14.1093 4.78319C13.8222 5.08536 13.7091 5.30008 13.6542 5.43749C13.6249 5.51088 13.6045 5.58121 13.5849 5.6621C13.5748 5.70355 13.5414 5.85049 13.5126 5.95702L13.5136 5.958C13.4796 6.09152 13.4574 6.16378 13.4267 6.30761C13.3946 6.45773 13.3636 6.642 13.3105 6.93065C13.3069 6.9502 13.3015 6.96921 13.2968 6.98827C13.2901 7.17975 13.2831 7.39725 13.2743 7.64452C13.2049 9.59295 13.0656 13.3911 13.0019 15.4932C12.9609 16.8442 12.9532 17.4361 12.955 17.7412C12.9887 17.7357 13.0203 17.7309 13.0488 17.7266C13.166 17.7087 13.2517 17.697 13.3466 17.6787C13.5415 17.6412 13.7732 17.6157 15.0527 17.4512C16.3725 17.2814 18.8341 16.9644 20.1474 16.791C20.7823 16.7072 21.1526 16.6531 21.3837 16.6142C21.386 16.6006 21.3901 16.5862 21.3925 16.5713C21.4126 16.4465 21.4382 16.2766 21.4697 16.0957C21.5576 15.5894 21.6497 14.6848 21.7109 14.1299C21.7395 13.8699 21.753 13.7287 21.7597 13.6475C21.7659 13.5715 21.766 13.5544 21.7685 13.5068C21.7698 13.4824 21.7791 13.4613 21.7372 11.7266C21.6958 10.0096 21.6048 6.64091 21.5536 4.87694C21.5354 4.24854 21.5106 3.82476 21.4872 3.53808C21.3884 3.53872 21.2756 3.53948 21.1474 3.54101Z" fill="black"/>
</svg>
