<svg width="24" height="24" viewBox="0 0 24 24" fill="none" xmlns="http://www.w3.org/2000/svg">
<path d="M11.256 0.609333C11.5074 0.301955 11.9294 0.161367 12.3312 0.288044C12.4636 0.329787 12.5907 0.37678 12.6662 0.402302L12.6672 0.401325C12.8127 0.448135 12.9449 0.496468 13.089 0.554646L13.5822 0.768513L13.6037 0.778278L13.6242 0.788044C13.907 0.932287 14.1545 1.05923 14.3625 1.15914C14.4654 1.20855 14.5505 1.24773 14.6183 1.27633C14.6516 1.29035 14.678 1.30044 14.6974 1.30758C14.7124 1.31305 14.7208 1.31574 14.7228 1.31636C14.9069 1.36717 15.5371 1.55837 16.3703 1.83687C16.7706 1.9707 17.1816 2.14116 17.6808 2.42476C17.9982 2.60508 18.0608 2.67458 18.3439 2.77926C18.8057 2.95001 19.4374 3.17663 20.1535 3.62496C20.5743 3.88842 20.9345 4.11812 21.2052 4.30172C21.3399 4.39303 21.4643 4.48062 21.5666 4.55953C21.6418 4.61763 21.7932 4.7365 21.9074 4.8857C22.0243 5.03859 22.1588 5.25049 22.2404 5.54097L22.2716 5.66988L22.3107 5.86422C22.353 6.09341 22.4095 6.48987 22.5138 7.60152C22.645 8.99934 22.8818 11.6571 23.0002 13.4658C23.1188 15.2777 23.1193 16.2314 23.0968 16.7617C23.0863 17.0102 23.0696 17.2134 23.0343 17.3779C23.0149 17.4684 22.9838 17.5772 22.9289 17.6894C22.8697 17.81 22.8021 17.8938 22.7931 17.9052C22.6318 18.1116 22.2341 18.4938 21.2746 19.164C20.6229 19.6191 19.6043 20.2879 19.092 20.6347C18.8355 20.8084 18.6907 20.9132 18.5812 20.9931C18.4708 21.0737 18.3674 21.1499 18.2218 21.2441C17.5713 21.6651 16.9239 21.9915 16.5168 22.1757C16.3386 22.2564 16.0549 22.3544 15.7922 22.4472C15.502 22.5497 15.157 22.6733 14.7765 22.8252C14.5161 22.9291 14.1354 23.1224 13.5841 23.2714C12.9327 23.4475 12.1967 23.634 11.716 23.6445C11.4383 23.6505 11.0781 23.6437 10.7179 23.5976C10.3819 23.5546 9.93329 23.4643 9.55387 23.2373C9.42253 23.1586 9.29973 23.0816 9.19059 23.0136C9.07876 22.944 8.98309 22.8846 8.89274 22.831C8.70927 22.7222 8.58937 22.6632 8.49528 22.6308C8.25944 22.5498 7.69112 22.3838 7.0402 22.1152C6.3871 21.8456 5.6398 21.4731 5.2609 21.2822C4.84653 21.0734 4.85275 21.0704 4.67106 20.9863C4.16559 20.7524 3.52395 20.4696 3.05582 20.1337C2.80969 19.9571 2.57504 19.7877 2.3859 19.6406C2.22333 19.5141 1.99614 19.331 1.84293 19.1279C1.71816 18.9624 1.56719 18.7472 1.45719 18.4111C1.35959 18.1126 1.30809 17.7615 1.2736 17.3212C1.22781 16.7365 1.15992 15.72 1.16617 13.8906C1.17239 12.0747 1.24949 9.52119 1.33121 8.12105C1.40826 6.80143 1.47915 6.34521 1.67008 5.97652L1.82438 5.70894C1.99866 5.43904 2.25231 5.15041 2.74821 4.74312C3.19335 4.37753 3.7039 3.89336 4.28629 3.55367C4.75313 3.28139 5.3271 3.00512 5.81461 2.78023C6.28178 2.56474 6.63713 2.42119 7.01285 2.27047C7.32948 2.14344 7.86432 1.92187 8.23258 1.77242C8.77044 1.55413 8.80178 1.52109 9.20035 1.35347C9.887 1.06471 10.5001 0.836139 10.8058 0.743122C10.9572 0.697071 11.1133 0.652498 11.256 0.609333ZM20.548 8.08394C20.3106 8.1984 20.0057 8.34258 19.6125 8.52047L19.5851 8.53218C18.6259 8.93318 17.0557 9.54811 16.0754 9.915C15.1111 10.2759 14.6461 10.4151 14.4923 10.4697C14.3925 10.5052 14.318 10.5383 14.2306 10.58C14.1468 10.6201 14.0123 10.6875 13.8566 10.7539C13.6645 10.8358 13.4399 10.9448 13.1632 11.0771C13.0519 11.1303 12.9332 11.185 12.8107 11.2421C12.8096 11.267 12.8096 11.292 12.8068 11.3164C12.8066 11.3186 12.806 11.3215 12.8058 11.3242C12.8048 11.3423 12.8038 11.3687 12.8019 11.4052C12.7944 11.5542 12.7806 11.8568 12.7541 12.4677C12.7009 13.6903 12.598 16.129 12.5422 17.9736C12.4974 19.4515 12.4859 20.5011 12.4797 21.4892C12.6505 21.4474 12.8452 21.3993 13.0617 21.3408C13.4668 21.2313 13.5707 21.1518 14.0343 20.9668C14.4538 20.7993 14.8308 20.6658 15.1261 20.5615C15.4487 20.4476 15.6143 20.3884 15.6916 20.3535C16.0303 20.2002 16.5863 19.9205 17.1349 19.5654C17.2243 19.5075 17.2798 19.4665 17.4025 19.3769C17.5263 19.2866 17.6908 19.168 17.9709 18.9785C18.5322 18.5985 19.4876 17.9723 20.1291 17.5244C20.6569 17.1557 20.9453 16.9169 21.091 16.788C21.0929 16.7561 21.097 16.7193 21.0988 16.6777C21.1171 16.2467 21.1212 15.3708 21.005 13.5966C20.8964 11.9369 20.6824 9.53213 20.548 8.08394ZM3.32828 8.23726C3.24897 9.59607 3.17228 12.113 3.16617 13.8974C3.16013 15.6674 3.22579 16.6293 3.26774 17.165C3.29849 17.5575 3.33478 17.7203 3.35758 17.79C3.36709 17.8191 3.37094 17.83 3.42692 17.9052C3.43165 17.9098 3.43908 17.9174 3.44938 17.9267C3.48496 17.9587 3.53801 18.0038 3.61344 18.0625C3.76643 18.1815 3.96849 18.3269 4.22184 18.5087C4.49595 18.7054 4.91561 18.8954 5.5109 19.1709C5.73053 19.2725 5.81692 19.323 6.16032 19.4961C6.54019 19.6874 7.22701 20.0289 7.80289 20.2666C8.38122 20.5052 8.79534 20.6192 9.14469 20.7392C9.43296 20.8383 9.69177 20.9799 9.91324 21.1113C10.0253 21.1778 10.1401 21.2491 10.2482 21.3164C10.3255 21.3645 10.402 21.4107 10.4797 21.458C10.486 20.4665 10.498 19.4033 10.5431 17.913C10.5994 16.0538 10.7029 13.6031 10.756 12.3808C10.7663 12.1437 10.7754 11.9517 10.7824 11.7968C10.6512 11.7807 10.5155 11.7509 10.3752 11.7031C10.0577 11.5949 9.45693 11.3882 8.84489 11.1279C8.23846 10.87 7.64133 10.5693 7.32145 10.413C7.00189 10.2569 6.87058 10.2018 6.33805 9.92086C5.83499 9.65551 4.90305 9.16637 4.33024 8.82515C3.94533 8.59586 3.62449 8.38166 3.33219 8.16793C3.33084 8.19052 3.32965 8.21392 3.32828 8.23726ZM12.6505 11.748C12.6525 11.745 12.6554 11.7422 12.6574 11.7392C12.6605 11.7343 12.6623 11.7284 12.6652 11.7236C12.6603 11.7316 12.6557 11.7401 12.6505 11.748ZM12.2062 2.41011C12.1518 2.42599 12.0804 2.44733 11.9963 2.47261C11.8277 2.52323 11.6135 2.58852 11.3879 2.65718C11.1797 2.72055 10.6403 2.91775 9.97574 3.19722C9.78971 3.27546 9.44638 3.43752 8.98453 3.62496C8.64581 3.76243 8.07111 3.99992 7.75699 4.12593C7.38878 4.27365 7.07146 4.40292 6.65153 4.59664C6.17396 4.81695 5.6735 5.05995 5.2941 5.28121C4.91208 5.50403 4.65157 5.76237 4.09 6.2275C4.46239 6.5302 4.83631 6.79918 5.35367 7.10738C5.87065 7.41533 6.74572 7.87489 7.27164 8.1523C7.76734 8.41376 7.84748 8.44329 8.19938 8.61519C8.55161 8.78727 9.08272 9.05651 9.62711 9.28804C10.1658 9.51716 10.7065 9.70243 11.0207 9.80953C11.0343 9.81414 11.0338 9.81307 11.0255 9.81246C11.0172 9.81191 11.0193 9.81357 11.0412 9.80953C11.1057 9.79748 11.2215 9.76073 11.4836 9.6484C11.7597 9.53 12.0313 9.40088 12.3 9.27242C12.5596 9.14824 12.8311 9.01692 13.0724 8.91402C13.1763 8.86973 13.2442 8.8351 13.3693 8.77535C13.4908 8.71731 13.6332 8.65216 13.8224 8.58492C14.1084 8.48335 14.3958 8.40808 15.3742 8.04195C16.3313 7.68376 17.8646 7.08261 18.797 6.69332C19.3985 6.42114 19.7694 6.24297 19.9923 6.12984C20.0856 6.08249 20.1463 6.04882 20.1838 6.02828C20.1532 6.00677 20.1203 5.98218 20.0832 5.95699C19.8444 5.79509 19.5099 5.58195 19.092 5.32027C18.5702 4.9936 18.1164 4.82786 17.6496 4.65523C17.1635 4.47541 16.8147 4.23351 16.6925 4.16402C16.3154 3.94979 16.0246 3.82969 15.7365 3.73336C14.9189 3.46007 14.3259 3.28243 14.1906 3.24508C13.9699 3.18417 13.7119 3.06544 13.4963 2.96187C13.2686 2.85251 13.0045 2.71773 12.7404 2.58297C12.5367 2.4907 12.3981 2.43267 12.2824 2.38765C12.2721 2.39049 12.2482 2.39786 12.2062 2.41011Z" fill="black"/>
</svg>
