<svg width="24" height="24" viewBox="0 0 24 24" fill="none" xmlns="http://www.w3.org/2000/svg">
<path d="M13.4589 1.20214C13.9214 1.2047 14.2534 1.20346 14.454 1.20507C14.6486 1.20663 14.8284 1.21007 14.995 1.23632C15.1523 1.26115 15.3915 1.29685 15.6054 1.35936C15.8104 1.4193 16.1686 1.55077 16.4316 1.88769C16.5637 2.05709 16.6928 2.28987 16.7587 2.58886L16.7831 2.72069L16.9101 3.52147C16.9108 3.52626 16.9113 3.5313 16.912 3.53612C17.0225 3.50953 17.1393 3.50104 17.2587 3.51464L17.6298 3.56444L17.6366 3.56542C17.7701 3.58857 17.9179 3.61594 18.0732 3.64159C18.2923 3.66919 18.6843 3.71142 19.0146 3.77343C19.1815 3.80477 19.3812 3.84946 19.5653 3.91796C19.6576 3.95229 19.7772 4.00334 19.8964 4.08104C19.9933 4.14425 20.1448 4.26061 20.2646 4.45019L20.3144 4.53612L20.3769 4.66991C20.5201 5.00093 20.6436 5.46791 20.7841 6.01757C20.8514 6.28045 21.1129 7.09663 21.2089 8.2578C21.2486 8.73821 21.3007 9.49591 21.2958 11.0205C21.2909 12.5331 21.2319 14.7497 21.1317 16.4609C21.0317 18.1711 20.9044 19.3512 20.8114 19.998C20.7654 20.3182 20.7339 20.5567 20.7108 20.7031C20.6858 20.8627 20.654 21.0352 20.5732 21.2236C20.3643 21.7101 20.0788 22.1279 19.6357 22.4267C19.1907 22.7266 18.6096 22.8851 17.3583 22.8486C16.404 22.8208 14.6241 22.763 12.4579 22.709C10.3002 22.6552 7.80754 22.607 6.53604 22.5693C5.90989 22.5508 5.54294 22.5359 5.32608 22.5166C5.22936 22.508 5.08697 22.4929 4.94718 22.4502C4.86528 22.4251 4.7587 22.3832 4.64835 22.3096C4.53142 22.2315 4.45514 22.1472 4.41397 22.0976C4.1964 21.8353 4.06824 21.525 3.99796 21.2187C3.93171 20.9297 3.81629 20.0083 3.6796 18.999C3.62854 18.622 3.60958 18.5503 3.50284 17.5107C3.39728 16.4826 3.20668 14.5248 3.13761 12.4853C3.0686 10.4472 3.11999 8.40208 3.17179 7.20507C3.22058 6.07776 3.25225 5.59337 3.35831 5.22265C3.42194 5.00046 3.51272 4.63969 3.61222 4.37304C3.66614 4.22862 3.74444 4.04693 3.86222 3.87597C3.98139 3.70313 4.17813 3.48759 4.48429 3.36132C4.45437 3.3737 4.41299 3.39537 4.49405 3.35351C4.54497 3.32721 4.62282 3.2883 4.72061 3.24999C4.92329 3.17069 5.17495 3.10711 5.48819 3.09276C5.95751 3.0713 6.53515 3.07619 7.163 3.09569C7.16285 3.07799 7.163 3.06327 7.163 3.05175C7.16313 2.80755 7.25088 2.58373 7.3964 2.41015C7.39898 2.38436 7.40151 2.35796 7.40616 2.33202L7.42081 2.25683C7.44531 2.14337 7.50756 1.92911 7.66886 1.73046L7.77921 1.59472L7.92862 1.5039C8.19296 1.34458 8.45683 1.27928 8.76065 1.24511C9.03394 1.21438 9.40878 1.20231 9.93546 1.19335H9.95108C10.8371 1.19222 12.4954 1.1968 13.4589 1.20214ZM5.57999 5.09081C5.52996 5.09311 5.49612 5.09928 5.4755 5.10448C5.45285 5.16904 5.42646 5.25084 5.3964 5.35741C5.37913 5.41863 5.36206 5.48222 5.34269 5.55272C5.32371 5.62179 5.303 5.69718 5.28116 5.77343C5.27425 5.7977 5.25649 5.86724 5.23624 6.10155C5.21574 6.33904 5.19541 6.70097 5.16983 7.29198C5.11939 8.45799 5.06997 10.4476 5.13663 12.417C5.20329 14.3855 5.38855 16.2885 5.49308 17.3066C5.5963 18.312 5.61053 18.3575 5.66104 18.7305C5.73423 19.2708 5.79556 19.7358 5.84659 20.1074C5.87058 20.2821 5.89137 20.4293 5.90909 20.5459C6.07821 20.5528 6.30149 20.5606 6.59561 20.5693C7.86435 20.6069 10.3277 20.6556 12.5077 20.71C14.6792 20.7641 16.4695 20.822 17.4159 20.8496C17.962 20.8655 18.2534 20.8338 18.4013 20.8037C18.4692 20.7899 18.4994 20.7781 18.5058 20.7754C18.5081 20.7744 18.5081 20.7748 18.5175 20.7685C18.5462 20.7492 18.6189 20.6944 18.7235 20.458C18.7261 20.4447 18.7304 20.4235 18.7353 20.3926C18.7562 20.2592 18.7793 20.0806 18.8319 19.7139C18.9148 19.1373 19.0369 18.015 19.1347 16.3437C19.2324 14.6734 19.291 12.4938 19.2958 11.0137C19.3005 9.54632 19.2507 8.84617 19.2157 8.42284C19.1372 7.47203 18.9343 6.85927 18.8456 6.51269C18.7521 6.14681 18.6839 5.90085 18.6347 5.73632C18.3823 5.68962 18.096 5.66038 17.8163 5.62499L17.7987 5.62304L17.7812 5.62011C17.6026 5.59091 17.4253 5.55859 17.2958 5.53612C17.25 5.5285 17.1978 5.52083 17.0321 5.50194C16.9829 5.49632 16.9351 5.48595 16.8886 5.47362C16.8155 5.67582 16.6852 5.89995 16.4462 6.07519C16.224 6.23813 15.944 6.41536 15.4911 6.5371C15.0773 6.64832 14.5556 6.7037 13.8446 6.7119C12.9542 6.72218 11.3302 6.74827 10.3847 6.70214C9.83513 6.67533 9.26661 6.64621 8.81729 6.5703C8.59331 6.53245 8.33448 6.47361 8.09757 6.36425C7.86902 6.25869 7.52091 6.04035 7.35147 5.61034C7.29267 5.46097 7.25057 5.2982 7.22354 5.09862C6.57208 5.07671 6.00867 5.07122 5.57999 5.09081ZM9.96769 3.19335C9.5883 3.19982 9.33789 3.21038 9.16593 3.22069C9.16935 3.44447 9.17586 3.88045 9.19034 4.60351C9.49587 4.65124 9.9215 4.67673 10.4823 4.70409C11.3504 4.74644 12.8907 4.72264 13.8212 4.7119C14.4597 4.70454 14.7912 4.65391 14.9716 4.60546C14.9787 4.60356 14.9855 4.60053 14.9921 4.59862C14.9913 4.52369 14.9915 4.43087 14.9921 4.34179C14.9926 4.26476 14.9742 4.09646 14.9325 3.82323C14.9093 3.67076 14.8722 3.44173 14.8398 3.23729C14.7939 3.22962 14.743 3.2213 14.6835 3.2119C14.6784 3.21137 14.6317 3.20663 14.4384 3.20507C14.2273 3.20337 13.947 3.2049 13.4482 3.20214C12.4933 3.19685 10.8517 3.19229 9.96769 3.19335Z" fill="black"/>
</svg>
