<svg width="24" height="24" viewBox="0 0 24 24" fill="none" xmlns="http://www.w3.org/2000/svg">
<path d="M11.2894 1.08414C11.7711 1.0913 12.1656 1.10167 12.4505 1.11246C12.5922 1.11783 12.7105 1.12372 12.8002 1.12906C12.8479 1.1319 12.9849 1.13883 13.0892 1.16031C13.6116 1.26822 13.9523 1.76508 13.8744 2.28629C14.2022 2.59635 14.758 3.11186 15.0882 3.4191C15.263 3.58172 15.3477 3.6605 15.4164 3.71891C15.4685 3.76319 15.5078 3.79294 15.5824 3.84098C15.7694 3.96139 16.156 4.18257 16.766 4.64957C17.3422 5.09081 18.1712 5.79205 18.6722 6.19547C19.2031 6.6229 19.4457 6.78704 19.7191 6.99625C19.8301 7.08122 19.9525 7.17402 20.056 7.25895C20.1515 7.33731 20.2859 7.45292 20.3978 7.59C20.8234 8.11171 20.8762 8.75648 20.9271 9.61539C20.9697 10.3348 21.0414 11.684 21.0589 13.1242C21.0764 14.5584 21.0481 16.0357 21.016 16.8361C20.9819 17.6853 20.9753 17.8992 20.9574 18.0597C20.9511 18.1161 20.9482 18.1646 20.9378 18.2912C20.9282 18.408 20.9146 18.5594 20.89 18.7765C20.853 19.1026 20.7849 19.7495 20.725 20.1291C20.6663 20.5004 20.5962 20.8929 20.4877 21.2228C20.3947 21.5051 20.1884 22.0217 19.6683 22.2873C19.533 22.3563 18.9535 22.768 18.1009 22.8517C18.03 22.8587 17.9496 22.8763 17.6732 22.9171C17.4401 22.9516 17.1399 22.9891 16.7845 23.0099C16.3325 23.0364 16.0233 23.0632 15.1214 23.0793C14.3413 23.0931 12.9152 23.1076 11.9486 23.0871C10.9777 23.0664 10.4559 23.0101 9.83043 22.9728C9.51095 22.9538 9.14647 22.9407 8.78062 22.9269C8.42224 22.9134 8.05693 22.8988 7.75914 22.8791C6.91995 22.8234 6.53191 22.7972 6.348 22.7834C6.20595 22.7727 5.71896 22.7652 5.24351 22.6369C5.23322 22.6343 4.94785 22.5677 4.78355 22.5138C4.63613 22.4655 4.19712 22.319 3.92613 21.9181C3.78315 21.7065 3.63889 21.4439 3.51597 21.1173C3.31367 20.5798 3.22182 20.287 3.18882 19.8439C3.17516 19.6607 3.13277 19.3763 3.07652 18.1154C3.0377 17.2453 2.9808 15.7217 3.00816 13.3175C3.03542 10.9228 3.14322 7.747 3.19664 6.13981C3.22306 5.34473 3.23521 4.91478 3.24449 4.67594C3.25397 4.43213 3.2626 4.30103 3.30113 4.12711C3.4795 3.32289 3.60485 2.92005 3.723 2.66129C3.71524 2.6783 3.71409 2.6826 3.7396 2.60856C3.75786 2.55557 3.78889 2.46516 3.82847 2.37027C3.89662 2.20696 4.05558 1.86228 4.39878 1.6193L4.49058 1.55777C4.59247 1.49366 4.72793 1.42351 4.91343 1.3693C5.12275 1.3082 5.36184 1.27681 5.64 1.25992C6.09277 1.23244 6.9113 1.19382 7.34214 1.17691C7.53695 1.16925 7.62812 1.15523 7.85777 1.13297C8.08384 1.11106 8.36049 1.09152 8.82652 1.08707C9.47804 1.08085 10.6642 1.07485 11.2894 1.08414ZM8.84507 3.08707C8.43428 3.091 8.21618 3.10722 8.05113 3.1232C7.88994 3.13883 7.69171 3.16527 7.42027 3.17594C6.99851 3.19249 6.19523 3.22967 5.76109 3.25602C5.70922 3.25917 5.66513 3.26418 5.62828 3.26773C5.61989 3.29209 5.60843 3.32442 5.59703 3.35563L5.51109 3.57047C5.4676 3.6934 5.38544 3.96823 5.25425 4.55973C5.25242 4.56795 5.25279 4.56138 5.2523 4.56656C5.25015 4.589 5.24707 4.63732 5.24253 4.75406C5.23348 4.98722 5.22273 5.39181 5.19566 6.20621C5.14201 7.82023 5.03513 10.9717 5.00816 13.34C4.98131 15.6989 5.03702 17.1848 5.07457 18.0265C5.12909 19.2487 5.16616 19.4567 5.18394 19.6955C5.19115 19.7922 5.20039 19.8498 5.22105 19.9269C5.24679 20.0228 5.29229 20.1578 5.38804 20.4123C5.42022 20.4977 5.45317 20.572 5.4857 20.6349C5.50545 20.6402 5.52751 20.6474 5.5521 20.6535C5.58524 20.6616 5.61188 20.6677 5.64976 20.6769C5.68327 20.685 5.72454 20.6953 5.765 20.7062C6.00075 20.7698 6.18864 20.766 6.49742 20.7892C6.67054 20.8023 7.05017 20.8281 7.89195 20.8839C8.15558 20.9014 8.49028 20.914 8.85679 20.9279C9.2161 20.9415 9.60405 20.9561 9.94957 20.9767C10.654 21.0187 11.07 21.0675 11.9916 21.0871C12.9179 21.1067 14.3125 21.094 15.0863 21.0802C15.9399 21.065 16.2068 21.0409 16.6683 21.0138C16.947 20.9975 17.1852 20.9676 17.3812 20.9386C17.4817 20.9238 17.5667 20.9091 17.6517 20.8957C17.7266 20.8838 17.8212 20.8698 17.9056 20.8615C18.2094 20.8316 18.3068 20.7543 18.5863 20.5998L18.5873 20.5978C18.6398 20.4382 18.6903 20.1905 18.7494 19.8166C18.8004 19.494 18.861 18.9181 18.9027 18.5509C18.9246 18.3575 18.9365 18.2269 18.9447 18.1271C18.9521 18.0372 18.9595 17.933 18.9701 17.838C18.9776 17.7709 18.9809 17.6781 19.0179 16.756C19.0487 15.991 19.076 14.5484 19.0589 13.1486C19.0449 11.993 18.9913 10.8932 18.9505 10.1476C18.8281 10.1681 18.7206 10.175 18.6625 10.1779C18.58 10.182 18.4878 10.1866 17.5375 10.215C16.5832 10.2435 14.7877 10.2956 13.8627 10.3068C13.6477 10.3094 13.4136 10.3117 13.2132 10.2912C13.0212 10.2715 12.6872 10.2175 12.3919 9.97574C12.0719 9.71332 11.965 9.37228 11.9212 9.15152C11.8807 8.94702 11.871 8.71577 11.8636 8.53238C11.8311 7.71965 11.8099 6.18298 11.7962 5.2902C11.782 4.35985 11.7801 4.13406 11.7679 3.97574C11.7516 3.76283 11.7403 3.41287 11.7337 3.09488C11.5882 3.09092 11.4295 3.08668 11.2591 3.08414C10.661 3.07526 9.49732 3.08085 8.84507 3.08707ZM13.7962 5.25992C13.8094 6.11589 13.8296 7.49515 13.8578 8.30582C14.7666 8.29435 16.523 8.24451 17.4779 8.21598C17.6888 8.20967 17.8565 8.20254 17.9906 8.1984C17.8318 8.07803 17.6414 7.93369 17.4183 7.75406C16.8399 7.28835 16.11 6.66615 15.5502 6.23746C15.0249 5.83526 14.7437 5.67926 14.5003 5.52262C14.2188 5.34135 14.0692 5.20126 13.7904 4.94156C13.7918 5.03881 13.7945 5.14469 13.7962 5.25992Z" fill="black"/>
</svg>
