<svg width="24" height="24" viewBox="0 0 24 24" fill="none" xmlns="http://www.w3.org/2000/svg">
<path d="M13.6908 1.2222C14.012 1.2244 14.2956 1.37899 14.4769 1.61576L14.6664 1.73001L14.6752 1.73587L15.5306 2.28372C15.7486 2.42288 15.9043 2.52305 15.9632 2.56107C16.1536 2.68388 16.4056 2.83099 17.0257 3.33353C17.4585 3.68422 18.3474 4.38709 18.8959 4.88724C19.2718 5.23006 19.5783 5.51635 19.8119 5.76029C20.0371 5.9955 20.2537 6.25112 20.3968 6.53568C20.5569 6.85402 20.5944 7.12383 20.6273 7.44583C20.6861 8.02184 20.7672 8.7468 20.8177 9.35013C20.8448 9.67344 20.8516 9.91306 20.8197 10.9488C20.7878 11.9823 20.7171 13.809 20.6781 14.9146C20.6391 16.0215 20.6311 16.449 20.5453 17.3648C20.4663 18.2074 20.3472 19.6207 20.1732 20.4478C20.0754 20.9129 20.0004 21.2623 19.932 21.4995C19.8991 21.6138 19.8507 21.7638 19.7757 21.9048C19.7067 22.0346 19.5286 22.3219 19.1566 22.4566C18.6639 22.6346 18.1312 22.762 17.6869 22.7857C17.4714 22.7971 17.1421 22.8088 15.0091 22.7525C12.8644 22.6958 8.98481 22.5732 6.99743 22.5044C6.00745 22.4702 5.47831 22.45 5.18493 22.4351C4.91617 22.4214 4.76097 22.4097 4.59118 22.3628C4.49507 22.3363 4.37173 22.3021 4.25915 22.2603C4.17367 22.2285 3.95377 22.1443 3.76501 21.9624C3.53647 21.742 3.43843 21.4659 3.37829 21.2544C3.3115 21.0196 3.2463 20.6879 3.17711 20.2076C3.06329 19.4171 2.88578 18.0362 2.76208 16.6568C2.63755 15.2682 2.56963 13.9246 2.57555 12.0913C2.58143 10.2708 2.65813 8.02152 2.76403 6.5474C2.87129 5.05438 3.00548 4.36193 3.09411 3.93704C3.17588 3.54504 3.20704 3.41798 3.23083 3.32083C3.2766 3.13385 3.35024 2.82108 3.44372 2.54349C3.49042 2.4048 3.5538 2.23803 3.63903 2.08158C3.70456 1.9613 3.87086 1.67579 4.19469 1.50345L4.32067 1.44486C4.37162 1.42405 4.43276 1.40321 4.50426 1.38529C4.61736 1.35699 4.73423 1.34184 4.84801 1.33158C5.07635 1.31099 5.44118 1.29661 6.05602 1.28665C7.24676 1.26739 9.51252 1.23937 10.9691 1.22708C12.429 1.21477 13.0611 1.21834 13.6908 1.2222ZM10.9857 3.22708C9.53436 3.23933 7.27384 3.26747 6.08825 3.28665C5.72882 3.29247 5.47777 3.29971 5.30211 3.30716C5.25768 3.45818 5.21475 3.62672 5.17321 3.79642C5.15593 3.86701 5.13016 3.97108 5.05211 4.34525C4.98091 4.68661 4.85877 5.2907 4.75817 6.69095C4.65621 8.11032 4.58132 10.3131 4.57555 12.0982C4.56984 13.8702 4.63533 15.1518 4.75426 16.4781C4.874 17.8132 5.04647 19.1576 5.15661 19.9224C5.18823 20.142 5.21667 20.3088 5.24059 20.4341C5.25479 20.4349 5.2702 20.4372 5.28649 20.438C5.56011 20.452 6.07171 20.471 7.06676 20.5054C9.05101 20.574 12.9245 20.697 15.0619 20.7535C17.2087 20.8102 17.4582 20.7951 17.5804 20.7886C17.6974 20.7824 17.8688 20.752 18.0707 20.6997C18.1071 20.5428 18.1545 20.3289 18.2162 20.0357C18.3599 19.3523 18.4669 18.0989 18.5531 17.1783C18.6325 16.3309 18.6396 15.9636 18.6791 14.8443C18.7186 13.7236 18.789 11.9162 18.8207 10.8872C18.8523 9.86058 18.8414 9.71834 18.8246 9.51712C18.8136 9.38621 18.7979 9.25026 18.7845 9.11087C18.2666 9.12025 17.8059 9.12789 17.5101 9.13724C17.3145 9.14343 17.193 9.14902 17.0541 9.15579C16.9117 9.16274 16.7549 9.17047 16.4994 9.17826C15.9977 9.19352 15.1264 9.21005 14.639 9.21048C14.408 9.21068 14.2308 9.20897 14.099 9.19974C13.9481 9.18912 13.7714 9.16416 13.5795 9.07474C13.4793 9.02804 13.3349 8.95343 13.1986 8.84329C13.0755 8.74373 12.8295 8.51113 12.7621 8.12259C12.7461 8.03024 12.7414 7.92789 12.7386 7.87161C12.7349 7.79475 12.7309 7.6929 12.7269 7.56497C12.7191 7.31067 12.7089 6.91071 12.6918 6.32865C12.6666 5.47457 12.6332 4.1793 12.597 3.47708C12.5921 3.38199 12.5865 3.29635 12.5824 3.21927C12.1781 3.21952 11.6757 3.22126 10.9857 3.22708ZM11.5922 10.5269C12.1423 10.4839 12.6238 10.8957 12.6673 11.4458C12.6935 11.7774 12.7197 12.1094 12.7787 13.1314C12.7976 13.4586 12.8182 13.8567 12.8412 14.2759C13.2822 14.2823 13.683 14.2874 13.9935 14.2896C14.7146 14.2947 14.8875 14.2898 14.9798 14.2857C15.0265 14.2836 15.0474 14.2826 15.055 14.2818C15.0642 14.2808 15.065 14.2799 15.1009 14.2749C15.6475 14.1996 16.1519 14.5819 16.2279 15.1285C16.3037 15.6753 15.9221 16.1803 15.3754 16.2564C15.3108 16.2653 15.2349 16.2763 15.0687 16.2837C14.9174 16.2904 14.6951 16.2947 13.9798 16.2896C13.699 16.2876 13.3433 16.2832 12.9496 16.2779C12.9591 16.4552 12.9692 16.6185 12.9769 16.7622L13.0375 17.8326C13.0446 17.943 13.0488 17.9986 13.0511 18.024C13.0537 18.0322 13.0582 18.0455 13.0648 18.065C13.243 18.5876 12.9633 19.1561 12.4408 19.3345C11.9182 19.5124 11.3504 19.233 11.1722 18.7105C11.123 18.566 11.0994 18.4742 11.0814 18.3726L11.0795 18.3638L11.0785 18.356C11.0543 18.2043 11.0378 17.9512 10.9798 16.8697C10.97 16.6861 10.9573 16.4709 10.9447 16.2359C9.85826 16.2025 8.92686 16.1516 8.00719 16.1011C7.45577 16.0708 7.03362 15.5998 7.06383 15.0484C7.09433 14.4972 7.5653 14.0748 8.11657 14.105C8.98758 14.1528 9.84829 14.1975 10.8353 14.23C10.8154 13.8702 10.798 13.5312 10.7816 13.2466C10.7233 12.2376 10.6982 11.9193 10.6732 11.6021C10.6303 11.0519 11.0419 10.5703 11.5922 10.5269ZM14.6195 4.07572C14.6454 4.78762 14.6729 5.66133 14.6908 6.26908C14.7026 6.66977 14.7105 6.97498 14.7172 7.20951C15.1919 7.20751 15.9769 7.19329 16.4388 7.17923C16.6781 7.17195 16.8218 7.16534 16.9574 7.15872C17.0962 7.15196 17.2324 7.145 17.4466 7.13822C17.6721 7.13109 17.9857 7.12567 18.3412 7.11869C18.1607 6.93247 17.9074 6.69332 17.5482 6.36576C17.0564 5.91727 16.2411 5.27226 15.766 4.88724C15.231 4.45373 15.0517 4.35294 14.8793 4.24173C14.822 4.20476 14.7374 4.15085 14.6195 4.07572Z" fill="black"/>
</svg>
