<svg width="24" height="24" viewBox="0 0 24 24" fill="none" xmlns="http://www.w3.org/2000/svg">
<path d="M9.66848 1.10336C10.3558 1.1042 10.4131 1.11149 11.0171 1.12289C11.6292 1.13443 12.7825 1.14995 13.4029 1.15804C14.0227 1.16613 14.0996 1.16683 14.1743 1.16683C14.6791 1.16705 15.0948 1.54109 15.1626 2.02719C15.223 2.07165 15.2871 2.11483 15.3472 2.16C15.5293 2.29627 15.8632 2.5061 16.4439 3.07308C16.8129 3.43343 17.4646 4.07205 17.9595 4.53988C18.481 5.0329 18.7584 5.28837 18.9253 5.41195C19.0495 5.50387 19.1476 5.56418 19.2603 5.63461C19.3703 5.70337 19.522 5.79839 19.6812 5.93051C20.1474 6.31744 20.7417 6.86922 21.0835 7.79281C21.2158 8.15054 21.285 8.52811 21.3638 9.26156C21.423 9.81228 21.5128 10.7167 21.5288 11.8377C21.5448 12.9514 21.49 14.2278 21.4146 15.2713C21.3388 16.3197 21.2428 17.1206 21.19 17.5868C21.1242 18.1672 21.1077 18.4122 21.0396 18.9237C20.9815 19.3593 20.8708 20.2663 20.7837 20.745C20.7358 21.0084 20.6859 21.2821 20.6138 21.5057C20.5297 21.7664 20.3876 22.0528 20.1021 22.287C20.1021 22.287 20.098 22.2906 20.0894 22.2987C20.0802 22.3072 20.0682 22.3181 20.0513 22.3348C20.0245 22.3613 19.9649 22.4223 19.9077 22.4754C19.7837 22.5907 19.5815 22.7593 19.2945 22.8719C18.8647 23.0403 18.4176 23.1703 17.8257 23.2059C17.4581 23.228 16.8181 23.2543 15.1753 23.245C13.5368 23.2356 10.957 23.191 9.4302 23.1405C7.88461 23.0893 7.41194 23.0268 7.11868 23.0008C6.92293 22.9835 6.61221 22.9603 6.31301 22.9198C6.02926 22.8812 5.64808 22.8151 5.32278 22.6727C5.19731 22.6177 4.89852 22.4941 4.62453 22.3397C4.48439 22.2607 4.32112 22.1573 4.16946 22.0291C4.0252 21.9071 3.83467 21.7146 3.71145 21.4432C3.54904 21.0851 3.43965 20.7594 3.29543 19.7606C3.18328 18.9837 2.97587 17.5186 2.85598 16.4246C2.73491 15.3199 2.70366 14.6158 2.68508 14.2518C2.66549 13.8681 2.65866 13.8083 2.66653 12.9266C2.67422 12.065 2.68873 10.4111 2.7095 9.55844C2.73255 8.61231 2.73712 8.39185 2.75442 8.15804C2.7709 7.93531 2.83309 7.27293 2.92532 6.56722C2.96757 6.24397 3.05022 5.57214 3.13235 5.13265C3.23365 4.59081 3.28866 4.27079 3.39504 3.9725C3.52495 3.60829 3.63384 3.28544 3.72805 3.05258C3.82747 2.80688 3.95903 2.53311 4.19094 2.28988C4.21658 2.26299 4.24895 2.22641 4.30227 2.16586C4.35014 2.11149 4.41214 2.03968 4.47903 1.96859C4.5955 1.84479 4.80817 1.62978 5.08059 1.48715L5.33547 1.36605C5.44295 1.32206 5.57593 1.27697 5.74075 1.2391C6.04121 1.17013 6.41948 1.13028 6.93703 1.12094C7.67171 1.10767 8.99049 1.10253 9.66848 1.10336ZM9.66653 3.10336C8.99281 3.10253 7.68866 3.10802 6.97317 3.12094C6.52763 3.12898 6.30122 3.16234 6.18801 3.18832C6.1148 3.20515 6.08708 3.21669 6.03274 3.24496C6.03099 3.2464 6.02934 3.2487 6.02688 3.25082C6.00675 3.26816 5.97691 3.29626 5.93606 3.33969C5.89526 3.38305 5.85362 3.42993 5.80325 3.48715C5.75812 3.5384 5.6971 3.60801 5.63821 3.66976C5.66745 3.63905 5.65057 3.63542 5.58254 3.80355C5.50925 3.98477 5.43011 4.22026 5.27883 4.64437C5.23941 4.75495 5.21474 4.87636 5.09817 5.49984C5.02913 5.86919 4.95641 6.46112 4.90871 6.82601C4.82081 7.49862 4.76202 8.12373 4.74856 8.30551C4.73602 8.47504 4.73249 8.62226 4.70852 9.60629C4.68823 10.4392 4.6743 12.0734 4.66653 12.9442C4.65894 13.7943 4.66498 13.8139 4.68215 14.1502C4.70034 14.5066 4.72985 15.1629 4.84426 16.2069C4.95997 17.2625 5.16256 18.696 5.27492 19.4745C5.34122 19.9336 5.39158 20.1846 5.43117 20.3358C5.45233 20.4164 5.47109 20.4703 5.49172 20.5213C5.51754 20.5398 5.55414 20.5677 5.60696 20.5975C5.76986 20.6893 5.94729 20.7626 6.12551 20.8407C6.18109 20.8649 6.32776 20.9039 6.58157 20.9383C6.82025 20.9707 7.06067 20.988 7.29446 21.0086C7.58962 21.0347 8.01257 21.0933 9.4966 21.1424C11.0011 21.1922 13.5622 21.2357 15.187 21.245C16.8069 21.2542 17.3987 21.2272 17.7056 21.2088C18.0254 21.1896 18.258 21.126 18.5327 21.0203C18.5363 21.0172 18.5414 21.0142 18.5464 21.0096C18.5737 20.9842 18.594 20.9634 18.646 20.912C18.666 20.8922 18.693 20.869 18.7222 20.8416C18.7293 20.8141 18.74 20.777 18.7505 20.7274C18.7692 20.6387 18.7898 20.53 18.8159 20.3866C18.8917 19.9701 18.9917 19.1514 19.0572 18.66C19.1231 18.1649 19.1279 18.0207 19.2027 17.3612C19.2561 16.8899 19.3471 16.1284 19.4195 15.1268C19.4922 14.1204 19.5437 12.9046 19.5288 11.8661C19.5148 10.8903 19.4391 10.091 19.3833 9.56234C19.3411 9.56762 19.2993 9.57381 19.2564 9.57797L19.2466 9.57894L19.2359 9.57992C19.0347 9.59526 18.756 9.61974 18.1431 9.67953C17.7237 9.72881 16.9206 9.82903 16.2222 9.88754C15.5157 9.9467 14.9223 9.96459 14.5581 9.9598C14.3979 9.95768 14.2001 9.95173 14.0191 9.91195C13.7756 9.85833 13.5113 9.73313 13.3091 9.4725C13.13 9.24126 13.0756 8.99839 13.0493 8.83285C13.0246 8.67665 13.0101 8.47477 12.9956 8.23031C12.9648 7.70993 12.9292 6.87789 12.8511 5.86898C12.7732 4.86275 12.6561 3.72658 12.5972 3.14926C12.5971 3.14805 12.5963 3.14655 12.5962 3.14535C12.0283 3.13746 11.3865 3.1296 10.979 3.12191C10.3529 3.1101 10.3302 3.10418 9.66653 3.10336ZM15.0171 14.1825C15.5685 14.1605 16.0335 14.5891 16.0562 15.1405C16.0784 15.6919 15.6496 16.1577 15.0982 16.1805C14.4878 16.2053 13.9087 16.2294 13.5933 16.2469C13.2814 16.2643 13.2634 16.2724 12.4527 16.3358C11.6491 16.3986 10.2257 16.4936 9.48684 16.5623C8.72042 16.6336 8.45381 16.6891 8.20754 16.7205C7.66 16.7901 7.15936 16.4018 7.08938 15.8543C7.01973 15.3066 7.40783 14.806 7.95559 14.7362C8.10087 14.7176 8.49848 14.6459 9.30227 14.5711C10.0564 14.501 11.5428 14.4006 12.2964 14.3416C13.0422 14.2833 13.1444 14.2686 13.482 14.2498C13.8164 14.2312 14.4153 14.2069 15.0171 14.1825ZM14.8452 5.71469C14.917 6.64086 14.9553 7.44887 14.9829 7.95199C15.2684 7.9443 15.636 7.93045 16.0552 7.89535C16.7144 7.84012 17.476 7.74491 17.9165 7.6932L17.9361 7.69125C18.2068 7.66483 18.4169 7.64654 18.5864 7.6307C18.5281 7.57819 18.4686 7.52332 18.4038 7.46957C18.3605 7.43363 18.3151 7.40307 18.1997 7.3309C18.0868 7.26028 17.929 7.16208 17.7349 7.0184C17.4481 6.80599 17.0683 6.44943 16.5855 5.99301C16.0758 5.51113 15.4091 4.85889 15.0464 4.50472C14.9161 4.37744 14.8057 4.277 14.7105 4.19418C14.7565 4.67576 14.8062 5.21024 14.8452 5.71469Z" fill="black"/>
</svg>
