<svg width="24" height="24" viewBox="0 0 24 24" fill="none" xmlns="http://www.w3.org/2000/svg">
<path d="M12.9398 1.11071C13.3351 0.725349 13.9683 0.733115 14.3538 1.12829C14.391 1.16637 14.4277 1.20404 14.4818 1.25524C14.6773 1.33791 14.8376 1.47854 14.9447 1.65368C15.3114 1.95575 15.8208 2.36209 16.179 2.65563C16.3665 2.80922 16.4905 2.91517 16.5912 3.00231C16.6922 3.08977 16.7559 3.14572 16.8402 3.21422C17.3317 3.61384 17.7623 4.01347 17.9828 4.21032C18.1396 4.35039 18.3944 4.61437 19.0257 5.11364C19.1903 5.24374 19.3755 5.3795 19.5726 5.52379C19.7601 5.6611 19.967 5.81306 20.139 5.95348C20.365 6.13795 20.6282 6.35595 20.8353 6.62536C21.0705 6.93144 21.2087 7.26561 21.2757 7.65758C21.3266 7.95504 21.3564 8.30125 21.3372 9.51891C21.3179 10.7455 21.2484 12.8648 21.1136 14.7103C20.98 16.5385 20.8138 18.0824 20.6595 18.9554C20.4579 20.0964 20.421 20.3369 20.2855 20.8324C20.2174 21.0813 20.1317 21.5372 19.7904 21.9623C19.5657 22.242 19.2479 22.4292 18.8597 22.4877C18.4893 22.5434 17.8108 22.6349 17.183 22.6732C16.9389 22.6881 16.5732 22.701 15.1283 22.6908C13.6781 22.6805 11.192 22.6472 9.92514 22.6283C9.29104 22.6188 8.95981 22.6127 8.7767 22.6088C8.57518 22.6044 8.57665 22.6037 8.56283 22.6039C8.34624 22.6073 7.84222 22.6028 7.05111 22.5521C6.69779 22.5295 6.14868 22.5061 5.82651 22.4506C5.73046 22.434 5.64154 22.4207 5.55014 22.4066C5.46372 22.3933 5.36602 22.3773 5.27377 22.3597C5.11422 22.3293 4.823 22.2686 4.55795 22.0873C4.33911 21.9375 4.08782 21.7426 3.76498 21.2718C3.69323 21.1674 3.38991 20.8094 3.28451 20.2777C3.22179 19.9609 3.16797 19.6792 3.09897 19.431C3.02797 19.1756 2.96594 18.9554 2.82358 17.6605C2.78342 17.2953 2.75785 17.0495 2.75522 16.2689C2.75269 15.5172 2.76483 14.2663 2.78256 13.6088C2.80393 12.8164 2.81998 12.5315 2.84115 12.2992C2.85087 12.1928 2.88273 11.9869 2.90561 11.8187C2.934 11.6099 2.97101 11.3128 3.00815 10.892C3.06355 10.2639 3.15963 9.08388 3.20932 8.45251C3.25929 7.81749 3.26388 7.70864 3.34408 7.15368C3.42582 6.58815 3.57109 5.71464 3.6351 5.21422C3.74106 4.38575 3.78461 3.94874 3.84604 3.43395C3.87356 3.20328 3.9021 2.88256 4.06967 2.49157C4.14091 2.32538 4.24493 2.10875 4.39389 1.90856C4.5383 1.7146 4.79065 1.44659 5.18393 1.3236L5.38119 1.26891C5.57587 1.2201 5.76562 1.18924 5.97885 1.16247C6.1643 1.1392 6.40178 1.12475 7.73666 1.12633C9.09866 1.12795 11.577 1.14668 12.8226 1.15758C12.8473 1.1578 12.8721 1.15835 12.8958 1.15856C12.9102 1.14265 12.9242 1.12588 12.9398 1.11071ZM7.73373 3.12633C6.3589 3.12471 6.26094 3.14265 6.22787 3.14684C6.10861 3.16182 6.02106 3.1755 5.94955 3.18981C5.93682 3.21552 5.9222 3.24552 5.90756 3.27965C5.86941 3.36874 5.86217 3.41327 5.83139 3.67126C5.77533 4.14108 5.72586 4.63632 5.61947 5.46813C5.55472 5.97439 5.39241 6.96355 5.32358 7.43981C5.25332 7.92598 5.25304 7.9797 5.20346 8.60973C5.15352 9.24427 5.05651 10.4309 5.00033 11.0677C4.96023 11.5223 4.92032 11.8508 4.88803 12.0882C4.87209 12.2054 4.85789 12.3012 4.84799 12.3695C4.84289 12.4046 4.839 12.4309 4.83627 12.4515C4.83499 12.4612 4.83396 12.4687 4.83334 12.474C4.83288 12.4779 4.83248 12.4802 4.83236 12.4808C4.81755 12.6434 4.80291 12.8718 4.78158 13.6625C4.76452 14.2952 4.75274 15.5254 4.75522 16.2621C4.7576 16.9697 4.77921 17.1448 4.81186 17.4418C4.95011 18.6993 4.99765 18.7949 5.02572 18.8959C5.11984 19.2345 5.19006 19.6043 5.24643 19.889L5.24838 19.8978V19.8988C5.24866 19.8992 5.24984 19.8998 5.25033 19.9007C5.25138 19.9028 5.25335 19.907 5.25717 19.9134C5.26578 19.9279 5.27945 19.9487 5.30697 19.9877C5.32694 20.0159 5.37627 20.0854 5.4144 20.141C5.50574 20.2742 5.56336 20.3358 5.59115 20.3627C5.60228 20.3734 5.61352 20.38 5.62631 20.39C5.63286 20.3914 5.64055 20.3933 5.64877 20.3949C5.70095 20.4048 5.76433 20.4159 5.8558 20.43C5.94261 20.4435 6.05027 20.4596 6.16733 20.4798C6.34945 20.5112 6.70872 20.5259 7.17904 20.556C7.92863 20.6041 8.37855 20.6073 8.53158 20.6048C8.59562 20.6039 8.66435 20.6064 8.81967 20.6097C8.99711 20.6136 9.32422 20.6199 9.95541 20.6293C11.2212 20.6481 13.7 20.6806 15.1419 20.6908C16.5874 20.701 16.8923 20.6874 17.0609 20.6771C17.48 20.6516 17.9414 20.5932 18.2904 20.5453C18.2913 20.5421 18.2934 20.5389 18.2943 20.5355C18.3027 20.505 18.3112 20.4722 18.3216 20.433C18.3318 20.3949 18.3432 20.3511 18.3558 20.305C18.461 19.9202 18.4808 19.7904 18.6898 18.6078C18.8257 17.8389 18.987 16.3774 19.1195 14.5638C19.2507 12.7671 19.3183 10.6876 19.3372 9.48669C19.3412 9.23376 19.3412 9.02569 19.3412 8.85387C19.0875 8.85786 18.7387 8.86131 18.0413 8.8568C17.0763 8.85056 15.4727 8.83279 14.6292 8.80993C14.2132 8.79865 13.9554 8.78564 13.7884 8.76891C13.615 8.75149 13.4197 8.72044 13.2142 8.60387C13.1919 8.59123 13.0575 8.51829 12.932 8.37926C12.8005 8.23344 12.7297 8.07598 12.6908 7.94665C12.6278 7.73721 12.6263 7.51555 12.6283 7.35973C12.634 6.9105 12.6469 6.5224 12.6585 6.21618C12.6707 5.89608 12.6799 5.69769 12.681 5.58434C12.6857 5.09521 12.6712 4.75041 12.6644 4.43688C12.6548 3.99482 12.6415 3.54857 12.6302 3.15563C11.3394 3.14459 9.02647 3.12787 7.73373 3.12633ZM15.9915 16.0931C16.5406 16.0374 17.0319 16.4376 17.0882 16.9867C17.1443 17.5358 16.7438 18.0269 16.1947 18.0834C16.1657 18.0863 16.0855 18.0966 15.9779 18.1029C15.8805 18.1086 15.7418 18.1122 15.2367 18.1273C14.7181 18.1428 13.8234 18.1691 12.4593 18.2025C11.0959 18.2359 9.31639 18.2748 8.39975 18.2943C7.49177 18.3136 7.42319 18.3138 7.35678 18.3138C6.80449 18.3138 6.35678 17.8661 6.35678 17.3138C6.35705 16.7618 6.80466 16.3138 7.35678 16.3138C7.39611 16.3138 7.43752 16.3148 8.35776 16.2953C9.27367 16.2758 11.0503 16.2368 12.4105 16.2035C13.7695 16.1702 14.6602 16.1437 15.1771 16.1283C15.7058 16.1125 15.8013 16.1093 15.8617 16.1058C15.9111 16.1029 15.9086 16.1016 15.9915 16.0931ZM15.7093 11.9252C16.2613 11.9138 16.7183 12.3526 16.7298 12.9047C16.7409 13.4564 16.303 13.9134 15.7513 13.9252C15.6109 13.9281 15.486 13.9301 15.4046 13.933C15.3021 13.9366 15.2451 13.9408 13.931 13.9603C12.6137 13.9799 10.1017 14.0143 8.83529 14.0316C7.58064 14.0487 7.54304 14.0492 7.51303 14.0492C6.96093 14.0492 6.51333 13.6012 6.51303 13.0492C6.51303 12.4969 6.96074 12.0492 7.51303 12.0492C7.52494 12.0492 7.54516 12.0488 8.80795 12.0316C10.0746 12.0143 12.5848 11.9799 13.9007 11.9603C15.2174 11.9408 15.2552 11.9377 15.3333 11.9349C15.4329 11.9314 15.5754 11.928 15.7093 11.9252ZM6.5726 8.85094C6.67415 8.30824 7.19685 7.94981 7.73959 8.05114C7.75634 8.05427 7.75882 8.0547 7.76108 8.05504C7.76307 8.05535 7.77036 8.05648 7.78549 8.05797C7.82215 8.06158 7.89576 8.06747 8.0433 8.0736C8.34226 8.08601 8.88547 8.09863 9.18881 8.10387C9.34198 8.10652 9.40886 8.10662 9.44272 8.10583C9.98851 8.02316 10.4984 8.39895 10.5814 8.94469C10.6642 9.49052 10.2892 10.0002 9.7435 10.0834C9.57235 10.1093 9.44647 10.1089 9.15463 10.1039C8.84694 10.0986 8.28402 10.0851 7.96029 10.0716C7.62362 10.0577 7.50372 10.0425 7.3724 10.0179C6.8296 9.91647 6.47126 9.39374 6.5726 8.85094ZM14.6634 4.39391C14.6695 4.67336 14.6852 5.07315 14.68 5.60387C14.6785 5.75486 14.6673 6.00896 14.6566 6.29235C14.6508 6.44606 14.6472 6.61921 14.6419 6.80895C14.6553 6.80934 14.6691 6.81053 14.683 6.8109C15.4938 6.83288 17.0497 6.84939 18.016 6.85583C17.939 6.79789 17.8599 6.74181 17.7855 6.68297C17.0918 6.13443 16.7342 5.77614 16.6507 5.70153C16.398 5.47589 16.0226 5.12707 15.5785 4.76598C15.4646 4.67345 15.3736 4.59468 15.2816 4.51501C15.1892 4.43506 15.0804 4.34093 14.9115 4.20251C14.8384 4.14267 14.7498 4.07111 14.6527 3.99254C14.6558 4.12601 14.6605 4.26056 14.6634 4.39391Z" fill="black"/>
</svg>
