<svg width="24" height="24" viewBox="0 0 24 24" fill="none" xmlns="http://www.w3.org/2000/svg">
<path d="M6.95404 1.757C8.03032 1.71349 8.59872 1.79027 9.06341 2.02751C9.30301 2.14989 9.47681 2.32032 9.59466 2.45329C9.71353 2.58743 9.82079 2.73748 9.90814 2.86149C10.097 3.12958 10.2627 3.37677 10.4999 3.64274C10.825 4.00717 11.3656 4.48318 11.7343 4.82145C11.9033 4.97647 11.9984 5.05753 12.0507 5.1027H13.1816C14.5353 5.1027 17.2192 5.10289 18.6464 5.10954C19.3999 5.11305 19.8398 5.12397 20.1113 5.14274C20.3287 5.15778 20.4936 5.1809 20.6523 5.23258L20.8105 5.29411L21.0341 5.41032C21.2617 5.54069 21.4967 5.70806 21.6894 5.85172C21.9681 6.05952 22.2476 6.2857 22.4511 6.45231C23.0133 6.91247 23.0375 7.62134 23.0312 7.58512C23.0654 7.78275 23.0841 8.05327 23.123 9.52555C23.1631 11.0453 23.221 13.9016 23.2451 15.4259C23.2687 16.9242 23.2592 17.1025 23.2285 17.3683C23.1751 17.829 23.122 18.2009 23.0663 18.4797C22.8969 19.3277 22.7678 19.8207 22.538 20.2609C22.3575 20.6067 22.203 20.8958 22.0331 21.1281C21.8332 21.4015 21.6286 21.5763 21.3925 21.7414C21.2729 21.825 21.1587 21.881 21.0585 21.9191C20.9927 21.9442 20.9102 21.968 20.8964 21.9718C20.7296 22.0225 20.5754 22.0309 20.3622 22.0422C20.1115 22.0554 19.6478 22.0743 18.7646 22.1056C16.994 22.1685 13.4936 22.2832 10.8788 22.3175C8.25653 22.352 6.62635 22.302 5.49408 22.2453C4.36317 22.1886 3.77617 22.1267 3.41595 22.0822C2.74183 21.9988 2.28398 21.8295 1.89056 21.4543C1.5196 21.1003 1.42276 20.612 1.35345 20.34C1.2611 19.9777 1.13891 19.3439 1.06829 18.8996C0.982518 18.3597 0.98258 18.0085 1.039 15.6828C1.09657 13.3095 1.21887 8.80974 1.28607 6.47184C1.31964 5.30385 1.33886 4.70592 1.35052 4.39372C1.35629 4.23929 1.35965 4.14685 1.36322 4.08805C1.36502 4.05834 1.36712 4.02896 1.37005 4.00016C1.37163 3.98466 1.37402 3.97021 1.37591 3.95622C1.37715 3.94702 1.37844 3.93744 1.37884 3.93473L1.42083 3.71501C1.47467 3.47657 1.56278 3.19238 1.66693 2.96305L1.7138 2.86833C1.96426 2.41987 2.40302 2.29009 2.61029 2.24137C2.8246 2.19103 3.1244 2.15796 3.40423 2.12223C4.00134 2.04598 5.12713 1.9148 5.75482 1.84587C6.51109 1.76281 6.68931 1.76769 6.95404 1.757ZM7.03509 3.75504C6.77353 3.76561 6.65462 3.75924 5.97259 3.83415C5.35127 3.90239 4.23823 4.03143 3.65716 4.10563C3.54673 4.11973 3.45607 4.13064 3.37689 4.14079C3.36937 4.17282 3.3624 4.19827 3.35931 4.21598C3.35722 4.25222 3.35393 4.32449 3.34857 4.46794C3.33726 4.77052 3.31867 5.361 3.28509 6.52946C3.21796 8.86539 3.09648 13.3622 3.039 15.7316C2.98038 18.1481 2.993 18.2721 3.0429 18.5861C3.10801 18.9957 3.22006 19.5639 3.29193 19.8459C3.31214 19.9252 3.32795 19.9863 3.34173 20.0363C3.39709 20.0526 3.49537 20.0772 3.66204 20.0978C3.96822 20.1357 4.50658 20.1937 5.59466 20.2482C6.68216 20.3027 8.26999 20.3515 10.8525 20.3175C13.4429 20.2835 16.9244 20.1694 18.6943 20.1066C19.5805 20.0751 20.0264 20.0573 20.2568 20.0451C20.284 20.0436 20.3074 20.0414 20.3271 20.0402C20.3729 20.0032 20.3944 19.9809 20.4189 19.9474C20.4846 19.8575 20.5722 19.7056 20.7656 19.3351C20.8497 19.1739 20.9361 18.9357 21.1054 18.0881C21.145 17.8896 21.1908 17.5808 21.2421 17.1379C21.2545 17.0313 21.2694 16.9997 21.2451 15.4572C21.2211 13.9387 21.1629 11.0898 21.123 9.57829C21.0821 8.02918 21.0633 7.94287 21.0605 7.92692C21.0586 7.91634 21.0572 7.90559 21.0556 7.89567C20.8824 7.75519 20.6853 7.59779 20.4941 7.45524C20.2791 7.29496 20.1192 7.19332 20.0292 7.14274C20.0143 7.1414 19.9958 7.1394 19.9736 7.13786C19.7743 7.12408 19.3934 7.11306 18.6367 7.10954C17.2151 7.10292 14.5374 7.1027 13.1816 7.1027H11.7714C11.6256 7.10268 11.4871 7.07091 11.3622 7.01481C11.2361 6.97998 11.1152 6.92049 11.0077 6.83512L10.9492 6.78434C10.9522 6.787 10.9541 6.78941 10.955 6.7902C10.9534 6.7889 10.9496 6.78577 10.9413 6.77946C10.9371 6.7762 10.9326 6.77223 10.9267 6.76774C10.9211 6.76347 10.9142 6.75846 10.9072 6.75309C10.8169 6.68443 10.7201 6.60461 10.3827 6.29508C10.0819 6.019 9.41953 5.43743 9.00677 4.97477C8.67418 4.60194 8.43203 4.23812 8.27337 4.01286C8.19484 3.90136 8.14401 3.83616 8.10736 3.79313C8.08338 3.78699 8.04334 3.7787 7.98138 3.77067C7.81588 3.74926 7.53087 3.73501 7.03509 3.75504ZM12.1777 9.61149C12.5704 9.22339 13.2035 9.22677 13.5917 9.6193C13.8423 9.87289 13.9287 10.2266 13.8535 10.55L13.8505 10.5617C13.8424 10.6055 13.826 10.7017 13.791 10.9074C13.73 11.265 13.6219 11.9255 13.538 12.757C14.0686 12.7631 14.5578 12.7717 14.9423 12.7756C16.2377 12.7884 16.2411 12.783 16.2851 12.7804C16.8362 12.7482 17.3092 13.1688 17.3417 13.7199C17.374 14.2711 16.9534 14.7441 16.4023 14.7765C16.2724 14.7841 16.184 14.7881 14.9228 14.7756C14.5105 14.7715 13.9777 14.7618 13.4023 14.755C13.3827 15.2051 13.3692 15.614 13.3583 15.9152V15.925L13.3574 15.9347C13.3131 16.7293 13.2819 16.9598 13.2001 17.3302L13.1952 17.3683C13.194 17.3798 13.1925 17.3931 13.1904 17.4142C13.1883 17.4345 13.1857 17.4606 13.1826 17.4904C13.1245 18.0393 12.6329 18.4377 12.0839 18.38C11.5349 18.3221 11.1365 17.8295 11.1943 17.2804C11.2017 17.2101 11.2096 17.1031 11.2314 16.9806L11.2353 16.9582L11.2402 16.9357C11.2728 16.7905 11.2893 16.7096 11.3046 16.5802C11.3218 16.435 11.3381 16.2224 11.3603 15.8234C11.3702 15.5462 11.3839 15.1614 11.4023 14.7297C10.8438 14.722 10.3285 14.718 9.92962 14.7111C8.7 14.6897 8.52324 14.677 8.34759 14.6486C7.80273 14.5601 7.43223 14.0461 7.52044 13.5011C7.60903 12.9565 8.12306 12.5859 8.6679 12.674C8.67849 12.6757 8.67517 12.6754 8.68158 12.6759C8.69841 12.6775 8.7389 12.681 8.82708 12.6847C9.00425 12.6922 9.33181 12.7011 9.9638 12.7121C10.3838 12.7194 10.9345 12.7236 11.5292 12.7316C11.6217 11.7484 11.7518 10.9675 11.8193 10.5715C11.8541 10.3673 11.8732 10.2561 11.8847 10.1945C11.8892 10.1702 11.8968 10.1301 11.9062 10.092C11.909 10.0805 11.925 10.0151 11.957 9.93864C11.9761 9.89281 12.0085 9.8246 12.0605 9.75016C12.1154 9.67157 12.1712 9.61777 12.1777 9.61149ZM13.5829 11.0334C13.5829 11.0335 13.6016 11.0159 13.622 10.9933C13.6265 10.9884 13.6301 10.982 13.6347 10.9767C13.6181 10.9958 13.6012 11.0153 13.5829 11.0334Z" fill="black"/>
</svg>
