<svg width="24" height="24" viewBox="0 0 24 24" fill="none" xmlns="http://www.w3.org/2000/svg">
<path d="M4.38729 1.88985C4.95723 1.88524 5.25062 1.9422 5.44197 1.97676C5.44778 1.97771 5.63308 2.00638 5.72225 2.02169L5.72322 2.02266C5.79429 2.02578 5.87143 2.02889 5.95369 2.03243C6.46474 2.0544 7.16888 2.0845 7.97615 2.13009C8.78188 2.17561 9.34229 2.48222 9.72811 2.9045C9.90061 3.09337 10.0172 3.28323 10.0894 3.4045C10.1877 3.56931 10.1799 3.55481 10.1666 3.53926C10.615 4.06101 10.819 4.45467 10.9888 4.79317C11.0147 4.84461 11.0647 4.93167 11.1392 5.04903C11.1512 5.05153 11.1638 5.05525 11.1773 5.05782C11.3916 5.09837 11.7168 5.1298 12.1441 5.14376C12.5468 5.15689 12.9223 5.13718 13.3512 5.11251C13.7732 5.08822 14.2478 5.05897 14.7877 5.06368C15.721 5.07184 17.4983 5.12947 18.4635 5.15548C19.8132 5.19183 20.2112 5.2386 20.7984 5.41622C20.8312 5.42609 21.0889 5.48821 21.3267 5.63887L21.4273 5.70919L21.5396 5.80391C21.7877 6.02957 21.9384 6.28654 22.0416 6.50704C22.1408 6.71923 22.2418 7.01182 22.3004 7.16329C22.5526 7.8157 22.5879 8.65254 22.6158 9.1877C22.628 9.42209 22.657 9.60768 22.689 10.9709C22.7207 12.3202 22.7604 14.8492 22.7769 16.1848C22.7988 17.9481 22.7342 18.7078 22.6822 19.2004C22.6447 19.5559 22.5813 19.8853 22.4527 20.2981C22.3813 20.5272 22.1927 21.2753 21.5621 21.7316C21.2158 21.9822 20.8082 21.9828 20.6178 21.9885C20.3484 21.9965 19.9081 21.9924 19.2096 21.9904C17.7711 21.9864 15.1055 21.9465 13.5015 21.9231C11.8933 21.8996 11.4086 21.8935 10.0377 21.8479C8.67377 21.8024 6.43934 21.7176 5.2076 21.6711C3.59679 21.6103 3.28373 21.581 3.04647 21.5373C2.38537 21.4156 2.07599 20.8468 1.97322 20.6535C1.84752 20.417 1.70291 20.0527 1.62557 19.8791C1.44731 19.479 1.37644 19.0194 1.29354 18.0324C1.2205 17.1627 1.21702 15.6342 1.20467 14.882C1.18706 13.8094 1.22598 13.3934 1.24276 12.8996C1.28996 11.51 1.32768 11.1063 1.35604 10.05C1.39773 8.49634 1.3368 8.18499 1.30916 7.88692C1.27333 7.50029 1.2535 6.68551 1.2369 5.01583C1.23023 4.34423 1.33502 3.96535 1.45858 3.58907L1.50936 3.4543C1.64008 3.15113 1.84679 2.92532 2.03182 2.76583C2.24679 2.58059 2.49142 2.43452 2.71443 2.31856C3.2335 2.04879 3.89497 1.95067 4.25447 1.89962L4.32088 1.89083L4.38729 1.88985ZM4.46639 3.89083C4.09096 3.94649 3.79552 4.01024 3.63631 4.09298C3.48465 4.17185 3.38874 4.23548 3.33651 4.28048C3.30269 4.38673 3.2814 4.46315 3.26619 4.54708C3.24831 4.64595 3.2338 4.78151 3.23592 4.99532C3.2529 6.70294 3.27403 7.41809 3.30037 7.70235C3.33238 8.04756 3.39958 8.44322 3.35506 10.1027C3.3279 11.1148 3.28466 11.7056 3.24178 12.968C3.22295 13.522 3.1872 13.8438 3.20369 14.8488C3.21725 15.6742 3.22114 17.0848 3.2867 17.8654C3.37308 18.8937 3.43273 19.0198 3.45272 19.0647C3.5136 19.2013 3.57619 19.3522 3.62068 19.4563C3.64395 19.5107 3.6658 19.5566 3.68416 19.5969C3.92257 19.6134 4.37951 19.6389 5.28377 19.6731C6.51778 19.7196 8.74585 19.8036 10.1041 19.8488C11.4552 19.8939 11.9243 19.8996 13.5308 19.9231C15.1419 19.9466 17.7921 19.9864 19.2154 19.9904C19.8375 19.9922 20.2088 19.9919 20.4449 19.9885C20.4729 19.9187 20.5031 19.8332 20.5435 19.7033C20.6323 19.4185 20.669 19.2178 20.693 18.9904C20.7356 18.5864 20.798 17.9063 20.7769 16.2102C20.7604 14.8781 20.7205 12.3568 20.689 11.0178C20.6579 9.69272 20.6328 9.56141 20.6187 9.29219C20.5855 8.65545 20.5481 8.17591 20.4351 7.88399C20.391 7.76999 20.3439 7.64018 20.314 7.56075C20.2792 7.46784 20.2533 7.40439 20.2301 7.35469C20.2255 7.34492 20.2193 7.33696 20.2154 7.3293C19.9039 7.23514 19.7306 7.19008 18.4097 7.1545C17.4177 7.12777 15.6792 7.07163 14.7701 7.06368C14.308 7.05964 13.9009 7.08458 13.4664 7.10958C13.0389 7.13418 12.5816 7.1592 12.0787 7.14278C11.6068 7.12737 11.1661 7.09074 10.8062 7.02266C10.6279 6.9889 10.4355 6.94123 10.2574 6.86837C10.1062 6.8065 9.82442 6.67143 9.62459 6.38399C9.43174 6.10657 9.28978 5.86711 9.20076 5.68966C9.06316 5.41537 8.94507 5.18629 8.64998 4.84298C8.57089 4.75096 8.51103 4.65916 8.47225 4.59688C8.43688 4.54007 8.39234 4.46264 8.37166 4.42794C8.31556 4.33381 8.28255 4.28709 8.25154 4.25313C8.22679 4.22604 8.20147 4.20587 8.16268 4.1877C8.12116 4.16829 8.03193 4.13669 7.86385 4.12716C7.07154 4.08241 6.37935 4.05247 5.86776 4.03048C5.61403 4.01957 5.39869 4.01053 5.2408 4.00216C5.16269 3.99801 5.09086 3.99414 5.03182 3.98946C5.01305 3.98797 4.88389 3.97944 4.76619 3.94844C4.71294 3.9344 4.66258 3.91449 4.61385 3.89278C4.56951 3.89138 4.52048 3.89094 4.46639 3.89083Z" fill="black"/>
</svg>
