<svg width="24" height="24" viewBox="0 0 24 24" fill="none" xmlns="http://www.w3.org/2000/svg">
<path d="M5.1418 2.01215C6.02098 2.02227 7.82411 2.01878 8.74336 2.04437C9.1657 2.05614 9.51991 2.07343 9.77266 2.1391C9.92134 2.17778 10.176 2.26597 10.385 2.50336C10.4864 2.61867 10.5461 2.73404 10.5813 2.81879C10.5978 2.85874 10.6095 2.89404 10.6164 2.91547L10.6291 2.95648L10.6809 3.11371C10.8031 3.45648 10.9523 3.66764 11.3254 4.24066C11.4491 4.43066 11.5484 4.60161 11.6311 4.7475C11.6851 4.84296 11.7292 4.919 11.7688 4.98773C12.0504 4.98279 12.4194 4.96805 12.8889 4.95258C13.2335 4.94121 13.3162 4.93407 14.1066 4.92816C14.8864 4.92234 16.3703 4.91654 17.5754 4.91156C18.7762 4.90659 19.6756 4.90213 20.1916 4.90863C20.8797 4.91732 21.3018 4.96305 21.6457 5.0932L21.7893 5.15472L21.9289 5.23383C22.2282 5.43305 22.3537 5.72279 22.3996 5.84027C22.4659 6.00987 22.5049 6.19234 22.5314 6.33734C22.5825 6.61614 22.6358 7.05019 22.6975 7.46039C22.7186 7.60031 22.7769 7.86659 22.8225 8.27094C22.8645 8.64423 22.9397 9.33823 22.9768 10.476C23.0136 11.6049 23.0101 13.1544 22.9406 14.5571C22.8709 15.9633 22.7352 17.1707 22.6672 17.7993C22.5913 18.5006 22.5931 18.5591 22.5676 18.8051C22.5239 19.2263 22.4455 19.7409 22.3752 20.1547C22.3397 20.3634 22.3054 20.554 22.2766 20.7006C22.2623 20.7731 22.2479 20.8399 22.2355 20.895C22.2307 20.9166 22.2074 21.0279 22.1691 21.1254C22.1351 21.212 22.0484 21.4064 21.842 21.5727C21.6734 21.7085 21.4993 21.7646 21.4035 21.7905C21.2205 21.8398 20.9934 21.8609 20.7492 21.8754C20.244 21.9055 19.2255 21.9241 18.675 21.9448C18.1195 21.9656 17.8672 21.9946 16.9611 21.9995C16.0606 22.0042 14.4818 21.9856 12.6457 21.9457C10.8077 21.9059 8.7483 21.8459 7.22383 21.7856C5.69657 21.7251 4.76784 21.6656 4.26094 21.6313C3.54548 21.5829 3.22687 21.5411 2.87618 21.4858C2.5055 21.4273 2.21487 21.2438 2.01582 21.0786C1.81178 20.909 1.64553 20.7107 1.51875 20.5317C1.13977 19.9964 1.09965 19.3109 1.08223 19.2026C1.04992 19.0046 1.01799 18.7784 1.01289 18.6049C1.00968 18.4943 0.997272 17.7383 1.0002 16.6498C1.00143 16.1941 1.0168 15.9738 1.02461 15.6762C1.03875 15.1364 1.07796 14.6412 1.09493 14.268C1.1363 13.3572 1.16387 12.5987 1.18379 12.393C1.18411 12.3887 1.18544 12.3614 1.18672 12.2514C1.18821 12.1233 1.19054 11.8892 1.19551 11.4936C1.20551 10.698 1.22474 9.20523 1.23848 8.41156C1.25321 7.56098 1.26782 7.39976 1.28633 6.92914C1.32779 5.87506 1.38576 5.10663 1.4045 4.94574C1.44266 4.619 1.56734 4.29722 1.64571 4.11176C1.68982 4.00739 1.73155 3.91716 1.76289 3.85297C1.77854 3.82094 1.79204 3.79419 1.80196 3.77484C1.80687 3.76527 1.81148 3.75649 1.81465 3.75043C1.81611 3.74765 1.81752 3.74461 1.81856 3.74261L1.82051 3.74066V3.73871H1.82149L1.87129 3.64398L1.93965 3.56293L2.70332 4.20941C2.01005 3.62289 1.94641 3.56798 1.94063 3.56293V3.56195L1.94161 3.56097C1.94238 3.56006 1.94333 3.55851 1.94454 3.55707C1.94712 3.55403 1.95084 3.54955 1.95528 3.54437C1.96423 3.53393 1.97753 3.51962 1.99336 3.5014C2.02525 3.4647 2.07096 3.4124 2.12618 3.35101C2.23577 3.22917 2.38861 3.06313 2.55782 2.89496C2.7228 2.73099 2.92418 2.54412 3.12715 2.39105C3.22817 2.3149 3.35221 2.22987 3.48848 2.16058C3.60614 2.1008 3.83175 2.00056 4.1125 2.00043L5.1418 2.01215ZM4.3127 4.00238C4.218 4.076 4.098 4.18468 3.96797 4.3139C3.83348 4.44757 3.70662 4.58426 3.6125 4.6889C3.5862 4.71815 3.5622 4.74432 3.54219 4.76703C3.52579 4.80172 3.50692 4.84414 3.4875 4.89008C3.46019 4.95474 3.43481 5.02078 3.41621 5.07953C3.40722 5.10805 3.40104 5.13226 3.39668 5.15082C3.39245 5.16892 3.39083 5.17816 3.39082 5.17816C3.39068 5.17971 3.39038 5.18346 3.38985 5.1889C3.38904 5.19725 3.38818 5.20887 3.38692 5.22308C3.38433 5.25228 3.38093 5.29193 3.37715 5.34027C3.36958 5.43725 3.36017 5.56898 3.34981 5.72992C3.32905 6.05252 3.30469 6.49181 3.28438 7.00824C3.26517 7.49653 3.25271 7.62395 3.23848 8.44574C3.22483 9.23414 3.20453 10.7233 3.19454 11.519C3.18952 11.9186 3.18837 12.1329 3.18672 12.2748C3.18527 12.4003 3.18423 12.4915 3.175 12.5864C3.16174 12.7235 3.13783 13.3712 3.09297 14.3588C3.07055 14.8521 3.03774 15.1895 3.02364 15.728C3.01392 16.0988 3.00136 16.2257 3.0002 16.6557C2.9973 17.7333 3.00957 18.4644 3.01192 18.5463C3.01211 18.5473 3.01266 18.5503 3.01289 18.5541C3.0132 18.5594 3.01306 18.5674 3.01387 18.5766C3.01559 18.5959 3.01892 18.6212 3.02266 18.6518C3.03029 18.7142 3.04146 18.792 3.05586 18.8803C3.06861 18.9585 3.08175 19.0629 3.08907 19.1137C3.09857 19.1797 3.10708 19.2291 3.11641 19.2709C3.13422 19.3505 3.15034 19.3737 3.15157 19.3754C3.1798 19.4153 3.20786 19.451 3.2336 19.4799C3.24957 19.4978 3.26503 19.511 3.27657 19.5219C3.53224 19.5608 3.80182 19.596 4.39571 19.6362C4.88691 19.6694 5.79699 19.7269 7.30293 19.7866C8.81244 19.8463 10.8593 19.9061 12.6887 19.9457C14.5201 19.9855 16.0775 20.0041 16.9504 19.9995C17.8169 19.9949 17.9651 19.9695 18.5998 19.9457C19.1457 19.9253 19.8837 19.9086 20.3908 19.8871C20.3946 19.8651 20.3996 19.8425 20.4035 19.8198C20.4708 19.4242 20.5411 18.9578 20.5783 18.5991C20.5915 18.4722 20.6088 18.2318 20.6789 17.5834C20.7473 16.9511 20.8771 15.7979 20.9436 14.4575C21.0102 13.1131 21.0129 11.6191 20.9777 10.5414C20.9429 9.47367 20.8735 8.83594 20.8352 8.49554C20.8149 8.31629 20.7968 8.20623 20.7805 8.11371C20.7654 8.02838 20.7404 7.90003 20.7189 7.75726C20.6833 7.51983 20.654 7.30407 20.6291 7.1264C20.6186 7.05136 20.6069 6.98393 20.5979 6.92328C20.4887 6.91654 20.3475 6.91092 20.1662 6.90863C19.6718 6.9024 18.7964 6.90655 17.5842 6.91156C16.3766 6.91655 14.8979 6.9214 14.1223 6.92719C13.3579 6.93289 13.2957 6.9394 12.9553 6.95062C12.5051 6.96546 12.075 6.98514 11.7658 6.98969C11.6117 6.99195 11.4532 6.99085 11.3176 6.9809C11.2519 6.97607 11.1606 6.96699 11.0647 6.94574C11.0223 6.93634 10.7545 6.88407 10.5275 6.66449C10.3645 6.50656 10.2319 6.31438 10.134 6.15472C10.0467 6.01244 9.96138 5.8584 9.89082 5.73383C9.81568 5.60116 9.74011 5.47149 9.64961 5.33246C9.35848 4.88531 9.10816 4.5309 8.90254 4.05316C8.83947 4.05066 8.76809 4.04661 8.6877 4.04437C7.78403 4.01921 6.05951 4.02297 5.11934 4.01215C4.42315 4.00413 4.37677 4.00316 4.3127 4.00238ZM15.8469 12.3344C16.3911 12.2421 16.9075 12.6086 17.0002 13.1528C17.0925 13.697 16.7261 14.2145 16.1818 14.3071C14.0359 14.6719 12.0284 15.0034 10.8303 15.2182C9.64847 15.4301 9.29336 15.5199 8.93965 15.6088C8.40424 15.7434 7.86067 15.4185 7.72579 14.8832C7.59122 14.3477 7.91596 13.8041 8.45137 13.6694C8.85181 13.5687 9.25239 13.4691 10.4777 13.2495C11.6875 13.0326 13.7184 12.6963 15.8469 12.3344Z" fill="black"/>
</svg>
