<svg width="24" height="24" viewBox="0 0 24 24" fill="none" xmlns="http://www.w3.org/2000/svg">
<path d="M11.7956 14.0569C12.2058 13.9409 12.6578 14.0983 12.9021 14.4709C13.0617 14.6338 13.187 14.7902 13.4118 15.1399L13.4236 15.1574L13.4343 15.175C13.5607 15.3909 13.7205 15.6759 13.8493 15.885C13.9017 15.9699 13.9339 16.0179 14.0017 16.1008C14.0825 16.1997 14.2128 16.3465 14.4665 16.6184C14.9565 17.1433 15.8812 18.1093 16.4577 18.7385C17.0402 19.3742 17.321 19.7136 17.4919 19.9485C17.5864 20.0782 17.6809 20.2148 17.7536 20.3518C17.8307 20.4968 17.9116 20.6939 17.9265 20.9367C17.9299 20.992 17.9809 21.6023 17.4148 21.9416C17.2369 22.0482 17.0358 22.0927 16.99 22.1037C16.8964 22.1262 16.7972 22.1447 16.7185 22.1584C16.5921 22.1805 16.246 22.2335 15.3689 22.2473C14.7659 22.2567 13.8522 22.2522 13.2654 22.2365C12.7315 22.2222 12.3599 22.193 11.4812 22.1633C10.4562 22.1287 8.94524 22.094 8.02611 22.0637C7.81809 22.0568 7.63642 22.0499 7.49193 22.0393C7.37119 22.0304 7.17641 22.0137 6.9929 21.9524C6.89301 21.919 6.728 21.8506 6.572 21.7063C6.39391 21.5413 6.27961 21.3257 6.24095 21.094C6.20745 20.893 6.23826 20.7274 6.25755 20.6447C6.27759 20.5589 6.30452 20.4855 6.31712 20.4514L6.41283 20.2151C6.52296 19.9585 6.66705 19.6588 6.75072 19.4924C6.80978 19.3749 6.84482 19.303 6.8679 19.2531C6.8897 19.206 6.90286 19.1736 6.92161 19.1291C7.01557 18.9064 7.26029 18.539 7.64427 18.0969C7.84339 17.8677 8.10234 17.6088 8.28587 17.4123C8.49045 17.1933 8.74755 16.9012 9.26341 16.3703C9.77833 15.8404 10.5442 15.0771 10.9245 14.6994C11.1141 14.5112 11.213 14.4138 11.2644 14.3635C11.2874 14.341 11.31 14.3195 11.3279 14.3029C11.3309 14.3001 11.3637 14.2688 11.406 14.2365C11.4225 14.2239 11.4971 14.1658 11.6052 14.1174C11.6724 14.0874 11.7378 14.0698 11.7956 14.0569ZM10.698 17.7639C10.1983 18.2781 9.98892 18.5173 9.74681 18.7766C9.48371 19.0583 9.32774 19.2084 9.15404 19.4084C8.99426 19.5924 8.88592 19.7365 8.81908 19.8332C8.78571 19.8815 8.76419 19.9163 8.75267 19.9358L8.68724 20.0813C9.56448 20.1062 10.8295 20.14 11.5486 20.1643C12.6028 20.1999 12.7088 20.2212 13.3191 20.2375C13.8122 20.2507 14.5618 20.2525 15.1267 20.2473C15.0815 20.1974 15.0337 20.1443 14.9831 20.0891C14.4073 19.4607 13.533 18.5488 13.0046 17.9826C12.4863 17.4272 12.3377 17.2439 12.1472 16.9348C12.0757 16.8187 11.9928 16.6734 11.9138 16.5373C11.5285 16.9216 11.0504 17.4012 10.698 17.7639ZM6.62279 2.11056C8.52383 2.0173 10.9553 1.97381 12.9783 2.01779C15.0079 2.06193 16.5479 2.19557 17.4079 2.27951C18.4544 2.38164 18.7416 2.47286 19.1716 2.61154C19.5581 2.73619 19.8455 2.82534 20.1345 2.91818C20.3751 2.99547 20.6307 3.07943 20.7888 3.1506C21.2033 3.33746 21.6091 3.54979 22.0652 3.97482C22.3639 4.25322 22.4487 4.56019 22.5046 4.76779C22.5819 5.05464 22.6471 5.44612 22.7409 6.80783C22.8359 8.18628 22.963 10.631 22.9929 12.2746C23.0231 13.9375 22.9501 14.725 22.8933 15.2219C22.8068 15.9783 22.7364 16.4366 22.5349 16.8059C22.3136 17.2109 21.928 17.3348 21.8005 17.3713C21.6348 17.4187 21.4671 17.4357 21.3533 17.4445C21.2311 17.454 21.0941 17.4594 20.9792 17.4641C20.8736 17.4684 20.772 17.4737 20.6716 17.4807C20.3868 17.5375 20.0455 17.6152 19.8064 17.6555L19.8005 17.6574C19.6191 17.6867 19.4229 17.7166 19.1033 17.7688C18.5583 17.8575 18.0438 17.4875 17.9548 16.9426C17.8658 16.3977 18.2361 15.8833 18.781 15.7942C19.0811 15.7452 19.3288 15.7073 19.4743 15.6838L19.8367 15.6115C19.9634 15.5839 20.1165 15.5511 20.3542 15.5051L20.4099 15.4944L20.4665 15.4895C20.6029 15.4788 20.7335 15.4728 20.8464 15.468C20.864 15.3454 20.8845 15.1907 20.907 14.9944C20.9532 14.59 21.0216 13.8915 20.9929 12.3117C20.9638 10.7123 20.8393 8.30287 20.7458 6.94552C20.6663 5.7913 20.6115 5.45984 20.5847 5.33908C20.3971 5.18425 20.2241 5.08955 19.9675 4.97384C19.9651 4.97298 19.9552 4.96928 19.9363 4.96212C19.9124 4.95312 19.8802 4.941 19.8396 4.92697C19.7574 4.89856 19.6512 4.86393 19.5222 4.82248C19.2872 4.74696 18.9119 4.62922 18.5574 4.51486C18.3729 4.45538 18.2773 4.42394 18.1169 4.39084C17.9463 4.35565 17.6874 4.31599 17.2136 4.26974C16.3839 4.18878 14.897 4.05949 12.9343 4.01681C10.9639 3.97399 8.57984 4.01739 6.72044 4.10861C4.88209 4.19882 3.63673 4.33025 3.0222 4.44357C3.01674 4.64906 3.01102 4.94575 3.00658 5.37814C2.9926 6.73782 2.98594 9.248 3.12376 11.1125C3.26164 12.9777 3.50505 14.1438 3.67747 14.7092C3.79189 15.0843 3.85628 15.2286 3.90111 15.301C3.92041 15.3322 3.93974 15.3636 4.06029 15.4397C4.41401 15.6628 4.69912 15.8363 4.89525 15.9524C4.99392 16.0107 5.0658 16.052 5.11009 16.0764H5.11107C5.47204 16.2273 5.72533 16.5845 5.72533 17.0002C5.72529 17.5525 5.27759 18.0002 4.72533 18.0002C4.56927 18.0001 4.44942 17.9617 4.43138 17.9563C4.38967 17.9436 4.35604 17.9311 4.33861 17.924C4.3027 17.9094 4.27258 17.8943 4.2556 17.886C4.21874 17.8679 4.17993 17.8469 4.14622 17.8283C4.07573 17.7896 3.98381 17.7364 3.87669 17.6731C3.66033 17.5451 3.35854 17.3617 2.9929 17.1311C2.68758 16.9384 2.41969 16.707 2.20091 16.3537C2.00763 16.0416 1.88174 15.6779 1.76439 15.2932C1.53493 14.5409 1.27434 13.2176 1.12962 11.26C0.984853 9.30156 0.992635 6.71413 1.00658 5.35763C1.01984 4.06731 1.03426 3.81728 1.1013 3.56173L1.14036 3.43576C1.16453 3.36973 1.20161 3.28494 1.25658 3.19845C1.37267 3.01591 1.5247 2.88604 1.6765 2.79416C1.93582 2.6374 2.26506 2.55152 2.61693 2.48459C3.3621 2.34288 4.73296 2.20329 6.62279 2.11056Z" fill="black"/>
</svg>
