<svg width="24" height="24" viewBox="0 0 24 24" fill="none" xmlns="http://www.w3.org/2000/svg">
<g clip-path="url(#clip0_109_365)">
<path d="M15.1336 5.09961C15.1689 5.10497 15.1911 5.10854 15.2479 5.11328C15.3149 5.11888 15.4294 5.12562 15.6385 5.13379C16.0721 5.15072 16.8055 5.16811 17.2596 5.18359C17.6188 5.19586 17.9215 5.23398 18.1951 5.32324C18.4829 5.41716 18.6799 5.55147 18.7947 5.62695C19.2667 5.93707 19.5763 6.44574 19.6961 6.62305C19.999 7.07142 20.1284 7.60802 20.2332 8.31543C20.3196 8.89833 20.3443 9.77052 20.326 11.3486C20.3073 12.9528 20.2188 15.3256 20.1649 16.5947C20.1381 17.2248 20.1197 17.5874 20.1024 17.8037C20.0869 17.997 20.0672 18.2064 19.9656 18.4248C19.744 18.901 19.2985 19.0654 19.0955 19.1289C18.8567 19.2036 18.5608 19.2517 18.2449 19.2939L18.2283 19.2969L18.2108 19.2979C17.7289 19.3454 16.9573 19.398 16.284 19.4092C15.5998 19.4205 15.0475 19.3872 14.5145 19.3555C13.9633 19.3225 13.5432 18.8491 13.576 18.2979C13.609 17.7467 14.0824 17.3266 14.6336 17.3594C15.1675 17.3912 15.6511 17.4201 16.2508 17.4102C16.8533 17.4001 17.5589 17.3512 17.9969 17.3086C18.0446 17.3022 18.0887 17.2941 18.1297 17.2881C18.1395 17.1018 18.1523 16.8505 18.1668 16.5098C18.2207 15.2431 18.3087 12.8963 18.327 11.3252C18.3455 9.72825 18.3142 9.01135 18.2547 8.60938C18.1558 7.94195 18.0729 7.79355 18.0389 7.74316C17.9435 7.60192 17.8831 7.50801 17.8123 7.41895C17.7457 7.33515 17.7073 7.3057 17.6971 7.29883C17.5812 7.22268 17.5814 7.227 17.574 7.22461C17.5512 7.21726 17.4577 7.19171 17.1912 7.18262C16.7838 7.16872 15.9871 7.14849 15.5604 7.13184C15.1108 7.11428 14.9772 7.09796 14.8338 7.07617C14.2879 6.99313 13.912 6.48347 13.9949 5.9375C14.078 5.39168 14.5878 5.01686 15.1336 5.09961ZM6.0506 5.0625C6.60275 5.06266 7.0506 5.51031 7.0506 6.0625C7.0506 6.58107 6.65559 7.00749 6.15021 7.05762C6.14303 7.05844 6.12938 7.0596 6.11212 7.06152C6.07421 7.06574 6.0181 7.07162 5.9383 7.0791C5.77917 7.09402 5.52511 7.11589 5.12873 7.14258C4.51716 7.18373 3.4755 7.18429 2.99689 7.19629C2.92466 7.1981 2.86203 7.20087 2.80841 7.20312C2.80447 7.21685 2.79897 7.23151 2.79474 7.24707C2.77045 7.33653 2.74617 7.44127 2.71662 7.57129C2.6258 7.97083 2.48075 8.76716 2.3797 10.1504C2.2781 11.5414 2.23639 13.4939 2.23127 14.6855C2.2262 15.8659 2.25847 16.1862 2.28009 16.3779C2.28614 16.4315 2.29493 16.4781 2.3006 16.5186C2.38868 16.5434 2.49719 16.57 2.63068 16.5996C2.67618 16.6097 2.77692 16.6205 2.98712 16.6279L3.68634 16.6533L3.71271 16.6553L3.73908 16.6582C4.07737 16.6966 4.45989 16.7931 4.73224 16.874C5.21736 16.943 5.59078 17.3592 5.59064 17.8633C5.5903 18.4156 5.14194 18.8636 4.58966 18.8633C4.41205 18.8632 4.27048 18.8219 4.21466 18.8057L4.20783 18.8037L4.20002 18.8018C3.9884 18.737 3.72505 18.6735 3.53986 18.6494C3.32953 18.6377 3.14675 18.6351 2.91681 18.627C2.71224 18.6197 2.44314 18.607 2.19806 18.5527C1.89327 18.4852 1.58466 18.4065 1.32697 18.2959C1.0972 18.1972 0.682197 17.9807 0.488101 17.5049C0.396215 17.2795 0.337482 16.9987 0.292789 16.6025C0.258985 16.3029 0.226022 15.897 0.231265 14.6768C0.236463 13.4671 0.278118 11.4626 0.384586 10.0049C0.491639 8.53941 0.649691 7.64149 0.766421 7.12793C0.82411 6.87413 0.893862 6.57351 1.0008 6.30957C1.11237 6.03431 1.30626 5.69057 1.67853 5.45117L1.81232 5.37598C2.13172 5.22136 2.49455 5.2086 2.94611 5.19727C3.52816 5.18266 4.43522 5.18417 4.99494 5.14648C5.37829 5.12067 5.61411 5.1008 5.75177 5.08789C5.82011 5.08148 5.86502 5.07715 5.89142 5.07422C5.90471 5.07274 5.91375 5.07134 5.92267 5.07031C5.92586 5.06994 5.93356 5.06917 5.94123 5.06836C5.94497 5.06796 5.95404 5.0673 5.96466 5.06641C5.96619 5.06628 6.00424 5.06251 6.0506 5.0625ZM10.4539 5.37891C10.8461 4.9902 11.4792 4.99263 11.868 5.38477C12.2276 5.74776 12.2504 6.31607 11.9412 6.70703C11.9461 6.70079 11.9514 6.69648 11.9539 6.69336C11.9584 6.68746 11.9624 6.68185 11.9647 6.67871C11.957 6.68975 11.9383 6.71681 11.8973 6.77734C11.8146 6.89935 11.6501 7.14353 11.3231 7.62988C10.7897 8.42303 9.81753 9.86423 9.07502 10.959C9.63519 10.8497 10.1857 10.769 10.6336 10.7207C11.5232 10.6249 11.9963 10.628 12.1502 10.6309L12.3201 10.6484C12.49 10.6798 12.6585 10.7545 12.8045 10.8789C12.9813 11.0296 13.0664 11.2027 13.1063 11.3086C13.1463 11.415 13.1605 11.5073 13.1668 11.5527L13.1766 11.6426L13.1795 11.7568C13.1767 11.8655 13.1595 11.9554 13.1492 12.0049C13.1318 12.0892 13.1076 12.1771 13.0799 12.2646C13.0242 12.4407 12.9376 12.6697 12.8133 12.9658C12.6026 13.4676 12.2051 14.0858 11.5662 14.9512C10.9129 15.8361 9.93903 17.0249 9.44904 17.6318C9.22527 17.909 9.10752 18.0589 9.04572 18.1406C9.03808 18.1624 9.03057 18.1878 9.02033 18.2139C8.81834 18.7274 8.23825 18.9808 7.72443 18.7793C7.24251 18.5902 6.99038 18.0681 7.12677 17.5801L7.16486 17.4658C7.16578 17.4629 7.16641 17.4587 7.16779 17.4541L7.19318 17.3779L7.24201 17.2578C7.2948 17.1465 7.35858 17.0578 7.41877 16.9766C7.50153 16.8649 7.6432 16.6837 7.8924 16.375C8.40337 15.7421 9.33788 14.6034 9.95783 13.7637C10.2842 13.3215 10.5129 12.9863 10.6736 12.7305C10.2289 12.7837 9.69356 12.8661 9.17365 12.9785C8.56858 13.1093 8.00839 13.2627 7.70978 13.3633C7.5542 13.4157 7.44522 13.4699 7.32697 13.5264C7.29407 13.5421 7.16545 13.6058 7.03205 13.6426C6.9646 13.6611 6.78983 13.7047 6.57306 13.6709C6.29869 13.628 6.02129 13.4694 5.84943 13.1865C5.71308 12.9619 5.69932 12.7451 5.70197 12.6328C5.70487 12.5145 5.72841 12.4195 5.74396 12.3652C5.77491 12.2577 5.81755 12.1723 5.84162 12.127C5.89406 12.0281 5.959 11.9329 6.01642 11.8545C6.10864 11.7286 6.23733 11.5738 6.96759 10.5059C7.70566 9.42651 9.00775 7.48933 9.66388 6.51367C9.9906 6.02785 10.1563 5.78141 10.241 5.65625C10.2822 5.59544 10.3077 5.55917 10.3231 5.53711C10.3291 5.52837 10.3416 5.51046 10.3553 5.49219C10.3797 5.45963 10.4122 5.42035 10.4539 5.37891ZM23.0985 9.59863C23.6507 9.59863 24.0985 10.0463 24.0985 10.5986C24.0985 10.8624 24.0982 11.1395 24.076 11.5928C24.0543 12.0358 24.0115 12.6399 23.9871 12.9658C23.9748 13.1305 23.9677 13.2242 23.9627 13.2871C23.9579 13.3475 23.956 13.3743 23.9539 13.415C23.926 13.9666 23.4557 14.3912 22.9041 14.3633C22.3528 14.3352 21.928 13.8659 21.9559 13.3145C21.9594 13.2453 21.9632 13.1966 21.9686 13.1289C21.9738 13.0636 21.9811 12.9756 21.993 12.8164C22.0172 12.4928 22.0586 11.9106 22.0789 11.4951C22.0987 11.0904 22.0985 10.8512 22.0985 10.5986C22.0985 10.0464 22.5463 9.59874 23.0985 9.59863ZM6.0506 7.0625C6.09389 7.06249 6.12895 7.05894 6.13263 7.05859L6.14044 7.05762C6.11087 7.06026 6.08087 7.06249 6.0506 7.0625ZM11.8621 6.79883C11.8639 6.79711 11.8724 6.78901 11.8817 6.7793C11.8934 6.76691 11.9043 6.75353 11.9149 6.74121C11.9158 6.74015 11.9169 6.73841 11.9178 6.7373C11.9001 6.75804 11.8818 6.77927 11.8621 6.79883Z" fill="black"/>
</g>
<defs>
<clipPath id="clip0_109_365">
<rect width="24" height="24" fill="white"/>
</clipPath>
</defs>
</svg>
