<svg width="24" height="24" viewBox="0 0 24 24" fill="none" xmlns="http://www.w3.org/2000/svg">
<path d="M14.7835 5.00367C15.4418 4.99179 16.0809 5.01159 16.4691 5.03589C16.6547 5.04752 16.8262 5.06128 16.9964 5.09351C17.1772 5.1278 17.3266 5.17671 17.4749 5.23023C17.7961 5.34608 18.0969 5.45381 18.3226 5.54273C18.4347 5.58691 18.551 5.63514 18.6527 5.68531C18.7033 5.71029 18.7669 5.74345 18.8314 5.78492C18.8817 5.81733 19.0019 5.89763 19.1107 6.03101C19.4088 6.39667 19.6197 6.841 19.7415 7.6648C19.8189 8.18823 19.9614 9.18544 20.0335 9.93726C20.0748 10.3672 20.0911 10.712 20.099 10.988C20.1604 11.1244 20.1929 11.2767 20.1868 11.4363C20.1285 12.9668 20.0725 14.451 20.0443 15.2234C20.0158 16.0614 20.0228 16.1135 20.0257 16.1599L20.0277 16.197V16.2341C20.025 16.4844 20.0266 16.7362 19.9925 16.9851C19.9635 17.196 19.9054 17.4259 19.8343 17.6257C19.7985 17.7264 19.7523 17.8387 19.6947 17.947C19.6476 18.0354 19.5478 18.2094 19.3763 18.3562C19.1391 18.559 18.8264 18.7213 18.4144 18.7566C18.0557 18.7872 17.7174 18.8271 16.7835 18.8699C16.0336 18.9042 14.6365 18.9628 12.0413 18.9861C9.45195 19.0093 5.77722 18.9985 3.87044 18.9851C2.91934 18.9784 2.40015 18.9713 2.10676 18.9636C1.83084 18.9564 1.69667 18.9476 1.56282 18.9216C1.44509 18.8988 1.13406 18.8373 0.878249 18.5593C0.760605 18.4314 0.691098 18.2928 0.659499 18.2263C0.617085 18.1371 0.579031 18.0381 0.544265 17.9334C0.474395 17.7228 0.406128 17.4501 0.346999 17.1062C0.272962 16.6754 0.213927 16.1411 0.194656 15.1482C0.175633 14.1676 0.194545 12.7516 0.251296 11.6287C0.307606 10.5146 0.388617 9.68913 0.465163 9.21363C0.548608 8.69546 0.631441 8.41259 0.686843 8.15308C0.689232 8.14181 0.693127 8.12304 0.699538 8.07593C0.705141 8.03471 0.714807 7.95944 0.727859 7.88062C0.757059 7.70439 0.803843 7.4986 0.897781 7.23706C0.946819 7.10054 1.02271 6.87284 1.09407 6.70484C1.15323 6.56558 1.30445 6.21506 1.63899 5.98511L1.80696 5.88648C1.97422 5.80311 2.13689 5.76305 2.26399 5.73804C2.42887 5.70565 2.62541 5.68457 3.99739 5.62183C5.43552 5.55607 8.04294 5.45073 9.5218 5.3816C10.2491 5.34759 10.6774 5.32235 10.9447 5.30445C11.1821 5.28854 11.3472 5.27439 11.4505 5.26929C11.5592 5.26392 11.7067 5.24714 11.9661 5.21656C12.2144 5.1873 12.5369 5.14945 12.9544 5.10913C13.4633 5.06 14.1222 5.01561 14.7835 5.00367ZM14.8197 7.00269C14.2183 7.01355 13.6121 7.05446 13.1468 7.09937C12.7528 7.13742 12.4492 7.17357 12.2005 7.20288C11.9633 7.23084 11.7405 7.25692 11.5491 7.26636C11.4598 7.27076 11.3912 7.27862 11.0784 7.29956C10.7946 7.31857 10.3527 7.34518 9.61555 7.37964C8.16518 7.44745 5.47864 7.55537 4.08919 7.6189C3.43256 7.64893 3.06753 7.66957 2.86067 7.68335C2.85074 7.71149 2.84079 7.74172 2.82942 7.77417C2.81438 7.81707 2.79802 7.86433 2.78059 7.91285C2.73047 8.05235 2.71159 8.141 2.70052 8.20777C2.69356 8.24983 2.68945 8.28421 2.68098 8.34644C2.67343 8.40196 2.66182 8.48236 2.6429 8.57105C2.55369 8.98893 2.51444 9.06822 2.43977 9.53199C2.38001 9.9033 2.30314 10.6457 2.24837 11.7293C2.19404 12.8042 2.17652 14.1737 2.19466 15.1091C2.21256 16.0319 2.26518 16.4617 2.3177 16.7673C2.3303 16.8406 2.34543 16.9063 2.35774 16.9656C2.6561 16.9712 3.12872 16.9798 3.88509 16.9851C5.7876 16.9984 9.44998 17.0092 12.0238 16.9861C14.5918 16.963 15.9635 16.9062 16.6917 16.8728C17.379 16.8413 17.7072 16.8112 17.9964 16.7849C18.0023 16.7574 18.0084 16.7332 18.0111 16.7136C18.0237 16.6218 18.0243 16.5283 18.0277 16.2127C18.0215 16.0652 18.0215 15.8521 18.0452 15.1531V15.1502C18.067 14.5554 18.1057 13.5406 18.1488 12.4089C18.1145 12.3043 18.0964 12.1923 18.099 12.0759C18.102 11.94 18.1042 11.8055 18.1058 11.5115C18.1073 11.2285 18.1083 10.8053 18.0433 10.1277C17.9765 9.43236 17.8405 8.48096 17.763 7.95679C17.7197 7.66366 17.6716 7.50786 17.639 7.42749C17.6383 7.42578 17.6368 7.42429 17.6361 7.42261C17.6217 7.4168 17.606 7.40971 17.5892 7.40308C17.3984 7.32789 17.135 7.23331 16.7962 7.11109C16.6876 7.0719 16.6525 7.06371 16.6243 7.05835C16.5851 7.05093 16.5196 7.04298 16.3441 7.03199C16.0092 7.01102 15.4239 6.99179 14.8197 7.00269ZM22.7142 9.46363C23.2594 9.37816 23.7718 9.7514 23.8577 10.2966C23.8821 10.4513 23.8953 10.5923 23.9046 11.1326C23.914 11.6751 23.9187 12.6691 23.9241 13.6814C23.9271 14.2334 23.482 14.6839 22.93 14.6873C22.3777 14.6902 21.9271 14.2444 21.9241 13.6921C21.9187 12.6728 21.9137 11.6941 21.9046 11.1668C21.9001 10.9035 21.8945 10.767 21.89 10.6921C21.8864 10.6336 21.8839 10.6244 21.8812 10.6072C21.7956 10.0618 22.1688 9.54949 22.7142 9.46363Z" fill="black"/>
</svg>
