<svg width="24" height="24" viewBox="0 0 24 24" fill="none" xmlns="http://www.w3.org/2000/svg">
<path d="M13.262 1.27049L13.3557 1.29198L13.5637 1.35546C13.7859 1.4311 14.0431 1.54648 14.2825 1.73241C14.7341 2.08325 15.4863 2.70912 15.9387 3.20702C16.3055 3.61071 16.8188 4.19798 17.4182 4.75292C17.6911 5.00551 18.1092 5.36226 18.3293 5.57714C18.457 5.70172 18.6089 5.86154 18.7288 6.04393C18.8415 6.21551 19.015 6.54121 18.9661 6.95799C18.9298 7.26693 18.7816 7.49282 18.6946 7.61034C18.6011 7.73655 18.4892 7.8531 18.3997 7.94335C18.2446 8.0997 18.1132 8.20969 16.9387 9.43944C16.3363 10.0702 15.4418 11.009 14.5393 11.9541C15.3798 12.4228 16.9614 13.271 17.7747 13.8066C18.2683 14.1317 18.6717 14.3975 18.9309 14.6142C19.0575 14.7201 19.2349 14.8822 19.3616 15.1006C19.5169 15.3687 19.595 15.7245 19.468 16.0996C19.4227 16.2334 19.3526 16.3534 19.3127 16.4189C19.2603 16.5053 19.1926 16.606 19.1096 16.7226C18.9427 16.9571 18.6926 17.2824 18.3274 17.7226C17.8401 18.3101 17.1057 19.1652 16.6829 19.6357C16.2439 20.1243 15.9565 20.4925 15.4543 20.9971C15.139 21.3139 14.6466 21.7726 14.3655 22.0449C14.2176 22.1882 14.1046 22.3013 14.0168 22.3896C13.9474 22.4595 13.8484 22.5606 13.7688 22.6279C13.747 22.6463 13.6181 22.7603 13.4309 22.8301C13.3339 22.8662 13.0818 22.9443 12.7756 22.8496C12.4133 22.7374 12.2198 22.465 12.1379 22.2627C12.069 22.0922 12.0645 21.9447 12.0637 21.8906C12.0627 21.8231 12.0684 21.768 12.0715 21.7412L12.0833 21.6592C12.0838 21.6469 12.085 21.6224 12.0852 21.581C12.0859 21.4538 12.0815 21.2154 12.0667 20.7549C12.037 19.8342 11.968 18.136 11.9329 17.2305C11.8969 16.3042 11.8977 16.2674 11.8694 16.0371C11.8438 15.8297 11.8087 15.5526 11.7717 14.8232C10.8632 15.7459 10.4848 16.0957 10.217 16.3262C9.90006 16.5989 9.73556 16.7056 9.47388 16.9004C9.08905 17.1869 8.76444 17.4227 8.50415 17.6103C8.23851 17.8019 8.05347 17.9331 7.92896 18.0254C7.3141 18.4811 6.90703 18.8226 6.79029 18.9482C6.41478 19.353 5.78208 19.3772 5.3772 19.0019C4.97248 18.6264 4.94828 17.9937 5.32349 17.5889C5.58495 17.3071 6.14142 16.8615 6.73853 16.4189C6.87706 16.3163 7.08438 16.1674 7.33423 15.9873C7.58974 15.8031 7.90569 15.5742 8.27954 15.2959C8.60378 15.0545 8.66649 15.0211 8.91236 14.8096C9.15905 14.5973 9.58259 14.2126 10.8879 12.8691C11.0226 12.7305 11.1641 12.5798 11.3147 12.4238C11.1117 12.2934 10.8724 12.1371 10.5637 11.9336C10.0488 11.594 9.28237 10.9839 8.87329 10.6621C8.42819 10.3119 8.29797 10.1865 7.69165 9.67479C7.06615 9.14693 5.90958 8.1866 4.69458 7.18456C4.26898 6.83309 4.20858 6.20324 4.55982 5.77733C4.91123 5.35136 5.54198 5.2912 5.96802 5.64256C7.1836 6.64509 8.34706 7.61091 8.98169 8.14647C9.63498 8.69778 9.70064 8.76827 10.1106 9.09081C10.5563 9.44144 11.2369 9.9802 11.6633 10.2617C11.6416 8.50096 11.6272 6.6136 11.6252 5.40526C11.6237 4.4465 11.6272 3.90264 11.636 3.57713C11.6447 3.25315 11.6596 3.08485 11.6995 2.90819C11.7074 2.87285 11.7743 2.50123 11.8557 2.25194C11.8974 2.1244 11.9817 1.8945 12.1487 1.69042C12.2386 1.58061 12.386 1.43589 12.6067 1.34178C12.8165 1.25243 13.0438 1.22963 13.262 1.27049ZM13.7317 13.793C13.7774 15.235 13.8289 15.583 13.8547 15.793C13.8961 16.1293 13.8969 16.2786 13.9309 17.1533C13.9544 17.7593 13.9912 18.7394 14.0237 19.5976C14.0277 19.5936 14.0324 19.5899 14.0364 19.5859C14.4977 19.1224 14.6548 18.9006 15.1956 18.2988C15.597 17.852 16.3138 17.0174 16.7883 16.4453C16.982 16.2118 17.1341 16.0188 17.2542 15.8633C17.1046 15.7616 16.9149 15.6352 16.6741 15.4765C15.9791 15.019 14.647 14.3005 13.7317 13.793ZM13.6252 5.40135C13.6271 6.54646 13.6397 8.30326 13.6594 9.9785C14.3563 9.24773 15.0135 8.55905 15.4924 8.0576C16.1683 7.34997 16.5116 6.99951 16.7073 6.8037C16.664 6.76498 16.6184 6.72166 16.5676 6.67674C16.4195 6.54565 16.2438 6.39098 16.0598 6.22069C15.3803 5.59164 14.7946 4.92192 14.4583 4.55174C14.2584 4.33183 13.9446 4.04979 13.6331 3.78514C13.6275 4.09551 13.6239 4.58962 13.6252 5.40135Z" fill="black"/>
</svg>
