<svg width="24" height="24" viewBox="0 0 24 24" fill="none" xmlns="http://www.w3.org/2000/svg">
<path d="M6.25876 3.17196C8.59944 3.15791 12.9661 3.18311 15.3779 3.21396C17.7919 3.24484 18.1453 3.28118 18.4482 3.30771C18.9616 3.35266 19.4981 3.44153 20.0371 3.62704C20.5921 3.8182 21.0394 4.22599 21.3359 4.48837C21.7199 4.82827 21.943 5.14566 22.0771 5.35653C22.1745 5.50982 22.2719 5.72778 22.3515 5.91317C22.4418 6.12318 22.548 6.38596 22.665 6.67782C22.8813 7.21743 22.9064 7.60196 22.9941 8.82821C23.0828 10.0681 23.1791 12.4621 23.2168 13.9298C23.2548 15.4118 23.2144 15.9687 23.1142 16.5284C22.9417 17.4919 22.7337 18.0427 22.6474 18.2374C22.4306 18.7265 22.0695 19.3355 21.6758 19.6749C21.3944 19.9173 21.0157 20.0849 20.7031 20.2052C20.3627 20.3361 19.9706 20.4573 19.5781 20.5684C19.1328 20.6945 18.8175 20.712 18.3164 20.7403C17.7832 20.7704 17.0227 20.8003 16.3554 20.8526C15.7076 20.9034 15.1921 20.9734 14.581 21.0587C14.0342 21.135 13.5286 20.7529 13.4521 20.2061C13.376 19.6593 13.7578 19.1545 14.3047 19.0782C14.918 18.9927 15.4858 18.9144 16.1992 18.8585C16.8931 18.8041 17.724 18.7703 18.2031 18.7433C18.714 18.7144 18.8254 18.7034 19.0332 18.6446C19.4052 18.5393 19.7294 18.4374 19.9853 18.339C20.1125 18.29 20.2111 18.2463 20.2832 18.2091C20.3595 18.1696 20.3799 18.1508 20.3701 18.1593C20.373 18.1565 20.3923 18.1379 20.4258 18.0968C20.4619 18.0521 20.5056 17.9923 20.5527 17.92C20.6478 17.774 20.7432 17.5985 20.8193 17.4268C20.8341 17.3933 20.9982 16.9984 21.1455 16.1759C21.2096 15.8177 21.2547 15.4217 21.2177 13.9815C21.1804 12.5264 21.0845 10.1665 20.999 8.97079C20.9038 7.63986 20.8836 7.60901 20.8086 7.42196C20.6916 7.13031 20.5932 6.88834 20.5136 6.70321C20.4314 6.51185 20.3925 6.43764 20.3886 6.42978C20.3178 6.31832 20.2101 6.16375 20.0097 5.98642C19.6428 5.66173 19.4951 5.55537 19.3857 5.51767C19.0474 5.40126 18.6819 5.33567 18.2734 5.29989C18.0467 5.28003 17.7526 5.24368 15.3525 5.21298C12.9489 5.18223 8.59498 5.158 6.27048 5.17196C5.10512 5.17896 4.46517 5.19205 4.09958 5.20907C3.99782 5.21381 3.92261 5.22125 3.86716 5.22567C3.84814 5.31657 3.82526 5.44357 3.79587 5.63974C3.73195 6.06627 3.62088 6.74655 3.582 7.18856C3.52549 7.83131 3.54743 8.16752 3.58688 8.44638C3.66378 8.99292 3.28288 9.49893 2.7363 9.57626C2.18989 9.65336 1.68417 9.27291 1.60642 8.72665C1.54204 8.27164 1.52244 7.78016 1.58981 7.01376C1.63573 6.49181 1.763 5.71295 1.81833 5.34384C1.89996 4.79905 1.96301 4.48308 2.14841 4.09384C2.42239 3.51879 3.00318 3.36911 3.1777 3.31747L3.33884 3.27743C3.50697 3.24334 3.70543 3.226 4.00583 3.212C4.41576 3.19291 5.09205 3.17897 6.25876 3.17196ZM1.04587 15.6261C1.21105 15.0992 1.77188 14.8058 2.2988 14.9708C3.52705 15.3559 4.21613 15.6123 4.66599 15.9864C4.78648 16.0867 4.93044 16.2277 5.05563 16.3507C5.19392 16.4865 5.34641 16.6367 5.5195 16.7989C5.86457 17.1223 6.12213 17.5161 6.34177 17.8282C6.60452 18.2017 6.77173 18.4873 6.88767 18.7276C6.99625 18.9528 7.06723 19.1638 7.08493 19.2091L7.11032 19.2725L7.12595 19.339C7.14174 19.4041 7.158 19.462 7.17673 19.5167L7.18161 19.5313L7.18649 19.545C7.19988 19.5883 7.2094 19.6263 7.21774 19.6583C7.2272 19.6945 7.23359 19.7187 7.24704 19.7696C7.38771 20.3033 7.06961 20.8501 6.5361 20.9913C6.00233 21.1322 5.45469 20.814 5.31345 20.2804C5.30021 20.2302 5.28829 20.1838 5.28317 20.1642C5.2782 20.1451 5.27675 20.1385 5.27634 20.1368H5.27536C5.24599 20.0487 5.22285 19.9637 5.20212 19.8839C5.15399 19.7572 5.1435 19.7162 5.08591 19.5968C5.02774 19.4762 4.92141 19.2847 4.70602 18.9786C4.42518 18.5795 4.3077 18.4045 4.15134 18.2579C3.95765 18.0764 3.78722 17.908 3.65427 17.7774C3.50822 17.634 3.43052 17.5592 3.38767 17.5235C3.36417 17.504 3.28122 17.443 3.01071 17.3311C2.74007 17.2193 2.33509 17.0777 1.70114 16.879C1.17435 16.7138 0.881069 16.1529 1.04587 15.6261ZM2.23825 11.3614C2.33087 11.3715 2.54346 11.4135 2.74997 11.4552C2.99213 11.504 3.32206 11.5729 3.71188 11.6554C3.85551 11.6857 3.99404 11.7166 4.14548 11.7696C4.28723 11.8193 4.4217 11.8818 4.56345 11.9483C4.87305 12.0936 5.45325 12.3732 6.02731 12.7071C6.60312 13.042 7.13948 13.4144 7.47165 13.6554C7.97917 14.0236 8.1648 14.2202 8.41696 14.4952C8.58751 14.6812 8.99187 15.1032 9.332 15.5479C9.68337 16.0074 9.95443 16.4702 10.1806 16.9102C10.5621 17.6525 10.7574 18.1776 10.8398 18.4405L10.9287 18.6915L11.0351 19.0313L11.041 19.0528C11.0784 19.1925 11.1052 19.3202 11.1425 19.4933C11.2589 20.033 10.9157 20.5652 10.3759 20.6817C9.83618 20.7982 9.30406 20.4548 9.18747 19.9151C9.14754 19.7301 9.1318 19.6569 9.1113 19.5792C9.05426 19.3845 9.00299 19.2403 8.96579 19.1407L8.95212 19.1026L8.9404 19.0626C8.91976 18.9898 8.7796 18.5584 8.40231 17.8243C8.21267 17.4553 8.0021 17.1014 7.74313 16.7628C7.47291 16.4094 7.15534 16.078 6.94333 15.8468C6.75459 15.6409 6.66824 15.5433 6.29782 15.2745C5.99477 15.0546 5.51741 14.7241 5.02145 14.4356C4.52383 14.1462 4.0064 13.8962 3.71384 13.7589C3.55499 13.6843 3.51268 13.6666 3.48337 13.6563C3.46351 13.6494 3.4344 13.6403 3.29782 13.6114C2.91199 13.5298 2.58859 13.4633 2.35446 13.4161C2.23719 13.3924 2.14435 13.374 2.07809 13.3614C1.99013 13.3447 1.98993 13.3463 2.02145 13.3497C1.47245 13.2898 1.07588 12.7962 1.13571 12.2472C1.19562 11.6982 1.68927 11.3016 2.23825 11.3614Z" fill="black"/>
</svg>
