<svg width="24" height="24" viewBox="0 0 24 24" fill="none" xmlns="http://www.w3.org/2000/svg">
<path d="M12.7246 0.94922C13.0536 0.949275 13.3441 1.10923 13.5263 1.35449C13.8194 1.42785 14.1935 1.53298 14.6748 1.69238C15.642 2.01278 17.0098 2.53759 17.9541 2.93457C18.9079 3.33559 19.4416 3.60872 19.8056 3.81641C20.2071 4.04549 20.4323 4.21571 20.7656 4.5752C21.0498 4.88183 21.4437 5.3552 21.7441 5.78906C22.0351 6.2094 22.27 6.61165 22.4179 7.00684C22.6373 7.59334 22.804 8.1481 22.7939 9.1543C22.7871 9.83191 22.7432 10.9392 22.6181 12.0586C22.4952 13.1584 22.3171 14.2638 22.1416 14.9814C21.9154 15.9059 21.8097 16.3238 21.665 16.7832C21.4232 17.551 21.1643 18.3825 20.7304 18.9697C20.4804 19.3081 20.0628 19.8356 19.5107 20.377C18.9657 20.9112 18.3235 21.4284 17.8896 21.7539C17.673 21.9163 17.4609 22.0674 17.207 22.1992C16.951 22.332 16.6858 22.4282 16.3652 22.5234C15.7333 22.711 14.7625 22.932 13.6972 23.0576C12.6307 23.1833 11.501 23.2125 10.4414 23.1377C9.38505 23.0631 8.43748 22.8907 7.82027 22.75C7.16338 22.6002 6.81179 22.4704 6.30367 22.1787C5.85805 21.9228 5.27876 21.5392 4.81246 21.1855C4.33383 20.8225 3.98252 20.4984 3.66011 20.1699C3.33866 19.8424 3.0486 19.5145 2.6982 19.0693C2.35504 18.6334 1.95821 18.0916 1.67965 17.6797C1.38611 17.2457 1.21046 16.9372 1.01265 16.4658C0.830984 16.0328 0.630339 15.4641 0.51656 15.083C0.382082 14.6325 0.354742 14.3829 0.349568 13.9453C0.344956 13.5528 0.354313 12.9511 0.449177 12.2012C0.542885 11.4608 0.713687 10.609 0.913044 9.87012C1.11172 9.13389 1.33568 8.51663 1.4814 8.08399C1.62484 7.65807 1.73739 7.27772 1.96285 6.71875C2.16254 6.2237 2.48132 5.43347 2.75972 4.95606C3.25253 4.11122 3.65103 3.60556 4.28707 3.0957C4.48422 2.93767 4.77263 2.68436 5.45894 2.30859C5.90586 2.06392 6.60264 1.70813 7.0566 1.49805C7.28516 1.39228 7.4973 1.30204 7.73726 1.23535C7.97712 1.16874 8.20972 1.13634 8.47359 1.1084C8.9971 1.05297 9.80431 1.00038 10.5654 0.97461C11.331 0.948695 12.0371 0.94922 12.7246 0.94922ZM16.3437 9.21777C16.5495 9.75968 16.7732 10.4366 16.7783 11.3164C16.7809 11.761 16.7921 12.5785 16.6836 13.1855C16.5367 14.0067 16.3332 14.7817 15.833 15.4424C15.6402 15.697 15.4508 15.9323 15.2695 16.1299C15.1823 16.2249 15.0846 16.3227 14.9795 16.416C14.9671 16.4401 14.9549 16.4649 14.9404 16.4883C14.7351 16.8202 14.5253 17.1588 14.1992 17.6602C13.8731 18.1614 13.4313 18.823 12.8623 19.5889C12.4554 20.1364 11.9895 20.7252 11.6308 21.1768C12.2422 21.1764 12.864 21.1419 13.4628 21.0713C14.4107 20.9596 15.2695 20.7627 15.7959 20.6064C16.0537 20.5299 16.1862 20.4757 16.2861 20.4238C16.3883 20.3708 16.4926 20.3019 16.6894 20.1543C17.0826 19.8594 17.6498 19.4006 18.1103 18.9492C18.5634 18.5051 18.9118 18.0658 19.122 17.7812C19.3146 17.5205 19.4822 17.0576 19.7578 16.1826C19.8795 15.7961 19.9691 15.4422 20.1982 14.5059C20.3453 13.9047 20.5117 12.893 20.6298 11.8359C20.7383 10.8651 20.7806 9.89429 20.791 9.25977C19.2153 9.24547 17.6679 9.2302 16.3437 9.21777ZM3.81832 7.4668C3.62194 7.95366 3.54102 8.23538 3.37691 8.72266C3.21504 9.20326 3.02251 9.73262 2.84468 10.3916C2.66749 11.0484 2.51491 11.8093 2.43355 12.4521C2.35354 13.0846 2.34567 13.59 2.34957 13.9219C2.35295 14.2081 2.36025 14.2694 2.43258 14.5117C2.52582 14.8239 2.70327 15.3241 2.85738 15.6914C2.99539 16.0203 3.10205 16.2138 3.3359 16.5596C3.58488 16.9277 3.95316 17.4301 4.26949 17.832C4.57849 18.2246 4.82112 18.4977 5.08785 18.7695C5.35368 19.0404 5.63165 19.2979 6.02047 19.5928C6.42186 19.8972 6.93103 20.2326 7.29976 20.4443C7.60537 20.6198 7.76403 20.6857 8.26461 20.7998C8.52549 20.8593 8.85732 20.9241 9.23531 20.9844C9.33314 20.8614 9.47776 20.6808 9.69918 20.3955L9.70601 20.3867C10.0675 19.9315 10.7168 19.1233 11.2568 18.3965C11.5561 17.9936 11.8161 17.6188 12.0439 17.2842C11.776 17.2763 11.4925 17.2508 11.1972 17.1924C10.7621 17.1062 10.215 16.9677 9.74215 16.791C9.38242 16.6566 9.05999 16.5363 8.81148 16.4287C8.61022 16.3416 8.27283 16.1902 8.03707 15.9365C7.6374 15.5061 6.9899 14.6552 6.86812 13.4932C6.86107 13.4258 6.84881 13.323 6.8359 13.1992C6.78992 13.0462 6.68384 12.7 6.49215 12.1318C6.36594 11.7579 6.15554 11.3205 5.94722 10.8945C5.7572 10.506 5.59434 10.214 5.41109 9.88379C5.03856 9.21239 4.8081 8.77451 4.5566 8.22852C4.41546 7.92778 4.1907 7.45519 3.9941 7.04102C3.93507 7.18394 3.87445 7.32764 3.81832 7.4668ZM11.7929 9.21289C11.2155 9.20967 10.81 9.3128 10.6337 9.36817C10.6241 9.37476 10.6089 9.38577 10.5878 9.40234C10.5051 9.4677 10.3788 9.58303 10.1699 9.79199C9.9227 10.0393 9.53285 10.5464 9.248 10.9443C9.06922 11.1941 8.97095 11.3772 8.915 11.5029C8.86115 11.624 8.83786 11.711 8.81636 11.7949C8.78209 11.9293 8.76801 12.1709 8.78414 12.4902C8.79048 12.6156 8.80173 12.7351 8.81246 12.8477C8.82417 12.9085 8.82964 12.9692 8.83004 13.0293C8.83996 13.1211 8.84921 13.2071 8.85738 13.2852C8.91067 13.7922 9.19546 14.2278 9.45308 14.5195C9.48371 14.5357 9.53218 14.5616 9.6064 14.5938C9.79707 14.6763 10.0627 14.7755 10.4414 14.917C10.7834 15.0448 11.2204 15.1581 11.5859 15.2305C12.1016 15.3325 12.5846 15.2872 13.0771 15.2051C13.229 15.1797 13.3417 15.1199 13.6103 14.957C13.6101 14.957 13.669 14.9165 13.7959 14.7783C13.9156 14.6478 14.0616 14.4686 14.2382 14.2354C14.4401 13.9688 14.5799 13.5885 14.7148 12.834C14.7837 12.4487 14.7813 11.8439 14.7783 11.3281C14.7752 10.7928 14.6454 10.3741 14.4677 9.9082C14.4612 9.89107 14.4514 9.87533 14.4443 9.85938C14.3373 9.86 14.2282 9.8444 14.1211 9.80859C14.0623 9.78891 13.8919 9.72072 13.707 9.64746C13.4964 9.56402 13.2052 9.44841 12.8535 9.30957C12.6999 9.24907 12.4749 9.2167 11.7929 9.21289ZM10.6337 2.97363C9.90257 2.99838 9.14483 3.04783 8.68355 3.09668C8.4557 3.12082 8.35249 3.13988 8.27242 3.16211C8.19225 3.18439 8.0983 3.22006 7.89644 3.31348C7.48946 3.50184 6.83356 3.83604 6.41988 4.0625C5.89567 4.34951 5.72026 4.51019 5.53804 4.65625C5.41946 4.75131 5.31416 4.84477 5.21285 4.94824C5.25346 5.01014 5.28854 5.07706 5.31539 5.14942C5.32764 5.18247 5.32241 5.17402 5.54781 5.64844C5.76065 6.09642 6.15518 6.92726 6.36715 7.37891L6.37105 7.38574C6.59396 7.87009 6.79733 8.26024 7.16011 8.91406C7.30741 9.17953 7.4552 9.45053 7.62203 9.77832C7.90587 9.38188 8.38018 8.75369 8.75582 8.37793C9.15501 7.97867 9.52664 7.62502 9.98922 7.47363L10.292 7.38672C10.5808 7.3142 10.9736 7.24234 11.4531 7.21973C11.5771 7.17429 11.7122 7.15334 11.8525 7.16113C11.9293 7.16541 12.008 7.16798 12.497 7.17578C12.7102 7.05325 12.9685 7.00875 13.2265 7.07031C13.3226 7.09325 13.4241 7.11773 13.5351 7.14649L13.7011 7.19336C15.1233 7.2092 17.6449 7.2317 20.3115 7.25586C20.2521 7.15841 20.1834 7.04877 20.0996 6.92774C19.8623 6.58516 19.531 6.1851 19.2988 5.93457C19.1158 5.73722 19.0549 5.69094 18.8144 5.55371C18.5359 5.39479 18.0773 5.15614 17.1787 4.77832C16.2702 4.39637 14.9524 3.89114 14.0459 3.59082C13.1654 3.29916 12.7195 3.21884 12.4443 3.16406L12.4345 3.16113L12.4238 3.15918C11.9869 3.06255 11.9319 3.04483 11.7773 3.01172L11.7675 3.00977C11.7241 2.99998 11.7073 2.99532 11.6738 2.98828C11.6441 2.98205 11.6018 2.97415 11.5361 2.96289C11.5256 2.96109 11.5152 2.95721 11.5048 2.95508C11.2202 2.95861 10.9315 2.96356 10.6337 2.97363Z" fill="black"/>
</svg>
