<svg width="24" height="24" viewBox="0 0 24 24" fill="none" xmlns="http://www.w3.org/2000/svg">
<path d="M2.67169 5.36505C3.09472 5.01001 3.72484 5.06507 4.07989 5.4881C4.19876 5.62972 4.32239 5.7857 5.37677 6.76935C6.41955 7.74216 8.40312 9.55118 9.40118 10.5076C9.88636 10.9726 10.1918 11.2844 10.3592 11.5106C10.4282 11.6038 10.596 11.8364 10.6287 12.1561C10.6738 12.5979 10.4374 12.8922 10.408 12.9315C10.2752 13.1093 10.102 13.281 9.64142 13.6981C9.15563 14.1379 8.34237 14.8541 7.72149 15.4451C6.72548 16.4553 6.07547 17.1306 5.69708 17.4852L5.57794 17.6082C5.54776 17.6417 5.52481 17.669 5.48028 17.7215C5.12309 18.1424 4.49224 18.1947 4.0711 17.8377C3.65002 17.4806 3.59811 16.8498 3.95489 16.4285C4.03531 16.3337 4.1237 16.2259 4.30157 16.0525L4.30939 16.0447L4.31817 16.0369C4.65379 15.7241 5.24888 15.1045 6.30353 14.035L6.31427 14.0242L6.32599 14.0135C6.97016 13.3992 7.83329 12.6365 8.29181 12.2215C8.21166 12.1427 8.12195 12.0512 8.01739 11.951C7.02809 11.003 5.09336 9.24056 4.01251 8.23224C2.94337 7.23483 2.74812 7.01093 2.54864 6.77325C2.19368 6.35032 2.24893 5.72015 2.67169 5.36505ZM14.6951 15.4285C15.3893 15.4477 16.7683 15.4857 18.1883 15.5252C18.7402 15.5407 19.1752 16.0016 19.16 16.5535C19.1444 17.1053 18.6844 17.5404 18.1326 17.5252C16.7123 17.4857 15.3333 17.4467 14.6395 17.4275C14.2926 17.418 14.1167 17.4133 14.0272 17.4109C13.9825 17.4098 13.96 17.4092 13.949 17.409H13.9549C13.4027 17.4089 12.9549 16.9612 12.9549 16.409C12.955 15.8569 13.4028 15.4091 13.9549 15.409C13.9824 15.409 14.0171 15.4098 14.6951 15.4285Z" fill="black"/>
</svg>
