<svg width="24" height="24" viewBox="0 0 24 24" fill="none" xmlns="http://www.w3.org/2000/svg">
<path d="M12.5438 1.23641C12.5591 1.23996 12.5944 1.24835 12.6404 1.26083L12.8025 1.31258L12.8348 1.32528L12.865 1.33993C13.0396 1.42166 13.3 1.58699 13.9168 2.02645L14.5809 2.49715C14.8363 2.67972 15.1111 2.87877 15.3592 3.06747C15.8456 3.43748 16.2571 3.78824 16.5701 4.03817C16.9236 4.32032 17.2029 4.534 17.4334 4.67684C17.9222 4.97968 18.161 5.09757 18.9207 5.52645C19.6094 5.91522 20.9185 6.66267 21.5897 7.06942C21.7541 7.16908 21.9048 7.26294 22.0262 7.34872C22.1192 7.41446 22.3162 7.55592 22.4568 7.76864C22.5401 7.89455 22.6352 8.09187 22.6434 8.34676C22.6518 8.61092 22.5636 8.82611 22.4676 8.97469C22.4465 9.00729 22.4234 9.0376 22.4002 9.06649C22.4257 9.43347 22.4605 9.98575 22.532 10.7511C22.6105 11.5899 22.7299 12.6496 22.7967 13.2198C22.8297 13.5014 22.8495 13.6604 22.8631 13.7677C22.8765 13.8735 22.8859 13.9475 22.8943 14.0421C22.9219 14.3495 22.9512 14.4239 22.9881 14.7022C23.007 14.845 23.1042 15.455 22.6111 15.9083C22.5267 15.9859 22.4446 16.0383 22.3924 16.0704C22.3417 16.1016 22.2785 16.1376 22.2127 16.1749C22.0723 16.2544 21.843 16.3836 21.4412 16.6173C20.631 17.0884 19.171 17.9544 18.2156 18.5372C17.2518 19.1251 16.8455 19.3957 16.4315 19.6534C16.2312 19.778 16.048 19.8874 15.8543 20.004C15.6594 20.1214 15.4454 20.2517 15.1707 20.4239C14.6097 20.7755 13.8473 21.2715 13.4061 21.5968C13.2232 21.7316 13.1092 21.8418 12.993 21.9503C12.9488 21.9915 12.8471 22.087 12.7332 22.1641C12.6246 22.2378 12.3206 22.4245 11.907 22.3556C11.6814 22.3179 11.4905 22.2159 11.4109 22.1729C11.3054 22.1159 11.1923 22.0462 11.0975 21.9874C10.8892 21.8582 10.6923 21.7343 10.4813 21.629C10.2387 21.5079 9.85143 21.3249 8.492 20.4659C7.1523 19.6194 4.8919 18.1325 3.6795 17.3477C3.28459 17.0921 2.99745 16.9127 2.78887 16.7813C2.64334 16.7831 2.49503 16.7562 2.3543 16.6905C2.14591 16.5932 1.98733 16.433 1.88946 16.2432C1.75985 16.1482 1.55211 15.956 1.46661 15.6319C1.40452 15.3963 1.36093 15.1205 1.2752 13.6944C1.21118 12.6294 1.10903 10.7233 1.05157 9.70028C0.993896 8.6734 0.981934 8.53301 0.970516 8.39657C0.929176 7.89802 1.2611 7.45476 1.73321 7.34188C1.7944 7.28239 1.85041 7.23533 1.88262 7.21004C1.95202 7.15557 2.03318 7.09683 2.12091 7.03719C2.29762 6.91708 2.52889 6.77395 2.8045 6.61727C3.5803 6.17628 4.05793 5.92561 4.49884 5.64461C4.90599 5.3851 5.70019 4.86772 6.42462 4.45614C7.21609 4.0065 7.70164 3.79318 8.50567 3.29794C9.27978 2.82109 10.2257 2.15242 10.7205 1.80379C10.9637 1.63245 11.0905 1.54413 11.157 1.49813C11.1868 1.47755 11.2165 1.45726 11.241 1.44149C11.2469 1.43771 11.2888 1.41035 11.3416 1.38387C11.37 1.36967 11.4393 1.3366 11.533 1.31161C11.6585 1.2782 11.7611 1.27743 11.7908 1.27743C11.8389 1.27743 11.8862 1.28357 11.9324 1.29012C12.1192 1.21164 12.3313 1.18741 12.5438 1.23641ZM7.6463 13.4766C6.64364 14.1751 5.55281 14.9269 4.85333 15.4171C4.77167 15.4743 4.69568 15.5281 4.62481 15.5782C4.67039 15.6076 4.71778 15.6376 4.76641 15.669C6.00482 16.4706 8.2315 17.9348 9.56036 18.7745C10.216 19.1888 10.6257 19.4334 10.8934 19.585C10.895 19.4934 10.8987 19.3655 10.8973 19.1837L10.8982 19.1827C10.8853 18.6194 10.8531 17.5977 10.8328 16.8458C10.8232 16.4889 10.8177 16.2011 10.8123 15.9503C10.7548 15.9322 10.7033 15.9132 10.659 15.8936C10.2693 15.7217 9.90205 15.3824 9.74884 15.2306C9.57854 15.0618 9.40155 14.8588 8.31915 14.002C8.12271 13.8466 7.8925 13.6694 7.6463 13.4766ZM16.2332 13.1729C15.1399 13.8753 14.0284 14.5827 13.2811 15.047C13.1063 15.1555 12.9448 15.2498 12.7996 15.338C12.8064 15.7257 12.8143 16.1421 12.8318 16.7921C12.8518 17.5328 12.8845 18.5892 12.8973 19.1524V19.5147C13.3078 19.2387 13.7559 18.9494 14.1082 18.7286C14.3974 18.5474 14.6235 18.4112 14.8231 18.2911C15.0236 18.1703 15.1905 18.0709 15.3748 17.9561C15.7301 17.735 16.2147 17.4157 17.1746 16.8302C17.9012 16.387 18.9111 15.7856 19.7166 15.3106C19.5782 15.2272 19.3864 15.1116 19.0242 14.8917V14.8907C18.5785 14.6298 17.7647 14.1637 16.9168 13.6212C16.6826 13.4713 16.457 13.3207 16.2332 13.1729ZM3.27227 13.5743C3.28333 13.7583 3.29495 13.9208 3.3045 14.0636C3.42363 13.9789 3.55644 13.8841 3.70587 13.7794C4.31038 13.3558 5.15919 12.7705 5.99688 12.1895C5.56797 11.8561 5.17182 11.5459 4.86993 11.3106C3.7482 10.4364 3.57919 10.2766 3.33966 10.1007C3.25996 10.0422 3.16691 9.98027 3.06524 9.91122C3.12475 10.9799 3.21472 12.6168 3.27227 13.5743ZM11.5506 10.5636L11.0496 10.9532C10.7371 11.2026 10.3667 11.529 9.34942 12.2696C9.42276 12.3274 9.49375 12.3819 9.56036 12.4347C10.7052 13.3408 10.9376 13.5932 11.1561 13.8097C11.1885 13.8418 11.2326 13.8775 11.2772 13.9161C11.4652 13.8123 11.7582 13.639 12.2254 13.3487C12.7872 12.9997 13.5602 12.5082 14.3768 11.9864C14.3618 11.9775 14.3469 11.968 14.3318 11.9591C13.4102 11.4142 12.4942 10.9614 11.8719 10.6192C11.7869 10.5725 11.7109 10.5271 11.6404 10.4864C11.6084 10.5131 11.5795 10.5404 11.5506 10.5636ZM20.1395 10.6075C19.8003 10.8406 19.3308 11.1588 18.5887 11.6466C18.4274 11.7526 18.2528 11.8643 18.0701 11.9835C18.4514 12.226 18.8218 12.4522 19.1541 12.6495L20.0486 13.1739L20.0623 13.1817C20.5411 13.4723 20.7017 13.5709 20.8338 13.6495C20.8269 13.5916 20.819 13.526 20.8104 13.4522C20.743 12.8766 20.6214 11.7995 20.5408 10.9376C20.5217 10.7331 20.5075 10.542 20.493 10.3653C20.3938 10.4339 20.2793 10.5114 20.1395 10.6075ZM10.7264 4.23544C10.3443 4.49504 9.93294 4.76795 9.5545 5.00106C8.74733 5.49824 8.0139 5.853 7.4129 6.19442C6.74494 6.5739 6.00845 7.05425 5.57403 7.33114C5.14858 7.60229 4.65922 7.86832 4.08868 8.18856C4.23536 8.28699 4.38802 8.38908 4.52325 8.48836C4.77591 8.67387 5.08994 8.94573 6.09942 9.73251C6.50799 10.0509 7.09861 10.5141 7.7088 10.9893C7.78911 10.9321 7.86774 10.8779 7.9422 10.8243C9.0918 9.99738 9.42697 9.69036 9.80255 9.39071C9.89936 9.31347 9.99374 9.24087 10.077 9.17684C10.1629 9.11073 10.2344 9.0543 10.2996 9.00204C10.3645 8.95 10.4128 8.90978 10.4481 8.87704C10.452 8.87336 10.4554 8.86949 10.4588 8.86629C10.4602 8.85433 10.4629 8.83933 10.4647 8.82137C10.4673 8.7939 10.4703 8.76288 10.4734 8.72469C10.4765 8.68801 10.4801 8.64209 10.4842 8.59579C10.5187 8.20328 10.5726 7.78212 10.619 7.09774C10.6645 6.42563 10.6981 5.56438 10.7147 4.90926C10.7211 4.65502 10.724 4.43503 10.7264 4.23544ZM12.7303 3.6368C12.7297 4.00476 12.7277 4.4051 12.7137 4.96004C12.6967 5.63036 12.6632 6.5227 12.615 7.23348C12.5729 7.85485 12.5166 8.35083 12.4861 8.66415C12.5691 8.71531 12.6808 8.78163 12.8348 8.86629C13.3423 9.14537 14.4057 9.67951 15.3494 10.2374C15.6511 10.4157 15.9485 10.6031 16.24 10.7901C16.6971 10.4941 17.1251 10.2156 17.49 9.97567C18.2198 9.49597 18.678 9.1849 19.0066 8.95907C19.3278 8.73836 19.5516 8.58066 19.785 8.42879C19.8118 8.41132 19.84 8.39433 19.867 8.37704C19.2202 7.9999 18.4293 7.54639 17.9373 7.26864C17.2354 6.87241 16.9154 6.70831 16.3807 6.37704C16.0357 6.16332 15.6704 5.87893 15.3231 5.60165C14.935 5.29186 14.6191 5.01743 14.1482 4.65926C13.6872 4.30858 13.1233 3.91519 12.7615 3.65926L12.7596 3.65731C12.7497 3.65031 12.7399 3.64362 12.7303 3.6368Z" fill="black"/>
</svg>
