<svg width="24" height="24" viewBox="0 0 24 24" fill="none" xmlns="http://www.w3.org/2000/svg">
<path d="M6.97819 2.00729C6.99974 2.00834 7.32419 2.01496 7.48893 2.03072C7.67785 2.04886 7.96956 2.09326 8.25944 2.24655L8.38346 2.31881L8.59538 2.46334C8.68201 2.52761 8.77971 2.60774 8.87077 2.70455C9.07663 2.92353 9.21825 3.18363 9.30827 3.49069C9.36708 3.69142 9.41428 3.87014 9.4567 4.03365C9.49974 4.19952 9.53698 4.3456 9.5817 4.50338C9.63099 4.67732 9.6733 4.92817 9.71256 5.15084C9.75708 5.40329 9.81353 5.71882 9.89616 6.10787C9.94336 6.33009 9.99197 6.49199 10.0661 6.80319C10.1237 7.04506 10.1833 7.34133 10.2028 7.64889C11.0345 7.63639 11.9505 7.60478 12.862 7.54244C13.2915 7.51306 13.7183 7.47541 14.1335 7.43502C14.1471 6.65467 14.2007 6.14898 14.3044 5.71432C14.4185 5.23599 14.5292 4.83183 14.6423 4.50436C14.7494 4.19428 14.8851 3.87407 15.0788 3.61959C15.2624 3.37848 15.5439 3.04794 16.0592 2.78854C16.4707 2.58154 16.961 2.34981 17.3669 2.24752C17.6699 2.17126 18.5298 2.03962 19.6559 2.15182C20.2989 2.21593 21.0724 2.392 21.5544 2.9526L21.6471 3.06979L21.7663 3.24264C21.893 3.43565 22.0373 3.685 22.1559 3.96237C22.3042 4.30907 22.4701 4.83157 22.3766 5.38619C22.3244 5.69551 22.1963 6.09746 21.9225 6.55612C21.6942 6.93857 21.4051 7.3778 21.0221 7.73483C20.7423 7.99568 20.3583 8.34554 19.8024 8.55416C19.4823 8.6742 19.0926 8.77197 17.9821 8.95162C17.4967 9.03013 16.8676 9.12206 16.152 9.2153L16.153 9.21627C16.1866 10.3847 16.2709 11.9821 16.362 13.4643C17.5623 13.4596 18.1969 13.498 18.6227 13.5981C19.1859 13.7305 19.9573 13.9207 20.3717 14.6557C20.677 15.1974 21.0223 15.8832 20.9362 17.0463C20.9065 17.4478 20.8752 17.9926 20.6266 18.4965C20.4226 18.9103 20.1456 19.4652 19.6755 19.8598C19.4345 20.0619 19.1598 20.2891 18.8854 20.4858C18.6213 20.6751 18.2958 20.8818 17.9518 21.0024C17.6852 21.0959 17.381 21.1688 17.0778 21.184C16.8057 21.1976 16.3671 21.1733 15.987 20.8969C15.8615 20.8057 15.6393 20.6421 15.4196 20.2983C15.2244 19.9928 15.0544 19.5838 14.8942 19.0151C14.7672 18.5641 14.6853 18.0888 14.5465 16.2739C14.5284 16.0366 14.5105 15.7758 14.4909 15.4985C13.0631 15.5413 11.2841 15.6261 9.76725 15.7417C9.75957 15.8094 9.75281 15.875 9.74577 15.937C9.67714 16.541 9.64264 16.9638 9.57389 17.271C9.48838 17.6529 9.40021 18.0083 9.25163 18.3012C9.17916 18.4444 8.92656 19.0353 8.46354 19.518C8.06062 19.9379 7.53435 20.3455 6.44401 20.6616C6.08728 20.765 5.57224 20.8905 5.03873 20.7934C4.79176 20.7484 4.44504 20.6399 4.09342 20.4731C3.74096 20.3058 3.31452 20.0475 2.96549 19.6684C2.76205 19.4474 2.31194 18.9385 2.14909 18.1626C2.07354 17.8023 2.00951 17.4034 2.00065 17.0346C1.99328 16.7271 2.0124 16.1824 2.34538 15.7514C2.44992 15.6162 2.62399 15.3989 3.00553 15.1665C3.34626 14.959 3.8293 14.753 4.54557 14.5366C5.20568 14.3372 6.14641 14.0967 7.95182 13.8989C7.97399 13.6775 7.99863 13.4609 8.01627 13.2583C8.08414 12.4787 8.10488 11.9384 8.1237 11.5864C8.14373 11.2117 8.15544 11.156 8.16569 10.7407C8.17271 10.4561 8.17599 10.0212 8.17838 9.6401C8.06841 9.63753 7.96252 9.63739 7.86295 9.63424C6.66492 9.59637 6.19621 9.52178 5.78971 9.41549C5.43668 9.32315 5.15039 9.22278 4.83561 9.06393C4.60493 8.94751 4.33643 8.81605 4.11881 8.69088C3.93107 8.58287 3.61066 8.38843 3.39811 8.08834C3.1203 7.69602 2.88888 7.20017 2.87565 6.40182C2.87184 6.1713 2.86431 5.90475 2.87174 5.6694C2.87922 5.43307 2.90346 5.14493 2.99381 4.86178C3.13076 4.43287 3.32018 3.84933 3.58659 3.4692C3.77712 3.19759 4.02617 2.87599 4.55534 2.63522C4.87183 2.49134 5.15619 2.36488 5.38151 2.27096C5.49323 2.2244 5.599 2.18243 5.69108 2.14889C5.76386 2.1224 5.89222 2.07686 6.02116 2.05416L6.20866 2.0278C6.41792 2.00425 6.68802 1.99151 6.97819 2.00729ZM16.5407 16.1215C16.6801 17.9447 16.7533 18.2364 16.82 18.4731C16.9303 18.8648 17.0217 19.0699 17.0768 19.1714C17.0861 19.1696 17.0969 19.1696 17.1071 19.1674C17.163 19.1554 17.2252 19.1373 17.2897 19.1147C17.3621 19.0893 17.5034 19.0153 17.7204 18.8598C17.9271 18.7117 18.1501 18.5283 18.3893 18.3276C18.4901 18.243 18.605 18.0734 18.8327 17.6118C18.8786 17.5187 18.9062 17.3835 18.9421 16.8989C18.9665 16.5684 18.9309 16.349 18.8825 16.185C18.8353 16.0254 18.7646 15.8835 18.6569 15.6899C18.6271 15.6765 18.5796 15.6572 18.5055 15.6342C18.4179 15.6071 18.3075 15.578 18.1647 15.5444C17.9801 15.501 17.5858 15.4625 16.4938 15.4633C16.5105 15.6969 16.5251 15.918 16.5407 16.1215ZM7.73307 15.938C6.33312 16.1112 5.61031 16.3036 5.1237 16.4506C4.48981 16.6422 4.18471 16.7907 4.04557 16.8755C4.02852 16.8859 4.01509 16.8969 4.00358 16.9047C4.00276 16.927 3.9989 16.9544 3.99967 16.9868C4.00431 17.1787 4.04198 17.4409 4.10709 17.7514C4.15475 17.9784 4.29143 18.1556 4.43717 18.3139C4.55404 18.4407 4.7369 18.5649 4.95084 18.6665C5.16512 18.7681 5.34439 18.816 5.39713 18.8256C5.443 18.8338 5.57306 18.8318 5.88737 18.7407C6.28017 18.6268 6.51864 18.5144 6.67155 18.4214C6.81767 18.3323 6.91553 18.2433 7.02018 18.1342C7.22404 17.9217 7.32367 17.6813 7.46842 17.396C7.48738 17.3585 7.53052 17.2418 7.62174 16.8344C7.65515 16.6852 7.67137 16.4935 7.73307 15.938ZM12.9987 9.53756C12.029 9.60388 11.0572 9.63748 10.1784 9.64987C10.1759 10.0425 10.1721 10.4913 10.1647 10.7905C10.1536 11.2413 10.1371 11.3882 10.1208 11.6938C10.1032 12.0228 10.08 12.6097 10.0085 13.4321C10.0003 13.5257 9.98837 13.622 9.97916 13.7202C11.4203 13.6171 13.032 13.5393 14.36 13.4985C14.2743 12.0936 14.1951 10.5932 14.1589 9.44186C13.779 9.47753 13.3903 9.51078 12.9987 9.53756ZM6.3942 4.02096C6.38897 4.02281 6.38253 4.02529 6.37565 4.0278C6.32372 4.04671 6.24832 4.07668 6.15006 4.11764C5.95411 4.19933 5.69321 4.31472 5.38346 4.45553C5.35301 4.4694 5.33674 4.47889 5.33073 4.48287C5.32597 4.48606 5.32362 4.48812 5.32194 4.48971C5.31357 4.49772 5.2932 4.5194 5.22428 4.61764C5.2234 4.61915 5.21976 4.62537 5.21354 4.63619C5.20622 4.64893 5.19563 4.66672 5.18424 4.6899C5.16089 4.7375 5.13424 4.80043 5.10319 4.87936C5.04001 5.03999 4.97334 5.23762 4.89909 5.47018C4.89252 5.491 4.87617 5.56224 4.87077 5.73287C4.86534 5.90523 4.87115 6.09721 4.87565 6.36959C4.87898 6.56853 4.90641 6.68193 4.92838 6.74557C4.94435 6.79167 4.96606 6.83188 4.99772 6.88131C5.02169 6.89804 5.05893 6.92373 5.11588 6.95651C5.27163 7.04611 5.46581 7.14095 5.73698 7.2778C5.89828 7.3592 6.04606 7.41467 6.29557 7.47994C6.49219 7.53136 6.79061 7.59932 7.92643 7.63522C8.01101 7.63789 8.10036 7.63786 8.19303 7.6401C8.17818 7.53583 8.1555 7.41299 8.12077 7.26705C8.07732 7.08457 7.98842 6.75592 7.93913 6.52389C7.8491 6.10001 7.78836 5.75665 7.74284 5.4985C7.69218 5.21123 7.67158 5.09783 7.65788 5.04928C7.6056 4.86486 7.56112 4.6934 7.52018 4.53561C7.47913 4.37741 7.43989 4.22636 7.39127 4.06002C7.38453 4.05532 7.37636 4.04978 7.36686 4.04342C7.35944 4.03845 7.35166 4.03321 7.34342 4.0278C7.33274 4.02611 7.31725 4.02383 7.29752 4.02194C7.2522 4.01762 7.1979 4.01517 7.1237 4.01315C7.0612 4.01145 6.95775 4.0092 6.86881 4.00436C6.65718 3.99288 6.47793 4.00929 6.3942 4.02096ZM19.4577 4.14205C19.0149 4.09795 18.6331 4.10273 18.3473 4.1235C18.2049 4.13386 18.0876 4.14858 18.0006 4.16158C17.9575 4.16806 17.922 4.17421 17.8962 4.17916C17.8836 4.18157 17.8731 4.18346 17.8659 4.18502C17.86 4.18627 17.856 4.18677 17.8551 4.18698C17.6909 4.22844 17.3833 4.36052 16.9577 4.57467C16.8822 4.61274 16.8349 4.64939 16.8005 4.68112C16.7629 4.71576 16.7253 4.7584 16.6696 4.83151C16.6637 4.84137 16.613 4.92571 16.5329 5.15768C16.4508 5.39555 16.3584 5.72791 16.2506 6.17916C16.1982 6.3993 16.158 6.68372 16.1403 7.19967C16.7284 7.12051 17.2489 7.04494 17.6628 6.97799C18.7645 6.79976 18.9815 6.72527 19.0993 6.68112C19.2541 6.62304 19.3904 6.52219 19.6589 6.27194C19.8274 6.11482 19.9985 5.87616 20.2048 5.53073C20.3545 5.27989 20.394 5.11191 20.404 5.05319C20.4035 5.04407 20.4022 4.9475 20.3171 4.7485C20.242 4.57316 20.1361 4.40183 20.0485 4.27584C20.0377 4.27017 20.022 4.26062 19.9987 4.25143C19.8994 4.21229 19.7269 4.16892 19.4577 4.14205Z" fill="black"/>
</svg>
