<svg width="24" height="24" viewBox="0 0 24 24" fill="none" xmlns="http://www.w3.org/2000/svg">
<g clip-path="url(#clip0_109_739)">
<path d="M15.2598 0.542969C15.8121 0.542969 16.2598 0.990684 16.2598 1.54297C16.2598 2.13682 16.2595 2.70333 16.2627 2.99414C16.2632 3.04371 16.2639 3.0838 16.2646 3.11621C17.1622 3.14406 17.7612 3.17064 18.2275 3.20996L18.2461 3.21094L18.2637 3.21387C18.7145 3.26846 19.0599 3.3153 19.3047 3.35938C19.4239 3.38084 19.5485 3.40676 19.6602 3.44043C19.7151 3.45701 19.794 3.4834 19.8779 3.52441C19.924 3.54694 20.0383 3.60431 20.1553 3.71484L20.2715 3.84375L20.3525 3.96387C20.5304 4.25441 20.6297 4.65079 20.7607 5.55664C20.8347 6.06763 20.9392 6.83716 21.0312 7.52148C21.3555 7.56717 21.6815 7.62043 22.002 7.68066C22.1869 7.71266 22.3659 7.7361 22.4814 7.75C22.5363 7.7566 22.5762 7.76115 22.6211 7.76562C22.6671 7.77021 22.7214 7.77576 22.792 7.78418C23.3402 7.84973 23.7314 8.34722 23.666 8.89551C23.6003 9.44351 23.1028 9.83487 22.5547 9.76953C22.5058 9.76371 22.4696 9.76051 22.4229 9.75586C22.3747 9.75106 22.3181 9.74547 22.2422 9.73633C22.096 9.71873 21.884 9.68876 21.6621 9.65039L21.6543 9.64941L21.6465 9.64746C21.5287 9.62524 21.4109 9.60492 21.2939 9.58496C21.2999 9.63885 21.3066 9.69799 21.3145 9.7666C21.3639 10.1993 21.4592 10.9898 21.457 12.5205C21.4568 12.7098 21.4511 12.9094 21.4482 13.1162C21.725 13.0963 22.0356 13.0778 22.3447 13.0596C22.8959 13.0272 23.3689 13.4478 23.4014 13.999C23.4337 14.5502 23.0132 15.0232 22.4619 15.0557C22.1105 15.0764 21.781 15.0959 21.501 15.1172C21.466 15.1198 21.4319 15.1233 21.3984 15.126C21.3677 15.9799 21.3309 16.7888 21.3018 17.3574C21.2444 18.4748 21.2213 18.7626 21.1523 19.0449C21.1197 19.1786 21.0724 19.3922 21.0146 19.5752C20.956 19.7609 20.8541 20.031 20.6533 20.2725C20.3184 20.6751 19.7529 20.9743 19.0127 21.123C18.5685 21.2123 18.0645 21.2458 16.2227 21.2471C16.1941 21.4157 16.157 21.6233 16.1182 21.8662L16.0908 22.1719C16.0867 22.2543 16.0852 22.3218 16.084 22.3828C16.0806 22.5446 16.073 22.6235 16.0596 22.7666C16.0079 23.3161 15.5202 23.7201 14.9707 23.6689C14.421 23.6175 14.0162 23.1298 14.0674 22.5801C14.0749 22.4998 14.0787 22.466 14.0811 22.4346C14.0827 22.4116 14.084 22.3875 14.085 22.3408C14.0874 22.2206 14.0877 21.9803 14.1338 21.6152L14.1357 21.5996L14.1387 21.583C14.1583 21.46 14.178 21.345 14.1953 21.2393C12.9147 21.2308 11.4839 21.2144 10.3027 21.2002C10.3051 21.2537 10.3096 21.3378 10.3154 21.4609C10.323 21.6206 10.3317 21.8204 10.335 22.0186L10.3359 22.0547L10.334 22.0898C10.3273 22.21 10.312 22.3333 10.3037 22.415C10.2941 22.5093 10.2801 22.6706 10.2578 22.8584C10.1927 23.4068 9.69492 23.7985 9.14648 23.7334C8.59827 23.6681 8.20646 23.1713 8.27148 22.623C8.29119 22.457 8.30161 22.3393 8.31445 22.2129C8.32576 22.1016 8.33051 22.0567 8.33398 22.0127C8.33081 21.8579 8.32512 21.6979 8.31836 21.5557C8.31187 21.4193 8.30318 21.2621 8.30176 21.1816C8.30171 21.1787 8.30178 21.1758 8.30176 21.1729C7.13559 21.1529 7.03886 21.1428 6.95508 21.1396C6.83376 21.1351 6.5185 21.1345 6.22949 21.0684C6.17705 21.0563 5.27108 20.9848 4.65625 20.332C4.25354 19.9043 3.79743 19.246 3.65039 18.335C3.59495 17.9909 3.54957 17.5221 3.54297 15.4521C3.54255 15.3206 3.54309 15.1823 3.54297 15.0391C2.98757 15.0519 2.44266 15.0645 2.04199 15.0713C1.59327 15.0789 1.3428 15.0791 1.08887 15.0791C0.536831 15.0791 0.0892703 14.631 0.0888672 14.0791C0.0888672 13.5268 0.536582 13.0791 1.08887 13.0791C1.33799 13.0791 1.57624 13.0786 2.00879 13.0713C2.41444 13.0644 2.97374 13.0505 3.54785 13.0371C3.55249 12.0869 3.55956 11.0799 3.56738 10.1553C3.10508 10.1519 2.44146 10.1477 1.7627 10.1426C1.21071 10.1383 0.766605 9.68672 0.770508 9.13477C0.774818 8.58262 1.22614 8.13841 1.77832 8.14258C2.45889 8.14772 3.12377 8.15266 3.58594 8.15625C3.58702 8.05115 3.58784 7.95041 3.58887 7.85449C3.60868 5.99756 3.61665 5.92982 3.61816 5.86035C3.61785 5.85594 3.61739 5.83828 3.61523 5.78125C3.61278 5.71629 3.61035 5.6189 3.61621 5.50781C3.62811 5.28304 3.67533 4.9753 3.84473 4.65625L3.96484 4.42871C4.02277 4.323 4.0966 4.19665 4.17773 4.0791C4.32545 3.86517 4.63389 3.46929 5.1416 3.30762C5.68485 3.13478 6.16803 3.05404 7.0791 3.03223C7.37976 3.02503 7.80375 3.019 8.18164 3.0166C8.16972 2.76898 8.15383 2.43069 8.14355 2.21582C8.13009 1.93421 8.1286 1.89605 8.12012 1.80859C8.06682 1.25895 8.46894 0.770192 9.01855 0.716797C9.5682 0.663496 10.057 1.06562 10.1104 1.61523C10.1247 1.7627 10.129 1.85766 10.1416 2.12109C10.1528 2.35557 10.1705 2.72807 10.1826 2.97949C11.6443 3.00771 13.0701 3.03681 14.2637 3.06348C14.2635 3.04775 14.2629 3.0318 14.2627 3.01562C14.2593 2.71069 14.2598 2.12994 14.2598 1.54297C14.2598 0.990684 14.7075 0.542969 15.2598 0.542969ZM12.0576 5.0166C11.9545 5.04937 11.8447 5.06726 11.7305 5.06445C11.2315 5.05198 10.5112 5.04615 9.77734 5.04297C9.54279 5.04195 9.38381 5.03611 9.23145 5.03027C9.08351 5.02461 8.94389 5.01898 8.73047 5.0166C8.33959 5.01225 7.58856 5.02118 7.12695 5.03223C6.42777 5.04897 6.12677 5.10199 5.8457 5.18457C5.83903 5.19339 5.83127 5.20419 5.82324 5.21582C5.79137 5.26205 5.75704 5.31901 5.7207 5.38574C5.70294 5.41839 5.68594 5.45172 5.66797 5.48633C5.65305 5.51506 5.63263 5.55301 5.61523 5.58594C5.61893 5.5765 5.61504 5.58046 5.61328 5.61328C5.61216 5.63472 5.61166 5.66191 5.61328 5.70508C5.61371 5.71587 5.6147 5.72743 5.61523 5.74023C5.61575 5.75238 5.61665 5.76836 5.61719 5.7832C5.61819 5.81108 5.61919 5.85552 5.61816 5.90332C5.61664 5.97303 5.60855 6.03098 5.58887 7.87598C5.56906 9.73239 5.53638 13.3762 5.54297 15.4453C5.54961 17.5291 5.59794 17.8487 5.625 18.0166C5.68981 18.4177 5.89114 18.726 6.1123 18.9609C6.13247 18.9823 6.16161 19.0049 6.23828 19.0283C6.28094 19.0413 6.33216 19.0529 6.4043 19.0664C6.44695 19.0744 6.47138 19.0783 6.52344 19.0879C6.56581 19.0957 6.61989 19.1063 6.67578 19.1191C6.72971 19.1315 6.78843 19.1315 7.03027 19.1406C7.12579 19.1442 7.21994 19.1603 8.96973 19.1855C10.7307 19.211 14.1428 19.2478 16.1016 19.248C18.0918 19.2483 18.3978 19.2076 18.6191 19.1631C18.84 19.1187 18.9797 19.0617 19.0586 19.0205C19.0751 19.0119 19.088 19.0026 19.0986 18.9961C19.1009 18.9895 19.1047 18.982 19.1074 18.9736C19.1207 18.9316 19.1349 18.8786 19.1523 18.8086C19.1724 18.7281 19.1852 18.6716 19.21 18.5703C19.2231 18.5166 19.2429 18.4583 19.3047 17.2549C19.3642 16.0961 19.455 13.971 19.457 12.5176C19.459 11.0893 19.3723 10.3801 19.3281 9.99316C19.2805 9.57577 19.2812 9.54098 19.1855 8.80859C19.0888 8.06752 18.8957 6.63477 18.7812 5.84375C18.7466 5.60422 18.7156 5.42279 18.6904 5.28711C18.5251 5.26304 18.3133 5.23464 18.0459 5.20215C17.512 5.15767 16.748 5.12547 15.3643 5.08984C14.4597 5.06656 13.3103 5.04149 12.0576 5.0166ZM12.2305 7.98633C12.657 7.99663 13.3509 7.99776 13.8037 8.02832C14.1012 8.0484 14.3812 8.06539 14.5869 8.09277C14.6893 8.1064 14.8291 8.12877 14.9688 8.17578C15.0715 8.21036 15.305 8.30011 15.4971 8.52344L15.5762 8.62695L15.6592 8.75879C15.7425 8.90138 15.8262 9.0824 15.8877 9.33398C15.96 9.62984 15.9952 9.9943 16.0029 10.4736C16.0117 11.0189 16.0115 11.9246 15.9912 12.5576C15.9717 13.1652 15.9426 13.569 15.8867 13.8506C15.831 14.1311 15.7409 14.8723 15.0654 15.3379C14.7197 15.5761 14.3169 15.6708 13.6152 15.6914C13.0816 15.707 12.1849 15.7062 11.6953 15.7002C11.1888 15.694 11.0706 15.6833 10.8545 15.6592C10.4248 15.6112 10.0477 15.5634 9.75586 15.502C9.60965 15.4712 9.44671 15.4292 9.29199 15.3652C9.15015 15.3066 8.91593 15.1903 8.73145 14.9551C8.40551 14.5395 8.27898 14.0325 8.2334 13.0645C8.19913 12.3366 8.13207 10.9538 8.11035 10.2021C8.0981 9.77808 8.09357 9.52765 8.09277 9.37793C8.09238 9.30434 8.09293 9.24466 8.09473 9.19629C8.09549 9.17563 8.09833 9.06527 8.12891 8.94434L8.1582 8.8457C8.28275 8.50387 8.58109 8.26575 8.9248 8.20508C9.01357 8.1463 9.11302 8.09997 9.22168 8.07129C9.40201 8.02371 9.50728 8.01483 9.56641 8.00879C9.57719 8.00769 9.58572 8.00598 9.59668 8.00391L9.62012 8L9.64453 7.99609C9.83211 7.96975 10.1024 7.93459 10.4629 7.93945C10.897 7.94532 11.4944 7.96855 12.2305 7.98633ZM10.4355 9.93945C10.3087 9.93776 10.2023 9.94435 10.1055 9.9541C10.107 10.0125 10.1084 10.0756 10.1104 10.1436C10.1314 10.8717 10.1966 12.2304 10.2314 12.9707C10.2447 13.2518 10.2651 13.4395 10.2842 13.5635C10.466 13.5951 10.7203 13.6312 11.0762 13.6709C11.1625 13.6805 11.2028 13.6855 11.2754 13.6895C11.3564 13.6939 11.481 13.6973 11.7197 13.7002C12.197 13.7061 13.0627 13.7059 13.5566 13.6914C13.7046 13.6871 13.809 13.678 13.8809 13.6699C13.8934 13.6147 13.9066 13.5524 13.9248 13.4609C13.9448 13.3605 13.9724 13.1092 13.9922 12.4932C14.0111 11.9025 14.0114 11.0313 14.0029 10.5059C13.9997 10.3047 13.9901 10.1553 13.9795 10.0449C13.8891 10.0385 13.7871 10.0314 13.6689 10.0234C13.2718 9.99664 12.6963 9.99778 12.1816 9.98535C11.4001 9.96647 10.8612 9.9452 10.4355 9.93945ZM16.25 3.11523H16.251C16.2504 3.11135 16.2499 3.10742 16.249 3.10352L16.2393 3.06641C16.2439 3.0824 16.2466 3.09901 16.25 3.11523Z" fill="black"/>
</g>
<defs>
<clipPath id="clip0_109_739">
<rect width="24" height="24" fill="white"/>
</clipPath>
</defs>
</svg>
