<svg width="24" height="24" viewBox="0 0 24 24" fill="none" xmlns="http://www.w3.org/2000/svg">
<path d="M18.5287 3.11259C19.4651 3.11561 20.0077 3.1199 20.3363 3.12919C20.6479 3.13801 20.8603 3.15183 21.0736 3.2122C21.3526 3.2912 21.6638 3.39306 21.9408 3.53153C22.1615 3.64197 22.4763 3.83166 22.6986 4.15263L22.7884 4.29813L22.8597 4.43778C22.9322 4.58834 23.0061 4.7788 23.0589 5.05595C23.1199 5.37617 23.1505 5.79793 23.1605 6.41044C23.1793 7.56612 23.2032 9.72299 23.2289 10.9143C23.2543 12.0969 23.2797 12.2527 23.3207 12.511C23.3587 12.7508 23.4651 13.297 23.4935 13.5784C23.5304 13.9436 23.5937 14.2821 23.5941 14.8489C23.595 16.2007 23.5926 16.5508 23.4945 17.2366C23.4889 17.276 23.4855 17.3391 23.4789 17.4749C23.4731 17.5933 23.4654 17.7571 23.4466 17.929C23.4097 18.2677 23.32 18.7438 23.0257 19.1868C22.8255 19.4882 22.539 19.6866 22.307 19.8108C22.0594 19.9433 21.7828 20.0411 21.5091 20.0999C21.0061 20.2079 20.668 20.2586 20.015 20.3274C19.794 20.3507 19.6054 20.3656 17.139 20.3929C14.6465 20.4204 9.91903 20.4586 7.13803 20.429C4.34905 20.3993 3.50849 20.3041 3.01596 20.2395C2.81493 20.2132 2.65562 20.1926 2.55014 20.1751C2.45321 20.1589 2.23613 20.1228 2.01987 19.9817C1.87995 19.8904 1.66856 19.7404 1.47397 19.4974C1.27559 19.2493 1.12631 18.9452 1.0394 18.5765C0.919888 18.0687 0.774409 17.3092 0.74643 15.9993C0.728525 15.1597 0.736765 13.9493 0.807954 12.7434C0.84124 12.1798 0.89016 11.6122 0.938813 11.1058C0.591647 10.9344 0.361276 10.5686 0.382173 10.1575C0.404767 9.71599 0.710458 9.35608 1.11459 9.24442C1.15651 8.74887 1.17103 8.55847 1.17612 8.3245C1.19298 7.54781 1.24864 6.72612 1.28745 6.21708C1.31427 5.8653 1.3464 5.47156 1.45249 5.11747C1.5144 4.91088 1.61987 4.56203 1.75913 4.25614C1.82751 4.10597 1.92757 3.91263 2.0687 3.73954C2.18997 3.59081 2.48454 3.28067 2.96713 3.24345C3.2859 3.21894 3.73132 3.22677 4.09995 3.24247C4.39997 3.25526 4.72548 3.27808 4.93881 3.30497C4.94624 3.30358 4.954 3.30139 4.96127 3.30009L4.97202 3.29813L4.98178 3.29716C5.09629 3.27906 5.2193 3.27042 5.38999 3.26005C5.5698 3.24912 5.85409 3.23311 6.31284 3.20731L6.32846 3.20634H6.34311C6.99428 3.18945 8.15945 3.17332 8.75131 3.16239C9.35512 3.15124 9.41204 3.14533 11.2621 3.13407C13.1066 3.12284 16.6412 3.1065 18.5287 3.11259ZM19.2611 10.9632C18.9244 10.9676 18.9139 10.9753 15.9349 11.0198C12.9803 11.064 7.29319 11.141 4.41342 11.178C3.8078 11.1858 3.32505 11.19 2.93979 11.1946C2.88992 11.7033 2.83998 12.2696 2.80502 12.8616C2.73746 14.0061 2.72948 15.1616 2.74643 15.9563C2.77116 17.1149 2.89652 17.7345 2.98666 18.1175C2.99927 18.1709 3.0117 18.2039 3.01987 18.221V18.222C3.08714 18.2309 3.16759 18.242 3.27573 18.2561C3.65894 18.3063 4.41262 18.4007 7.15952 18.43C9.91603 18.4593 14.6234 18.4204 17.1175 18.3929C19.6373 18.365 19.7028 18.349 19.805 18.3382C20.4086 18.2745 20.6736 18.2331 21.0892 18.1438C21.1987 18.1203 21.2967 18.083 21.3636 18.0472C21.3721 18.0426 21.3789 18.0372 21.3851 18.0335C21.4126 17.9725 21.4407 17.8737 21.4583 17.7122C21.4696 17.6091 21.4745 17.5042 21.4808 17.3763C21.4862 17.2659 21.4936 17.1032 21.515 16.9534C21.5898 16.4302 21.595 16.2189 21.5941 14.8499C21.5938 14.416 21.5553 14.2946 21.5033 13.7786C21.481 13.5587 21.411 13.2408 21.3451 12.8245C21.2841 12.4397 21.2579 12.178 21.2328 11.0706C21.1023 11.0516 20.9776 11.0318 20.8802 11.013L20.8412 11.0052C20.8299 11.0035 20.7963 10.9991 20.7337 10.9934C20.647 10.9857 20.5305 10.9786 20.3851 10.9729C20.0942 10.9616 19.7106 10.9573 19.2611 10.9632ZM18.5218 5.11259C16.6446 5.10653 13.1182 5.12284 11.2738 5.13407C9.43597 5.14526 9.38846 5.15131 8.78842 5.16239C8.18162 5.1736 7.05896 5.18791 6.41342 5.20438C5.95279 5.23028 5.68363 5.24566 5.51108 5.25614C5.33158 5.26705 5.30012 5.27182 5.29428 5.27274L5.29331 5.27177C5.23671 5.28234 5.13966 5.30203 4.94956 5.32841C4.77062 5.35323 4.59618 5.32783 4.43979 5.26493C4.3168 5.25592 4.16961 5.24711 4.01499 5.24052C3.84352 5.23321 3.67432 5.22874 3.52377 5.22782C3.47071 5.36789 3.417 5.52985 3.3685 5.69169C3.33437 5.80569 3.31096 5.98412 3.28159 6.36942C3.2436 6.86771 3.1908 7.64671 3.17514 8.36845C3.16975 8.61604 3.15447 8.83185 3.12534 9.19169C3.47002 9.18756 3.88621 9.18544 4.38803 9.17899C7.26675 9.14197 12.9518 9.06397 15.9046 9.01981C18.8322 8.97604 18.9216 8.96727 19.2347 8.96317C19.7085 8.95698 20.1278 8.96088 20.4623 8.97391C20.7205 8.98399 20.9911 9.0042 21.1996 9.0413C21.1857 8.08588 21.171 7.09205 21.1605 6.44266C21.151 5.85821 21.1218 5.57679 21.0941 5.43095C21.0853 5.38479 21.0772 5.35728 21.0677 5.33231C21.0614 5.32891 21.0541 5.32456 21.0462 5.32059C20.9912 5.2931 20.921 5.26328 20.8353 5.2327L20.5414 5.14091C20.5119 5.13814 20.4367 5.13264 20.2806 5.12821C19.9825 5.11977 19.4669 5.11564 18.5218 5.11259Z" fill="black"/>
</svg>
