<svg width="24" height="24" viewBox="0 0 24 24" fill="none" xmlns="http://www.w3.org/2000/svg">
<path d="M13.1705 1.00021C13.4489 1.00354 13.6984 1.12196 13.8775 1.30782C14.1549 1.31399 14.4076 1.31853 14.6167 1.32345H14.6324L14.648 1.32443C14.9472 1.34084 15.2454 1.39343 15.4791 1.43771C15.7443 1.48796 15.9001 1.5215 16.0289 1.53732C16.3961 1.58234 16.9669 1.64415 17.5796 1.97872C18.5147 2.4894 19.6076 3.16837 20.3599 4.00314C20.6353 4.30866 20.9039 4.6006 21.1119 4.8381C21.303 5.05635 21.5199 5.31233 21.65 5.53927C22.0478 6.23373 22.6766 7.28817 22.691 9.03439C22.703 10.5155 22.6977 11.6078 22.6695 11.9387C22.6543 12.1168 22.6303 12.4705 22.6207 12.5764C22.5874 12.9401 22.5329 13.4555 22.4644 13.9465C22.4006 14.4045 22.3109 14.9454 22.1871 15.2961C21.9997 15.8268 21.7676 16.6126 20.9517 17.6027C20.4501 18.2115 19.7091 19.1472 18.8511 19.7746C18.6294 19.9367 18.4563 20.084 18.1314 20.3313C17.8509 20.5447 17.5121 20.7877 17.147 20.9777C16.3021 21.4176 15.0067 21.7099 13.9263 21.8713C13.6778 21.9084 13.4055 21.9439 13.0074 21.969C13.007 21.9757 13.0077 21.9824 13.0074 21.9885C13.0032 22.0614 12.9978 22.1605 12.9703 22.2727C12.8383 22.8087 12.2974 23.1367 11.7613 23.0051C11.2914 22.8894 10.982 22.459 11.0015 21.9934C10.2529 21.9833 9.54677 21.9553 9.07573 21.8615C8.4805 21.743 7.94875 21.5643 7.47222 21.3117C7.2122 21.1739 6.97296 21.0697 6.70659 20.9484C6.45699 20.8348 6.16416 20.6976 5.89214 20.5178C5.48114 20.2462 5.09762 19.9922 4.72515 19.6418C4.36696 19.3049 3.85355 18.9147 3.53765 18.3274C3.20185 17.703 2.90138 17.1188 2.67046 16.6369C2.45465 16.1866 2.25894 15.7435 2.1812 15.4436C1.9443 14.5288 1.70374 13.4149 1.69878 12.7981C1.69528 12.3553 1.69567 11.824 1.70562 11.3479C1.71497 10.9005 1.73419 10.419 1.78472 10.1242C1.86644 9.64759 1.88869 9.15486 2.37554 7.80978C2.72003 6.85796 2.98386 5.80314 3.73882 4.79708C4.29515 4.05576 4.87606 3.42955 5.40581 3.01486C5.79978 2.7065 6.29309 2.3084 7.27788 2.04903C8.4166 1.74925 9.61251 1.44602 10.3072 1.26486C10.7302 1.15455 11.3278 1.09054 11.8326 1.05294C12.3544 1.01408 12.8702 0.996654 13.1705 1.00021ZM10.9761 3.16427C10.9139 3.17594 10.8588 3.18822 10.8121 3.2004C10.0862 3.38971 8.93496 3.68059 7.78765 3.98263C7.47762 4.06426 7.27398 4.15685 7.12066 4.24532C6.95797 4.33924 6.83122 4.43976 6.63921 4.59005C6.29415 4.86015 5.832 5.3396 5.33843 5.99728C4.81764 6.69129 4.68496 7.30638 4.2564 8.49044C3.83988 9.64119 3.84177 9.95849 3.75542 10.4621C3.73705 10.5694 3.72126 10.8372 3.7105 11.2258C4.2024 11.2009 4.85657 11.168 5.62554 11.1262V11.1252C6.21935 11.0914 6.29867 11.0826 6.42339 11.0744C6.57145 11.0647 6.63775 11.0629 6.71831 11.051C7.2643 10.9706 7.77309 11.3478 7.85405 11.8938C7.93479 12.4399 7.55733 12.9485 7.01128 13.0295C6.82547 13.057 6.63177 13.0654 6.55425 13.0705C6.453 13.0772 6.34288 13.0879 5.73882 13.1223H5.73687C4.94408 13.1654 4.25989 13.2008 3.74761 13.2268C3.81475 13.6583 3.94721 14.2832 4.11773 14.9416C4.139 15.0237 4.24574 15.296 4.47417 15.7727C4.68758 16.218 4.97291 16.7731 5.29937 17.3801C5.41195 17.5894 5.50696 17.6324 6.09526 18.1858C6.32485 18.4017 6.56792 18.5678 6.99468 18.8498C7.12115 18.9334 7.28355 19.0133 7.53569 19.1281C7.77107 19.2353 8.0814 19.3716 8.40874 19.5451C8.68317 19.6906 9.02471 19.8117 9.46636 19.8996C9.77713 19.9614 10.3409 19.9849 11.0855 19.9943C11.1007 19.591 11.1151 19.1954 11.1275 18.9084C11.1562 18.2432 11.1705 18.1302 11.2222 17.8303C11.316 17.2863 11.8335 16.9214 12.3775 17.0149C12.9217 17.1087 13.2868 17.6259 13.1929 18.1701C13.1724 18.2893 13.1655 18.3322 13.1578 18.4162C13.1486 18.5158 13.1395 18.6709 13.1255 18.9943C13.1144 19.2529 13.1021 19.5981 13.0884 19.9582C13.3127 19.9385 13.4776 19.9156 13.6304 19.8928C14.672 19.7372 15.6891 19.4813 16.2232 19.2033C16.4351 19.093 16.6666 18.9336 16.9205 18.7404C17.13 18.581 17.4565 18.3168 17.6705 18.1604C18.2799 17.7148 18.8468 17.0111 19.4078 16.3303C19.9768 15.6397 20.1143 15.1599 20.3013 14.6301C20.3478 14.4982 20.4165 14.1535 20.4839 13.6701C20.5168 13.4342 20.5457 13.1892 20.5709 12.9602C19.9651 12.955 19.0467 12.9501 17.94 12.9514C17.6359 12.9531 17.4729 12.9564 17.3804 12.9592C17.295 12.9618 17.2766 12.9633 17.23 12.966C17.1207 12.9724 17.0147 12.9729 16.9419 12.9729C16.39 12.9726 15.9422 12.5248 15.9419 11.9729C15.9419 11.4207 16.3899 10.9731 16.9419 10.9729C17.025 10.9729 17.0721 10.9723 17.1128 10.9699C17.2082 10.9643 17.2996 10.955 17.9292 10.9514H17.9341C19.09 10.95 20.0646 10.9559 20.6939 10.9621C20.6973 10.4961 20.6975 9.84976 20.691 9.05099C20.6811 7.8494 20.2825 7.17574 19.9146 6.53341C19.9133 6.53141 19.8924 6.49921 19.8345 6.42599C19.778 6.35451 19.703 6.26514 19.607 6.15548C19.4112 5.93191 19.1685 5.66813 18.8746 5.342C18.3621 4.77338 17.5246 4.22677 16.6216 3.73361C16.3811 3.60227 16.1624 3.56885 15.7857 3.52267C15.5708 3.4963 15.2982 3.43878 15.107 3.40255C14.8852 3.36053 14.6986 3.33036 14.5416 3.3215C14.1454 3.31219 13.6021 3.30091 13.0318 3.28927C13.0127 3.28888 12.9939 3.2877 12.9751 3.28732C12.9707 3.83247 12.9617 4.30409 12.941 4.78634V4.78829C12.9334 4.95561 12.9249 5.14055 12.9175 5.342C12.9102 5.54271 12.9047 5.73433 12.9117 5.95333C12.9292 6.50512 12.4966 6.96675 11.9449 6.98458C11.3931 7.00194 10.9304 6.56856 10.9126 6.01681C10.9034 5.72817 10.9107 5.48234 10.9185 5.26974C10.9262 5.05814 10.9355 4.86403 10.9429 4.69845C10.9638 4.2116 10.9726 3.73442 10.9761 3.16427Z" fill="black"/>
</svg>
