<svg width="24" height="24" viewBox="0 0 24 24" fill="none" xmlns="http://www.w3.org/2000/svg">
<path d="M10.4097 1.22428C11.5257 1.1848 12.8659 1.21117 13.7593 1.25846C14.6573 1.30601 15.1241 1.36916 15.4429 1.43033C15.9171 1.52132 16.8805 1.66005 17.7251 1.99185C17.8112 2.02565 17.9214 2.05595 18.1822 2.13639C18.4158 2.20844 18.71 2.30322 19.0552 2.44303C19.6663 2.69051 20.1302 2.89118 20.4673 3.07779C20.762 3.24099 21.0601 3.44624 21.274 3.75748L21.3599 3.89713L21.5327 4.24478C21.7033 4.61723 21.8606 5.04041 21.9331 5.28287C22.041 5.64409 21.9335 6.01773 21.687 6.2692C21.6905 6.41856 21.6966 6.63114 21.7046 6.96842L21.7622 9.40592V9.40787C21.7688 9.71706 21.781 9.92669 21.7954 10.1833C21.8102 10.4444 21.8267 10.7467 21.8413 11.2223C21.8645 11.9729 21.8884 13.2435 21.897 13.9128C21.9058 14.5942 21.8982 14.6771 21.896 14.8327C21.8857 15.5671 21.8676 15.9779 21.855 16.3219C21.8392 16.7542 21.8287 17.2948 21.7886 17.7184C21.7636 17.9822 21.7458 18.2109 21.7271 18.442C21.7145 18.597 21.6954 18.9714 21.645 19.2985C21.6191 19.467 21.5781 19.6699 21.5093 19.8649C21.4496 20.034 21.3209 20.3401 21.0347 20.568C20.8967 20.6778 20.7476 20.7574 20.6773 20.7956C20.5845 20.8459 20.5442 20.8672 20.5064 20.8922C19.9838 21.2401 18.8642 21.7705 18.0991 21.9762C18.0543 21.9883 18.0208 22.0005 17.9068 22.0358C17.8058 22.067 17.6795 22.1043 17.5161 22.1442C17.1908 22.2236 16.7423 22.3079 16.0552 22.3903C15.4824 22.4589 14.6914 22.5307 14.1841 22.5788C13.6543 22.629 13.3748 22.6575 12.5142 22.6764C11.6764 22.6949 10.2939 22.705 9.23977 22.6715C8.19486 22.6384 7.46771 22.5759 7.01614 22.5036C6.55012 22.4289 6.31083 22.3946 6.02005 22.317C5.58613 22.2013 4.92349 22.0182 4.21927 21.8161C3.94674 21.7379 3.70258 21.6668 3.51712 21.6022C3.42473 21.57 3.31753 21.5293 3.21634 21.4792C3.14218 21.4424 2.94369 21.3416 2.78372 21.1413C2.54679 20.8443 2.43864 20.4639 2.40579 20.0456C2.33569 19.1519 2.29672 18.7215 2.25735 18.4098C2.23167 18.2065 2.20097 17.9623 2.19778 15.818C2.19457 13.6552 2.22016 9.63466 2.25345 7.49771C2.28603 5.4061 2.32347 5.05383 2.37845 4.79068C2.41921 4.59572 2.45289 4.49571 2.46829 4.44303C2.53647 4.20938 2.73474 3.37627 3.49368 2.8981C3.7406 2.74264 4.09002 2.60397 4.35891 2.50064C4.67782 2.37811 4.96008 2.27746 5.23587 2.16568C5.59153 2.02157 6.37521 1.73841 7.68411 1.50357C8.41807 1.37191 9.27927 1.26429 10.4097 1.22428ZM19.898 14.319C19.7164 14.4275 19.4644 14.5546 19.1968 14.6784C18.8107 14.857 18.2981 15.075 17.689 15.3044C17.423 15.4045 17.179 15.4847 16.8345 15.5387C16.5202 15.588 16.1377 15.613 15.5923 15.6354C14.4818 15.6811 12.5331 15.7234 10.563 15.568C8.61217 15.4141 6.68174 15.1135 5.46634 14.8161C4.92371 14.6833 4.51023 14.5744 4.19876 14.4909C4.19763 14.978 4.19721 15.4268 4.19778 15.8151C4.20099 17.9759 4.23416 18.1001 4.24173 18.1588C4.28606 18.5099 4.32588 18.9631 4.39016 19.778C4.49212 19.8088 4.61671 19.8499 4.77102 19.8942C5.46608 20.0937 6.11654 20.2736 6.53567 20.3854C6.70142 20.4296 6.81014 20.4452 7.33255 20.529C7.66046 20.5815 8.28988 20.6404 9.30325 20.6725C10.308 20.7044 11.6515 20.6954 12.4702 20.6774C13.2652 20.6599 13.4927 20.6352 13.9956 20.5876C14.5215 20.5377 15.2761 20.4688 15.8169 20.404C16.4473 20.3284 16.8136 20.2565 17.0415 20.2008C17.1543 20.1733 17.2403 20.148 17.3159 20.1247C17.3782 20.1054 17.4879 20.0705 17.5806 20.0456C18.1244 19.8993 19.0454 19.4619 19.398 19.2272C19.4903 19.1658 19.5837 19.1136 19.6529 19.0758C19.6574 19.052 19.6638 19.0244 19.6685 18.9938C19.7042 18.7615 19.7139 18.5269 19.7339 18.2799C19.7519 18.0576 19.7708 17.8109 19.7974 17.5299C19.8303 17.183 19.8389 16.7426 19.857 16.2487C19.8696 15.9016 19.8861 15.5133 19.896 14.8053C19.8978 14.678 19.8995 14.6187 19.898 14.319ZM19.6177 7.21158C19.2434 7.43911 18.8274 7.67988 18.5288 7.85318L18.5161 7.86099L18.5044 7.86783C18.1914 8.03801 17.8846 8.13939 16.9263 8.30338C16.0588 8.4518 14.4185 8.72249 12.5728 8.82193C10.7343 8.92095 8.76874 8.85104 7.59231 8.75943C6.40789 8.66718 5.88223 8.56778 5.17727 8.20279C4.83317 8.02462 4.52262 7.85975 4.24954 7.71158C4.23147 8.94568 4.21586 10.7267 4.20657 12.4176C4.24922 12.4303 4.30008 12.4466 4.35989 12.4635C4.65409 12.547 5.1512 12.6802 5.94192 12.8737C7.02696 13.1392 8.8464 13.4261 10.7202 13.5739C12.5751 13.7202 14.4335 13.6807 15.5103 13.6364C16.0576 13.6139 16.3363 13.5927 16.5249 13.5631C16.6829 13.5384 16.786 13.5072 16.9849 13.4323C17.5509 13.2192 18.0177 13.0199 18.357 12.8629C18.6056 12.7479 18.7542 12.6697 18.8228 12.6325C18.926 12.5271 19.0486 12.3877 19.1636 12.236C19.2657 11.8998 19.5306 11.6552 19.8482 11.5651C19.8455 11.4654 19.845 11.3708 19.8423 11.2838C19.8284 10.8337 19.8128 10.5515 19.7984 10.2965C19.7837 10.0376 19.7696 9.79799 19.7622 9.45182L19.7075 7.15396C19.6768 7.17286 19.6476 7.19343 19.6177 7.21158ZM4.48587 12.7204C4.48392 12.7176 4.4818 12.7141 4.48001 12.7116C4.47736 12.7079 4.4739 12.7044 4.47122 12.7008C4.47599 12.7073 4.48126 12.7138 4.48587 12.7204ZM4.35501 12.57C4.34052 12.5562 4.3285 12.5441 4.31888 12.5358C4.31659 12.5338 4.31338 12.5318 4.31106 12.5299C4.32612 12.5427 4.34073 12.5564 4.35501 12.57ZM10.481 3.22232C9.4488 3.25885 8.68175 3.35679 8.03763 3.47232C6.87248 3.68137 6.22141 3.92416 5.98684 4.0192C5.69492 4.13751 5.33318 4.26831 5.07669 4.36685C4.77102 4.4843 4.61132 4.55678 4.55911 4.58951C4.55676 4.591 4.55264 4.59471 4.54544 4.60318C4.53669 4.61356 4.52178 4.63352 4.50442 4.66764C4.46369 4.74791 4.43603 4.84091 4.38821 5.00455C4.38189 5.02617 4.37404 5.05087 4.37063 5.06217C4.36649 5.07595 4.36362 5.08637 4.36087 5.09635C4.35586 5.11446 4.34799 5.14469 4.33645 5.19986C4.33354 5.21382 4.32474 5.24554 4.31204 5.44693C4.39296 5.49604 4.50372 5.56314 4.65091 5.64713C5.0022 5.84757 5.4909 6.11346 6.0972 6.4274C6.44279 6.60633 6.64724 6.67959 7.74759 6.76529C8.85684 6.85166 10.7326 6.91819 12.4654 6.82486C14.191 6.73189 15.7381 6.47735 16.5894 6.3317C17.0483 6.25316 17.2829 6.19981 17.4097 6.16373C17.4943 6.13961 17.5147 6.12719 17.5386 6.11392C17.8383 5.93995 18.2302 5.71441 18.5786 5.5026C18.7558 5.39487 18.9165 5.29401 19.0445 5.20963C19.1081 5.16768 19.1604 5.13157 19.1997 5.10318C19.2333 5.07897 19.2498 5.06607 19.2534 5.06314L19.2681 5.04947L19.2827 5.03775C19.361 4.97376 19.447 4.91091 19.5357 4.85025C19.5241 4.84335 19.5123 4.83445 19.4986 4.82682C19.2812 4.70651 18.9226 4.54797 18.3042 4.29752C18.0326 4.18751 17.7987 4.11089 17.5933 4.04752C17.4156 3.99271 17.1739 3.92353 16.9947 3.85318C16.374 3.60932 15.6801 3.51303 15.0659 3.39517C14.8646 3.35653 14.4945 3.30005 13.6538 3.25553C12.8079 3.21074 11.5279 3.18531 10.481 3.22232Z" fill="black"/>
</svg>
