<svg width="24" height="24" viewBox="0 0 24 24" fill="none" xmlns="http://www.w3.org/2000/svg">
<path d="M12.0508 1.12891C12.6169 1.12891 13.1903 1.12921 13.5831 1.14062C13.5856 1.1407 13.5883 1.14151 13.5909 1.1416C13.6026 1.14114 13.6141 1.13868 13.6251 1.13867C13.6681 1.13867 13.7104 1.14316 13.752 1.14844C14.0787 1.16307 14.3077 1.19047 14.626 1.25781C14.9732 1.33126 15.4168 1.44627 16.0987 1.68164C16.7662 1.91206 17.6638 2.25724 18.2628 2.52832C18.8723 2.80416 19.2248 3.01192 19.5821 3.32031C20.1352 3.79781 20.6332 4.27022 21.0381 4.86426C21.2659 5.19843 21.5846 5.69562 21.8565 6.22949C22.1322 6.77097 22.3476 7.32136 22.5215 7.92773C22.7001 8.55029 22.8295 9.20914 22.8975 10.2637C22.9638 11.2916 22.9729 12.6835 22.9112 13.7402C22.8483 14.8158 22.7154 15.5345 22.5714 16.1104C22.4357 16.6524 22.2969 17.0827 22.1534 17.4033C21.9436 17.8718 21.6258 18.4017 21.1339 18.9941C20.8796 19.3003 20.6397 19.5351 20.2344 19.8711C19.847 20.1923 19.2972 20.616 18.9522 20.8643C18.779 20.9889 18.6219 21.0961 18.4415 21.1904C18.262 21.2842 18.0866 21.3504 17.8965 21.4189C17.5089 21.5588 16.8806 21.7692 16.1876 21.9502C15.4874 22.133 14.741 22.2822 13.836 22.3701C12.9441 22.4568 11.9343 22.4827 11.0762 22.457C10.2064 22.431 9.49521 22.3536 8.7276 22.2002C7.97706 22.0501 7.19488 21.833 6.59576 21.6221C5.98015 21.4053 5.54493 21.192 5.11725 20.9082C4.70475 20.6344 4.32862 20.3169 3.94928 19.9443C3.57433 19.576 3.18615 19.1464 2.8526 18.707C2.51778 18.266 2.25646 17.8413 2.04303 17.4717C1.83058 17.1038 1.65087 16.7638 1.50104 16.4238C1.35037 16.0819 1.23583 15.7549 1.14557 15.4102C1.05287 15.0561 0.987912 14.6967 0.953187 14.1924C0.919761 13.7067 0.913429 13.0901 0.947327 12.5117C0.980749 11.9416 1.04117 11.4041 1.16217 10.8438C1.38012 9.83447 1.56447 9.16771 1.61432 8.95996C1.6948 8.62438 1.76883 8.28124 2.08698 7.65332C2.31833 7.19671 2.75959 6.35302 3.23541 5.6416C3.71839 4.91949 4.21214 4.36511 4.58795 3.99414C4.98476 3.60245 5.26129 3.40292 5.63287 3.1748C5.99165 2.95456 6.4526 2.6976 7.19733 2.4082C7.9277 2.12441 8.90979 1.81584 10.0352 1.59766C10.4859 1.51029 10.9531 1.44124 11.3868 1.38281C11.5635 1.22545 11.7956 1.12892 12.0508 1.12891ZM13.1358 3.19238C12.5484 3.2514 11.4271 3.36458 10.4161 3.56055C9.41782 3.75406 8.5509 4.02807 7.92194 4.27246C7.30776 4.51111 6.95449 4.71027 6.67975 4.87891C6.41779 5.03972 6.26499 5.14776 5.99225 5.41699C5.69847 5.70699 5.29508 6.15857 4.89752 6.75293C4.49273 7.35815 4.09697 8.11194 3.87116 8.55762C3.75657 8.7838 3.6975 8.93243 3.66022 9.04492C3.62093 9.16351 3.6 9.25746 3.55963 9.42578C3.48843 9.72267 3.33115 10.2751 3.11725 11.2656C3.02381 11.6983 2.97273 12.1289 2.94342 12.6289C2.9146 13.1207 2.92154 13.6527 2.94928 14.0557C2.97574 14.4396 3.02021 14.6754 3.08014 14.9043C3.14251 15.1424 3.22169 15.3689 3.33112 15.6172C3.44152 15.8677 3.58283 16.1398 3.77448 16.4717C3.96506 16.8017 4.18089 17.1474 4.44635 17.4971C4.71308 17.8484 5.0341 18.2066 5.35065 18.5176C5.66305 18.8244 5.94068 19.055 6.22272 19.2422C6.48932 19.4191 6.77072 19.5641 7.25983 19.7363C7.76595 19.9145 8.45665 20.1068 9.1192 20.2393C9.76467 20.3683 10.3637 20.4349 11.1358 20.458C11.9196 20.4815 12.8444 20.4574 13.6426 20.3799C14.4278 20.3036 15.0689 20.1747 15.6817 20.0146C16.3013 19.8529 16.8699 19.6633 17.2169 19.5381C17.3935 19.4743 17.462 19.4455 17.5147 19.418C17.5664 19.391 17.6313 19.3503 17.7842 19.2402C18.0922 19.0186 18.6058 18.6241 18.9581 18.332C19.2925 18.0548 19.4376 17.9051 19.5948 17.7158C19.9815 17.25 20.1993 16.8737 20.3282 16.5859C20.4036 16.4174 20.5086 16.1139 20.6309 15.625C20.7448 15.1698 20.8586 14.5743 20.9141 13.623C20.9708 12.6525 20.9628 11.3433 20.9014 10.3926C20.8418 9.46895 20.7344 8.9528 20.5987 8.47949C20.4583 7.99009 20.2893 7.55897 20.0743 7.13672C19.8554 6.70683 19.588 6.28679 19.3858 5.99023C19.1316 5.61742 18.7948 5.28331 18.2755 4.83496C18.1176 4.69869 17.9536 4.58372 17.4385 4.35059C16.9123 4.11243 16.0756 3.78946 15.4464 3.57227C14.8323 3.36029 14.4686 3.26815 14.212 3.21387C14.0039 3.16984 13.8798 3.15351 13.6241 3.14355C13.5448 3.15143 13.4001 3.16583 13.1358 3.19238ZM13.6124 8.20117C13.6851 8.20627 13.7728 8.21921 13.8712 8.25195C14.1521 8.34561 14.3627 8.55271 14.4717 8.80469C14.5261 8.82943 14.5828 8.85181 14.6378 8.87891L14.9883 9.06738L15.1544 9.16504L15.2725 9.31836C15.5035 9.61746 15.9342 10.3014 15.9444 11.168C15.9503 11.6701 15.99 12.4359 15.7256 13.1826C15.597 13.5459 15.3602 14.1496 15.127 14.5322C14.8346 15.012 14.4713 15.4311 13.8643 15.6279C13.517 15.7406 12.9935 15.883 12.2842 15.8574C11.9633 15.8458 11.6252 15.8327 11.3174 15.8008C11.0155 15.7694 10.6716 15.7139 10.3536 15.584C9.95311 15.4203 9.46193 15.2063 9.12213 14.9199C8.96252 14.7854 8.54259 14.4654 8.23834 13.9229C8.04972 13.5864 7.70533 12.984 7.69733 12.2832C7.6925 11.8604 7.70984 11.4145 7.84186 11.0342C7.95322 10.7133 8.12852 10.2458 8.46979 9.76074C8.63256 9.52941 8.78565 9.31975 8.92194 9.15234C9.02516 9.02556 9.21876 8.79229 9.46002 8.65039L9.59967 8.57715C9.94745 8.4135 10.4623 8.29967 11.2442 8.25391C11.8356 8.21931 12.6882 8.20554 13.1055 8.2002C13.314 8.19753 13.4307 8.19676 13.4981 8.19727C13.5271 8.19749 13.5701 8.19822 13.6124 8.20117ZM12.5176 10.2109C12.1328 10.219 11.6954 10.2314 11.3614 10.251C10.9802 10.2733 10.7386 10.3118 10.5958 10.3447C10.5619 10.3525 10.5348 10.3611 10.5137 10.3672C10.5022 10.3807 10.4879 10.3963 10.4727 10.415C10.3813 10.5273 10.2605 10.6918 10.1055 10.9121C9.92716 11.1657 9.82468 11.422 9.73151 11.6904C9.73031 11.6943 9.71845 11.7344 9.70905 11.833C9.69936 11.9347 9.69518 12.073 9.69733 12.2607C9.69876 12.3777 9.76256 12.552 9.98248 12.9443C10.0781 13.1149 10.1952 13.2094 10.4102 13.3906C10.4726 13.4432 10.6704 13.553 11.1094 13.7324C11.1665 13.7557 11.2899 13.7872 11.5245 13.8115C11.7532 13.8353 12.022 13.8463 12.3565 13.8584C12.7442 13.8724 13.0194 13.7994 13.2471 13.7256L13.2481 13.7246C13.2491 13.7237 13.2506 13.723 13.252 13.7217C13.2737 13.7014 13.3268 13.6425 13.419 13.4912C13.5348 13.3012 13.7141 12.8709 13.8399 12.5156C13.9599 12.1766 13.9518 11.8162 13.9444 11.1914C13.9431 11.0799 13.9121 10.955 13.8565 10.8271C13.8346 10.7769 13.8088 10.7317 13.7852 10.6904C13.696 10.6454 13.6074 10.6042 13.5255 10.5703C13.4022 10.5194 13.3244 10.4946 13.2999 10.4873C13.2546 10.4802 13.1929 10.4729 13.0938 10.4639C12.8706 10.4435 12.6724 10.3501 12.5176 10.2109Z" fill="black"/>
</svg>
