<svg width="24" height="24" viewBox="0 0 24 24" fill="none" xmlns="http://www.w3.org/2000/svg">
<path d="M18.0227 1.04938C18.5738 1.0816 18.9949 1.555 18.9632 2.10602C18.962 2.12662 18.9578 2.14733 18.9554 2.16755C18.9737 3.21386 18.9798 4.2328 18.9876 4.75055C18.997 5.04368 19.0117 5.25214 19.0257 5.41462C19.0382 5.56014 19.0569 5.73999 19.0608 5.89411L19.0804 6.65778L18.3489 6.87751C18.1179 6.94682 17.8267 7.01758 16.7405 7.08063C16.1936 7.11237 15.3308 7.14409 14.8743 7.16462C14.8685 7.23792 14.8618 7.33878 14.8577 7.47614C14.8496 7.75 14.8411 8.11371 14.8548 8.4654C14.8656 8.74421 14.8891 8.95544 14.9153 9.0904C15.0367 9.09757 15.133 9.10316 15.5374 9.11188C16.0345 9.1226 17.0767 9.13962 17.6184 9.19391C17.7631 9.20842 17.9007 9.22773 18.0257 9.25641C18.14 9.28267 18.3083 9.33112 18.4739 9.43415C18.6696 9.55601 18.8656 9.75897 18.9544 10.0552C18.9926 10.1829 18.9999 10.2946 19.0003 10.3687C19.0006 10.4347 18.9945 10.4917 18.9934 10.5025C18.9762 10.6807 18.9413 10.8523 18.7884 11.4527C18.6305 12.0724 18.3375 13.1829 18.1878 13.7554C18.1511 13.8956 18.1232 14.0054 18.1018 14.0904C18.0817 14.1707 18.0633 14.243 18.0501 14.2935C18.0413 14.3272 18.0177 14.4221 17.9798 14.5133C17.932 14.628 17.7891 14.9174 17.4349 15.0718C17.2484 15.153 17.0559 15.1745 16.9397 15.1861C16.7935 15.2006 16.59 15.2124 16.303 15.2232C16.066 15.2321 15.7751 15.2411 15.4905 15.2584C15.3822 15.2649 15.2842 15.273 15.1985 15.2808C15.1506 15.8186 15.0693 16.633 15.0247 17.0631C15.0002 17.2994 14.9894 17.4023 14.9827 17.4898C14.9769 17.5655 14.974 17.6318 14.971 17.7877C14.965 18.1005 14.9584 18.707 14.9309 19.4068C14.9036 20.1054 14.8566 20.8779 14.8245 21.3023C14.7915 21.7377 14.7717 21.8456 14.7474 21.9644L14.7464 21.9664V21.9683C14.746 21.9702 14.7451 21.9738 14.7444 21.9771C14.743 21.9838 14.7405 21.995 14.7376 22.0074C14.7316 22.0327 14.7213 22.0719 14.7054 22.1177C14.6706 22.2173 14.6122 22.3362 14.5159 22.4517C14.3275 22.6776 14.0955 22.769 13.9651 22.8091C13.7311 22.8811 13.4377 22.8986 13.1292 22.9049C12.4594 22.9184 11.2091 22.8796 10.554 22.8502C10.2381 22.836 10.0214 22.8251 9.88017 22.8111C9.81441 22.8046 9.70782 22.7922 9.59696 22.7613C9.4586 22.7226 9.2776 22.6455 9.11454 22.483C8.95674 22.3256 8.80144 22.1032 8.73466 21.8072C8.6929 21.6218 8.68315 21.4189 8.68095 21.1861C8.67861 20.9372 8.6846 20.5717 8.6995 20.0201C8.7241 19.1098 8.76899 17.3663 8.79911 16.2818C8.81747 15.6212 8.83065 15.2014 8.8411 14.9185C8.76451 14.9159 8.68959 14.9149 8.6165 14.9146C7.99914 14.9125 7.46784 14.9336 7.25907 14.9527C7.25312 14.9533 7.19162 14.9593 7.12333 14.9586C7.04718 14.9577 6.9102 14.9494 6.75321 14.8902C6.36738 14.7446 6.19484 14.4354 6.12626 14.2496C6.06814 14.0919 6.05133 13.9382 6.04325 13.8521C6.03359 13.749 6.02791 13.6293 6.0247 13.4996C6.01227 12.9976 6.00806 12.0154 6.04228 11.3736C6.05293 11.1737 6.05833 10.997 6.06278 10.8365C6.06701 10.6843 6.0711 10.5239 6.08036 10.3883C6.08858 10.2681 6.10564 10.0712 6.17021 9.87946C6.23872 9.6765 6.43298 9.28058 6.91825 9.13141C7.07891 9.08208 7.24245 9.05261 7.43778 9.01618C7.65028 8.97655 7.97031 8.91755 8.50614 8.80915C8.69165 8.77161 8.87395 8.73093 9.0286 8.68805C9.03487 8.68625 9.04107 8.68294 9.04716 8.68122C9.08482 8.319 9.11962 8.01026 9.14579 7.77595C9.16007 7.64815 9.17169 7.54449 9.17997 7.4654C9.18408 7.4262 9.18764 7.39473 9.18974 7.37165C9.19125 7.35481 9.19151 7.34578 9.19169 7.34333C9.19962 7.18075 9.23943 6.67519 9.4329 5.7613C9.53169 5.29467 9.66984 4.65029 9.86552 4.14313C10.0023 3.78855 10.1341 3.45569 10.2669 3.18122C10.3918 2.92329 10.5671 2.60897 10.8313 2.3697L11.0335 2.20368C11.2704 2.02815 11.6205 1.82581 12.1546 1.6363C12.5668 1.49005 13.1169 1.33767 13.4261 1.25739C13.8349 1.15126 14.0065 1.13683 14.6741 1.11481C15.3252 1.09334 16.5035 1.06282 17.139 1.05036C17.7703 1.03799 17.8928 1.04182 18.0227 1.04938ZM14.7405 3.11384C14.4103 3.12472 14.267 3.13184 14.1731 3.14216C14.1062 3.14955 14.0644 3.15779 13.929 3.19294C13.6366 3.26884 13.1531 3.40417 12.8235 3.52106C12.3931 3.67379 12.2264 3.80544 12.1829 3.84333C12.1931 3.83375 12.1529 3.87733 12.0677 4.05329C11.9758 4.24324 11.8709 4.5022 11.7317 4.86286C11.6037 5.19456 11.4944 5.67825 11.389 6.17634C11.2154 6.99622 11.192 7.3954 11.1897 7.44098C11.1844 7.55003 11.1597 7.76807 11.1341 7.99762C11.1056 8.25223 11.0679 8.58525 11.0276 8.97712C11.018 9.07112 10.9996 9.34716 10.9124 9.58747C10.7863 9.93453 10.5513 10.1782 10.263 10.3433C10.0358 10.4732 9.76617 10.5584 9.56278 10.6148C9.34077 10.6764 9.10501 10.7282 8.90263 10.7691C8.53406 10.8437 8.26263 10.894 8.05985 10.9322C8.05551 11.0865 8.05047 11.2712 8.03935 11.48C8.0182 11.8766 8.01583 12.4481 8.01884 12.9195C8.20997 12.9158 8.41465 12.9139 8.62333 12.9146C8.99613 12.9159 9.40126 12.9374 9.8831 13.0054C10.0515 13.0293 10.2508 13.0916 10.4349 13.231C10.6237 13.374 10.7403 13.556 10.8059 13.7271C10.8671 13.8869 10.8811 14.0297 10.8841 14.1158C10.8869 14.199 10.8801 14.2727 10.8792 14.2847C10.8706 14.4005 10.8674 14.3917 10.8558 14.6168C10.8443 14.8388 10.8283 15.2505 10.7981 16.3365C10.7679 17.4235 10.7244 19.1545 10.6995 20.0748C10.6905 20.4064 10.6854 20.6592 10.6829 20.8531C11.2593 20.8784 12.221 20.9059 12.846 20.9049C12.8743 20.4856 12.9102 19.8825 12.9319 19.3287C12.9583 18.6546 12.9656 18.0781 12.972 17.7486C12.979 17.3836 12.988 17.3147 13.0354 16.857C13.0825 16.4029 13.1704 15.5368 13.2151 15.022C13.225 14.9084 13.2361 14.7644 13.2532 14.6422C13.2703 14.5206 13.3034 14.3289 13.3968 14.1334C13.6488 13.6063 14.1214 13.4409 14.4261 13.3726C14.7068 13.3098 15.071 13.2794 15.3694 13.2613C15.6839 13.2423 16.01 13.2324 16.2278 13.2242C16.2383 13.2238 16.249 13.2226 16.2591 13.2222C16.3981 12.6907 16.6411 11.7651 16.8001 11.147C16.3626 11.1295 15.8501 11.1196 15.4944 11.1119C14.9543 11.1002 14.9075 11.0942 14.6995 11.0826C14.6126 11.0777 14.2704 11.0699 13.9212 10.8951C13.526 10.6972 13.2235 10.347 13.0559 9.86579C12.9128 9.45439 12.8711 8.93909 12.8558 8.54352C12.8392 8.11837 12.8505 7.69597 12.8587 7.41755C12.8692 7.06055 12.8904 6.75795 12.9573 6.49372C13.0367 6.18086 13.1657 5.97559 13.2669 5.82282L13.3694 5.6861C13.4738 5.56184 13.5801 5.4739 13.6585 5.41755C13.7224 5.37164 13.8235 5.30898 13.9632 5.26227C14.073 5.22563 14.1731 5.21015 14.2337 5.2027C14.3511 5.1883 14.5169 5.17957 14.7356 5.1695C15.2129 5.14753 16.0717 5.11563 16.6243 5.08356C16.7659 5.07534 16.8904 5.06526 16.9993 5.0572C16.9955 4.97694 16.9905 4.89003 16.9876 4.79645V4.77985C16.9814 4.36853 16.9747 3.76066 16.9661 3.05524C16.3132 3.06929 15.315 3.0949 14.7405 3.11384Z" fill="black"/>
</svg>
