<svg width="24" height="24" viewBox="0 0 24 24" fill="none" xmlns="http://www.w3.org/2000/svg">
<path d="M10.8505 7.46165C11.5001 7.33377 12.4229 7.40216 12.9305 7.43137C13.5569 7.46741 13.9735 7.53879 14.3016 7.61302C14.9267 7.75446 15.4606 8.05141 15.8954 8.32591C16.339 8.60602 16.65 9.01517 16.8983 9.36009C17.2595 9.86173 17.4014 10.4584 17.4823 10.7546C17.4922 10.791 17.498 10.8288 17.5057 10.8659C17.742 10.8541 18.0647 10.8349 18.5096 10.8083H18.5175L18.5253 10.8074C19.3049 10.7731 20.7221 10.7257 21.5614 10.6999C22.4043 10.6741 22.6346 10.6715 22.8719 10.6687C23.4241 10.6622 23.8771 11.1048 23.8837 11.657C23.8901 12.2092 23.4476 12.6622 22.8954 12.6687C22.6733 12.6713 22.456 12.6734 21.6229 12.699C20.79 12.7245 19.3965 12.7708 18.6278 12.8044L18.6288 12.8054C18.1315 12.8351 17.7493 12.8571 17.4569 12.8699C17.3303 13.4981 17.0697 14.0015 16.8934 14.3396C16.5821 14.9367 16.1337 15.3633 15.7264 15.6872C15.1767 16.1245 14.6518 16.31 14.3514 16.4167C14.0677 16.5175 13.7277 16.5818 13.288 16.6208C12.8453 16.6601 12.2716 16.6665 11.9276 16.6599C11.7535 16.6566 11.5758 16.6495 11.3798 16.6111C11.1905 16.5739 11.0184 16.5148 10.8475 16.4529C10.4967 16.3256 9.89849 16.0922 9.51159 15.9197C8.85106 15.6249 8.45396 15.2422 8.17273 14.9841C7.8029 14.6446 7.59552 14.225 7.53113 14.1228C7.24607 13.67 7.07059 13.2458 6.96472 12.9197C6.55057 12.9159 6.12901 12.9118 5.64636 12.9118C5.00014 12.9119 4.26575 12.9166 3.87683 12.9216L3.87781 12.9226C3.87592 12.9226 3.87382 12.9216 3.87195 12.9216C3.87076 12.9217 3.8692 12.9226 3.86804 12.9226L3.86706 12.9216C3.30158 12.934 3.1676 12.8979 2.72839 12.9392C2.22897 12.9861 1.48425 13.0639 1.19421 13.0847C0.643533 13.124 0.165387 12.7096 0.125853 12.1589C0.086693 11.6084 0.501073 11.1302 1.05163 11.0906C1.31542 11.0716 1.98397 11.0003 2.54089 10.948C3.04183 10.9009 3.55134 10.929 3.83288 10.9226H3.84265C4.23874 10.9174 4.98772 10.9119 5.64636 10.9118C6.04006 10.9118 6.39365 10.915 6.73327 10.9177C6.78581 10.7469 6.85028 10.5629 6.92956 10.3669C7.02785 10.1242 7.18165 9.91629 7.29382 9.77415C7.41062 9.62616 7.56081 9.45496 7.68347 9.31028C8.23084 8.66471 8.94931 8.23025 9.06335 8.14719C9.46736 7.8527 10.0293 7.62337 10.8505 7.46165ZM12.8163 9.42747C12.1819 9.39097 11.5752 9.35807 11.2372 9.42454C10.582 9.55359 10.3275 9.70043 10.2411 9.76341C9.93748 9.98466 9.55226 10.1983 9.20886 10.6032C9.05521 10.7845 8.95191 10.9022 8.86413 11.0134C8.8002 11.0944 8.77927 11.13 8.77722 11.1325L8.66101 11.4519C8.654 11.4736 8.64861 11.4951 8.64245 11.5154C8.6473 11.5308 8.65294 11.5464 8.6571 11.5622C8.69311 11.7001 8.71052 11.7488 8.73718 11.8366C8.7644 11.9264 8.78995 12.0203 8.80847 12.1072H8.80749C8.83452 12.2323 8.94367 12.6129 9.22351 13.0574C9.27033 13.1317 9.31255 13.2031 9.34265 13.2546C9.37551 13.3109 9.39654 13.3485 9.41784 13.3816C9.45353 13.4369 9.48293 13.4724 9.52429 13.5105C9.81256 13.775 9.99651 13.9464 10.326 14.0935C10.6549 14.2402 11.2056 14.4547 11.5292 14.572C11.6943 14.6319 11.7402 14.6443 11.7645 14.6491C11.7822 14.6526 11.816 14.658 11.9657 14.6609C12.2697 14.6667 12.7658 14.6593 13.1112 14.6286C13.4593 14.5978 13.6167 14.5553 13.6825 14.532C13.9478 14.4377 14.2059 14.3409 14.4813 14.1218C14.7881 13.8778 14.9934 13.6576 15.12 13.4148C15.3386 12.9955 15.4982 12.6575 15.5282 12.2693C15.5523 11.957 15.5647 11.7183 15.5653 11.5359C15.5659 11.356 15.5534 11.2872 15.5526 11.282C15.4443 10.8855 15.3832 10.6789 15.2753 10.529C15.027 10.1842 14.911 10.0698 14.828 10.0173C14.4515 9.77956 14.1486 9.62847 13.8602 9.56321C13.6385 9.51306 13.3315 9.45711 12.8163 9.42747Z" fill="black"/>
</svg>
