<svg width="24" height="24" viewBox="0 0 24 24" fill="none" xmlns="http://www.w3.org/2000/svg">
<path d="M16.266 1.90754C16.6513 1.8235 17.2486 1.68941 17.7836 1.76204C18.3769 1.84263 18.786 1.98714 19.0736 2.13313L19.5131 2.21711L19.5414 2.22395L19.5697 2.23176C19.8752 2.32 20.2161 2.4204 20.5014 2.6302L20.6205 2.72688L20.7826 2.88118C20.949 3.04554 21.1239 3.23917 21.2826 3.44856C21.4843 3.71463 21.7118 4.07428 21.8197 4.47786C21.8782 4.69628 22.0045 5.13475 22.0072 5.69661C22.0094 6.16267 22.0107 6.70764 21.7514 7.34407C21.6065 7.69946 21.3548 8.25191 21.1899 8.58137C21.0455 8.86974 20.9181 9.11653 20.7006 9.32649C20.3499 9.66487 19.8484 10.1429 18.8529 10.4486C18.8442 10.4513 18.8345 10.4527 18.8256 10.4554C18.8238 10.4627 18.8237 10.4705 18.8217 10.4779C18.8102 10.5211 18.6668 11.0276 18.3901 11.93C18.2329 12.4423 18.0451 12.8517 17.7182 13.4417C17.3953 14.0244 16.9142 14.7993 16.5902 15.2884C16.2527 15.7979 16.0672 16.0247 15.8188 16.2786C15.3704 16.7369 15.0186 17.0243 14.8617 17.14C14.7022 17.2575 14.3555 17.478 13.7338 17.7972C13.3209 18.0092 12.8144 18.1832 12.5307 18.2806C11.9777 18.4704 11.4233 18.5269 10.9945 18.5765L10.9809 18.5784L10.9672 18.5794C10.7424 18.5991 10.6614 18.603 10.5326 18.6165L10.5336 18.6175C10.5284 18.6181 10.5229 18.6189 10.518 18.6195C10.4991 18.7445 10.4729 18.8719 10.4311 18.9974C10.3188 19.3339 10.1561 19.6966 9.97599 20.013C9.81437 20.2969 9.56945 20.6691 9.25529 20.9085C8.97006 21.1257 8.20377 21.6441 7.22404 21.6614C6.65039 21.6715 5.86601 21.6697 5.24943 21.4613C4.84899 21.3258 4.43842 21.1551 4.09415 20.9212C3.87474 20.7721 3.44593 20.4616 3.11076 19.9486C2.99397 19.7698 2.63886 19.284 2.53654 18.722C2.46234 18.3139 2.43225 17.9333 2.43888 17.6019C2.44515 17.2899 2.48509 16.954 2.59611 16.6683C2.6419 16.5505 2.71981 16.3364 2.78947 16.1693C2.85463 16.0129 2.96695 15.7584 3.13126 15.5511L3.35783 15.2659C3.44204 15.1621 3.53348 15.0536 3.6254 14.9525C3.79583 14.765 4.05908 14.499 4.39005 14.3372L4.95353 14.0736C4.95302 14.0439 4.95429 14.0139 4.95646 13.9837C4.96018 13.9323 4.96238 13.9021 4.96329 13.8792C4.96558 13.8114 4.97253 13.7112 4.97794 13.6243C4.98519 13.508 4.9943 13.3428 5.00431 13.1107V13.1077C5.00731 13.0427 5.01361 13.0279 5.00431 11.4124C4.99509 9.80964 4.97233 6.74058 4.95939 5.17024C4.9465 3.60635 4.94373 3.53858 4.94279 3.50618C4.94115 3.44895 4.94084 3.41776 4.94083 3.39094C4.94083 2.83866 5.38855 2.39094 5.94083 2.39094C6.49292 2.39118 6.94083 2.8388 6.94083 3.39094C6.94083 3.40065 6.94075 3.40586 6.94083 3.41243C6.94092 3.41927 6.9413 3.43061 6.94181 3.44856C6.94348 3.50689 6.94653 3.5943 6.95939 5.15364C6.97234 6.72451 6.99507 9.79543 7.00431 11.4007C7.01346 12.9909 7.00833 13.07 7.00236 13.1995C6.99173 13.4456 6.98188 13.6234 6.97404 13.7493C6.96946 13.8227 6.96709 13.8493 6.96427 13.8948C6.96234 13.9263 6.96242 13.9388 6.96232 13.9407L6.96134 13.9495V13.9593L6.96036 13.9603C7.31229 13.9738 7.67893 14.0077 7.99161 14.0657L8.18595 14.1068L8.28751 14.1302L8.38224 14.1751C8.46966 14.2163 8.7544 14.331 9.05704 14.5843C9.35564 14.8343 9.64126 15.1861 9.93009 15.6927C10.0818 15.9588 10.2262 16.2736 10.3363 16.6273C10.4778 16.6126 10.6103 16.6027 10.7768 16.5882C11.2484 16.5336 11.5733 16.4947 11.8813 16.389C12.1852 16.2846 12.5554 16.1536 12.8197 16.0179C13.3947 15.7227 13.637 15.5587 13.6752 15.5306C13.7364 15.4854 14.0073 15.2704 14.3891 14.8802C14.5256 14.7406 14.6333 14.6202 14.9223 14.1839C15.2256 13.726 15.6783 12.9979 15.9692 12.473C16.2558 11.9556 16.3753 11.6788 16.4779 11.3441C16.5789 11.0149 16.66 10.7408 16.724 10.5257C16.6533 10.5085 16.5817 10.4898 16.5102 10.4671C16.1655 10.3576 15.6655 10.1418 15.1332 9.73078C14.7948 9.46944 14.2965 9.08096 13.9252 8.4886C13.6677 8.07766 13.4378 7.63625 13.3442 7.15461C13.2663 6.75412 13.1865 6.14119 13.2582 5.50325C13.3012 5.12113 13.4129 4.56482 13.7807 3.93196C13.8871 3.7488 13.9976 3.56003 14.1078 3.39778C14.2152 3.23976 14.3625 3.04675 14.56 2.88704C14.7789 2.70998 15.0345 2.50658 15.3002 2.33528C15.5609 2.16727 15.8912 1.98933 16.266 1.90754ZM6.50333 15.9515C6.33963 15.9601 6.22118 15.9757 6.05704 16.0023C5.90313 16.0272 5.75173 16.0148 5.61173 15.973C5.49908 16.0254 5.38488 16.077 5.2797 16.1282C5.28929 16.1229 5.27952 16.1278 5.24943 16.1536C5.21341 16.1846 5.16508 16.231 5.1049 16.2972C4.98204 16.4324 4.85886 16.5902 4.71037 16.7777C4.71755 16.7674 4.71322 16.7709 4.69962 16.7972C4.68323 16.8289 4.66256 16.8754 4.63615 16.9388C4.57702 17.0807 4.53209 17.2084 4.46037 17.3929C4.47004 17.368 4.44298 17.4386 4.43888 17.6419C4.43518 17.8269 4.45153 18.0733 4.50431 18.3636C4.50611 18.3735 4.51751 18.4183 4.56974 18.513C4.62553 18.6142 4.68777 18.7051 4.78556 18.8548C4.90378 19.0357 5.07156 19.1683 5.21818 19.2679C5.34304 19.3527 5.55633 19.4538 5.89005 19.5667C6.1278 19.647 6.568 19.6723 7.18888 19.6614C7.34193 19.6587 7.50766 19.6142 7.67228 19.5394C7.75367 19.5023 7.82829 19.4611 7.89103 19.4222L8.03361 19.3245C8.0404 19.3173 8.05699 19.2991 8.08146 19.2669C8.12601 19.2082 8.18043 19.1261 8.23869 19.0238C8.35677 18.8162 8.46515 18.5727 8.53458 18.3646C8.56324 18.2782 8.56025 18.1694 8.52286 17.6966C8.49352 17.3258 8.36107 16.9782 8.19279 16.6829C7.98698 16.3219 7.84214 16.1765 7.77286 16.1185C7.72811 16.081 7.70348 16.0671 7.64103 16.0374C7.35558 15.9825 6.90244 15.9437 6.50333 15.9515ZM16.6928 3.86164C16.6537 3.87018 16.556 3.9062 16.3842 4.01692C16.2173 4.12453 16.0343 4.26663 15.8178 4.44172C15.8456 4.41909 15.8289 4.42364 15.7621 4.5218C15.6976 4.61678 15.6211 4.74592 15.5102 4.93684C15.3187 5.26623 15.267 5.53622 15.2455 5.72688C15.2056 6.08259 15.2497 6.47258 15.308 6.77278C15.3312 6.89209 15.4064 7.0844 15.6205 7.4261C15.7835 7.68607 16.0179 7.88683 16.3559 8.14778C16.676 8.39491 16.9588 8.511 17.1156 8.56086C17.2913 8.6166 17.5085 8.63858 17.7543 8.64094C17.868 8.64194 17.9994 8.61828 18.266 8.53645C18.5572 8.44702 18.7508 8.34328 18.893 8.24641C19.0313 8.15208 19.1397 8.0509 19.2797 7.91633C19.2876 7.90272 19.3 7.88349 19.3149 7.85578C19.3373 7.81394 19.3654 7.75842 19.4018 7.68586C19.5454 7.39889 19.7757 6.89352 19.8998 6.58918C19.9962 6.35241 20.0094 6.16212 20.0072 5.70637C20.0059 5.43098 19.948 5.21838 19.8881 4.99446C19.877 4.95291 19.8239 4.83468 19.6889 4.65657C19.5775 4.50971 19.4426 4.36728 19.3188 4.25032C19.2709 4.23205 19.1895 4.20469 19.0483 4.1634C18.9404 4.1396 18.803 4.11323 18.6586 4.08821C18.611 4.084 18.5631 4.07693 18.516 4.06575C18.3755 4.04304 18.2346 4.02072 18.1127 4.00618C17.8403 3.97374 17.6864 3.97395 17.4945 3.97395C17.2915 3.97395 17.1025 3.91289 16.9447 3.80891C16.8696 3.82376 16.7856 3.84139 16.6928 3.86164Z" fill="black"/>
</svg>
