<svg width="24" height="24" viewBox="0 0 24 24" fill="none" xmlns="http://www.w3.org/2000/svg">
<path d="M15.6586 5.13432C16.3518 5.12857 16.7942 5.16207 17.0707 5.18901C17.37 5.21818 17.635 5.25966 17.8832 5.38042L17.9887 5.43706L18.1313 5.53276C18.4393 5.76675 18.5955 6.07873 18.6772 6.37456C18.7527 6.64832 18.7826 6.98287 18.81 7.28667C18.865 7.89698 18.8783 8.952 18.8754 9.65776C18.8724 10.406 18.8291 10.8255 18.7856 11.4585C18.7443 12.0592 18.6981 12.894 18.6508 13.7769C18.6732 13.7804 18.6953 13.7828 18.7162 13.7867L18.9301 13.8365L18.9828 13.8521L19.0336 13.8726C19.3244 13.9913 19.8579 14.2304 20.3178 14.8248C20.49 15.0474 20.6619 15.271 20.8002 15.4751C20.9309 15.6679 21.0859 15.9196 21.1703 16.1988C21.2523 16.4701 21.3267 16.7483 21.3784 17.0064C21.4266 17.2473 21.4694 17.5428 21.4487 17.8199C21.4281 18.094 21.3969 18.3975 21.2582 18.8277C21.1694 19.103 21.0812 19.3755 20.9955 19.604C20.9185 19.8095 20.8065 20.0827 20.6459 20.3013C20.4538 20.5627 20.1127 21.0181 19.6557 21.3111C19.4539 21.4403 19.2244 21.5789 18.9887 21.6871C18.7594 21.7922 18.455 21.9013 18.1137 21.9087C17.8324 21.9148 17.4468 21.9156 16.8637 21.7798C16.5174 21.6992 15.9969 21.5583 15.6303 21.4332C15.3481 21.3368 14.9774 21.2091 14.7075 20.9751C14.4064 20.7142 14.0095 20.2921 13.8539 19.7525C13.7369 19.3458 13.6514 18.7312 13.7153 18.0103C13.7432 17.6951 13.7922 17.3151 13.8764 17.0191C13.9739 16.6767 14.1064 16.2679 14.4213 15.8501C14.6745 15.5143 15.0078 15.1133 15.5131 14.7457C15.5943 14.6866 15.7646 14.5572 15.8969 14.4654C16.0237 14.3774 16.2421 14.2321 16.4819 14.149C16.5396 14.129 16.5985 14.1114 16.6576 14.0943C16.6449 14.0211 16.6398 13.945 16.644 13.8677C16.6947 12.9186 16.7448 11.985 16.7905 11.3208C16.837 10.6446 16.8727 10.3144 16.8754 9.64897C16.8783 8.94046 16.8644 7.97214 16.8188 7.46635C16.8083 7.35011 16.7974 7.25442 16.7885 7.17339C16.5639 7.15358 16.2124 7.12986 15.6752 7.13432C15.0404 7.13962 14.1948 7.1792 13.6049 7.20073C13.0193 7.22209 12.7474 7.22221 12.4809 7.22221C11.9286 7.22221 11.4809 6.7745 11.4809 6.22221C11.4813 5.67032 11.9289 5.22221 12.4809 5.22221C12.731 5.22221 12.9772 5.22291 13.5317 5.20268C14.0824 5.18259 14.9862 5.13993 15.6586 5.13432ZM4.58929 2.1685C4.97491 2.04594 5.49544 1.94579 6.12835 2.08842C6.31516 2.13053 6.45767 2.16577 6.55804 2.19292C6.60771 2.20635 6.64933 2.2182 6.68206 2.22807C6.69799 2.23288 6.71551 2.23831 6.73187 2.2437C6.73969 2.24629 6.75183 2.25065 6.76507 2.25542C6.77174 2.25783 6.7826 2.2621 6.79534 2.26714L6.8764 2.30327L6.89495 2.31499L7.24456 2.39409L7.26214 2.39897L7.27874 2.40483C7.59606 2.50509 7.92568 2.67255 8.26214 2.98491L8.40765 3.12749L8.45257 3.17534L8.49065 3.22807C8.65206 3.44954 9.00799 3.98217 9.26605 4.71342C9.42182 5.15487 9.60051 5.64292 9.53362 6.52299C9.51307 6.79333 9.48089 7.1833 9.30511 7.56889C9.19277 7.81528 9.01465 8.18419 8.71917 8.49858C8.48628 8.74633 8.04278 9.17857 7.3178 9.51225C7.28163 9.52889 7.24391 9.5426 7.20745 9.55815C7.20524 9.69799 7.20001 9.96879 7.19671 10.4986C7.19017 11.5493 7.18174 13.5923 7.18011 14.6626C7.17848 15.7294 7.18413 15.7563 7.18694 16.2203C7.18972 16.6798 7.18991 17.5553 7.18792 18.023C7.18588 18.5025 7.18135 18.5466 7.1723 18.8404C7.16332 19.1318 7.14983 19.6794 7.1469 20.0318C7.14415 20.365 7.15134 20.4828 7.15569 20.5289L7.15667 20.5308C7.15777 20.5343 7.16012 20.5409 7.16155 20.5455C7.32471 21.0727 7.02937 21.6327 6.50237 21.7964C5.97492 21.9599 5.41497 21.6646 5.2514 21.1373C5.22 21.0359 5.18601 20.9296 5.16644 20.7369C5.15133 20.5877 5.1438 20.3905 5.1469 20.0152C5.15001 19.6405 5.16413 19.0757 5.17327 18.7789C5.18233 18.4849 5.18601 18.4643 5.18792 18.0142C5.18988 17.5515 5.18967 16.683 5.18694 16.232C5.18424 15.7859 5.17847 15.7357 5.18011 14.6597C5.18175 13.5858 5.19015 11.5393 5.19671 10.4859C5.19853 10.1936 5.20089 9.97569 5.20257 9.81108C5.16179 9.80329 5.12039 9.79787 5.07952 9.78862C4.80449 9.72632 4.3176 9.56425 3.71819 9.14018C3.33742 8.87076 2.9569 8.59193 2.73773 8.31206C2.68496 8.24466 2.57902 8.1141 2.49651 7.9976C2.40881 7.87372 2.29237 7.69181 2.21624 7.46538C2.12187 7.18436 2.0239 6.83514 2.018 6.33257C2.01449 6.03307 2.00941 5.73009 2.01409 5.47221C2.01842 5.2339 2.03071 4.94046 2.09026 4.69194C2.2064 4.20731 2.41219 3.46823 3.16448 2.90678C3.48828 2.66522 3.99265 2.3582 4.58929 2.1685ZM18.5366 15.8589C18.4437 15.8835 18.3455 15.8957 18.2446 15.8921C17.9471 15.8816 17.4862 15.9216 17.1537 16.0328C17.1718 16.0255 17.1708 16.0234 17.1479 16.0367C17.1226 16.0513 17.0857 16.0749 17.0366 16.1089C16.9879 16.1427 16.9348 16.1821 16.8754 16.2261C16.8206 16.2667 16.7511 16.3183 16.6899 16.3628C16.4133 16.5641 16.2177 16.7893 16.018 17.0542C15.929 17.1724 15.8769 17.2934 15.7992 17.566C15.7693 17.6712 15.7333 17.8956 15.7075 18.1871C15.665 18.6669 15.7283 19.0334 15.7758 19.1988C15.7685 19.1736 15.7696 19.1939 15.8178 19.2574C15.8563 19.3081 15.9116 19.3667 15.9799 19.4292C16.0325 19.4527 16.1214 19.4875 16.2768 19.5406C16.5608 19.6376 17.0131 19.7606 17.3178 19.8316C17.678 19.9154 17.8811 19.9128 18.0707 19.9087C18.0234 19.9098 18.0411 19.9208 18.1547 19.8687C18.2617 19.8196 18.3977 19.7411 18.5766 19.6265C18.6813 19.5592 18.8254 19.3992 19.0258 19.1275C19.029 19.1216 19.0354 19.1102 19.0434 19.0933C19.0636 19.0505 19.0901 18.9882 19.1225 18.9019C19.1888 18.7251 19.2628 18.499 19.3549 18.2134C19.4263 17.992 19.4401 17.8617 19.4545 17.6695C19.4545 17.6625 19.4543 17.6419 19.4506 17.606C19.4452 17.5542 19.4346 17.4849 19.4174 17.399C19.3827 17.2258 19.3267 17.0143 19.2553 16.7779C19.2615 16.7982 19.2491 16.7509 19.145 16.5972C19.0478 16.4539 18.915 16.2801 18.7358 16.0484C18.6715 15.9654 18.6047 15.9064 18.5366 15.8589ZM5.6889 4.0396C5.51104 3.99951 5.36693 4.01906 5.19476 4.07378C4.86375 4.17905 4.55729 4.36274 4.36077 4.50932C4.26834 4.57829 4.21525 4.64815 4.17327 4.731C4.12375 4.82883 4.08449 4.95368 4.03558 5.15776C4.03511 5.1605 4.02985 5.1872 4.02483 5.24858C4.01944 5.31462 4.01606 5.40026 4.01409 5.50835C4.0101 5.72817 4.01428 5.99152 4.018 6.30913C4.0194 6.4284 4.02997 6.51758 4.04437 6.5894C4.05787 6.65671 4.07671 6.72166 4.10394 6.80424C4.10802 6.81098 4.11529 6.82388 4.12835 6.84233C4.14649 6.86793 4.17052 6.89814 4.20257 6.93901C4.21847 6.9593 4.23458 6.98076 4.25335 7.00444C4.27151 7.02735 4.29237 7.05339 4.31292 7.07964C4.29652 7.05868 4.31316 7.08459 4.42425 7.17436C4.52598 7.25655 4.67073 7.36392 4.87347 7.50737C5.24592 7.77085 5.48734 7.83078 5.52093 7.83842C5.70964 7.88112 5.85637 7.88145 5.97894 7.86089C6.07333 7.84497 6.27788 7.7897 6.48187 7.69585C6.88246 7.51145 7.12154 7.27898 7.26214 7.12944C7.31546 7.07265 7.38102 6.96641 7.4848 6.73882C7.49761 6.71067 7.5186 6.64626 7.53948 6.37163C7.55903 6.11442 7.54296 5.95453 7.51995 5.83647C7.49438 5.70534 7.45494 5.59372 7.37933 5.37944C7.22931 4.95431 7.02679 4.62796 6.91644 4.46733C6.85904 4.41194 6.81699 4.37906 6.78753 4.36089C6.75694 4.34209 6.72691 4.32917 6.69085 4.31694C6.62558 4.29976 6.54964 4.2832 6.43694 4.2603C6.33895 4.24039 6.24734 4.2056 6.16351 4.16069C6.1358 4.15302 6.10783 4.14452 6.0805 4.13432C6.0828 4.13524 6.08484 4.13671 6.08636 4.13725C6.09629 4.14081 6.10405 4.14251 6.10589 4.14311C6.10986 4.14444 6.1093 4.14471 6.10394 4.14311C6.09288 4.13978 6.07027 4.13297 6.03558 4.12358C5.96546 4.10462 5.85109 4.07616 5.6889 4.0396Z" fill="black"/>
</svg>
