<svg width="24" height="24" viewBox="0 0 24 24" fill="none" xmlns="http://www.w3.org/2000/svg">
<path d="M6.50129 2.2289L6.51399 2.22988L6.52668 2.23183C6.58916 2.23911 6.65665 2.25078 6.72785 2.26601C6.76632 2.27335 6.80437 2.28272 6.84113 2.29433C7.21759 2.39096 7.68759 2.58387 8.16828 2.8705L8.43781 3.04042L8.51399 3.09023L8.57941 3.1537C9.11277 3.67003 9.64213 4.356 9.62434 5.41054C9.61952 5.69525 9.61149 5.97458 9.58625 6.22402C9.56161 6.46733 9.51541 6.75179 9.39875 7.02089C9.2829 7.28793 9.16942 7.54915 9.06867 7.75917C8.98687 7.92966 8.8482 8.21187 8.65461 8.41445C8.28749 8.79836 7.94469 9.19888 7.24641 9.39784C7.174 9.41847 7.07276 9.44872 6.95051 9.48281C6.95287 9.51084 6.95539 9.53912 6.95539 9.56777C6.95539 9.61862 6.95528 9.66979 6.95246 10.6713C7.044 10.7723 7.11731 10.8936 7.16242 11.0316C7.17224 11.0617 7.22589 11.228 7.42707 11.6732C7.52919 11.899 7.75921 12.2803 8.10774 12.7562C8.44176 13.2123 8.87344 13.709 9.18977 14.0375C9.48789 14.347 9.63335 14.4537 9.78547 14.5482C9.95326 14.6524 10.1505 14.7516 10.4886 14.8744C10.8336 14.9997 11.2952 15.1375 11.8255 15.2426C12.3605 15.3485 12.9631 15.419 13.3353 15.4564C14.1285 15.52 14.702 15.5843 14.8792 15.6049C14.8843 15.6051 14.8933 15.6057 14.9066 15.6059C14.9296 15.6062 14.9562 15.6068 14.9915 15.6068C15.1401 15.6069 15.2808 15.6395 15.4075 15.6976C15.6827 15.4016 15.9716 15.1355 16.2513 14.9633C16.5382 14.7867 16.9283 14.5877 17.4144 14.516C17.6456 14.4819 18.2963 14.3643 19.1282 14.56C19.3886 14.6212 19.5909 14.6782 19.7415 14.7269C19.8159 14.751 19.8864 14.7758 19.9486 14.8012C19.9644 14.8076 20.0498 14.8405 20.1468 14.8998L20.2474 14.9691L20.3245 15.0365C20.4496 15.157 20.5369 15.3047 20.5853 15.4623C20.6477 15.4993 20.7084 15.5373 20.7659 15.5766L20.7982 15.598L20.8275 15.6215C21.2018 15.921 21.5573 16.393 21.8724 17.0404L22.0052 17.3285L22.0472 17.4262L22.0687 17.5297C22.1311 17.8402 22.2278 18.3746 22.0208 19.1312C21.864 19.7044 21.7296 20.1461 21.5794 20.4711C21.4074 20.8431 21.1764 21.148 20.8021 21.3568C20.5093 21.5201 19.9638 21.7579 19.0394 21.8656C18.5692 21.9204 17.8927 21.9755 17.4212 21.9398C17.0288 21.9101 16.6141 21.8695 16.2532 21.7865C15.9275 21.7116 15.4383 21.5594 15.098 21.1576C14.7961 20.8007 14.3308 20.1247 14.2142 19.225C14.1753 18.9245 14.1445 18.433 14.223 17.8461C14.2348 17.758 14.2478 17.6585 14.2698 17.5502C14.0014 17.5226 13.6188 17.4862 13.1595 17.4496L13.1497 17.4486L13.139 17.4476C12.7458 17.4081 12.0669 17.3293 11.4368 17.2045C10.8005 17.0784 10.2408 16.9122 9.80598 16.7543C9.36492 16.5941 9.03775 16.4377 8.72981 16.2465C8.40611 16.0454 8.13414 15.8247 7.74934 15.4252C7.51566 15.1826 7.23232 14.8639 6.95441 14.5258C6.95602 14.8798 6.95627 15.2356 6.9593 15.5853C6.9752 17.424 7.01298 19.0363 7.05207 20.7045C7.0648 21.2563 6.62731 21.7138 6.07551 21.7269C5.52358 21.7398 5.06521 21.3033 5.05207 20.7514C5.013 19.0843 4.97534 17.4583 4.9593 15.6029C4.94327 13.7493 4.94956 11.7288 4.95246 10.6967C4.95537 9.66318 4.95539 9.61551 4.95539 9.56777C4.9554 9.53083 4.95637 9.49429 4.96027 9.45839C4.65913 9.38701 4.32186 9.28528 3.9759 9.13515C3.76081 9.04179 3.56822 8.95544 3.41242 8.87441C3.27664 8.80376 3.06644 8.68728 2.89582 8.50527C2.52991 8.11471 2.12417 7.46997 2.11262 6.55409C2.10506 5.95417 2.09805 5.1622 2.24836 4.61073C2.32824 4.31773 2.43334 3.98117 2.62336 3.6957C2.74277 3.51627 3.01493 3.01744 3.64582 2.73476C3.69025 2.7148 3.69741 2.70845 3.82453 2.64394C3.92866 2.5911 4.06358 2.52712 4.23566 2.46816C4.58188 2.34959 5.00758 2.27438 5.6009 2.25722C5.76352 2.25252 5.90633 2.25209 6.02766 2.25038C6.13236 2.2223 6.24353 2.21005 6.35774 2.21816L6.50129 2.2289ZM18.6702 16.5072C18.2417 16.4065 17.9259 16.4622 17.7064 16.4945C17.5972 16.5106 17.472 16.56 17.2991 16.6664C17.1473 16.76 16.8265 17.0773 16.3909 17.6264C16.3055 17.7341 16.2716 17.8093 16.2542 17.8598C16.234 17.9184 16.2229 17.9798 16.2054 18.1107C16.155 18.4878 16.1758 18.8 16.1976 18.9682C16.2404 19.2976 16.4117 19.5917 16.5726 19.7982C16.5998 19.8079 16.6412 19.8234 16.7015 19.8373C16.9031 19.8836 17.1867 19.9164 17.5726 19.9457C17.8373 19.9656 18.3482 19.9328 18.8079 19.8793C19.335 19.8178 19.6279 19.705 19.7581 19.6439C19.7599 19.6403 19.7621 19.6364 19.764 19.6322C19.8349 19.4788 19.9316 19.1905 20.0921 18.6039C20.1399 18.4292 20.1489 18.3017 20.1468 18.2103C20.1453 18.148 20.137 18.0924 20.1263 18.0297C19.8965 17.5266 19.6968 17.2932 19.6019 17.2064C19.5165 17.1527 19.3863 17.0807 19.137 16.9574C18.935 16.8575 18.7819 16.698 18.6878 16.5111C18.6822 16.5098 18.676 16.5086 18.6702 16.5072ZM5.65852 4.25624C5.2072 4.26931 4.99105 4.32414 4.8841 4.36073C4.83004 4.37926 4.78484 4.39924 4.72981 4.42714C4.69839 4.44308 4.56435 4.51459 4.4632 4.55995C4.45802 4.56228 4.45435 4.56469 4.45246 4.56581C4.45142 4.56688 4.44982 4.56908 4.44758 4.57167C4.43885 4.58165 4.42373 4.60072 4.3968 4.64003C4.38334 4.65969 4.36817 4.68158 4.34992 4.70937C4.33305 4.73507 4.30964 4.77072 4.28742 4.80409C4.28364 4.8116 4.27552 4.82985 4.26301 4.86269C4.24044 4.92201 4.21314 5.00836 4.17805 5.1371C4.11754 5.35919 4.10385 5.83273 4.11262 6.5287C4.11588 6.78735 4.21087 6.96294 4.31574 7.08925C4.32155 7.09239 4.32813 7.09627 4.33527 7.09999C4.42245 7.14533 4.55754 7.20719 4.7718 7.30019C5.24832 7.50696 5.7212 7.58321 6.01399 7.61366C6.18784 7.63166 6.28429 7.59199 6.69856 7.47402C6.7727 7.45287 6.79426 7.43875 6.82844 7.41152C6.85736 7.38844 6.89846 7.35212 6.9632 7.28749C7.02307 7.22771 7.08825 7.15774 7.17609 7.06581L7.17805 7.06386C7.1975 7.03061 7.22668 6.97673 7.26594 6.89491C7.34619 6.72763 7.44086 6.50836 7.56379 6.22499C7.56018 6.23332 7.58039 6.18676 7.59699 6.02284C7.61297 5.86502 7.62052 5.6596 7.62531 5.37636C7.62915 5.14357 7.55987 4.96747 7.25227 4.65663C7.01981 4.50876 6.80376 4.39957 6.62629 4.32656C6.53749 4.29004 6.46146 4.26358 6.40168 4.2455C6.26477 4.24455 6.02259 4.24572 5.65852 4.25624Z" fill="black"/>
</svg>
