<svg width="24" height="24" viewBox="0 0 24 24" fill="none" xmlns="http://www.w3.org/2000/svg">
<g clip-path="url(#clip0_583_2314)">
<path d="M19.9834 -0.0209348C20.14 -0.0265275 20.3088 0.00238599 20.4727 0.0816043C20.6796 0.181723 20.8111 0.328809 20.8877 0.442932C21.0238 0.645832 21.059 0.850587 21.0713 0.930237C21.1006 1.12032 21.0936 1.32672 21.083 1.48492C21.06 1.82983 20.9939 2.30407 20.9092 2.8443C20.8137 3.4523 20.6388 4.10952 20.5742 4.39215C20.5518 4.49016 20.5385 4.56444 20.5273 4.62067C20.5436 4.63269 20.5612 4.64578 20.5781 4.65875C20.6482 4.71244 20.7413 4.78809 20.8369 4.88825L20.9336 4.99664L21.0957 5.2193C21.254 5.45848 21.4051 5.74938 21.5781 6.09528C21.7594 6.45764 21.9761 6.98247 22.1299 7.39801C22.4208 8.1841 22.5121 8.80123 22.5615 9.33063C22.6277 10.0396 22.5156 10.7845 22.418 11.3257C22.3288 11.8196 22.1636 12.1343 22.0078 12.4214C21.6929 13.0017 21.1655 13.5843 20.498 14.1636C20.0493 14.5531 19.4175 14.9138 19.0938 15.107C18.5076 15.4567 18.0415 15.6821 17.3936 16.0015C17.1307 16.1311 16.797 16.2662 16.4961 16.3843C16.5373 16.5646 16.5661 16.7686 16.5977 17.0025C16.6561 17.4361 16.7342 18.141 16.7744 18.9058C16.8145 19.6698 16.8141 20.463 16.8066 20.9254C16.7989 21.4053 16.7832 21.5404 16.7715 21.6588C16.7649 21.7255 16.7618 21.7817 16.7578 21.8638C16.731 22.4152 16.2623 22.8405 15.7109 22.814C15.1594 22.7874 14.7333 22.3187 14.7598 21.7672C14.7637 21.6867 14.7691 21.5842 14.7812 21.4615C14.7868 21.4059 14.7897 21.3779 14.7939 21.3072C14.7984 21.2322 14.8041 21.1089 14.8076 20.8931C14.8147 20.457 14.8142 19.7134 14.7773 19.0113C14.7405 18.3103 14.6688 17.6596 14.6162 17.2691C14.5884 17.0628 14.5702 16.945 14.5566 16.8707C14.556 16.867 14.5553 16.8632 14.5547 16.8599C14.5417 16.8444 14.5196 16.8184 14.4844 16.7789C14.4535 16.7442 14.3483 16.6304 14.2666 16.4947C14.1815 16.3533 14.016 16.0163 14.1338 15.5923L14.1914 15.4371C14.3451 15.1053 14.6281 14.9712 14.6504 14.9595C14.7217 14.9222 14.7948 14.8952 14.8154 14.8873C14.8496 14.8742 14.8976 14.8561 14.9473 14.8375C15.0008 14.8174 15.0683 14.7914 15.1543 14.7584C15.5456 14.608 16.1352 14.3922 16.5098 14.2076C17.1726 13.8808 17.5635 13.6904 18.0684 13.3892C18.4691 13.1501 18.907 12.8964 19.1875 12.6529C19.7727 12.1449 20.0988 11.746 20.25 11.4673C20.378 11.2314 20.419 11.1432 20.4502 10.9703C20.5443 10.4489 20.6092 9.93481 20.5703 9.51715C20.5312 9.09803 20.4666 8.66426 20.2549 8.09235C20.1156 7.71596 19.9263 7.26419 19.7891 6.98981C19.5485 6.50897 19.4471 6.34301 19.3857 6.2652C19.3809 6.26117 19.3733 6.25508 19.3623 6.24664C19.3409 6.23022 19.3191 6.21441 19.2803 6.1861C19.2462 6.16122 19.1969 6.12573 19.1465 6.08551C18.9201 5.90479 18.5965 5.58036 18.5176 5.02203C18.4669 4.66263 18.5341 4.34031 18.624 3.94684C18.7137 3.55446 18.8524 3.05145 18.9336 2.53375C18.9375 2.50877 18.9406 2.48389 18.9443 2.45953C18.7858 2.57654 18.6047 2.69983 18.4971 2.77594C18.3325 2.89239 18.2131 2.98804 18.123 3.08258C17.9961 3.21594 17.8358 3.42602 17.6885 3.64117C17.618 3.74412 17.5562 3.8392 17.5098 3.91461C17.4708 3.97793 17.4515 4.01274 17.4463 4.02203C17.3193 4.28765 17.0899 4.47045 16.8281 4.5484C16.5382 4.7353 16.1602 4.76839 15.8311 4.60016C15.5768 4.47011 15.1301 4.22891 14.7832 4.07477C14.6667 4.06781 14.441 4.06603 13.9766 4.07184C13.0536 4.08339 11.2996 4.13649 10.3672 4.17242C9.91597 4.18982 9.57543 4.20948 9.35449 4.2027C9.22524 4.19873 9.06775 4.18557 8.89941 4.13629C8.72064 4.0839 8.5855 4.00712 8.48633 3.94293C8.18124 3.74544 7.90044 3.51327 7.68457 3.33453C7.44206 3.13374 7.2992 3.01741 7.18945 2.94977C7.11646 2.90484 7.05487 2.87569 6.98438 2.84723C6.94383 2.83086 6.90443 2.81626 6.84668 2.79449C6.79314 2.77432 6.72519 2.74895 6.65234 2.71832C6.49138 2.65064 6.32388 2.57601 6.15137 2.50055C6.20053 2.92619 6.26388 3.20119 6.28223 3.27887C6.33327 3.49499 6.39959 3.75293 6.45898 3.97907C6.51292 4.18442 6.5717 4.40194 6.59082 4.48688C6.75167 5.20161 6.19247 5.59198 6.13086 5.63532C6.06007 5.68509 5.98309 5.73391 5.92676 5.7691C5.86304 5.80891 5.80605 5.84377 5.74609 5.88336C5.63852 5.95441 5.53298 6.03275 5.42969 6.12653C5.4114 6.15716 5.38683 6.20724 5.35547 6.27789C5.29067 6.42393 5.22571 6.60622 5.16406 6.79645C5.13568 6.88408 5.11426 6.96938 5.10059 7.05328C5.07543 7.20774 4.96777 7.77928 4.86621 8.61969C4.84429 8.80113 4.83628 8.90846 4.83301 8.98004C4.82884 9.07157 4.83093 9.0854 4.82812 9.20758C4.82545 9.32546 4.89079 9.73163 5.10645 10.4634C5.17991 10.7126 5.3075 10.9685 5.52539 11.3648C5.72648 11.7305 5.98249 12.1411 6.18848 12.4449C6.51177 12.9216 6.72376 13.1156 6.7998 13.1763C6.80094 13.1771 6.82719 13.1957 6.89258 13.2271C6.9578 13.2584 7.04422 13.2937 7.1543 13.3316C7.37765 13.4085 7.65028 13.4805 7.95605 13.5543C8.21635 13.617 8.54232 13.6579 8.91895 13.689C9.09439 13.7035 9.27233 13.7125 9.43848 13.7203C9.58761 13.7272 9.76427 13.7347 9.8877 13.7466C9.94942 13.7526 10.049 13.7638 10.1543 13.7925C10.2 13.805 10.5466 13.8893 10.7705 14.2349C11.0716 14.7003 10.8778 15.146 10.8242 15.2535C10.791 15.3201 10.7578 15.3707 10.7451 15.3892C10.7374 15.4006 10.73 15.4098 10.7266 15.4146C10.7206 15.423 10.723 15.4202 10.7207 15.4234C10.6975 15.4562 10.651 15.5428 10.5996 15.7398C10.5484 15.9362 10.5092 16.1723 10.46 16.481C10.4069 16.8145 10.3484 17.4774 10.3057 18.0513C10.2657 18.5884 10.2585 18.9746 10.2529 19.3267C10.2373 20.3143 10.2822 20.5745 10.3047 20.7095H10.3037C10.3188 20.782 10.341 20.8839 10.3584 21.0103L10.3613 21.0318L10.3633 21.0523C10.3659 21.0799 10.3676 21.1072 10.3691 21.1285C10.3711 21.1548 10.3723 21.1675 10.374 21.19C10.3769 21.2281 10.3793 21.2591 10.3828 21.2877C10.4506 21.8357 10.0617 22.335 9.51367 22.4029C8.96573 22.4707 8.4665 22.0816 8.39844 21.5338C8.38917 21.4589 8.38371 21.3911 8.37988 21.3404C8.37707 21.3031 8.37515 21.2824 8.37402 21.2672C8.3647 21.2032 8.35505 21.1548 8.33887 21.0767L8.33496 21.0572L8.33203 21.0377C8.29607 20.8214 8.26004 20.5522 8.25098 19.9957C8.11062 20.0351 7.95707 20.0623 7.78223 20.0748L7.75195 20.0767L7.72266 20.0777C7.19507 20.0838 6.48512 20.0839 5.98438 19.9761C5.79966 19.9364 5.39738 19.8596 5.00684 19.566C4.64062 19.2906 4.19493 18.928 3.8623 18.4859C3.80567 18.4106 3.74109 18.3131 3.70996 18.2672C3.6689 18.2066 3.62792 18.147 3.57715 18.0826C3.47823 17.9571 3.32248 17.7843 3.05664 17.566C2.79007 17.3471 2.59153 17.1842 2.44336 17.0699C2.40489 17.0402 2.37353 17.0179 2.34961 17.0005C2.1363 16.9495 1.90841 16.9045 1.71094 16.8726C1.59589 16.8541 1.49674 16.8395 1.42285 16.8306C1.32956 16.8194 1.31909 16.8218 1.35449 16.8218C0.802207 16.8218 0.354492 16.3741 0.354492 15.8218C0.354713 15.2697 0.802343 14.8218 1.35449 14.8218C1.51173 14.8218 1.78831 14.8592 2.0293 14.898C2.30274 14.9421 2.64388 15.0074 2.9668 15.0914C3.16937 15.144 3.33268 15.2499 3.39355 15.2896C3.48265 15.3478 3.57596 15.4172 3.66504 15.4859C3.84361 15.6237 4.07215 15.8115 4.32617 16.0201C5.08991 16.6472 5.37469 17.1689 5.46094 17.2838C5.61527 17.4889 5.8692 17.7118 6.20898 17.9673C6.20948 17.9677 6.20652 17.9783 6.40527 18.0211C6.6388 18.0713 7.09321 18.0834 7.65625 18.0777C7.66919 18.0766 7.67981 18.0749 7.68848 18.0738C7.75248 18.0328 7.80252 18.0037 7.83594 17.9849C7.98721 17.9001 8.15134 17.8588 8.31348 17.857C8.35515 17.3028 8.41771 16.584 8.48438 16.1656C8.50982 16.006 8.53696 15.8356 8.56934 15.6646C8.21678 15.6314 7.83828 15.5835 7.48633 15.4986C7.1669 15.4215 6.81988 15.3319 6.50391 15.2232C6.2067 15.1209 5.84302 14.9714 5.55176 14.7388C5.28287 14.5241 4.94045 14.1676 4.5332 13.567C4.2974 13.2192 4.00749 12.7561 3.77246 12.3287C3.55436 11.932 3.32952 11.5073 3.18848 11.0289C2.98074 10.3239 2.81827 9.63397 2.8291 9.16168C2.83238 9.01843 2.82443 8.83949 2.87988 8.38043C2.98797 7.48588 3.10733 6.84644 3.12598 6.732C3.15774 6.53691 3.20471 6.35219 3.26074 6.17926C3.33003 5.96547 3.42065 5.70678 3.52734 5.46637C3.61871 5.26052 3.77959 4.93073 4.03613 4.69L4.18848 4.55524C4.28671 4.47283 4.38886 4.39753 4.48438 4.32867C4.43472 4.13776 4.38048 3.92739 4.33594 3.73883C4.29425 3.5623 4.17007 3.00135 4.11523 2.17731C4.0986 1.92742 4.0758 1.65173 4.07422 1.44196C4.07342 1.33461 4.07718 1.19307 4.10254 1.0484C4.12416 0.925094 4.18529 0.651426 4.40918 0.412659L4.5127 0.315003C4.62507 0.223071 4.76418 0.147447 4.92773 0.106018C5.11768 0.0579703 5.27984 0.0725698 5.37012 0.0855105C5.52833 0.108203 5.68859 0.1647 5.77832 0.195862C6.39345 0.409488 7.07276 0.725317 7.42773 0.874573C7.51339 0.91052 7.88702 1.03012 8.2373 1.24567C8.49439 1.40391 8.76101 1.62976 8.95996 1.79449C9.15044 1.95221 9.31944 2.08813 9.48242 2.20172C9.53173 2.20128 9.60006 2.20154 9.69824 2.19782C9.77173 2.19502 9.85602 2.19222 9.95508 2.18805C10.0532 2.18392 10.1645 2.17922 10.29 2.17438C11.2297 2.13816 13.0031 2.0837 13.9512 2.07184C14.4158 2.06603 14.7123 2.06722 14.9121 2.07965C15.0874 2.09056 15.2292 2.1125 15.3691 2.1568L15.5098 2.20953L15.8604 2.36969C15.9289 2.40274 15.9966 2.43934 16.0645 2.47321C16.232 2.231 16.4502 1.93856 16.6738 1.70367C16.8994 1.46675 17.1452 1.28223 17.3418 1.14313C17.5715 0.980636 17.6856 0.910299 17.8105 0.812073C18.6914 0.11921 19.4951 0.0575099 19.832 -0.00433322L19.9834 -0.0209348Z" fill="black"/>
</g>
<defs>
<clipPath id="clip0_583_2314">
<rect width="24" height="24" fill="white"/>
</clipPath>
</defs>
</svg>
