<svg width="24" height="24" viewBox="0 0 24 24" fill="none" xmlns="http://www.w3.org/2000/svg">
<path d="M5.42471 1.81861C5.60379 1.69576 5.91829 1.54811 6.3085 1.63013C6.48528 1.66734 6.6193 1.74071 6.70693 1.80103L6.85147 1.91822L6.99014 2.05396C7.0533 2.12217 7.12874 2.21494 7.204 2.33424C7.33591 2.54351 7.45099 2.80728 7.56924 3.15357C7.69032 3.50824 7.85905 4.05513 8.01846 4.61646C8.18036 5.1866 8.31818 5.71745 8.57119 6.52955C8.8056 7.28189 9.12715 8.2397 9.32607 8.82935C9.49711 8.83843 9.68288 8.84698 9.9208 8.85181C10.2969 8.85944 10.7868 8.85905 11.4726 8.86353C12.1579 8.86801 12.9704 8.87715 13.4101 8.87232C13.4512 8.87187 13.4881 8.87005 13.5204 8.86939C13.5258 8.8633 13.5322 8.85747 13.538 8.85084C13.6792 8.68808 13.9029 8.40961 14.2675 7.92896C14.8395 7.17479 15.7875 5.75332 16.4481 4.73463C17.0891 3.74628 17.3775 3.21311 17.5399 2.91822C17.6358 2.74421 17.7136 2.6094 17.7802 2.50806C17.8459 2.4081 17.949 2.26497 18.1142 2.14283L18.2118 2.07838C18.3223 2.01481 18.4698 1.95681 18.6503 1.94459C18.8974 1.92788 19.1035 2.0039 19.2479 2.09205C19.4827 2.23535 19.5944 2.43592 19.6151 2.47193C19.6801 2.58484 19.7274 2.71574 19.746 2.76588C19.8054 2.92587 19.8742 3.1265 20.0058 3.45924C20.2345 4.03762 20.6902 5.09764 20.9433 5.68873C21.1928 6.27137 21.2278 6.33664 21.5673 7.20533C21.9006 8.05831 22.5413 9.72035 22.8905 10.6917C23.2378 11.6577 23.3117 11.9769 23.3407 12.3176C23.3855 12.8442 23.3215 13.2793 23.163 13.7239C23.0636 14.0025 22.8959 14.3646 22.6854 14.7424C22.4687 15.1316 22.1984 15.537 21.995 15.8147C21.7549 16.1424 21.5797 16.3225 21.2265 16.6145C20.8991 16.8851 20.387 17.2789 19.6884 17.7327C18.9921 18.1849 18.1268 18.6847 17.247 19.1292C16.3859 19.5641 15.4881 19.9531 14.9091 20.2258C13.9313 20.6864 13.548 20.9511 13.4364 21.0305L13.4218 21.0403L13.4081 21.0491C13.1766 21.2023 12.9427 21.3662 12.7685 21.4944C12.7008 21.6115 12.6093 21.7172 12.4931 21.802C12.45 21.8335 12.4145 21.8579 12.3915 21.8733C12.3782 21.8822 12.3723 21.8864 12.37 21.8879L12.369 21.886C12.2608 21.9696 12.1193 22.0696 11.9608 22.1633L11.8124 22.2512L11.6425 22.2844C11.1916 22.3721 10.7821 22.2742 10.4286 22.136C10.1124 22.0124 9.73287 21.8594 9.04971 21.2835C8.87972 21.1401 8.71212 20.9783 7.4374 20.053C6.16659 19.1305 3.80411 17.4559 2.57412 16.551C1.97214 16.1082 1.56746 15.7973 1.3124 15.5452C1.17489 15.4092 1.04155 15.2537 0.939356 15.0637C0.830935 14.8621 0.788121 14.678 0.764551 14.5393C0.681869 14.0519 0.73519 13.4578 0.861231 12.6692C0.991797 11.8524 1.21842 10.7252 1.47549 9.73658C1.73952 8.72126 2.02902 7.87289 2.63857 6.5647C3.23213 5.29092 4.12677 3.58146 4.64932 2.74635C4.88751 2.36569 5.13406 2.01804 5.42471 1.81861ZM5.91299 4.5481C5.45419 5.37189 4.87619 6.49711 4.45107 7.40943C3.89103 8.61136 3.64364 9.34601 3.41104 10.2405C3.17155 11.1615 2.95725 12.2252 2.83584 12.9846C2.72896 13.6533 2.71745 13.9723 2.7294 14.1331C2.86504 14.2645 3.144 14.4875 3.75869 14.9397C4.99454 15.8489 7.29508 17.4787 8.61221 18.4348C9.92469 19.3876 10.1306 19.5786 10.3388 19.7542C10.5966 19.9715 10.7619 20.0825 10.869 20.1438C10.958 20.1947 11.0211 20.2203 11.1151 20.2571C11.2052 20.1394 11.3226 20.0401 11.4638 19.97L11.4911 19.9514C11.5983 19.8707 11.7254 19.7781 11.8612 19.6829L12.3046 19.3811C12.5398 19.2161 13.0313 18.8992 14.0565 18.4163C14.7268 18.1006 15.5085 17.7669 16.3456 17.344C17.1638 16.9306 17.9663 16.4662 18.5995 16.0549C19.23 15.6454 19.6811 15.2983 19.953 15.0735C20.1988 14.8703 20.2537 14.8078 20.3817 14.6331C20.5465 14.4082 20.7686 14.0727 20.9374 13.7698C21.1123 13.4557 21.2276 13.1966 21.2792 13.052C21.3426 12.8743 21.3678 12.7262 21.3476 12.4876C21.3423 12.426 21.3497 12.317 21.0087 11.3684C20.6695 10.425 20.0379 8.78468 19.705 7.93287C19.3783 7.09702 19.3538 7.05818 19.1044 6.47584C18.9632 6.14604 18.7486 5.64365 18.5448 5.16041C18.4229 5.35692 18.2849 5.5773 18.1259 5.82252C17.4676 6.83764 16.4825 8.31763 15.8603 9.13795C15.4899 9.62625 15.2344 9.9474 15.0487 10.1614C14.8749 10.3618 14.7067 10.5358 14.5097 10.6594C14.4682 10.6854 14.383 10.7364 14.2636 10.7786C14.1558 10.8167 14.0562 10.8347 13.9774 10.845C13.8353 10.8636 13.6549 10.8699 13.4325 10.8723C12.9695 10.8774 12.1233 10.8679 11.4589 10.8635C10.7948 10.8592 10.2741 10.8588 9.87979 10.8508C9.60247 10.8452 9.38705 10.8345 9.19522 10.8245C9.13189 10.8646 9.06388 10.8993 8.99014 10.9251C8.46903 11.1068 7.89891 10.8317 7.7167 10.3108C7.6928 10.2424 7.66911 10.1733 7.47842 9.60865C7.28784 9.04438 6.92416 7.96567 6.66201 7.12428C6.39903 6.28017 6.24594 5.69621 6.09463 5.16334C6.03409 4.95016 5.97142 4.74153 5.91299 4.5481Z" fill="black"/>
</svg>
