<svg width="24" height="24" viewBox="0 0 24 24" fill="none" xmlns="http://www.w3.org/2000/svg">
<path d="M14.6732 3.19508C15.1693 3.2027 16.158 3.21224 16.6976 3.22828C17.1209 3.24087 17.498 3.3023 17.8255 3.45972C18.1844 3.63229 18.3805 3.87219 18.4857 4.00562C18.8329 4.44634 19.3057 5.33766 19.6028 6.04859C19.7782 6.46825 19.9401 6.96047 20.1097 7.51051C20.2817 8.0688 20.4619 8.72158 20.5677 9.09058C20.7132 9.59809 20.89 10.2124 21.139 11.2273C21.4024 12.3014 21.5383 13.1333 21.6028 13.5359C21.6149 13.6112 21.6432 13.7869 21.6194 13.9793C21.5954 14.1731 21.5252 14.337 21.4339 14.4744L21.4456 14.5115L21.4554 14.5486L21.4632 14.5867C21.5256 14.9121 21.553 15.3081 21.5755 15.8416C21.5942 16.2852 21.6237 17.0829 21.6487 17.5525C21.6609 17.7799 21.6714 17.925 21.681 18.0486C21.6906 18.1734 21.7 18.2925 21.7073 18.448C21.7106 18.515 21.7402 18.8594 21.5394 19.2136C21.3407 19.5637 21.0193 19.7614 20.7278 19.8826C20.177 20.1113 19.2633 20.2552 17.7532 20.3377C14.6822 20.5052 8.75916 20.4334 5.82061 20.3865C4.35348 20.363 3.58828 20.346 3.18976 20.324C3.01987 20.3146 2.82085 20.3007 2.65558 20.2566C2.57786 20.2358 2.34255 20.1688 2.14093 19.9548C1.90092 19.7001 1.87124 19.4043 1.86944 19.3923C1.8483 19.2514 1.84193 19.058 1.83136 18.8084C1.81901 18.517 1.80055 18.0916 1.78546 17.8523C1.77004 17.608 1.75562 17.5187 1.74054 16.8396C1.72587 16.1789 1.71032 14.9637 1.71026 14.2996C1.71025 14.1492 1.71374 14.0246 1.71515 13.9197C1.70348 13.8916 1.69164 13.863 1.68194 13.8328C1.59153 13.5506 1.63829 13.3081 1.66827 13.1931C1.69678 13.0839 1.73996 12.9842 1.74933 12.9617C2.10449 12.1061 2.40228 11.471 2.56183 11.1521C2.7046 10.8668 2.8286 10.6043 2.93097 10.3875C3.02323 10.192 3.12058 9.98428 3.18878 9.86207C3.26347 9.72827 3.31921 9.60362 3.80401 8.64527C4.22296 7.81712 4.99333 6.23613 5.41925 5.37379C5.64455 4.91762 5.79563 4.62623 5.90948 4.43824C6.03194 4.23615 6.18053 4.0332 6.43683 3.88258C6.73503 3.7075 7.02463 3.6609 7.22296 3.64625C7.31718 3.6393 7.40473 3.63886 7.45147 3.63844C7.51316 3.63787 7.51568 3.63759 7.50714 3.63844C7.5888 3.63034 7.69625 3.61197 7.85089 3.5857C7.98338 3.5632 8.16757 3.53109 8.33233 3.51637V3.51734C8.46076 3.50063 8.81732 3.44976 9.45538 3.38062L9.4671 3.37867L9.47784 3.37769C9.94155 3.33791 10.5974 3.29821 11.2523 3.25855C11.3415 3.25315 11.4284 3.26208 11.512 3.27906C11.6421 3.26114 11.8119 3.2415 12.136 3.2273C12.5658 3.20849 13.294 3.19178 13.6927 3.18629C14.1054 3.18061 14.1832 3.18755 14.6732 3.19508ZM3.71319 14.7498C3.7175 15.4085 3.72806 16.2778 3.73956 16.7957C3.75354 17.4249 3.76516 17.4674 3.78155 17.7273C3.79182 17.8903 3.80115 18.1234 3.81085 18.3435C4.23768 18.3559 4.88197 18.3719 5.85284 18.3875C8.81551 18.4348 14.6597 18.5044 17.6448 18.3416C18.7304 18.2823 19.3456 18.1919 19.681 18.116C19.6723 17.9992 19.6612 17.8564 19.6507 17.6589C19.6249 17.175 19.5952 16.3464 19.5774 15.9255C19.5619 15.5568 19.5408 15.3191 19.5218 15.1531C19.4766 15.1551 19.4305 15.159 19.3831 15.1609C18.5367 15.1947 16.9796 15.1982 14.0618 15.1316C11.1377 15.0649 6.87157 14.9119 4.67511 14.8045C4.29822 14.786 3.97999 14.7672 3.71319 14.7498ZM13.72 5.18629C13.3319 5.19163 12.626 5.20872 12.2239 5.22633C12.0253 5.23502 11.9138 5.24297 11.846 5.24976C11.7865 5.25573 11.757 5.26019 11.7093 5.26832C11.5769 5.29088 11.446 5.28624 11.3226 5.25855C10.6838 5.29725 10.0854 5.33314 9.66436 5.3689C8.97401 5.44378 8.7031 5.4861 8.54034 5.50562L8.52569 5.50758L8.51007 5.50855C8.44013 5.51483 8.3402 5.53116 8.18585 5.55738C8.05345 5.57987 7.87 5.61225 7.7044 5.62867C7.65176 5.63387 7.60375 5.63535 7.56671 5.63648C7.55446 5.63685 7.54224 5.63627 7.53058 5.63648C7.46083 5.7663 7.35913 5.96208 7.21222 6.25953C6.79635 7.10154 6.01252 8.70883 5.58819 9.54762C5.14029 10.433 5.03531 10.6567 4.93487 10.8367C4.9094 10.8824 4.85215 11.0035 4.73956 11.242C4.63684 11.4595 4.50473 11.7392 4.35089 12.0466C4.27664 12.195 4.15953 12.44 4.013 12.7654C4.22661 12.7783 4.47782 12.7929 4.77276 12.8074C6.94977 12.9139 11.1979 13.0662 14.1067 13.1326C17.0216 13.1991 18.5245 13.193 19.303 13.1619C19.3762 13.1589 19.4439 13.1541 19.5062 13.1511C19.4341 12.7613 19.3351 12.2686 19.1966 11.7039C18.9569 10.7266 18.7882 10.1412 18.6448 9.64137C18.5306 9.24313 18.3629 8.6325 18.1985 8.09937C18.0316 7.55786 17.8927 7.14463 17.7571 6.82008C17.4922 6.18597 17.1089 5.49609 16.9222 5.25367C16.8758 5.24426 16.7871 5.23174 16.638 5.2273C16.1171 5.21182 15.1653 5.20312 14.6419 5.19508C14.1127 5.18694 14.0938 5.18114 13.72 5.18629Z" fill="black"/>
</svg>
