<svg width="24" height="24" viewBox="0 0 24 24" fill="none" xmlns="http://www.w3.org/2000/svg">
<path d="M14.5293 1.09663C15.2877 1.10206 16.183 1.22874 17.2549 1.38667C18.4401 1.56129 19.4158 1.76279 19.9014 1.92768C20.5026 2.13191 20.9585 2.44705 21.1562 2.58589C21.3257 2.70481 21.4277 2.84804 21.4727 2.91596C21.5277 2.99907 21.5715 3.08396 21.6055 3.15522C21.6737 3.29822 21.7379 3.46583 21.7979 3.63764C21.9194 3.98604 22.0559 4.44812 22.2031 4.97651C22.358 5.53231 22.3787 5.85736 22.4277 7.3105C22.4777 8.79216 22.5485 11.5688 22.5049 13.6337C22.4608 15.7182 22.298 16.9934 22.1943 17.7402C22.0223 18.9787 21.8243 19.4229 21.7568 19.6718C21.6669 20.0038 21.5406 20.4289 21.2988 21.0136C21.1388 21.4005 20.8507 21.7167 20.6055 21.9433C20.344 22.1849 20.0443 22.4029 19.7617 22.582C19.2806 22.8866 18.7923 22.9204 18.3701 22.9218C18.1641 22.9225 17.9166 22.914 17.6699 22.9082C17.4123 22.9021 17.117 22.8968 16.7666 22.9033C15.4341 22.9279 12.9712 22.9005 10.7021 22.832C8.42279 22.7632 6.40448 22.6357 5.33984 22.5634C4.23434 22.4884 3.87267 22.4341 3.40234 22.2187C2.76881 21.9285 2.44472 21.4531 2.24219 20.9511C2.15067 20.7243 2.07827 20.4782 2.01269 20.248C1.94334 20.0046 1.87712 19.7635 1.79004 19.4824C1.51756 18.6029 1.44845 17.7097 1.35937 16.6259C1.29159 15.8009 1.29258 14.5763 1.34277 13.0371C1.39352 11.4807 1.52045 9.60373 1.60352 8.4853C1.70889 7.06647 1.76352 6.59578 1.7998 6.14643C1.89313 4.99084 2.0471 4.00731 2.13672 3.62885L2.17676 3.48725C2.40221 2.80082 2.99668 2.45359 3.31641 2.2685C3.75062 2.01715 4.24256 1.88844 4.71484 1.81343C5.19102 1.73782 5.71305 1.70749 6.2373 1.68843L6.24707 1.68745H6.25781C6.84964 1.67847 7.75881 1.67781 8.52148 1.67573C8.55598 1.64841 8.58827 1.62704 8.61523 1.6103C8.70958 1.55174 8.79235 1.52206 8.82617 1.51069C8.8669 1.49701 8.90119 1.48875 8.91992 1.48432C8.97996 1.47015 9.04109 1.46178 9.06836 1.45796C9.14727 1.4469 9.2893 1.42854 9.54883 1.39839C10.0739 1.33737 11.143 1.21742 12.1338 1.15522C13.1307 1.09266 14.0051 1.09288 14.5293 1.09663ZM14.5156 3.09663C14.0079 3.09299 13.1876 3.0931 12.2598 3.15132C11.8972 3.17407 11.5209 3.20604 11.166 3.23921C10.9995 3.46826 10.7381 3.62613 10.4336 3.64936C10.2937 3.66003 10.2002 3.66712 9.40332 3.67085C8.59732 3.67462 7.12646 3.67385 6.29102 3.68647C5.79081 3.70496 5.37511 3.73394 5.02832 3.78901C4.67332 3.84539 4.45267 3.92123 4.31836 3.99897C4.23751 4.04578 4.1764 4.08401 4.12793 4.11714C4.1017 4.13507 4.08271 4.15062 4.06836 4.16206C4.004 4.47535 3.87492 5.29284 3.79297 6.30757C3.74971 6.84318 3.70471 7.19137 3.59766 8.63276C3.51504 9.74507 3.39115 11.589 3.3418 13.1025C3.2919 14.6329 3.29479 15.7601 3.35254 16.4628C3.4462 17.6024 3.50618 18.2612 3.70117 18.8906C3.79722 19.2006 3.87351 19.4824 3.93555 19.7001C4.00139 19.9312 4.0491 20.0851 4.09668 20.2031C4.1721 20.39 4.20202 20.3857 4.23437 20.4003C4.31219 20.436 4.34868 20.4515 4.47168 20.4726C4.63744 20.5011 4.91626 20.5294 5.47461 20.5673C6.52851 20.6389 8.51852 20.7652 10.7617 20.833C13.0154 20.901 15.4428 20.928 16.7295 20.9042C17.1184 20.8971 17.4443 20.9017 17.7168 20.9082C18.0003 20.9148 18.1931 20.9224 18.3633 20.9218C18.5291 20.9213 18.611 20.9122 18.6562 20.9033C18.6854 20.8975 18.6895 20.8939 18.6914 20.8925C18.9016 20.7593 19.0981 20.6131 19.248 20.4746C19.3984 20.3356 19.4454 20.2561 19.4502 20.249C19.6511 19.763 19.7519 19.4227 19.8262 19.1484C19.937 18.7394 20.0651 18.536 20.2139 17.4648C20.31 16.7726 20.4629 15.578 20.5049 13.5917C20.5473 11.585 20.4785 8.85418 20.4287 7.37788C20.378 5.87414 20.3566 5.797 20.2773 5.51264C20.1322 4.99177 20.0096 4.58175 19.9102 4.29682C19.8824 4.21723 19.8553 4.15564 19.8359 4.10737C19.6816 4.009 19.4834 3.89884 19.2578 3.82221C18.9572 3.72015 18.1376 3.53813 16.9639 3.36518C15.8569 3.20209 15.1077 3.10091 14.5156 3.09663ZM10.8965 7.00483C11.1125 7.01857 11.3348 7.05939 11.5254 7.10053C11.8004 7.15991 12.0992 7.24052 12.3838 7.32612C12.7022 7.42187 13.0203 7.53006 13.2939 7.62788C13.4197 7.63274 13.5497 7.63591 13.6562 7.64546C13.7506 7.65392 13.8296 7.66487 13.8994 7.67768L14.0889 7.72065L14.1816 7.74604L14.2686 7.78901C14.4978 7.90159 14.9285 8.15274 15.3604 8.50385C15.7777 8.84325 16.3022 9.3608 16.5781 10.0253C16.6747 10.2579 16.8708 10.6805 16.9561 11.2998C17.0408 11.9157 17.0131 12.6772 16.7861 13.6767C16.6337 14.3479 16.4901 14.9087 16.3564 15.3232C16.2906 15.5274 16.2179 15.7252 16.1367 15.8925C16.0964 15.9756 16.0424 16.0755 15.9717 16.1728C15.9117 16.2552 15.7793 16.4214 15.5576 16.5371C15.4272 16.605 15.176 16.7402 14.7383 16.8437C14.3229 16.9419 13.769 17.0062 12.9951 16.9999C12.3288 16.9946 11.0827 17.0043 10.3447 16.8916C9.53929 16.7684 8.93636 16.6241 8.46973 16.1806C7.96944 15.705 7.36568 15.0396 7.14258 14.1035C7.03026 13.6319 6.90092 12.5581 7.11719 11.1826C7.26235 10.2593 7.51506 9.31908 8.36523 8.57612C8.70799 8.27661 9.14511 7.87006 9.41504 7.64057C9.56738 7.51107 9.73565 7.37576 9.9043 7.2685C10.0412 7.18143 10.3263 7.01303 10.6836 7.00093L10.8965 7.00483ZM10.71 9.16401C10.5813 9.27343 10.4346 9.4064 10.2588 9.56538C10.0867 9.72098 9.89102 9.89816 9.68066 10.082C9.37392 10.3502 9.2173 10.7011 9.09277 11.4931C8.91696 12.6114 9.03608 13.4219 9.08789 13.6396C9.17135 13.9899 9.41513 14.3202 9.84766 14.7314L9.84668 14.7304C9.85147 14.7332 9.87403 14.7452 9.92773 14.7636C10.0472 14.8045 10.2569 14.8543 10.6475 14.914C11.2009 14.9986 12.2363 14.9937 13.0117 14.9999C13.674 15.0053 14.0601 14.949 14.2783 14.8974C14.3245 14.8865 14.3639 14.875 14.3984 14.8642C14.4141 14.821 14.4335 14.7699 14.4531 14.7089C14.5595 14.3793 14.6876 13.8865 14.8359 13.2333C15.0217 12.4153 15.0197 11.9017 14.9746 11.5732C14.9299 11.2486 14.8405 11.0569 14.7305 10.7919C14.6429 10.5811 14.4199 10.3177 14.0977 10.0556C13.9367 9.92479 13.7773 9.81599 13.6475 9.73432C13.4593 9.77266 13.2583 9.75745 13.0674 9.67866C12.9917 9.64741 12.8894 9.61127 12.7705 9.56733C12.7379 9.55669 12.7058 9.545 12.6748 9.5312C12.4265 9.44143 12.119 9.3358 11.8076 9.24214C11.5526 9.16545 11.3088 9.09995 11.1035 9.05561C11.0223 9.03809 10.9516 9.0257 10.8926 9.01655C10.8457 9.05206 10.7854 9.09988 10.71 9.16401Z" fill="black"/>
</svg>
