<svg width="24" height="24" viewBox="0 0 24 24" fill="none" xmlns="http://www.w3.org/2000/svg">
<path d="M14.3311 7.29294C14.6922 7.27882 15.2016 7.27926 15.8233 7.33005C16.4405 7.38049 17.1607 7.47856 17.8643 7.64548C18.5253 7.8023 19.2175 8.00903 19.6612 8.21579C20.1894 8.46196 20.6281 8.72769 21.0128 9.15329C21.2688 9.43667 21.5833 9.86467 21.8409 10.4804C22.0427 10.9629 22.1406 11.2885 22.1876 11.4541C22.237 11.6284 22.3317 12.0116 22.4073 12.7861C22.4557 13.2821 22.4958 13.9416 22.4581 15.0859C22.4209 16.2138 22.3107 17.7783 22.2188 18.7812C22.1258 19.7976 22.0521 20.2454 22.0098 20.5058C21.9902 20.627 21.982 20.6832 21.9718 20.748C21.9649 20.7917 21.951 20.8879 21.919 20.9902C21.8418 21.2369 21.604 21.7123 21.0196 21.8672C20.6949 21.9531 20.3328 21.9644 19.8448 21.9785C19.4253 21.9905 18.7714 21.9964 18.3663 22.0224C18.0849 22.0405 17.9039 22.0563 17.7843 22.0703C17.6775 22.0828 17.6396 22.091 17.6358 22.0918L17.6348 22.0927H17.6319C17.6296 22.0934 17.6257 22.0954 17.6212 22.0967C17.612 22.0991 17.5958 22.103 17.5763 22.1074C17.5387 22.1158 17.4682 22.1298 17.379 22.1328C17.1655 22.1397 16.9084 22.0792 16.6866 21.8945C16.5034 21.7417 16.4195 21.5643 16.3839 21.4775C16.3451 21.3827 16.3243 21.2955 16.3126 21.2383C16.2719 21.0385 16.2515 20.732 16.2335 20.2998C16.2143 19.8396 16.1959 19.163 16.1768 18.4668C16.1577 17.7652 16.1369 17.0384 16.1143 16.4648C16.0684 15.2978 16.0266 14.8164 15.9835 14.5576C15.9116 14.1266 15.8653 14.0007 15.8311 13.9287C15.7537 13.7659 15.7078 13.6016 15.6817 13.5058C15.649 13.6228 15.6111 13.7686 15.5714 13.9492C15.4332 14.5767 15.2537 15.6025 15.1534 16.2461C15.0605 16.842 15.0443 17.0324 15.0587 17.6699C15.0741 18.3543 15.1234 19.4583 15.1544 20.041C15.1698 20.3316 15.1807 20.4808 15.1876 20.5615C15.1933 20.6283 15.1949 20.6379 15.2003 20.6767C15.2043 20.7033 15.2988 21.1838 14.9366 21.5937C14.651 21.9168 14.2601 21.9867 14.0821 22.0127C13.6914 22.0696 13.0246 22.0594 12.7374 22.0537C12.3499 22.0459 12.3928 22.0384 12.088 22.0371C11.2755 22.0337 10.6201 22.0332 10.3546 22.0332C10.2263 22.0331 10.104 22.0079 9.9913 21.9638C9.52906 21.9296 9.13778 21.5761 9.0743 21.0986L9.03524 20.8633C8.99709 20.697 8.95536 20.5149 8.93758 20.3828L8.81258 19.6494C8.78693 19.4941 8.69565 19.0509 8.63973 18.2011C8.60658 17.6971 8.58604 17.0281 8.60458 16.4775C8.62304 15.9303 8.67359 15.507 8.72176 15.2451C8.76567 15.0066 8.78853 14.8507 8.89169 14.4414C8.97042 14.129 9.10825 13.6189 9.35067 12.8818C9.59009 12.1539 9.92529 11.2247 10.1573 10.6416C10.3885 10.0606 10.5275 9.7784 10.6866 9.53415C10.8677 9.25626 11.0777 8.94435 11.3682 8.68649C11.5842 8.4949 12.0656 8.05009 12.7345 7.71188C13.2143 7.4693 13.6751 7.31865 14.3311 7.29294ZM4.89169 7.73044C5.05462 7.73685 5.20293 7.75248 5.33114 7.77536C5.39468 7.78672 5.46405 7.80209 5.53231 7.82224C5.56937 7.83319 5.64677 7.85697 5.73641 7.90134L5.83016 7.9531L5.9288 8.02146C6.14791 8.18602 6.28769 8.3909 6.37313 8.54099C6.47728 8.72402 6.55197 8.91711 6.60653 9.08493C6.71562 9.42053 6.78152 9.77389 6.8204 10.0019C6.86849 10.2841 6.88567 10.5259 6.91512 11.3515C6.94512 12.1924 6.98611 13.7137 6.94149 15.0459C6.89656 16.3866 6.76394 17.4779 6.69833 18.0517C6.62632 18.6815 6.58378 19.0853 6.49911 19.6045C6.42319 20.0699 6.23957 20.535 5.99716 21.0459C5.86592 21.3224 5.69627 21.4705 5.63387 21.5263C5.58815 21.5673 5.48503 21.6544 5.32626 21.7226C5.19839 21.7775 5.07988 21.8 5.00399 21.8115C4.85898 21.8335 4.66749 21.8432 4.42391 21.8496C4.16923 21.8563 3.70661 21.8649 3.22372 21.7646C2.74393 21.665 2.12338 21.4336 1.67782 20.8652C1.24476 20.3126 1.11091 19.5944 1.0577 18.9218C1.00262 18.2252 1.02347 17.3672 1.05184 16.3994C1.10954 14.4311 1.21121 11.7766 1.31551 9.0488C1.33666 8.49707 1.80092 8.06694 2.35262 8.08786C2.37518 8.08873 2.39788 8.0914 2.42001 8.09372C2.69619 8.02177 3.09715 7.93003 3.64169 7.83103C4.14092 7.7403 4.5634 7.71755 4.89169 7.73044ZM13.2149 20.916L13.2198 20.9521L13.2149 20.9101C13.215 20.912 13.2148 20.9142 13.2149 20.916ZM14.4093 9.29196C14.0822 9.3048 13.9009 9.36256 13.6368 9.49607C13.2308 9.70134 12.9291 9.97527 12.6954 10.1826C12.6291 10.2415 12.5478 10.3414 12.3624 10.6259C12.3119 10.7034 12.2298 10.8405 12.0147 11.3808C11.8003 11.9198 11.4791 12.8104 11.2501 13.5068C11.0242 14.1935 10.8998 14.6582 10.8311 14.9306C10.7463 15.2674 10.7337 15.3613 10.6886 15.6064C10.6616 15.753 10.6194 16.0763 10.6036 16.5449C10.5879 17.0113 10.6057 17.6116 10.6358 18.0703C10.6843 18.8061 10.7579 19.1524 10.7862 19.3242C10.8291 19.5839 10.8756 19.8473 10.9044 20.0342C11.2227 20.0345 11.6346 20.0351 12.0968 20.0371C12.3817 20.0383 12.535 20.0488 12.7774 20.0537C12.8923 20.056 13.0227 20.0546 13.1524 20.0547C13.1209 19.444 13.075 18.3937 13.0597 17.7158C13.0425 16.9558 13.0664 16.6469 13.1768 15.9384C13.28 15.2768 13.4673 14.2041 13.6182 13.5185C13.757 12.8886 13.8987 12.4558 14.0636 12.1465C14.1516 11.9814 14.2518 11.8403 14.3702 11.7197C14.4283 11.6606 14.4832 11.6152 14.5284 11.58C14.5499 11.5633 14.5686 11.5491 14.5811 11.54C14.6004 11.526 14.5947 11.5305 14.6016 11.5254L14.6944 11.4638C14.9125 11.3339 15.1302 11.2989 15.2481 11.2861C15.4095 11.2686 15.5679 11.2746 15.7052 11.29C15.9751 11.3203 16.2812 11.3994 16.5518 11.5302C17.1056 11.7982 17.3615 12.2354 17.4913 12.5849C17.5474 12.7361 17.5874 12.8929 17.6075 12.9668C17.6342 13.0648 17.6408 13.0778 17.6368 13.0693C17.7959 13.404 17.8777 13.7583 17.9561 14.2285C18.0229 14.6293 18.0679 15.2316 18.1134 16.3867C18.1365 16.9747 18.1568 17.7141 18.1759 18.4121C18.1925 19.0206 18.2098 19.5959 18.2257 20.0263C18.2295 20.0261 18.2335 20.0266 18.2374 20.0263C18.6876 19.9974 19.4427 19.9884 19.7872 19.9785C19.8959 19.9754 19.9884 19.9698 20.0675 19.9668C20.1055 19.7141 20.1615 19.3097 20.2266 18.5986C20.3161 17.6216 20.4245 16.0984 20.46 15.0205C20.495 13.9602 20.4559 13.3871 20.4161 12.9795C20.3508 12.31 20.2768 12.046 20.2638 12C20.2337 11.8942 20.1601 11.6461 19.9952 11.2519C19.8365 10.8727 19.6542 10.6334 19.5284 10.4941C19.3945 10.346 19.222 10.2173 18.8165 10.0283C18.562 9.90973 18.0301 9.74068 17.4024 9.59177C16.8174 9.45298 16.2008 9.36733 15.6612 9.32321C15.1264 9.2795 14.6972 9.2807 14.4093 9.29196ZM4.71102 9.72751C4.53753 9.7278 4.29746 9.74457 3.99911 9.7988C3.71036 9.8513 3.47276 9.8999 3.28231 9.94235C3.1893 12.379 3.1025 14.6967 3.05087 16.458C3.02171 17.4526 3.00696 18.1958 3.05184 18.7636C3.09859 19.3548 3.20083 19.5653 3.25204 19.6308C3.2907 19.6802 3.38872 19.7565 3.62997 19.8066C3.85844 19.854 4.10879 19.855 4.34091 19.8496C4.45113 19.5877 4.5039 19.4145 4.52548 19.2822C4.60055 18.8218 4.63673 18.4749 4.71102 17.8252C4.7771 17.2473 4.90057 16.2293 4.94247 14.9785C4.98466 13.7185 4.94577 12.2544 4.9161 11.4228C4.8859 10.5764 4.87077 10.4672 4.84872 10.3379C4.81455 10.1375 4.7693 9.91389 4.71102 9.72751ZM3.6827 0.715791C4.54424 0.708954 5.4901 1.07947 6.1827 1.56638C6.42916 1.7397 6.57294 2.0043 6.60165 2.2822C6.73594 2.42513 6.83002 2.60874 6.86141 2.81735C6.87419 2.90228 6.88424 2.95421 6.89364 3.00778C6.90338 3.06334 6.91577 3.13649 6.92391 3.22849L6.93173 3.31345L6.92489 3.39841C6.86965 4.07581 6.65306 4.67023 6.5411 4.99802L6.53036 5.03024L6.51669 5.06149C6.43058 5.2672 6.30711 5.53602 6.14266 5.78708C5.99157 6.01765 5.72855 6.35488 5.31942 6.54392C5.03408 6.67567 4.54747 6.82454 3.97762 6.72556C3.56408 6.65376 2.45917 6.58388 1.72372 5.43747C1.62553 5.28442 1.31575 4.86886 1.15633 4.44431C0.958341 3.91675 0.936339 3.31711 1.21883 2.65231C1.35046 2.34238 1.91816 0.729992 3.6827 0.715791ZM3.6993 2.71579C3.59424 2.71663 3.53333 2.73884 3.49618 2.75778C3.45535 2.77866 3.40999 2.81298 3.35946 2.87204C3.24026 3.01163 3.16333 3.19057 3.05966 3.43454C3.0138 3.54246 3.00746 3.60544 3.00692 3.63474C3.00643 3.66303 3.01078 3.69419 3.02841 3.74118C3.04863 3.79508 3.08411 3.86547 3.15145 3.97165C3.18498 4.02452 3.22152 4.07889 3.26571 4.1445C3.30749 4.20654 3.35827 4.28095 3.40731 4.35739C3.51781 4.52964 3.618 4.589 3.71298 4.62692C3.8629 4.68674 3.99189 4.69777 4.3204 4.75485C4.34119 4.75845 4.36786 4.75879 4.40048 4.7529C4.41052 4.75105 4.41973 4.74656 4.4288 4.74411C4.43902 4.73101 4.45446 4.7148 4.46981 4.69138C4.53399 4.59339 4.59855 4.45925 4.66317 4.30661C4.77399 3.98217 4.8794 3.66647 4.92001 3.33103C4.91143 3.28242 4.89857 3.21193 4.88387 3.11423C4.8834 3.11102 4.88335 3.10767 4.8829 3.10446C4.47212 2.85422 4.00627 2.71353 3.6993 2.71579Z" fill="black"/>
</svg>
