<svg width="24" height="24" viewBox="0 0 24 24" fill="none" xmlns="http://www.w3.org/2000/svg">
<path d="M15.9663 2.00419C17.1477 2.00844 18.1992 2.01318 19.0679 2.00614C19.9091 1.99933 20.4419 2.00013 20.769 2.04423C20.9365 2.06684 21.2028 2.11749 21.4497 2.29423C21.649 2.43704 21.7652 2.61615 21.8179 2.71122L21.8501 2.77372L22.0776 3.23173C22.2932 3.68346 22.4692 4.10923 22.5581 4.4163C22.6443 4.71402 22.6802 5.0127 22.7153 5.90067C22.7514 6.81368 22.7825 8.44372 22.7231 10.0247C22.6637 11.6075 22.5126 13.0833 22.4312 13.93C22.3528 14.7444 22.3366 15.0111 22.3042 15.2835C22.2356 15.8602 22.1478 16.2955 22.0854 16.4895C21.9313 16.9684 21.5438 17.2132 21.3345 17.3245C21.0957 17.4515 20.8148 17.5456 20.5493 17.6233C20.2986 17.6967 20.0209 17.7217 19.5542 17.7434C19.0643 17.7662 18.2636 17.7877 16.8999 17.8186C15.8943 17.8415 14.5767 17.8632 13.1821 17.886C13.1809 17.9498 13.1795 18.038 13.1772 18.1604C13.1695 18.587 13.1544 19.4445 13.1431 19.9085C13.1414 19.977 13.1368 20.0392 13.1353 20.096C14.0096 20.0958 14.9459 20.0973 15.8921 20.097C16.4442 20.097 16.8929 20.5448 16.8931 21.097C16.8931 21.649 16.445 22.0965 15.8931 22.097C13.266 22.0979 10.7131 22.099 9.3374 22.096C7.9654 22.0929 7.75759 22.0858 7.54834 22.0784C6.99661 22.0588 6.5652 21.5959 6.58447 21.0442C6.60409 20.4924 7.06687 20.0609 7.61865 20.0804C7.79137 20.0865 7.96977 20.0929 9.34229 20.096C9.81522 20.097 10.4278 20.0958 11.1353 20.096C11.1373 20.0371 11.1416 19.9603 11.144 19.8597C11.1552 19.4037 11.1705 18.5538 11.1782 18.1243C11.1797 18.0403 11.1802 17.9727 11.1812 17.9182C9.40574 17.9447 7.68219 17.9687 6.47217 17.9827C5.16033 17.9978 4.47887 18.002 4.11377 17.9993C3.77905 17.9968 3.6155 17.991 3.42627 17.9407C3.14542 17.8659 2.86921 17.7638 2.60303 17.5755C2.35072 17.3968 2.16209 17.1783 2.00049 16.9768C1.82828 16.762 1.69855 16.4948 1.59229 16.2464C1.4793 15.9822 1.35878 15.6552 1.2251 15.2718C1.03499 14.7264 0.92763 14.0657 0.851075 13.3938C0.770357 12.6853 0.743695 11.9037 0.762208 11.2034C0.781008 10.4932 0.847369 9.88884 0.933106 9.30009C1.01691 8.72464 1.12238 8.14828 1.17334 7.84305C1.22457 7.53613 1.22555 7.47846 1.30029 6.9202C1.37169 6.38698 1.51107 5.40173 1.646 4.66434C1.78223 3.91997 1.91434 3.43563 2.01807 3.13993C2.06231 3.01382 2.12975 2.83573 2.24268 2.67704C2.31055 2.5817 2.40338 2.47942 2.53076 2.39286C2.65377 2.30932 2.76715 2.27066 2.79443 2.26102L2.93311 2.22196C3.07162 2.19159 3.20837 2.1849 3.34326 2.17802C3.57408 2.16625 3.99619 2.1513 4.78858 2.12821C6.38638 2.08166 9.40249 2.02542 12.1216 2.00614C13.4839 1.99649 14.7878 1.99995 15.9663 2.00419ZM12.1362 4.00614C9.42924 4.02533 6.42712 4.08117 4.84619 4.12723C4.36947 4.14113 4.03433 4.15468 3.79834 4.16337C3.74513 4.36895 3.68109 4.65057 3.61279 5.02372C3.48709 5.7106 3.35366 6.65599 3.28272 7.18583C3.2152 7.69007 3.20431 7.82378 3.146 8.17313C3.08731 8.52464 2.99259 9.03897 2.9126 9.58817C2.83451 10.1244 2.77736 10.6468 2.76123 11.2561C2.74486 11.8752 2.76949 12.5626 2.83838 13.1673C2.91146 13.8087 2.99995 14.2871 3.11377 14.6136C3.24412 14.9875 3.34624 15.2617 3.43115 15.4602C3.51688 15.6606 3.5604 15.7243 3.56104 15.7259C3.69771 15.8962 3.74408 15.9329 3.75928 15.9436C3.76428 15.9472 3.79234 15.9633 3.896 15.9934C3.93594 15.995 4.00693 15.9984 4.12842 15.9993C4.47115 16.0018 5.13279 15.9979 6.44873 15.9827C9.07708 15.9524 14.1243 15.8806 16.854 15.8186C18.2251 15.7875 19.0001 15.7668 19.4614 15.7454C19.8801 15.7259 19.9749 15.7074 19.9868 15.7044C20.0842 15.6759 20.1653 15.6481 20.2319 15.6243C20.2581 15.4787 20.2896 15.2846 20.3179 15.0472C20.3475 14.7977 20.3552 14.6287 20.4409 13.7376C20.5236 12.878 20.6673 11.4629 20.7241 9.9495C20.781 8.43412 20.751 6.85797 20.7163 5.97977C20.6808 5.08132 20.6474 5.0076 20.6372 4.97294C20.5856 4.79463 20.4426 4.44378 20.2319 4.01005C20.1871 4.00864 20.1355 4.00711 20.0776 4.00614C19.8409 4.0022 19.5215 4.0026 19.0845 4.00614C18.2011 4.0133 17.1347 4.00841 15.9595 4.00419C14.7813 3.99995 13.4869 3.99657 12.1362 4.00614Z" fill="black"/>
</svg>
