<svg width="24" height="24" viewBox="0 0 24 24" fill="none" xmlns="http://www.w3.org/2000/svg">
<path d="M10.2593 2.58406C10.4593 2.59001 10.6432 2.65596 10.7964 2.76179C11.3391 2.75357 12.3287 2.73755 12.8618 2.72664C13.2883 2.7179 13.7504 2.67706 14.2339 2.89265L14.4419 3.00203L14.5698 3.09089C14.8425 3.30923 14.9468 3.59926 14.9907 3.79304C15.0347 3.98683 15.0476 4.21274 15.0542 4.43269C15.0682 4.89546 15.0587 5.68604 15.0503 7.00203C15.0439 8.0133 15.028 9.36004 15.0093 10.7843C15.0929 10.6534 15.1706 10.544 15.2466 10.4444C15.4376 10.1943 15.6061 10.0199 15.8794 9.79207C16.1294 9.58376 16.4874 9.31396 16.8443 9.08308C17.2284 8.8346 17.5993 8.64074 18.1821 8.42292C18.7368 8.21569 19.4893 7.98549 19.9097 7.86238C20.4528 7.70335 20.9069 7.62231 21.398 7.75984C21.7305 7.8532 21.9506 8.07995 22.0689 8.30476C22.1658 8.48934 22.1938 8.66689 22.2046 8.75398C22.226 8.92629 22.2219 9.14337 22.2212 9.29402C22.2195 9.68474 22.1979 10.3206 22.1529 10.7979C22.1054 11.3012 22.033 11.6129 21.9741 11.8331C21.8672 12.2333 21.6514 12.6384 21.4566 12.9903C21.2381 13.3848 20.8331 13.7667 20.4321 14.1329C20.1319 14.407 19.8074 14.6087 19.5073 14.7794C19.186 14.9621 18.8371 15.1241 18.6304 15.2159C18.5249 15.2627 18.399 15.3177 18.2339 15.3604C18.0876 15.3983 17.9325 15.421 17.7661 15.4434C17.4146 15.4908 16.7782 15.5648 16.2241 15.6036C15.7322 15.638 15.3262 15.6403 14.9331 15.6368C14.9223 16.252 14.9147 16.8145 14.9048 17.294C14.8914 17.9393 14.8796 18.4399 14.8609 18.8233C14.8428 19.1933 14.8164 19.5153 14.7593 19.7745C14.7018 20.0353 14.5783 20.402 14.2329 20.668C13.9396 20.894 13.5897 20.9427 13.5318 20.9542C13.0436 21.0512 12.0937 21.2329 11.438 21.3409C10.7942 21.4469 10.4029 21.4881 10.1343 21.4835C10.113 21.4832 9.83871 21.4906 9.56789 21.3419C9.22396 21.1528 9.08728 20.8475 9.03274 20.6671C8.98451 20.5075 8.96961 20.3449 8.96145 20.2364C8.95213 20.1125 8.94555 19.9615 8.93996 19.7901C8.9168 19.08 8.89105 17.7178 8.93703 14.9102C8.95903 13.5674 8.99679 11.9012 9.04543 10.0528C8.91593 10.0615 8.75148 10.0661 8.51125 10.0626C8.1032 10.0566 7.41707 10.0305 6.84231 9.95515C6.24518 9.87687 5.79188 9.75064 5.39992 9.61042C5.03803 9.48096 4.71032 9.33991 4.48 9.21492C4.17145 9.04741 3.80709 8.82521 3.38235 8.34089C3.14475 8.06992 2.88936 7.71653 2.64309 7.28035C2.3999 6.84957 2.17198 6.35129 1.99074 5.86531C1.81014 5.38092 1.67802 4.92022 1.60696 4.63484C1.57271 4.4973 1.54522 4.36895 1.52981 4.25496C1.5161 4.15338 1.49582 3.95729 1.55813 3.7364L1.59524 3.62605C1.64775 3.49606 1.75057 3.31672 1.95071 3.17195C2.16604 3.01633 2.38367 2.98559 2.45266 2.97664C2.58979 2.95884 2.76051 2.9638 2.86281 2.96589C3.14588 2.97168 3.68675 2.98723 4.17629 3.03132C4.6798 3.07668 5.11367 3.15025 5.57375 3.26472C6.02052 3.37589 6.48058 3.52191 6.82766 3.65242C7.19116 3.78911 7.45983 3.91944 7.74758 4.11531C8.00585 4.29114 8.2558 4.50191 8.43313 4.66316C8.63996 4.85128 8.78451 5.00561 9.00735 5.2989C9.05512 5.36179 9.11122 5.43953 9.17434 5.52449C9.1889 5.02303 9.20234 4.51709 9.21731 4.00886C9.1985 3.93223 9.18703 3.85204 9.18703 3.7696C9.18707 3.66107 9.2058 3.5569 9.23781 3.45906C9.30095 2.95336 9.73959 2.56878 10.2593 2.58406ZM11.7134 16.3643C11.3058 16.4676 11.1914 16.4923 11.0943 16.5059C11.0348 16.5143 10.9808 16.519 10.9175 16.5196C10.9055 17.9435 10.9163 18.8302 10.9302 19.3946C10.9869 19.3858 11.048 19.3779 11.1128 19.3673C11.6232 19.2832 12.3353 19.1488 12.8404 19.0509C12.8474 18.9644 12.8564 18.8575 12.8628 18.7257C12.88 18.3749 12.8913 17.9019 12.9048 17.252C12.9122 16.8933 12.9163 16.488 12.9243 16.0489C12.427 16.1789 11.9928 16.2936 11.7134 16.3643ZM11.0552 9.76667C11.0081 11.5409 10.97 13.1561 10.9458 14.4923C11.0106 14.4766 11.1002 14.456 11.2232 14.4249C11.5926 14.3313 12.2463 14.1603 12.9605 13.9727C12.9765 12.9708 12.9937 11.9092 13.0073 10.8839C12.8545 10.8848 12.6992 10.8517 12.5532 10.7784C12.4658 10.7344 12.4093 10.6996 12.3833 10.6846C12.3021 10.638 12.2197 10.5878 11.857 10.3341C11.6467 10.187 11.3404 9.96887 11.0552 9.76667ZM20.2066 9.86238C19.8008 9.98484 19.2724 10.1502 18.8823 10.296C18.4278 10.4658 18.1878 10.5958 17.9312 10.7618C17.6475 10.9453 17.3535 11.1667 17.1597 11.3282C16.9892 11.4703 16.9277 11.5378 16.8364 11.6573C16.7392 11.7847 16.6099 11.97 16.4038 12.3927C16.2304 12.7484 16.0166 13.2439 15.8589 13.6202C15.9318 13.6164 16.0072 13.6139 16.0845 13.6085C16.5828 13.5736 17.1745 13.5048 17.4995 13.461C17.6708 13.4379 17.7162 13.4282 17.7329 13.4239C17.7346 13.4235 17.7364 13.4234 17.7427 13.421C17.7542 13.4166 17.774 13.4086 17.8189 13.3887C17.9974 13.3095 18.2786 13.1763 18.5181 13.0401C18.779 12.8917 18.9506 12.7786 19.0845 12.6563C19.2955 12.4637 19.4475 12.3177 19.5571 12.2012C19.6106 12.1445 19.6478 12.101 19.6734 12.0684C19.6971 12.0381 19.7059 12.0226 19.7066 12.0216C19.9123 11.6499 20.0067 11.4472 20.0415 11.3175C20.0765 11.1866 20.1263 10.9854 20.1616 10.6104C20.1823 10.3911 20.1965 10.12 20.2066 9.86238ZM12.9029 4.72664C12.4706 4.73548 11.7455 4.74547 11.1958 4.75398C11.1696 5.6489 11.1459 6.53295 11.1216 7.3946C11.2442 7.44341 11.3593 7.51801 11.4585 7.61726C11.4585 7.61724 11.4518 7.61025 11.4439 7.60261C11.4347 7.59385 11.4245 7.58502 11.4146 7.57625C11.3961 7.55993 11.3806 7.54739 11.3726 7.54109L11.356 7.52742C11.3607 7.53082 11.3678 7.53614 11.3775 7.54304C11.4178 7.57193 11.4995 7.63043 11.6636 7.74714C11.9931 7.98151 12.6451 8.44473 13.0034 8.69539C13.0137 8.70257 13.024 8.70911 13.0337 8.71589C13.0405 8.07812 13.0471 7.4919 13.0503 6.98933C13.0575 5.85818 13.0614 5.16259 13.0562 4.72273C13.0102 4.72367 12.9594 4.72548 12.9029 4.72664ZM3.86477 5.16609C4.01399 5.56627 4.1987 5.96813 4.3843 6.29695C4.5669 6.62037 4.74426 6.8606 4.88625 7.02253C5.00467 7.15755 5.09952 7.24007 5.17531 7.29695C5.25227 7.35466 5.32801 7.39951 5.4341 7.4571C5.54464 7.51708 5.77028 7.61905 6.07375 7.72761C6.34751 7.82553 6.66196 7.91404 7.10207 7.97175C7.4938 8.0231 7.98272 8.04574 8.35305 8.05574C8.33695 8.01697 8.31601 7.96614 8.28762 7.90535C8.21712 7.7544 8.11447 7.55334 7.98196 7.32039C7.84736 7.08391 7.61194 6.76865 7.41457 6.50886C7.26062 6.30624 7.1979 6.24411 7.08742 6.14363C6.94738 6.01626 6.77473 5.87122 6.62258 5.76765C6.49971 5.68403 6.38185 5.62162 6.12356 5.52449C5.84872 5.42115 5.4622 5.29767 5.09035 5.20515C4.73182 5.11596 4.39945 5.05883 3.9966 5.02253C3.93535 5.01702 3.87235 5.01536 3.8091 5.01082C3.82713 5.06196 3.84539 5.11411 3.86477 5.16609Z" fill="black"/>
</svg>
