<svg width="24" height="24" viewBox="0 0 24 24" fill="none" xmlns="http://www.w3.org/2000/svg">
<path d="M18.0856 4C18.4023 4 18.6526 4.12356 18.7946 4.20801C18.9506 4.30082 19.0875 4.41448 19.1989 4.51855C19.4229 4.72783 19.6401 4.98944 19.8268 5.2373C20.1977 5.72954 20.5523 6.30871 20.7165 6.65527C20.9169 7.07832 21.1866 7.72992 21.4186 8.44824C21.6526 9.17271 21.8496 9.96422 21.9391 10.8701C22.0269 11.7581 22.0099 12.7104 21.9469 13.3877C21.8835 14.0707 21.7818 14.5087 21.652 14.8643C21.5019 15.2754 21.3111 15.7336 20.985 16.0449C20.7931 16.2282 20.5548 16.4342 20.1159 16.6455C19.9045 16.7473 19.4852 16.9487 19.1901 17.0498C18.7326 17.2064 18.2416 17.2515 17.7214 17.2168C17.3508 17.1919 16.841 17.0515 16.3005 16.8145C16.1387 16.7435 16.1339 16.7454 16.1178 16.7432C16.1005 16.7408 16.0068 16.7302 15.7487 16.7861C15.7448 16.7871 15.7054 16.7975 15.6217 16.8369C15.5324 16.8791 15.4088 16.9474 15.2428 17.0518C15.1201 17.129 15.0025 17.2099 14.7311 17.4648C14.4393 17.7389 14.0167 18.1684 13.7799 18.4268C13.659 18.5588 13.6101 18.6181 13.5846 18.6533C13.5685 18.6756 13.5559 18.6959 13.5231 18.7627C13.4052 19.0028 13.3118 19.1935 13.2419 19.3496C13.2076 19.4261 13.1839 19.4822 13.1696 19.5215C13.156 19.5588 13.1576 19.5626 13.1618 19.542C13.1492 19.6183 13.1417 19.6787 13.1383 19.7305C13.1353 19.7778 13.137 19.8008 13.1374 19.8047C13.139 19.8137 13.1415 19.8295 13.1442 19.8477C13.1458 19.8588 13.1528 19.9031 13.1549 19.959C13.1558 19.9818 13.158 20.0553 13.1442 20.1475C13.1374 20.1926 13.1213 20.2852 13.0749 20.3936C13.0328 20.4917 12.9203 20.7114 12.6608 20.8633C12.3575 21.0407 12.0412 21.0202 11.8229 20.9434C11.6384 20.8782 11.5199 20.7749 11.4723 20.7305C11.3737 20.6383 11.3176 20.547 11.3053 20.5273C11.2691 20.469 11.2464 20.4182 11.2419 20.4082C11.2334 20.3896 11.2269 20.373 11.2233 20.3643C11.2161 20.3466 11.2089 20.3292 11.2048 20.3184C11.1861 20.2695 11.1637 20.2082 11.1257 20.1133C11.051 19.927 10.9195 19.6187 10.7077 19.2041C10.4991 18.7958 10.2335 18.3706 9.85905 17.8594C9.4675 17.3249 9.01396 16.748 8.74772 16.4531C8.55954 16.2447 8.44976 16.1308 8.38053 16.0645C8.31831 16.0049 8.31436 16.009 8.33854 16.0234C8.24955 15.9704 8.20875 15.9477 8.17057 15.9307C8.14134 15.9177 8.1142 15.9082 8.0778 15.9023C7.8439 15.8651 7.65591 15.8359 7.50456 15.8203C7.43218 15.8129 7.38239 15.8109 7.35124 15.8105C7.3313 15.8157 7.31657 15.8192 7.30631 15.8232C7.36069 15.8056 6.76037 16.4164 5.91276 16.4736C5.69388 16.4884 5.47386 16.4943 5.27604 16.4814C5.12608 16.4716 4.81235 16.4446 4.53288 16.2783C4.2973 16.1381 3.95535 15.8628 3.53483 15.4072C3.30127 15.1542 3.04461 14.8434 2.84928 14.5654C2.65547 14.2895 2.51732 14.0483 2.41862 13.8281C2.28914 13.5392 2.11264 13.1413 2.04264 12.4971C2.00313 12.1334 1.98731 11.6565 2.01139 11.1533C2.03556 10.6485 2.09907 10.1152 2.21842 9.59277C2.33635 9.07676 2.49968 8.60577 2.60417 8.32324C2.71843 8.01428 2.78935 7.85936 2.93327 7.61328C3.06366 7.39036 3.25933 7.07958 3.59928 6.66016C3.92693 6.25594 4.38068 5.75953 4.77799 5.37988C5.18138 4.99447 5.52886 4.73238 5.66862 4.61914C5.89527 4.43544 6.15053 4.24333 6.5026 4.11523C6.52048 4.10874 6.65434 4.0571 6.82194 4.04492C7.04061 4.02921 7.32855 4.07908 7.57878 4.29102C7.78459 4.46543 7.86996 4.67244 7.90397 4.76758C7.94204 4.87419 7.96181 4.97543 7.97331 5.04492C8.01255 5.2822 8.03936 5.71212 8.05924 5.9668C8.0809 6.2441 8.1021 6.45526 8.1735 6.83398C8.25187 7.24961 8.36753 7.80064 8.46745 8.16504C8.55505 8.48452 8.61489 8.69207 8.66081 8.8291C8.66691 8.8473 8.6727 8.86281 8.67741 8.87598C8.68724 8.88487 8.6962 8.89664 8.70866 8.90625C8.7494 8.93751 8.82171 8.98448 8.94108 9.03027C8.98221 9.04603 9.02277 9.05924 9.06022 9.07324C9.0596 8.97428 9.05807 8.86469 9.06022 8.74316C9.06755 8.33002 9.09643 7.66901 9.11003 7.33008C9.11726 7.14962 9.11936 7.07406 9.12272 6.9873C9.12586 6.90609 9.1295 6.84405 9.13737 6.76074C9.14369 6.69349 9.16015 6.40452 9.19401 6.19238C9.22738 5.98358 9.31067 5.5705 9.61198 5.23633L9.74186 5.11426C9.90842 4.98173 10.1828 4.83955 10.5495 4.89355C10.9019 4.94568 11.1198 5.16251 11.1696 5.21094C11.305 5.34259 11.4479 5.54146 11.5651 5.7041C11.7354 5.9404 11.9587 6.25592 12.1637 6.54297C12.3341 6.35503 12.5828 6.08391 12.8346 5.85938C12.9782 5.7314 13.1608 5.5836 13.3639 5.4707C13.5126 5.38818 13.8169 5.24084 14.1901 5.26953L14.3542 5.29395L14.529 5.34473C14.9108 5.48717 15.1253 5.78541 15.2301 5.98242C15.352 6.21158 15.4139 6.46002 15.4508 6.65527C15.4835 6.82757 15.5047 7.01515 15.5212 7.2041C15.5227 7.20086 15.5245 7.19759 15.526 7.19434C15.6229 6.98938 15.7136 6.81333 15.7887 6.67285L15.945 6.38965C15.9466 6.38584 15.9547 6.36839 15.9704 6.33008C15.9987 6.26102 16.0221 6.20101 16.0661 6.09277C16.1436 5.90198 16.2506 5.64664 16.3796 5.3916C16.5039 5.14576 16.6748 4.84788 16.8932 4.59863C17.0857 4.3791 17.4874 4.00014 18.0856 4ZM18.1442 6.33496C18.0613 6.50321 17.9863 6.68166 17.9196 6.8457C17.8888 6.92147 17.8467 7.02611 17.821 7.08887C17.7994 7.14156 17.7553 7.25044 17.7048 7.34082C17.6322 7.47056 17.495 7.70928 17.3346 8.04883C17.2799 8.16471 17.2445 8.25636 17.2126 8.34375C17.187 8.41366 17.1373 8.55893 17.0778 8.68652C17.0168 8.81728 16.8948 9.07976 16.7331 9.36719C16.5712 9.65482 16.379 9.95104 16.2038 10.1934C15.971 10.5152 15.7753 10.7536 15.5973 10.9258C15.4106 11.1064 15.1995 11.2575 14.9352 11.3369C14.7599 11.3895 14.4211 11.4325 14.0885 11.2129C13.8192 11.0347 13.7221 10.787 13.695 10.7129C13.638 10.5572 13.6291 10.4086 13.6276 10.3896C13.6199 10.2918 13.6166 10.1445 13.613 9.95605C13.6051 9.54575 13.5962 8.7896 13.5651 7.99902C13.5648 7.99117 13.5635 7.98338 13.5632 7.97559C13.2736 8.2936 13.0688 8.49305 12.9089 8.62598C12.7642 8.74613 12.5516 8.88043 12.6452 8.81543C12.5992 8.84737 12.3225 9.04538 11.9215 8.99414C11.6108 8.95418 11.4094 8.7851 11.3512 8.73535C11.254 8.65203 11.161 8.54153 11.0719 8.42969C11.0679 8.55669 11.062 8.67608 11.0602 8.77832C11.0541 9.12611 11.063 9.33783 11.0719 9.46875C11.0765 9.53582 11.0818 9.58583 11.0866 9.6377C11.0902 9.6767 11.0984 9.76186 11.0983 9.84863C11.0975 10.3151 10.8769 10.7034 10.5954 10.9463L10.4831 11.043L10.3473 11.1035C10.2887 11.1295 10.2308 11.1468 10.1774 11.1611C10.0781 11.2166 9.96808 11.2582 9.84928 11.2773C9.63184 11.3122 9.42057 11.2771 9.22233 11.2285C9.00405 11.175 8.69146 11.0757 8.22624 10.8975C7.60184 10.6582 7.2676 10.3172 7.09635 10.1152C6.91059 9.89591 6.81518 9.6166 6.76432 9.46484C6.69818 9.26745 6.62478 9.00811 6.53874 8.69434C6.41696 8.25023 6.28884 7.63547 6.20768 7.20508C6.18217 7.06975 6.16216 6.9492 6.14518 6.83887C5.81534 7.15555 5.42626 7.58185 5.15299 7.91895C4.88812 8.24574 4.74903 8.47056 4.65983 8.62305C4.58449 8.75185 4.56013 8.79769 4.47917 9.0166C4.38826 9.26241 4.25905 9.64237 4.16862 10.0381C4.07969 10.4273 4.02797 10.8414 4.00846 11.249C3.98887 11.6584 4.0037 12.0307 4.03092 12.2812C4.05019 12.4585 4.08089 12.5861 4.11296 12.6865C4.14661 12.7918 4.18641 12.8817 4.24381 13.0098C4.28067 13.092 4.35029 13.2228 4.486 13.416C4.62045 13.6073 4.8182 13.8489 5.00456 14.0508C5.17152 14.2317 5.30566 14.3581 5.40299 14.4414C5.4237 14.4591 5.44408 14.473 5.46061 14.4863C5.53551 14.4882 5.64072 14.4878 5.77799 14.4785C5.79684 14.4772 5.80903 14.4741 5.8151 14.4727C5.82328 14.4665 5.83826 14.4544 5.8776 14.417C5.89381 14.4016 5.92958 14.3681 5.96159 14.3389C5.99576 14.3077 6.04715 14.2617 6.11003 14.2158C6.42523 13.9861 6.74597 13.8943 6.95378 13.8486L7.16178 13.8174C7.36937 13.7995 7.57048 13.8167 7.70963 13.8311C7.92577 13.8533 8.16948 13.8922 8.39225 13.9277C8.8629 14.0027 9.1829 14.198 9.36198 14.3047C9.63573 14.4678 9.8696 14.7118 10.2321 15.1133C10.5666 15.4838 11.0681 16.1245 11.4733 16.6777C11.667 16.9422 11.8391 17.1949 11.9958 17.4404C12.0786 17.3304 12.1763 17.216 12.3053 17.0752C12.5752 16.7807 13.0331 16.3158 13.362 16.0068C13.7108 15.6792 13.9292 15.5151 14.1784 15.3584C14.5847 15.1029 14.9642 14.9103 15.3249 14.832C15.7226 14.7458 16.069 14.7159 16.3991 14.7627C16.7289 14.8095 16.9784 14.9283 17.1042 14.9834C17.3048 15.0714 17.4798 15.1314 17.6169 15.1699C17.6848 15.189 17.7408 15.2027 17.7839 15.2109C17.8051 15.215 17.823 15.218 17.8356 15.2197C17.8412 15.2205 17.846 15.2204 17.8493 15.2207C17.8506 15.2208 17.8523 15.2215 17.8532 15.2217H17.8551C18.1771 15.2432 18.3914 15.2086 18.5417 15.1572C18.7002 15.103 19.002 14.9625 19.2487 14.8438C19.3586 14.7909 19.4234 14.7484 19.4655 14.7178C19.5027 14.6907 19.5347 14.6614 19.5817 14.6172C19.5874 14.6079 19.5979 14.5926 19.61 14.5693C19.6496 14.493 19.7027 14.3705 19.7731 14.1777C19.8292 14.024 19.9037 13.7633 19.9557 13.2031C20.0084 12.6366 20.0226 11.8132 19.9489 11.0674C19.877 10.3396 19.7182 9.69175 19.5153 9.06348C19.3104 8.42914 19.0729 7.85708 18.9089 7.51074C18.8166 7.31621 18.5408 6.85398 18.2292 6.44043C18.2011 6.40314 18.1711 6.36907 18.1442 6.33496Z" fill="black"/>
</svg>
