<svg width="24" height="24" viewBox="0 0 24 24" fill="none" xmlns="http://www.w3.org/2000/svg">
<path d="M17.8613 3.00879C18.1362 3.02528 18.5066 3.07152 18.8359 3.24609C19.265 3.4736 20.1994 3.90864 20.6679 4.91406C20.8461 5.29657 20.9506 5.62458 20.9736 6.13672C20.9852 6.39566 21.003 6.71777 20.999 7.02148C20.995 7.32111 20.9706 7.68395 20.8642 8.02832C20.8043 8.2221 20.7333 8.45001 20.6464 8.65918C20.5603 8.86661 20.4324 9.12184 20.2275 9.34668C20.1336 9.44973 20.0348 9.54088 19.9443 9.62109C20.1484 9.9019 20.3792 10.2669 20.5468 10.6914C20.6012 10.8291 20.6451 10.9321 20.6914 11.0459C20.7293 11.1393 20.7816 11.2715 20.8164 11.3965C20.8794 11.6232 20.9921 12.1395 20.9502 13.1172C20.925 13.7028 20.8389 14.4614 20.7441 15.0166C20.6492 15.5726 20.5508 15.9755 20.3613 16.4121C20.0701 17.083 19.7775 17.6971 19.5146 18.0478C19.311 18.3195 18.9244 18.7544 18.1611 19.2676C17.7373 19.5525 17.2289 19.8301 16.6709 20.0713C16.1296 20.3052 15.5495 20.5113 15.1816 20.6191C14.6757 20.7675 14.1242 20.8131 13.7421 20.8711C13.4448 20.9162 13.024 21.0018 12.1084 21C11.5071 20.9988 10.575 20.9702 9.7568 20.8682C8.95031 20.7676 8.25601 20.6141 7.7734 20.4492C7.0585 20.205 6.45228 19.8514 5.91402 19.4248C5.73287 19.2812 5.54069 19.1486 5.28707 18.8965C4.80748 18.4197 4.35227 17.8485 4.06832 17.4228C3.90547 17.1787 3.74659 16.9143 3.58004 16.3975C3.47171 16.0612 3.34587 15.5927 3.28512 14.7891C3.22856 14.0406 3.20834 12.9813 3.24313 12.3691C3.28148 11.6942 3.3338 11.3887 3.45602 11.0937C3.5386 10.8945 3.66021 10.6967 3.75875 10.5459C3.86357 10.3855 3.98114 10.2198 4.07906 10.082C4.08329 10.0761 4.08663 10.0693 4.09078 10.0635C4.00169 9.97826 3.90497 9.88982 3.8027 9.79883C3.6959 9.7038 3.56232 9.58586 3.46188 9.48633L3.44723 9.47168L3.43355 9.45703C3.1921 9.19703 2.96276 8.93862 2.77438 8.70215C2.60114 8.48467 2.40576 8.21719 2.29098 7.94922C2.22203 7.78817 2.02973 7.38091 2.02047 6.91894C2.01832 6.83163 1.92083 6.2216 2.16012 5.625C2.25793 5.38116 2.41381 5.06229 2.59957 4.77441C2.6926 4.63026 2.80754 4.47151 2.94137 4.3291C3.06215 4.20062 3.26637 4.01105 3.55074 3.90332L3.7441 3.83398C4.22297 3.67206 4.91353 3.51867 5.96676 3.60351C6.40126 3.63852 7.10567 3.69917 7.52535 3.7666C7.98888 3.84111 8.23407 3.87496 8.71871 4.03808C9.16226 4.18737 9.55725 4.32226 9.84957 4.43359C9.99316 4.48828 10.135 4.54546 10.2529 4.60254C10.31 4.63018 10.3859 4.66953 10.4619 4.71972C10.4906 4.7387 10.7094 4.87454 10.8447 5.13965C10.8493 5.14874 10.8521 5.15895 10.8564 5.16797C11.3255 5.07258 12.1871 4.94071 13.1826 5.09765C13.4847 5.1453 13.7525 5.19884 13.9873 5.25488C14.1435 4.89569 14.3962 4.44762 14.8183 4.10644C15.032 3.93381 15.2715 3.73242 15.4492 3.61426C15.7866 3.38977 16.1958 3.06313 16.9062 3.02148C17.2307 3.0025 17.5623 2.99087 17.8613 3.00879ZM17.0234 5.01758C16.9835 5.01991 16.9663 5.02422 16.9619 5.02539C16.9586 5.02627 16.9508 5.02849 16.9316 5.03808C16.9081 5.04982 16.8715 5.07033 16.8066 5.1123C16.7349 5.15866 16.6698 5.20402 16.5566 5.27929C16.4817 5.32914 16.3734 5.42193 16.0761 5.66211C15.9829 5.73745 15.8749 5.89857 15.7783 6.15136C15.7342 6.26685 15.7004 6.38132 15.6718 6.48535C15.656 6.54303 15.6466 6.57975 15.6318 6.63476C15.6232 6.66683 15.6007 6.74966 15.5722 6.82519C15.5106 6.98831 15.3868 7.19438 15.1552 7.34277C14.9239 7.49084 14.6879 7.51535 14.5234 7.50488C14.2595 7.48799 14.0592 7.37024 14.0468 7.36328C14.0461 7.36293 14.024 7.35135 13.9736 7.33203C13.9217 7.31215 13.847 7.28726 13.748 7.25879C13.5497 7.20177 13.263 7.13505 12.8711 7.07324C12.1641 6.9618 11.5335 7.06612 11.1904 7.13965C11.1068 7.15761 11.0489 7.18526 11.0029 7.21094C10.9697 7.22946 10.9578 7.23782 10.9023 7.27148C10.8834 7.28296 10.8374 7.31049 10.7841 7.33691C10.7557 7.35099 10.7114 7.37212 10.6562 7.3916C10.6038 7.41007 10.5141 7.43692 10.4004 7.44726C10.1751 7.4677 9.93566 7.42585 9.71676 7.30078C9.50928 7.1822 9.37706 7.02219 9.29684 6.89453C9.15287 6.66536 9.10312 6.42 9.08199 6.31054C9.0802 6.30124 9.07902 6.29093 9.07711 6.28027C8.8307 6.18828 8.49326 6.07234 8.08102 5.93359C7.76854 5.82842 7.66881 5.81528 7.20797 5.74121C6.88143 5.68875 6.26064 5.63333 5.80563 5.59668C5.0609 5.5367 4.63824 5.64185 4.36813 5.73535C4.34513 5.76413 4.31498 5.80458 4.28023 5.8584C4.17331 6.02408 4.07384 6.22734 4.01656 6.37011C4.00414 6.40118 4.00011 6.42197 3.99996 6.46972C3.99987 6.50369 4.00202 6.54388 4.0068 6.61523C4.01098 6.67768 4.01839 6.7761 4.02047 6.8789C4.02007 6.86276 4.01723 6.8722 4.03414 6.92383C4.05338 6.98252 4.0799 7.04542 4.12984 7.16211C4.13367 7.16927 4.14713 7.19334 4.17574 7.23633C4.2138 7.29348 4.26758 7.36661 4.33883 7.45605C4.47707 7.62958 4.65911 7.83714 4.87496 8.07031C4.92722 8.12158 5.00739 8.19313 5.13277 8.30469C5.25018 8.40916 5.39579 8.53928 5.53414 8.6748C5.66839 8.80634 5.82488 8.97113 5.95406 9.15039C6.05587 9.29174 6.27329 9.61632 6.2734 10.0371C6.2734 10.31 6.16331 10.5257 6.14059 10.5723C6.09659 10.6624 6.0447 10.7473 6.00191 10.8145C5.91569 10.9498 5.80416 11.1063 5.70895 11.2402C5.60622 11.3848 5.51215 11.5179 5.43258 11.6396C5.39352 11.6994 5.36248 11.7505 5.33883 11.792C5.32728 11.8123 5.31867 11.8285 5.31246 11.8408C5.30666 11.8523 5.30404 11.8585 5.30367 11.8594C5.30298 11.861 5.30213 11.8623 5.30172 11.8633L5.29098 11.918C5.27668 12.0038 5.25717 12.1666 5.23922 12.4824C5.21068 12.9847 5.22743 13.953 5.27926 14.6387C5.32688 15.2686 5.41892 15.5812 5.48434 15.7842C5.53816 15.9512 5.58047 16.0508 5.61324 16.1162C5.64531 16.1802 5.67731 16.2314 5.73141 16.3125C5.94401 16.6312 6.31574 17.0982 6.69723 17.4775C6.84518 17.6246 6.8816 17.639 7.15719 17.8574C7.53927 18.1602 7.94655 18.3949 8.41988 18.5566C8.73605 18.6646 9.28802 18.7945 10.0039 18.8838C10.7077 18.9715 11.5493 18.9989 12.1123 19C12.8624 19.0015 13.152 18.9376 13.4423 18.8936C14.0308 18.8043 14.2852 18.7971 14.6191 18.6992C14.9016 18.6164 15.4041 18.4397 15.8769 18.2353C16.3332 18.0381 16.7329 17.8178 17.0459 17.6074C17.6219 17.2201 17.8453 16.9416 17.915 16.8486C18.0138 16.7168 18.2203 16.3228 18.5273 15.6152C18.6265 15.3865 18.6915 15.1602 18.7734 14.6807C18.8555 14.1998 18.9309 13.5246 18.9521 13.0312C18.9856 12.2505 18.8932 11.9444 18.8896 11.9316C18.8881 11.9273 18.8767 11.8945 18.8379 11.7988C18.8027 11.7123 18.7448 11.5734 18.6865 11.4258C18.5784 11.1523 18.4025 10.8887 18.2246 10.6611C18.1369 10.5491 18.0576 10.4565 17.9843 10.3701C17.9519 10.3318 17.9093 10.281 17.873 10.2344C17.8548 10.211 17.827 10.1743 17.7988 10.1309C17.782 10.1051 17.7117 9.99917 17.667 9.85156C17.4972 9.29072 17.8197 8.87141 17.9052 8.76562C18.0248 8.61794 18.1718 8.49453 18.2597 8.42187C18.4909 8.23097 18.6265 8.13278 18.7451 8.0039C18.7506 7.99502 18.7703 7.96268 18.7998 7.8916C18.8453 7.78184 18.89 7.64133 18.9531 7.4375C18.9751 7.36618 18.9969 7.22895 19 6.99511C19.003 6.76535 18.9887 6.51967 18.9755 6.22656C18.9664 6.02397 18.9454 5.95191 18.8554 5.75879C18.7202 5.46855 18.4618 5.31163 17.9267 5.02734C17.9245 5.02683 17.9218 5.02696 17.9189 5.02636C17.8856 5.0194 17.8284 5.01109 17.7412 5.00586C17.5631 4.9952 17.327 4.99981 17.0234 5.01758ZM12.6484 14.5752C12.7428 14.5736 12.8562 14.5761 12.9716 14.5937C13.0682 14.6085 13.2846 14.6505 13.4941 14.8066C13.7695 15.0123 13.9051 15.317 13.916 15.6103C13.9234 15.8166 13.8644 15.9858 13.8613 15.9951C13.7626 16.3085 13.5204 16.7166 13.2978 17.041C13.19 17.1981 12.9227 17.5146 12.4472 17.5537C12.0695 17.5845 11.78 17.4007 11.7646 17.3916L11.7265 17.3701L11.6914 17.3457C11.2832 17.067 11.0021 16.8413 10.8339 16.6797C10.8275 16.6737 10.8232 16.6718 10.8222 16.6709L10.8232 16.6719C10.8212 16.6703 10.813 16.6639 10.7939 16.6504C10.5869 16.5037 10.4542 16.2915 10.4004 16.0625C10.3317 15.927 10.291 15.7737 10.291 15.6113C10.2914 15.0596 10.7392 14.6116 11.291 14.6113C11.299 14.6107 11.4024 14.6073 11.6533 14.5996C11.8968 14.5921 12.2404 14.582 12.6484 14.5752ZM14.4521 11.9883C15.0043 11.9883 15.452 12.4361 15.4521 12.9883V13.0107C15.4521 13.0334 15.4521 13.0782 15.4502 13.1445C15.4482 13.2143 15.4439 13.3144 15.4296 13.4443C15.3695 13.9933 14.8751 14.3903 14.3261 14.3301C13.7774 14.2696 13.3812 13.7754 13.4414 13.2266C13.4479 13.1669 13.4501 13.1241 13.4511 13.0879L13.4521 13.0107V12.9883C13.4522 12.4361 13.9 11.9884 14.4521 11.9883ZM8.47066 12.4443C8.71765 11.9504 9.31848 11.7501 9.81246 11.9971C9.84274 12.0122 9.97523 12.0771 10.1025 12.2129C10.1516 12.2653 10.19 12.3177 10.2187 12.3623L10.2783 12.4678L10.3398 12.6133L10.3867 12.7725L10.415 12.9443C10.4214 12.9981 10.4255 13.0461 10.4287 13.0791C10.4806 13.6287 10.0769 14.1167 9.5273 14.1689C8.97789 14.2209 8.49006 13.8179 8.43746 13.2686C8.43713 13.2651 8.43679 13.2611 8.43648 13.2578C8.33612 13.003 8.33868 12.7086 8.47066 12.4443ZM8.81637 13.7275C8.81855 13.729 8.82105 13.73 8.8232 13.7314C8.81339 13.7251 8.80441 13.7176 8.79488 13.7109C8.80224 13.7161 8.80885 13.7226 8.81637 13.7275Z" fill="black"/>
</svg>
