<svg width="24" height="24" viewBox="0 0 24 24" fill="none" xmlns="http://www.w3.org/2000/svg">
<path d="M18.1314 2.10693C18.4817 2.08648 18.8795 2.08168 19.2134 2.10596C19.5933 2.13369 19.9383 2.32645 20.1128 2.43018C20.3331 2.56116 20.5459 2.716 20.7066 2.84033C21.0599 3.11397 21.2431 3.47804 21.3423 3.70557C21.3947 3.82593 21.4385 3.94535 21.4692 4.02783C21.5048 4.12323 21.5223 4.16966 21.5366 4.20068C21.7393 4.6405 21.8019 5.12392 21.8159 5.52295C21.8304 5.93468 21.7956 6.33747 21.7544 6.65869C21.7171 6.94925 21.5901 7.19039 21.4946 7.34424C21.3897 7.51338 21.2617 7.67306 21.1362 7.81494C20.8845 8.0996 20.5768 8.38231 20.2935 8.61963L20.1333 8.7544L19.9321 8.81299C19.8102 8.84865 19.6644 8.87759 19.5269 8.90283C19.5574 9.08515 19.5936 9.29889 19.6343 9.55029C19.7553 10.2988 19.8396 11.405 19.936 13.2095C20.0335 15.0332 20.118 17.5881 20.1636 18.9185C20.209 20.2443 20.2142 20.2811 20.2153 20.2915C20.2206 20.3476 20.2252 20.401 20.229 20.4478C20.2735 20.998 19.8632 21.4801 19.313 21.5249C18.7627 21.5693 18.2795 21.1592 18.2349 20.6089C18.231 20.5608 18.228 20.5208 18.2241 20.48C18.2159 20.3927 18.2094 20.2968 18.1646 18.9868C18.1187 17.6473 18.0352 15.1158 17.939 13.3159C17.8417 11.4969 17.761 10.496 17.6597 9.86963C17.5483 9.18112 17.4813 8.79428 17.4399 8.57471C17.4162 8.44893 17.4031 8.39363 17.3999 8.3794L17.4185 8.42822C17.2113 7.91686 17.458 7.33333 17.9692 7.12549C18.1113 7.06784 18.2593 7.04581 18.4028 7.0542L18.688 7.01221C18.7538 7.00043 18.8246 6.99015 18.8823 6.98193C18.9474 6.97267 19.0059 6.96514 19.0679 6.95557C19.107 6.94951 19.1441 6.94122 19.1782 6.93506C19.3525 6.78071 19.5154 6.62867 19.6382 6.48975C19.7063 6.41271 19.7517 6.3526 19.7798 6.31104C19.8066 6.07702 19.8251 5.82689 19.8169 5.59326C19.8071 5.31592 19.7653 5.13341 19.7212 5.0376C19.6694 4.9252 19.625 4.80498 19.5952 4.7251C19.5607 4.63244 19.5349 4.5665 19.5083 4.50537C19.4836 4.44864 19.4659 4.41744 19.4575 4.40381C19.3355 4.31039 19.2046 4.21691 19.0903 4.14893C19.0496 4.1247 19.0168 4.10849 18.9937 4.09717C18.7827 4.08636 18.5119 4.08766 18.2485 4.10303C17.9353 4.12133 17.7208 4.15259 17.6548 4.16943C17.3608 4.2447 17.0952 4.29627 16.8433 4.396C16.8206 4.40499 16.8004 4.41502 16.7817 4.42334C16.7788 4.53997 16.7818 4.6897 16.7925 4.85889C16.7991 4.96334 16.8087 5.06335 16.8179 5.15088C16.8733 5.18178 16.91 5.20179 16.9448 5.22315C17.4151 5.51221 17.5627 6.12765 17.2739 6.59815C16.985 7.06865 16.3686 7.21598 15.898 6.92725C15.8815 6.91712 15.8743 6.91236 15.8628 6.90576C15.8506 6.89875 15.8297 6.8865 15.7925 6.8667C15.5125 6.72149 15.2145 6.54529 14.9907 6.38233L14.8521 6.29541C14.6634 6.19138 14.3266 6.05128 13.855 6.01416C13.7963 6.00955 13.7416 6.00416 13.7007 6.00049C13.6579 5.99665 13.6197 5.99354 13.5757 5.99072C13.4885 5.98514 13.3609 5.97992 13.1304 5.979C12.6586 5.97714 11.8844 5.96899 11.48 5.99463C10.9838 6.02615 10.703 6.05284 10.2622 6.16748C9.31719 6.41328 9.27703 6.3892 8.91065 6.58545C8.83129 6.62796 8.77594 6.66631 8.74366 6.69092C8.72752 6.70323 8.71805 6.71192 8.71534 6.71436C8.71135 6.71796 8.72171 6.70903 8.74073 6.68799C8.37044 7.09758 7.73734 7.1294 7.32764 6.75928C6.91834 6.38894 6.8863 5.75676 7.25635 5.34717C7.27481 5.32676 7.29676 5.30629 7.31983 5.28369C7.31748 5.28065 7.31551 5.27715 7.313 5.27393C7.26965 5.21841 7.21288 5.14908 7.14796 5.07568C7.02188 4.93319 6.89136 4.80649 6.78663 4.72315C6.72879 4.71026 6.63061 4.69785 6.43995 4.68506C5.81035 4.64282 5.24585 4.71933 4.96046 4.79346C4.81161 4.83216 4.74498 4.87748 4.70362 4.91162C4.64713 4.9583 4.59604 5.01704 4.48292 5.16162C4.48228 5.16359 4.48168 5.16612 4.48096 5.16846C4.46835 5.20949 4.45303 5.27837 4.43995 5.38232C4.41258 5.60012 4.40646 5.85214 4.39698 6.16358C4.39432 6.25114 4.40475 6.29078 4.41163 6.31397C4.41713 6.33245 4.42587 6.35636 4.44288 6.39893C4.45484 6.42884 4.48963 6.51212 4.51514 6.58154C4.54034 6.65008 4.58794 6.75576 4.65284 6.86865C4.70383 6.95735 4.75657 7.03078 4.80128 7.08643C4.80219 7.08682 4.80325 7.08804 4.80421 7.08838C4.85423 7.10619 4.92059 7.12116 5.00635 7.13721C5.04321 7.13982 5.0898 7.14228 5.12257 7.14209C5.12452 7.14164 5.12719 7.14165 5.1294 7.14111C5.6657 7.01069 6.20651 7.3393 6.33741 7.87549C6.35886 7.96354 6.36596 8.0517 6.36378 8.13818C6.4104 8.3267 6.40339 8.53038 6.33057 8.72608C6.29335 8.82601 6.27195 8.8721 6.14503 9.72803C6.03625 10.4616 5.86083 11.8869 5.7378 13.8149C5.61457 15.7464 5.55869 18.143 5.5337 19.4126C5.5212 20.0475 5.51711 20.369 5.5171 20.5366C5.51709 20.6206 5.51863 20.6537 5.51905 20.6626C5.57826 21.1976 5.20214 21.6863 4.66553 21.7622C4.11878 21.8393 3.6129 21.4584 3.53565 20.9116C3.51275 20.7492 3.50988 20.5838 3.5337 19.3735C3.55869 18.104 3.61539 15.6679 3.74171 13.688C3.86825 11.7048 4.04953 10.224 4.16651 9.43506C4.19088 9.27069 4.2124 9.12887 4.23194 9.0044C4.19886 8.99404 4.16499 8.98417 4.13135 8.97217C3.91807 8.89603 3.61339 8.7557 3.36378 8.48389C3.0201 8.10954 2.76265 7.61229 2.63721 7.271C2.59511 7.15702 2.37855 6.74175 2.39796 6.10303C2.40612 5.83476 2.41342 5.46747 2.45557 5.13232C2.49375 4.82887 2.58029 4.34973 2.8794 3.96533C2.99212 3.82047 3.1732 3.58117 3.42921 3.36963C3.70458 3.14212 4.03661 2.96713 4.45655 2.85791C4.95986 2.72705 5.74046 2.63404 6.57374 2.68994C6.89659 2.7116 7.36069 2.74295 7.78272 2.98389L7.96046 3.10108L8.15382 3.25733C8.34232 3.42106 8.51293 3.60007 8.646 3.75049C8.81894 3.94598 8.98199 4.15426 9.06983 4.29443C9.08972 4.32619 9.10664 4.35911 9.12257 4.39209C9.30945 4.34496 9.51472 4.29555 9.75928 4.23193C10.3816 4.07012 10.8088 4.0331 11.353 3.99854C11.8448 3.96733 12.7189 3.97735 13.1382 3.979C13.6715 3.98111 13.8205 4.00501 14.0112 4.02002C14.2961 4.04242 14.557 4.08878 14.7935 4.14795C14.8007 4.05703 14.8119 3.96796 14.8267 3.8833L14.8648 3.72119C14.9714 3.3576 15.2005 3.09952 15.4058 2.93213C15.6361 2.7443 15.8954 2.6204 16.1069 2.53662C16.515 2.37507 16.9994 2.27271 17.1587 2.23193C17.4223 2.16449 17.7987 2.12637 18.1314 2.10693ZM12.2808 9.85303C12.7566 9.88421 13.2564 9.96109 13.6323 10.063C14.0112 10.1658 14.2692 10.3873 14.4282 10.5151C14.7555 10.7785 15.0054 11.1329 15.1958 11.4634C15.3927 11.8052 15.5637 12.1883 15.7105 12.564C15.8955 13.0379 15.9475 13.4932 15.9917 13.8706C16.0946 14.7491 16.095 15.4631 16.0366 15.9028C15.992 16.2381 15.8592 16.5493 15.7261 16.8013C15.5878 17.063 15.414 17.3254 15.2358 17.5737C14.7678 18.2263 14.091 18.4489 13.7202 18.5854C13.3377 18.7263 12.8439 18.8053 12.3726 18.8579C11.3484 18.9721 10.5938 18.9353 10.2808 18.8657C9.96051 18.7945 9.68019 18.7171 9.19483 18.4224C8.33818 17.902 8.11491 16.9456 7.97608 16.4605C7.88406 16.1387 7.86092 15.7659 7.85499 15.4351C7.84877 15.0868 7.86142 14.6888 7.87647 14.2856C7.90357 13.5614 8.04788 13.083 8.11671 12.8188C8.25618 12.2834 8.37549 11.7338 8.81788 11.0894L8.93702 10.9351C9.23028 10.5974 9.62079 10.4039 9.88428 10.2905C10.2098 10.1505 10.5768 10.0405 10.7974 9.96924C10.8082 9.96578 10.8197 9.96355 10.8306 9.96045C11.2827 9.82477 11.844 9.82445 12.2808 9.85303ZM12.1499 11.8481C11.7498 11.822 11.4907 11.848 11.4067 11.8735C11.1215 11.9656 10.8868 12.0361 10.6743 12.1274C10.5741 12.1706 10.5072 12.2074 10.4663 12.2349C10.4601 12.239 10.4546 12.2427 10.4507 12.2456C10.2515 12.5426 10.201 12.7517 10.0523 13.3228C9.97797 13.6079 9.89229 13.8854 9.87452 14.3608C9.8593 14.7685 9.84891 15.1135 9.85401 15.3989C9.85942 15.7015 9.88284 15.8543 9.89893 15.9106C9.98843 16.2234 10.0447 16.4093 10.1148 16.5532C10.173 16.6729 10.2118 16.7005 10.2329 16.7134C10.3845 16.8054 10.4654 16.842 10.5122 16.8599C10.5582 16.8774 10.6003 16.888 10.7153 16.9136C10.6871 16.9073 10.7968 16.9285 11.0786 16.9312C11.3363 16.9336 11.6987 16.9201 12.1509 16.8696C12.6009 16.8194 12.8886 16.76 13.0288 16.7085C13.4803 16.5422 13.5527 16.4897 13.6108 16.4087C13.7624 16.1973 13.8785 16.0164 13.9575 15.8667C14.039 15.7124 14.0535 15.6421 14.0542 15.6392C14.0829 15.4233 14.0964 14.8898 14.0044 14.104C13.9573 13.7019 13.9257 13.4926 13.8472 13.2915C13.7213 12.9693 13.5917 12.6859 13.4624 12.4614C13.3269 12.2262 13.2242 12.1129 13.1743 12.0728C13.1282 12.0356 13.0962 12.0099 13.0698 11.9897C13.0656 11.9865 13.0616 11.9836 13.0581 11.981C12.8338 11.9253 12.4955 11.8708 12.1499 11.8481ZM12.2788 12.3501C12.8303 12.3248 13.2981 12.7518 13.3237 13.3032C13.3491 13.8547 12.923 14.3224 12.3716 14.3481C12.3076 14.3511 12.2321 14.3541 12.1655 14.356L12.1528 14.3569C12.1045 14.3577 12.0567 14.3613 11.9966 14.3706L11.9653 14.3745C11.9082 14.3815 11.8618 14.3874 11.8276 14.3911C11.8109 14.3929 11.7946 14.3947 11.7808 14.396C11.7742 14.3966 11.765 14.3972 11.7554 14.398C11.7507 14.3983 11.743 14.3993 11.7339 14.3999C11.7298 14.4002 11.7035 14.4018 11.6714 14.4019C11.1192 14.4019 10.6716 13.954 10.6714 13.4019C10.6717 12.8498 11.1193 12.4019 11.6714 12.4019C11.653 12.4019 11.6383 12.4016 11.6314 12.4019C11.6235 12.4022 11.6168 12.4026 11.6128 12.4028C11.6051 12.4033 11.5988 12.4045 11.5962 12.4048C11.5935 12.405 11.5913 12.4048 11.5903 12.4048C11.5928 12.4046 11.5995 12.4041 11.6108 12.4028C11.6343 12.4003 11.6717 12.3963 11.7222 12.3901V12.3911C11.8491 12.3726 11.9759 12.3605 12.1108 12.3579C12.1546 12.3567 12.2094 12.3533 12.2788 12.3501ZM8.39112 8.64404C8.94324 8.64404 9.39086 9.09198 9.39112 9.64404V9.65869L9.41456 9.93897C9.44596 10.4902 9.02443 10.9631 8.47315 10.9946C7.922 11.026 7.44916 10.6044 7.41749 10.0532C7.41395 9.9915 7.4111 9.95182 7.4087 9.92627C7.40746 9.91318 7.40612 9.90068 7.40479 9.88818C7.40368 9.87767 7.40163 9.85777 7.39991 9.83936C7.39138 9.74775 7.39112 9.68036 7.39112 9.64404C7.39138 9.0921 7.83916 8.64424 8.39112 8.64404ZM15.7437 8.47705C16.2525 8.47705 16.6719 8.85741 16.7349 9.34912C16.7345 9.34614 16.7342 9.34333 16.7339 9.34131C16.7345 9.34484 16.7359 9.34953 16.7368 9.35498L16.7564 9.47608L16.7593 9.49463L16.7612 9.51221C16.7641 9.53645 16.7664 9.56 16.7681 9.57764C16.7689 9.58676 16.77 9.6021 16.771 9.61279C16.9456 10.1043 16.7118 10.6534 16.2261 10.8638C15.7194 11.0832 15.1302 10.8509 14.9107 10.3442C14.8604 10.2281 14.8205 10.1044 14.7974 9.95361C14.7884 9.89487 14.7836 9.83881 14.7808 9.80811C14.7784 9.78264 14.7778 9.76877 14.7769 9.75928C14.7717 9.72628 14.7664 9.70056 14.7632 9.68115C14.7615 9.67125 14.7592 9.65662 14.7573 9.64502C14.7564 9.63928 14.7543 9.62668 14.7524 9.61279C14.7515 9.6057 14.7501 9.59229 14.7485 9.57666C14.7475 9.56602 14.7437 9.52663 14.7437 9.47705C14.7438 8.9249 15.1915 8.47708 15.7437 8.47705ZM16.7437 9.47705C16.7437 9.46202 16.7431 9.4489 16.7427 9.43897C16.7423 9.42894 16.7422 9.41965 16.7417 9.4126C16.7408 9.39908 16.7395 9.38779 16.7388 9.38037C16.7418 9.41212 16.7437 9.44451 16.7437 9.47705Z" fill="black"/>
</svg>
