<svg width="24" height="24" viewBox="0 0 24 24" fill="none" xmlns="http://www.w3.org/2000/svg">
<path d="M11.379 2.12496C11.9228 1.98406 12.3852 1.95646 12.8145 2.07222C13.0223 2.12831 13.1848 2.20882 13.3038 2.27437C13.358 2.30425 13.4124 2.3357 13.4444 2.35445C13.4818 2.37633 13.5047 2.38957 13.5235 2.39937C13.893 2.5921 14.1883 2.91417 14.3751 3.14839C14.5245 3.33586 14.6635 3.54197 14.7686 3.73238L14.8614 3.91695L14.8878 3.97359L14.9063 4.03316C14.9342 4.12209 14.9647 4.23824 14.9845 4.30953C14.9962 4.35192 15.0081 4.39536 15.0235 4.45015C15.0387 4.50416 15.0568 4.56703 15.0782 4.64449C15.1528 4.91438 15.108 5.1886 14.9776 5.41304C15.187 5.47121 15.412 5.53622 15.6163 5.60249C16.1061 5.76138 16.5082 5.93319 16.9288 6.18746C17.3396 6.43583 17.7365 6.74528 18.128 7.10835C18.5211 7.47299 18.9116 7.89504 19.2803 8.37105C19.6488 8.84672 19.9843 9.36464 20.2598 9.87007C20.5361 10.3769 20.738 10.8501 20.8702 11.1904C21.0999 11.782 21.1866 12.3121 21.2891 12.8486C21.3131 12.9739 21.3532 13.1311 21.4014 13.3056C21.4426 13.4543 21.5019 13.6568 21.5333 13.7968C21.5406 13.8296 21.5841 14.0046 21.5733 14.1953C21.5667 14.3111 21.5385 14.4917 21.4288 14.6796C21.3114 14.8805 21.1453 15.0146 20.9835 15.0947C20.7308 15.2197 20.4788 15.2136 20.4346 15.2138C20.3499 15.2143 20.245 15.2092 20.1749 15.206C19.8394 15.1909 19.1189 15.1664 18.4825 15.0927C17.829 15.0171 17.2913 14.8919 16.9757 14.8095C16.9447 14.8014 16.9143 14.7919 16.8839 14.7832C16.8523 14.9561 16.8188 15.1319 16.7794 15.3212L16.7716 15.3544C16.7749 15.3406 16.7729 15.3485 16.7618 15.4218C16.7536 15.4759 16.7385 15.5785 16.7227 15.6796C16.6885 15.8992 16.6374 16.1962 16.5528 16.5771C16.4568 17.0091 16.3156 17.5057 16.1417 17.9589C15.965 18.4194 15.7626 18.8193 15.5274 19.1933C15.2944 19.5639 15.0374 19.898 14.7569 20.2099C14.4729 20.5256 14.1677 20.8161 13.7647 21.1269C13.3846 21.42 12.9047 21.7425 12.5928 21.9111C12.4417 21.9928 12.257 22.0799 12.0557 22.1201C11.9433 22.1424 11.807 22.1543 11.6563 22.1328C11.4979 22.1101 11.3781 22.0582 11.3057 22.0214C11.1164 21.9252 10.7722 21.6888 10.2823 21.2294C9.96921 20.9358 9.62555 20.5661 9.16316 19.9052C8.71434 19.2637 8.15334 18.3496 7.73054 17.4902C7.3141 16.6435 7.02047 15.8707 6.88875 15.415C6.83119 15.2158 6.78918 15.0509 6.75691 14.914C6.6173 14.9225 6.46199 14.9353 6.28816 14.9433C5.91789 14.9605 5.43633 14.9776 4.97371 14.9589C4.54803 14.9417 3.99247 14.8915 3.55086 14.6972C3.00828 14.4585 2.68044 14.0353 2.55769 13.5429C2.45547 13.1324 2.51348 12.7314 2.54695 12.5156C2.62749 11.9964 2.75725 11.5381 3.03133 10.8896C3.29409 10.268 3.69323 9.45891 4.06355 8.83296C4.44299 8.19167 4.78979 7.74198 5.15633 7.35835C5.51352 6.98454 5.87258 6.68837 6.20125 6.46382C6.57177 6.21071 6.89448 6.05698 7.50984 5.85152C7.98175 5.69397 8.64759 5.49836 9.20125 5.34859C9.18328 5.24997 9.18004 5.14665 9.19343 5.04195C9.25364 4.57252 9.46051 3.93778 9.79207 3.37105C10.0057 3.00594 10.2558 2.7193 10.5509 2.50582C10.8472 2.29144 11.1395 2.18701 11.379 2.12496ZM10.0538 17.5791C10.3086 18.0147 10.5717 18.4297 10.8018 18.7587C11.1873 19.3098 11.4411 19.5741 11.6505 19.7705C11.7444 19.8585 11.8276 19.9326 11.8995 19.9941C12.0916 19.8708 12.3313 19.7069 12.544 19.5429C12.848 19.3085 13.0641 19.1014 13.2696 18.873C13.4786 18.6406 13.6656 18.3967 13.8341 18.1289C13.9231 17.9872 14.0055 17.8396 14.0831 17.6816C14.0586 17.6811 14.0351 17.6822 14.0128 17.6816C13.7241 17.6736 13.749 17.6646 13.0323 17.6494C12.3622 17.6351 11.0926 17.6181 10.3946 17.5947C10.2652 17.5903 10.1525 17.5839 10.0538 17.5791ZM14.9376 14.2998C14.8851 14.3128 14.8311 14.3236 14.7755 14.3281C14.6256 14.3403 14.5279 14.3432 13.5938 14.3701C12.6389 14.3976 10.8421 14.4481 9.94051 14.4736C9.05676 14.4986 9.02291 14.5 8.99715 14.5C8.91662 14.4999 8.83876 14.4887 8.76375 14.4707C8.74665 14.4796 8.73019 14.4886 8.71394 14.497C8.73553 14.5855 8.76493 14.7045 8.80965 14.8593C8.85756 15.0252 8.94748 15.2836 9.07527 15.6015C9.26249 15.5186 9.47697 15.492 9.69246 15.539C9.73475 15.5483 9.75975 15.5542 9.84285 15.5625C9.94483 15.5726 10.1244 15.5844 10.462 15.5957C11.1452 15.6185 12.3722 15.6354 13.0743 15.6503C13.7286 15.6643 13.9281 15.6787 14.0684 15.6826C14.2177 15.6867 14.439 15.6861 14.6925 15.6865C14.7144 15.566 14.7322 15.4617 14.7462 15.372C14.7621 15.2699 14.7719 15.2033 14.7843 15.122C14.7923 15.0688 14.8054 14.9896 14.8223 14.913H14.8214C14.8679 14.6896 14.9042 14.493 14.9376 14.2998ZM14.0948 7.24605C14.2419 7.73721 14.3243 8.05954 14.4864 8.52339C14.6345 8.9473 14.8966 9.663 15.1622 10.2363C15.4187 10.7899 15.6637 11.1825 15.9845 11.5644C16.3346 11.9812 16.7546 12.3849 16.9913 12.58C17.1704 12.7277 17.2406 12.7783 17.2882 12.8056C17.3163 12.8218 17.3558 12.8412 17.4815 12.874C17.7403 12.9415 18.1805 13.0439 18.712 13.1054C18.9061 13.1279 19.1109 13.1436 19.3106 13.1572C19.2041 12.5977 19.1493 12.2844 19.0059 11.915C18.8951 11.6296 18.7282 11.2384 18.504 10.8271C18.2787 10.4139 18.0004 9.98565 17.6983 9.59566C17.3967 9.20633 17.0804 8.86527 16.7677 8.57515C16.453 8.28331 16.1639 8.06178 15.8936 7.89839C15.6333 7.74109 15.3785 7.62789 14.9991 7.50484C14.7067 7.41002 14.3743 7.3206 14.0948 7.24605ZM11.1915 7.00484C10.8063 7.02247 10.5825 7.05736 10.0675 7.18843C9.50801 7.33081 8.67419 7.57185 8.14363 7.74898C7.64441 7.91565 7.50274 7.99663 7.32918 8.11519C7.11369 8.26243 6.8619 8.46884 6.60261 8.74019C6.35265 9.00181 6.09583 9.32659 5.78523 9.85152C5.46535 10.3922 5.10489 11.1196 4.87312 11.6679C4.65288 12.189 4.57521 12.489 4.52351 12.8222C4.51871 12.8532 4.51695 12.8814 4.51375 12.9062C4.6317 12.9281 4.8097 12.951 5.05476 12.9609C5.42555 12.9759 5.83388 12.962 6.19539 12.9453C6.90597 12.9124 7.26819 12.8754 7.46883 12.8515C7.58207 12.838 7.5711 12.8355 7.55086 12.8418C7.55406 12.8404 7.55924 12.8381 7.56648 12.8349C7.59061 12.8242 7.62724 12.8066 7.68953 12.7753C7.94042 12.6496 8.37132 12.4193 8.7198 12.1816C9.04306 11.961 9.2995 11.7294 9.60847 11.3886C9.92974 11.0342 10.2773 10.5939 10.4903 10.2871C10.7618 9.89586 10.853 9.60017 10.9493 9.28902C10.9517 9.28145 10.9541 9.27682 10.961 9.2275C10.9715 9.1525 10.9814 9.05221 11.0069 8.83199C11.0546 8.42005 11.1366 7.7103 11.1807 7.1689C11.1853 7.11235 11.1877 7.05745 11.1915 7.00484ZM12.8565 9.88765C12.7473 10.2407 12.5845 10.7773 12.1339 11.4267C11.9301 11.7202 11.6441 12.0886 11.3516 12.4326C12.1365 12.4104 12.9795 12.3871 13.5362 12.371C13.7607 12.3646 13.9347 12.3566 14.0704 12.3525C13.7984 11.9644 13.5685 11.5536 13.3477 11.0771C13.1694 10.6922 12.9992 10.264 12.8565 9.88765ZM12.2237 4.00093C12.1615 4.00359 12.0535 4.01677 11.8809 4.06148C11.7918 4.08458 11.7529 4.10411 11.7227 4.12593C11.6912 4.14881 11.618 4.21108 11.5186 4.38082C11.3937 4.5943 11.3059 4.81842 11.2491 5.00191C11.5113 4.99306 11.8083 4.98963 12.0811 4.98921C12.2178 4.94949 12.3333 4.94051 12.3995 4.93941C12.4966 4.93781 12.5912 4.94772 12.627 4.95113C12.7951 4.96708 12.9553 4.98713 13.1016 5.00484C13.1005 5.00072 13.0998 4.99618 13.0987 4.99214C13.0841 4.94023 13.07 4.89086 13.0567 4.84273C13.0405 4.78429 13.0281 4.74128 13.0186 4.70699C12.9805 4.63699 12.9087 4.51747 12.8106 4.39449C12.7532 4.32254 12.6982 4.26241 12.6514 4.21871C12.6011 4.17166 12.5825 4.16433 12.5987 4.17281C12.5342 4.13916 12.4768 4.1051 12.4356 4.08101C12.3889 4.05371 12.3646 4.03948 12.3389 4.02535C12.3171 4.01333 12.3049 4.0084 12.2989 4.00582C12.2963 4.0047 12.2946 4.00408 12.294 4.00386L12.293 4.00289H12.2911C12.2895 4.00257 12.2859 4.00141 12.2813 4.00093C12.2719 3.99999 12.2533 3.99968 12.2237 4.00093Z" fill="black"/>
</svg>
