<svg width="24" height="24" viewBox="0 0 24 24" fill="none" xmlns="http://www.w3.org/2000/svg">
<path d="M10.3847 1.24609C11.1632 0.873632 12.0858 0.99064 12.8954 1.15625C13.6207 1.30472 14.1403 1.65829 14.4306 1.86719C14.8469 2.16686 15.1288 2.54137 15.2812 2.74609C15.6033 3.17927 15.7837 3.74581 15.8886 4.13965C15.9394 4.33036 15.9867 4.54568 16.0234 4.71973L16.0927 5.05567L16.1083 5.12598L16.1142 5.19824C16.139 5.50162 16.1459 5.7891 16.1366 6.0293C16.1321 6.14851 16.1237 6.2684 16.1083 6.37891C16.1064 6.39291 16.1015 6.40923 16.0986 6.42774C16.6615 6.67214 16.8694 6.7673 17.0693 6.8916C17.3915 7.09208 17.8491 7.4996 18.2831 8.08203C18.4837 8.35125 18.693 8.66833 18.8954 9.04297C18.9943 9.00791 19.1114 8.96575 19.2265 8.91992C19.324 8.88111 19.4129 8.8435 19.4843 8.81055C19.5658 8.77295 19.5904 8.75681 19.58 8.76367C19.718 8.67271 19.8467 8.55819 19.9755 8.37305C19.9555 8.40188 19.9982 8.34797 20.0429 8.04297C20.0846 7.75815 20.1064 7.4441 20.1523 6.98731C20.1785 5.77025 20.1634 5.65505 20.1591 5.61133L20.1572 5.5957L20.1562 5.58008C20.1499 5.4843 20.1503 5.39417 20.1503 5.34082C20.1503 4.78859 20.5981 4.34091 21.1503 4.34082C21.7025 4.34094 22.1503 4.78861 22.1503 5.34082C22.1503 5.3993 22.1493 5.42476 22.1503 5.44336C22.1668 5.62547 22.1777 5.89631 22.1523 7.06445L22.1513 7.10449L22.1464 7.14356C22.1067 7.53345 22.0736 7.98303 22.0224 8.33301C21.9728 8.67122 21.8827 9.13271 21.6171 9.51465C21.3345 9.9209 21.0182 10.2111 20.6806 10.4336C20.4744 10.5694 20.1704 10.6968 19.9657 10.7783C19.8499 10.8244 19.732 10.8682 19.624 10.9072C19.6598 11.045 19.6943 11.1865 19.7265 11.334C19.8175 11.7509 19.8966 12.2269 19.9316 12.8193C19.9507 12.8165 19.9718 12.8138 19.9941 12.8105C20.1385 12.7893 20.3478 12.759 20.6083 12.7188C20.7938 12.687 20.8672 12.6663 20.955 12.6465C21.0952 12.6148 21.1927 12.6042 21.373 12.5869C21.9224 12.5344 22.4108 12.937 22.4638 13.4863C22.5165 14.0359 22.1138 14.5241 21.5644 14.5771C21.4785 14.5854 21.4422 14.5901 21.4228 14.5928C21.4173 14.5935 21.4142 14.5936 21.413 14.5938C21.4118 14.594 21.4074 14.5952 21.3964 14.5977C21.3326 14.6121 21.1967 14.6466 20.9462 14.6895L20.9384 14.6904L20.9306 14.6924C20.6578 14.7346 20.4377 14.7666 20.2851 14.7891C20.2091 14.8002 20.1486 14.8095 20.1064 14.8154C20.0859 14.8183 20.0681 14.8205 20.0546 14.8223C20.0483 14.8231 20.0397 14.8243 20.0322 14.8252C20.0287 14.8256 20.0214 14.8272 20.0136 14.8281C20.0097 14.8286 20.0017 14.8292 19.9921 14.8301C19.9871 14.8305 19.9776 14.8313 19.9667 14.832C19.9589 14.8325 19.9343 14.834 19.9032 14.834L19.9023 14.833C19.8957 14.9279 19.8903 15.016 19.8837 15.0947C19.8382 15.641 19.7875 15.8606 19.6269 16.3477C19.582 16.4837 19.5227 16.6467 19.4609 16.8242C19.6989 16.9018 20.0096 17.0066 20.3935 17.1475C20.6871 17.2552 20.9536 17.4168 21.1982 17.6787C21.361 17.8532 21.4989 18.0575 21.6269 18.2773L21.7529 18.502L21.7978 18.5869L21.8261 18.6777C22.1856 19.8322 22.2456 20.5278 22.2753 20.9004L22.3017 21.2383C22.3414 21.7888 21.9274 22.2674 21.3769 22.3076C20.8261 22.3476 20.3466 21.9336 20.3066 21.3828C20.2916 21.1772 20.2913 21.1582 20.288 21.1299L20.2861 21.1123L20.2851 21.0947C20.2635 20.8238 20.2289 20.3085 19.9462 19.373C19.8299 19.1633 19.7686 19.0776 19.7363 19.043C19.7329 19.0394 19.7303 19.0368 19.7284 19.0352C19.725 19.0335 19.7173 19.0302 19.704 19.0254C19.2601 18.8625 18.9295 18.7542 18.6923 18.6787C18.5666 18.901 18.4289 19.1086 18.2529 19.3486C17.9641 19.7423 17.5203 20.3325 17.1884 20.6777C16.7031 21.1825 16.1774 21.5109 15.4023 21.874C14.9772 22.0732 14.4481 22.2994 14.0654 22.4385C13.8661 22.5109 13.6678 22.5741 13.4257 22.6143C13.1938 22.6527 12.9543 22.6639 12.6747 22.667C12.1191 22.6732 11.2385 22.648 10.5234 22.5732C9.83004 22.5008 9.25283 22.3966 8.83391 22.251C8.35542 22.0846 7.98594 21.9284 7.65813 21.6689C7.33805 21.4156 6.8755 20.9966 6.36321 20.3496C6.12547 20.0493 5.79365 19.6239 5.58684 19.2363C5.43319 18.9483 5.30562 18.6845 5.18841 18.3799C5.05619 18.4055 4.91482 18.4339 4.7763 18.4639C4.60761 18.5004 4.45086 18.5364 4.32415 18.5703C4.31065 18.5739 4.29798 18.5778 4.28606 18.5811C4.26156 18.6477 4.23452 18.7307 4.19915 18.8408C4.12014 19.0868 4.03142 19.6077 3.93938 20.1123C3.82992 20.8123 3.81012 21.0956 3.80755 21.209V21.2227C3.80302 21.3449 3.79339 21.5059 3.78508 21.6572C3.75481 22.2086 3.28374 22.6318 2.73235 22.6016C2.18094 22.5713 1.75879 22.0993 1.78899 21.5479C1.79766 21.3897 1.8048 21.2498 1.80852 21.1494H1.8095C1.81624 20.8991 1.8531 20.5116 1.9638 19.8037L1.96575 19.791L1.96868 19.7783C2.04084 19.3839 2.16214 18.6416 2.29485 18.2285C2.36545 18.0088 2.45177 17.743 2.57219 17.5176C2.71063 17.2586 2.93204 16.9775 3.30462 16.8076L3.53606 16.7188C3.79205 16.6341 4.10768 16.5618 4.35247 16.5088C4.45445 16.4867 4.55805 16.4665 4.65911 16.4463C4.55934 15.9867 4.46025 15.4686 4.39641 14.9697C4.38631 14.8907 4.37746 14.8122 4.36907 14.7344C4.34455 14.7352 4.31916 14.7364 4.2929 14.7373C3.979 14.7478 3.53147 14.7616 2.99016 14.7764H2.98528C2.78701 14.7809 2.66689 14.7827 2.58782 14.7832H2.48235C2.48421 14.783 2.48594 14.7823 2.48626 14.7822L2.45696 14.7871C1.91095 14.8696 1.40184 14.4933 1.31926 13.9473C1.23699 13.4014 1.61223 12.8921 2.15813 12.8096C2.2038 12.8027 2.29938 12.7875 2.4218 12.7842C2.44954 12.7834 2.47651 12.7833 2.49602 12.7832C2.5175 12.7832 2.54104 12.7834 2.57415 12.7832C2.63992 12.7828 2.74805 12.7816 2.93548 12.7773V12.7764C3.47457 12.7617 3.91727 12.7486 4.22551 12.7383C4.27249 12.7367 4.31613 12.7348 4.35637 12.7334C4.366 12.647 4.37708 12.5614 4.38958 12.4766C4.46179 11.9864 4.57763 11.5433 4.72649 11.123C4.6817 11.1022 4.63845 11.0838 4.60247 11.0645C4.48642 11.002 4.34725 10.9173 4.19622 10.8223C3.88961 10.6293 3.4752 10.3529 2.98333 10.0146C2.433 9.63612 2.06039 9.29524 1.80559 8.93848C1.54399 8.57194 1.44658 8.23242 1.39153 8.07324L1.37005 8.00977L1.35637 7.94434C1.2675 7.50578 1.23333 6.79649 1.43548 6.10352L1.44817 6.06055L1.47942 5.97852C1.48005 5.97639 1.48156 5.96963 1.48626 5.94727C1.59968 5.40675 2.13031 5.06041 2.67083 5.17383C3.21079 5.28761 3.55653 5.81726 3.44329 6.35742C3.42074 6.46482 3.39347 6.55855 3.35344 6.66992C3.26906 6.96435 3.27805 7.30082 3.3095 7.49902C3.3651 7.66019 3.37987 7.70119 3.43352 7.77637C3.50254 7.87288 3.67058 8.06007 4.11712 8.36719C4.60138 8.70025 4.98867 8.95872 5.26067 9.12988C5.31738 9.16555 5.36869 9.19418 5.41106 9.21973C5.47929 9.22675 5.54631 9.24257 5.61223 9.26367C5.70918 9.09514 5.80199 8.93963 5.88665 8.80274C6.16605 8.35091 6.37832 8.05938 6.83977 7.57031C7.2223 7.16491 7.79847 6.58375 8.21184 6.20703C8.15703 6.07075 8.10818 5.92741 8.06633 5.78711C7.9688 5.45999 7.8823 5.06384 7.83977 4.6416C7.81044 4.34987 7.87682 4.08317 7.9345 3.90332C7.99717 3.70809 8.08306 3.51681 8.16985 3.34668C8.34376 3.00586 8.56461 2.66385 8.74407 2.40039C9.04279 1.96201 9.44711 1.69546 9.75188 1.5332C9.90835 1.44993 10.0558 1.38474 10.1689 1.33692C10.3048 1.27946 10.3466 1.2643 10.3847 1.24609ZM12.4755 7.08106C12.4162 7.06163 11.7212 6.80483 10.6874 6.99805C10.331 7.06467 10.2045 7.13342 10.1366 7.17774C10.0927 7.20645 10.0431 7.24548 9.9638 7.31641C9.92278 7.35308 9.88175 7.39214 9.82708 7.44238C9.77458 7.49062 9.71292 7.54603 9.64544 7.60547C9.29985 7.90995 8.6999 8.51207 8.29387 8.94238C7.93041 9.3276 7.80017 9.51111 7.58782 9.85449C7.35481 10.2313 7.06267 10.7429 6.83001 11.2549C6.60363 11.7531 6.44831 12.2233 6.36809 12.7676C6.28717 13.3169 6.28372 13.9582 6.38079 14.7168C6.47928 15.4862 6.67982 16.3453 6.81926 16.8955C6.98819 17.5619 7.12653 17.8751 7.35051 18.2949C7.45798 18.4963 7.67274 18.7815 7.93157 19.1084C8.34007 19.6243 8.69019 19.936 8.89934 20.1016C8.95016 20.1417 9.05151 20.2087 9.49016 20.3613C9.69071 20.4311 10.0878 20.5167 10.7314 20.584C11.353 20.6489 12.1542 20.6735 12.6523 20.668C12.899 20.6652 13.0176 20.6548 13.0976 20.6416C13.167 20.6301 13.236 20.6119 13.3827 20.5586C13.6925 20.446 14.1635 20.2453 14.5536 20.0625C15.2111 19.7545 15.496 19.552 15.746 19.292C15.9699 19.0591 16.3363 18.5785 16.6396 18.165C16.8945 17.8175 17.0139 17.6163 17.1806 17.2197C17.3654 16.78 17.5916 16.1336 17.7275 15.7217C17.8434 15.3703 17.8592 15.3048 17.8906 14.9287C17.9274 14.4865 17.9674 13.7523 17.9491 13.1582C17.9316 12.588 17.8587 12.1552 17.7724 11.7598C17.6852 11.3606 17.5931 11.0438 17.4745 10.7324C17.2329 10.0975 16.9444 9.63279 16.6796 9.27734C16.362 8.85109 16.0805 8.63204 16.0126 8.58984C15.954 8.55336 15.8907 8.51676 15.1913 8.21387C14.5058 7.91698 13.3143 7.32241 12.5107 7.0918C12.5044 7.08999 12.4984 7.08688 12.4921 7.08496C12.4867 7.0833 12.4809 7.08282 12.4755 7.08106ZM12.4941 3.11621C11.6773 2.94917 11.3658 2.9942 11.249 3.04981C11.1554 3.09458 11.0169 3.15064 10.9482 3.17969C10.856 3.21866 10.7708 3.25656 10.6913 3.29883C10.5241 3.38787 10.4371 3.46688 10.3964 3.52637C10.2347 3.76382 10.0685 4.02575 9.9511 4.25586C9.893 4.36978 9.85722 4.45579 9.8388 4.5127C9.86448 4.72842 9.90833 4.9339 9.95598 5.11231C10.0704 5.08241 10.1914 5.0563 10.3202 5.03223C11.0806 4.89013 11.7312 4.91238 12.2167 4.97852C12.4593 5.01158 12.661 5.05555 12.8144 5.0957C12.891 5.11578 12.9553 5.13464 13.0058 5.15039C13.0259 5.15668 13.0462 5.16362 13.0624 5.16895L13.4452 5.29199C13.6646 5.36853 13.8969 5.45922 14.1298 5.55469C14.1273 5.50729 14.1267 5.45784 14.123 5.40723C14.0773 5.19124 14.0428 4.98141 13.956 4.65527C13.8596 4.29352 13.7561 4.04631 13.6767 3.93945C13.5322 3.74523 13.4067 3.59407 13.2626 3.49024C13.0355 3.3268 12.7952 3.1779 12.4941 3.11621Z" fill="black"/>
</svg>
