<svg width="24" height="24" viewBox="0 0 24 24" fill="none" xmlns="http://www.w3.org/2000/svg">
<path d="M18.8804 12.2889C19.192 12.3059 19.5353 12.3519 19.8921 12.4227L20.2535 12.5018L20.3921 12.534L20.5162 12.6053C20.9113 12.83 21.4349 13.1051 21.7876 13.8533C21.9233 14.1411 22.0755 14.467 22.1929 14.7811C22.3055 15.0822 22.4212 15.4621 22.4263 15.8494C22.4324 16.3112 22.4153 16.824 22.3394 17.2791C22.3014 17.5065 22.244 17.7505 22.1509 17.9793C22.0615 18.1991 21.909 18.4808 21.6382 18.698C21.5621 18.7591 21.4037 18.8869 21.1724 18.9842C20.9385 19.0825 20.685 19.1291 20.4078 19.1346C20.0661 19.1413 19.7065 19.1451 19.3804 19.1385C19.3801 19.1459 19.3808 19.1535 19.3804 19.1609C19.3591 19.545 19.3282 20.2608 18.982 20.9295C18.7415 21.3939 18.4404 21.8472 18.0953 22.1893C17.9802 22.3032 17.7904 22.4714 17.522 22.5857C17.2339 22.7082 16.9127 22.7447 16.5767 22.6805C16.1578 22.6004 15.6874 22.4863 15.2593 22.3221C14.8604 22.1689 14.3578 21.9212 14.0191 21.4969C13.7161 21.1173 13.2303 20.3278 13.2076 19.1873C13.1866 18.135 13.1774 17.4615 13.1773 17.4383C13.1773 16.8861 13.6252 16.4385 14.1773 16.4383C14.7296 16.4383 15.1773 16.886 15.1773 17.4383C15.1775 17.453 15.1858 18.1003 15.2066 19.1473C15.218 19.7186 15.4603 20.0957 15.5826 20.2488C15.5845 20.2506 15.6774 20.3402 15.9761 20.4549C16.2029 20.5419 16.477 20.6155 16.7681 20.6775C16.9011 20.5237 17.0572 20.298 17.2066 20.0096C17.3284 19.7741 17.3596 19.4778 17.3833 19.0506C17.3957 18.8278 17.3691 18.6846 17.3482 18.6043C17.3367 18.5602 17.3251 18.5268 17.3081 18.4773C17.3026 18.4613 17.2836 18.4084 17.2691 18.3553C17.2613 18.3267 17.2488 18.2748 17.2398 18.2107C17.2319 18.1546 17.2179 18.0304 17.2456 17.8777L17.2671 17.7859C17.3257 17.5741 17.4503 17.3783 17.6353 17.2352C17.8223 17.0906 18.0138 17.0432 18.1255 17.0252C18.3303 16.9923 18.5127 17.0233 18.5747 17.034C18.6588 17.0484 18.7452 17.069 18.7955 17.0809C18.8579 17.0956 18.8951 17.1043 18.9263 17.1102C19.0944 17.1416 19.5818 17.1486 20.3267 17.1346C20.3394 17.0874 20.3539 17.0259 20.3667 16.949C20.4142 16.6643 20.4317 16.2876 20.4263 15.8758C20.4258 15.8389 20.4079 15.7193 20.3189 15.4812C20.2346 15.256 20.1175 15.0017 19.9781 14.7059C19.9333 14.6109 19.9026 14.5814 19.8765 14.5594C19.8337 14.5232 19.778 14.4893 19.6529 14.4168C19.3103 14.3417 19.009 14.299 18.771 14.2859C18.5713 14.2751 18.4656 14.2871 18.4292 14.2918C18.1892 14.4226 17.8033 14.6533 17.3658 14.9197C16.8942 15.2063 16.2789 15.057 15.9917 14.5857C15.7047 14.1142 15.8543 13.4981 16.3257 13.2107C16.7901 12.928 17.2726 12.6377 17.5738 12.4803L17.6099 12.4617L17.647 12.4461C18.0372 12.2811 18.5028 12.2683 18.8804 12.2889ZM15.5113 1.4959C16.8428 1.40459 17.8716 1.96319 18.021 2.02227C18.7469 2.30927 19.1529 2.93247 19.3365 3.31719C19.4855 3.62971 19.5321 3.94077 19.5347 4.20879C19.6907 4.19801 19.8361 4.18517 19.9683 4.1707C20.1154 4.1546 20.3141 4.13036 20.4302 4.11895C20.4957 4.11252 20.5793 4.10533 20.6617 4.1043C20.7078 4.1037 20.9018 4.09841 21.1089 4.17559C21.8263 4.44346 22.2563 5.08922 22.4595 5.3875C22.733 5.78903 22.7859 6.30327 22.8013 6.6209C22.8195 6.9973 22.793 7.40088 22.7505 7.75176C22.6081 8.92788 21.5563 9.54325 21.4742 9.60918C21.2237 9.81042 20.9446 9.95909 20.5718 10.0418C20.2462 10.114 19.872 10.13 19.44 10.1277C18.9815 10.1253 18.6102 10.0496 18.2671 9.89434C18.2299 9.87747 18.1933 9.85656 18.1568 9.8377C18.0578 9.96663 17.9397 10.1152 17.7984 10.2742C17.3095 10.8244 16.3448 11.9378 15.6177 12.7098C14.8653 13.5086 14.3614 13.9532 13.5943 14.492C12.8677 15.0024 11.8917 15.6041 11.3814 15.9305C11.3473 15.9523 11.3165 15.9733 11.2876 15.992C11.2953 16.0157 11.3018 16.0419 11.3111 16.0691C11.3699 16.2425 11.4927 16.5714 11.5249 16.9402C11.5626 17.3722 11.5587 18.0811 11.5347 18.5486C11.4911 19.399 11.2608 19.8885 11.1011 20.2117C10.8767 20.6658 10.5018 21.0228 10.19 21.2723C9.86222 21.5344 9.51208 21.7495 9.23979 21.9012C8.81319 22.1387 8.35524 22.1979 7.96537 22.1941C7.57358 22.1903 7.18159 22.1221 6.83744 22.0447C6.05573 21.8688 5.47549 21.4335 5.15971 21.1355C4.82563 20.8203 4.62096 20.4428 4.49076 20.0984C4.45821 20.1113 4.42584 20.1268 4.39213 20.1375C3.75806 20.3387 3.21546 20.053 2.94584 19.8787C2.65315 19.6895 2.38043 19.4306 2.21244 19.2752C1.95446 19.0365 1.80715 18.6938 1.72612 18.4949C1.62443 18.2454 1.52306 17.9414 1.4224 17.615C1.21452 16.9409 1.2067 16.2614 1.20072 15.783C1.19655 15.4491 1.2378 15.1447 1.34916 14.826C1.45174 14.5324 1.60284 14.2607 1.76127 13.9939C2.06485 13.4829 2.56737 13.1479 2.93412 12.9441C3.32696 12.7259 3.72458 12.5728 3.95561 12.4861C4.20863 12.3913 4.47355 12.3639 4.67826 12.3523C4.89437 12.3402 5.13357 12.3429 5.36479 12.3475C5.78719 12.3559 6.22238 12.456 6.55717 12.5437C6.62465 12.466 6.70896 12.3696 6.80033 12.2674C7.15 11.8763 7.69707 11.4322 8.7017 10.6658C9.73818 9.87513 11.3374 8.71597 12.358 8.01348C12.7709 7.72922 13.085 7.52505 13.3277 7.37187C13.0832 7.06363 12.819 6.70269 12.6265 6.37773C12.3721 5.94824 12.3188 5.48197 12.314 5.14043C12.3091 4.79096 12.3559 4.45332 12.3843 4.24102C12.4305 3.89671 12.5763 3.58915 12.6988 3.36406C12.8261 3.13003 12.9872 2.88133 13.1265 2.66387C13.3965 2.24229 13.7264 2.00558 13.9439 1.87187L14.0835 1.7957C14.4278 1.62853 14.9003 1.53784 15.5113 1.4959ZM15.648 3.49102C15.353 3.51127 15.1648 3.54211 15.0533 3.56816C15.0114 3.57795 14.9843 3.58663 14.9693 3.5916C14.9034 3.6343 14.8533 3.67704 14.8111 3.74297C14.6557 3.98562 14.5407 4.16279 14.4556 4.31914C14.3658 4.48417 14.3633 4.53188 14.3667 4.50664C14.3363 4.7342 14.3115 4.93131 14.314 5.11211C14.3165 5.28812 14.3452 5.35336 14.3472 5.3582C14.6139 5.80839 15.125 6.42305 15.3023 6.61113C15.4857 6.67898 15.6519 6.80139 15.773 6.97344C16.0904 7.42503 15.9813 8.04924 15.5298 8.36699C15.3959 8.46125 15.3007 8.53306 15.0288 8.68633C14.8191 8.80458 14.4662 8.99013 13.4917 9.66094C12.4987 10.3445 10.9259 11.4852 9.91459 12.2566C8.87197 13.052 8.48998 13.3785 8.29154 13.6004C8.13526 13.7752 7.91524 14.0392 7.76518 14.1873C7.65863 14.2925 7.18572 14.7728 6.49858 14.5965C5.99904 14.4682 5.67162 14.3534 5.32572 14.3465C5.09425 14.3419 4.92292 14.342 4.79057 14.3494C4.6713 14.3561 4.63534 14.3668 4.64604 14.3631C4.43095 14.4439 4.15655 14.5538 3.9058 14.6932C3.62425 14.8496 3.50707 14.9715 3.481 15.0154C3.33007 15.2695 3.26862 15.3952 3.23686 15.4861C3.21399 15.5517 3.19903 15.6197 3.20072 15.7576C3.20702 16.2612 3.22235 16.6644 3.33354 17.0252C3.43059 17.3399 3.51045 17.576 3.57768 17.741C3.60105 17.7983 3.62122 17.8377 3.63432 17.8641C3.70671 17.9309 3.77143 17.9918 3.83647 18.0477C3.87101 18.0773 3.90296 18.1026 3.93119 18.1248C4.00927 18.0696 4.08639 18.0139 4.19779 17.9344C4.29266 17.8666 4.49318 17.7222 4.70072 17.6395C4.77432 17.6101 5.08793 17.4842 5.46049 17.6004C5.68667 17.671 5.88832 17.8176 6.02494 18.0242C6.11779 18.1649 6.16265 18.3047 6.18412 18.4168L6.19877 18.5184L6.23588 18.8611C6.25193 18.9785 6.27406 19.0987 6.30619 19.2195C6.37178 19.466 6.45595 19.6099 6.53178 19.6814C6.69101 19.8317 6.96276 20.0229 7.2769 20.0936C7.56231 20.1577 7.79714 20.1923 7.9849 20.1941C8.17435 20.1959 8.25018 20.1635 8.26713 20.1541C8.48244 20.0342 8.7296 19.8798 8.94096 19.7107C9.16827 19.5289 9.2757 19.3916 9.30815 19.326C9.36897 19.2029 9.41318 19.1097 9.45072 18.9881C9.48767 18.8682 9.52476 18.6973 9.53764 18.4461C9.55921 18.0248 9.55922 17.4177 9.53276 17.1141C9.52591 17.0361 9.50106 16.9582 9.41752 16.7117C9.3447 16.4969 9.23145 16.1604 9.2144 15.7527C9.20838 15.6085 9.2211 15.4124 9.30912 15.199C9.39415 14.9929 9.52001 14.8437 9.62748 14.7391C9.80745 14.5639 10.065 14.3979 10.3042 14.2449C10.8637 13.8871 11.7657 13.3323 12.4449 12.8553C13.0837 12.4066 13.4862 12.0558 14.1617 11.3387C14.8623 10.5948 15.7833 9.5313 16.3033 8.94609C16.5412 8.67831 16.6781 8.47619 16.8238 8.27715C16.8878 8.18972 16.9872 8.05562 17.108 7.93828C17.2394 7.81054 17.4538 7.64382 17.7632 7.57891C17.9808 7.53336 18.171 7.56597 18.3052 7.61016C18.4221 7.64872 18.5085 7.70041 18.5415 7.72051C18.5781 7.74278 18.6125 7.76672 18.6236 7.77422C18.6409 7.78597 18.652 7.79238 18.6646 7.80059C18.7232 7.83886 18.778 7.87621 18.8238 7.90703C18.8718 7.93934 18.9101 7.96504 18.9458 7.98809C19.0153 8.03288 19.0575 8.05669 19.0913 8.07207C19.1368 8.09265 19.2234 8.12653 19.4507 8.12773C19.8582 8.12987 20.0444 8.10969 20.1392 8.08867C20.1586 8.08435 20.1711 8.08104 20.1773 8.07891C20.1829 8.07695 20.1855 8.0753 20.1861 8.075C20.1869 8.07459 20.1891 8.07361 20.1929 8.07109C20.1977 8.06792 20.2069 8.06115 20.2212 8.04961C20.2713 8.00938 20.3239 7.97085 20.3638 7.94121C20.4083 7.9082 20.4444 7.88123 20.482 7.85234C20.5555 7.79586 20.6114 7.74864 20.6558 7.70293C20.7379 7.61846 20.7587 7.56452 20.7652 7.51152C20.7988 7.23326 20.8144 6.9481 20.8033 6.71758C20.7977 6.60256 20.7861 6.52076 20.7749 6.47051C20.7747 6.46921 20.7743 6.46781 20.774 6.4666C20.6793 6.32961 20.6032 6.22737 20.5288 6.14922C20.5191 6.13895 20.5081 6.13115 20.4996 6.12285C20.4197 6.13216 20.3258 6.14369 20.1861 6.15898C19.7984 6.20142 19.2557 6.24837 18.6294 6.22246C18.4963 6.21693 18.3276 6.19955 18.1568 6.14238C17.9813 6.08361 17.7216 5.95391 17.5425 5.66973C17.3613 5.38204 17.3647 5.09737 17.3814 4.94902C17.3897 4.87505 17.4035 4.81429 17.4117 4.78105C17.4159 4.76367 17.42 4.74814 17.4224 4.73906C17.4258 4.72638 17.4261 4.72711 17.4273 4.72246C17.4386 4.67977 17.4529 4.6321 17.4615 4.60332C17.4718 4.56848 17.481 4.53705 17.4898 4.50469C17.5074 4.43982 17.521 4.3796 17.5288 4.32402C17.5461 4.20161 17.5267 4.16786 17.5318 4.17852C17.4981 4.10787 17.4496 4.03115 17.3951 3.97051C17.341 3.91045 17.3016 3.88896 17.2857 3.88262C16.9118 3.73481 16.4112 3.43867 15.648 3.49102ZM7.56498 1.26348C7.99362 1.18092 8.56151 1.13958 9.10404 1.39238C9.5736 1.61133 10.287 2.15715 10.8833 2.9334C10.9986 3.08347 11.1377 3.2651 11.2398 3.44609C11.3584 3.65637 11.4614 3.92269 11.4576 4.25078C11.4483 5.03031 11.2108 5.79165 10.8101 6.44805C10.5223 6.9194 9.90646 7.06888 9.4351 6.78105C8.96389 6.49318 8.81528 5.87735 9.10307 5.40605C9.30632 5.07314 9.42351 4.71019 9.45072 4.35918C9.44748 4.35453 9.44465 4.3487 9.44096 4.34355C9.40511 4.29359 9.35921 4.2329 9.29643 4.15117C8.85933 3.58238 8.38693 3.26482 8.25834 3.20488C8.2785 3.21428 8.21174 3.17579 7.94389 3.22734C7.71592 3.27125 7.45024 3.35905 7.12162 3.47637C7.11906 3.48635 7.11568 3.49777 7.11283 3.51055C7.09164 3.60627 7.07487 3.73567 7.06694 3.8875C7.05116 4.19018 7.07339 4.48885 7.10307 4.65215C7.10495 4.65935 7.1075 4.66693 7.10893 4.67266C7.11417 4.69414 7.13422 4.77654 7.1392 4.88066C7.14416 4.98507 7.13991 5.2063 7.00541 5.44023C6.70252 5.96668 6.14637 5.95202 6.10697 5.95195C5.98605 5.952 5.87727 5.93173 5.83451 5.92363C5.54805 5.86936 5.26629 5.79827 5.0474 5.74492C4.80728 5.6864 4.65107 5.65157 4.53764 5.63848C3.96107 5.57194 3.62717 5.66484 3.45658 5.74004C3.45128 5.75414 3.4452 5.77012 3.43901 5.78789C3.41907 5.84518 3.39779 5.91291 3.37358 5.99395C3.32119 6.16924 3.26788 6.52306 3.27787 6.95488C3.28499 7.26083 3.4186 7.49255 4.00736 7.96562C4.41913 8.29635 4.8636 8.45017 5.20756 8.52227C5.70662 8.54201 6.02094 8.53839 6.21244 8.5252C6.5436 8.18926 7.07751 8.12616 7.48295 8.39922C7.94081 8.70782 8.06185 9.32897 7.75346 9.78691C7.62812 9.97288 7.49944 10.1384 7.27494 10.2811L7.25151 10.2967L7.22709 10.3094C6.95713 10.4605 6.63337 10.5012 6.37065 10.5203C6.06128 10.5429 5.63428 10.5449 5.04154 10.5193L4.97123 10.5164L4.90092 10.5037C4.32519 10.3958 3.51726 10.1371 2.75444 9.52422C2.10117 8.99932 1.30823 8.26392 1.27885 7.00176C1.2654 6.42287 1.32871 5.84984 1.45658 5.42168C1.50916 5.24576 1.57922 5.02293 1.67436 4.82012C1.76164 4.63408 1.93381 4.32179 2.26713 4.11309C2.67928 3.85513 3.46234 3.50152 4.76713 3.65215C4.86892 3.6639 4.97352 3.68178 5.0767 3.70195C5.09037 3.49891 5.11417 3.28465 5.15971 3.07891C5.20834 2.85934 5.29434 2.57693 5.4644 2.325L5.55424 2.19609C5.67665 2.0334 5.90421 1.78866 6.29936 1.64531L6.90971 1.43437C7.12427 1.36664 7.34635 1.30561 7.56498 1.26348Z" fill="black"/>
</svg>
