<svg width="24" height="24" viewBox="0 0 24 24" fill="none" xmlns="http://www.w3.org/2000/svg">
<path d="M15.7021 1.83589C16.2129 1.6263 16.797 1.87013 17.0068 2.38081C17.2163 2.89162 16.9726 3.47578 16.4619 3.6855C16.3342 3.7379 16.2202 3.78196 16.1103 3.81538L16.1055 3.81636C16.0276 3.83962 15.9772 3.85731 15.8848 3.91792C15.7727 3.99144 15.5883 4.13632 15.2851 4.43745C14.9625 4.82319 14.7736 5.05307 14.6943 5.33296C14.643 5.51427 14.6163 5.63407 14.6035 5.69917C14.6022 5.70599 14.6005 5.71271 14.5996 5.71772C14.5928 5.83133 14.5643 5.94159 14.5205 6.04585C14.6671 6.17069 14.8599 6.35802 14.9971 6.60444L15.0762 6.76753L15.1211 6.89058C15.1921 7.1033 15.2373 7.35155 15.2461 7.60347C15.4226 7.35466 15.6308 7.08966 15.8574 6.82124C16.2316 6.37805 16.686 5.90477 16.9463 5.64351C17.5639 5.02353 18.2821 4.57255 18.8369 4.37202C19.3199 4.19757 19.8405 4.08733 20.3242 3.95308C20.6164 3.87197 20.9074 3.78312 21.6094 3.65132V3.65034C21.7314 3.62486 21.7425 3.61787 21.8369 3.5937L21.9541 3.56929C21.9904 3.55803 22.0281 3.54819 22.0664 3.54097C22.6091 3.43924 23.1325 3.79613 23.2344 4.33882C23.2606 4.47857 23.344 4.9296 23.3623 5.22944C23.3663 5.29471 23.3884 5.4729 23.4053 6.1103C23.4218 6.73452 23.4371 7.82925 23.4424 8.41694C23.4508 9.35302 23.3719 10.0103 23.2578 10.4277C23.069 11.1184 22.8224 11.7011 22.6484 12.0712C22.4586 12.4747 22.127 12.8785 21.8496 13.2011C21.451 13.6645 20.9353 14.0474 20.5058 14.3398C20.3605 14.4387 20.1941 14.526 20.0166 14.6074C20.2117 14.8062 20.3813 15.0094 20.5234 15.1835C20.8356 15.5661 20.9372 15.9934 20.998 16.2226C21.1348 16.7386 21.1327 17.3744 21.1006 18.0458C21.0782 18.512 20.9902 19.0705 20.9199 19.4531C20.7841 20.1922 20.5427 20.6891 20.2783 21.0673C19.9792 21.495 19.6399 21.6833 19.5322 21.749C19.1291 21.9947 18.681 22.0367 18.1592 22.0439C17.7166 22.0499 16.9779 22.0162 16.5937 21.997C15.5538 21.9449 14.9005 21.4385 14.4404 20.8994C14.1789 20.5928 14.0041 20.2496 13.8848 19.9316C13.4068 20.0567 13.0071 20.1464 12.8994 20.1728L12.8379 20.1875L12.7754 20.1953C12.3729 20.2418 11.9202 20.2764 11.373 20.1962C10.7258 20.1013 10.2627 19.9876 9.93456 19.874C9.90276 19.863 9.87282 19.8491 9.84276 19.8378C9.70717 20.1576 9.56043 20.4169 9.43553 20.6005C8.90662 21.378 8.35157 21.7264 8.02538 21.8925C7.81734 21.9984 7.605 22.0367 7.46678 22.0546C7.31338 22.0745 7.15567 22.0806 7.01268 22.081C6.7288 22.0818 6.41322 22.0599 6.15526 22.0419C5.79813 22.0171 5.42169 21.8465 5.1494 21.7109C4.82968 21.5517 4.45249 21.3343 4.03709 21.0781C3.34108 20.6488 2.921 20.1865 2.7412 19.914C2.24528 19.1622 2.38031 18.2658 2.4492 17.874L2.48631 17.7119C2.59128 17.3414 2.81263 17.0386 2.97264 16.8339C3.16161 16.5923 3.43886 16.2822 3.66112 16.0195C3.88611 15.7535 4.12134 15.5329 4.34667 15.3427C4.31612 15.3325 4.28516 15.3237 4.25487 15.3134C3.45788 15.0431 2.99556 14.7253 2.60252 14.4062C1.73176 13.6991 1.50902 12.6096 1.43456 12.4072C1.19876 11.7678 1.22398 11.143 1.21971 11.0742C1.20745 10.8844 1.20959 10.6966 1.19334 9.75581C1.17709 8.8142 1.16295 6.98021 1.15624 6.01558C1.14957 5.05795 1.15487 4.97687 1.15917 4.8896C1.16037 4.86492 1.16014 4.83309 1.16014 4.76948C1.16014 4.65527 1.18054 4.54554 1.21581 4.44331C1.22028 4.3751 1.2308 4.3057 1.24999 4.23726C1.39931 3.70563 1.95171 3.39565 2.48338 3.54487C2.65228 3.59227 3.54743 3.81277 4.17674 4.00679C4.60262 4.13809 5.09001 4.45073 5.56541 4.77729C6.10077 5.14505 6.73663 5.65718 7.08885 5.94722C7.58729 6.35766 7.8078 6.62519 8.08299 6.94136C8.17167 7.04317 8.50648 7.39475 8.7451 7.68647C8.7926 7.74455 8.8395 7.80463 8.8867 7.86519C8.8955 7.83679 8.90224 7.80707 8.91209 7.77827C8.9688 7.61267 9.01647 7.45879 9.06346 7.30854C9.10859 7.16425 9.15685 7.00942 9.20702 6.86811C9.29926 6.60834 9.45191 6.22587 9.77342 5.92866C9.82356 5.88235 9.87805 5.83708 9.93456 5.78999C9.84432 5.6531 9.73735 5.4959 9.6328 5.35542C9.27232 4.87112 8.89366 4.51222 8.66502 4.34761V4.34858C8.59248 4.2964 8.53309 4.25519 8.48631 4.22456C8.48462 4.22341 8.48306 4.22171 8.48143 4.22065C7.94044 4.14585 7.55814 3.6509 7.62596 3.10737C7.69448 2.55948 8.1943 2.1709 8.74217 2.23921C8.95747 2.26613 9.1098 2.30371 9.27147 2.37495L9.29002 2.38276L9.3076 2.39155C9.39679 2.43522 9.49171 2.49176 9.58202 2.55073L9.83299 2.72456L9.99706 2.84956C10.3885 3.1622 10.837 3.62331 11.2373 4.16108C11.5065 4.52271 11.7783 4.95544 11.8711 5.11226C12.1068 5.08992 12.3846 5.08276 12.6846 5.11909C12.7073 5.02364 12.735 4.9134 12.7705 4.78804C12.9929 4.00236 13.5297 3.42032 13.7842 3.11616L13.8125 3.08198L13.8437 3.05073C14.2115 2.68279 14.5124 2.42586 14.7881 2.24507C15.0837 2.05131 15.3235 1.96377 15.5283 1.90229C15.55 1.8957 15.5968 1.87907 15.7021 1.83589ZM3.15624 6.00093C3.16298 6.96951 3.1773 8.79264 3.19334 9.72163C3.21081 10.7331 3.2076 10.8182 3.21581 10.9453C3.23744 11.2804 3.207 11.4339 3.31053 11.7148C3.35809 11.8438 3.40773 12.0067 3.43944 12.1054C3.47739 12.2235 3.51242 12.3258 3.5537 12.4208C3.63336 12.6043 3.72755 12.7432 3.86327 12.8535C4.11725 13.0597 4.37424 13.2424 4.89745 13.4199C5.27659 13.5485 6.1294 13.81 6.48436 13.9365C6.59331 13.9753 6.69684 14.016 6.78905 14.0585C6.86734 14.0947 6.99887 14.1602 7.12303 14.2636C7.2037 14.3309 7.59363 14.6733 7.49706 15.246C7.41151 15.7516 7.00899 15.9645 6.96288 15.9902C6.7184 16.1264 6.32484 16.3247 5.84862 16.6992C5.58904 16.9033 5.37578 17.09 5.18846 17.3115C4.89546 17.6579 4.70935 17.8589 4.54784 18.0654C4.4628 18.1741 4.4266 18.2342 4.41405 18.2558C4.38851 18.4092 4.37509 18.5431 4.38084 18.6552C4.38383 18.7125 4.39108 18.7539 4.39842 18.7802C4.40181 18.7923 4.40503 18.8006 4.40721 18.8056C4.4083 18.808 4.4096 18.8105 4.41014 18.8115L4.41112 18.8125C4.41691 18.82 4.46533 18.8849 4.57127 18.9853C4.68509 19.0932 4.85466 19.2327 5.0869 19.3759C5.4807 19.6188 5.79959 19.8006 6.041 19.9208C6.16169 19.9809 6.24984 20.0185 6.30858 20.04C6.31928 20.0439 6.32811 20.0465 6.33495 20.0488C6.58969 20.0663 6.81843 20.0815 7.0078 20.081C7.08798 20.0808 7.14616 20.076 7.18553 20.0722C7.31112 19.9985 7.53652 19.8367 7.78221 19.4755C7.85902 19.3626 7.98954 19.1342 8.09178 18.8232C8.20788 18.4698 8.26006 18.3943 8.41112 17.7978C8.5109 17.4038 8.66736 16.731 8.75877 16.206C8.84561 15.7072 8.87343 15.3508 8.88573 14.7988C8.89847 14.2263 8.89305 13.5112 8.85643 12.9726C8.81829 12.4119 8.76376 12.0855 8.72948 11.957C8.62946 11.5826 8.45597 11.0117 8.28807 10.6289C8.25437 10.552 8.13523 10.2893 7.8242 9.8144C7.64426 9.53969 7.41438 9.21857 7.19725 8.95308C6.94857 8.64903 6.81533 8.53088 6.5742 8.25386C6.3025 7.94168 6.17591 7.78641 5.81737 7.49116C5.47071 7.20571 4.89128 6.7418 4.4326 6.42671C3.91424 6.07063 3.67398 5.94454 3.58788 5.91792C3.44591 5.87415 3.30013 5.83215 3.15624 5.79194C3.15661 5.85612 3.15571 5.92584 3.15624 6.00093ZM20.8594 5.88081C20.1898 6.06667 19.9127 6.11079 19.5166 6.25386C19.2788 6.33992 18.8045 6.61175 18.3633 7.05464C18.1234 7.29548 17.711 7.72699 17.3857 8.11226C17.0457 8.51505 16.821 8.81871 16.7041 9.02144C16.4182 9.517 16.3496 9.63778 16.3027 9.77046C16.1287 10.2628 15.9727 10.8374 15.8223 11.3349C15.7156 11.6875 15.5522 12.181 15.5098 12.8037C15.4672 13.4272 15.4244 13.8128 15.417 14.4345C15.4099 15.0291 15.3884 15.9983 15.4365 16.708C15.4782 17.3236 15.5159 17.7604 15.5449 18.0527C15.5594 18.1987 15.5717 18.309 15.581 18.3857C15.5857 18.4237 15.5898 18.4532 15.5928 18.4746C15.5942 18.4852 15.5958 18.494 15.5967 18.5C15.5975 18.5058 15.5976 18.5087 15.5976 18.5087C15.6301 18.7051 15.6471 18.8723 15.709 19.0888C15.7681 19.2956 15.851 19.4705 15.9619 19.6005C16.188 19.8655 16.3682 19.9835 16.6933 20C17.093 20.0199 17.7649 20.0499 18.1318 20.0449C18.3551 20.0418 18.469 20.029 18.5244 20.0195C18.563 19.9959 18.5713 19.9923 18.5849 19.9814C18.5951 19.9733 18.6139 19.9571 18.6387 19.9218C18.7396 19.7775 18.8693 19.5478 18.9531 19.0917C19.0191 18.7322 19.0877 18.2795 19.1035 17.9501C19.1361 17.2694 19.1138 16.9183 19.0654 16.7353C19.0298 16.6009 19.0104 16.5366 18.9912 16.4873C18.9833 16.467 18.978 16.4564 18.9756 16.4521L18.9736 16.4482C18.5667 15.9496 18.3715 15.7866 18.2646 15.7451C18.0656 15.6679 17.7595 15.6047 17.376 15.5068C17.2507 15.4748 17.0048 15.4127 16.8174 15.3164C16.7637 15.2887 16.6561 15.2293 16.5488 15.1279C16.4533 15.0375 16.221 14.7817 16.2226 14.372C16.2247 13.9391 16.4829 13.6753 16.6113 13.5722C16.7409 13.4683 16.8694 13.4152 16.9326 13.3916C17.1143 13.3236 17.287 13.3153 17.3271 13.3125C17.3975 13.3073 17.428 13.3065 17.4883 13.2998C17.5933 13.288 17.7975 13.2559 18.1689 13.1445C18.8587 12.9375 19.2147 12.7986 19.3799 12.6865C19.7781 12.4153 20.1131 12.1529 20.333 11.8974C20.6255 11.5573 20.7806 11.3443 20.8389 11.2207C20.981 10.9183 21.1797 10.4468 21.3291 9.90034C21.3753 9.73105 21.45 9.27783 21.4424 8.43452C21.4371 7.85149 21.4223 6.77028 21.4062 6.16304C21.4014 5.97993 21.3935 5.84354 21.3887 5.73921C21.1742 5.79028 21.0284 5.8339 20.8594 5.88081ZM13.8681 10.8847C13.6615 11.0017 13.3885 11.1184 13.1015 11.2041C12.7338 11.3137 12.2459 11.4069 11.7314 11.3642C11.5949 11.3529 11.1084 11.3507 10.5654 11.0966C10.6029 11.2244 10.6355 11.3417 10.6621 11.4414C10.7469 11.7591 10.8118 12.2388 10.8525 12.8369C10.8947 13.4575 10.8992 14.2376 10.8857 14.8427C10.8718 15.4681 10.8375 15.9282 10.7295 16.5488C10.6523 16.9918 10.5352 17.5074 10.4385 17.915C10.4499 17.9228 10.4625 17.9291 10.4736 17.9375C10.4939 17.9467 10.5314 17.9631 10.5898 17.9833C10.7682 18.0451 11.1022 18.1355 11.6631 18.2177C11.9403 18.2583 12.1805 18.2479 12.4902 18.2138C12.6658 18.1723 12.9384 18.1106 13.3164 18.0126C13.3792 17.9544 13.4483 17.9063 13.5205 17.8671C13.4967 17.5924 13.4692 17.2542 13.4414 16.8437C13.3864 16.0328 13.4105 14.9573 13.417 14.4111C13.4253 13.7146 13.4767 13.224 13.5146 12.6679C13.5679 11.8871 13.7582 11.2427 13.8681 10.8847ZM12.3672 7.0937C12.0309 7.06122 11.8692 7.15053 11.4521 7.21772C11.3559 7.23326 11.3145 7.25398 11.2939 7.26558C11.2678 7.28036 11.233 7.3054 11.1592 7.37202C11.1486 7.39315 11.1253 7.44274 11.0918 7.53706C11.0569 7.63518 11.0211 7.75116 10.9726 7.9062C10.926 8.05524 10.871 8.23193 10.8047 8.42573C10.7448 8.60046 10.747 8.74734 10.7637 8.86128C10.8582 8.94229 11.0404 9.07491 11.3681 9.26362C11.5205 9.35128 11.6136 9.34759 11.8965 9.37104C12.0825 9.38647 12.3095 9.35291 12.5303 9.28706C12.6357 9.25558 12.7278 9.21999 12.7969 9.1894C12.8004 9.18782 12.8033 9.18503 12.8066 9.18354C12.809 9.1788 12.813 9.17422 12.8154 9.1689C12.8386 9.11869 12.8629 9.05842 12.8926 8.9814C12.9177 8.91619 12.9568 8.81221 12.9912 8.72847C13.1416 8.36247 13.2308 7.88877 13.248 7.71186C13.2498 7.69318 13.2506 7.65453 13.2431 7.60542C13.2418 7.59662 13.2389 7.58809 13.2373 7.58003C13.233 7.57629 13.2287 7.57161 13.2236 7.56733C13.206 7.5525 13.1854 7.53691 13.1621 7.51851C13.0424 7.44155 12.9117 7.37484 12.7773 7.31733L12.7617 7.3105L12.7471 7.30366L12.5361 7.19819C12.4753 7.16862 12.419 7.13315 12.3672 7.0937ZM14.5635 5.39058C14.5626 5.38735 14.5624 5.38317 14.5615 5.37983C14.5564 5.36222 14.5492 5.34031 14.54 5.31538C14.5491 5.34015 14.5564 5.36551 14.5635 5.39058Z" fill="black"/>
</svg>
