<svg width="24" height="24" viewBox="0 0 24 24" fill="none" xmlns="http://www.w3.org/2000/svg">
<path d="M10.5928 1C11.1449 1 11.5926 1.44788 11.5928 2V3.19043C12.2865 3.2549 12.8431 3.48876 13.1777 3.61523C13.4404 3.71449 13.7091 3.81509 13.9316 3.90234C14.1398 3.98399 14.3755 4.07967 14.5488 4.17676C14.8231 4.33042 15.0083 4.52208 15.2256 4.7832C15.3085 4.68371 15.4077 4.56438 15.5244 4.42773L15.5537 4.39355L15.585 4.3623C15.764 4.18692 15.8938 4.06145 15.9912 3.96289C15.9966 3.9574 16.0018 3.95138 16.0068 3.94629C16.1609 3.54432 16.5653 3.27349 17.0166 3.30762C17.5669 3.3496 17.979 3.82947 17.9375 4.37988C17.9337 4.43108 17.9238 4.6394 17.8086 4.87305L17.7832 4.92383L17.752 4.97266C17.6527 5.12659 17.5042 5.27689 17.4141 5.36816C17.3099 5.47363 17.1729 5.60568 17.0215 5.75391C16.8545 5.94971 16.7282 6.10212 16.6436 6.20605C16.5992 6.26056 16.5676 6.3011 16.5479 6.32617C16.5431 6.33217 16.5389 6.33719 16.5361 6.34082C16.5349 6.34238 16.5339 6.34378 16.5332 6.34473L16.5322 6.3457L16.5332 6.34375C16.5342 6.34234 16.537 6.33922 16.54 6.33496C16.5427 6.33128 16.5494 6.32193 16.5576 6.30957C16.558 6.30906 16.5589 6.30589 16.5615 6.30176C16.502 6.39393 16.428 6.47227 16.3457 6.53809C16.3629 6.57487 16.378 6.60477 16.3887 6.62793C16.5769 7.03594 16.765 7.4696 16.9404 7.97754H16.9502C16.9529 7.9775 16.961 7.97706 16.9775 7.97656C17.012 7.97553 17.0758 7.97338 17.1973 7.96875C17.441 7.95947 17.901 7.94039 18.1621 7.92773C18.2893 7.92156 18.3642 7.91782 18.4209 7.91406C18.4744 7.91051 18.5325 7.90621 18.6025 7.90234C19.154 7.87197 19.6259 8.29425 19.6562 8.8457C19.6863 9.39686 19.2641 9.86806 18.7129 9.89844C18.647 9.90208 18.5036 9.91391 18.2588 9.92578C18.0477 9.93602 17.7187 9.94816 17.4678 9.95801C17.5638 10.3964 17.6543 10.8457 17.71 11.1973C17.8695 12.205 17.8518 12.69 17.8643 13.1143V13.1455C17.8634 13.9546 17.8506 14.2684 17.833 14.4541C18.7306 14.4254 19.6438 14.398 20.5625 14.3682C21.1145 14.3502 21.5768 14.783 21.5947 15.335C21.6123 15.8865 21.1795 16.3481 20.6279 16.3662C20.3137 16.3764 20.0001 16.3854 19.6875 16.3955C19.6467 16.5295 19.6181 16.6191 19.5986 16.6875C19.5783 16.7759 19.5573 16.8713 19.4844 17.4199C19.4298 17.9076 19.339 18.942 19.2471 19.5469C19.1339 20.2908 19.0677 20.7994 18.8066 21.3291C18.7228 21.4993 18.6141 21.718 18.4951 21.9033C18.434 21.9984 18.351 22.1148 18.2451 22.2236C18.1432 22.3284 17.9733 22.4749 17.7295 22.5596C17.4732 22.6484 17.0787 22.7255 16.0781 22.7695C15.3062 22.8035 13.9625 22.8411 13.2539 22.8682C12.5106 22.8966 12.4095 22.9131 12.3623 22.9209C12.1267 22.9597 11.7799 23.0262 10.877 23.0078C10.2378 22.9948 9.20605 22.9505 8.61035 22.9092C8.08045 22.8724 7.68459 22.8067 7.64453 22.8027C7.54064 22.7925 7.43067 22.7867 7.30273 22.7803C7.18421 22.7743 7.0365 22.7669 6.89844 22.7539C6.76309 22.7411 6.58573 22.7182 6.4082 22.665C6.23675 22.6136 5.97193 22.5077 5.75391 22.2656C5.53862 22.0266 5.43808 21.7353 5.38574 21.5664C5.32482 21.3698 5.27395 21.1422 5.22754 20.9248C5.12438 20.4416 4.94916 19.8743 4.72949 19.1895C4.6095 18.8153 4.41827 18.2392 4.32617 17.7559C4.25839 17.4001 4.21173 17.0971 4.18164 16.8525C3.30296 16.8688 3.01446 16.8674 2.8291 16.8652C2.68798 16.8636 2.61625 16.8627 2.58008 16.8623H2.55273C2.00063 16.8622 1.55293 16.4144 1.55273 15.8623C1.55275 15.3101 2.00051 14.8624 2.55273 14.8623C2.56351 14.8623 2.57744 14.863 2.85254 14.8662C3.07218 14.8688 3.4916 14.8728 5.37598 14.8271C5.36704 14.6865 5.35839 14.5328 5.35254 14.3652C5.32936 13.7005 5.36066 12.6259 5.39844 11.5898C5.41122 11.2394 5.42691 10.8908 5.44434 10.5547L5.41113 10.5566H5.18262C4.98449 10.5566 4.63922 10.5565 4.35059 10.5713C4.0735 10.5855 3.85522 10.6136 3.49316 10.6572C2.94494 10.7233 2.44604 10.3324 2.37988 9.78418C2.31387 9.2361 2.70495 8.73825 3.25293 8.67188C3.59581 8.63054 3.88829 8.59269 4.24805 8.57422C4.59611 8.55635 4.99211 8.55664 5.18262 8.55664H5.41113C5.46976 8.55664 5.52715 8.56259 5.58301 8.57227C5.67792 7.56459 5.77682 7.12516 5.81152 6.98633C5.876 6.72843 5.99391 6.29913 6.24902 5.66211C6.32817 5.46449 6.42243 5.29478 6.51367 5.15039C6.31295 5.01181 6.08075 4.85084 5.91895 4.74121C5.67461 4.57566 5.63422 4.55498 5.5957 4.53418C5.11013 4.27173 4.92935 3.66448 5.19141 3.17871C5.45394 2.69299 6.06103 2.51202 6.54688 2.77441C6.67789 2.84519 6.78578 2.91367 7.04004 3.08594C7.29394 3.25797 7.71152 3.546 7.9209 3.69043C7.95542 3.71424 7.98443 3.7342 8.00879 3.75098C8.13568 3.68356 8.27543 3.61725 8.43262 3.56152C8.76344 3.44426 9.1128 3.40222 9.26758 3.37695C9.26882 3.37672 9.27177 3.37588 9.27637 3.375C9.28453 3.37344 9.29532 3.37123 9.31055 3.36816C9.33882 3.36246 9.38441 3.35367 9.43457 3.34375C9.48012 3.33475 9.53276 3.32646 9.59277 3.31543V2C9.59297 1.44788 10.0406 1 10.5928 1ZM17.6045 16.4619C13.1624 16.6039 9.12422 16.7294 6.68848 16.7949C6.51585 16.7996 6.35125 16.8026 6.19434 16.8066C6.21758 16.9658 6.24836 17.1579 6.29102 17.3818C6.3547 17.7158 6.4974 18.1529 6.63379 18.5781C6.84893 19.2489 7.05617 19.9109 7.18359 20.5078C7.20566 20.6112 7.22478 20.6981 7.24219 20.7715C7.28944 20.7742 7.34222 20.7792 7.40234 20.7822C7.52797 20.7885 7.68226 20.797 7.83984 20.8125C7.9744 20.8257 8.12532 20.8494 8.21289 20.8613C8.32402 20.8765 8.48112 20.8955 8.74902 20.9141C9.30901 20.9529 10.3082 20.9964 10.918 21.0088C11.3056 21.0167 11.5477 21.0062 11.7031 20.9932C11.8535 20.9805 11.9308 20.9648 12.0371 20.9473C12.2265 20.9161 12.4498 20.897 13.1777 20.8691C13.941 20.8399 15.2101 20.8058 15.9902 20.7715C16.4394 20.7517 16.7142 20.7251 16.8799 20.7031C16.8844 20.6947 16.8906 20.686 16.8955 20.6768C16.9308 20.6098 16.9688 20.5335 17.0127 20.4443C17.1074 20.252 17.1408 20.0926 17.2695 19.2461C17.3562 18.6761 17.432 17.7672 17.499 17.1758L17.501 17.1562C17.5489 16.7954 17.5797 16.5991 17.6045 16.4619ZM11.3311 5.17383C11.0752 5.16048 10.6493 5.16604 10.1895 5.24023C10.0268 5.26649 9.90858 5.2886 9.82227 5.30566C9.77683 5.31465 9.74322 5.32161 9.70605 5.3291C9.6748 5.3354 9.63151 5.34378 9.58984 5.35059C9.31581 5.39532 9.21401 5.40609 9.10059 5.44629C8.94617 5.50106 8.82821 5.57812 8.68359 5.69336C8.52938 5.81625 8.46025 5.87633 8.39551 5.95801C8.25058 6.14083 8.16793 6.24939 8.10547 6.40527C7.88971 6.94399 7.79851 7.28547 7.75195 7.47168C7.74582 7.49616 7.64998 7.87293 7.55762 8.92773C7.49667 9.62391 7.4351 10.6301 7.39746 11.6621C7.359 12.7168 7.33134 13.7164 7.35156 14.2959C7.35798 14.4798 7.36642 14.6383 7.37598 14.7734C9.48568 14.7145 12.4864 14.623 15.8242 14.5176C15.8246 14.513 15.8247 14.5085 15.8252 14.5039C15.8275 14.4823 15.8289 14.4651 15.8301 14.4443C15.8305 14.4379 15.8312 14.4138 15.832 14.4004C15.8331 14.3823 15.8353 14.3582 15.8379 14.3311L15.8398 14.3086L15.8428 14.2871C15.8453 14.2686 15.8632 14.1602 15.8643 13.1426C15.8521 12.6916 15.8667 12.3457 15.7344 11.5098C15.6762 11.1425 15.5727 10.6222 15.4609 10.1357C15.3472 9.64073 15.2402 9.22027 15.1436 8.90723C14.9787 8.37366 14.7887 7.935 14.5723 7.46582C14.4951 7.29856 14.2526 6.75479 13.7627 6.15137C13.6455 6.00699 13.589 5.94505 13.5605 5.91699C13.5155 5.89363 13.4047 5.84347 13.2012 5.76367C12.9941 5.68249 12.7502 5.59196 12.4707 5.48633C12.0322 5.32063 11.7257 5.19447 11.3311 5.17383ZM10.7451 7.45801C11.2089 7.22809 11.7653 7.39146 12.0352 7.82031L12.085 7.90918L12.1455 8.0625C12.1892 8.20501 12.1922 8.31784 12.1924 8.32422C12.1954 8.37283 12.1978 8.44212 12.2002 8.54004C12.2051 8.74376 12.2113 9.11946 12.2373 9.61035C12.2665 10.1619 11.8425 10.6329 11.291 10.6621C10.7398 10.6909 10.2694 10.2671 10.2402 9.71582C10.2124 9.19009 10.2049 8.78183 10.2002 8.58789C10.1991 8.54081 10.1981 8.50706 10.1973 8.4834L10.1963 8.45703C10.1544 8.05377 10.3607 7.64885 10.7451 7.45801ZM10.2744 8.75781L10.2939 8.79785C10.282 8.77367 10.2716 8.74826 10.2617 8.72363C10.2663 8.73519 10.2698 8.74718 10.2744 8.75781ZM10.2412 8.66992C10.2428 8.67474 10.2454 8.67987 10.2471 8.68457C10.2438 8.67532 10.2413 8.66554 10.2383 8.65625C10.2396 8.6605 10.2398 8.66554 10.2412 8.66992Z" fill="black"/>
</svg>
