<svg width="24" height="24" viewBox="0 0 24 24" fill="none" xmlns="http://www.w3.org/2000/svg">
<path d="M20.3349 11.2764C20.4591 11.233 20.8655 11.0887 21.3037 11.2852L21.3916 11.3291L21.4873 11.3867C21.9413 11.6884 22.0987 12.1835 22.1592 12.3731C22.2002 12.502 22.2399 12.6532 22.2666 12.7481C22.2979 12.8595 22.324 12.9415 22.3506 13.0098C22.7816 14.1155 22.816 14.6234 22.748 15.0205C22.7167 15.2036 22.6362 15.3948 22.4873 15.5615C22.3671 15.696 22.2367 15.7745 22.1689 15.8125C22.0407 15.8844 21.8705 15.9536 21.7138 16.0166C21.3361 16.1685 20.7179 16.398 19.9736 16.7305C19.848 16.7866 19.7196 16.8463 19.5888 16.9072C19.6384 16.9285 19.6843 16.948 19.7246 16.9649C19.9248 17.0485 20.1805 17.1477 20.5517 17.2549C20.6644 17.2874 20.7995 17.3138 20.9648 17.3399C21.1022 17.3615 21.3248 17.3921 21.4883 17.4229C21.6366 17.4508 21.9186 17.5074 22.1679 17.6572C22.3074 17.7411 22.4964 17.8889 22.626 18.1338C22.7649 18.3967 22.7841 18.6745 22.7363 18.9151C22.7201 18.9964 22.6833 19.261 22.5674 19.5967C22.4509 19.9338 22.2611 20.3385 21.9404 20.8574C21.6125 21.388 21.0146 22.308 20.6406 22.7715C20.4686 22.9846 20.241 23.2379 19.9443 23.377C19.7584 23.464 19.5276 23.5154 19.2744 23.4746C19.0529 23.439 18.8888 23.3375 18.8877 23.3369C18.8562 23.3194 18.8517 23.3171 18.8379 23.3106C18.817 23.3006 18.7741 23.2812 18.6787 23.2422C18.123 23.0153 17.41 22.7263 16.6357 22.2617C16.1551 21.9734 15.6262 21.6302 15.0615 21.3164C14.5088 21.0094 13.9938 20.7761 13.6377 20.6006C13.2058 20.3878 12.9959 20.2672 12.7734 20.1367C12.6952 20.0908 12.626 20.0355 12.5654 19.9736C11.1469 20.5508 9.15687 21.3381 7.73435 21.8653C6.19461 22.4358 5.3835 22.6781 4.9326 22.8154C4.70842 22.8837 4.50612 22.9491 4.36912 22.9834C4.22347 23.0199 3.92669 23.0865 3.58689 22.9678C2.97346 22.7531 2.73123 22.2452 2.60935 21.9649C2.45772 21.616 2.39849 21.4027 2.17674 20.9512C2.08363 20.7617 1.98648 20.6037 1.88767 20.4492C1.8237 20.3492 1.72602 20.2002 1.64158 20.0488L1.63474 20.044C1.56969 19.9903 1.50899 19.9343 1.45799 19.8867C1.32942 19.7668 1.24003 19.6201 1.18943 19.4639C1.1597 19.4224 1.13114 19.379 1.1074 19.332C0.858645 18.839 1.05669 18.2371 1.54978 17.9883C1.65313 17.9362 1.75428 17.9059 1.87107 17.8701C2.01695 17.8254 2.28796 17.7451 2.80271 17.5947C3.83317 17.2938 5.85144 16.7092 8.43162 15.8194C11.0177 14.9275 14.1131 13.744 15.7724 13.1026C17.4232 12.4645 17.5308 12.4103 17.997 12.2217C18.4837 12.0249 19.2587 11.7232 19.75 11.5176C19.9489 11.4344 20.181 11.3302 20.3349 11.2764ZM16.9521 18.1328C16.4582 18.3441 16.0111 18.5237 15.5849 18.7031C15.3765 18.7909 15.1591 18.8845 14.9072 18.9932C15.2192 19.1436 15.6273 19.3429 16.0332 19.5684C16.6309 19.9004 17.2696 20.3097 17.665 20.5469C18.2194 20.8795 18.7389 21.1035 19.2373 21.3086C19.5363 20.9007 19.9641 20.2519 20.2392 19.8067C20.3657 19.6019 20.4576 19.4319 20.5263 19.293C20.3648 19.2652 20.181 19.2299 19.997 19.1768C19.5359 19.0437 19.2066 18.9165 18.9531 18.8106C18.6632 18.6894 18.596 18.6545 18.5078 18.6279C17.8641 18.4341 17.4984 18.3324 17.2842 18.2647L17.248 18.2539L17.2129 18.2393C17.1708 18.2224 17.1333 18.2063 17.1064 18.1944C17.0744 18.1801 17.0639 18.1749 17.0478 18.168C17.0372 18.1634 17.03 18.1603 17.0244 18.1582C17.0189 18.1562 17.0107 18.1538 17 18.1504C16.9837 18.1453 16.968 18.1387 16.9521 18.1328ZM18.7461 14.0752C18.2875 14.2606 18.1624 14.3229 16.4941 14.9678C14.8333 15.6098 11.7078 16.8051 9.08396 17.71C6.65333 18.5483 4.71061 19.1202 3.61424 19.4404C3.71935 19.6069 3.84688 19.8154 3.97166 20.0694C4.09943 20.3295 4.19589 20.5557 4.27244 20.7442C4.29754 20.806 4.31848 20.8589 4.33689 20.9053C4.34114 20.9041 4.34629 20.9037 4.35057 20.9024C4.78221 20.7709 5.55199 20.5417 7.04002 19.9903C8.54041 19.4342 10.7022 18.5778 12.1152 17.999C13.5337 17.4181 14.1455 17.14 14.8095 16.8604C15.4767 16.5795 16.0454 16.3598 16.7754 16.0264C17.1384 15.8606 17.5303 15.6714 17.9385 15.4756C18.3418 15.2821 18.7605 15.083 19.1582 14.9053C19.7609 14.636 20.3068 14.4195 20.6767 14.2744C20.6339 14.1357 20.5729 13.9586 20.4863 13.7363C20.4432 13.6258 20.4081 13.5166 20.3789 13.419C19.8741 13.6267 19.1453 13.9138 18.7461 14.0752ZM3.47264 11.043C3.62741 11.0597 3.76637 11.1048 3.84373 11.1309C3.93332 11.161 4.03995 11.2018 4.14744 11.2422C4.58579 11.4071 5.44045 11.7219 5.9326 11.9219C6.58419 12.1867 7.01713 12.4306 7.41404 12.6299C7.90761 12.8777 8.10714 13.4791 7.85935 13.9727C7.61142 14.4659 7.01 14.6647 6.51658 14.417C6.04172 14.1786 5.73342 14.0004 5.17967 13.7754C4.83192 13.6341 4.28389 13.4283 3.83592 13.2608C3.81916 13.3029 3.8034 13.3475 3.78514 13.3926C3.67971 13.6528 3.56568 13.9196 3.46775 14.1572C3.60364 14.2069 3.74824 14.2603 3.89646 14.3164C4.41292 14.5119 4.67297 15.089 4.47752 15.6055C4.28182 16.1216 3.70478 16.3819 3.18846 16.1865C2.76283 16.0255 2.38665 15.8908 2.17283 15.8203C2.14584 15.8114 2.02793 15.7756 1.92674 15.7295C1.81444 15.6783 1.57772 15.5539 1.40916 15.2822C1.23552 15.002 1.22948 14.721 1.2451 14.5518C1.25986 14.392 1.30255 14.245 1.33494 14.1436C1.45653 13.763 1.76687 13.0483 1.93162 12.6416C2.02229 12.4178 2.089 12.2412 2.14939 12.086C2.19991 11.9561 2.26698 11.7832 2.34178 11.6465L2.37986 11.5811C2.43462 11.492 2.5426 11.3426 2.71971 11.2236C3.00164 11.0344 3.29059 11.0234 3.47264 11.043ZM11.8623 0.471697C12.055 0.423454 12.2378 0.43595 12.3906 0.478532C12.6521 0.551607 12.8143 0.709384 12.8506 0.744157L12.956 0.856462L13.7344 1.75295C13.9823 2.03989 14.2038 2.2987 14.3525 2.47853C14.5839 2.75842 14.8029 2.99972 14.9863 3.19924C15.1463 3.37333 15.3379 3.57658 15.4433 3.71193C15.9575 4.37223 16.0826 4.87563 16.1582 5.12697C16.2177 5.32519 16.268 5.55079 16.3164 5.87404C16.4011 6.44107 16.4184 7.34251 16.4209 8.15041C16.4226 8.75825 16.2664 9.54267 16.0342 10.3496C15.829 11.062 15.2909 11.4653 15.1894 11.5576C14.9002 11.8208 14.5131 11.981 14.1826 12.1182C13.3884 12.4477 12.5111 12.6027 11.8213 12.6719C11.198 12.7344 10.6889 12.701 10.2275 12.5703C9.77466 12.4419 9.42795 12.234 9.15525 12.0684C8.75855 11.8273 8.49755 11.4925 8.30955 11.1846C8.12944 10.8894 7.97392 10.5453 7.83982 10.2559C7.38971 9.28432 7.19443 8.55373 7.14549 8.31838C7.14397 8.31106 7.14344 8.30949 7.13572 8.27541C7.12908 8.24608 7.12089 8.20777 7.11131 8.1592C7.09248 8.06367 7.06946 7.93369 7.04002 7.73342C6.9823 7.3407 6.88781 6.61917 6.84178 5.99416C6.75924 4.87291 6.81629 4.27551 6.83006 4.12013C6.86425 3.7343 6.97883 3.0367 7.17771 2.58986C7.28635 2.34623 7.51191 2.10551 7.85252 2.01662C8.13419 1.94326 8.36451 2.00952 8.46385 2.04494C8.65882 2.11459 8.79722 2.23033 8.84178 2.26759C8.96547 2.37113 9.09008 2.50648 9.19236 2.62404C9.30183 2.74989 9.42635 2.90239 9.55955 3.07131L9.98142 3.62111L9.99705 3.64162L10.0117 3.6631C10.0161 3.6696 10.0211 3.67626 10.0254 3.68263C10.0524 3.62186 10.0811 3.55973 10.1094 3.49611C10.195 3.30301 10.2649 3.12351 10.3457 2.91213C10.4254 2.70338 10.5149 2.46504 10.6338 2.18849C10.8021 1.79686 11.0134 1.36979 11.1455 1.084L11.2353 0.922868C11.2815 0.852677 11.3458 0.771746 11.4326 0.696306C11.5313 0.610552 11.6742 0.518839 11.8623 0.471697ZM12.2138 3.62502C12.1339 3.8344 12.0472 4.05939 11.9375 4.30666C11.7038 4.83334 11.5081 5.27014 11.3672 5.57814C11.2971 5.73137 11.2386 5.85616 11.1963 5.94533C11.1756 5.98892 11.1561 6.02975 11.1396 6.06252C11.1319 6.07794 11.1206 6.09989 11.1084 6.12209C11.1026 6.13263 11.0913 6.1521 11.0771 6.17482C11.0699 6.18642 11.0574 6.20653 11.041 6.22951C11.0292 6.24608 10.9923 6.29712 10.9365 6.35353C10.5483 6.74586 9.91511 6.74918 9.52244 6.36134C9.39549 6.23582 9.30918 6.08415 9.26365 5.92384C9.18446 5.84415 9.12013 5.77859 9.07029 5.72951V5.72853C8.98622 5.64656 8.90861 5.55868 8.81443 5.43654C8.82028 5.56227 8.82502 5.69968 8.83592 5.84767C8.87685 6.40333 8.96387 7.07041 9.01853 7.4424C9.04512 7.62324 9.06271 7.71917 9.07322 7.77248C9.0782 7.7977 9.08215 7.8164 9.08592 7.83302C9.0886 7.84487 9.0972 7.88182 9.10349 7.91213C9.12042 7.99272 9.267 8.57704 9.65525 9.41506C9.81071 9.75062 9.9104 9.9696 10.0166 10.1436C10.1144 10.3036 10.1722 10.3465 10.1933 10.3594C10.4596 10.5211 10.6046 10.5987 10.7734 10.6465C10.9341 10.692 11.1801 10.726 11.622 10.6817C12.2089 10.6228 12.8721 10.4963 13.416 10.2705C13.5996 10.1943 13.7128 10.145 13.79 10.1055C13.865 10.0671 13.8662 10.0577 13.8437 10.0781C13.8721 10.0523 13.902 10.0261 13.9238 10.0069C13.9479 9.98552 13.9677 9.96824 13.9863 9.95119C14.0228 9.91772 14.0472 9.89297 14.0654 9.87209C14.0974 9.83543 14.1061 9.81406 14.1113 9.79592C14.3267 9.04722 14.4218 8.47917 14.4209 8.15627C14.4183 7.31748 14.3971 6.56685 14.3379 6.16994C14.3002 5.91827 14.2681 5.7896 14.2422 5.70314C14.1983 5.55721 14.18 5.48349 14.1318 5.37306C14.0875 5.27142 14.0114 5.12921 13.8652 4.94142C13.8261 4.89117 13.7292 4.78724 13.5137 4.55275C13.3214 4.34361 13.0757 4.07248 12.8115 3.75295C12.7021 3.62064 12.5464 3.43886 12.3672 3.23049C12.3133 3.36459 12.2644 3.49275 12.2138 3.62502Z" fill="black"/>
</svg>
