<svg width="24" height="24" viewBox="0 0 24 24" fill="none" xmlns="http://www.w3.org/2000/svg">
<path d="M12.3398 12.9267C12.833 12.9026 13.4149 12.9085 14.0136 12.9609C14.5848 13.0109 15.1873 13.0932 15.5595 13.1767C15.737 13.2166 16.0079 13.2742 16.288 13.4189C16.5778 13.5686 16.8192 13.7772 17.0605 14.0371C17.2885 14.2828 17.4794 14.5415 17.7499 15.123C17.9379 15.5271 18.2375 16.2099 18.4823 16.9609C18.7262 17.7091 18.9044 18.4853 19.0019 19.0205C19.0982 19.5492 19.1291 19.88 19.1259 20.1338C19.1211 20.5089 19.0307 20.9275 18.8319 21.3496C18.7847 21.45 18.6555 21.7145 18.3476 21.8945C18.127 22.0234 17.8856 22.057 17.831 22.0664C17.5642 22.1125 17.1684 22.1569 15.3525 22.2011C13.5191 22.2458 10.2807 22.2891 8.66105 22.3095C7.85133 22.3197 7.44111 22.3244 7.23234 22.3261C7.13 22.327 7.06888 22.3274 7.03214 22.3271C7.01727 22.327 6.98907 22.3269 6.9589 22.3252C6.90439 22.3221 6.83907 22.3139 6.76652 22.2959C6.2672 22.1714 5.95127 21.6918 6.01847 21.1933C6.00598 21.1722 5.99246 21.1512 5.98136 21.1289C5.96542 21.0968 5.92517 21.0179 5.88859 20.9111L5.88175 20.8916L5.87589 20.8711C5.83492 20.7324 5.82381 20.5827 5.81925 20.5234C5.81198 20.4288 5.80666 20.3144 5.80363 20.1845C5.79754 19.9231 5.79941 19.5705 5.81437 19.1328L5.81535 19.1035L5.81828 19.0752C5.86331 18.5844 5.96062 18.1131 6.038 17.8046C6.11551 17.4958 6.18293 17.293 6.28312 17.0898C6.43023 16.7916 6.74088 16.2766 7.25675 15.6474C7.5281 15.3165 7.79814 15.0423 8.2255 14.7002C8.61811 14.3859 9.15438 13.9926 9.50773 13.7666C9.986 13.4607 10.4192 13.2366 11.0829 13.0869C11.4359 13.0072 11.8408 12.9511 12.3398 12.9267ZM6.0507 7.52535C6.29806 7.5314 6.49428 7.62493 6.62492 7.71871C6.79222 7.83902 6.89084 7.98592 6.9423 8.07906L6.97843 8.15133L7.21867 8.68356C7.28468 8.82599 7.34761 8.94397 7.44035 9.06539C7.82245 9.56566 8.05061 9.86012 8.33585 10.1777C8.61516 10.4886 9.12875 11.0513 9.39054 11.3398C9.51911 11.4815 9.58795 11.5578 9.62492 11.5996C9.63973 11.6163 9.66237 11.642 9.68253 11.667C9.68695 11.6724 9.72724 11.7214 9.76652 11.7871C9.78877 11.8243 9.83486 11.907 9.86808 12.0205C9.90941 12.1619 9.90812 12.2789 9.90812 12.3017C9.90802 12.8538 9.4602 13.3016 8.90812 13.3017C8.63086 13.3017 8.38016 13.1882 8.19914 13.0058L8.12785 12.9257L8.12394 12.9218C8.09475 12.889 8.03359 12.8208 7.9091 12.6836C7.65353 12.4019 7.1312 11.8294 6.84757 11.5136C6.64264 11.2855 6.46446 11.0669 6.27335 10.8242C5.87139 11.9603 5.30768 13.5414 4.9882 14.4687C5.17568 14.4987 5.32118 14.5248 5.37882 14.539C5.50826 14.5711 6.0089 14.7274 6.14933 15.2998C6.26137 15.7574 6.0237 16.0976 5.99308 16.1435C5.88336 16.3081 5.7186 16.4521 5.67375 16.4931C5.49888 16.653 5.34294 16.7898 5.20499 16.9629C4.93274 17.3044 4.51128 17.9356 4.21964 18.3623C4.06638 18.5865 3.95057 18.7799 3.85148 18.9677C4.04053 18.9733 4.23798 18.9787 4.35246 18.9853H4.35343C4.38763 18.9866 4.4465 18.9863 4.53703 18.9863C5.08902 18.9865 5.53678 19.4343 5.53703 19.9863C5.53693 20.5384 5.08911 20.9861 4.53703 20.9863C4.46193 20.9863 4.35934 20.9873 4.27921 20.9843L4.24406 20.9824C4.18414 20.978 3.99768 20.9729 3.72648 20.9648C3.47953 20.9574 3.18293 20.9478 2.96085 20.9336L2.90324 20.9296L2.88175 20.9257C2.87384 20.9255 2.86293 20.9251 2.84953 20.9248C2.8045 20.9237 2.69442 20.9225 2.58683 20.9111C2.50665 20.9025 2.26765 20.8759 2.0341 20.7363C1.89946 20.6557 1.7271 20.5133 1.61222 20.2812C1.49313 20.0404 1.48187 19.7961 1.51847 19.5976L1.58976 19.2207C1.62477 19.07 1.67721 18.8948 1.76457 18.6992C1.96071 18.2599 2.17084 17.8148 2.56828 17.2334C2.73962 16.9827 3.01221 16.5763 3.27335 16.2099C3.2358 16.1919 3.1961 16.1706 3.15617 16.1445C2.83412 15.9339 2.73341 15.6212 2.70597 15.4433C2.68224 15.289 2.69859 15.1604 2.70597 15.1084C2.71538 15.0421 2.72953 14.9797 2.7421 14.9287C2.78894 14.7388 2.89111 14.4203 3.07609 13.8818C3.45261 12.7857 4.217 10.6506 4.6005 9.55758C4.98624 8.45814 4.99594 8.3862 5.00773 8.34371L5.038 8.24996C5.0511 8.21314 5.06783 8.1715 5.08878 8.12789C5.11566 8.07198 5.21853 7.85843 5.45597 7.69918C5.59644 7.6051 5.80105 7.51939 6.0507 7.52535ZM11.4657 15.0527C11.1295 15.1344 10.9172 15.2392 10.5859 15.4511C10.3086 15.6285 9.82988 15.9772 9.47453 16.2617C9.15419 16.5182 8.98383 16.694 8.80265 16.915C8.36969 17.443 8.14771 17.8314 8.07707 17.9746C8.06755 17.9939 8.0581 18.0148 8.04484 18.0537C8.02958 18.0984 8.00804 18.17 7.97746 18.292C7.91898 18.5251 7.84673 18.878 7.81242 19.2295C7.79935 19.6245 7.79875 19.928 7.80363 20.1377C7.80538 20.2127 7.80792 20.2728 7.81046 20.3183C8.02348 20.3158 8.29371 20.3138 8.63566 20.3095C9.25572 20.3017 10.1099 20.2895 11.0302 20.2763C11.0421 20.1374 11.0593 19.9207 11.0907 19.5703C11.1668 18.7223 11.3106 17.1387 11.3857 16.2373C11.4477 15.4922 11.4596 15.2306 11.4657 15.0527ZM13.4696 15.0117C13.4626 15.2511 13.4551 15.4867 13.3788 16.4033C13.3031 17.3132 13.1585 18.907 13.0829 19.749C13.064 19.9595 13.0499 20.1202 13.039 20.2431C13.8789 20.2291 14.6752 20.2174 15.3036 20.2021C16.3031 20.1778 16.8328 20.1516 17.1239 20.1318C17.1244 20.1235 17.1258 20.1155 17.1259 20.1084C17.1268 20.0373 17.1206 19.8482 17.0351 19.3789C16.9506 18.9153 16.7921 18.2286 16.581 17.581C16.371 16.9368 16.1075 16.3345 15.9364 15.9668C15.8319 15.742 15.7619 15.6203 15.7157 15.5498C15.6759 15.4888 15.6452 15.4528 15.5946 15.3984C15.4394 15.2312 15.3787 15.1998 15.37 15.1953C15.3521 15.186 15.3271 15.174 15.122 15.1279C14.8742 15.0723 14.3707 14.9997 13.8388 14.9531C13.7139 14.9422 13.5898 14.9331 13.4677 14.9267C13.4692 14.9547 13.4705 14.9832 13.4696 15.0117ZM3.82414 14.3173C3.81859 14.3167 3.81373 14.3157 3.81046 14.3154C3.80695 14.3151 3.80373 14.3154 3.80265 14.3154C3.80965 14.316 3.81703 14.3167 3.82414 14.3173ZM14.1239 11.0332C14.3907 10.55 14.999 10.3742 15.4823 10.6406C15.9657 10.9075 16.1416 11.5165 15.8749 12L15.7919 12.1513C15.5251 12.6348 14.916 12.8105 14.4325 12.5439C13.9493 12.2771 13.7736 11.6689 14.04 11.1855L14.1239 11.0332ZM19.4989 10.5996C19.8472 10.171 20.4776 10.1058 20.9062 10.4541C20.9353 10.4777 20.9786 10.5139 21.0331 10.5625C21.0468 10.5747 21.0527 10.5793 21.0546 10.581C21.0568 10.5827 21.064 10.5878 21.078 10.5966C21.5457 10.8903 21.687 11.5078 21.3935 11.9755C21.0998 12.4429 20.4831 12.5843 20.0155 12.291C19.8431 12.1827 19.7496 12.0971 19.7021 12.0547C19.6847 12.0391 19.6715 12.0288 19.6444 12.0068C19.216 11.6586 19.1509 11.0282 19.4989 10.5996ZM17.6064 3.52731C17.7512 3.54771 17.868 3.57647 18.0253 3.63668L18.0507 3.64645C18.33 3.76214 18.6463 3.9386 18.9775 4.25094L19.12 4.39352L19.1669 4.44235L19.206 4.49703C19.4308 4.80865 19.7278 5.22511 19.8593 5.55465C19.9693 5.83061 20.1386 6.37734 20.1728 7.31051C20.1919 7.83404 20.16 8.45644 20.1249 8.81344C20.108 8.98556 20.0849 9.15946 20.039 9.31735C19.9778 9.52748 19.8874 9.6759 19.7929 9.79391C19.6968 9.91374 19.5432 10.0802 19.3144 10.2177C19.0128 10.399 18.4073 10.6689 17.5751 10.8154C17.1667 10.8872 16.8207 10.8927 16.5419 10.8632C16.2181 10.829 15.8246 10.7713 15.415 10.5673C15.2279 10.4742 14.784 10.2734 14.4843 9.95992C14.1687 9.62952 13.7018 9.08114 13.5146 8.32223C13.444 8.03598 13.3426 7.54355 13.4042 6.94918C13.4361 6.64224 13.4813 6.1976 13.6698 5.82223C13.7908 5.58154 13.9951 5.22062 14.328 4.87789C14.4589 4.74318 14.8842 4.23433 15.5497 4.0361C15.9828 3.90711 16.3807 3.87398 16.6991 3.87789C16.9134 3.62126 17.251 3.4773 17.6064 3.52731ZM17.6386 5.74606C17.4341 5.88023 17.1808 5.94131 16.9208 5.89645C16.8049 5.87641 16.4869 5.84284 16.12 5.95211C16.1072 5.95596 16.0774 5.96849 16.0185 6.01754C15.988 6.0429 15.9539 6.07494 15.911 6.11813C15.8568 6.17279 15.8326 6.19938 15.7626 6.27145C15.6289 6.40907 15.5314 6.56969 15.456 6.71969C15.4669 6.69799 15.4575 6.70978 15.4413 6.79293C15.4253 6.87573 15.4109 6.98764 15.3935 7.15524C15.3666 7.4151 15.4087 7.64807 15.4569 7.84371C15.5159 8.08212 15.6816 8.31746 15.9306 8.57809C15.9102 8.55671 15.9155 8.56974 15.9941 8.6152C16.0722 8.66041 16.1636 8.70513 16.3066 8.77633C16.3887 8.81718 16.4932 8.84653 16.7528 8.87399C16.8372 8.88283 16.9951 8.88671 17.2284 8.84567C17.6529 8.77096 17.9627 8.65395 18.1376 8.57516C18.1642 8.28124 18.1892 7.78099 18.1747 7.38375C18.1489 6.67869 18.0265 6.35771 18.0019 6.29586C18.0018 6.29589 17.9757 6.23946 17.8896 6.10641C17.8229 6.00353 17.7371 5.88372 17.6386 5.74606ZM12.2109 6.22555C12.7628 6.22577 13.2106 6.6736 13.2109 7.22555C13.2109 7.7777 12.763 8.22533 12.2109 8.22555H11.8105C11.2583 8.22545 10.8105 7.77777 10.8105 7.22555C10.8107 6.67352 11.2584 6.22564 11.8105 6.22555H12.2109ZM21.6337 5.36324C21.6251 5.36114 21.6185 5.35832 21.6142 5.35738C21.5979 5.35381 21.5856 5.35232 21.581 5.35152C21.5939 5.35325 21.6169 5.35488 21.6503 5.35836H21.6767C22.1905 5.28805 22.6791 5.62421 22.789 6.13961C22.904 6.67973 22.5595 7.21105 22.0194 7.32613C21.9562 7.33959 21.8926 7.35031 21.7939 7.35543C21.7334 7.35856 21.6311 7.36057 21.5224 7.35445L21.5019 7.35348L21.4804 7.35152C21.4122 7.34482 21.3548 7.33814 21.3095 7.33199C21.2878 7.32904 21.2634 7.32543 21.2392 7.32125C21.228 7.31931 21.2084 7.31554 21.1855 7.31051C21.1746 7.30812 21.154 7.30383 21.1288 7.29684C21.122 7.29495 21.0423 7.27372 20.9511 7.22848C20.4566 6.98306 20.2547 6.38332 20.4999 5.88863C20.7122 5.46117 21.1887 5.25346 21.6337 5.36324ZM21.8398 5.43746C21.8101 5.42275 21.7843 5.41135 21.7665 5.40426C21.7612 5.40216 21.7557 5.40121 21.7509 5.39938C21.7806 5.41073 21.8107 5.42305 21.8398 5.43746ZM21.6747 5.37496C21.6956 5.38107 21.7166 5.38695 21.7372 5.39449C21.731 5.39223 21.7256 5.38938 21.7206 5.38766C21.7026 5.38147 21.6864 5.37738 21.6747 5.37399V5.37496ZM13.3388 1.67281C13.8155 1.39401 14.4281 1.5545 14.7069 2.03121C14.7751 2.14777 14.8365 2.25911 14.8886 2.35934C14.9414 2.46099 14.9806 2.54316 15.0116 2.60934C15.2458 3.10935 15.0302 3.70505 14.5302 3.93942C14.0303 4.17336 13.4345 3.95778 13.2001 3.45797C13.1695 3.3926 13.1463 3.34304 13.1142 3.28121C13.0811 3.2176 13.0361 3.13622 12.9804 3.04098C12.7017 2.5644 12.8624 1.95176 13.3388 1.67281ZM18.4677 1.9277C18.685 1.42014 19.2726 1.18518 19.7802 1.40231C20.2837 1.61793 20.5188 2.19728 20.3105 2.70211C20.3109 2.70114 20.312 2.70024 20.3124 2.69918C20.3149 2.69263 20.317 2.68651 20.3183 2.68258L20.3193 2.6816C20.3182 2.68543 20.3163 2.69199 20.3134 2.70309C20.3002 2.75266 20.283 2.82064 20.2763 2.84957C20.1961 3.32147 19.7866 3.68151 19.2919 3.6816C18.7741 3.6816 18.3479 3.28753 18.2968 2.78317L18.2919 2.6816C18.2919 2.55412 18.3154 2.45297 18.328 2.3984C18.3413 2.34118 18.3633 2.25135 18.3798 2.18942C18.3983 2.11988 18.4225 2.03338 18.4677 1.9277ZM20.288 2.75582C20.2884 2.75146 20.2896 2.74676 20.29 2.74215C20.2908 2.72951 20.2906 2.71768 20.2909 2.70797V2.69625C20.2906 2.71625 20.2895 2.73612 20.288 2.75582Z" fill="black"/>
</svg>
