<svg width="24" height="24" viewBox="0 0 24 24" fill="none" xmlns="http://www.w3.org/2000/svg">
<path d="M11.3089 12.2312C11.8986 12.1657 12.5623 12.2789 12.9378 12.3337C13.3179 12.3893 13.878 12.4825 14.3226 12.6834C14.4564 12.7438 14.5685 12.8278 14.6156 12.863C14.6814 12.9124 14.7536 12.9705 14.8255 13.03C14.9668 13.1471 15.1627 13.3159 15.3851 13.5037C15.7097 13.7778 15.9406 14.0636 16.223 14.5046C16.4999 14.9372 16.8375 15.557 17.1185 16.1316C17.4033 16.7142 17.6369 17.266 17.8138 17.8054C17.99 18.3429 18.0961 18.8312 18.1507 19.0945C18.2391 19.5208 18.2966 19.9216 18.3314 20.3875C18.3338 20.4207 18.3671 20.7065 18.22 21.0027C18.0434 21.3583 17.7381 21.5053 17.5638 21.5652C17.4028 21.6205 17.2386 21.6414 17.1234 21.6531C16.9939 21.6661 16.8393 21.6757 16.6634 21.6834C15.9579 21.7142 14.5936 21.7364 12.7767 21.7644C10.9537 21.7925 8.68459 21.8256 7.52962 21.8318C7.12133 21.834 6.84611 21.8303 6.66145 21.8259C6.5403 21.8781 6.40721 21.9079 6.26692 21.908C5.71464 21.908 5.26692 21.4602 5.26692 20.908C5.26675 20.8973 5.265 20.7957 5.26595 20.6443C5.26702 20.472 5.27087 20.2195 5.27962 19.8875C5.29059 19.4723 5.36746 19.0743 5.39876 18.8933C5.44711 18.6136 5.4875 18.4743 5.60677 18.1462C5.71601 17.8458 5.91033 17.3327 6.05891 16.9656C6.29173 16.3903 6.43397 16.0949 6.59602 15.741C6.74521 15.4152 7.02228 14.9047 7.18489 14.6111C7.47049 14.0954 7.77112 13.7605 8.0472 13.4597C8.36929 13.1088 8.75929 12.8983 9.04036 12.7507C9.2791 12.6254 9.47781 12.5374 9.68489 12.4763C9.87332 12.4208 10.0609 12.393 10.1683 12.3738C10.4821 12.3177 11.0507 12.2599 11.3089 12.2312ZM6.98177 21.6375C6.98719 21.634 7.00733 21.6208 7.02864 21.6052C7.031 21.6035 7.03383 21.5998 7.03841 21.5964C7.01988 21.6101 7.00147 21.6249 6.98177 21.6375ZM6.3968 1.54077C6.76939 1.57214 7.00302 1.78619 7.09309 1.87866C7.19556 1.98394 7.27463 2.10127 7.33235 2.19507C7.45247 2.39027 7.59921 2.67962 7.79134 3.09741C8.12648 3.82623 8.67571 5.06091 9.20833 6.05542C9.73334 7.03566 10.2286 7.76173 10.4896 8.14624C10.7237 8.4911 10.7897 8.58774 10.8363 8.68042C11.0841 9.17396 10.8845 9.77533 10.3909 10.0232C9.8975 10.2707 9.29693 10.0713 9.04915 9.57788C9.04915 9.57789 9.05481 9.59066 9.06282 9.60523C9.07017 9.61857 9.07686 9.62839 9.07942 9.63257C9.08239 9.63742 9.07912 9.63288 9.06282 9.60816C9.03081 9.55961 8.966 9.46329 8.8343 9.26929C8.56702 8.87555 8.02287 8.07751 7.44563 6.99976C7.10453 6.36286 6.75923 5.636 6.46809 5.00757C5.94834 6.37336 5.17668 8.35951 4.63899 9.68238C4.38248 10.3135 4.18201 10.7829 4.02571 11.1404C4.06094 11.1414 4.0973 11.1421 4.13411 11.1433C4.52517 11.1557 5.00993 11.1786 5.36165 11.2517C5.52238 11.2851 5.82891 11.3606 6.08723 11.5876C6.43698 11.8953 6.52787 12.3131 6.47981 12.6628C6.44268 12.9323 6.32521 13.1664 6.24837 13.3084C6.16105 13.4697 6.04747 13.6485 5.93294 13.8279C5.46274 14.5642 4.63405 15.8064 4.19466 16.4744C3.75858 17.1373 3.71852 17.2151 3.55696 17.4978C3.41234 17.7509 3.1992 18.1218 3.03255 18.4167C3.30482 18.4026 3.58194 18.4984 3.79036 18.7058C4.1815 19.0955 4.18279 19.7286 3.79329 20.1199C3.78347 20.1297 3.68497 20.2345 3.53157 20.3191C3.37908 20.4032 3.23094 20.4389 3.1136 20.4548L3.06575 20.4617L3.0179 20.4626C2.78625 20.4717 2.5352 20.4509 2.30305 20.4304C2.23154 20.4277 2.15691 20.4281 2.07259 20.4285C1.99651 20.4288 1.89336 20.4299 1.80305 20.4275C1.7226 20.4254 1.57825 20.4196 1.43001 20.3855C1.35332 20.3679 0.873051 20.2625 0.652664 19.7625C0.545711 19.5195 0.557578 19.3004 0.569657 19.196C0.582651 19.0841 0.609376 18.9915 0.624344 18.9441C0.640547 18.8928 0.659238 18.8441 0.669266 18.8171C0.681844 18.7833 0.688757 18.7647 0.695633 18.7449C0.745216 18.602 0.812891 18.2917 1.17415 17.6394C1.35294 17.3166 1.65415 16.7969 1.82063 16.5056C2.00395 16.1848 2.06599 16.0716 2.52376 15.3757C2.90396 14.7978 3.52866 13.8542 3.99348 13.1394C3.65447 13.1299 3.22329 13.1246 2.98177 13.114C2.84536 13.108 2.682 13.0979 2.53255 13.0691C2.43421 13.0501 2.05328 12.9783 1.78938 12.6296C1.4716 12.2094 1.58101 11.7631 1.62044 11.6287C1.66281 11.4843 1.73341 11.3406 1.75911 11.2869C1.90313 10.986 2.16799 10.451 2.78645 8.92945C3.4102 7.39483 4.36046 4.94295 4.84407 3.65308C5.08095 3.02126 5.19687 2.66812 5.25911 2.47534C5.28317 2.4008 5.31786 2.28959 5.34798 2.21363C5.35791 2.18857 5.40973 2.0503 5.51985 1.9148C5.58507 1.83464 5.698 1.72137 5.86946 1.63843C6.05271 1.54988 6.23797 1.52746 6.3968 1.54077ZM16.2728 2.03882C16.6904 2.00924 16.984 2.21758 17.1273 2.3523C17.2644 2.48139 17.3569 2.62685 17.4115 2.71948C17.5232 2.90918 17.6393 3.16765 17.7523 3.4187C18.2449 4.51352 19.1925 6.67477 19.93 8.2146C20.6621 9.74324 21.1411 10.5576 21.4007 11.0457C21.4623 11.1615 21.5305 11.2931 21.5804 11.4197C21.62 11.5202 21.7162 11.7784 21.6702 12.0896C21.609 12.5041 21.347 12.7565 21.1409 12.8835C20.9886 12.9773 20.8218 13.0292 20.7757 13.0447C20.5618 13.1164 20.2067 13.2207 19.9329 13.3025C19.996 13.4078 20.0764 13.538 20.1741 13.7058C20.5547 14.3591 21.2548 15.5881 21.6947 16.408C22.1411 17.24 22.3092 17.6326 22.4173 17.908C22.4868 18.085 22.5444 18.2521 22.5794 18.4031C22.6011 18.4966 22.6786 18.8221 22.5365 19.1658L22.4036 19.4871L22.099 19.657C21.9434 19.7435 21.7512 19.7991 21.6654 19.824C21.5457 19.8587 21.4001 19.8952 21.2493 19.9343L21.2503 19.9353C21.1623 19.9602 21.1123 19.9776 20.9906 20.0291C20.4819 20.2436 19.8959 20.0054 19.681 19.4968C19.4662 18.9882 19.7037 18.4013 20.2122 18.1863C20.2545 18.1684 20.295 18.1537 20.3333 18.1384C20.241 17.9463 20.1142 17.693 19.932 17.3533C19.5077 16.5626 18.8207 15.3564 18.4456 14.7126C18.0804 14.0858 18.0303 14.0242 17.9486 13.9001C17.8623 13.7692 17.7047 13.518 17.6234 13.3308C17.598 13.2724 17.5626 13.1833 17.5404 13.075C17.5183 12.9676 17.497 12.7833 17.557 12.5691C17.6241 12.3294 17.7626 12.1586 17.8939 12.0496C17.9513 12.0019 18.0028 11.97 18.0316 11.9529C18.0464 11.944 18.0585 11.9364 18.0658 11.9324C18.0692 11.9305 18.0727 11.9295 18.0745 11.9285L18.0775 11.9265C18.1566 11.8837 18.5297 11.6398 19.099 11.4666C19.1647 11.4465 19.2382 11.4233 19.3158 11.4001C19.0365 10.8898 18.6332 10.1364 18.1263 9.07788C17.5457 7.86559 16.8348 6.27093 16.3216 5.1189C15.7768 6.24602 15.0609 7.72911 14.6585 8.56031C14.4037 9.08663 14.2743 9.35258 14.2083 9.48804C14.1758 9.55476 14.1571 9.59337 14.1458 9.61597C14.1435 9.62064 14.1149 9.67899 14.0755 9.73902C13.7728 10.2006 13.1535 10.3296 12.6917 10.0271C12.2299 9.72434 12.1009 9.10422 12.4036 8.64234C12.4036 8.64234 12.3995 8.6487 12.3949 8.65601C12.3895 8.66455 12.3834 8.67354 12.3783 8.68238C12.369 8.6981 12.3628 8.71081 12.3597 8.71656C12.3583 8.71912 12.3567 8.72162 12.3558 8.72339C12.3625 8.70999 12.3777 8.67929 12.4105 8.61206C12.4752 8.47915 12.6028 8.21477 12.8577 7.68823C13.3677 6.6349 14.3839 4.53498 14.9134 3.43921C15.0366 3.18424 15.1589 2.92843 15.2699 2.74195C15.3249 2.64947 15.4093 2.51717 15.5257 2.39722C15.6341 2.28562 15.884 2.06649 16.2728 2.03882ZM10.5208 14.3425C10.3253 14.3775 10.3013 14.3792 10.2503 14.3943C10.2176 14.404 10.1477 14.428 9.97005 14.5212C9.68949 14.6686 9.58414 14.7424 9.52083 14.8113C9.2677 15.0871 9.1011 15.2807 8.93489 15.5808C8.76667 15.8846 8.52661 16.328 8.41438 16.573C8.24563 16.9416 8.12577 17.1918 7.91341 17.7166C7.77556 18.0572 7.5895 18.547 7.48665 18.8298C7.43434 18.9737 7.41373 19.0361 7.40169 19.0789C7.39227 19.1124 7.38486 19.145 7.36946 19.2341C7.33606 19.4273 7.29986 19.6291 7.28548 19.8318C7.35654 19.8316 7.43415 19.8322 7.51888 19.8318C8.27379 19.8278 9.5156 19.8111 10.7982 19.7927C10.7534 19.6746 10.7302 19.5459 10.7337 19.4119C10.7365 19.3053 10.7392 19.203 10.7425 19.0574C10.7458 18.9091 10.7502 18.7204 10.7708 17.8855C10.7915 17.0499 10.8279 15.6136 10.846 14.823C10.8511 14.6001 10.8513 14.4295 10.8538 14.2966C10.7234 14.3128 10.6058 14.3273 10.5208 14.3425ZM12.845 14.8689C12.8269 15.662 12.7904 17.1023 12.7699 17.9353C12.7493 18.7679 12.7458 18.9545 12.7425 19.1023C12.7391 19.252 12.7365 19.3576 12.7337 19.4646C12.731 19.5698 12.7117 19.6709 12.679 19.7654C12.7016 19.765 12.724 19.7648 12.7464 19.7644C14.3036 19.7404 15.4958 19.7194 16.2298 19.696C16.218 19.6317 16.2063 19.5666 16.1927 19.5007C16.143 19.2608 16.0545 18.8588 15.9134 18.4285C15.7728 17.9997 15.5786 17.5352 15.3216 17.0095C15.0606 16.4759 14.7612 15.9292 14.5394 15.5828C14.323 15.2448 14.2165 15.1345 14.095 15.032C13.8522 14.827 13.6821 14.6802 13.5491 14.5701C13.5048 14.5334 13.4707 14.5068 13.4456 14.4871C13.3133 14.4374 13.1113 14.3893 12.8538 14.3455C12.8512 14.4801 12.8501 14.6501 12.845 14.8689Z" fill="black"/>
</svg>
