<svg width="24" height="24" viewBox="0 0 24 24" fill="none" xmlns="http://www.w3.org/2000/svg">
<path d="M19.0527 0.488714C19.4523 0.452625 19.9707 0.407559 20.4531 0.58637L20.6572 0.678167L20.7627 0.738714C21.272 1.05663 21.5159 1.58901 21.6933 1.9936C21.9113 2.49038 22.1757 3.19654 22.3555 3.7768C22.5418 4.37828 22.6342 4.84127 22.6846 5.32953C22.7339 5.80863 22.7399 6.28998 22.7051 6.81C22.6703 7.32844 22.5942 7.88569 22.4609 8.45063C22.3291 9.00963 22.1471 9.54445 22.0478 9.8266C22.039 9.85172 21.9772 10.0475 21.8633 10.2153C21.7913 10.3213 21.6762 10.4552 21.499 10.559C21.3165 10.6659 21.1269 10.7068 20.9609 10.7114C20.6826 10.719 20.4475 10.6229 20.3428 10.5786C20.2093 10.522 20.059 10.4446 19.9043 10.3627C19.261 10.0222 18.0084 9.30845 16.7822 8.44379C16.6574 8.35579 16.534 8.26535 16.4111 8.17524C16.3658 8.2593 16.3075 8.33874 16.2363 8.40961C16.1976 8.44819 16.1558 8.488 15.6582 8.96332C15.5483 9.06832 15.4144 9.19454 15.2666 9.33539C15.4348 9.40136 15.6028 9.46203 15.7715 9.51703C16.1371 9.63623 16.4975 9.72863 16.7471 9.7934C17.0189 9.86395 17.0661 9.87705 17.1045 9.8852C17.106 9.88554 17.1077 9.88604 17.1084 9.88618H17.1103C17.1111 9.88633 17.1125 9.88699 17.1142 9.88715C17.1192 9.88761 17.1255 9.88812 17.1377 9.8891C17.688 9.93365 18.099 10.4159 18.0547 10.9663C18.0102 11.5167 17.5269 11.9266 16.9765 11.8823C16.9199 11.8777 16.8227 11.8702 16.6904 11.8422C16.5928 11.8216 16.4619 11.7852 16.2451 11.7289C16.0046 11.6665 15.5849 11.5597 15.1514 11.4184C14.7129 11.2754 14.2755 11.1036 13.833 10.894C13.7846 10.8711 13.737 10.8453 13.6885 10.8217C13.626 10.8795 13.5668 10.9374 13.5088 10.9907C12.9544 11.4989 12.6159 11.7811 12.3799 11.9838C13.6562 12.0195 14.8743 12.0558 15.7637 12.0795C16.8543 12.1086 17.4284 12.1222 17.7295 12.1313C17.8738 12.1356 17.9813 12.1399 18.0586 12.1459C18.1236 12.1511 18.2201 12.1605 18.332 12.1938L18.4492 12.2358L18.5664 12.2924C18.8224 12.4342 18.9682 12.6342 19.043 12.7475C19.0852 12.8116 19.1242 12.8792 19.1514 12.9262C19.1824 12.98 19.2092 13.0274 19.2422 13.0825C19.3774 13.308 19.6223 13.7044 20.2187 14.8403C20.8092 15.9648 21.7447 17.8128 22.2519 18.8413C22.5038 19.3519 22.6527 19.6652 22.7402 19.8676C22.8022 20.0109 22.8564 20.1494 22.8887 20.2983L22.9131 20.4516L22.918 20.5297C22.9218 20.6331 22.9147 20.8069 22.8359 20.9965C22.725 21.2631 22.5363 21.4198 22.4111 21.5024C22.2198 21.6284 21.9721 21.7082 21.8115 21.7602C21.4119 21.8896 20.6184 22.1189 20.165 22.2573C19.6874 22.403 19.4452 22.491 18.751 22.6313C18.0523 22.7724 16.9178 22.9613 14.6533 23.0248C12.4112 23.0878 9.07325 23.0221 7.22557 22.9643C5.38041 22.9066 5.00424 22.8573 4.37694 22.6909C3.8587 22.5533 3.09747 22.3263 2.57225 22.1762C2.09316 22.0393 1.6546 21.9254 1.42479 21.8334C1.38087 21.8159 1.1844 21.7408 1.0117 21.5747C0.760583 21.3326 0.657875 21.0064 0.685531 20.6957C0.705184 20.4768 0.788069 20.3022 0.818344 20.2387C0.857994 20.1555 0.908039 20.0647 0.949203 19.9907C1.13338 19.6596 1.45416 19.097 1.73045 18.5395C2.00009 17.9954 2.2199 17.4668 2.48143 16.7739C2.74437 16.0771 3.03661 15.2472 3.19627 14.7807C3.40497 14.1709 3.47926 13.8052 3.53612 13.519L3.54198 13.4916L3.54881 13.4643C3.57372 13.3676 3.6127 13.2597 3.61913 13.2407C3.63007 13.2082 3.63528 13.1895 3.65623 13.1225C3.70332 12.9719 3.78399 12.8411 3.88573 12.7338C3.88605 12.7236 3.88607 12.7129 3.8867 12.7026C3.9213 12.1514 4.39605 11.7324 4.94725 11.767C4.97245 11.7686 4.99804 11.7676 5.11131 11.7719C4.99997 11.5097 4.87338 11.1659 4.8242 10.8452C4.7264 10.2056 5.0529 9.74956 5.29198 9.5141L5.42088 9.39594C5.7262 9.13344 6.07131 8.95486 6.34081 8.83344C6.4688 8.77578 6.62915 8.71055 6.76756 8.65668C6.76971 8.64965 6.77317 8.64248 6.77538 8.6352C6.85948 8.35779 6.94978 8.04214 7.08495 7.59223C7.30338 6.86518 7.66374 6.34538 8.15038 6.02289C8.73217 5.63766 9.24851 5.64043 9.53123 5.60688L9.58202 5.60102L9.63377 5.60004C9.80659 5.59724 9.97878 5.59918 10.1328 5.61078C10.254 5.61994 10.488 5.64209 10.709 5.74067L10.749 5.75824L10.7871 5.77875C10.8219 5.79806 10.853 5.81723 10.876 5.83149C10.8981 5.84524 10.9223 5.86124 10.9385 5.87153C10.9742 5.89427 11.003 5.91262 11.0351 5.9311C11.5139 6.20641 11.6786 6.81757 11.4033 7.29633C11.1279 7.77486 10.5167 7.93974 10.0381 7.66449C10.0012 7.64327 9.96783 7.62204 9.93846 7.60395C9.87977 7.60115 9.80052 7.59881 9.69823 7.60004C9.61725 7.6089 9.53445 7.61802 9.49315 7.6225C9.42265 7.63017 9.3854 7.63584 9.36034 7.64106C9.34055 7.64521 9.33022 7.6485 9.32225 7.6518C9.31315 7.6556 9.29173 7.66547 9.25487 7.68989C9.24424 7.69687 9.11811 7.77768 9.00096 8.16742C8.88351 8.55837 8.76588 8.96412 8.68944 9.21625C8.64872 9.35055 8.60929 9.47718 8.57323 9.57953C8.55546 9.62994 8.53301 9.68893 8.5078 9.74653C8.49545 9.77476 8.4371 9.912 8.32713 10.0424C8.21768 10.1722 8.09857 10.2568 7.99901 10.312C7.9191 10.3562 7.83685 10.3881 7.83202 10.3901C7.73181 10.4314 7.59557 10.4819 7.49608 10.52C7.38276 10.5633 7.2708 10.6077 7.16209 10.6567C7.04991 10.7072 6.95595 10.7561 6.87987 10.8022C6.90065 10.8592 6.92356 10.9241 6.95311 10.9936C7.04054 11.199 7.13494 11.3799 7.19041 11.4702C7.26257 11.5875 7.30741 11.7141 7.32713 11.8422C7.9944 11.8617 8.84614 11.8843 9.76854 11.9106C9.80868 11.766 9.88194 11.6282 9.98924 11.5092C10.0329 11.4609 10.073 11.4165 10.2197 11.269C10.3651 11.1228 10.6322 10.8579 10.9365 10.5893C11.2153 10.3433 11.4401 10.1623 11.9267 9.72309C11.8442 9.63832 11.7667 9.55139 11.7031 9.47797C11.5665 9.32036 11.428 9.14755 11.3291 9.01215C11.0034 8.56618 11.1009 7.94044 11.5469 7.61469C11.9928 7.2892 12.6186 7.38662 12.9443 7.83246C13.0046 7.91496 13.1072 8.04423 13.2148 8.1684C13.2677 8.22945 13.3171 8.28384 13.3584 8.3266C13.3714 8.3401 13.3829 8.35029 13.3916 8.35883C13.7323 8.03591 14.0514 7.73282 14.2773 7.51703C14.7822 7.03479 14.805 7.01173 14.8252 6.99164C14.8377 6.97917 14.8512 6.96718 14.8642 6.95551C14.405 6.56752 13.9986 6.20125 13.6777 5.89106C12.9395 5.17749 12.6447 4.75745 12.4648 4.44477C12.3879 4.31091 12.3259 4.18539 12.2803 4.06C12.2402 3.95003 12.2215 3.85681 12.2129 3.81098C12.0305 3.68393 11.888 3.49647 11.8223 3.26606C11.6709 2.73501 11.9788 2.18119 12.5098 2.02973C12.8005 1.94689 13.0374 1.88872 13.7353 1.6977C14.3708 1.52378 15.7073 1.12612 16.7295 0.883245C17.7803 0.633572 18.5044 0.538243 19.0527 0.488714ZM5.51366 13.8793C5.5092 13.8926 5.50426 13.9087 5.50096 13.9184C5.49705 13.9299 5.49382 13.9397 5.4912 13.9477C5.49032 13.9503 5.4889 13.9526 5.48827 13.9545C5.42216 14.2849 5.32581 14.7358 5.08885 15.4282C4.92474 15.9077 4.625 16.7589 4.35252 17.4809C4.07857 18.2067 3.83248 18.8025 3.52245 19.4282C3.38292 19.7097 3.23254 19.9926 3.09471 20.2456C3.1036 20.2481 3.113 20.2508 3.12205 20.2534C3.68945 20.4155 4.39439 20.6258 4.88963 20.7573C5.27513 20.8596 5.44802 20.9077 7.28807 20.9653C9.12761 21.0228 12.4164 21.087 14.5967 21.0258C16.7544 20.9653 17.7746 20.7875 18.3545 20.6704C18.9381 20.5525 19.0881 20.4946 19.581 20.3442C19.8911 20.2495 20.27 20.1345 20.6074 20.0336C20.563 19.9423 20.514 19.8396 20.458 19.726C19.9567 18.7096 19.0294 16.8768 18.4482 15.77C17.8881 14.7032 17.6598 14.3321 17.5361 14.1264C17.2138 14.1175 16.6663 14.104 15.7109 14.0786C13.5172 14.02 9.32934 13.9018 7.18651 13.8393C6.39609 13.8163 5.882 13.7962 5.54295 13.7856C5.53381 13.8147 5.52495 13.8458 5.51366 13.8793ZM13.0195 16.8539C13.564 16.7629 14.0796 17.1308 14.1709 17.6752C14.262 18.2199 13.8942 18.7354 13.3496 18.8266C13.1215 18.8648 12.8893 18.9056 12.3867 18.9204C11.9204 18.934 11.2212 18.9266 10.8584 18.9204L10.8467 18.9194C10.6403 18.9135 10.5195 18.9097 10.4473 18.9067C10.4113 18.9052 10.3874 18.9036 10.3721 18.9028H10.3984C9.84631 18.9026 9.39842 18.4549 9.39842 17.9028C9.3987 17.3509 9.84649 16.903 10.3984 16.9028C10.4242 16.9028 10.4465 16.9044 10.4521 16.9047C10.4591 16.905 10.468 16.9055 10.4726 16.9057C10.4843 16.9063 10.5028 16.9064 10.5322 16.9077C10.5926 16.9102 10.7034 16.9146 10.9043 16.9204L10.9033 16.9213C11.2672 16.9276 11.9159 16.9334 12.3271 16.9213C12.5258 16.9155 12.6545 16.9055 12.748 16.895C12.8425 16.8844 12.9126 16.8718 13.0195 16.8539ZM19.6933 2.45844C19.6016 2.45465 19.4627 2.45913 19.2324 2.47992C18.7736 2.52136 18.1441 2.60318 17.1914 2.82953C16.2311 3.05771 15.0267 3.41494 14.3086 3.61274C14.4228 3.77274 14.6358 4.03545 15.0674 4.45258C15.7218 5.08511 16.7969 6.00778 17.9346 6.81C18.8433 7.45082 19.7764 8.00547 20.416 8.36274C20.4503 8.24151 20.4851 8.1167 20.5146 7.99164C20.6201 7.54464 20.6817 7.09701 20.7099 6.67621C20.738 6.25706 20.7319 5.88976 20.6953 5.53461C20.6596 5.18869 20.596 4.85523 20.4453 4.3686C20.2879 3.86045 20.049 3.22527 19.8613 2.79731C19.7848 2.62295 19.7303 2.52108 19.6933 2.45844ZM17.4375 3.50532C17.6203 3.48654 17.8109 3.51747 17.9873 3.6059C18.0214 3.623 18.1034 3.66322 18.1924 3.72016C18.2667 3.76775 18.4181 3.87123 18.5488 4.03949C18.5833 4.08392 18.6737 4.20296 18.7344 4.3725C18.8009 4.55835 18.859 4.89436 18.6699 5.2436C18.5866 5.39721 18.3501 5.77326 17.8789 5.91449C17.7888 5.94145 17.6028 5.98724 17.373 5.95063C17.1144 5.90933 16.8871 5.77882 16.7207 5.59028C16.4688 5.30465 16.3262 4.92563 16.3056 4.55024C16.2757 3.99893 16.6977 3.52771 17.249 3.4975C17.3129 3.49404 17.3763 3.49711 17.4375 3.50532Z" fill="black"/>
</svg>
