<svg width="24" height="24" viewBox="0 0 24 24" fill="none" xmlns="http://www.w3.org/2000/svg">
<path d="M3.64536 1.16686C3.94118 0.978953 4.26751 0.968309 4.5272 1.04479C4.74355 1.10861 4.8955 1.22528 4.97055 1.28893C5.05512 1.36076 5.12545 1.4373 5.17759 1.49792C5.35426 1.70345 5.60665 2.07565 5.83774 2.3944C6.36988 3.12831 7.21178 4.1997 7.70786 4.82702C8.0555 5.26662 8.21897 5.47054 8.3143 5.58971C8.82718 5.32542 9.52699 5.13687 10.0487 5.00475C10.3319 4.93308 10.5615 4.92369 11.1541 4.91589C11.7768 4.90769 12.8985 4.90737 13.5077 4.911C13.9893 4.91389 14.3979 4.96748 14.7791 5.08385C15.1591 5.19993 15.4671 5.36503 15.7459 5.53307C15.7845 5.55631 15.8211 5.58259 15.8573 5.60632C16.2158 5.17697 16.793 4.61208 17.3856 4.05358C17.7125 3.74547 18.0571 3.43613 18.369 3.1571C18.686 2.87355 18.9625 2.62777 19.1727 2.43249C19.4477 2.17701 19.608 1.99714 19.6981 1.88659C19.8226 1.73367 19.7675 1.78911 19.8758 1.6444L19.9735 1.53112C20.0275 1.47742 20.1032 1.4141 20.201 1.36022C20.3135 1.29835 20.4982 1.22521 20.7332 1.2362C20.9829 1.24798 21.19 1.34976 21.3368 1.47448C21.5751 1.67727 21.6426 1.92751 21.6541 1.96764C21.6777 2.04952 21.6867 2.11872 21.6903 2.15026C21.7021 2.25635 21.7 2.38222 21.6991 2.4403C21.6964 2.61554 21.688 2.87688 21.6883 3.29675C21.6889 4.10438 21.7133 5.66433 21.8006 6.88171C21.8865 8.07836 22.0395 8.90528 22.1327 9.37975C22.2465 9.9593 22.3626 10.4519 22.494 11.4423C22.5833 12.1155 22.6183 13.0289 22.5252 14.0555C22.4318 15.0854 22.1892 16.1927 22.0272 16.8719C21.8683 17.5381 21.7302 17.9663 21.6034 18.2723C21.5386 18.4286 21.479 18.5479 21.4266 18.6444C21.3489 18.7875 21.3688 18.7431 21.3387 18.8016C21.2473 18.979 21.0649 19.2307 20.8319 19.5536C20.3393 20.236 19.7261 20.7852 19.2391 21.16C18.6765 21.593 18.1926 21.781 17.6834 21.9344C17.2965 22.051 16.6543 22.193 16.3192 22.2674C15.9306 22.3538 15.8029 22.368 15.3729 22.4364C14.9275 22.5073 14.08 22.6492 13.0145 22.7128C11.9586 22.7757 10.7286 22.7568 10.0428 22.7352C9.18081 22.7081 8.89666 22.646 8.52622 22.5878C7.79744 22.4732 7.29189 22.3085 7.15903 22.2626C7.00014 22.2076 6.47194 21.9732 5.77231 21.6278C5.31984 21.4044 4.89793 21.1159 4.73716 21.0223C4.46169 20.8622 4.18487 20.5979 3.95005 20.3544C3.69402 20.0888 3.40286 19.7566 3.09067 19.3876C2.72057 18.9501 2.54464 18.574 2.33872 18.076C2.13248 17.5773 1.88096 16.8672 1.71567 16.2938C1.54134 15.689 1.46731 15.2445 1.42368 14.6815C1.38233 14.1476 1.36873 13.5088 1.36509 13.159C1.36048 12.7166 1.40323 11.9967 1.45884 10.9979C1.513 10.025 1.66626 9.65881 1.75669 9.29479C1.78 9.20091 1.80542 9.11587 1.83481 9.01452C1.86606 8.90675 1.91152 8.74763 1.9852 8.47741C2.0543 8.22403 2.15656 7.86147 2.25766 7.50182C2.35968 7.13892 2.46162 6.77774 2.53208 6.5194C2.69103 5.93653 2.74439 5.67882 2.84946 5.17467C2.89938 4.93515 2.94016 4.5415 2.97251 3.86217C2.98689 3.5599 2.99932 3.11504 3.02036 2.77233C3.03141 2.59246 3.04706 2.40546 3.07016 2.23815C3.08911 2.10114 3.1263 1.86633 3.22446 1.65514C3.27711 1.54202 3.39715 1.32471 3.64536 1.16686ZM4.93637 4.52428C4.90649 4.94595 4.86737 5.29547 4.80747 5.58288C4.69903 6.10319 4.63527 6.40597 4.46079 7.04577C4.38783 7.31327 4.28462 7.68294 4.18345 8.04284C4.08137 8.40596 3.98143 8.75976 3.91489 9.00378C3.74498 9.62684 3.73287 9.63716 3.69809 9.77721C3.66769 9.89962 3.6351 10.0124 3.61118 10.0985C3.58605 10.1889 3.56595 10.2657 3.5477 10.3485C3.51289 10.5068 3.4772 10.7268 3.45591 11.1092C3.39767 12.1553 3.36137 12.7815 3.36509 13.1385C3.36861 13.476 3.38174 14.0614 3.41782 14.5272C3.45167 14.964 3.50317 15.2739 3.63755 15.7401C3.7811 16.238 4.00791 16.8774 4.18735 17.3114C4.367 17.7458 4.44857 17.8953 4.61802 18.0956C4.9211 18.4538 5.17963 18.747 5.39048 18.9657C5.49547 19.0746 5.58156 19.1581 5.64927 19.2176C5.705 19.2666 5.73505 19.2879 5.74204 19.2928C6.14953 19.5298 6.25431 19.635 6.65708 19.8339C7.00176 20.004 7.2882 20.1389 7.49595 20.2333C7.7172 20.3338 7.8149 20.3732 7.81333 20.3729C7.86688 20.3914 8.25454 20.5206 8.83677 20.6122C9.19321 20.6682 9.37473 20.7132 10.1053 20.7362C10.7706 20.7571 11.9299 20.7733 12.8954 20.7157C13.8513 20.6587 14.6102 20.5321 15.0584 20.4608C15.5218 20.3871 15.5714 20.3849 15.8846 20.3153C16.2517 20.2337 16.8073 20.1095 17.1063 20.0194C17.4765 19.9078 17.7139 19.8102 18.0194 19.5751C18.4164 19.2695 18.8693 18.8553 19.2098 18.3837C19.3414 18.2014 19.4311 18.0758 19.493 17.9862C19.5618 17.8867 19.5704 17.8682 19.5614 17.8856C19.6708 17.6731 19.6745 17.7026 19.7557 17.5067C19.828 17.3322 19.9373 17.0141 20.0819 16.4081C20.239 15.7493 20.4531 14.7561 20.5331 13.8749C20.6132 12.9907 20.5806 12.2261 20.5116 11.7049C20.3906 10.7933 20.2908 10.382 20.1698 9.7655C20.0676 9.24501 19.9002 8.33114 19.8065 7.02428C19.7523 6.26853 19.7223 5.39971 19.7059 4.6444C19.7049 4.6453 19.704 4.64644 19.703 4.64733C19.3922 4.92533 19.0644 5.22058 18.7577 5.50964C18.1165 6.11392 17.6083 6.61959 17.3563 6.93249C17.1747 7.15802 17.0598 7.32575 16.9686 7.45592C16.9368 7.50135 16.8629 7.60851 16.7831 7.69518C16.7516 7.72933 16.6339 7.85802 16.4442 7.94811C16.336 7.99947 16.1646 8.05764 15.951 8.04675C15.7234 8.035 15.5243 7.94902 15.3729 7.82995C15.3152 7.78449 15.2686 7.73816 15.244 7.71374C15.2163 7.68634 15.1877 7.65737 15.1668 7.63561C15.1206 7.58719 15.0811 7.54476 15.034 7.49889C14.9423 7.40964 14.8372 7.32043 14.7137 7.24596C14.4986 7.11632 14.3507 7.04448 14.1952 6.99694C14.0406 6.94976 13.8321 6.91304 13.4959 6.911C12.8927 6.9074 11.785 6.90695 11.1805 6.91491C10.8722 6.91897 10.7187 6.9241 10.6288 6.93053C10.5648 6.93513 10.557 6.93863 10.5389 6.94323C9.9056 7.10362 9.41257 7.25669 9.18638 7.3905C8.90136 7.55925 8.87925 7.61788 8.87583 7.62389C8.60272 8.10345 7.99237 8.27053 7.51255 7.99792C7.20104 7.82071 7.02105 7.50137 7.00766 7.16784C6.93404 7.07379 6.84813 6.95964 6.82016 6.9237C6.73495 6.81429 6.64975 6.71345 6.1395 6.06823C5.83023 5.67714 5.37301 5.09434 4.93637 4.52428ZM11.3299 14.0526C11.9949 14.113 12.5975 14.1661 13.0165 14.2098C13.2212 14.2312 13.4082 14.2528 13.5438 14.2753C13.5927 14.2834 13.7102 14.3032 13.8241 14.3436C13.8574 14.3555 13.9185 14.3791 13.9881 14.4178C14.0363 14.4447 14.2035 14.5395 14.3368 14.7362C14.4124 14.8482 14.4911 15.0152 14.5067 15.2264C14.5226 15.4443 14.4663 15.6386 14.3817 15.7899C14.2684 15.9923 14.1123 16.1055 14.0223 16.16C14.0428 16.1466 14.0403 16.1458 14.0047 16.1747C13.9653 16.2067 13.9121 16.253 13.8348 16.3202C13.79 16.3592 13.7387 16.4023 13.6834 16.4501C13.6833 16.4513 13.6836 16.4527 13.6834 16.454C13.6775 16.5618 13.6674 16.6949 13.6541 16.8368L13.6551 16.8378C13.6534 16.8626 13.6524 16.885 13.6502 16.9364C13.6482 16.9864 13.6449 17.0513 13.6395 17.1424C13.6066 17.6935 13.133 18.1135 12.5819 18.0809C12.0307 18.048 11.6106 17.5746 11.6434 17.0233C11.6478 16.9498 11.6494 16.8985 11.6512 16.8534C11.6522 16.8301 11.6535 16.8043 11.6551 16.7762C11.6175 16.7438 11.5866 16.7176 11.576 16.7079L11.5653 16.6981C11.1962 16.3464 11.0331 16.2076 10.868 16.0731L10.8592 16.0673C10.6981 15.9782 10.5719 15.8506 10.4842 15.703C10.3126 15.5048 10.2174 15.2396 10.243 14.9579C10.2933 14.4083 10.7803 14.0029 11.3299 14.0526ZM7.84653 11.661C8.39861 11.6612 8.84653 12.1089 8.84653 12.661C8.84653 12.664 8.84653 12.6667 8.84653 12.6688C8.84674 12.6701 8.84719 12.6718 8.84751 12.6737C8.85891 12.7409 8.87468 12.8023 8.91489 12.9989C9.02525 13.5397 8.67624 14.0677 8.13559 14.1786C7.59457 14.2892 7.06665 13.9403 6.95591 13.3993C6.9359 13.3014 6.89271 13.113 6.87485 13.0077C6.84711 12.8437 6.84653 12.7345 6.84653 12.661C6.84653 12.1087 7.29425 11.661 7.84653 11.661ZM16.2928 11.8807C16.8419 11.8236 17.333 12.2223 17.3905 12.7714L17.4159 13.0067C17.4731 13.5558 17.0743 14.0478 16.5252 14.1053C15.9762 14.1625 15.4842 13.7637 15.4266 13.2147L15.4022 12.9784C15.3452 12.4295 15.7439 11.9383 16.2928 11.8807Z" fill="black"/>
</svg>
