<svg width="24" height="24" viewBox="0 0 24 24" fill="none" xmlns="http://www.w3.org/2000/svg">
<path d="M12.6642 0.403328L12.8088 0.433602L12.9054 0.465828C12.9282 0.474828 12.9501 0.486555 12.9718 0.497078C13.2145 0.436193 13.4801 0.464932 13.714 0.599618C13.7811 0.63825 13.8402 0.675154 13.8947 0.713875L14.0509 0.838875L14.0656 0.852547L14.0793 0.866219C14.1848 0.969685 14.3684 1.19137 14.5949 1.48927L14.8351 1.81153L14.8664 1.8545L14.8927 1.9004C15.1286 2.30727 15.3565 2.73832 15.4552 3.19239C15.4883 3.18909 15.5219 3.18849 15.5558 3.18848C15.6567 3.18848 15.7396 3.20299 15.7726 3.20899C15.8125 3.21625 15.855 3.22612 15.8918 3.23438C15.9656 3.25096 16.091 3.27981 16.2716 3.3213C16.7091 3.42176 17.0654 3.49648 17.3664 3.56348C17.509 3.59524 17.6437 3.6269 17.7541 3.65626C17.8089 3.67085 17.8703 3.68783 17.9298 3.70802C17.9512 3.71526 17.99 3.72893 18.0373 3.74903L18.1974 3.83009L18.3127 3.90821C18.4303 3.99286 18.5519 4.09515 18.6545 4.18458C18.8096 4.31991 18.9916 4.48687 19.1847 4.66895C19.5639 5.02655 19.7641 5.50286 19.9894 6.02345C20.1761 6.45472 20.3984 7.08796 20.5412 7.56641C20.7148 8.14845 20.7599 8.56341 20.8634 10.3477C20.9687 12.1624 21.1352 15.4846 21.217 17.5039C21.299 19.5303 21.2912 20.1591 21.3009 20.6748C21.3104 21.1756 21.337 21.5796 21.3654 22.0166C21.4011 22.5676 20.9828 23.0433 20.4318 23.0791C19.881 23.1147 19.4053 22.6973 19.3693 22.1465C19.3409 21.7099 19.3123 21.2648 19.3019 20.7129C19.2918 20.1759 19.2989 19.5833 19.2179 17.585C19.1366 15.578 18.972 12.2677 18.8673 10.4639C18.761 8.63094 18.7194 8.45693 18.6242 8.1377C18.4979 7.71458 18.3013 7.15891 18.1535 6.81739C18.0265 6.52395 17.9503 6.35504 17.8879 6.24024C17.8596 6.18832 17.8404 6.15988 17.8293 6.14454C17.8198 6.13158 17.8149 6.12619 17.8127 6.12403C17.6286 5.95044 17.4675 5.80355 17.34 5.69239C17.2872 5.64634 17.2425 5.6097 17.2072 5.58106C17.1411 5.56429 17.051 5.54218 16.9318 5.51563C16.6663 5.45653 16.2636 5.37162 15.8234 5.27052C15.6953 5.24109 15.6066 5.2201 15.5412 5.20509C15.5366 5.25476 15.5333 5.30478 15.5275 5.3545C15.4833 5.73721 15.4249 6.1281 15.258 6.50684C15.1177 6.82485 14.7954 7.32386 14.3205 7.82227C14.0539 8.10197 13.6703 8.45517 13.047 8.49024C12.7001 8.50976 12.3275 8.526 11.9875 8.49317C11.638 8.45935 11.2323 8.36646 10.8654 8.09962C10.3183 7.7017 9.81548 7.23863 9.55876 6.57911C9.48673 6.394 9.36285 6.07693 9.2736 5.65333C9.25006 5.65789 9.22649 5.66312 9.20231 5.66602C8.99241 5.69123 8.37136 5.8007 7.95036 5.89845C7.60202 5.97934 7.42006 6.04081 7.28825 6.09473C7.11794 6.16446 7.04914 6.2077 6.7609 6.3418C6.72366 6.35921 6.64085 6.41458 6.27067 6.81251C6.26845 6.81731 6.26646 6.82327 6.26383 6.82911C6.24661 6.86697 6.22379 6.91761 6.19254 6.98927C6.07368 7.26193 5.86601 7.7588 5.68766 8.28614C5.50938 8.81336 5.36143 9.37182 5.27751 9.71485C5.19726 10.0429 5.18907 10.1199 5.16325 10.252C5.1525 10.3069 5.12607 10.3715 4.96208 12.1904C4.79949 13.9938 4.50555 17.4774 4.34782 19.3047C4.20449 20.965 4.17803 21.1802 4.16129 21.2881L4.16325 21.2891C4.15602 21.3408 4.15028 21.3879 4.14469 21.4307C4.14656 21.4419 4.15001 21.4534 4.15153 21.4649C4.22301 22.0122 3.83654 22.5141 3.28922 22.5859C3.10559 22.61 2.89683 22.5854 2.6984 22.4854C2.50896 22.3897 2.38686 22.2546 2.31364 22.1465C2.18372 21.9546 2.15259 21.7678 2.14372 21.71C2.12223 21.5697 2.13222 21.4426 2.13395 21.415L2.13493 21.3945L2.13688 21.374C2.14894 21.2582 2.16555 21.1349 2.18278 21.0117L2.18669 20.9883C2.18835 20.9794 2.19753 20.953 2.35465 19.1328C2.51166 17.3141 2.80687 13.8189 2.96989 12.0108C3.13143 10.2191 3.16587 10.0444 3.20036 9.86817C3.21967 9.76939 3.24058 9.62676 3.33512 9.24024C3.42631 8.86752 3.58945 8.24785 3.79313 7.64552C3.99683 7.04319 4.22918 6.48849 4.35954 6.18946C4.46806 5.94048 4.55458 5.72241 4.76579 5.49415C5.08998 5.14381 5.45018 4.74568 5.91715 4.52833C6.33599 4.33344 6.60743 4.15707 7.49821 3.9502C7.97236 3.84012 8.66733 3.71537 8.96501 3.6797C9.03578 3.67126 9.10574 3.67061 9.17399 3.67677C9.19479 3.31018 9.24207 2.94538 9.34001 2.62305C9.45834 2.23369 9.64043 1.59485 10.258 1.14454C10.7746 0.768082 11.1229 0.647808 11.4543 0.555672C11.6889 0.490458 11.9187 0.446019 12.1076 0.41993C12.2013 0.406998 12.297 0.396788 12.3849 0.392586C12.4127 0.391247 12.527 0.383965 12.6642 0.403328ZM11.173 10.9297C11.5523 10.9233 12.2559 10.9099 12.6974 10.9346C13.2688 10.9665 13.857 11.0264 14.5461 11.3496C14.8017 11.4696 15.0261 11.5792 15.2004 11.6748C15.2868 11.7222 15.3779 11.7759 15.4611 11.833C15.5055 11.8635 15.6024 11.9307 15.6994 12.0332L15.7951 12.1475L15.8693 12.2617C15.8983 12.3112 15.9295 12.3719 15.9562 12.4414C16.0109 12.5838 16.0715 12.8269 15.9982 13.1133C15.9552 13.2808 15.8779 13.4148 15.8312 13.4912C15.7765 13.5807 15.7067 13.6806 15.6232 13.792C15.4545 14.0169 15.184 14.352 14.7502 14.8623C14.5664 15.0785 14.2636 15.4785 13.9582 15.7803C13.4903 16.2425 13.2518 16.4829 13.1017 16.6758L13.4132 17.085L13.4582 17.1455L13.4933 17.2119C13.6834 17.5683 14.0034 18.1775 14.2912 18.8906C14.4105 19.1864 14.608 19.6414 14.5529 20.2481C14.5215 20.5928 14.4622 20.9962 14.3498 21.3594C14.2934 21.5413 14.2143 21.7442 14.0988 21.9346C13.9861 22.1203 13.8029 22.3527 13.5148 22.5098C13.3726 22.5873 13.0662 22.7661 12.6359 22.8623C12.1974 22.9604 11.6855 22.9646 11.0724 22.8232C10.7827 22.7564 10.48 22.6709 10.214 22.54C9.94001 22.4051 9.6268 22.1834 9.43376 21.8047C9.27832 21.4996 8.91124 20.7254 9.04313 19.9004C9.12144 19.4111 9.2294 18.8512 9.57536 18.1943C9.75865 17.8464 10.037 17.3031 10.4523 16.834C10.5227 16.7545 10.5875 16.681 10.6476 16.6133C10.6319 16.5883 10.6175 16.5647 10.6037 16.543L10.4963 16.3984C10.4493 16.3432 10.386 16.2741 10.2463 16.124L10.2384 16.1162L10.2316 16.1074C9.89678 15.7315 9.60618 15.3993 9.38883 15.1416C9.28066 15.0134 9.18658 14.8986 9.11247 14.8047C9.05555 14.7326 8.96289 14.6143 8.90055 14.5039C8.83788 14.3928 8.60623 14.0143 8.45426 13.7061C8.37485 13.545 8.28062 13.334 8.22575 13.1152C8.18932 12.9698 8.0743 12.474 8.39079 12.0234L8.52751 11.8535C8.86722 11.4872 9.33769 11.3168 9.78629 11.1758C9.8286 11.1625 9.84673 11.1548 9.93766 11.1231C10.0152 11.096 10.1147 11.0632 10.2375 11.0332C10.4868 10.9724 10.7779 10.9364 11.173 10.9297ZM11.8175 18.3262C11.6503 18.553 11.5064 18.8202 11.3449 19.127C11.151 19.4952 11.0843 19.8001 11.0177 20.2158C11.0105 20.2609 11.0125 20.3542 11.0539 20.5C11.0799 20.5917 11.1173 20.6827 11.1554 20.7676C11.1776 20.7761 11.2044 20.7881 11.2384 20.7988C11.312 20.8221 11.4055 20.847 11.5226 20.874C11.8804 20.9565 12.0869 20.9353 12.1994 20.9102C12.2793 20.8923 12.3391 20.8653 12.4181 20.8252C12.4243 20.8084 12.4328 20.7897 12.4396 20.7676C12.4937 20.5929 12.5354 20.3451 12.5607 20.0674C12.5668 20.0009 12.5671 19.9644 12.4357 19.6387C12.2272 19.122 11.9941 18.6625 11.8175 18.3262ZM11.2062 12.9287C10.9184 12.9336 10.7808 12.9596 10.7111 12.9766C10.6748 12.9854 10.6422 12.9959 10.5968 13.0117C10.565 13.0229 10.4701 13.0567 10.3898 13.082C10.4067 13.1118 10.422 13.1435 10.4396 13.1738C10.5002 13.278 10.5906 13.4282 10.6427 13.5205C10.6167 13.4745 10.6106 13.474 10.6828 13.5654C10.738 13.6354 10.8169 13.7316 10.9181 13.8516C11.1169 14.0872 11.3888 14.3997 11.7101 14.7608L11.9201 14.9922C12.1133 14.789 12.3269 14.5806 12.5529 14.3574C12.7813 14.1317 12.9068 13.9417 13.2257 13.5664C13.3718 13.3946 13.4945 13.2453 13.5998 13.1182C13.298 12.9925 13.0237 12.9551 12.5861 12.9307C12.2353 12.9111 11.6203 12.9217 11.2062 12.9287ZM7.10856 8.56349C7.66067 8.56363 8.10847 9.01137 8.10856 9.56349C8.10856 9.57481 8.10789 9.58949 8.10465 9.84474C8.10132 10.1079 8.09493 10.6318 8.08805 11.1709C8.08101 11.7231 7.62757 12.1652 7.07536 12.1582C6.52319 12.1511 6.08105 11.6977 6.08805 11.1455C6.09493 10.6063 6.10132 10.0824 6.10465 9.81934C6.10632 9.68812 6.10717 9.6216 6.10758 9.5879L6.10856 9.56349C6.10865 9.01131 6.55638 8.56354 7.10856 8.56349ZM17.1144 8.74903C17.6666 8.74911 18.1144 9.1968 18.1144 9.74903C18.1144 9.85305 18.1139 9.94752 18.1242 10.1445C18.1351 10.3539 18.1578 10.6678 18.1818 11.0068C18.2208 11.5576 17.8057 12.036 17.255 12.0752C16.7042 12.1142 16.2258 11.6993 16.1867 11.1484C16.1633 10.8178 16.1392 10.4815 16.1271 10.249C16.1144 10.0042 16.1144 9.87153 16.1144 9.74903C16.1144 9.19675 16.5621 8.74903 17.1144 8.74903ZM12.7443 2.37403C12.6521 2.39362 12.556 2.40025 12.4591 2.39259C12.4418 2.39409 12.4154 2.39664 12.381 2.40138C12.2758 2.41592 12.1342 2.44345 11.9904 2.48341C11.883 2.51327 11.8239 2.53175 11.759 2.56153C11.6927 2.59192 11.5921 2.64682 11.4357 2.76075C11.4243 2.76904 11.4128 2.77765 11.3898 2.82227C11.3545 2.89084 11.3179 2.99181 11.2531 3.20509C11.1643 3.49793 11.1482 4.00012 11.1691 4.72169C11.184 5.23421 11.3252 5.60476 11.422 5.85352C11.4676 5.97055 11.5894 6.15211 12.0324 6.47559C12.0456 6.48051 12.0881 6.49404 12.1798 6.50294C12.3286 6.5173 12.5252 6.51273 12.8156 6.49805C12.831 6.48293 12.8512 6.46545 12.8732 6.44239C13.2252 6.07305 13.3999 5.7632 13.4279 5.7002C13.4636 5.61917 13.4989 5.49044 13.5412 5.12501C13.6025 4.59477 13.5646 4.02428 13.507 3.6377C13.4939 3.54981 13.4327 3.37617 13.1896 2.95216C13.0383 2.74644 12.9141 2.58315 12.8205 2.46583C12.7905 2.42828 12.7644 2.39841 12.7443 2.37403ZM12.3986 2.38575C12.4034 2.38634 12.4089 2.38631 12.4132 2.38673C12.4056 2.38577 12.3975 2.38495 12.3898 2.3838C12.3929 2.38421 12.3961 2.38536 12.3986 2.38575Z" fill="black"/>
</svg>
