<svg width="24" height="24" viewBox="0 0 24 24" fill="none" xmlns="http://www.w3.org/2000/svg">
<path d="M14.5946 0.517307C15.481 0.355851 16.1832 0.479746 16.6287 0.644261C16.9575 0.765749 17.2458 0.898564 17.4784 1.02903C17.6275 1.11274 17.8091 1.22636 17.9657 1.36594L18.1121 1.51438L18.2293 1.66379C18.4899 2.02451 18.6663 2.45733 18.7879 2.78391C18.9084 3.10781 18.9495 3.42536 18.9705 3.77121C18.9844 3.99896 18.989 4.19341 18.992 4.36008C19.1061 4.371 19.2315 4.38219 19.3612 4.39817C20.1589 4.4968 20.7301 5.05529 21.0838 5.42258C21.763 6.12817 21.7848 6.90599 21.7899 7.52219C21.7933 7.95256 21.6756 8.29126 21.5848 8.51145L21.5623 8.56614L21.534 8.61789C21.3532 8.94168 21.1004 9.11748 20.8973 9.22629L20.8963 9.22532C20.8419 9.25486 20.7632 9.29888 20.6395 9.3591C20.6355 9.36103 20.6308 9.36212 20.6268 9.36399C20.7407 9.60793 20.8052 9.8222 20.8407 9.94407C21.0036 10.5038 21.1462 11.2429 21.1756 11.4275C21.2003 11.5825 21.2385 11.7654 21.3221 13.4353C21.4057 15.1054 21.5392 18.3011 21.5877 19.9538C21.6113 20.7565 21.6159 21.2309 21.5936 21.5036C21.5875 21.5775 21.5776 21.6691 21.5565 21.7624C21.5378 21.8444 21.4936 22.009 21.3768 22.1755C21.2304 22.3839 21.0108 22.536 20.7528 22.5954C20.6471 22.6197 20.5583 22.6231 20.5057 22.6228C20.4586 22.6225 20.4172 22.6193 20.4119 22.6189C20.2773 22.6078 20.1586 22.5918 19.8983 22.5798C19.6429 22.568 19.2699 22.562 17.2567 22.5622C15.2591 22.5625 11.6585 22.5692 9.77913 22.5681C7.9378 22.567 7.80425 22.5586 7.6932 22.5476C7.69148 22.5474 7.68 22.547 7.65609 22.5456C7.6303 22.5442 7.59612 22.5424 7.55452 22.5407C7.47088 22.5374 7.36323 22.5336 7.23714 22.53C6.98383 22.5229 6.66935 22.5158 6.33675 22.5075H6.32015L6.30355 22.5066C6.23197 22.5024 6.1732 22.497 6.12581 22.4919C6.05438 22.4843 6.07326 22.4859 6.04476 22.4831C6.04074 22.4827 6.03917 22.4826 6.0223 22.4812C6.01048 22.4802 5.98153 22.4775 5.94906 22.4734C5.88464 22.4651 5.74343 22.4434 5.58577 22.3659C5.2111 22.1818 5.00329 21.7943 5.02913 21.4021C5.02776 21.3954 5.02547 21.3883 5.02425 21.3816C4.96558 21.0566 4.88303 20.1034 4.89534 19.6286C4.89776 19.5359 4.90146 19.4493 4.90413 19.3669C4.74695 19.3554 4.58991 19.3078 4.4471 19.2185C4.30677 19.1307 4.1941 19.0597 4.12679 19.0202C3.97685 18.9493 3.72494 18.8299 3.53206 18.6657L3.50667 18.6443L3.48226 18.6208C3.48186 18.6205 3.47741 18.6168 3.46859 18.6091C3.45917 18.6009 3.4466 18.5887 3.42855 18.5739C3.39178 18.5439 3.34188 18.5053 3.27425 18.4538C3.13719 18.3495 2.95188 18.2134 2.69222 18.0212C2.41107 17.8131 1.96365 17.4689 1.72152 17.279C1.6225 17.2014 1.518 17.1214 1.45296 17.0652C1.42939 17.0448 1.33343 16.963 1.24984 16.8445C1.20243 16.7772 1.12897 16.6564 1.0887 16.489C1.04375 16.3019 1.05283 16.1087 1.11117 15.9314L1.16195 15.8054C1.29463 15.5257 1.52388 15.3477 1.68831 15.2312C1.91538 15.0703 2.272 14.8615 2.84554 14.571C3.43768 14.2711 4.35685 13.8314 4.80941 13.6159C5.03608 13.508 5.15371 13.4531 5.21468 13.4245C5.2423 13.4116 5.26664 13.3999 5.28597 13.3913C5.29008 13.3895 5.32191 13.3748 5.36019 13.3611C5.37961 13.3541 5.43149 13.3367 5.49886 13.323L5.50081 13.322C5.54146 13.0156 5.58317 12.7152 5.62386 12.4489C5.75943 11.5618 5.88249 11.0749 5.95492 10.7986C6.05408 10.4205 6.24663 9.97645 6.50277 9.39621C6.65653 9.048 6.81334 8.78572 7.02425 8.45871C7.26263 8.08914 7.46924 7.7901 7.62972 7.57004C7.76611 7.38303 7.91925 7.18239 8.03499 7.07199L8.19515 6.92942C8.57426 6.61461 8.99385 6.41492 9.31722 6.34055C9.45535 6.30882 9.86788 6.23567 10.2811 6.16477C10.2797 6.15186 10.2776 6.13889 10.2762 6.12571C10.2172 5.57186 10.3426 5.11857 10.4842 4.72043C10.5953 4.40799 10.7885 4.0257 11.0184 3.62278C11.2596 3.20012 11.5691 2.72754 11.7909 2.41184C12.1778 1.86097 12.5532 1.52953 12.9491 1.22629C13.4776 0.821558 14.0292 0.620372 14.5946 0.517307ZM14.2108 7.74094C13.9062 7.71236 13.6862 7.7069 13.2362 7.75168C12.7522 7.79987 12.0559 7.89987 11.6659 7.95969C11.4758 7.98885 11.3686 8.00695 11.3045 8.01828C11.2727 8.02392 11.2489 8.02797 11.2274 8.03196C11.2076 8.03562 11.1794 8.0408 11.1493 8.04563C10.6168 8.13089 9.89167 8.26082 9.76546 8.28977C9.78528 8.2852 9.743 8.29432 9.65902 8.34055C9.58678 8.38036 9.50633 8.43608 9.43148 8.50461C9.42538 8.51194 9.41609 8.52377 9.40413 8.53879C9.36674 8.58575 9.31362 8.65594 9.24593 8.74875C9.11035 8.93467 8.92493 9.2016 8.70492 9.5427C8.51931 9.83047 8.42586 9.99324 8.33284 10.2038C8.05495 10.8333 7.93939 11.1154 7.88949 11.3054C7.83115 11.528 7.72444 11.9456 7.6014 12.7507C7.47508 13.5774 7.3312 14.7655 7.26839 15.3845C7.19915 16.0671 7.18374 16.2645 7.13558 16.782C7.10482 17.1124 7.04613 17.6925 7.01156 18.0066C6.9935 18.1706 6.98008 18.2678 6.97054 18.3366C6.96054 18.4088 6.96074 18.411 6.9598 18.4226C6.92376 18.8606 6.90888 19.1601 6.89534 19.6804C6.8915 19.8281 6.90438 20.1077 6.92757 20.407C6.9306 20.446 6.9342 20.4844 6.93734 20.5212C7.36564 20.5318 7.7466 20.5439 7.89144 20.5583C7.88976 20.5582 7.88747 20.5575 7.88558 20.5573C7.88762 20.5574 7.89115 20.5572 7.89534 20.5573C7.92419 20.5584 7.98499 20.5608 8.11019 20.5622C8.36009 20.5652 8.84063 20.5675 9.78011 20.5681C11.6622 20.5692 15.2478 20.5625 17.2557 20.5622C18.6026 20.562 19.2355 20.5668 19.6004 20.573C19.5972 20.4161 19.5951 20.2305 19.5887 20.0124C19.5407 18.3766 19.4081 15.1948 19.325 13.5349C19.242 11.8751 19.2067 11.7838 19.2 11.7419C19.1799 11.6153 19.0542 10.9611 18.9207 10.5027C18.885 10.38 18.8529 10.2792 18.8006 10.1765C18.7602 10.0971 18.5593 9.7786 18.2235 9.35129C18.1486 9.25602 18.0905 9.18496 18.0076 9.10617C17.9241 9.02671 17.798 8.92362 17.5936 8.79367C17.35 8.63884 17.002 8.45571 16.6102 8.29953C16.2199 8.14398 15.7978 8.01809 15.3758 7.92453C14.9522 7.83065 14.5441 7.77225 14.2108 7.74094ZM5.23617 15.6286C4.77997 15.8472 4.19991 16.1272 3.78304 16.3376C3.81814 16.3639 3.8507 16.3899 3.88167 16.4128C4.29398 16.718 4.60951 16.9506 4.8055 17.1247C4.81036 17.1276 4.81919 17.133 4.83284 17.1404C4.8802 17.1658 4.94035 17.1938 5.04476 17.2439L5.07699 17.2585C5.10146 17.0193 5.12817 16.7704 5.14437 16.5964C5.1796 16.2178 5.19963 16.0031 5.23617 15.6286ZM11.0701 10.5525C11.2538 10.5525 11.4252 10.6037 11.5731 10.6902L11.6434 10.7029L11.6951 10.7155L11.7459 10.7341C12.0267 10.8354 12.2764 10.96 12.4559 11.0886L12.5233 11.1364L12.5819 11.195C12.7718 11.3857 13.0881 11.8105 13.2391 12.3015C13.3397 12.6288 13.4751 13.1359 13.4813 13.7751C13.4839 14.0554 13.4858 14.5113 13.3787 14.9587C13.3115 15.2399 13.2344 15.5733 13.1326 15.8484C13.0413 16.0952 12.8464 16.5442 12.3875 16.7995C12.1525 16.9303 11.704 17.1488 11.1834 17.0993C10.9589 17.078 10.6614 17.0356 10.3651 16.9392C10.0792 16.8462 9.69343 16.6698 9.40511 16.3122C9.25049 16.1204 9.0691 15.8693 8.9139 15.5915C8.76562 15.326 8.60295 14.968 8.55355 14.5749C8.50969 14.2249 8.46796 13.7336 8.55355 13.1755C8.58808 12.9505 8.62141 12.7282 8.65218 12.5593C8.66781 12.4735 8.68711 12.3776 8.71175 12.2868C8.73058 12.2176 8.77579 12.0563 8.87679 11.8982L9.0057 11.7204C9.15248 11.5401 9.36119 11.3536 9.69417 11.1667C9.97002 11.012 10.1946 10.8879 10.3514 10.8025C10.4294 10.76 10.4923 10.7266 10.5369 10.7029C10.5587 10.6913 10.5791 10.6801 10.5955 10.6716C10.6029 10.6678 10.6151 10.6622 10.6278 10.656C10.633 10.6534 10.6471 10.6462 10.6649 10.6384C10.6725 10.635 10.6941 10.6252 10.7215 10.615C10.7346 10.6101 10.7623 10.6006 10.7977 10.5905C10.8078 10.5877 10.922 10.5525 11.0701 10.5525ZM10.6727 12.9109C10.6486 12.9244 10.6296 12.9385 10.6131 12.9489C10.5906 13.0776 10.5669 13.2456 10.5311 13.4792C10.4862 13.7724 10.5038 14.0532 10.5379 14.3259C10.5415 14.3534 10.568 14.4513 10.66 14.6159C10.737 14.7537 10.8356 14.894 10.9315 15.0163C10.9431 15.0215 10.9596 15.0301 10.9832 15.0378C11.0589 15.0624 11.1581 15.0797 11.2743 15.0945C11.2913 15.0421 11.3131 14.9773 11.3348 14.8952C11.3655 14.7791 11.3962 14.6487 11.4334 14.4929C11.4769 14.311 11.484 14.0808 11.4813 13.7947C11.4778 13.4305 11.4018 13.1327 11.327 12.8894C11.3146 12.8492 11.2845 12.7832 11.2371 12.7087C11.23 12.6975 11.2215 12.6874 11.2147 12.6775C11.1948 12.6682 11.1718 12.6586 11.1463 12.6482C11.0164 12.7196 10.8563 12.8079 10.6727 12.9109ZM15.9364 2.52024C15.8153 2.47553 15.4754 2.38992 14.953 2.48508C14.6306 2.54385 14.3922 2.6409 14.1659 2.81418C13.871 3.04006 13.6604 3.22971 13.4276 3.56125C13.2327 3.83878 12.9589 4.25785 12.7557 4.61399C12.5411 4.9901 12.4184 5.24868 12.368 5.39035C12.2828 5.62991 12.2607 5.75296 12.2625 5.85422C12.5288 5.81876 12.8026 5.78488 13.0379 5.76145C13.6118 5.70434 13.9613 5.7087 14.3983 5.74973C14.8065 5.78808 15.2973 5.85886 15.8094 5.97239C16.3234 6.08635 16.849 6.24226 17.3504 6.44211C17.8505 6.64147 18.3114 6.87932 18.6668 7.1052C19.045 7.34556 19.2992 7.56407 19.4891 7.75949C19.5669 7.68041 19.6591 7.61256 19.7645 7.56125C19.7726 7.55727 19.7805 7.55222 19.7879 7.54856C19.788 7.5453 19.7899 7.542 19.7899 7.53879C19.7874 7.23837 19.7757 7.09422 19.7508 6.99485C19.7349 6.93154 19.713 6.8827 19.6434 6.81028C19.4766 6.63702 19.3521 6.52479 19.2498 6.45383C19.2022 6.4208 19.1672 6.4026 19.1453 6.39328C19.1276 6.38578 19.1182 6.38388 19.116 6.38352C18.9702 6.36555 18.8272 6.35148 18.6864 6.3386C18.5522 6.32633 18.4044 6.31396 18.2772 6.29953C18.1565 6.28583 17.9981 6.26466 17.8504 6.22532C17.7758 6.2054 17.6674 6.17171 17.5535 6.11203C17.4462 6.05568 17.259 5.93675 17.119 5.71262C17.0032 5.52704 16.9682 5.34411 16.9608 5.21262C16.9549 5.10896 16.9663 5.02024 16.9686 4.99973C16.9768 4.92713 16.9794 4.91598 16.9852 4.84446C16.9953 4.7202 17.0082 4.44616 16.9744 3.89231C16.9581 3.62476 16.9327 3.53442 16.9129 3.48117C16.7913 3.15474 16.6887 2.9504 16.6121 2.84348C16.5879 2.82694 16.5504 2.80212 16.4989 2.77317C16.3694 2.70056 16.1793 2.61004 15.9364 2.52024Z" fill="black"/>
</svg>
