<svg width="24" height="24" viewBox="0 0 24 24" fill="none" xmlns="http://www.w3.org/2000/svg">
<path d="M15.3732 0.407224L15.4953 0.427732C15.8015 0.487932 16.2364 0.639461 16.6017 1.05468C16.8918 1.38443 17.2548 1.87993 17.4318 2.53222C17.575 3.0602 17.6855 3.72734 17.6564 4.58789C17.641 5.04318 17.5928 5.57081 17.5158 6.03906C17.4345 6.53343 17.3223 6.95177 17.0939 7.51953C16.9979 7.75842 16.8754 8.05497 16.7316 8.36426C17.1416 8.26294 17.6019 8.1826 18.1076 8.14062C19.2224 8.04815 20.1141 8.14112 20.6047 8.22754C21.1009 8.31498 21.4513 8.60255 21.6799 8.86425C21.9039 9.12082 22.068 9.41722 22.1877 9.65332C22.3221 9.91848 22.3778 10.2624 22.4113 10.4951C22.4521 10.7781 22.4872 11.1307 22.5236 11.5234C22.5951 12.2942 22.499 12.8294 22.3976 13.208C22.0749 14.4138 21.0854 15.167 20.593 15.4619C20.3776 15.5909 20.1498 15.6338 20.0266 15.6533C19.8776 15.6769 19.717 15.6885 19.5617 15.6943C19.5474 15.6949 19.5324 15.6939 19.5178 15.6943C19.7692 16.1489 19.8983 16.5538 19.9934 16.9043C20.1445 17.4618 20.1187 18.0774 20.1115 18.4512C20.1021 18.943 19.9709 19.3842 19.8195 19.7187C19.743 19.8878 19.6548 20.0451 19.5607 20.1797C19.4843 20.289 19.3456 20.4689 19.1467 20.6006C18.9012 20.763 18.6244 20.8073 18.506 20.8252C18.3431 20.8498 18.1612 20.8633 17.9826 20.8711C17.6259 20.8866 17.1661 20.8855 16.6867 20.8877C15.5239 20.893 14.795 20.5007 14.0851 20.042C13.8365 19.8813 13.5859 19.6134 13.3928 19.3984C13.247 19.2362 13.0836 19.0421 12.9064 18.834C12.8943 19.4444 12.8754 20.2751 12.8625 20.7695C12.8468 21.3713 12.843 21.4585 12.8391 21.5488C12.8147 22.1002 12.3484 22.5277 11.7971 22.5039C11.2454 22.4797 10.8169 22.0126 10.841 21.4609C10.8441 21.3906 10.8478 21.32 10.8635 20.7178C10.8752 20.2657 10.8913 19.5415 10.9035 18.9619C10.7487 19.1813 10.5759 19.3958 10.3791 19.5742C10.0531 19.8697 9.70835 20.109 9.28632 20.252C8.97783 20.3565 8.32854 20.5803 7.34784 20.5283C6.89408 20.5042 6.43572 20.4788 6.05487 20.4248C5.7313 20.3789 5.21006 20.2856 4.82831 19.9551C4.62469 19.7787 4.34299 19.5179 4.11542 19.1855C3.88331 18.8464 3.67038 18.3781 3.69648 17.8086L3.71015 17.6631C3.74417 17.4235 3.82924 17.1936 3.91034 17.0117C3.63582 16.9444 3.33413 16.8197 3.06073 16.5859C2.7712 16.3384 2.46807 16.0566 2.22382 15.751C1.98686 15.4545 1.73456 15.0492 1.67499 14.5557C1.62448 14.1368 1.49407 13.2396 1.86444 12.4512C2.08301 11.986 2.48909 11.0379 3.43866 10.4561C3.82661 10.2184 4.30644 9.94862 4.84394 9.79492C5.29665 9.6655 5.91465 9.53288 6.81659 9.51074C6.97237 9.50692 7.13995 9.50611 7.31073 9.50781C6.9019 9.06357 6.36034 8.42748 5.9455 7.67773C5.69136 7.21839 5.48176 6.74157 5.48651 5.94238C5.48914 5.50126 5.49156 5.03589 5.5246 4.63672C5.55387 4.28324 5.61776 3.77635 5.86933 3.37695C6.2091 2.83763 6.7645 1.92535 7.87519 1.52539C8.15531 1.42459 8.52635 1.38575 8.87128 1.37304C9.2498 1.35914 9.71048 1.37405 10.2219 1.42871C10.696 1.4794 11.2648 1.52976 11.8107 2.01465C11.9265 2.11749 12.0293 2.21259 12.1232 2.29687C12.2889 2.07382 12.4754 1.83529 12.674 1.60644L12.7697 1.49609L12.8928 1.41797C13.2709 1.17742 13.6816 0.929974 14.0471 0.745115C14.2282 0.653505 14.4217 0.565488 14.6086 0.501951C14.7399 0.457335 14.9817 0.383731 15.2541 0.396482L15.3732 0.407224ZM20.1769 10.1855C19.8115 10.1283 19.1319 10.0626 18.2736 10.1338C17.8393 10.1698 17.4574 10.2397 17.134 10.3242C16.8363 10.402 16.5988 10.4875 16.1818 10.7119C15.712 10.9648 15.1127 11.3187 14.7892 11.5508C14.2904 11.9088 14.0725 12.0803 13.6691 12.4062C13.5349 12.5147 13.3804 12.5812 13.2219 12.6103C13.2238 12.8599 13.2276 13.2299 13.2678 13.7324C13.3131 14.2994 13.4022 15.0173 13.4758 15.4932C13.5534 15.9954 13.5886 16.1384 13.6389 16.2646C13.8249 16.7318 13.952 16.98 14.1545 17.2178C14.449 17.5636 14.6857 17.844 14.881 18.0615C15.1011 18.3064 15.1807 18.3691 15.1701 18.3623C15.7406 18.731 16.0777 18.8905 16.6779 18.8877C17.1847 18.8854 17.5891 18.8864 17.8957 18.873C17.9374 18.8712 17.975 18.8654 18.009 18.8633C18.0662 18.7277 18.1095 18.5678 18.1125 18.4131C18.1214 17.9459 18.1231 17.6507 18.0627 17.4277C17.9692 17.0828 17.8668 16.7797 17.6193 16.4189C17.3969 16.0948 17.168 15.8156 16.9797 15.5801C16.8978 15.4776 16.793 15.3467 16.7189 15.2334C16.6923 15.1926 16.6059 15.0611 16.5559 14.8906C16.5324 14.8107 16.4759 14.5912 16.548 14.3242C16.642 13.9771 16.9012 13.7318 17.1975 13.6289L17.3547 13.5879C17.5021 13.5616 17.6159 13.5732 17.6398 13.5752C17.705 13.5805 17.7632 13.5905 17.7922 13.5957C17.8248 13.6016 17.8618 13.6091 17.8879 13.6143C17.9174 13.6201 17.9464 13.6251 17.9777 13.6309C18.0976 13.6527 18.27 13.6792 18.507 13.6865C18.9254 13.6994 19.2507 13.7042 19.4865 13.6953C19.5651 13.6923 19.6231 13.6849 19.6642 13.6807C19.7925 13.5936 19.9502 13.4702 20.0939 13.3154C20.2783 13.1169 20.4089 12.9044 20.466 12.6914C20.5174 12.4993 20.5784 12.2036 20.5324 11.708C20.496 11.3149 20.4646 11.0078 20.4318 10.7803C20.4155 10.6669 20.4007 10.5881 20.3889 10.5371C20.3875 10.5311 20.3851 10.526 20.384 10.5215C20.2964 10.3523 20.2295 10.2472 20.1769 10.1855ZM6.86542 11.5098C6.15395 11.5273 5.70475 11.6289 5.39374 11.7178C5.12766 11.7939 4.83718 11.9449 4.48261 12.1621C4.12106 12.3839 3.93171 12.7533 3.67401 13.3018C3.59022 13.4805 3.596 13.7746 3.66132 14.3164C3.65679 14.2788 3.65264 14.3346 3.78632 14.502C3.91292 14.6603 4.10387 14.846 4.36054 15.0654L4.36151 15.0664C4.36488 15.0677 4.37823 15.0722 4.40741 15.0762C4.43856 15.0804 4.48066 15.0832 4.5412 15.083C4.57129 15.0829 4.60319 15.0821 4.64081 15.0811C4.66194 15.0804 4.68907 15.0789 4.71698 15.0781C4.73338 15.0736 4.75896 15.0671 4.79609 15.0547C4.84763 15.0374 4.89747 15.0187 4.96991 14.9932C5.03554 14.97 5.11713 14.9426 5.20136 14.917L5.29023 14.8926C5.39967 14.8678 5.5675 14.8465 5.75995 14.8857C6.0971 14.9546 6.39494 15.1886 6.52753 15.5381C6.62759 15.8019 6.59531 16.0344 6.57929 16.125C6.55938 16.2373 6.52551 16.3333 6.50116 16.3965C6.41508 16.6196 6.25361 16.8943 6.14374 17.083C6.01027 17.3122 5.88681 17.5221 5.79218 17.7119C5.73399 17.8287 5.70871 17.8963 5.69843 17.9238C5.70446 17.9474 5.7208 17.9899 5.76581 18.0557C5.83697 18.1595 5.94553 18.2692 6.08612 18.3945C6.13413 18.4085 6.21322 18.428 6.33515 18.4453C6.61126 18.4845 6.97507 18.5049 7.45331 18.5303C8.05431 18.5622 8.41719 18.4345 8.64472 18.3574C8.72211 18.3312 8.83425 18.2759 9.03632 18.0928C9.12285 18.0143 9.2493 17.8589 9.41718 17.5898C9.58019 17.3286 9.75082 17.0119 9.94257 16.6455C10.0929 16.3582 10.2001 16.0792 10.299 15.7422C10.5004 15.0557 10.5467 14.4225 10.5256 13.9102C10.5082 13.4924 10.4337 13.3079 10.3713 13.1963C10.2833 13.0392 10.1823 12.9393 9.90448 12.623C9.7959 12.5037 9.73476 12.4304 9.67304 12.3437C9.62236 12.2725 9.56894 12.1907 9.51581 12.0869C9.48981 12.0361 9.46994 11.9833 9.45331 11.9307C9.30302 11.8544 9.11937 11.7679 8.89667 11.6738C8.75719 11.6149 8.62718 11.5862 8.21894 11.5488C7.84257 11.5144 7.30137 11.4991 6.86542 11.5098ZM14.9494 2.53027C14.7041 2.65436 14.4063 2.83031 14.092 3.02734C13.8592 3.30539 13.6414 3.6013 13.4709 3.84961C13.4086 3.94033 13.3543 4.02318 13.3088 4.09375C13.2707 4.24887 13.1951 4.39607 13.0812 4.52246C12.8619 5.01065 12.2952 5.24277 11.7951 5.04004C11.4129 4.8849 11.1786 4.51973 11.1711 4.13183C11.0078 3.98239 10.7875 3.78147 10.4816 3.50976C10.4709 3.50024 10.4632 3.49411 10.4592 3.49121C10.4561 3.48904 10.4541 3.48774 10.4533 3.4873C10.4526 3.48698 10.4507 3.48629 10.4484 3.48535C10.4454 3.48411 10.4391 3.4815 10.4289 3.47851C10.4057 3.47176 10.3647 3.462 10.2932 3.45117C10.2197 3.44008 10.1312 3.43006 10.009 3.41699C9.58322 3.37149 9.21861 3.362 8.94452 3.37207C8.64056 3.38329 8.52888 3.41567 8.55194 3.40722C8.17451 3.54337 7.94039 3.84299 7.57636 4.41894C7.57332 4.42846 7.56845 4.44553 7.56269 4.4707C7.54599 4.54382 7.53022 4.65143 7.51777 4.80176C7.49237 5.10853 7.48928 5.48958 7.48652 5.9541C7.48531 6.15622 7.50805 6.27526 7.53339 6.35937C7.56083 6.45025 7.60435 6.5452 7.6955 6.70996C8.02682 7.30866 8.49339 7.84953 8.87909 8.26074C9.01608 8.40673 9.18662 8.55652 9.64179 8.88086C10.0949 9.20371 10.792 9.66079 11.1848 9.91211C11.5074 10.1185 11.7531 10.2665 12.0226 10.4209C12.0313 10.4161 12.0408 10.4114 12.05 10.4062C12.4157 10.2014 13.0417 9.82634 13.4035 9.5957C13.681 9.4188 13.9441 9.12297 14.5324 8.23633C14.7933 7.84306 15.0342 7.2812 15.2385 6.77344C15.413 6.33947 15.4849 6.06201 15.5422 5.71386C15.6037 5.33956 15.6446 4.89832 15.6574 4.51953C15.6791 3.87611 15.5969 3.40888 15.5012 3.05566C15.4423 2.83899 15.3143 2.63294 15.1496 2.43554C15.0955 2.45877 15.0287 2.49017 14.9494 2.53027Z" fill="black"/>
</svg>
