<svg width="24" height="24" viewBox="0 0 24 24" fill="none" xmlns="http://www.w3.org/2000/svg">
<path d="M11.37 0.545866C12.6193 0.355312 13.4616 0.969804 13.6493 1.09958C14.2086 1.48652 14.7196 2.25844 15.0858 3.03903C15.1739 3.22689 15.2489 3.45301 15.3212 3.70212C15.7583 3.69042 16.1624 3.67872 16.5145 3.66598C18.2783 3.60219 18.649 3.54965 19.0507 3.45114C19.5704 3.32368 20.0215 3.20841 20.3348 3.13864C20.488 3.10454 20.6488 3.07168 20.787 3.05563C20.8501 3.04832 20.9616 3.03723 21.0858 3.04782C21.1472 3.05306 21.2594 3.06712 21.3876 3.11618C21.4966 3.15794 21.6876 3.25314 21.8407 3.45505L21.9032 3.54782L21.9774 3.69333C22.0404 3.83798 22.0726 3.98157 22.0946 4.11813C22.1236 4.29787 22.1489 4.55364 22.1757 4.93161C22.1827 5.03087 22.2705 5.71197 22.3153 6.65134C22.3417 7.20503 22.3548 7.8708 22.3427 8.27048C22.3372 8.44799 22.3339 8.72017 22.2958 8.93844C22.2517 9.19035 22.1174 9.64053 21.6395 9.90133C21.3463 10.0613 20.855 10.2826 20.2294 10.4033C19.941 10.4589 19.5785 10.49 16.8251 10.4804C16.5141 10.4794 16.1737 10.4757 15.8104 10.4736C15.7687 10.8222 15.7214 11.142 15.6688 11.4345C15.573 11.9674 15.4682 12.3914 15.3514 12.8086C15.1313 13.5952 14.9067 14.2188 14.6561 14.6162C14.4862 14.8855 14.3047 15.1066 14.1434 15.2793C14.6833 15.5849 15.2921 16.0469 15.6337 16.7881C15.7326 17.0027 15.875 17.3137 15.9471 17.7422C16.0186 18.1668 16.0134 18.6527 15.9139 19.2549C15.8447 19.6737 15.7277 20.2446 15.5917 20.6504C15.4232 21.153 15.2245 21.6447 14.8641 22.0146C14.5913 22.2945 14.0865 22.6407 13.4227 22.8994C12.8363 23.1278 11.9645 23.1714 10.9979 23.0732C10.5575 23.0284 10.2057 22.9622 9.87781 22.8457C9.47679 22.7031 8.82871 22.471 8.3241 21.9707C8.01188 21.661 7.61579 21.205 7.37195 20.6054C7.21952 20.2306 7.11034 19.8387 7.08777 19.3232C7.06641 18.8343 7.06415 18.2254 7.20301 17.7588C7.29711 17.4426 7.49648 16.9614 7.98133 16.3838C8.20525 16.117 8.42407 15.8709 8.62781 15.6748C8.8045 15.5047 9.07362 15.2672 9.40027 15.1494L9.64051 15.0683C9.76752 15.0291 9.91024 14.9911 10.0721 14.9609C9.79086 14.7449 9.50524 14.4786 9.22742 14.1728C8.89035 13.8018 8.53272 13.2615 8.31726 12.9267C8.04689 12.5065 7.88276 12.1926 7.77723 11.9218C7.67695 11.6645 7.62716 11.4186 7.61609 11.3769L7.60828 11.3486L7.60242 11.3203C7.54313 11.0294 7.50192 10.6887 7.50672 10.3945C6.99137 10.3882 6.51789 10.3845 6.10437 10.3789C4.76584 10.3606 4.0444 10.3501 3.63855 10.3379C3.25602 10.3263 3.05299 10.3137 2.83094 10.249C2.55503 10.1686 2.27422 10.0828 2.04969 9.97262C1.80411 9.85204 1.4676 9.62635 1.31043 9.18747C1.15746 8.75996 1.08581 8.34085 1.07898 7.67966C1.07429 7.22412 1.07772 6.47667 1.06726 6.05856C1.061 5.80901 1.0413 5.74712 1.02234 5.41598C1.00701 5.14786 1.00778 4.83152 1.08972 4.46286C1.24734 3.75399 1.4407 3.41566 1.5575 3.24899C1.82153 2.87276 2.29779 2.73479 2.71082 2.8818C2.81925 2.87789 2.93034 2.89024 3.03992 2.9238C3.12715 2.95052 3.13634 2.95538 3.19617 2.97165C3.25485 2.9876 3.35544 3.01277 3.56043 3.05856C3.97394 3.15092 4.73494 3.3103 5.23914 3.41696C5.7289 3.52057 5.91792 3.56132 6.43445 3.62204C6.75387 3.65958 7.19459 3.70085 7.94812 3.73239C8.04298 3.41375 8.20009 3.00998 8.45203 2.63571C8.95296 1.89184 9.65756 1.31955 10.1249 0.998015C10.5842 0.682204 11.023 0.598861 11.37 0.545866ZM12.6747 16.8203C12.5843 16.8471 12.4886 16.8623 12.3895 16.8623C11.9378 16.8623 11.3479 16.8706 10.7323 16.8955C10.4742 16.9059 10.3027 16.9531 10.1317 17.0127C10.1074 17.0315 10.0686 17.0641 10.0145 17.1162C9.8872 17.2388 9.72246 17.421 9.51355 17.6699C9.22042 18.0191 9.14334 18.2507 9.12 18.3291C9.08791 18.4369 9.06397 18.735 9.08582 19.2353C9.09659 19.4818 9.14152 19.6485 9.22449 19.8525C9.32179 20.0916 9.50343 20.3237 9.7323 20.5507C9.88054 20.6976 10.1191 20.8085 10.5477 20.9609C10.6687 21.0039 10.847 21.0471 11.2001 21.083C11.6145 21.1251 11.9576 21.1305 12.2225 21.1132C12.4987 21.0953 12.6469 21.0552 12.6962 21.0361C12.9138 20.9513 13.0905 20.8577 13.2206 20.7754C13.2853 20.7343 13.3364 20.6973 13.3739 20.6679C13.3925 20.6533 13.4067 20.6408 13.4169 20.6318C13.4252 20.6245 13.4302 20.6204 13.4315 20.6191C13.4333 20.6173 13.4613 20.5883 13.5096 20.4912C13.5597 20.3905 13.619 20.242 13.6952 20.0146C13.7802 19.761 13.8776 19.3141 13.9413 18.9287C14.0141 18.4877 14.0009 18.2309 13.9745 18.0742C13.9488 17.9218 13.9034 17.8119 13.8173 17.625C13.6954 17.3607 13.4069 17.1319 12.8827 16.8769C12.8107 16.8564 12.741 16.8376 12.6747 16.8203ZM9.50672 10.4443C9.50703 10.553 9.52395 10.7319 9.5614 10.917C9.60252 11.0777 9.59869 11.0879 9.64051 11.1953C9.68145 11.3003 9.77201 11.4921 9.9989 11.8447C10.2209 12.1896 10.4974 12.5954 10.7079 12.8271C11.0966 13.255 11.4058 13.4771 11.5692 13.5576C11.6729 13.6087 11.7735 13.6647 11.8524 13.709C11.9386 13.7574 12.0028 13.7941 12.0663 13.8271C12.1693 13.8807 12.212 13.8925 12.2128 13.8935L12.1981 13.8925C12.3204 13.9057 12.4193 13.9158 12.5096 13.9228C12.5771 13.928 12.6294 13.9275 12.6698 13.9277C12.6825 13.9144 12.6995 13.9009 12.7147 13.8838C12.7864 13.8033 12.8752 13.6906 12.9647 13.5488C13.0462 13.4192 13.2085 13.0455 13.4257 12.2695C13.5295 11.8985 13.6179 11.5372 13.7001 11.08C13.7345 10.8884 13.7658 10.6822 13.7958 10.4609C12.4118 10.4496 10.9044 10.4331 9.51062 10.4179C9.50879 10.4266 9.50878 10.4357 9.50672 10.4443ZM19.5262 5.39352C18.8999 5.54709 18.3367 5.60172 16.5868 5.66501C16.3299 5.6743 16.0459 5.68062 15.7421 5.68942C15.8146 6.17393 15.8751 6.6875 15.9081 7.19235C15.9371 7.6363 15.9448 8.06526 15.9403 8.47458C16.2577 8.47633 16.5565 8.47948 16.8319 8.48044C19.6889 8.49035 19.8034 8.44853 19.8505 8.43942C20.0356 8.40372 20.2008 8.35196 20.3397 8.29977C20.3405 8.27233 20.3426 8.24237 20.3436 8.20993C20.3536 7.88245 20.3433 7.27378 20.3182 6.74704C20.2777 5.89761 20.2267 5.53972 20.1962 5.22946C20.0023 5.27731 19.7794 5.33145 19.5262 5.39352ZM3.02527 4.98532C3.01193 5.08023 3.01135 5.17778 3.01844 5.30173C3.02413 5.40117 3.06028 5.76954 3.06629 6.00876C3.07707 6.44015 3.07488 7.26097 3.07898 7.65915C3.08181 7.93223 3.09949 8.11215 3.12293 8.24606C3.19039 8.26796 3.27142 8.29406 3.37097 8.32321C3.41468 8.32748 3.50487 8.33296 3.6991 8.33884C4.08394 8.35047 4.78395 8.36146 6.13172 8.37985C8.04633 8.40597 11.246 8.44038 13.9403 8.46188C13.9444 8.09632 13.9376 7.71544 13.912 7.32321C13.8768 6.78505 13.8085 6.23487 13.7264 5.73825C12.3485 5.7642 10.8848 5.78087 9.7489 5.77438C7.71857 5.76279 6.80688 5.67958 6.20105 5.60837C5.59399 5.537 5.33504 5.48188 4.82508 5.37399C4.32962 5.26918 3.55168 5.10528 3.1239 5.00973C3.08869 5.00186 3.05613 4.99235 3.02527 4.98532ZM11.6718 2.52341C11.5315 2.54483 11.4533 2.56143 11.3944 2.58005C11.3452 2.59564 11.3048 2.6148 11.2587 2.64645C10.8944 2.89709 10.4155 3.30118 10.1112 3.7529C10.1067 3.75954 10.1019 3.76664 10.0975 3.77341C11.0219 3.77519 12.1239 3.76613 13.204 3.74801C13.0745 3.48883 12.9419 3.26426 12.8153 3.08786C12.6575 2.86806 12.5466 2.76951 12.5116 2.74509C12.3817 2.65525 12.1053 2.45737 11.6718 2.52341Z" fill="black"/>
</svg>
