<svg width="24" height="24" viewBox="0 0 24 24" fill="none" xmlns="http://www.w3.org/2000/svg">
<path d="M17.1701 1.16275C17.3569 0.642991 17.9297 0.372487 18.4494 0.55923C18.9688 0.746181 19.2385 1.31901 19.052 1.83853C18.9996 1.98426 18.9502 2.11142 18.8977 2.22232C18.8703 2.27998 18.8452 2.3265 18.8264 2.36099C18.8138 2.38404 18.8068 2.39414 18.803 2.40103C18.7904 2.42648 18.6824 2.69262 18.4787 2.95767C18.386 3.07835 18.2737 3.19714 18.1418 3.32095C19.6551 3.27071 20.447 3.24598 20.8674 3.23403C21.1465 3.2261 21.3072 3.22059 21.4319 3.22818L21.5481 3.24087L21.7629 3.28091C21.8282 3.2951 21.8876 3.30927 21.9387 3.3229C22.4156 3.45019 22.5918 3.83843 22.6369 3.95474C22.6935 4.10038 22.7076 4.23192 22.7131 4.29653C22.7252 4.43854 22.7169 4.58632 22.7073 4.70083C22.6866 4.94545 22.6386 5.26705 22.5793 5.62368C22.4729 6.26312 22.325 6.73449 22.1282 7.10806C21.9241 7.4951 21.6923 7.72432 21.5647 7.85708C20.8949 8.55363 19.9165 8.54974 19.7922 8.55728L19.761 8.55923C19.7172 8.56052 19.6331 8.56415 19.4895 8.56216C19.4549 8.56168 19.4164 8.55928 19.3752 8.55825V9.52993C19.3642 10.2896 19.3679 10.7158 19.3752 11.2643L19.3909 11.7135C19.3928 11.7357 19.3924 11.758 19.3928 11.7799C19.5889 11.7844 19.7464 11.791 19.8723 11.8014C20.039 11.8152 20.3192 11.8426 20.5696 11.9752C20.7339 12.0624 20.8939 12.197 21.009 12.3893C21.1064 12.5522 21.139 12.7104 21.1418 12.7223C21.2082 12.9983 21.242 13.3452 21.2395 14.1012C21.2369 14.864 21.1951 16.1142 21.1409 16.9645C21.0599 18.2332 20.9311 18.792 20.7971 19.1579C20.5957 19.7077 20.3233 20.3299 20.0354 20.7614C19.5867 21.4337 18.9619 21.9019 18.1955 22.2614C17.9754 22.3647 17.7423 22.4207 17.5618 22.4586C17.3855 22.4957 17.1611 22.5333 16.9895 22.5651C16.561 22.6446 16.0649 22.716 15.7825 22.7526C15.4394 22.797 15.3121 22.7961 14.1076 22.8151C12.8733 22.8345 10.453 22.8741 9.17796 22.8883C7.92089 22.9023 7.77871 22.8931 7.4055 22.8317C7.02154 22.7684 6.6676 22.7083 6.38304 22.6549C6.12436 22.6064 5.85201 22.5511 5.67601 22.4928C5.29522 22.3665 4.88414 22.0842 4.40159 21.6696C3.52575 20.9168 3.14866 19.9829 3.02855 19.734C2.91278 19.4944 2.85486 19.1889 2.81566 18.9518C2.77008 18.676 2.72653 18.3263 2.68089 17.9137C2.62788 17.4344 2.63563 16.996 2.65648 16.5202C2.70218 15.4775 2.80008 14.7358 2.84886 14.4274C2.92324 13.9573 3.0591 13.4717 3.11058 13.2594C3.12173 13.2129 3.14328 13.1235 3.17894 13.026L3.24534 12.8708C3.26862 12.8232 3.29248 12.779 3.31663 12.7379L3.37327 12.653C3.50598 12.4721 3.69109 12.3481 3.89476 12.2877C4.02644 12.2085 4.17813 12.1573 4.34202 12.1461C4.41039 12.1415 4.48114 12.1374 5.00706 12.1208C5.00271 12.0625 5.00093 12.0404 4.99437 11.9674L4.99339 11.9577L4.99241 11.9489C4.97407 11.691 4.95874 11.41 4.92991 10.2946C4.91838 10.1308 4.90188 9.96386 4.88304 9.76528C4.86775 9.60419 4.85292 9.42806 4.84007 9.23892C4.53096 9.17425 3.98743 9.04054 3.58714 8.85025C3.23934 8.68482 2.96605 8.46646 2.31761 7.9772C1.78387 7.57438 1.31669 6.99197 0.968001 6.52212C0.603217 6.03058 0.480173 5.42748 0.452376 4.99575C0.447871 4.92556 0.439826 4.71848 0.551009 4.48794C0.66696 4.24804 0.847912 4.11146 0.972884 4.04165C1.16178 3.93641 1.35008 3.9151 1.37425 3.91177C1.48906 3.89561 1.65251 3.88681 1.8557 3.87759C2.29347 3.85773 3.14293 3.82918 4.77171 3.7731C5.13166 3.7607 5.53091 3.74676 5.96019 3.73208C5.64661 3.38626 5.42378 3.0389 5.20824 2.63736L5.19554 2.61294L5.1848 2.5895C5.10248 2.41426 5.07001 2.30697 5.04515 2.20376C4.91596 1.6669 5.24665 1.12607 5.78343 0.99673C6.31328 0.869223 6.84546 1.19008 6.98363 1.7145C7.20918 2.13165 7.40414 2.40533 7.84202 2.76236C8.2521 2.96391 8.61294 3.09861 8.87523 3.17056C9.13083 3.24071 9.33503 3.40427 9.46312 3.61392C11.14 3.55709 12.92 3.49621 14.5315 3.44204C14.6019 3.35124 14.689 3.27105 14.7922 3.20669C15.0879 3.02234 15.4303 2.83014 16.4075 2.15396C16.7241 1.93484 16.8469 1.79868 16.8928 1.73892C16.9418 1.67509 16.9241 1.68881 17.0129 1.5104L17.0168 1.50357L17.0198 1.49673C17.0312 1.47467 17.0419 1.45502 17.05 1.44009C17.054 1.43282 17.0587 1.4252 17.0618 1.41958C17.0651 1.41355 17.068 1.40857 17.0705 1.40396C17.0797 1.38707 17.0849 1.37672 17.0901 1.36587C17.1026 1.33953 17.1274 1.28167 17.1701 1.16275ZM17.4826 13.7887C14.8601 13.834 9.79754 13.9794 7.21214 14.0553C5.98149 14.0915 5.31846 14.1147 4.95433 14.1266C4.90566 14.3217 4.85831 14.5259 4.82445 14.7399C4.78668 14.9787 4.69672 15.6454 4.65452 16.6081C4.63486 17.0568 4.63355 17.3707 4.66917 17.693C4.71407 18.0989 4.75285 18.4052 4.78929 18.6256C4.80742 18.7353 4.82281 18.8118 4.83519 18.862C4.83877 18.8765 4.8411 18.8868 4.843 18.8932C5.00641 19.2355 5.21862 19.7348 5.70531 20.153C5.91589 20.3339 6.06936 20.4481 6.17601 20.5182C6.25175 20.568 6.29346 20.5887 6.30589 20.5944C6.31118 20.5959 6.34739 20.6064 6.42991 20.6247C6.51285 20.643 6.62112 20.6645 6.75218 20.6891C7.01435 20.7382 7.34954 20.7964 7.72972 20.859C7.84581 20.8782 7.88093 20.8845 8.02562 20.8893C8.20605 20.8952 8.51499 20.8955 9.1555 20.8883C10.4246 20.8742 12.8387 20.8356 14.0764 20.8161C15.3419 20.7961 15.3247 20.7952 15.5256 20.7692C15.788 20.7352 16.2458 20.6697 16.6252 20.5993C16.8572 20.5563 17.0026 20.5327 17.1506 20.5016C17.2167 20.4877 17.2655 20.4759 17.301 20.4655C17.3302 20.4569 17.3437 20.4508 17.3459 20.4499C17.8803 20.1991 18.1789 19.9408 18.3723 19.651C18.5276 19.4182 18.7351 18.9729 18.9192 18.4704C18.957 18.3672 19.0688 18.0281 19.1448 16.8376C19.1966 16.0256 19.237 14.8152 19.2395 14.0944C19.2399 13.9733 19.238 13.868 19.2366 13.777C18.8714 13.7716 18.3187 13.7743 17.4826 13.7887ZM7.8098 17.194C8.14782 16.7574 8.77639 16.6773 9.21312 17.0153C9.25662 17.049 9.29492 17.0876 9.33128 17.1266C9.4525 17.2252 9.55344 17.3529 9.61937 17.5065C9.63762 17.5484 9.86966 18.0108 9.62327 18.5055C9.41114 18.9313 9.01751 19.0628 8.84202 19.1032C8.80849 19.1109 8.69498 19.1374 8.56566 19.1432C8.50688 19.1458 8.36578 19.1487 8.2014 19.1012C8.03735 19.0537 7.66997 18.8958 7.5139 18.4577C7.35791 18.0191 7.53598 17.6462 7.57933 17.5563C7.64989 17.4099 7.74101 17.2829 7.8098 17.194ZM15.4885 16.7018C15.8046 16.617 16.1558 16.6883 16.4172 16.9235C16.5161 17.0124 16.7091 17.2005 16.7951 17.5065L16.8254 17.6452L16.8362 17.7555C16.85 18.0144 16.7771 18.2868 16.6047 18.5163L16.5451 18.5954L16.4719 18.6618C16.298 18.8169 15.9708 19.0336 15.5295 19.0485C15.3646 19.0539 14.8134 19.0303 14.509 18.5026C14.2651 18.0794 14.3672 17.6344 14.5266 17.3698L14.5852 17.2809C14.7268 17.0822 14.8985 16.9509 15.0159 16.8708C15.1616 16.7714 15.3245 16.7167 15.4885 16.7018ZM7.40941 5.68423C7.23995 5.92433 7.05785 6.22015 6.95824 6.46353C6.93788 6.51344 6.90932 6.61864 6.88499 6.85708C6.85986 7.10358 6.84791 7.37484 6.81956 7.78384C6.79503 8.13776 6.80371 8.57429 6.82738 8.99575C6.83855 9.19463 6.85591 9.38347 6.87425 9.57681L6.92601 10.1686L6.92796 10.2116C6.95712 11.3463 6.97238 11.5932 6.98753 11.8063C6.99134 11.8454 6.99911 11.9203 7.00511 12.0065C7.00635 12.0244 7.00579 12.0425 7.00609 12.0602C7.05418 12.0588 7.10362 12.0578 7.15355 12.0563C9.7173 11.981 14.7407 11.8362 17.3928 11.7897C17.383 11.6379 17.3791 11.4854 17.3762 11.2946L17.3752 11.2926C17.3678 10.7351 17.3641 10.2913 17.3752 9.51528V8.30044C17.3738 7.85114 17.3703 7.40027 17.3616 7.07681C17.3419 6.34914 17.23 5.95352 17.1506 5.76529C17.0945 5.63216 17.0689 5.49372 17.0715 5.35806C14.4001 5.44732 10.4638 5.58021 7.40941 5.68423ZM13.72 9.10025C13.8236 8.55786 14.3475 8.20181 14.8899 8.30532C15.4322 8.40898 15.7883 8.93288 15.6848 9.47525C15.6649 9.57921 15.6495 9.66047 15.6379 9.73794C15.6283 9.80197 15.62 9.86981 15.6106 10.0231C15.5764 10.5741 15.1021 10.9936 14.551 10.9596C14 10.9256 13.5807 10.4511 13.6145 9.90005C13.6264 9.707 13.6388 9.57832 13.6594 9.44107C13.6779 9.31752 13.7014 9.19737 13.72 9.10025ZM9.97972 8.03091C10.5316 8.03125 10.9796 8.47897 10.9797 9.03091C10.9797 9.0432 10.9792 9.05794 10.9778 9.16079C10.9762 9.27102 10.9731 9.48898 10.97 9.71255C10.962 10.2647 10.5074 10.7056 9.95531 10.6979C9.40335 10.6898 8.96222 10.2362 8.96995 9.68423C8.97314 9.46078 8.97622 9.24354 8.97777 9.13345C8.97854 9.07854 8.97953 9.05007 8.97972 9.03579V9.03091C8.97989 8.47877 9.42754 8.03091 9.97972 8.03091ZM4.84105 5.77212C4.044 5.79957 3.43753 5.82244 2.97679 5.83853C3.16865 6.06414 3.35165 6.25145 3.52269 6.38052C3.88216 6.65175 4.08206 6.80434 4.22484 6.90591C4.35339 6.99734 4.40129 7.0221 4.44652 7.04361C4.53493 7.08562 4.68138 7.13477 4.85667 7.18423C4.8689 6.99555 4.87947 6.81348 4.89574 6.65396C4.9241 6.37596 4.97213 6.06484 5.08616 5.76333C5.00275 5.7662 4.92074 5.76938 4.84105 5.77212ZM19.1028 5.29068C19.2124 5.6334 19.2937 6.04972 19.3342 6.5563C19.4061 6.55851 19.4685 6.56147 19.5178 6.56216C19.5645 6.5628 19.5972 6.56266 19.6213 6.56216C19.6443 6.56168 19.6554 6.56087 19.675 6.56021C19.8006 6.55262 19.8934 6.54893 19.9944 6.52407C20.0867 6.50127 20.1177 6.47554 20.1223 6.47134C20.2505 6.33795 20.2997 6.28706 20.3586 6.17544C20.4248 6.04991 20.5225 5.80138 20.6067 5.29556C20.6096 5.2779 20.6117 5.25999 20.6145 5.24282C20.2794 5.25309 19.7978 5.26803 19.1028 5.29068Z" fill="black"/>
</svg>
