<svg width="24" height="24" viewBox="0 0 24 24" fill="none" xmlns="http://www.w3.org/2000/svg">
<g clip-path="url(#clip0_579_1834)">
<path d="M2.57358 0.916837C2.96751 0.922021 3.22434 1.13979 3.31284 1.22055C3.36858 1.27145 3.41556 1.32252 3.44565 1.35629C3.47653 1.39097 3.51455 1.43495 3.5521 1.47836C3.63172 1.57042 3.75189 1.7088 3.9476 1.92465C4.34233 2.35996 5.01778 3.08224 5.37241 3.46274C5.92837 3.0708 6.82237 2.4547 7.46225 2.05844C8.14708 1.63438 8.5786 1.43409 8.88315 1.33969L8.98764 1.30941C9.14036 1.27062 9.42601 1.22567 9.7269 1.34262C9.95266 1.43051 10.0993 1.57268 10.1839 1.67465C10.2188 1.71681 10.249 1.76013 10.2718 1.79477L10.3158 1.86508L10.472 2.1268C10.5345 2.23895 10.6032 2.37529 10.6644 2.52914C10.7914 2.84896 10.8803 3.22448 10.9144 3.70102C10.9393 4.04904 10.9476 4.51571 10.9134 4.9432C10.8808 5.35082 10.8184 5.74391 10.7181 6.0682C10.5884 6.48735 10.4188 6.93521 10.1234 7.35824C9.91346 7.6588 9.64529 7.99272 9.28549 8.25766C9.02344 8.45058 8.51262 8.80042 7.75034 9.11215C7.44213 9.23816 7.15259 9.31841 6.80112 9.36801C6.80787 9.43907 6.80989 9.51087 6.80112 9.58285C6.80186 9.57632 6.80272 9.5715 6.80307 9.56918C6.80248 9.57693 6.80092 9.59576 6.79917 9.62777C6.79574 9.69018 6.79147 9.78574 6.78647 9.91195C6.77724 10.1451 6.76717 10.4756 6.75717 10.8827C6.88197 11.5736 7.09076 12.0565 7.20151 12.2518C7.25881 12.3443 7.31612 12.4253 7.4271 12.5643C7.53234 12.6962 7.59806 12.8468 7.62729 13.0018C8.30199 12.6093 8.75014 12.4141 9.10971 12.3006C9.05576 12.1136 8.97949 11.8481 8.88901 11.5418L8.88706 11.536C8.81235 11.2773 8.75132 11.0528 8.68881 10.8123C8.55003 10.278 8.87039 9.7317 9.40463 9.59262C9.93887 9.45391 10.4852 9.77436 10.6244 10.3084C10.6824 10.5316 10.7384 10.7378 10.807 10.9754L11.0853 11.9334C11.1055 11.985 11.1242 12.032 11.141 12.0741C11.5672 12.0772 12.0949 12.1051 12.7884 12.1913C12.8373 12.0788 12.9036 11.9324 12.9808 11.7489C13.0556 11.5292 13.1089 11.3631 13.1429 11.242C13.1648 11.164 13.1757 11.1186 13.18 11.0985C13.1834 11.031 13.1865 10.9338 13.1898 10.8133C13.2049 10.2616 13.6644 9.82602 14.2162 9.84066C14.7682 9.85555 15.2037 10.3159 15.1888 10.868C15.1855 10.9908 15.1818 11.137 15.1751 11.2459L15.1742 11.2606L15.1732 11.2762C15.1541 11.4855 15.0787 11.7681 14.9759 12.0897L14.8539 12.4559L14.8412 12.4862C14.8356 12.4995 14.8291 12.5122 14.8236 12.5252C15.1795 12.5946 15.5226 12.665 15.8275 12.7362C15.8969 12.7524 15.9639 12.7708 16.0296 12.787C16.0962 12.6344 16.2019 12.4966 16.3441 12.3895C16.347 12.3862 16.3513 12.3819 16.3558 12.3768C16.3724 12.3579 16.3967 12.3295 16.431 12.2879C16.8129 11.8107 17.174 11.2929 17.3861 10.9227C17.5095 10.6578 17.5406 10.5567 17.5394 10.3612C17.5368 9.96549 17.5329 9.64567 17.5296 9.42465C17.5271 9.25196 17.5245 9.11757 17.5238 9.07309C17.2471 9.07297 16.9672 9.07053 16.7679 9.06234C16.3291 9.04427 16.0075 9.01393 15.6097 8.80453C15.3218 8.65292 14.8544 8.39453 14.4544 7.98617C14.2039 7.73032 13.9531 7.46478 13.7679 7.10043C13.6598 6.88752 13.553 6.6743 13.4691 6.48422C13.3928 6.31133 13.2968 6.07478 13.2601 5.83188C13.1993 5.42961 13.1342 4.77691 13.2113 4.1102C13.2598 3.69039 13.3319 3.46682 13.3568 3.3768C13.4387 3.08105 13.6235 2.61161 14.0374 1.99399L14.1039 1.90121C14.1377 1.85764 14.2001 1.7821 14.2923 1.70785C14.5289 1.51767 14.8353 1.43308 15.1468 1.48324C15.3801 1.52095 15.5574 1.6257 15.6419 1.67953C15.7424 1.74358 15.8421 1.82095 15.9349 1.89731C16.2713 2.17417 16.9364 2.79504 17.3128 3.1268C17.6817 3.45185 17.9049 3.62197 18.1283 3.78891C18.186 3.75828 18.2499 3.72651 18.3177 3.6893C18.9259 3.35567 19.75 2.86673 20.3685 2.52133L20.3802 2.51449L20.3929 2.50863C20.7742 2.30943 21.0577 2.16872 21.266 2.07895C21.3687 2.03468 21.4817 1.99015 21.5951 1.95883C21.6629 1.9401 21.8003 1.90439 21.971 1.90805L22.1517 1.9266L22.3294 1.97543C22.5026 2.03671 22.7245 2.15843 22.8861 2.40024L22.9749 2.56039L23.0355 2.71957C23.1558 3.11249 23.1332 3.64811 22.9671 4.31332C22.8406 4.81979 22.6066 5.52488 22.3724 6.05453C22.1242 6.61565 21.8791 6.97865 21.6224 7.29184C21.3782 7.58976 21.1187 7.85077 20.8138 8.08871C20.5511 8.29368 20.2137 8.53037 19.8451 8.68734C19.7263 8.73789 19.6103 8.78402 19.4955 8.82699C19.513 8.90126 19.5238 8.97879 19.5238 9.05844C19.5241 9.0673 19.5263 9.16951 19.5296 9.39535C19.5329 9.62119 19.5368 9.94659 19.5394 10.3485C19.5436 11.0029 19.3593 11.4307 19.179 11.8133L19.1634 11.8465L19.1449 11.8788C18.8693 12.3675 18.4381 12.9735 18.0169 13.5028C18.0186 13.5036 18.0201 13.5048 18.0218 13.5057C18.6752 13.8365 19.4038 14.2866 19.8636 14.5868C20.8129 15.2064 21.204 15.6242 21.4193 15.7967C21.4349 15.8092 21.4891 15.8517 21.5443 15.9071C21.6021 15.9652 21.6994 16.0745 21.7728 16.2362C21.9581 16.6449 21.8392 17.0152 21.7347 17.2137C21.5847 17.4985 21.3867 17.6946 21.1869 17.8661C21.0076 18.0198 20.7411 18.2232 20.4222 18.4754C20.1903 18.6589 19.874 18.907 19.5277 19.1795C19.5485 19.2037 19.5684 19.2292 19.5873 19.2557C19.78 19.5274 19.94 19.7762 20.0999 20.1248L20.2611 20.5116L20.3138 20.6483L20.3236 20.7938C20.3608 21.3054 20.3478 21.5967 20.3031 21.8289L20.2992 21.8475L20.2953 21.8651C20.272 21.9656 20.2632 21.9838 20.2357 22.1258C20.1306 22.6676 19.6067 23.0224 19.0648 22.9178C18.5229 22.8129 18.1683 22.2879 18.2728 21.7459C18.2998 21.6066 18.3261 21.5016 18.3392 21.4491V21.4471C18.3395 21.4454 18.3406 21.4416 18.3412 21.4364C18.3424 21.4247 18.3441 21.4015 18.3451 21.3641C18.3466 21.3066 18.345 21.2192 18.3382 21.0907C18.2194 20.8023 18.1186 20.6425 17.9564 20.4139C17.9528 20.4088 17.9492 20.4034 17.9457 20.3983C17.8679 20.4561 17.7941 20.5137 17.722 20.5662C16.8716 21.1857 16.4566 21.3986 16.0931 21.5565C15.4725 21.8261 14.9327 21.9297 13.9642 22.0057C13.2047 22.0653 11.9185 22.0657 11.2767 22.0741C10.9478 22.0783 10.7025 22.0801 10.4447 22.0545C10.189 22.0292 9.93922 21.9791 9.59506 21.9071C8.88722 21.7589 7.54125 21.4666 6.54331 21.2059C6.38139 21.1636 6.23033 21.1199 6.08823 21.0799C6.03477 21.462 6.00064 21.8947 6.00131 22.2537C6.0255 22.3126 6.06429 22.4097 6.1146 22.5789C6.2719 23.1084 5.97018 23.6648 5.44077 23.8221C4.91154 23.979 4.35485 23.6775 4.1976 23.1483C4.1795 23.0874 4.16847 23.0559 4.16245 23.0399C4.15928 23.0314 4.15599 23.023 4.15171 23.0125C4.14919 23.0064 4.14661 23.001 4.14292 22.992C4.13964 22.9841 4.13579 22.9731 4.1312 22.9618C4.09029 22.8602 4.04562 22.733 4.01596 22.5692L4.00229 22.493L4.00034 22.4159C3.98441 21.7823 4.06287 21.0058 4.17026 20.4188C3.87011 20.2818 3.68752 20.1692 3.5394 20.0868C3.12076 19.8537 2.73577 19.6193 2.26694 19.1961L2.22006 19.1532L2.17807 19.1053C2.02069 18.922 1.93701 18.7565 1.88706 18.6502C1.87679 18.6284 1.86685 18.607 1.86069 18.5936C1.85393 18.5788 1.84881 18.5675 1.84311 18.5555C1.8325 18.5333 1.81555 18.5001 1.78549 18.4442C1.67922 18.2462 1.64782 18.0284 1.67905 17.8221C1.54844 17.4737 1.61649 17.066 1.89096 16.7791C2.01358 16.6511 2.25694 16.4626 2.54721 16.2547C2.86915 16.0241 3.32595 15.7157 3.93296 15.3358C4.42634 15.027 5.2627 14.4858 6.04526 13.9862C5.97953 13.9367 5.91734 13.8796 5.86362 13.8123C5.70712 13.6163 5.59789 13.4649 5.48276 13.2762L5.46909 13.2528C5.22564 12.8283 4.92675 12.0804 4.76792 11.1229L4.75229 11.0301L4.75424 10.9354C4.76509 10.4734 4.77796 10.0971 4.78842 9.83285C4.79363 9.70152 4.7979 9.59486 4.8021 9.5184C4.80414 9.48115 4.80667 9.44529 4.80893 9.41586C4.80903 9.41463 4.80883 9.41331 4.80893 9.41195C4.79054 9.41033 4.77217 9.41082 4.75424 9.40902C4.14145 9.34761 3.63361 9.27152 3.19174 9.01547C2.88209 8.83596 2.42865 8.58143 2.14096 8.27035C1.88644 7.99492 1.57097 7.63796 1.32651 7.12387C1.1846 6.82539 1.05919 6.5647 0.967135 6.36606C0.893155 6.2064 0.789915 5.98328 0.745455 5.81918C0.661624 5.50913 0.599378 4.95025 0.628268 4.32602C0.645107 3.96259 0.66997 3.51921 0.930026 2.91586C1.14525 2.41652 1.28519 2.08115 1.38217 1.87191C1.48733 1.64508 1.60151 1.4299 1.81088 1.22641L1.89585 1.15121C2.01792 1.05412 2.24889 0.912703 2.57358 0.916837ZM10.7777 14.078C10.3449 14.0905 10.1169 14.1141 9.98178 14.1405C9.76627 14.1826 9.4246 14.2405 8.30014 14.9295C7.34847 15.5127 5.86141 16.4879 4.9935 17.0311C4.45005 17.3712 4.04563 17.6447 3.76401 17.8446C4.00808 18.0461 4.22283 18.1787 4.51206 18.3397C4.75931 18.4773 4.88941 18.5675 5.28061 18.7166C5.57308 18.8282 6.11802 19.0281 7.04917 19.2713C7.99674 19.5188 9.30233 19.8019 10.0052 19.9491C10.3662 20.0246 10.5111 20.0513 10.6419 20.0643C10.7705 20.077 10.9045 20.0785 11.2503 20.0741C11.9587 20.0649 13.1346 20.0653 13.808 20.0125C14.6746 19.9445 14.9653 19.8662 15.2962 19.7225C15.4957 19.6359 15.7832 19.5035 16.5443 18.9491C17.3298 18.3768 18.5328 17.4198 19.181 16.9071C19.2691 16.8374 19.3458 16.7742 19.4154 16.7196C19.2561 16.5957 19.055 16.4477 18.7699 16.2616C18.3361 15.9784 17.6775 15.5729 17.1185 15.2899C16.5963 15.0255 16.1701 14.8693 15.3734 14.6834C14.5464 14.4905 13.4019 14.283 12.5472 14.1766C11.7094 14.0723 11.1741 14.0666 10.7777 14.078ZM6.77671 9.71078C6.7782 9.70492 6.78014 9.70102 6.78061 9.69906C6.78364 9.6866 6.78539 9.67488 6.78745 9.66488C6.78425 9.68021 6.78065 9.69553 6.77671 9.71078ZM8.51499 3.75863C7.88709 4.14747 6.95573 4.79118 6.42026 5.17074C5.8951 5.543 5.83283 5.60416 5.77475 5.65609C5.36309 6.02386 4.73069 5.98842 4.36264 5.57699C4.22601 5.4241 4.14529 5.24046 4.1185 5.0516C4.07131 5.0007 4.00732 4.93199 3.92221 4.84066C3.65985 4.55913 3.19128 4.05319 2.80014 3.62875C2.78916 3.65428 2.7785 3.68103 2.76694 3.70785C2.7032 3.85578 2.67461 3.96484 2.65854 4.05649C2.64102 4.1565 2.63388 4.25456 2.62631 4.41781C2.61569 4.64715 2.62292 4.85369 2.63706 5.01645C2.64411 5.09753 2.65238 5.16535 2.66049 5.21664C2.66419 5.23998 2.66742 5.25906 2.67026 5.27328C2.6733 5.28094 2.67831 5.29356 2.68588 5.31137C2.7073 5.36174 2.73851 5.43227 2.78159 5.52524C2.86814 5.71201 2.98566 5.95731 3.13217 6.26547C3.24089 6.49406 3.38346 6.6681 3.60971 6.91293C3.61416 6.91707 3.65179 6.95221 3.75815 7.02231C3.86919 7.09545 4.00926 7.17751 4.19467 7.285C4.20226 7.28939 4.23698 7.3088 4.34799 7.33383C4.47078 7.36145 4.65472 7.38884 4.95346 7.41879C5.28446 7.45191 5.83467 7.44521 6.26401 7.41586C6.62006 7.39149 6.79096 7.3434 6.9935 7.26059C7.5558 7.0306 7.92139 6.77875 8.09995 6.64731C8.20391 6.57071 8.32492 6.44011 8.48374 6.21274C8.60637 6.03697 8.70308 5.81549 8.80795 5.47641C8.84899 5.34354 8.8932 5.10991 8.91928 4.78402C8.94379 4.47753 8.93859 4.11453 8.91928 3.84457C8.91069 3.72458 8.89579 3.62492 8.88022 3.54184C8.7752 3.60169 8.6536 3.6728 8.51499 3.75863ZM15.2425 4.06332C15.2299 4.11883 15.213 4.20663 15.1976 4.33969C15.1501 4.7505 15.1878 5.19816 15.2347 5.51547C15.2359 5.51949 15.2384 5.52584 15.2415 5.535C15.2522 5.56605 15.2705 5.61251 15.2992 5.67758C15.358 5.81099 15.4412 5.97775 15.5511 6.19418C15.5832 6.25741 15.6331 6.3314 15.8832 6.58676C16.0522 6.75936 16.2834 6.89917 16.5414 7.035C16.5467 7.03783 16.551 7.04033 16.554 7.04184C16.5643 7.04374 16.5886 7.0475 16.6361 7.0516C16.687 7.05597 16.7551 7.05941 16.8499 7.06332C17.1784 7.07682 17.8243 7.07345 18.2171 7.06918C18.4897 7.06617 18.6476 7.02283 19.0619 6.84652C19.1929 6.79068 19.3692 6.67865 19.5833 6.51156C19.7554 6.37728 19.911 6.22403 20.0755 6.02328C20.2275 5.83787 20.3742 5.62819 20.5433 5.24594C20.6296 5.05077 20.718 4.81463 20.7992 4.57797C20.2963 4.86663 19.6798 5.2227 19.2796 5.44223C18.6477 5.78884 18.3688 5.89959 18.0648 6.01547C17.5489 6.21193 16.9716 5.95307 16.7748 5.43734C16.7487 5.36891 16.7306 5.29891 16.7201 5.22934C16.5252 5.07938 16.2973 4.89895 15.9896 4.62777C15.7495 4.41616 15.4974 4.18498 15.266 3.97445C15.2579 4.00257 15.2513 4.02493 15.2425 4.06332Z" fill="black"/>
</g>
<defs>
<clipPath id="clip0_579_1834">
<rect width="24" height="24" fill="white"/>
</clipPath>
</defs>
</svg>
