<svg width="24" height="24" viewBox="0 0 24 24" fill="none" xmlns="http://www.w3.org/2000/svg">
<path d="M22.042 1.0078C22.5899 0.939426 23.0897 1.32803 23.1582 1.87597C23.1645 1.92591 23.1726 1.98533 23.1875 2.13378C23.204 2.297 23.2256 2.54437 23.2295 3.03417C23.2333 3.51126 23.2207 4.22468 23.1621 4.89647C23.1055 5.54545 23.0184 6.1681 22.9287 6.54491C22.884 6.73311 22.832 6.92678 22.7569 7.09472C22.6629 7.30481 22.5197 7.50538 22.292 7.65819C22.0623 7.81234 21.6756 7.99307 20.8438 8.23534C20.2467 8.40923 19.3099 8.65793 18.7686 8.79101C18.6879 8.81084 18.6147 8.82635 18.5489 8.84179C18.5539 8.85037 18.5589 8.85848 18.5635 8.8662C18.7303 9.1476 18.8634 9.4229 18.9659 9.65917C19.0377 9.66105 19.1361 9.66697 19.2735 9.66894C19.6825 9.67479 20.4128 9.68014 20.8975 9.68456C21.1328 9.68671 21.3206 9.68892 21.4619 9.69433C21.5849 9.69903 21.7589 9.70796 21.9258 9.75097C22.1065 9.79762 22.4887 9.94078 22.6807 10.374C22.7595 10.5521 22.7733 10.7123 22.7754 10.8017C22.7774 10.8862 22.7697 10.9606 22.7676 10.9814C22.7006 11.6679 22.4854 12.2752 22.3701 12.5498C22.1831 12.9955 21.8603 13.3503 21.5967 13.5957C21.3216 13.8518 21.0343 14.0578 20.8399 14.1914L20.793 14.2236L20.7432 14.25C20.5913 14.3308 20.4132 14.4237 20.253 14.501C20.1734 14.5393 20.0885 14.5791 20.0078 14.6123C19.9459 14.6378 19.8188 14.6885 19.6797 14.7148L19.6328 14.7226C19.5663 14.7319 19.5099 14.7357 19.4698 14.7383C19.4282 14.7409 19.3942 14.7427 19.3369 14.7471C19.2321 14.755 19.1295 14.7454 19.0323 14.7226C18.9564 15.0938 18.8758 15.4589 18.7959 15.7793C18.6021 16.5573 18.4219 17.0683 18.2178 17.5459C17.8458 18.4164 17.5589 18.8862 17.4776 19.0176C17.4421 19.0749 17.1486 19.5715 16.7578 20.1885C16.5505 20.5158 16.4305 20.649 16.2168 20.8926C15.7217 21.4569 15.1808 21.917 14.8516 22.1562C14.5236 22.3946 14.0766 22.5575 13.5733 22.7119C12.7806 22.955 12.0198 22.9016 11.5791 22.8789C10.9297 22.8454 10.4792 22.6823 10.2217 22.5869C10.0196 22.5121 9.77247 22.3987 9.45999 22.2275C9.14101 22.0527 8.74646 21.8081 8.34085 21.5029C7.93113 21.1946 7.52715 20.8366 7.12308 20.4131C6.72164 19.9923 6.32328 19.5092 5.99613 19.0332C5.66496 18.5513 5.42826 18.1034 5.25394 17.7441C5.07017 17.3654 4.94905 17.0668 4.79691 16.5644C4.65412 16.093 4.47925 15.4278 4.36136 14.8574C4.27716 14.8754 4.18972 14.8846 4.09964 14.8799C4.03537 14.8765 3.98854 14.8744 3.94925 14.873C3.91653 14.8719 3.86238 14.87 3.81156 14.8662L3.78519 14.8642L3.7598 14.8613C3.64169 14.8463 3.54193 14.8123 3.51077 14.8017C3.46072 14.7847 3.41034 14.7651 3.36429 14.7461C3.27065 14.7074 3.16123 14.6575 3.04495 14.6006C2.8115 14.4862 2.5201 14.329 2.21976 14.1426L2.1514 14.0996L2.09085 14.0469C1.81059 13.8029 1.48724 13.4123 1.21097 12.956C1.0351 12.6656 0.793356 12.227 0.664095 11.5498C0.622826 11.3336 0.562906 11.0513 0.534212 10.8779C0.519777 10.7906 0.499073 10.6524 0.500032 10.5137C0.500514 10.4483 0.505445 10.3116 0.555696 10.1562C0.605451 10.0027 0.755481 9.67218 1.14945 9.51073L1.27933 9.46776C1.40548 9.43396 1.51438 9.42636 1.54398 9.42382C1.63391 9.41612 1.73841 9.41216 1.85452 9.4121C2.0891 9.41201 2.40943 9.42667 2.82816 9.46679C3.0913 9.49201 3.39196 9.53019 3.66214 9.56542C3.9421 9.60193 4.18339 9.63442 4.35941 9.65331C4.45606 9.66368 4.53714 9.67003 4.60452 9.67675C4.69188 9.41202 4.76676 9.22241 4.81156 9.12011C4.81936 9.10229 4.82946 9.08523 4.83792 9.06737C4.47245 8.97871 4.02383 8.87064 3.73831 8.79686C3.48146 8.73047 3.2384 8.64958 3.01859 8.51952C2.77852 8.37734 2.62915 8.21319 2.53324 8.10351C2.18929 7.71015 1.96875 7.19353 1.77933 6.76757C1.62232 6.41449 1.44378 5.91741 1.31546 5.51854C1.20043 5.16091 1.12506 4.88201 1.07034 4.66601C1.00864 4.42238 0.990788 4.33771 0.967806 4.26366L0.96097 4.2412L0.95511 4.21776C0.760362 3.46867 0.718381 3.2839 0.664095 3.01366V3.00976C0.649231 2.93406 0.629196 2.83663 0.609407 2.72753C0.510884 2.18418 0.871766 1.66308 1.41507 1.56444C1.95828 1.46617 2.47955 1.82693 2.57816 2.37011C2.5947 2.46133 2.61016 2.54435 2.62503 2.62011L2.70218 2.97167C2.73908 3.12629 2.79485 3.34632 2.89066 3.71483H2.8887C2.92881 3.85273 2.97287 4.03284 3.00882 4.17479C3.05595 4.36085 3.11965 4.59804 3.21878 4.90624C3.33579 5.26994 3.49076 5.69266 3.60745 5.95507C3.83818 6.47388 3.93698 6.67031 4.03909 6.7871C4.04507 6.79393 4.05049 6.79995 4.05472 6.80468C4.05692 6.80552 4.06003 6.80668 4.06253 6.80761C4.09551 6.81983 4.15085 6.83749 4.23929 6.86034C4.33542 6.88518 4.45266 6.91188 4.57913 6.94335C4.51049 6.75842 4.43202 6.5529 4.35062 6.32714L4.32132 6.24706L4.30667 6.16308C4.13527 5.199 4.13634 4.71774 4.14945 4.46483L4.15042 4.4453L4.15238 4.42675C4.1545 4.40334 4.15684 4.3813 4.15824 4.36913C4.15981 4.35543 4.16105 4.34708 4.16214 4.3369C4.16403 4.31908 4.16689 4.29025 4.16995 4.24218C4.205 3.69108 4.68038 3.27266 5.23148 3.30761C5.78261 3.34268 6.20107 3.81799 6.16605 4.36913C6.1612 4.44528 6.15628 4.5019 6.1514 4.54784C6.14994 4.5614 6.14764 4.57416 6.14652 4.58397C6.14205 4.68117 6.13619 4.99775 6.26273 5.73339C6.42055 6.16947 6.5532 6.52396 6.65042 6.77636C6.70224 6.91086 6.74305 7.01411 6.77152 7.08397C6.77787 7.09955 6.78266 7.11302 6.78714 7.12401C6.79067 7.12225 6.79438 7.12087 6.79788 7.11913C6.91431 7.06134 7.03281 7.00594 7.13773 6.95702C7.24684 6.90615 7.34381 6.86072 7.43656 6.81444C7.70865 6.67866 8.05174 6.6088 8.30667 6.56347C8.59327 6.51251 8.92923 6.46913 9.25394 6.42577V6.42479C9.56592 6.38292 9.69291 6.36178 10.1787 6.32616L10.1866 6.32519H10.1944C10.3942 6.31365 10.6779 6.29987 11.0078 6.28417C11.1052 6.25254 11.2086 6.23342 11.3164 6.23339C11.3777 6.23339 11.5443 6.23693 11.9297 6.24315C12.0343 6.23883 12.1401 6.23362 12.2461 6.22948C12.3315 6.22616 12.4143 6.23585 12.4942 6.25292C12.551 6.25357 12.6108 6.25423 12.6729 6.25487C13.11 6.2594 13.5218 6.31481 13.6768 6.32616C14.069 6.35482 14.3201 6.39747 14.5127 6.43456C14.5828 6.44803 14.6838 6.45986 14.8643 6.48534C15.0158 6.50673 15.2207 6.53733 15.4063 6.583C15.7912 6.67778 16.0157 6.75478 16.3174 6.86718C16.4349 6.91093 16.5693 6.97182 16.7149 7.04491C16.8005 7.00539 16.8931 6.97708 16.9912 6.96288C17.1323 6.94251 17.3833 6.89639 17.6289 6.84179C17.7502 6.81481 17.8619 6.78798 17.9522 6.76269C18.0351 6.73942 18.0746 6.7252 18.0821 6.72265C18.1318 6.69987 18.1813 6.68066 18.2266 6.6621C18.2304 6.64718 18.2352 6.63179 18.2393 6.6162C18.2589 6.5411 18.2934 6.3819 18.3223 6.07421C18.3703 5.56328 18.3896 5.32518 18.3838 5.20409C18.3572 5.04927 18.3324 4.91243 18.3096 4.79784L18.2393 4.46386C18.2154 4.33572 18.1918 4.16655 18.1709 4.01269C18.0968 3.46568 18.4804 2.96126 19.0274 2.88671C19.5744 2.81254 20.0778 3.19623 20.1524 3.74315C20.1725 3.89144 20.1891 4.00657 20.2022 4.08007C20.2208 4.16308 20.2449 4.27347 20.2715 4.40722L20.3662 4.92284L20.3721 4.96093L20.376 4.99901C20.4078 5.34858 20.3532 5.83774 20.3135 6.26073C20.312 6.27654 20.3092 6.2922 20.3076 6.30761C20.6356 6.21141 20.8482 6.1355 20.9815 6.083L20.9825 6.08202C21.039 5.84448 21.1167 5.3334 21.17 4.72265C21.2212 4.13491 21.233 3.48966 21.2295 3.05077C21.2261 2.62538 21.2089 2.439 21.1983 2.33397C21.1863 2.21492 21.1812 2.18303 21.1739 2.12401C21.1054 1.57607 21.4941 1.07642 22.042 1.0078ZM10.3203 8.3203C10.1121 8.3356 9.98835 8.3478 9.87894 8.36034L9.51956 8.40722C9.18083 8.45244 8.89239 8.49139 8.65726 8.53319C8.54114 8.55384 8.45185 8.57272 8.38675 8.58983C8.31497 8.60872 8.30565 8.61668 8.33011 8.60448C8.20998 8.66443 8.08976 8.72092 7.98343 8.7705C7.87299 8.82198 7.77703 8.86621 7.68656 8.91112C7.50051 9.0035 7.39222 9.07056 7.32718 9.12499C7.20166 9.23018 7.03978 9.3944 6.89359 9.5703C6.82221 9.65621 6.76134 9.73706 6.71488 9.80565C6.69189 9.83959 6.67383 9.86767 6.66116 9.88964C6.64838 9.91182 6.64359 9.92284 6.64359 9.92284C6.60801 10.0041 6.44412 10.421 6.28128 11.0889C6.21997 11.3404 6.19304 11.5209 6.17288 11.8623C6.1514 12.2263 6.14104 12.7171 6.15824 13.1553C6.17482 13.5774 6.21526 13.9411 6.31546 14.4307C6.41966 14.9396 6.58172 15.5585 6.71097 15.9853C6.83286 16.3877 6.91553 16.5883 7.05277 16.8711C7.1996 17.1737 7.38797 17.527 7.64456 17.9004C7.90517 18.2795 8.23453 18.6802 8.57034 19.0322C8.90363 19.3816 9.2258 19.6666 9.543 19.9053C9.86419 20.1469 10.1771 20.34 10.4209 20.4736C10.6711 20.6107 10.8277 20.6782 10.916 20.7109C10.9582 20.7265 11.0019 20.7421 11.0479 20.7578C11.0375 20.707 11.0298 20.655 11.0274 20.6016C11.0239 20.5256 11.0219 20.4547 11.0176 20.0908C11.0137 19.7607 11.008 19.1949 11.0059 18.8486C10.9565 18.8067 10.9141 18.7694 10.8828 18.7412C10.8179 18.6826 10.7891 18.6561 10.7784 18.6465C10.7623 18.6364 10.7445 18.6257 10.7061 18.6025C10.6644 18.5773 10.6096 18.5428 10.5459 18.5C10.4267 18.4198 10.2925 18.3181 10.1465 18.206C9.74682 17.8986 9.64424 17.3485 9.88577 16.9219C10.0133 16.5163 10.3923 16.2218 10.8399 16.2217C10.8484 16.2217 10.8602 16.2215 11.2041 16.2246C11.5535 16.2277 12.2522 16.2347 12.6416 16.2392C12.8225 16.2414 12.9425 16.2427 13.0303 16.2451L13.2266 16.2558L13.3496 16.2744C13.3972 16.2839 13.5165 16.3107 13.6494 16.3818C13.7915 16.4579 14.0244 16.6278 14.1358 16.9492C14.2443 17.2631 14.1717 17.5334 14.1153 17.6728C14.0448 17.8469 13.9322 17.9891 13.8907 18.042C13.8268 18.1232 13.7511 18.2099 13.6739 18.2949C13.5177 18.4667 13.3175 18.6716 13.1016 18.8848C13.0713 18.9146 13.0395 18.9432 13.0069 18.9707C13.0093 19.3116 13.0132 19.78 13.0166 20.0674C13.0209 20.4263 13.0236 20.4701 13.0254 20.5107C13.0299 20.6093 13.0186 20.7047 12.9961 20.7959C13.2288 20.7243 13.3936 20.6668 13.5108 20.6182C13.5691 20.594 13.6107 20.5744 13.6387 20.5596C13.6635 20.5464 13.6745 20.539 13.6758 20.5381C13.8939 20.3796 14.3226 20.0181 14.7129 19.5732C14.9157 19.3421 14.9493 19.3071 15.0684 19.1191C15.4628 18.4965 15.6996 18.0904 15.7774 17.9648C15.8158 17.9028 16.0533 17.5218 16.3789 16.7598C16.5387 16.3858 16.6859 15.9766 16.8555 15.2959C17.03 14.5953 17.216 13.6616 17.3076 12.9912C17.399 12.3223 17.4038 11.9551 17.3838 11.6943C17.3608 11.3933 17.3399 11.182 17.3203 11.0351C17.2986 10.872 17.2855 10.8452 17.2969 10.8769C17.2185 10.6586 17.0714 10.2725 16.8428 9.88671C16.6464 9.55533 16.5141 9.30671 16.2569 9.10546C16.0221 8.92182 15.7645 8.79635 15.6192 8.74218C15.3647 8.6474 15.2171 8.59639 14.9287 8.52538C14.8522 8.50653 14.7374 8.48746 14.584 8.46581C14.4598 8.44829 14.27 8.42443 14.1348 8.39843C14.0015 8.37276 13.8296 8.3421 13.5313 8.3203C13.1672 8.2937 13.0237 8.25872 12.6524 8.25487C12.3561 8.25182 12.1275 8.24591 11.9502 8.24315C11.2812 8.27108 10.6685 8.30031 10.3203 8.3203ZM12.4356 19.3242C12.4393 19.3224 12.4435 19.3211 12.4473 19.3193C12.4517 19.3172 12.4557 19.3137 12.46 19.3115C12.4519 19.3156 12.4438 19.3203 12.4356 19.3242ZM9.7637 12.6416C10.3159 12.6416 10.7636 13.0894 10.7637 13.6416V14.0342C10.7637 14.5865 10.316 15.0342 9.7637 15.0342C9.2116 15.034 8.7637 14.5863 8.7637 14.0342V13.6416C8.76383 13.0895 9.21168 12.6418 9.7637 12.6416ZM15.1895 12.6064C15.7407 12.6364 16.1633 13.108 16.1338 13.6592C16.1313 13.7049 16.1279 13.7664 16.1231 13.8271C16.1167 13.9078 16.1088 13.978 16.0869 14.123C16.0048 14.669 15.4952 15.0457 14.9493 14.9639C14.4032 14.8817 14.0265 14.3722 14.1084 13.8262C14.1182 13.761 14.1234 13.7252 14.126 13.7041C14.1281 13.6877 14.1291 13.6801 14.1299 13.6699C14.1324 13.6381 14.134 13.6019 14.1368 13.5517C14.1668 13.0004 14.6381 12.5766 15.1895 12.6064ZM2.70511 11.4658C2.76868 11.6568 2.84532 11.796 2.92093 11.9209C3.08474 12.1914 3.25268 12.3874 3.3555 12.4902C3.56661 12.6177 3.76677 12.7272 3.92484 12.8047C3.98762 12.8354 4.0411 12.8589 4.08206 12.8769C4.10241 12.8778 4.12518 12.8787 4.15042 12.8799C4.14562 12.4739 4.15777 12.0675 4.17679 11.7451C4.17881 11.7108 4.1814 11.6773 4.18363 11.6445C4.1715 11.6432 4.15906 11.6429 4.14652 11.6416C3.94095 11.6195 3.66551 11.583 3.40335 11.5488C3.15816 11.5168 2.91518 11.4873 2.70511 11.4658ZM19.3828 11.6699C19.3982 11.9675 19.3922 12.3004 19.3526 12.7139C19.3626 12.7093 19.3739 12.7055 19.3848 12.7002C19.4936 12.6477 19.6219 12.5791 19.751 12.5107C19.9053 12.4031 20.0801 12.2745 20.2334 12.1318C20.4137 11.964 20.4988 11.8387 20.5254 11.7754C20.5362 11.7496 20.5469 11.7172 20.5606 11.6807C20.1722 11.6774 19.7135 11.6737 19.3828 11.6699Z" fill="black"/>
</svg>
