<svg width="24" height="24" viewBox="0 0 24 24" fill="none" xmlns="http://www.w3.org/2000/svg">
<path d="M15.8571 0.634592C16.2756 0.514477 16.7168 0.533779 17.0661 0.582835C17.4319 0.634233 17.7922 0.732345 18.0954 0.839671C18.5964 1.01714 19.0143 1.41636 19.2829 1.68928C19.4939 1.90372 19.6505 2.16546 19.7702 2.39436C19.8947 2.63263 20.0146 2.90548 20.1305 3.18049C20.1958 3.33539 20.2465 3.49685 20.2868 3.64826C20.3743 3.62947 20.4752 3.60793 20.571 3.58967C20.6687 3.57105 20.7871 3.55111 20.9059 3.54084C20.982 3.53428 21.1084 3.52655 21.2536 3.54475L21.405 3.57307L21.5886 3.62678C22.0063 3.76645 22.3495 4.00279 22.6022 4.2176C22.897 4.46823 23.1231 4.73579 23.2643 4.9217C23.5176 5.25539 23.5666 5.66095 23.5856 5.86701C23.609 6.12161 23.6071 6.40556 23.6012 6.65901C23.5846 7.37667 23.2445 8.03153 23.0016 8.48225C22.681 9.07712 22.2613 9.41128 22.0778 9.56916C21.7118 9.88423 21.1653 10.1105 20.7165 10.2723C20.0244 10.5218 19.3424 10.4669 18.8512 10.368C18.7464 10.5357 18.6144 10.7471 18.446 11.0164L18.4372 11.0291L18.4294 11.0418C18.2338 11.3342 17.9871 11.6862 17.7507 12.0203C17.9423 12.0027 18.0952 11.9927 18.2262 11.9842L18.3903 11.9852C18.7594 12.014 19.0218 12.2186 19.1667 12.3836C19.3085 12.5453 19.3923 12.7258 19.4352 12.8221C19.4838 12.931 19.532 13.0579 19.57 13.1561C19.612 13.2646 19.6541 13.371 19.7028 13.4822C19.8814 13.8906 20.0538 14.3781 20.5212 15.2987C20.9937 16.2293 21.7348 17.5502 22.1462 18.2742C22.3975 18.7165 22.5616 19.0028 22.6442 19.1483C22.7196 19.281 22.7806 19.3874 22.8219 19.4822C22.9567 19.7911 22.9511 20.1228 22.8337 20.4129C22.7306 20.6674 22.5625 20.8402 22.4421 20.9432C22.2066 21.1444 21.9142 21.2799 21.7018 21.367C21.278 21.5408 20.6895 21.7027 20.5124 21.7606C20.0712 21.9047 19.3965 22.0717 18.4948 22.2381C17.5492 22.4126 16.3732 22.5683 13.945 22.5867C11.5378 22.605 7.90549 22.4837 5.88347 22.3953C3.87655 22.3077 3.48578 22.2542 3.18718 22.1961C2.75036 22.1112 2.2923 22.0107 1.92937 21.9188C1.75067 21.8735 1.57834 21.8257 1.43816 21.7791C1.37065 21.7567 1.28703 21.7272 1.20672 21.6903C1.16741 21.6722 1.1068 21.6426 1.04168 21.6004C0.998886 21.5727 0.846203 21.4726 0.72527 21.285C0.384424 20.7559 0.643826 20.2318 0.684254 20.1483C0.76529 19.9811 0.877678 19.8292 0.957692 19.7254C1.04549 19.6116 1.14979 19.4863 1.2448 19.3719C1.34455 19.2518 1.44408 19.1316 1.54265 19.0057C1.82964 18.6392 1.97962 18.2953 2.1491 17.911C2.25162 17.6785 2.32891 17.5295 2.49382 17.1229C2.65129 16.7345 2.91501 16.0445 3.1823 15.41C3.45302 14.7674 3.73861 14.153 3.88738 13.828C4.04074 13.4809 4.08451 13.3729 4.14129 13.2391C4.14269 13.2354 4.14445 13.2309 4.14714 13.2225C4.15393 13.2013 4.16372 13.1695 4.18425 13.1004C4.21735 12.9893 4.26849 12.8886 4.33269 12.7996C4.32215 12.7781 4.30985 12.7571 4.29949 12.7352C4.18545 12.4942 4.0456 12.1577 3.98894 11.827C3.90569 11.3408 4.05789 10.9107 4.20574 10.6199C4.35916 10.3184 4.56597 10.0536 4.74773 9.84846C5.04098 9.51749 5.38571 9.31197 5.73894 9.15803C6.07157 9.01311 6.47099 8.88997 6.88445 8.76057C7.0887 8.69667 7.27898 8.65767 7.45086 8.63557C7.4921 8.42975 7.54113 8.1869 7.60222 7.89143C7.72111 7.31648 7.88235 6.86763 8.03777 6.53791C8.115 6.37412 8.19404 6.2341 8.26922 6.11994C8.30646 6.06342 8.34732 6.00556 8.39129 5.95198C8.42167 5.91497 8.5009 5.82095 8.6159 5.73713L8.68914 5.68342L8.77117 5.64436C8.99111 5.53866 9.21287 5.51545 9.31316 5.50569C9.43628 5.49371 9.58233 5.48738 9.69402 5.48225C10.2457 5.45689 10.7136 5.88367 10.7389 6.43537C10.7639 6.97961 10.3491 7.44066 9.80828 7.47737C9.72999 7.66053 9.63678 7.93122 9.56121 8.2967C9.47463 8.71546 9.39407 9.13775 9.33465 9.40998C9.30456 9.54775 9.26973 9.69803 9.22918 9.82307C9.21075 9.87985 9.17458 9.9815 9.1159 10.0867C9.08693 10.1386 9.02916 10.2341 8.93328 10.3299C8.84149 10.4216 8.63698 10.5909 8.32 10.6258C8.20184 10.6387 8.0965 10.6278 8.08367 10.6268C8.05381 10.6243 8.01077 10.6204 7.99675 10.619C7.9527 10.6146 7.9114 10.6108 7.86492 10.6102C7.77519 10.609 7.64533 10.6184 7.48113 10.6697C7.02945 10.8111 6.74929 10.8999 6.53777 10.992C6.34748 11.075 6.28166 11.1331 6.2448 11.1746C6.12241 11.3128 6.03591 11.4349 5.98894 11.5272C5.98463 11.5357 5.9813 11.5439 5.9782 11.5506C5.99978 11.6229 6.03939 11.7366 6.10711 11.8797C6.16309 11.998 6.22404 12.1065 6.27214 12.1893C6.5366 12.1868 6.87502 12.1846 7.3073 12.1805C7.8857 12.175 8.63178 12.1672 9.45086 12.159C9.49527 12.0742 9.55318 11.9945 9.62371 11.9227C9.68497 11.8603 9.74771 11.7975 10.2077 11.3289C10.672 10.8559 11.4994 10.0117 12.1647 9.20393C12.754 8.48833 13.2028 7.80983 13.4792 7.36604C13.4076 7.31352 13.331 7.25574 13.2516 7.19319C12.3676 6.49652 12.0625 5.66358 11.943 5.10823C11.666 3.81985 12.3775 2.96599 12.6872 2.55451C12.898 2.2745 13.2127 2.03995 13.4733 1.86213C13.7586 1.66743 14.1019 1.46032 14.4567 1.25178C15.0948 0.876817 15.5673 0.71783 15.8571 0.634592ZM17.7653 14.0262C17.5528 14.0428 17.0835 14.0655 15.3522 14.0916C13.229 14.1236 9.29648 14.1617 7.32586 14.1805C6.64922 14.1869 6.20236 14.1904 5.90691 14.1932C5.86538 14.2912 5.81075 14.4254 5.71746 14.6365L5.7116 14.6483C5.55687 14.9866 5.28408 15.5715 5.02507 16.1863C4.75931 16.8173 4.53358 17.4146 4.34734 17.8738C4.16886 18.314 4.04875 18.5608 3.97918 18.7186C3.8229 19.073 3.59885 19.5959 3.18132 20.1522C3.30903 20.179 3.4394 20.207 3.56902 20.2322C3.69884 20.2575 3.94424 20.3087 5.97136 20.3973C7.98625 20.4853 11.5757 20.6046 13.9294 20.5867C16.2614 20.569 17.3197 20.4213 18.1325 20.2713C18.9883 20.1133 19.5671 19.966 19.8913 19.8602C20.1344 19.7808 20.3791 19.7127 20.6188 19.6336C20.5591 19.5287 20.4897 19.4065 20.4079 19.2625C19.9977 18.5407 19.2345 17.1818 18.738 16.2039C18.2364 15.2161 18.0049 14.5917 17.8698 14.283C17.83 14.192 17.7966 14.1047 17.7653 14.0262ZM11.0231 16.8162C11.6165 16.8235 12.781 16.8385 13.9802 16.8533C14.5324 16.8602 14.9743 17.3138 14.9675 17.866C14.9604 18.4179 14.5077 18.86 13.9557 18.8533C12.7563 18.8385 11.5918 18.8235 10.9987 18.8162C10.4008 18.809 10.388 18.8094 10.3747 18.8094C9.82257 18.8092 9.37468 18.3616 9.37468 17.8094C9.37469 17.2572 9.82257 16.8096 10.3747 16.8094C10.4039 16.8094 10.4354 16.8091 11.0231 16.8162ZM16.4098 2.55647C16.2476 2.60305 15.9363 2.70258 15.4704 2.97639C15.1166 3.18432 14.8245 3.36051 14.6003 3.5135C14.3661 3.67328 14.29 3.75191 14.2848 3.75666C14.0987 4.00404 13.9965 4.14276 13.9323 4.29182C13.8843 4.40351 13.8613 4.51725 13.8981 4.6883C13.9529 4.94255 14.0781 5.29905 14.4889 5.62287C14.7562 5.8335 14.9083 5.92263 15.0934 6.05256C15.1691 6.10556 15.6427 6.39861 15.7175 6.97932L15.7272 7.09944L15.7184 7.28401C15.696 7.4585 15.6382 7.60284 15.5856 7.71467C15.5192 7.85587 15.4178 8.03348 15.277 8.26448C14.9847 8.74427 14.446 9.58004 13.7087 10.4754C13.2243 11.0635 12.668 11.6583 12.2165 12.1287C13.3393 12.1163 14.4144 12.1048 15.236 12.0926C15.2813 12.0308 15.3617 11.9228 15.4997 11.7313C15.8168 11.2912 16.3946 10.4853 16.7663 9.92951C17.0264 9.51332 17.2265 9.18643 17.3649 8.97541C17.4339 8.87029 17.5129 8.75451 17.5934 8.65803C17.6325 8.61121 17.699 8.5357 17.7887 8.46369C17.8572 8.40886 18.0732 8.24443 18.3981 8.22639L18.4938 8.22541C18.7072 8.23285 18.8638 8.30129 18.8932 8.3133C18.9577 8.33957 18.9203 8.32413 18.9079 8.32014C19.2543 8.43026 19.6898 8.51724 20.0387 8.39143C20.2446 8.31719 20.4181 8.24569 20.5544 8.17951C20.6218 8.14676 20.6744 8.11755 20.7136 8.09358C20.7326 8.08192 20.7473 8.07254 20.7575 8.06526L20.7731 8.05354C20.978 7.87718 21.1195 7.76106 21.2419 7.53401C21.5011 7.05298 21.597 6.79086 21.6012 6.61311C21.6071 6.36093 21.6062 6.17922 21.5944 6.05061C21.5939 6.04505 21.592 6.03994 21.5915 6.03498C21.514 5.94242 21.4172 5.83534 21.3063 5.74104C21.1921 5.644 21.0902 5.58128 21.0075 5.54475C20.9903 5.54763 20.9696 5.55001 20.946 5.55451C20.8746 5.56811 20.7956 5.58529 20.6979 5.60627C20.6052 5.62619 20.4963 5.6494 20.3874 5.66975C20.1956 5.70557 19.8903 5.7563 19.5954 5.72639C19.4433 5.71091 19.2079 5.66651 18.9782 5.51741C18.7154 5.34661 18.5237 5.07791 18.4567 4.7508C18.4381 4.65986 18.4258 4.55933 18.4196 4.50959C18.4115 4.44447 18.4043 4.38898 18.3942 4.3299C18.375 4.21741 18.3455 4.09381 18.2878 3.95686C18.1747 3.68877 18.0815 3.48135 17.9977 3.32112C17.9568 3.24278 17.9233 3.18519 17.8962 3.14436C17.8719 3.10794 17.8584 3.09303 17.8571 3.09162C17.734 2.96658 17.6311 2.87214 17.5446 2.80451C17.4535 2.73325 17.4169 2.72037 17.4284 2.72444C17.2264 2.65293 16.9972 2.59273 16.7878 2.5633C16.563 2.53175 16.4418 2.5475 16.4098 2.55647Z" fill="black"/>
</svg>
