<svg width="24" height="24" viewBox="0 0 24 24" fill="none" xmlns="http://www.w3.org/2000/svg">
<path d="M10.5843 3.03335C11.0629 3.00493 11.8812 2.97908 12.7435 3.02651C13.6083 3.07411 14.4881 3.19573 15.2278 3.36147C15.9785 3.52968 16.5533 3.73776 16.9925 3.9269C17.4474 4.12286 17.7618 4.30265 18.1321 4.57437C18.4763 4.82691 18.8612 5.15413 19.1673 5.43081C19.4783 5.71196 19.72 5.95282 19.9056 6.15542C20.1078 6.37621 20.2481 6.55934 20.4056 6.83218C20.5473 7.07782 20.6986 7.38904 20.8558 7.74722C21.0132 8.1061 21.1803 8.52101 21.2767 8.77163C21.4058 9.1075 21.4649 9.29643 21.5823 9.65835C21.6848 9.97454 21.8122 10.474 21.9095 10.8761C22.0186 11.3274 22.093 11.7113 22.1517 12.425C22.208 13.111 22.2492 14.1136 22.2503 14.8322C22.2514 15.5693 22.2093 16.0108 22.137 16.4162C22.0109 17.1229 21.8214 17.6125 21.6595 17.9142C21.4693 18.2682 21.2076 18.4825 21.1272 18.5529C20.8337 18.8096 20.4921 18.8718 20.2991 18.8908C20.0842 18.9118 19.8757 18.8959 19.7122 18.8742C19.3834 18.8305 19.0757 18.7421 18.9261 18.6916C18.6143 18.5862 18.3199 18.4283 17.9954 18.1691L17.9935 18.1681C17.8949 18.2539 17.7858 18.3381 17.6634 18.4191C17.4197 18.5802 17.0713 18.7691 16.6272 18.9035C16.3721 18.9807 16.0169 19.0911 15.5677 19.0822C15.4829 19.0805 15.4015 19.0767 15.3245 19.0734C15.253 19.2469 15.1641 19.4635 15.1019 19.6046C15.0156 19.8001 14.9409 19.9603 14.7737 20.1466C14.5999 20.3403 14.3027 20.6332 13.9456 20.8615C13.8428 20.9272 13.6645 21.0396 13.4114 21.1173C13.1674 21.1921 12.9084 21.2193 12.6214 21.2189C12.4436 21.2187 12.0886 21.2178 11.8372 21.1867C11.6464 21.1632 11.0166 21.1411 10.4915 20.5812C10.2003 20.2706 10.0191 19.9779 9.89482 19.6125C9.8456 19.4677 9.79916 19.3263 9.7581 19.1984C9.53487 19.1976 9.27518 19.1806 8.98759 19.1271C8.58457 19.0521 8.09875 18.9549 7.63213 18.6466C7.43797 18.5183 7.25039 18.3923 7.09795 18.2804C7.00232 18.2102 6.84381 18.09 6.7083 17.9406C6.52597 18.1663 6.34187 18.3428 6.18095 18.4777C5.88292 18.7273 5.61579 18.8502 5.36259 18.9318C4.55575 19.1915 3.99103 19.1486 3.46611 18.9992C3.01026 18.8694 2.73256 18.5306 2.58134 18.3146C2.41454 18.0762 2.26324 17.7801 2.11943 17.4757C1.94595 17.1085 1.88981 16.6604 1.84892 16.3341C1.79377 15.8939 1.77297 15.3677 1.85283 14.6417C1.93199 13.9226 2.1109 13.0206 2.44658 11.964C2.7792 10.9172 3.26072 9.74506 3.58232 9.01772C3.92561 8.24137 4.1192 7.90614 4.60966 7.31069C5.05378 6.77157 5.77666 5.97122 6.52666 5.28823C7.28277 4.59973 8.0315 4.06598 8.52763 3.74429C9.11254 3.36506 9.93349 3.07204 10.5843 3.03335ZM12.6204 18.0978C12.4022 18.2811 12.1571 18.4618 11.8772 18.588C11.8151 18.6161 11.7524 18.6419 11.6917 18.6691C11.7221 18.7621 11.7528 18.8641 11.7884 18.9689C11.8048 19.0172 11.8188 19.044 11.8333 19.0675C11.8473 19.0903 11.8731 19.126 11.9231 19.1818C11.9395 19.1842 11.9591 19.1874 11.9856 19.1906C11.9997 19.1923 12.0138 19.1935 12.0306 19.1955C12.0464 19.1973 12.0647 19.2 12.0833 19.2023C12.1881 19.2152 12.4069 19.2186 12.6233 19.2189C12.7613 19.2191 12.8164 19.2074 12.8255 19.2052C12.8062 19.2113 12.7942 19.2234 12.8685 19.1759C13.0051 19.0885 13.1472 18.9547 13.2503 18.8449C13.2562 18.8318 13.2637 18.8162 13.2718 18.798C13.2957 18.7436 13.3236 18.6718 13.3558 18.5958C13.347 18.5917 13.338 18.5883 13.3294 18.5841C13.3162 18.578 13.2461 18.5449 13.2063 18.5246C13.1364 18.4887 13.0484 18.4393 12.9524 18.3742C12.8458 18.3018 12.7327 18.2105 12.6204 18.0978ZM12.6341 5.02358C11.8698 4.98153 11.1307 5.00401 10.7024 5.02944C10.4462 5.04479 9.95472 5.20308 9.61552 5.423C9.18734 5.70066 8.53037 6.16943 7.87334 6.76772C7.21001 7.37181 6.55251 8.09795 6.15361 8.58218C5.8014 9.00976 5.69683 9.18089 5.41142 9.82632C5.10417 10.5212 4.65363 11.6197 4.35185 12.5695C4.05318 13.5096 3.90477 14.2821 3.84111 14.8605C3.77829 15.4315 3.79762 15.8013 3.8333 16.0861C3.85568 16.2646 3.8746 16.3932 3.89482 16.4933C3.91516 16.5939 3.92902 16.6254 3.92705 16.6212C4.03966 16.8596 4.12481 17.0126 4.18584 17.1105C4.22075 17.115 4.25384 17.1196 4.28838 17.1193C4.37771 17.1184 4.51995 17.1023 4.74931 17.0285C4.78642 17.0165 4.80289 17.0084 4.81474 17.0021C4.82672 16.9957 4.85322 16.9809 4.89677 16.9445C5.02945 16.8333 5.17056 16.6903 5.29033 16.4904C5.48231 16.1696 5.54807 16.0339 5.59404 15.8664C5.65675 15.6374 5.75492 15.2559 5.82939 14.8468C5.90286 14.4431 5.95494 14.0083 5.99541 13.4318C6.03629 12.8491 6.06368 12.1532 6.07744 11.6378C6.09217 11.0858 6.55179 10.6496 7.10381 10.6642C7.6558 10.6789 8.09105 11.1386 8.07646 11.6906C8.06228 12.222 8.03419 12.9502 7.99052 13.5724C7.94642 14.2006 7.88711 14.711 7.79716 15.2052C7.77141 15.3467 7.74253 15.4841 7.71416 15.6144C7.76854 15.6937 7.81254 15.7827 7.84306 15.8791C7.94594 16.2042 8.05099 16.3952 8.19951 16.6046C8.21755 16.6193 8.24438 16.6408 8.28154 16.6681C8.38925 16.7471 8.53825 16.8479 8.73466 16.9777C8.83111 17.0413 8.95365 17.087 9.35283 17.1613C9.7484 17.2348 10.0252 17.1862 10.1019 17.171C10.0781 17.1757 10.0872 17.1765 10.1487 17.1544C10.2028 17.1351 10.2753 17.106 10.3675 17.0675C10.5528 16.9901 10.7835 16.8872 11.055 16.7648C11.1625 16.7163 11.3066 16.6081 11.6282 16.3048C11.7028 16.2345 11.7323 16.1861 11.7415 16.1701C11.7468 16.1608 11.7514 16.1518 11.7581 16.1369C11.7603 16.132 11.7625 16.1279 11.7659 16.1203C11.7687 16.114 11.7738 16.1015 11.7796 16.089C11.7851 16.0771 11.7957 16.0555 11.8089 16.0304C11.8207 16.008 11.846 15.9611 11.8841 15.9074L11.9397 15.8351C12.0064 15.7565 12.1074 15.6616 12.2513 15.5871C12.4664 15.4757 12.7101 15.446 12.9388 15.4962C13.3034 15.5766 13.5 15.8289 13.5267 15.8615C13.6251 15.9816 13.7022 16.1328 13.72 16.1662C13.7954 16.3072 13.873 16.4586 13.9974 16.6398C14.0266 16.6824 14.0543 16.7055 14.0755 16.7199C14.1069 16.7412 14.1126 16.7416 14.2044 16.7863C14.4591 16.9101 14.7902 17.0175 14.9212 17.0373C14.9968 17.0486 15.2444 17.0759 15.6077 17.0832C15.7065 17.0851 15.7886 17.0682 16.0491 16.9894C16.2725 16.9218 16.4455 16.8274 16.5608 16.7511C16.6365 16.7011 16.6759 16.6652 16.6946 16.6476C16.7045 16.6224 16.7143 16.6006 16.72 16.5871C16.7276 16.5689 16.7292 16.5647 16.7308 16.5607C16.7321 16.5574 16.7359 16.5487 16.7532 16.4982C16.7575 16.4856 16.7631 16.4734 16.7679 16.4611C16.6857 16.2354 16.5829 15.9309 16.4622 15.547C16.2996 15.0301 16.2346 14.4894 16.1976 13.7121C16.1601 12.925 16.1701 11.8406 16.1849 11.1496C16.1967 10.5975 16.6543 10.1593 17.2063 10.171C17.7583 10.1831 18.1957 10.6405 18.1839 11.1925C18.1692 11.8759 18.1616 12.9021 18.1956 13.6164C18.23 14.3397 18.2856 14.6768 18.3704 14.9464C18.4858 15.3134 18.5782 15.5881 18.6468 15.7765C18.6812 15.8711 18.708 15.9382 18.7259 15.9806C18.7282 15.9861 18.73 15.9912 18.7317 15.9953C18.8528 16.1836 19.0146 16.423 19.2444 16.6066C19.3271 16.6726 19.3885 16.7127 19.4349 16.7384C19.4797 16.7633 19.521 16.7806 19.5667 16.796C19.5936 16.8051 19.6551 16.8241 19.7347 16.8439C19.8006 16.8603 19.8702 16.8726 19.9358 16.883C19.9966 16.7452 20.0929 16.4812 20.1673 16.0646C20.2143 15.801 20.2512 15.4819 20.2503 14.8351C20.2493 14.1694 20.2104 13.2207 20.1585 12.589C20.1089 11.9854 20.0516 11.7034 19.9651 11.3458C19.8669 10.9397 19.7559 10.5098 19.68 10.2755C19.5597 9.90469 19.5162 9.76703 19.4095 9.4894C19.321 9.25927 19.1666 8.87334 19.0247 8.54995C18.8827 8.22622 18.7638 7.98833 18.6731 7.8312C18.5983 7.70157 18.5488 7.63465 18.431 7.50601C18.2963 7.359 18.1003 7.16268 17.8255 6.91421C17.5455 6.66113 17.2174 6.38322 16.9495 6.18667C16.7077 6.00927 16.5257 5.90348 16.2015 5.76382C15.8613 5.61732 15.4047 5.4513 14.7903 5.31362C14.1652 5.17354 13.3957 5.06552 12.6341 5.02358ZM11.6956 12.4132C11.9497 12.4241 12.7742 12.4561 13.1116 12.5011C13.4648 12.5484 13.7451 12.761 13.8978 13.0353C13.9904 13.2019 14.0202 13.3612 14.0296 13.4708L14.0345 13.5617L14.0218 13.7326C13.9985 13.8939 13.9446 14.027 13.8938 14.1242C13.8296 14.247 13.7547 14.3419 13.7103 14.3957C13.6683 14.4464 13.6153 14.5056 13.595 14.5285C13.5665 14.5607 13.5511 14.5798 13.5403 14.5939C13.5128 14.6301 13.4987 14.6516 13.4534 14.7199C13.4349 14.7477 13.4008 14.7994 13.3587 14.8527C13.3159 14.9066 13.244 14.9894 13.1419 15.0685C12.9597 15.2094 12.7219 15.3089 12.4495 15.3117C12.1914 15.3142 11.9845 15.2295 11.847 15.1496C11.5999 15.0059 11.4416 14.7981 11.3724 14.7033C11.3014 14.606 11.2401 14.5028 11.2024 14.4406C11.182 14.4243 11.1563 14.4042 11.1253 14.3781C11.0045 14.2761 10.9152 14.1504 10.8558 14.0148C10.7204 13.8359 10.6432 13.611 10.6536 13.3693C10.6776 12.8178 11.144 12.3895 11.6956 12.4132ZM14.5384 10.0128C15.0869 9.94866 15.5835 10.3413 15.6478 10.8898C15.6519 10.9254 15.6579 10.9789 15.6604 11.0597C15.6627 11.1309 15.6617 11.1504 15.6663 11.2208C15.7021 11.7717 15.2846 12.2472 14.7337 12.2833C14.183 12.3192 13.7067 11.9023 13.6702 11.3517C13.6628 11.2384 13.6618 11.1369 13.6614 11.1232V11.1222C13.5973 10.5738 13.99 10.0772 14.5384 10.0128ZM9.93974 9.74429C10.4918 9.74455 10.9397 10.1922 10.9397 10.7443C10.9397 10.8087 10.9315 10.877 10.931 10.883C10.9272 10.9219 10.921 10.981 10.9163 11.049C10.914 11.0824 10.9125 11.1157 10.9114 11.1447C10.9109 11.159 10.9106 11.1713 10.9104 11.1808V11.1955C10.9251 11.7473 10.4895 12.2068 9.93779 12.2218C9.38571 12.2365 8.92609 11.8003 8.91142 11.2482C8.90839 11.1333 8.91482 11.0007 8.92119 10.9093L8.94072 10.6925C8.94028 10.7007 8.94001 10.711 8.93974 10.7228C8.93948 10.7346 8.93974 10.7443 8.93974 10.7443C8.93974 10.192 9.38746 9.74429 9.93974 9.74429Z" fill="black"/>
</svg>
