<svg width="24" height="24" viewBox="0 0 24 24" fill="none" xmlns="http://www.w3.org/2000/svg">
<path d="M14.3122 1.00714C15.5619 0.987547 16.1893 1.01413 16.5964 1.04914C16.9686 1.08116 17.3043 1.13524 17.6247 1.2591C17.9553 1.38694 18.205 1.56445 18.4294 1.74347C18.8211 2.05592 19.0432 2.54732 19.198 2.95734C19.3701 3.41337 19.5405 4.00849 19.7292 4.7298C19.8752 5.28789 19.8506 5.69323 19.8533 5.84503V5.85871C19.8536 5.86801 19.8545 5.88052 19.8552 5.89582C19.8567 5.92683 19.8583 5.96727 19.8611 6.01691C19.8667 6.11688 19.8748 6.24892 19.8845 6.41046C19.904 6.73304 19.9308 7.16981 19.9597 7.68878C19.9949 8.32016 20.0872 8.58012 20.3562 9.62433C20.496 10.1671 20.7975 10.7614 21.1257 11.43C21.2825 11.7495 21.3477 11.9283 21.5095 12.4525C21.725 13.1508 21.9001 13.7514 22.0251 14.2015C22.1413 14.6198 22.2328 14.9729 22.2576 15.1292C22.3227 15.5395 22.4677 16.2641 22.4841 17.3128C22.5027 18.5165 21.8174 19.2821 21.6775 19.5286C21.2327 20.3136 20.708 20.95 20.4343 21.2444C20.0201 21.69 19.3348 22.2457 18.4763 22.5638C17.8511 22.7953 17.3295 22.8357 17.0564 22.8821C16.8151 22.9232 16.5733 22.9775 15.7888 22.9896C15.4591 22.9946 14.9872 22.9963 14.5173 22.9974C14.0419 22.9984 13.5655 22.9989 13.2136 23.0042C12.7748 23.0109 12.4963 23.024 12.2615 23.0364C12.0256 23.0489 11.8072 23.0623 11.5193 23.0657C11.0551 23.0712 10.1687 23.0849 9.30638 23.0823C8.44343 23.0798 7.62791 23.0616 7.10423 23.0413C5.98771 22.998 5.45986 22.8616 4.85814 22.6214C4.31264 22.4036 3.83222 22.0032 3.72338 21.928C3.31008 21.6427 2.8889 21.1911 2.6472 20.8841C2.22499 20.3477 2.02081 20.0559 1.81127 19.6907C1.35564 18.8967 1.25602 18.3402 1.15892 18.0491C1.04075 17.6952 1.04084 17.3386 1.02513 17.0472C0.975433 16.1262 1.04941 15.2944 1.10912 14.8763C1.24163 13.9492 1.80155 13.0346 2.33568 12.5306C2.61383 12.2682 3.00325 11.8492 3.17455 11.6087C3.22229 11.5315 3.26626 11.4444 3.29857 11.3685C3.31479 11.3303 3.32739 11.2985 3.3347 11.2786C3.33806 11.2695 3.34045 11.2623 3.34154 11.2591V11.2581L3.35423 11.22L3.37181 11.179C3.40298 11.1061 3.57235 10.7521 3.74486 9.40753C3.76619 9.24127 3.78715 9.12396 3.80345 9.02081C3.81985 8.91703 3.83886 8.78495 3.86595 8.5423C3.92307 8.03057 4.01136 7.0953 4.0681 6.54132C4.13705 5.86823 4.15568 5.77576 4.16771 5.5882C4.20576 4.99366 4.3243 4.39589 4.44798 3.92023C4.56439 3.47269 4.71094 3.03565 4.83861 2.79621C5.12339 2.26265 5.56252 1.98051 6.05052 1.75421C6.3926 1.59566 6.80536 1.53296 7.12181 1.49152C7.29564 1.46876 7.48494 1.44774 7.66771 1.42707C7.85488 1.40589 8.04546 1.38351 8.23998 1.35675C8.61815 1.30471 8.99839 1.22606 10.1286 1.15753C11.2306 1.09074 13.0677 1.02668 14.3122 1.00714ZM14.3435 3.00714C13.1219 3.02632 11.3156 3.08902 10.2497 3.15363C9.21329 3.21647 8.92165 3.28189 8.51244 3.3382C8.29269 3.36842 8.08256 3.39295 7.8933 3.41437C7.69975 3.43627 7.53337 3.45407 7.38158 3.47394C7.23033 3.49375 7.11315 3.51273 7.0222 3.53253C6.97815 3.54216 6.94485 3.55172 6.92162 3.5589C6.90096 3.56531 6.89145 3.56875 6.89134 3.56867C6.72243 3.64702 6.65003 3.69586 6.61986 3.72003C6.61185 3.72648 6.60733 3.73053 6.60619 3.73175C6.60558 3.73283 6.60458 3.73515 6.60326 3.73761C6.59955 3.74646 6.57341 3.80535 6.53099 3.92902C6.48659 4.05854 6.43427 4.22811 6.38353 4.42316C6.28061 4.81896 6.19132 5.28621 6.1638 5.71613C6.14885 5.94907 6.11571 6.17582 6.05736 6.74542C6.00427 7.26377 5.91223 8.24438 5.85423 8.76398C5.82383 9.03636 5.80026 9.19895 5.77904 9.33331C5.7578 9.46774 5.74566 9.53438 5.72923 9.66242C5.5518 11.0453 5.35599 11.6068 5.23509 11.9007C5.23411 11.9038 5.23341 11.9078 5.23216 11.9114C5.22707 11.9262 5.22012 11.946 5.21166 11.9691C5.19462 12.0154 5.16958 12.0784 5.13841 12.1517C5.07745 12.2949 4.98232 12.4975 4.8513 12.7025L4.84154 12.7181L4.8308 12.7327C4.54591 13.1434 4.02235 13.6879 3.70775 13.9847C3.45493 14.2234 3.14845 14.741 3.08861 15.1585C3.04405 15.4705 2.9807 16.1708 3.0222 16.9398C3.02661 17.0215 3.03223 17.1386 3.0349 17.1888C3.03857 17.2578 3.04129 17.3052 3.04466 17.3421C3.04789 17.3772 3.05091 17.3954 3.05248 17.4036C3.05362 17.4096 3.0545 17.4126 3.05541 17.4153C3.23317 17.9479 3.22208 18.1317 3.54564 18.6956C3.68648 18.941 3.82468 19.1465 4.21849 19.6468C4.3926 19.868 4.67242 20.1529 4.86009 20.2825C4.93654 20.3353 5.01604 20.3944 5.07689 20.4398C5.1437 20.4896 5.20271 20.5336 5.26341 20.5755C5.38349 20.6584 5.49138 20.7209 5.59935 20.764C5.96176 20.9086 6.26073 21.0066 7.18138 21.0423C7.6779 21.0615 8.46942 21.0798 9.31224 21.0823C10.1558 21.0848 11.0233 21.0713 11.4958 21.0657C11.7338 21.0629 11.9063 21.0526 12.156 21.0394C12.4073 21.0261 12.7121 21.0123 13.1833 21.0052C13.5509 20.9996 14.0414 20.9984 14.5124 20.9974C14.9888 20.9963 15.4452 20.9954 15.7585 20.9905C16.0962 20.9853 16.2889 20.9715 16.4109 20.9583C16.5335 20.945 16.5869 20.9332 16.7204 20.9105C17.1911 20.8304 17.3887 20.834 17.781 20.6888C18.2767 20.5051 18.7113 20.1598 18.9695 19.8821C19.162 19.6749 19.5855 19.1639 19.9372 18.5433C20.3499 17.8149 20.4925 17.8285 20.4851 17.3441C20.4714 16.4678 20.3545 15.8995 20.282 15.4427C20.2802 15.4353 20.2687 15.3807 20.237 15.2562C20.2043 15.1272 20.1581 14.9518 20.0984 14.7366C19.9789 14.3064 19.8088 13.7242 19.5984 13.0423C19.5209 12.7911 19.4774 12.6592 19.4421 12.5648C19.4113 12.4823 19.3838 12.4207 19.3298 12.3109C19.0412 11.723 18.622 10.9124 18.4187 10.1234C18.1733 9.17061 18.0115 8.67754 17.9626 7.80011C17.9074 6.80676 17.8564 6.05326 17.8533 5.88019C17.8487 5.62177 17.8653 5.50592 17.7947 5.23566C17.6072 4.51908 17.4587 4.01275 17.3269 3.66339C17.2308 3.40877 17.1689 3.30981 17.156 3.28742C17.0146 3.17646 16.9542 3.14413 16.9031 3.12433C16.8387 3.09955 16.7182 3.06659 16.4245 3.04132C16.1116 3.01443 15.5588 2.98809 14.3435 3.00714ZM11.8142 9.12238C12.3597 9.10936 12.9195 9.19879 13.3913 9.28937C13.9068 9.38835 14.2216 9.72029 14.3982 9.97492C14.5585 10.2063 14.6776 10.4848 14.7429 10.6282C14.8454 10.8532 14.9221 11.135 14.9792 11.3587C15.0343 11.5744 15.1078 11.8911 15.157 12.0892C15.2901 12.6248 15.5275 13.2958 15.9558 14.1595C16.3935 15.042 16.9081 15.6555 17.199 15.9583C17.313 16.077 17.402 16.1609 17.4831 16.2386C17.5204 16.2743 17.5696 16.3217 17.614 16.3685C17.6544 16.411 17.729 16.4922 17.7956 16.5989C17.8999 16.7662 17.969 16.9727 17.9685 17.2015C17.9679 17.4215 17.9034 17.6031 17.8357 17.7337C17.7146 17.967 17.5353 18.1263 17.4402 18.2064C17.2445 18.3709 16.9358 18.5709 16.7078 18.7278C15.8827 19.2954 14.9042 19.3688 14.5076 19.4446C14.2691 19.4902 13.9292 19.4952 13.6921 19.4984C13.4016 19.5022 13.1424 19.5016 12.9236 19.5101C12.834 19.5136 12.6033 19.5292 11.9079 19.5511C11.3119 19.5698 10.2898 19.5591 9.66869 19.5433C9.00056 19.5262 8.47997 19.4532 8.02416 19.3235C7.56538 19.193 7.21417 19.016 6.90013 18.847C6.30024 18.524 5.93432 17.9722 5.78099 17.4984C5.54884 16.7798 6.03344 16.2482 6.15795 16.1136C6.25558 16.0081 6.36331 15.911 6.4431 15.8392C6.53374 15.7576 6.59801 15.6997 6.66185 15.638C6.90252 15.4056 7.15168 15.1083 7.49095 14.7083C7.7111 14.4487 7.82793 14.2731 8.04955 13.9544C8.10554 13.8738 8.16801 13.6987 8.2683 13.3851C8.27676 13.3446 8.28526 13.2944 8.30736 13.179C8.32989 13.0615 8.34709 12.9864 8.38939 12.7454C8.39919 12.6898 8.41414 12.6359 8.43236 12.5843C8.47185 12.2822 8.54474 11.9156 8.67845 11.4984C9.00051 10.4938 9.78137 9.91989 10.0867 9.67902C10.628 9.25191 11.2713 9.13538 11.8142 9.12238ZM11.862 11.1224C11.5374 11.1302 11.3903 11.1986 11.3259 11.2493C10.9665 11.5329 10.6932 11.7645 10.5828 12.1087C10.4069 12.6574 10.3884 13.0486 10.3884 13.221C10.3884 13.4182 10.3297 13.6013 10.2312 13.7562C10.2227 13.7987 10.2166 13.8423 10.2078 13.8792L10.199 13.9144L10.1882 13.9485C10.1174 14.1711 9.96309 14.7061 9.69213 15.096C9.48414 15.3952 9.31056 15.6553 9.01634 16.0023C8.70829 16.3655 8.38189 16.7584 8.0515 17.0775C8.02565 17.1024 7.99753 17.1255 7.97142 17.1497C8.1856 17.2611 8.36065 17.3398 8.57103 17.3997C8.82338 17.4715 9.16928 17.5292 9.71947 17.5433C10.3298 17.5588 11.3062 17.569 11.8445 17.5521C12.5455 17.53 12.7009 17.5177 12.8464 17.512C13.0985 17.5023 13.4238 17.5025 13.6658 17.4993C13.7953 17.4976 13.9075 17.4951 13.9988 17.4905C14.0865 17.4861 14.1257 17.4805 14.1316 17.4798C14.8242 17.3473 15.1742 17.3376 15.5369 17.1028C15.1446 16.6579 14.6193 15.9665 14.1638 15.0482C13.682 14.0766 13.39 13.2687 13.2165 12.5706C13.1459 12.2862 13.1029 12.0925 13.0417 11.8528C12.9827 11.6216 12.9424 11.5007 12.9226 11.4573C12.8769 11.3571 12.8467 11.2876 12.8142 11.222C12.8133 11.2202 12.8121 11.2179 12.8113 11.2161C12.4518 11.1531 12.134 11.1159 11.862 11.1224ZM16.4548 5.69757C16.9996 5.6075 17.514 5.97605 17.6042 6.52082C17.6189 6.60954 17.6334 6.69869 17.657 6.92804C17.6793 7.14578 17.7118 7.5033 17.7439 7.85968C17.7932 8.40959 17.3866 8.89614 16.8367 8.94562C16.2871 8.99463 15.8015 8.58884 15.7517 8.03937C15.719 7.6764 15.6884 7.33417 15.6677 7.13214C15.6576 7.03406 15.6504 6.97518 15.6453 6.93683C15.6405 6.90108 15.6368 6.8786 15.6316 6.84699C15.5415 6.30237 15.9103 5.78799 16.4548 5.69757ZM7.8767 5.67902C8.42898 5.67902 8.8767 6.12673 8.8767 6.67902C8.87669 6.81901 8.87638 6.96968 8.87181 7.15949C8.86739 7.34296 8.85955 7.5296 8.86595 7.87335C8.87611 8.42536 8.43747 8.88148 7.88548 8.89191C7.3335 8.902 6.87729 8.46246 6.86693 7.91046C6.85957 7.51506 6.86869 7.28179 6.87279 7.11164C6.87673 6.94814 6.8767 6.81875 6.8767 6.67902C6.8767 6.12687 7.32459 5.67923 7.8767 5.67902Z" fill="black"/>
</svg>
