<svg width="24" height="24" viewBox="0 0 24 24" fill="none" xmlns="http://www.w3.org/2000/svg">
<path d="M14.1011 1.22817C14.3819 1.17533 15.1108 1.12783 16.1734 1.21841C16.6616 1.26004 17.0982 1.3325 17.4527 1.45864C17.883 1.61184 18.2963 1.79821 18.6685 2.07388C18.9168 2.25782 19.2352 2.49996 19.6734 3.05532C20.286 3.83193 20.7381 4.3971 20.8804 4.59536C21.1362 4.95185 21.2228 5.06998 21.2867 5.12563C21.5428 5.34896 21.7358 5.48883 21.8628 5.56997C21.9261 5.61037 21.9695 5.63315 21.9917 5.64419C22.0207 5.65856 22.0009 5.64579 21.9449 5.63052C22.4163 5.75891 22.7168 6.20445 22.6792 6.67446C22.6807 6.68212 22.6828 6.69018 22.6841 6.6979C22.7739 7.24249 22.4054 7.75705 21.8609 7.84731C21.7897 7.85909 21.7515 7.86656 21.7329 7.87075C21.6271 7.91587 21.4896 7.96846 21.3218 7.99673L21.2964 8.00161L21.271 8.00454C20.8372 8.05481 20.7556 7.98346 20.1158 8.13931C19.8145 8.21272 19.5393 8.27432 19.2906 8.34341C19.2443 8.35626 19.2034 8.37041 19.1675 8.38149C19.1864 8.44808 19.2011 8.48568 19.2193 8.52212C19.253 8.58985 19.313 8.68968 19.4624 8.90005C19.6707 9.19322 20.0719 9.74649 20.4683 10.3375C20.8666 10.9314 21.2516 11.5484 21.5747 12.1032C21.898 12.6582 22.154 13.1415 22.3501 13.5456C22.5262 13.9084 22.6993 14.2722 22.7935 14.6012C22.9235 15.0553 23.0301 15.5909 23.0298 16.2331C23.0296 16.7427 23.0053 17.3808 22.7974 18.028C22.6441 18.5053 22.4447 19.099 21.9673 19.6862C21.7135 19.9983 21.3544 20.372 21.0552 20.65C20.7585 20.9257 20.5021 21.1347 20.2632 21.2916C19.8374 21.5713 19.2083 21.8648 18.1255 22.0583C17.474 22.1746 16.6411 22.2646 15.2115 22.2946C13.7944 22.3243 11.7988 22.2967 10.1294 22.1295C8.44856 21.9611 7.14921 21.6617 6.29251 21.4186C5.43001 21.1738 4.999 20.983 4.66849 20.8092C4.41345 20.6751 4.15389 20.5323 3.93411 20.3375C3.76059 20.1837 3.523 19.9798 3.31009 19.6803C3.09417 19.3765 2.93324 19.0203 2.78275 18.5592C2.65352 18.1633 2.51179 17.6268 2.39115 16.984C2.27506 16.3654 2.17357 15.6193 2.08255 15.0504C1.97814 14.398 1.89973 14.0155 1.78763 13.3346C1.68716 12.7244 1.58825 12.0344 1.53958 11.5739C1.5154 11.345 1.50125 11.1518 1.49954 10.9938C1.49839 10.8853 1.49613 10.6265 1.60111 10.3786L1.66751 10.2487C1.76173 10.0899 1.94722 9.86621 2.2847 9.77309C2.6629 9.66887 2.96478 9.81477 3.0181 9.8395C3.10495 9.87985 3.18261 9.92913 3.20462 9.94302C3.2449 9.96842 3.26697 9.98274 3.3013 10.0036C4.19554 10.546 4.31633 10.6451 4.63626 10.7389C4.92974 10.825 5.18289 10.8955 5.39115 10.944C5.49439 10.968 5.57782 10.9849 5.64212 10.9948C5.70447 11.0043 5.73199 11.0045 5.73294 11.0045C5.98216 11.0013 6.20042 10.976 6.35111 10.9254C6.35633 10.9234 6.37557 10.916 6.4097 10.9C6.45252 10.8801 6.50992 10.8514 6.57962 10.8131C6.71938 10.7363 6.89907 10.6271 7.10501 10.485C7.31909 10.3372 7.81988 9.9307 8.73978 9.52407C9.6215 9.13435 10.2299 8.90116 10.438 8.84634C10.5783 8.80939 10.9441 8.68849 11.439 8.652C11.3673 8.55191 11.2983 8.45483 11.2378 8.36196C10.8275 7.73171 10.5586 7.23906 10.4195 6.81899C10.2797 6.39688 10.0599 5.74283 10.2076 4.70766C10.263 4.31895 10.3584 3.70887 10.6548 3.20083C10.8453 2.87442 11.3827 2.02957 12.4497 1.69204C13.0885 1.48998 13.7302 1.29805 14.1011 1.22817ZM14.8843 3.16958C14.611 3.1751 14.4781 3.19313 14.4712 3.19399C14.241 3.2374 13.7194 3.38825 13.0523 3.59927C12.7262 3.70253 12.5139 3.98321 12.3824 4.20864C12.3075 4.33698 12.2459 4.57798 12.187 4.99087C12.1437 5.29545 12.155 5.51587 12.1812 5.68325C12.2086 5.85801 12.2546 5.99896 12.3179 6.19009C12.3729 6.35601 12.5248 6.6715 12.9146 7.27016C13.1361 7.61038 13.5235 8.0991 13.8218 8.44302C13.9563 8.59804 14.0658 8.70894 14.149 8.7897C14.1916 8.83108 14.2287 8.86581 14.2652 8.90005C14.2946 8.92762 14.3444 8.97445 14.3872 9.01919C14.4259 9.05954 14.5106 9.15029 14.5806 9.277C14.6043 9.31987 14.9054 9.85296 14.5113 10.3825C14.3329 10.6221 14.1018 10.7158 13.9712 10.7526C13.8402 10.7894 13.7293 10.7925 13.6724 10.7916C13.5596 10.7899 13.4682 10.7693 13.437 10.7624C13.1039 10.6884 13.0512 10.6583 12.9331 10.65C12.9312 10.65 12.9032 10.6486 12.8355 10.6471C12.7696 10.6457 12.6807 10.6443 12.5718 10.6432C12.354 10.6411 12.0602 10.64 11.7163 10.6413C11.3997 10.6425 11.2109 10.7114 10.9468 10.7809C10.9361 10.7848 10.8244 10.8221 10.5777 10.9196C10.3311 11.0171 9.98516 11.1601 9.54837 11.3532C8.84344 11.6648 8.52699 11.933 8.24076 12.1305C7.74903 12.4698 7.28905 12.7205 6.98685 12.8219C6.54429 12.9703 6.08275 13.0003 5.75833 13.0045C5.48548 13.0081 5.18541 12.9499 4.93802 12.8922C4.67117 12.8301 4.37153 12.7455 4.07279 12.6579C3.93547 12.6176 3.80817 12.5697 3.68509 12.5182C3.70993 12.6821 3.73375 12.8483 3.76029 13.0094C3.84562 13.5277 3.96642 14.167 4.05716 14.734C4.16128 15.3847 4.24536 16.0263 4.35599 16.6159C4.4621 17.1812 4.5841 17.6327 4.68411 17.9391C4.79978 18.2934 4.88366 18.4429 4.93997 18.5221C4.99917 18.6053 5.06148 18.6643 5.26126 18.8415C5.27868 18.8568 5.33791 18.9014 5.59915 19.0387C5.78767 19.1378 6.08607 19.2812 6.83841 19.4948C7.59738 19.7102 8.78016 19.9842 10.3286 20.1393C11.8891 20.2956 13.7975 20.3243 15.1695 20.2956C16.5286 20.267 17.253 20.1826 17.774 20.0895C18.6251 19.9374 18.9928 19.7325 19.1646 19.6198C19.2773 19.5458 19.4441 19.4173 19.6939 19.1852C19.9413 18.9553 20.233 18.649 20.4156 18.4245C20.6395 18.149 20.7477 17.8682 20.8931 17.4157C21.0025 17.0749 21.0296 16.6929 21.0298 16.2321C21.03 15.8216 20.9635 15.4755 20.8706 15.151C20.8326 15.0181 20.7424 14.8122 20.5513 14.4186C20.38 14.0658 20.1477 13.6276 19.8462 13.11C19.5446 12.5921 19.1822 12.011 18.8072 11.4518C18.4303 10.8899 18.0538 10.3697 17.8326 10.0583C17.6726 9.83312 17.5352 9.62832 17.4283 9.41372C17.3129 9.18204 17.2492 8.97269 17.1968 8.75259C17.0843 8.28 17.1753 7.88728 17.232 7.68911L17.2857 7.53579C17.4272 7.19507 17.6712 6.97096 17.7505 6.89516C17.9446 6.70959 18.1807 6.61088 18.2964 6.56509C18.4444 6.50657 18.606 6.45691 18.7544 6.41567C19.0215 6.34145 19.3451 6.2681 19.5845 6.21059C19.459 6.05068 19.3474 5.88957 19.2554 5.76138C19.1486 5.61255 18.7515 5.11648 18.1031 4.29458C17.9489 4.09923 17.8315 3.97622 17.7417 3.89321C17.6523 3.81057 17.577 3.75458 17.4781 3.6813C17.3267 3.56914 17.1172 3.46151 16.7827 3.34243C16.6651 3.30057 16.4248 3.24751 16.0035 3.21157C15.5288 3.17112 15.1522 3.16418 14.8843 3.16958ZM14.3316 12.6383C14.8807 12.6943 15.2807 13.1849 15.2251 13.734C15.1613 14.3624 15.0346 15.037 14.8169 15.6901C14.5648 16.4461 14.0794 16.9221 13.7525 17.2262C13.4987 17.4622 13.1975 17.6516 12.8931 17.8239C12.5668 18.0084 12.1775 18.1922 11.9126 18.3083L11.899 18.3151L11.8843 18.32C11.4582 18.4915 11.1344 18.5861 10.7476 18.6247L10.7242 18.6276L10.7017 18.6286C10.5039 18.6392 10.243 18.6383 10.0181 18.6383C9.46607 18.6381 9.0182 18.1904 9.0181 17.6383C9.01832 17.0864 9.46614 16.6386 10.0181 16.6383C10.2496 16.6383 10.438 16.6374 10.5689 16.6315C10.6969 16.6173 10.8293 16.5876 11.1245 16.4694C11.3518 16.3692 11.6661 16.2193 11.9077 16.0827C12.1763 15.9307 12.3132 15.8338 12.3911 15.7614C12.6726 15.4996 12.835 15.3105 12.9195 15.0573C13.0818 14.5702 13.1828 14.045 13.2349 13.5329C13.2907 12.9835 13.7823 12.5827 14.3316 12.6383Z" fill="black"/>
</svg>
