<svg width="24" height="24" viewBox="0 0 24 24" fill="none" xmlns="http://www.w3.org/2000/svg">
<path d="M13.6806 1.04194C14.3956 1.04525 15.1444 1.08078 15.5488 1.10444C15.8234 1.12051 16.0034 1.13118 16.1796 1.16987L16.3583 1.2187L16.6279 1.3144C16.9434 1.43627 17.4017 1.64949 18.037 2.07319C18.5626 2.42376 19.28 2.95287 19.7167 3.29487C20.1879 3.66387 20.3941 3.86414 20.7001 4.25581C20.9462 4.5707 21.3286 5.0757 21.5683 5.4687C21.9242 6.05239 22.1828 6.61681 22.3554 7.28803C22.446 7.6403 22.4938 7.95325 22.537 8.63276C22.5795 9.29967 22.6199 10.3415 22.621 11.3095C22.6221 12.2464 22.6084 13.1551 22.5331 13.7792C22.4301 14.6335 22.33 15.1471 22.0839 15.791C21.9483 16.1459 21.6984 16.8284 21.4335 17.331C21.0495 18.0597 20.8039 18.4442 20.6826 18.5947C20.6118 18.6825 20.4591 18.8954 20.0663 19.1884C19.4892 19.6189 18.901 19.9742 18.5947 20.165C18.3535 20.3152 17.9725 20.6203 17.413 21.0751C16.9383 21.4611 16.4783 21.9587 15.6406 22.2177C15.1442 22.3711 14.5763 22.5201 13.8954 22.5419C13.5209 22.5539 13.0137 22.5495 12.7392 22.5458C12.4153 22.5416 12.3165 22.5341 11.7997 22.4726C11.2982 22.413 10.3718 22.2994 9.7724 22.2138C9.1611 22.1265 8.87987 22.0644 8.75189 22.041C8.45232 21.9861 7.96755 21.9169 7.42084 21.5458C7.24973 21.4296 7.06228 21.2775 6.94916 21.1894C6.80783 21.0793 6.73114 21.0275 6.68744 21.0048C6.11724 20.7105 5.88815 20.5804 5.6806 20.4492C5.54075 20.3608 5.14679 20.1817 4.55267 19.5761C4.32844 19.3475 3.7469 18.9059 3.25971 18.1191C2.58057 17.0219 2.43683 16.7636 2.27338 16.3437C2.20505 16.1681 2.12272 15.9036 2.04388 15.6562C1.95858 15.3885 1.8602 15.0847 1.74506 14.7695C1.61121 14.4032 1.47851 14.0087 1.37689 13.666C1.28929 13.3704 1.18449 12.9846 1.17279 12.706C1.1518 12.2001 1.14202 11.4127 1.19818 11.0195C1.25247 10.6405 1.28244 10.3835 1.3056 10.1845C1.32759 9.99561 1.34792 9.81326 1.38568 9.63276C1.45512 9.3013 1.55183 8.89546 1.64642 8.54584C1.69348 8.37193 1.74295 8.20141 1.79096 8.05659C1.82527 7.95311 1.89641 7.74065 2.00482 7.57319C2.10341 7.42091 2.16952 7.30436 2.28217 7.11616C2.39169 6.93318 2.52249 6.72187 2.72064 6.43549C2.92841 6.13526 3.0843 5.90079 3.20404 5.71967C3.31519 5.55155 3.41839 5.39434 3.49799 5.28608C3.6722 5.04918 4.26538 4.36067 4.72455 3.84272C4.99032 3.54292 5.22583 3.28182 5.4101 3.08588C5.50153 2.98866 5.58828 2.89892 5.664 2.82612C5.7061 2.78564 5.84036 2.65422 5.99896 2.56635L6.12103 2.50483C6.24574 2.44734 6.37678 2.40008 6.47846 2.3642C6.55685 2.33655 6.64532 2.30587 6.73431 2.27534C6.8249 2.24426 6.92152 2.2114 7.02533 2.17475C7.27883 2.08526 7.49313 2.01369 7.65814 1.95893C7.83641 1.89978 7.92709 1.87002 7.97162 1.85346C8.29455 1.7334 8.8463 1.5649 9.20111 1.5019C9.4368 1.46006 10.4069 1.29475 11.0986 1.20795C11.1053 1.20691 11.1123 1.20594 11.1191 1.20502C11.1232 1.20449 11.1277 1.20358 11.1318 1.20307C11.1404 1.20204 11.1496 1.20195 11.1581 1.20112C11.1748 1.19951 11.1921 1.19701 11.2089 1.19624C11.5106 1.18241 11.9131 1.14586 12.3701 1.10932C12.8041 1.07462 13.2875 1.04013 13.6806 1.04194ZM13.6708 3.04194C13.4659 3.04101 13.2102 3.05453 12.9267 3.07417C12.9279 3.43154 12.9245 3.98786 12.914 4.90522C13.6976 5.02456 14.2354 5.10164 14.5058 5.1435C15.061 5.22947 15.562 5.3676 15.8173 5.49018C15.9426 5.55039 16.058 5.63682 16.1113 5.6767C16.1871 5.73353 16.2757 5.80321 16.3701 5.88081C16.5601 6.0372 16.805 6.24858 17.0898 6.49897C17.4704 6.8338 17.6351 7.13072 17.8144 7.50385C17.9889 7.86725 18.2052 8.39477 18.412 8.99702C18.6188 9.59904 18.8149 10.2758 18.9384 10.8076C19.1533 11.7334 19.158 12.3931 19.1337 12.9277C19.1003 13.6621 18.8097 14.4252 18.5175 15.0624C18.3265 15.4789 18.0847 15.7776 17.8974 16.0039C17.6762 16.2711 17.434 16.5184 17.0673 16.8369C16.7118 17.1457 16.2317 17.526 15.8759 17.788C15.2694 18.2347 14.7617 18.4759 14.3632 18.6581L14.3271 18.6748L14.29 18.6884C13.7488 18.8852 13.328 19.012 13.0781 19.08L13.0263 19.0937L12.9726 19.1025C12.9127 19.112 12.8394 19.1192 12.7597 19.1289C12.7675 19.7252 12.7817 20.1109 12.7988 20.5224C12.7991 20.5304 12.7977 20.5388 12.7978 20.5468C13.0747 20.5502 13.5192 20.5529 13.832 20.5429C14.2495 20.5295 14.6184 20.4399 15.0497 20.3066C15.4052 20.1967 15.4373 20.1039 16.1513 19.5234C16.6651 19.1057 17.1635 18.7009 17.538 18.4677C17.8699 18.261 18.3753 17.9549 18.8701 17.5859C18.9741 17.5082 19.0255 17.4589 19.0478 17.4355C19.0755 17.4065 19.0688 17.4107 19.1259 17.3398C19.1083 17.3616 19.1444 17.3165 19.247 17.1464C19.3415 16.9899 19.4797 16.7481 19.664 16.3984C19.858 16.0303 20.0563 15.4943 20.2158 15.0771C20.3791 14.6497 20.4531 14.317 20.5468 13.54C20.6053 13.0553 20.6221 12.2662 20.621 11.3115C20.62 10.3877 20.5809 9.38776 20.541 8.75971C20.5018 8.1453 20.4651 7.96956 20.4179 7.78608C20.3033 7.34039 20.1334 6.95759 19.8603 6.50971C19.687 6.22567 19.3698 5.80191 19.124 5.48725C18.9382 5.24947 18.8555 5.16154 18.4833 4.87006C18.0762 4.55125 17.4013 4.05323 16.9277 3.73725C16.2822 3.30675 15.9206 3.18116 15.746 3.12299C15.7025 3.11825 15.6173 3.11141 15.4316 3.10053C15.0464 3.078 14.3364 3.04502 13.6708 3.04194ZM10.9277 3.24897C10.3593 3.33141 9.73475 3.43798 9.55072 3.47065C9.35757 3.50495 8.92954 3.63156 8.66888 3.72846C8.58036 3.76138 8.43452 3.80876 8.28803 3.85737C8.12813 3.91043 7.92752 3.97712 7.69135 4.06049C7.61516 4.08739 7.54247 4.11154 7.47553 4.13471C8.17317 4.76007 8.67361 5.24132 8.96967 5.85053C9.15313 6.22844 9.14575 6.65592 9.15326 6.87788C9.17435 7.50241 9.08409 8.08422 9.01752 8.44233C8.9362 8.8792 8.76251 9.22543 8.55756 9.58881C8.37734 9.90822 8.08287 10.2962 7.7099 10.7304C7.33234 11.17 6.81415 11.7034 6.56928 11.9667C6.42851 12.1182 6.38606 12.1847 6.37592 12.2021C6.37354 12.2062 6.3744 12.2041 6.37592 12.2001C6.37518 12.2025 6.37223 12.2129 6.36615 12.2373C6.36165 12.2547 6.33628 12.3492 6.4931 12.8632C6.61151 13.2512 6.8452 13.8354 7.00971 14.3027C7.21995 14.8999 7.26009 15.2578 7.29388 15.6708C7.31733 15.9579 7.30534 16.2587 7.26459 16.6699C7.17243 17.5993 7.04772 18.3053 6.97846 18.5263L6.95795 18.5898L6.92963 18.6503C6.90321 18.7068 6.8724 18.7598 6.84076 18.8115C6.96867 18.8883 7.16334 18.9998 7.60443 19.2275C7.83047 19.3442 8.03712 19.5018 8.17767 19.6113C8.3472 19.7433 8.44405 19.8237 8.54388 19.8915C8.63203 19.9514 8.70241 19.9812 8.76947 20.0019C8.85416 20.028 8.9363 20.042 9.11224 20.0742C9.2762 20.1042 9.49546 20.1543 10.0556 20.2343C10.2675 20.2646 10.5248 20.296 10.79 20.33C10.7582 19.5026 10.7396 18.5923 10.7656 15.9394C10.7944 13.0004 10.8753 8.03918 10.9081 5.45502C10.9223 4.33855 10.9272 3.66662 10.9277 3.24897ZM5.96283 5.46577C5.567 5.91801 5.19797 6.35014 5.10931 6.47065C5.06802 6.5268 5.00372 6.62398 4.87201 6.82319C4.74882 7.00952 4.58519 7.25666 4.36615 7.57319C4.19836 7.81566 4.0907 7.98861 3.99799 8.1435C3.91727 8.27837 3.82572 8.43338 3.71771 8.60346C3.71108 8.62078 3.70187 8.64789 3.68939 8.68549C3.65766 8.7812 3.61917 8.91281 3.57709 9.06831C3.49332 9.37791 3.40581 9.74546 3.34369 10.0419C3.32804 10.1167 3.31658 10.2042 3.29193 10.416C3.26839 10.6182 3.23685 10.8963 3.17865 11.3027C3.15251 11.4859 3.14887 12.0935 3.17084 12.623C3.16949 12.5905 3.16797 12.6132 3.19428 12.7265C3.21674 12.8232 3.25099 12.9496 3.29486 13.0976C3.38247 13.3931 3.5004 13.7474 3.62299 14.083C3.75328 14.4396 3.86235 14.7764 3.94916 15.0488C4.04223 15.3408 4.09776 15.5181 4.13666 15.6181C4.22239 15.8384 4.26569 15.9432 4.96088 17.0664C5.03257 17.1821 5.09943 17.2766 5.164 17.3593C5.19919 17.1194 5.23988 16.8203 5.27435 16.4726C5.3105 16.1079 5.30977 15.945 5.30072 15.8339C5.27517 15.5217 5.25687 15.3471 5.12299 14.9667C5.00774 14.6394 4.71192 13.8753 4.58099 13.4462C4.41718 12.9093 4.27725 12.3488 4.42572 11.7529C4.46352 11.6014 4.52075 11.4132 4.64838 11.1943C4.76433 10.9955 4.91832 10.8066 5.10541 10.6054C5.40227 10.2862 5.84828 9.8282 6.19232 9.42768C6.54043 9.02238 6.73279 8.75265 6.81537 8.60639C6.99435 8.28906 7.03285 8.17797 7.0517 8.07709C7.1084 7.77208 7.16807 7.35543 7.15424 6.94526C7.15146 6.86321 7.14996 6.80143 7.1474 6.74799C7.14579 6.71456 7.14305 6.68946 7.14154 6.67084C7.01674 6.44609 6.76932 6.18555 5.96283 5.46577ZM12.8701 8.1142C13.0617 8.1348 13.433 8.17878 13.8085 8.27143C14.8061 8.51766 15.2647 9.26282 15.4931 9.56928C15.688 9.83096 15.8226 10.1377 15.9218 10.4072C16.0245 10.686 16.1145 10.9958 16.1982 11.2939C16.3908 11.9799 16.3811 12.5455 16.3574 12.8945C16.3271 13.3374 16.105 13.7661 15.9697 14.0322C15.8134 14.3392 15.5685 14.5932 15.3681 14.7802C15.1542 14.9798 14.9026 15.1818 14.662 15.371L14.6445 15.3847L14.6259 15.3984C14.3135 15.6219 14.0764 15.727 13.707 15.8623C13.4662 15.9504 13.1362 16.062 12.7636 16.1728C12.7605 16.506 12.7594 16.8098 12.7578 17.0878C12.9583 17.0283 13.235 16.9424 13.5703 16.8212C13.9117 16.6643 14.2641 16.4916 14.6904 16.1777C15.0076 15.944 15.445 15.597 15.7558 15.3271C16.0555 15.0668 16.2172 14.8966 16.3564 14.7285C16.5296 14.5192 16.6249 14.3904 16.6992 14.2285C16.9718 13.6338 17.1207 13.1654 17.1357 12.8369C17.1542 12.4296 17.1529 11.9609 16.9902 11.2597C16.884 10.8025 16.7077 10.1926 16.5204 9.64741C16.3333 9.10273 16.1458 8.64943 16.0117 8.37006C15.9369 8.21441 15.9014 8.15207 15.8749 8.11323C15.8578 8.08813 15.8337 8.05822 15.7685 8.00092C15.4906 7.75657 15.2642 7.56199 15.0986 7.42573C15.0205 7.36152 14.9612 7.31442 14.9199 7.28315C14.8815 7.27039 14.827 7.2535 14.7587 7.2353C14.6158 7.1972 14.4238 7.1547 14.2001 7.12006C13.9424 7.08016 13.5485 7.02271 12.8867 6.9228C12.8813 7.30019 12.8761 7.6996 12.8701 8.1142ZM12.8417 10.1259C12.8223 11.4571 12.8057 12.8299 12.79 14.0624C12.8736 14.0336 12.9513 14.0093 13.0195 13.9843C13.2855 13.8869 13.3455 13.8525 13.4462 13.7812C13.6767 13.5996 13.8624 13.4503 14.0038 13.3183C14.1623 13.1704 14.1948 13.1105 14.1874 13.1249C14.2649 12.9726 14.3124 12.8706 14.3427 12.7939C14.355 12.7627 14.3606 12.7433 14.3632 12.7343C14.3769 12.5134 14.3778 12.2071 14.2734 11.8349C14.1906 11.5402 14.1179 11.2969 14.0449 11.0986C13.9686 10.8914 13.9134 10.7957 13.8896 10.7636C13.5567 10.3169 13.5068 10.2567 13.329 10.2128C13.1641 10.1722 12.9899 10.1455 12.8417 10.1259Z" fill="black"/>
</svg>
