<svg width="24" height="24" viewBox="0 0 24 24" fill="none" xmlns="http://www.w3.org/2000/svg">
<path d="M20.7713 9.0524C21.0255 9.02493 21.2597 9.08689 21.45 9.19888L21.5291 9.25064L21.6561 9.35709C21.7657 9.46513 21.825 9.57108 21.8494 9.61783C21.8907 9.69691 21.9144 9.76778 21.9276 9.81021C21.9541 9.8961 21.9689 9.97777 21.9774 10.0309C21.9953 10.1436 22.0069 10.2733 22.0155 10.3961C22.033 10.6491 22.0437 10.9752 22.0506 11.3112C22.0645 11.9852 22.065 12.7731 22.0682 13.2311V13.2585C22.0583 13.7384 22.0192 14.1039 21.9022 14.6598C21.7907 15.1892 21.6079 15.898 21.3787 16.5719C21.1496 17.2455 20.8852 17.8578 20.6981 18.2458C20.5205 18.6138 20.3826 18.8651 20.1727 19.0963C19.8847 19.4135 19.3319 19.8799 18.5985 20.3161C18.1516 20.5818 17.7013 20.8177 17.2176 20.904C16.8962 20.9613 16.0958 21.0883 15.0067 20.8366C14.3251 20.679 13.6253 20.4981 12.9881 20.0241C12.6937 20.3395 12.5925 20.5624 12.5535 20.6647C12.5076 20.7913 12.4622 20.9554 12.4266 21.1188C12.3885 21.2936 12.3722 21.4165 12.3699 21.4538L12.369 21.4674L12.368 21.4801C12.3605 21.5655 12.3344 21.7842 12.328 21.8483C12.2725 22.3978 11.7817 22.7982 11.2322 22.7428C10.6831 22.6872 10.2825 22.1973 10.3377 21.6481C10.3614 21.4131 10.3645 21.4348 10.3758 21.3053H10.3778C10.4024 20.9734 10.5188 20.4021 10.6805 19.9635L10.6834 19.9538C10.8267 19.5772 11.089 19.1101 11.5955 18.5866C11.5151 18.4784 11.434 18.3655 11.3563 18.2458C11.1775 17.9703 11.0245 17.7188 10.908 17.4958C10.7999 17.2886 10.6845 17.0347 10.6375 16.7702C10.5859 16.4794 10.5344 15.9846 10.6082 15.3971C10.6588 14.9951 10.7759 14.4716 11.0447 13.8415C11.2592 13.3388 11.5474 12.7521 11.9549 12.278C12.1582 12.0415 12.3837 11.7936 12.702 11.5954C12.9727 11.4268 13.4722 11.1151 14.4617 10.8493C15.0492 10.6915 15.8788 10.513 16.3963 10.4274C16.7683 10.3659 17.0794 10.342 17.3533 10.3258C17.6363 10.3091 17.8415 10.3015 18.0799 10.2751C18.5796 10.2195 19.1396 10.1023 19.6297 9.85025C19.6661 9.83148 19.7118 9.79091 19.866 9.61001C19.9056 9.56361 20.0485 9.38807 20.2244 9.26334C20.3257 9.19164 20.5132 9.0803 20.7713 9.0524ZM12.7772 1.34537C13.1208 1.36031 13.5041 1.39461 13.8455 1.49283C14.3933 1.6504 14.6959 1.71064 15.6453 2.08267C16.218 2.30709 17.4405 2.79699 17.9617 3.00162C18.2425 3.11183 18.3943 3.16672 18.4842 3.19888C18.5156 3.2101 18.5626 3.2259 18.616 3.24673L18.7908 3.32584L19.0906 3.47525C19.4442 3.65356 19.937 3.94095 20.3758 4.52701C20.6058 4.83427 20.7857 5.11644 20.9237 5.34244C21.083 5.60343 21.1386 5.70473 21.1912 5.78189C21.5023 6.23789 21.3842 6.86014 20.9285 7.17154C20.4724 7.4827 19.8502 7.36578 19.5389 6.90982C19.4505 6.78031 19.3145 6.54481 19.2166 6.38443C19.1196 6.22559 19.0031 6.04953 18.868 5.86002C18.7315 6.14455 18.3372 6.92257 17.4188 7.38931C16.99 7.60718 16.4506 7.74023 15.6942 7.78287C15.6026 7.78803 15.5018 7.7948 15.3846 7.80337C15.2717 7.81163 15.145 7.82157 15.0203 7.82779C14.803 7.83861 14.4716 7.84907 14.1834 7.78677C13.4526 7.6287 12.5693 7.26109 11.9207 6.26627C11.5927 5.7631 11.3205 5.29493 11.2205 5.01138C11.0632 4.56459 10.8749 3.84317 10.7967 3.43423C10.7638 3.44074 10.73 3.44698 10.6951 3.45377C9.80197 3.62751 9.67052 3.66582 9.52815 3.71646C9.29725 3.79864 9.01916 3.87836 8.78889 3.944C8.6506 3.98342 8.52909 4.01774 8.42658 4.04849C8.43779 4.05887 8.4497 4.0695 8.46174 4.08072C8.60986 4.21873 8.82105 4.41822 9.08576 4.67545C9.5181 5.09557 9.77978 5.50089 9.92854 5.89322C10.0724 6.27302 10.0898 6.61087 10.0985 6.68716C10.1362 7.01673 10.0382 7.3183 9.95686 7.52701C9.86547 7.7613 9.7255 8.0457 9.53596 8.3942C9.2424 8.93379 8.7071 9.7103 8.42658 10.1208C8.03562 10.6928 7.80368 10.9428 7.74885 11.0133C7.6796 11.1026 7.54817 11.256 7.43733 11.3893C7.31082 11.5415 7.15887 11.7286 6.99494 11.946C6.9482 12.0081 6.90257 12.1168 6.88557 12.2956C6.8687 12.4738 6.88578 12.6681 6.91487 12.8415C6.91649 12.8471 6.93127 12.9013 6.99983 13.0348C7.07879 13.1886 7.16502 13.3321 7.29866 13.571C7.54329 14.0083 7.89195 14.5843 8.10237 15.1569C8.34502 15.8174 8.35666 16.545 8.36994 16.9967C8.39807 17.9626 7.88087 18.7174 7.69123 18.9967L7.63557 19.0797L7.5633 19.1501C7.37014 19.3391 7.18736 19.4926 7.03205 19.611C7.65014 20.1137 7.827 20.2306 7.97346 20.3004C8.04642 20.3179 8.1407 20.3387 8.24201 20.3581C8.63712 20.2814 9.05666 20.4482 9.28205 20.8102C9.57364 21.2789 9.43007 21.8962 8.96174 22.1881C8.70345 22.3488 8.4447 22.3781 8.26448 22.3747C8.11077 22.3716 7.96343 22.3411 7.90803 22.3307C7.76621 22.3041 7.54731 22.2625 7.36897 22.2126L7.30451 22.194L7.24201 22.1676C6.72932 21.9461 6.35414 21.6511 5.32209 20.7965C4.98761 20.5196 4.57203 20.1885 4.13166 19.7575C3.69516 19.3302 3.25126 18.8248 2.95198 18.4586C2.67403 18.1186 2.46202 17.8417 2.32893 17.5915C2.25728 17.4567 2.16691 17.2868 2.08576 17.0026C2.01404 16.7513 1.95353 16.4266 1.88752 15.9557C1.769 15.11 1.56923 13.5499 1.45783 12.6794C1.34787 11.8199 1.31671 11.5795 1.30256 11.1667C1.29063 10.8183 1.27318 10.25 1.3133 9.77994C1.37623 9.04293 1.47075 8.41534 1.86994 7.694C2.0933 7.29044 2.46078 6.6616 2.68928 6.30045C2.98953 5.82592 3.15698 5.63454 3.2967 5.46451C3.46174 5.26367 3.90467 4.74115 4.75764 4.03873C5.60223 3.34323 6.20846 2.90021 6.46174 2.75064C6.59158 2.67393 6.98464 2.43215 7.54084 2.23404C7.74677 2.16073 8.01614 2.08497 8.24006 2.02115C8.48583 1.9511 8.69844 1.88919 8.85725 1.83267C9.16586 1.72288 9.44739 1.65931 10.3133 1.49087C10.6171 1.43175 11.0305 1.33479 11.6707 1.33365C12.0346 1.33302 12.4249 1.33008 12.7772 1.34537ZM20.0555 11.8454C19.4192 12.0946 18.7936 12.2085 18.3006 12.2633C17.9944 12.2974 17.7054 12.3091 17.4705 12.3229C17.2267 12.3373 16.9946 12.356 16.7225 12.401C16.2711 12.4757 15.5056 12.6398 14.9803 12.7809C14.2481 12.9777 13.9348 13.1845 13.7596 13.2936C13.7169 13.3202 13.6567 13.3662 13.4715 13.5817C13.269 13.8174 13.0765 14.1737 12.8836 14.6256C12.6919 15.0751 12.6214 15.418 12.5926 15.6471C12.5509 15.9793 12.5799 16.2598 12.6053 16.4088C12.6113 16.4244 12.6317 16.4747 12.6815 16.57C12.7557 16.7122 12.8697 16.9038 13.034 17.1569C13.0687 17.2103 13.1046 17.2617 13.1405 17.3122C13.186 17.2789 13.2309 17.2451 13.2762 17.2126C13.4843 17.063 13.6922 16.9269 13.8572 16.8161C14.0326 16.6984 14.1633 16.6072 14.2684 16.5221C15.0296 15.9057 15.2433 15.5603 15.2899 15.4831C15.5752 15.0102 16.1901 14.858 16.6629 15.1432C17.1357 15.4286 17.2871 16.0434 17.0018 16.5163C16.8191 16.819 16.4418 17.3354 15.5262 18.0768C15.3447 18.2237 15.1475 18.3581 14.9715 18.4762C14.8703 18.5441 14.7757 18.6093 14.6815 18.6735C14.8812 18.7448 15.1295 18.8127 15.4569 18.8883C16.1764 19.0547 16.6769 18.9691 16.867 18.9352C16.967 18.9173 17.1495 18.8499 17.576 18.5963C18.1745 18.2404 18.562 17.894 18.6912 17.7516C18.6949 17.7476 18.7306 17.7202 18.8963 17.3766C19.0528 17.0522 19.2864 16.5157 19.4862 15.9284C19.6857 15.3416 19.8476 14.711 19.9451 14.2477C20.037 13.8114 20.061 13.5701 20.0682 13.2174C20.0658 12.8564 20.0613 12.3485 20.0555 11.8454ZM6.66584 5.07095C6.48248 5.21459 6.26972 5.38455 6.02912 5.58267C5.29839 6.18443 4.94596 6.60825 4.8426 6.73404C4.76478 6.82876 4.71758 6.88407 4.65022 6.9733C4.58573 7.05874 4.50053 7.17885 4.37971 7.36978C4.17748 7.68941 3.83 8.28321 3.61994 8.66275C3.42476 9.01544 3.36029 9.30808 3.30549 9.94986C3.27713 10.2821 3.2881 10.7331 3.30061 11.0983C3.31091 11.3989 3.32872 11.5385 3.44221 12.4254C3.55436 13.302 3.75155 14.8465 3.86799 15.6774C3.93065 16.1245 3.9759 16.3391 4.00862 16.4538C4.03191 16.5353 4.04467 16.5592 4.09455 16.653C4.12271 16.7059 4.21297 16.8408 4.5008 17.193C4.74097 17.4869 5.08492 17.8773 5.42073 18.2165C5.52423 18.1414 5.64353 18.0856 5.77424 18.0544C5.78448 18.047 5.79691 18.0393 5.8094 18.0299C5.88272 17.9747 5.97945 17.8919 6.0926 17.7858C6.16092 17.6812 6.22744 17.573 6.27912 17.4547C6.34448 17.3049 6.37425 17.172 6.37092 17.0553C6.35561 16.5345 6.3357 16.1467 6.22541 15.8463C6.08563 15.4661 5.85461 15.0857 5.55354 14.5475C5.45777 14.3763 5.32037 14.1424 5.22053 13.9479C5.1182 13.7486 4.99342 13.4771 4.94221 13.1725C4.86296 12.7003 4.74291 11.6112 5.39826 10.7419C5.5879 10.4904 5.76125 10.277 5.89924 10.111C6.05253 9.92658 6.12639 9.84233 6.16877 9.78775C6.32795 9.58257 6.42361 9.50727 6.77522 8.99283C7.08284 8.54271 7.545 7.86751 7.77815 7.43912C7.95535 7.11333 8.04842 6.91618 8.09358 6.80045C8.09491 6.79701 8.0954 6.79288 8.09651 6.7897C8.08712 6.70225 8.08299 6.66709 8.05842 6.6022C8.02895 6.52452 7.94824 6.35886 7.69221 6.11002C7.43876 5.86373 7.23753 5.67417 7.09846 5.54459C7.02905 5.47991 6.97462 5.42934 6.93635 5.3942C6.91666 5.37611 6.86351 5.32817 6.83869 5.30337C6.7683 5.23298 6.71086 5.15427 6.66584 5.07095ZM12.8768 3.57095C12.9498 3.85161 13.0362 4.14446 13.1072 4.34634C13.1123 4.35678 13.1441 4.42722 13.2264 4.57291C13.3136 4.72728 13.4369 4.93116 13.5955 5.17447C13.8664 5.58987 14.2028 5.74442 14.6063 5.8317C14.6158 5.83258 14.6382 5.83369 14.6766 5.83462C14.7401 5.83615 14.8213 5.83469 14.9207 5.82974C15.0197 5.82481 15.1256 5.81753 15.2391 5.80923C15.3481 5.80126 15.4694 5.79214 15.5819 5.7858C16.1639 5.75298 16.4079 5.65925 16.5125 5.60611C16.8803 5.41921 16.9903 5.13743 17.1346 4.85806L17.1375 4.85318C17.1414 4.84568 17.1453 4.83815 17.1492 4.83072C16.5031 4.57629 15.5601 4.19745 14.9158 3.94498C14.0715 3.6141 13.8676 3.58006 13.2928 3.4147C13.2025 3.38872 13.0519 3.36783 12.824 3.35318C12.8403 3.42129 12.857 3.49491 12.8768 3.57095Z" fill="black"/>
</svg>
