<svg width="24" height="24" viewBox="0 0 24 24" fill="none" xmlns="http://www.w3.org/2000/svg">
<g clip-path="url(#clip0_579_1949)">
<path d="M17.7729 0.0517155C18.9185 -0.160035 19.8516 0.148429 20.2016 0.213825C20.5799 0.2844 20.9301 0.461241 21.2026 0.623981C21.4872 0.794 21.764 0.995559 22.0024 1.17867C22.3852 1.47266 22.6276 1.87162 22.854 2.24117C23.2099 2.82205 23.4137 3.49995 23.5581 4.00386C23.8664 5.08031 23.611 5.96882 23.3979 6.46675C23.2616 6.78527 22.9946 7.12328 22.769 7.39351C22.5181 7.69403 22.2017 8.04536 21.8755 8.40816C21.5914 8.72408 21.4707 8.92347 21.4116 9.04976C21.3551 9.1706 21.3325 9.26583 21.2934 9.46383C21.2774 9.54497 21.2665 9.62492 21.3745 10.0576C21.5254 10.6622 21.6204 11.0042 21.7426 11.4912C21.8329 11.8507 21.9378 12.2801 21.9448 12.58C21.9636 13.393 21.3724 13.9107 21.0883 14.1416C20.8415 14.3421 20.5586 14.4435 20.3647 14.5029C20.1632 14.5646 19.9311 14.6159 19.7446 14.6591C19.138 14.7999 18.3574 14.7989 17.688 14.789H17.6352L17.5825 14.7822C17.3076 14.749 17.0771 14.7109 16.8881 14.667C16.7378 14.6319 16.5546 14.5782 16.3852 14.4912C16.3452 14.5528 16.3039 14.6144 16.2641 14.6767C16.1604 14.8391 16.0968 14.9406 16.0346 15.0722C16.0201 15.103 16.0081 15.1381 15.9926 15.1757C16.0357 15.2418 16.0728 15.3138 16.1001 15.3916C16.1753 15.6059 16.5337 16.2232 17.1694 16.956C17.8421 17.7313 18.4268 18.0166 18.5434 18.0703C18.8585 18.215 19.1894 18.214 19.6577 18.1611C19.7212 18.1442 19.789 18.1227 19.8422 18.1025C19.8698 18.0921 19.8823 18.0861 19.8891 18.083C19.899 18.0784 19.9103 18.0736 19.9458 18.0556C20.4381 17.8059 21.0395 18.002 21.2895 18.4941C21.5392 18.9864 21.3432 19.5888 20.851 19.8388C20.7723 19.8788 20.692 19.9192 20.5512 19.9726C20.4341 20.017 20.2492 20.0809 20.0473 20.1259L19.9975 20.1367L19.9477 20.1425C19.4127 20.206 18.5787 20.2876 17.7085 19.8877C17.3956 19.7438 16.5584 19.3036 15.6587 18.2666C15.5594 18.1522 15.4634 18.0361 15.3706 17.9209C15.3619 18.0114 15.3525 18.1171 15.3413 18.2363C15.3064 18.6078 15.2591 19.1267 15.2036 19.7158C15.1522 20.2612 15.1283 20.7989 15.1674 21.4316C15.1685 21.4488 15.1819 21.6032 15.1704 21.7412C15.1547 21.9278 15.0893 22.2156 14.8471 22.4658C14.637 22.6825 14.39 22.7684 14.2495 22.8076C14.0994 22.8493 13.9379 22.8729 13.7905 22.8896C13.2102 22.9554 12.1064 22.995 11.5825 23.0136C11.0521 23.0325 10.9988 23.0332 10.9477 23.0332C10.6221 23.033 10.3333 22.8767 10.1508 22.6357C9.76853 22.5085 9.48459 22.1569 9.46627 21.7304C9.46239 21.6395 9.45929 21.572 9.45553 21.5205V21.5127C9.43741 21.2389 9.4242 20.9532 9.41451 20.7334C9.40766 20.635 9.38513 20.4322 9.35494 20.124C9.32691 19.8377 9.2955 19.4899 9.27975 19.1689C9.26953 18.9606 9.25114 18.3838 9.11276 17.6308C9.11228 17.6282 9.11128 17.6256 9.1108 17.623C8.93632 17.8611 8.74105 18.129 8.52682 18.4209C8.06448 19.0506 7.68695 19.336 7.24752 19.6103C6.9596 19.79 6.6311 19.8989 6.31881 19.9775C6.00004 20.0577 5.63132 20.1214 5.23092 20.1826L5.20553 20.1865L5.17916 20.1894C4.69407 20.2377 4.09696 20.2511 3.71041 20.2177C3.51309 20.2006 3.26502 20.1642 3.02291 20.04C2.76492 19.9074 2.61002 19.7218 2.55026 19.6523C2.19056 19.2337 2.23749 18.6023 2.65572 18.2421C3.02988 17.9203 3.57429 17.9243 3.94283 18.2275C4.18248 18.2416 4.5966 18.2353 4.96139 18.2002C5.33288 18.143 5.61472 18.0926 5.83151 18.038C6.0593 17.9807 6.15629 17.9336 6.18795 17.914C6.46287 17.7424 6.6341 17.6192 6.91451 17.2373C7.5371 16.3892 8.01894 15.7304 8.25631 15.4072C8.16243 15.236 8.06251 15.059 7.94479 14.8525C7.61395 15.1373 7.07707 15.3695 6.29244 15.3564C5.81719 15.3484 5.38662 15.3413 5.06295 15.3222C4.90312 15.3128 4.73798 15.299 4.59225 15.2744C4.51977 15.2621 4.42676 15.2427 4.33053 15.2109C4.2534 15.1854 4.07234 15.1206 3.90377 14.9668C3.62345 14.7107 3.31618 14.3992 3.0649 14.1093C2.93998 13.9652 2.81767 13.8129 2.71627 13.667C2.63689 13.5526 2.49005 13.3327 2.42623 13.0761C2.37791 12.8817 2.34281 12.559 2.31002 12.2343C2.27381 11.8757 2.23192 11.4062 2.18307 10.8574C2.15599 10.5532 2.14687 10.4013 2.12643 10.1836C2.10825 9.9901 2.09217 9.89366 2.08053 9.84957C1.93573 9.30152 1.67533 8.80251 1.47115 8.53121C1.24778 8.23442 1.04184 8.00003 0.776818 7.665C0.572105 7.40619 0.270537 7.01439 0.139123 6.61519C0.0363193 6.30286 -0.0939758 5.83424 -0.14115 5.33687C-0.185326 4.87069 -0.175016 4.19949 0.187951 3.62398C0.389051 3.30527 0.594494 2.97916 0.782678 2.70699C0.952806 2.46096 1.17596 2.15718 1.41842 1.95504C1.56321 1.83435 1.81792 1.61308 2.17037 1.42281C2.30823 1.34811 3.26027 0.558976 4.60592 0.515583C5.37348 0.490966 5.92183 0.492679 6.31393 0.531208C6.62429 0.561761 7.01309 0.626802 7.33834 0.868122L7.47311 0.98238L7.58151 1.09761C7.68433 1.21686 7.76993 1.3449 7.83444 1.44722C7.9296 1.59822 8.0221 1.76519 8.10494 1.92574C8.21911 2.147 8.32493 2.38248 8.41061 2.58492C8.54718 2.53951 8.69259 2.49311 8.84811 2.44625C9.41245 2.27621 10.1392 2.07551 10.7426 1.95211C11.2164 1.85526 11.5879 1.77313 11.8745 1.70894C12.1457 1.64819 12.3806 1.5948 12.5385 1.56734C12.8721 1.5094 13.284 1.48145 14.0786 1.68062C14.3588 1.75088 14.7473 1.85415 15.1303 1.96675C15.2638 1.70113 15.4536 1.40734 15.7026 1.15035C16.1427 0.696392 16.8752 0.21782 17.7729 0.0517155ZM13.0483 3.52535C12.9737 3.52214 12.9367 3.52727 12.8803 3.53707C12.7841 3.55382 12.6178 3.59162 12.312 3.66011C12.0206 3.72538 11.6347 3.81155 11.143 3.91207C10.6253 4.01796 9.96435 4.19886 9.42526 4.36129C8.72922 4.57102 8.40075 4.71641 8.22701 4.82027C8.09527 4.89911 8.04179 4.95576 7.91354 5.11422C7.89414 5.13834 7.85033 5.20826 7.7944 5.373C7.73781 5.5398 7.69087 5.73498 7.6274 5.99703C7.59156 6.14539 7.56698 6.36687 7.5649 6.95015C7.56294 7.50997 7.59438 8.33182 7.6274 8.87008C7.65914 9.38711 7.68807 9.55377 7.7485 9.78902C7.81394 10.0437 7.92078 10.3864 8.19869 11.0009C8.48295 11.6295 8.93369 12.5141 9.30904 13.2002C9.65504 13.8326 9.99302 14.3862 10.2446 14.8935C10.7664 15.9457 10.9783 16.7131 11.0805 17.2695C11.2455 18.1672 11.2676 18.8642 11.2778 19.0712C11.2911 19.3416 11.3178 19.6494 11.3452 19.9287C11.3703 20.1855 11.4002 20.4593 11.4096 20.5947L11.4116 20.6201C11.4168 20.74 11.4239 20.8763 11.4311 21.0166C11.4563 21.0157 11.4833 21.0156 11.5112 21.0146C11.9404 20.9994 12.6322 20.9732 13.1499 20.9375C13.1443 20.4317 13.1704 19.9726 13.2124 19.5273C13.32 18.3859 13.3989 17.4796 13.4311 17.2763C13.4653 17.0614 13.6164 16.2908 13.8921 15.1875C14.1003 14.3536 14.3459 13.965 14.5786 13.6005C15.0727 12.8266 15.3839 12.4027 15.6245 11.9814C15.8233 11.633 16.1657 10.9764 16.3852 10.5C16.6926 9.8326 16.7597 9.39548 16.813 8.94722C16.8386 8.73128 16.8503 8.42081 16.8217 7.8691C16.7932 7.31862 16.7175 6.56204 16.6684 6.12398C16.5932 5.45356 16.341 4.92718 16.1479 4.59371C16.0873 4.48911 15.9816 4.37985 15.2671 4.11226C14.8363 3.95103 14.0861 3.7439 13.5922 3.62007C13.304 3.54781 13.1377 3.52924 13.0483 3.52535ZM6.11862 2.52144C5.86695 2.49671 5.43163 2.49019 4.67037 2.51461C3.95068 2.53781 3.73839 2.8486 3.11959 3.18257C2.97217 3.26222 2.8672 3.35073 2.69869 3.49117C2.70744 3.48387 2.68436 3.50272 2.62643 3.57418C2.57249 3.64072 2.50624 3.73039 2.42721 3.84468C2.26773 4.07534 2.08619 4.36259 1.87936 4.69039C1.87834 4.69228 1.8614 4.72309 1.85006 4.80269C1.83778 4.889 1.83651 5.00531 1.85006 5.1484C1.87761 5.43835 1.95932 5.74951 2.03854 5.99019C2.03219 5.97096 2.04058 6.00138 2.10299 6.09664C2.16069 6.18464 2.24103 6.29211 2.34518 6.42379C2.52432 6.65026 2.84229 7.02678 3.06979 7.32906C3.43808 7.81861 3.80708 8.55573 4.01412 9.3398C4.07123 9.55619 4.09869 9.79443 4.11764 9.99605C4.13429 10.1733 4.15732 10.4781 4.17526 10.6796C4.22461 11.234 4.26455 11.6893 4.29928 12.0332C4.3166 12.2046 4.33169 12.3416 4.34518 12.4453C4.34926 12.4766 4.35385 12.5028 4.3569 12.5234C4.35744 12.5242 4.35827 12.5255 4.35885 12.5263C4.40514 12.593 4.47857 12.6857 4.57662 12.7988C4.72113 12.9655 4.89873 13.1467 5.07272 13.3154C5.10362 13.3178 5.13941 13.3237 5.18014 13.3261C5.45197 13.3421 5.83305 13.3491 6.32565 13.3574C6.48852 13.3601 6.58534 13.338 6.63326 13.3242C6.64631 13.3063 6.66458 13.2815 6.69088 13.247C6.69985 13.2353 6.70845 13.2243 6.71432 13.2168C6.7208 13.2084 6.72446 13.2038 6.72799 13.1992C6.73358 13.1919 6.73535 13.1886 6.73678 13.1865C6.73891 13.1834 6.75219 13.1644 6.7817 13.1103C6.81805 13.0437 6.86156 12.9833 6.90963 12.9287C6.71265 12.5385 6.52522 12.1542 6.37643 11.8252C6.05906 11.1233 5.90974 10.6714 5.811 10.2871C5.70735 9.88361 5.66735 9.57937 5.63131 8.99215C5.59655 8.42553 5.56273 7.55809 5.5649 6.94234C5.56701 6.35127 5.58694 5.92247 5.68307 5.52535C5.74033 5.28891 5.80959 4.99938 5.90084 4.73043C5.99252 4.46033 6.1288 4.14084 6.35885 3.8564C6.43981 3.75638 6.53073 3.64929 6.64205 3.53804C6.64056 3.53419 6.63862 3.53021 6.63717 3.52632C6.58043 3.3743 6.46197 3.10315 6.3276 2.84273C6.26425 2.71997 6.20317 2.61096 6.14987 2.52535C6.14019 2.52424 6.12952 2.52252 6.11862 2.52144ZM19.8354 2.18062C19.1914 2.06054 18.8063 1.8946 18.1362 2.01851C17.7015 2.09899 17.3313 2.34471 17.1391 2.54293C17.0916 2.59195 17.0465 2.65069 17.0053 2.71285C17.3393 2.91971 17.6489 3.19552 17.8784 3.59175C18.1487 4.05859 18.5385 4.85546 18.6557 5.90035C18.7058 6.34684 18.7871 7.15264 18.8188 7.76558C18.8505 8.37741 18.8434 8.81233 18.7993 9.18355C18.7324 9.74644 18.6296 10.4099 18.2026 11.3369C17.9984 11.7803 17.7064 12.3429 17.4848 12.747C17.5623 12.7605 17.6586 12.7752 17.7758 12.79C18.4626 12.799 18.9737 12.7849 19.2924 12.7109C19.5174 12.6587 19.6612 12.6268 19.7788 12.5908C19.8157 12.5795 19.8404 12.5686 19.8559 12.5625C19.8819 12.5406 19.9047 12.5214 19.9233 12.5039C19.9207 12.49 19.9189 12.4745 19.9155 12.458C19.8901 12.3336 19.8523 12.1742 19.8032 11.9785C19.7247 11.666 19.5532 11.0193 19.434 10.542C19.3132 10.0578 19.2253 9.61398 19.3315 9.07613C19.3729 8.86646 19.4313 8.56205 19.5991 8.20308C19.7647 7.84897 20.0145 7.48586 20.3881 7.07027C20.7252 6.69537 21.0123 6.37763 21.2339 6.11226C21.3437 5.98069 21.4276 5.87355 21.4878 5.78902C21.5333 5.72499 21.5532 5.68984 21.559 5.67965C21.6637 5.4351 21.774 5.03905 21.6352 4.55465C21.4877 4.03975 21.3455 3.60712 21.1489 3.28609C20.8865 2.8578 20.8231 2.79588 20.7837 2.76558C20.5664 2.59874 20.3623 2.45136 20.1772 2.34078C19.9802 2.22312 19.8698 2.18711 19.8354 2.18062ZM10.2114 9.23531C10.759 9.16577 11.2597 9.55394 11.3296 10.1015V10.1035L11.3813 10.3378C11.4816 10.881 11.1227 11.4026 10.5796 11.5029C10.0366 11.6029 9.51473 11.2441 9.41451 10.7011C9.41 10.6767 9.40615 10.6567 9.40182 10.6386C9.3994 10.6286 9.39637 10.6188 9.39303 10.6054C9.39016 10.594 9.38492 10.5743 9.38033 10.5546C9.35845 10.4606 9.34991 10.3907 9.34518 10.3535C9.27589 9.80598 9.66394 9.30516 10.2114 9.23531ZM14.1528 8.8564C14.7048 8.85649 15.1525 9.3044 15.1528 9.8564V10.3076C15.1527 10.8598 14.705 11.3075 14.1528 11.3076C13.6005 11.3076 13.1528 10.8598 13.1528 10.3076V9.8564C13.1531 9.30434 13.6007 8.8564 14.1528 8.8564Z" fill="black"/>
</g>
<defs>
<clipPath id="clip0_579_1949">
<rect width="24" height="24" fill="white"/>
</clipPath>
</defs>
</svg>
