<svg width="24" height="24" viewBox="0 0 24 24" fill="none" xmlns="http://www.w3.org/2000/svg">
<path d="M17.5293 0.796853C18.2824 0.775268 19.201 0.794925 19.8555 0.846657C20.4502 0.893671 20.9384 0.951681 21.3047 1.09275C21.5765 1.19746 21.8748 1.32553 22.1465 1.48338C22.4078 1.63527 22.7188 1.85604 22.9443 2.17771C23.18 2.51396 23.6212 3.31827 23.75 4.49119C23.8358 5.27339 23.8561 5.85517 23.7793 6.25877C23.7027 6.66119 23.5579 7.28091 23.0928 8.26365C22.8131 8.85446 22.3838 9.71832 22.0566 10.2705C21.6361 10.9802 21.4029 11.3858 20.9502 11.8642C20.6409 12.1911 20.0899 12.7451 19.6934 13.1484C19.2772 13.5716 19.0291 13.8242 18.9004 13.9678C18.7062 14.1843 18.4556 14.4509 18.1055 14.8291C17.7914 15.1683 17.5343 15.4119 17.2783 15.6748C17.0474 15.9119 16.6121 16.3735 16.0859 16.8808C15.5649 17.3832 14.9542 17.9319 14.6289 18.2324C14.4671 18.3819 14.3718 18.475 14.2773 18.5654C14.1809 18.6577 14.086 18.7464 13.956 18.8476C13.7279 19.0254 13.4915 19.1993 13.2705 19.3379C13.0849 19.4543 12.7832 19.6295 12.4551 19.6826C12.2405 19.7173 12.0766 19.7263 11.2842 19.7392C10.5169 19.7518 9.03911 19.7721 7.88281 19.7295C6.71703 19.6865 5.88486 19.5734 5.49023 19.5351C5.48272 19.5344 5.47505 19.5339 5.46777 19.5332C3.90849 21.027 3.82831 21.1187 3.65331 21.2959C3.42828 21.5237 3.14592 21.7964 2.89843 22.0752C2.53179 22.488 1.8993 22.5256 1.48632 22.1592C1.07365 21.7925 1.03592 21.16 1.40234 20.747C1.69674 20.4155 2.05059 20.0717 2.22949 19.8906C2.42204 19.6956 2.51674 19.5909 4.06933 18.1035C4.07468 18.0914 4.08006 18.0793 4.08593 18.0674L4.16601 17.9316C4.17163 17.9236 4.17882 17.9169 4.18456 17.9092C4.20354 17.2585 4.22083 16.5893 4.22363 15.9189C4.22653 15.2204 4.21383 14.5386 4.20117 14.1679C4.1883 13.7916 4.17848 13.7856 4.1582 13.4258C4.14149 13.1294 4.108 12.5642 4.10937 12.1523C4.11203 11.3598 4.10797 10.63 4.68359 10.0195L5.00976 9.67088C5.17673 9.48699 5.4193 9.21268 5.78808 8.77927C6.50682 7.93457 7.78662 6.38823 8.62109 5.41306C9.48139 4.40772 9.98081 3.87233 10.4941 3.40525C11.0004 2.94461 11.5046 2.56185 12.0049 2.25877C12.5152 1.94964 12.9924 1.73888 13.5859 1.53709C14.1638 1.3406 14.8565 1.14981 15.5019 1.01951C16.1631 0.886059 16.7556 0.819054 17.5293 0.796853ZM7.38281 17.7002C7.56173 17.7113 7.75298 17.7229 7.95703 17.7304C9.0529 17.7708 10.4802 17.7528 11.2519 17.7402C11.8438 17.7305 12.0184 17.7185 12.0859 17.7119C12.113 17.6981 12.1541 17.6773 12.208 17.6435C12.3448 17.5577 12.5196 17.4308 12.7266 17.2695C12.8681 17.1592 12.8525 17.1507 13.2715 16.7636C13.6283 16.434 14.1961 15.9245 14.6973 15.4414C14.7014 15.4374 14.7048 15.4327 14.709 15.4287C13.9238 15.4069 12.4002 15.3874 11.5234 15.3066C10.9963 15.258 10.6712 15.2213 10.4727 15.1953C10.3733 15.1823 10.3033 15.172 10.2549 15.164C10.2404 15.1617 10.2279 15.158 10.2178 15.1562C10.2242 15.1572 10.2339 15.1598 10.2451 15.1611C10.2463 15.1611 10.2489 15.1608 10.2519 15.1611C10.1923 15.1544 10.1341 15.1426 10.0781 15.126C9.14733 16.0141 8.21122 16.9097 7.38281 17.7002ZM11.1045 5.62107C10.8469 5.89892 10.5393 6.24695 10.1406 6.71287C9.26897 7.73148 8.09886 9.1487 7.31054 10.0752C6.55773 10.9599 6.29379 11.2262 6.14745 11.3808C6.14641 11.3855 6.14678 11.3918 6.1455 11.3984C6.12389 11.5104 6.11087 11.7106 6.10937 12.1592C6.10824 12.4972 6.13717 12.9923 6.15527 13.3135C6.16976 13.5705 6.18584 13.7086 6.19921 14.0996C6.2128 14.4971 6.22664 15.2048 6.22363 15.9277C6.22346 15.9671 6.22195 16.0065 6.22167 16.0459C7.99133 14.3574 10.1871 12.2613 11.7617 10.7529C11.7258 10.6644 11.7016 10.5696 11.6924 10.4707C11.6912 10.4623 11.6886 10.4508 11.6865 10.4355C11.6768 10.3656 11.6573 10.2261 11.6172 9.94627C11.5374 9.38992 11.3749 8.26056 11.2734 7.38865C11.1818 6.60071 11.1391 6.00351 11.1045 5.62107ZM10.1992 15.1543C10.2015 15.1547 10.2044 15.1548 10.207 15.1553C10.2034 15.1547 10.2001 15.1545 10.1982 15.1543C10.1959 15.1539 10.1934 15.1535 10.1924 15.1533C10.1938 15.1535 10.1966 15.1538 10.1992 15.1543ZM17.5869 2.79588C16.9171 2.81509 16.4383 2.87126 15.8975 2.98045C15.3404 3.0929 14.7306 3.26026 14.2295 3.43064C13.7441 3.59568 13.4038 3.74989 13.041 3.9697C12.9899 4.0007 12.9389 4.03449 12.8867 4.06834C12.9027 4.11551 12.9158 4.16429 12.9248 4.21482C12.9851 4.55372 13.0409 4.86044 13.0869 5.32908C13.1339 5.80821 13.1605 6.30365 13.2598 7.1572C13.3297 7.75852 13.4313 8.49323 13.5127 9.06931C14.5921 8.02129 14.6804 7.90911 14.7695 7.80271C15.1242 7.37973 15.7555 7.32435 16.1787 7.67869C16.6019 8.03336 16.6573 8.66457 16.3027 9.08787C16.1069 9.32156 15.9072 9.54677 13.9023 11.4736C13.3638 11.9912 12.6893 12.6303 11.956 13.331C12.7699 13.3878 13.993 13.4091 14.7666 13.4306L14.7656 13.4316C15.2356 13.441 15.5046 13.4418 15.6621 13.4404C15.7549 13.4396 15.799 13.4383 15.8154 13.4375L15.8252 13.4365L15.834 13.4355C15.8972 13.4283 15.9623 13.4225 16.0068 13.4189C16.2095 13.4026 16.4027 13.4488 16.5684 13.54C16.59 13.5169 16.6145 13.4948 16.6377 13.4697C17.0049 13.0731 17.2312 12.8335 17.4111 12.6328C17.5792 12.4453 17.871 12.1484 18.2666 11.7461C18.6821 11.3235 19.2064 10.7975 19.498 10.4892C19.7699 10.2019 19.8932 9.99805 20.3359 9.25095C20.6134 8.78262 21.0105 7.98854 21.2852 7.40818C21.668 6.59937 21.765 6.14468 21.8144 5.88474C21.8186 5.863 21.8307 5.76947 21.8262 5.56052C21.8218 5.35955 21.8027 5.08317 21.7617 4.70994C21.6756 3.92486 21.3825 3.43457 21.3066 3.32615C21.3193 3.34415 21.2905 3.29845 21.1416 3.21189C21.002 3.13079 20.8154 3.04737 20.5859 2.95896C20.5765 2.95532 20.5168 2.93551 20.3594 2.91111C20.2065 2.88742 19.9952 2.86428 19.6982 2.8408C19.124 2.79541 18.2778 2.77608 17.5869 2.79588Z" fill="black"/>
</svg>
