<svg width="24" height="24" viewBox="0 0 24 24" fill="none" xmlns="http://www.w3.org/2000/svg">
<path d="M11.4492 0.39354C11.8959 0.0697975 12.5213 0.168766 12.8456 0.61522C12.8437 0.612618 12.8408 0.608274 12.8369 0.603501L12.8495 0.616197L12.871 0.638658L12.8925 0.662095C12.9787 0.75948 13.058 0.858583 13.1269 0.947251L13.5751 1.4785C13.855 1.80342 14.176 2.33605 14.4326 2.78221C14.6194 3.10712 14.674 3.29427 15.0849 3.94432C15.3258 4.32542 15.6936 4.85727 16.2158 5.48143C16.7459 6.11511 17.4178 6.82687 17.7978 7.22557C18.1789 7.62547 18.2245 7.66568 18.246 7.68553C18.2867 7.72263 18.6145 7.95886 19.0859 8.48729C19.3674 8.80289 19.8867 9.39872 20.2968 10.0146C20.7058 10.6289 20.9953 11.2246 21.1474 11.5986C21.2889 11.9466 21.4018 12.1982 21.454 12.5117C21.5302 12.969 21.5754 13.7223 21.4599 14.6318C21.4085 15.0364 21.338 15.5387 21.1396 16.039C20.8361 16.8043 20.525 17.4937 20.3447 17.8603C20.2562 18.0402 19.976 18.5874 19.4257 19.3808C19.1483 19.7808 18.8574 20.1447 18.5458 20.4687C18.2951 20.7294 17.9526 21.0776 17.6181 21.2861C17.0321 21.6512 16.5793 21.9316 15.7402 22.1484C15.0701 22.3215 14.5155 22.4681 14.3271 22.5029C14.2337 22.5201 14.1438 22.5418 14.0058 22.5732C13.8783 22.6023 13.7206 22.6376 13.5458 22.6631C13.197 22.7139 12.4415 22.7263 11.5038 22.6709C11.1101 22.6476 10.7162 22.6216 10.412 22.5556C10.1065 22.4893 9.69048 22.4218 9.00971 22.1973C8.56924 22.052 7.92941 21.8117 7.32221 21.499C6.74339 21.2008 6.17447 20.846 5.82807 20.5615C5.32625 20.1492 4.93122 19.5836 4.57221 18.8838C4.30758 18.3679 4.03501 17.6546 3.81049 16.7783C3.70397 16.3625 3.65915 16.0701 3.62592 15.6201C3.59478 15.1982 3.57112 14.6153 3.58002 14.1279C3.58858 13.66 3.61816 13.2521 3.67865 12.9443C3.70664 12.802 3.73282 12.6031 3.79096 12.2402C3.84477 11.9043 3.91852 11.4857 4.02728 11.0019C4.17027 10.3661 4.27428 10.0549 4.32416 9.90331C4.40365 9.66181 4.49232 9.45771 4.93549 8.72167C5.34093 8.04828 6.11473 6.77702 6.7431 5.83006C7.37758 4.87396 7.85767 4.25505 8.27728 3.77538C8.48926 3.5331 8.6809 3.33544 8.84857 3.16502C9.02116 2.98962 9.1536 2.85683 9.28217 2.71385C9.57542 2.38771 9.80641 2.12319 9.99017 1.91502C10.1464 1.73803 10.3243 1.53584 10.4589 1.41991C10.5197 1.36754 10.603 1.28274 10.6923 1.18065C10.7786 1.08195 10.852 0.988436 10.8915 0.935533C10.975 0.823946 11.0779 0.734599 11.1913 0.668931C11.2571 0.564881 11.3435 0.470277 11.4492 0.39354ZM12.1874 12.456C11.9823 12.674 11.7459 12.9061 11.537 13.1103C11.3184 13.3241 11.1356 13.5024 11.0058 13.6416C10.659 14.0136 10.4931 14.2292 10.2685 14.8379C10.069 15.3786 9.77053 16.2485 9.62787 16.708C9.48928 17.1545 9.40265 17.4873 9.31635 17.7471C9.26747 17.894 9.18908 18.0415 9.17475 18.0703C9.14808 18.1238 9.12824 18.1657 9.10932 18.2217C9.07121 18.3346 9.00924 18.5825 8.99799 19.1084C8.99053 19.4586 9.001 19.6449 9.01068 19.7314C9.05629 19.8486 9.07605 19.9715 9.07611 20.0937C9.28082 20.174 9.47302 20.2439 9.63666 20.2978C10.1908 20.4805 10.4729 20.5228 10.8359 20.6015C10.9589 20.6282 11.1872 20.6491 11.622 20.6748C12.5338 20.7287 13.1194 20.7035 13.2568 20.6836C13.3501 20.67 13.4454 20.6497 13.5624 20.623C13.6691 20.5987 13.8184 20.5631 13.9648 20.5361C13.9675 20.5356 13.977 20.5341 13.9941 20.5303C14.0153 20.5254 14.0439 20.5183 14.079 20.5098C14.15 20.4925 14.243 20.4695 14.3564 20.4404C14.3931 20.431 14.4314 20.4205 14.4716 20.4101C14.5935 20.1665 14.8137 19.9757 15.0898 19.8965L15.206 19.8691C15.2112 19.8443 15.2199 19.8142 15.2245 19.7773C15.27 19.4136 15.3251 18.8328 15.2597 18.1523C15.1993 17.5242 15.1253 17.1949 15.1015 17.0908C15.0836 17.0126 14.9837 16.6341 14.7392 16.1562C14.7013 16.0823 14.6179 15.9593 14.4228 15.6963C14.2436 15.4547 13.9978 15.1302 13.7099 14.7178C13.3891 14.2581 13.0629 13.731 12.747 13.0908C12.6138 12.8208 12.4821 12.5329 12.3632 12.2607C12.3069 12.3228 12.2498 12.3898 12.1874 12.456ZM11.7646 2.93553C11.7754 2.92618 11.7602 2.93906 11.7011 3.00292C11.6479 3.06048 11.5785 3.13814 11.4892 3.23924C11.3139 3.43784 11.0707 3.71671 10.7695 4.05174C10.6031 4.23679 10.4294 4.40978 10.2744 4.56737C10.1142 4.73014 9.95497 4.89524 9.78217 5.09276C9.43162 5.49351 9.00435 6.03856 8.40912 6.93553C7.80776 7.84177 7.05504 9.07912 6.64935 9.75292C6.43469 10.1095 6.33096 10.2973 6.27826 10.4014C6.2381 10.4807 6.23544 10.4952 6.22455 10.5283C6.18735 10.6413 6.10292 10.887 5.97846 11.4404C5.8818 11.8703 5.81543 12.2454 5.76557 12.5566C5.72007 12.8406 5.67818 13.1437 5.64154 13.3301C5.61498 13.4651 5.58787 13.7355 5.58002 14.165C5.57254 14.5755 5.59311 15.0943 5.62103 15.4726C5.64687 15.8225 5.67481 15.9966 5.74799 16.2822C5.94298 17.0432 6.16734 17.6117 6.3515 17.9707C6.60321 18.4613 6.81753 18.752 7.00385 18.9326C7.02562 18.3348 7.10272 17.9127 7.21478 17.581C7.27493 17.4032 7.33869 17.27 7.38471 17.1777C7.40865 17.1297 7.42013 17.1057 7.42474 17.0967C7.51563 16.8206 7.52427 16.7384 7.71771 16.1152C7.87295 15.6151 8.18377 14.7112 8.39252 14.1455C8.72439 13.2461 9.04783 12.8084 9.54291 12.2773C9.71163 12.0964 9.93376 11.88 10.1386 11.6797C10.3531 11.47 10.5596 11.2674 10.7314 11.0849C11.196 10.5913 11.4207 10.276 11.5341 10.0976C11.5914 10.0075 11.6256 9.94527 11.663 9.87792C11.6778 9.85135 11.7114 9.79044 11.7509 9.73143C11.7861 9.679 11.8814 9.54149 12.0478 9.42577C12.2066 9.31544 12.5079 9.17305 12.8857 9.2578C13.2361 9.33659 13.4339 9.56417 13.5156 9.67674C13.6597 9.87559 13.7198 10.1053 13.7353 10.1601C13.8067 10.4138 13.8131 10.4971 13.8779 10.6777C13.997 11.0099 14.2645 11.6456 14.541 12.206C14.8059 12.743 15.0778 13.1838 15.3495 13.5732C15.6161 13.9552 15.8387 14.248 16.0292 14.5049C16.2032 14.7394 16.3925 14.9972 16.5195 15.2451C16.8511 15.8932 17.0031 16.4319 17.0517 16.6445C17.0917 16.8195 17.1811 17.2347 17.2509 17.9609C17.2824 18.2891 17.2909 18.5977 17.288 18.8779C17.4513 18.6902 17.6168 18.4796 17.7822 18.2412C18.2673 17.5417 18.4991 17.0824 18.5507 16.9775C18.7045 16.6648 18.9944 16.0247 19.2812 15.3017C19.3772 15.0595 19.4243 14.7829 19.4755 14.3799C19.5671 13.6588 19.5249 13.1008 19.4814 12.8398C19.4792 12.8265 19.4767 12.8115 19.455 12.7519C19.4258 12.6717 19.3818 12.5654 19.2949 12.3515C19.1884 12.0899 18.9594 11.6151 18.6318 11.123C18.3052 10.6326 17.8665 10.1252 17.5927 9.81835C17.198 9.3759 17.1316 9.37813 16.8915 9.15721C16.8156 9.08729 16.729 9.0026 16.3505 8.60545C15.9707 8.20693 15.2578 7.45341 14.6816 6.76463C14.0973 6.06615 13.6781 5.46225 13.3945 5.01366C12.9911 4.37552 12.7354 3.84224 12.6992 3.77928C12.4293 3.31008 12.1962 2.94282 12.0595 2.78417C12.0397 2.76115 12.02 2.73639 11.999 2.7119C11.9232 2.7898 11.8442 2.86689 11.7646 2.93553Z" fill="black"/>
</svg>
