<svg width="24" height="24" viewBox="0 0 24 24" fill="none" xmlns="http://www.w3.org/2000/svg">
<path d="M18.0185 0.569901C18.6836 0.493834 19.3204 0.444615 19.8789 0.497636C20.4518 0.552096 21.0446 0.723471 21.5234 1.17732C21.9827 1.61299 22.2099 2.19674 22.3369 2.70662C22.4671 3.22933 22.5218 3.79875 22.5527 4.31502C22.6158 5.36927 22.5881 6.40444 22.5019 7.39021C22.416 8.37324 22.2707 9.29782 22.0967 10.0279C21.9187 10.7745 21.7166 11.2847 21.5293 11.6851C21.3397 12.0901 21.1679 12.3753 20.9287 12.7125C20.7013 13.033 20.4071 13.408 20.1142 13.7349C19.8035 14.0819 19.4996 14.3671 19.0254 14.7125C18.5664 15.0468 17.9451 15.4383 17.2295 15.7916C16.517 16.1433 15.7391 16.4403 15.1894 16.6256C14.5865 16.8288 14.2243 16.9037 13.4853 16.9742C12.8228 17.0374 11.8123 17.1006 11.2431 17.1373C11.1495 17.716 10.9827 18.7118 10.8828 19.272C10.7586 19.9685 10.6994 20.1443 10.5879 20.4371C10.2452 21.3369 10.059 21.6327 9.92674 21.9146C9.91596 21.9376 9.89629 21.9792 9.87108 22.024C9.84985 22.0617 9.79614 22.1531 9.70799 22.2467C9.61945 22.3405 9.42037 22.5156 9.10447 22.5611C8.77223 22.6088 8.51586 22.4846 8.37986 22.3922C8.23427 22.2931 8.12965 22.1686 8.09471 22.1275C8.04354 22.0673 7.98866 21.9978 7.94529 21.942C7.85017 21.8195 7.75163 21.6916 7.63084 21.5553C7.55614 21.4709 7.52081 21.4376 6.67186 20.6949C5.86249 19.9868 4.3236 18.6452 3.374 17.772C2.41111 16.8867 2.07506 16.4999 1.87303 16.2574C1.70297 16.0533 1.37592 15.667 1.42186 15.1256L1.44041 14.9947C1.50296 14.7015 1.68208 14.4908 1.8574 14.3658C2.00078 14.2637 2.14488 14.2154 2.19822 14.1978C2.32658 14.1557 2.50497 14.1143 2.70799 14.0689C3.15676 13.9687 3.98378 13.8039 4.50975 13.7115C4.77929 13.6642 4.9651 13.6367 5.11522 13.6148C5.26423 13.5931 5.36359 13.5782 5.48533 13.5543C5.6484 13.5222 5.85611 13.4708 6.041 13.4234C6.01876 13.2865 5.99687 13.0952 5.98533 12.6871C5.97466 12.3092 5.98984 11.6973 6.04686 11.0943C6.10561 10.4732 6.21573 9.87828 6.35447 9.33846C6.49756 8.7819 6.66735 8.30653 6.97947 7.55428C7.28807 6.81052 7.74442 5.77835 8.02342 5.17049C8.30752 4.55151 8.42484 4.33484 8.65428 4.01717C9.07904 3.42909 9.51 2.92576 9.84861 2.66463C10.1095 2.4635 10.4411 2.32446 10.9062 2.14119C11.4398 1.93099 12.2829 1.63002 13.6045 1.32478C14.9108 1.0231 16.6649 0.724761 18.0185 0.569901ZM10.6933 4.64998C10.5693 4.79833 10.4271 4.97794 10.2754 5.18807C10.2057 5.28454 10.1666 5.34492 10.1152 5.43904C10.056 5.54757 9.97755 5.70653 9.8408 6.00447C9.56968 6.59516 9.12431 7.60465 8.82713 8.32088C8.53354 9.02846 8.40232 9.40728 8.29197 9.8365C8.17742 10.2822 8.08624 10.7736 8.03807 11.2828C7.98822 11.8101 7.97616 12.3399 7.98436 12.6304C7.99554 13.0261 8.01441 13.1072 8.01658 13.1187C8.0258 13.17 8.04043 13.2375 8.05955 13.3179C8.06782 13.3527 8.07869 13.398 8.0869 13.4332C8.09447 13.4657 8.10652 13.5177 8.11522 13.567C8.17012 13.879 8.07362 14.1826 7.87889 14.4029C7.82326 14.6816 7.65003 14.9354 7.38182 15.0836C7.24216 15.1607 7.1165 15.2042 6.87498 15.272C6.63822 15.3386 6.20516 15.4514 5.8701 15.5172C5.69435 15.5517 5.55026 15.572 5.40428 15.5933C5.25933 15.6145 5.09624 15.6389 4.85545 15.6812C4.66807 15.7141 4.43765 15.7582 4.20115 15.8043C4.34783 15.9454 4.52091 16.1104 4.72752 16.3004C5.65384 17.1521 7.16828 18.4708 7.98924 19.189C8.31017 19.4698 8.52787 19.6619 8.6865 19.8033C8.69633 19.7778 8.70844 19.7522 8.71873 19.7252C8.75987 19.6171 8.77543 19.5768 8.79686 19.4957C8.82225 19.3995 8.85706 19.241 8.91404 18.9215C9.01664 18.3462 9.19448 17.2882 9.28318 16.7359C9.32599 16.4694 9.34401 16.3288 9.3574 16.2349C9.36153 16.206 9.37329 16.1197 9.39451 16.0377C9.42352 15.9257 9.49963 15.6954 9.72264 15.5015C9.94362 15.3096 10.1786 15.2443 10.3721 15.2115C10.5301 15.1848 10.7475 15.1659 11.039 15.147C11.6082 15.1102 12.6418 15.0464 13.2959 14.984C13.9032 14.926 14.1126 14.8787 14.5508 14.731C15.0426 14.5653 15.7337 14.2993 16.3447 13.9976C16.9523 13.6976 17.4764 13.3664 17.8486 13.0953C18.1411 12.8822 18.3261 12.7149 18.5049 12.5269C18.2205 12.43 17.8478 12.2871 17.3857 12.0894L17.3486 12.0738L17.3144 12.0562C16.9354 11.8574 16.366 11.5354 15.7324 11.0611C15.0981 10.5862 14.4333 9.98682 13.7129 9.18416C13.0015 8.3916 12.2431 7.41298 11.6982 6.55428C11.1749 5.72943 10.8616 5.0477 10.6933 4.64998ZM19.6894 2.48885C19.3554 2.45719 18.8986 2.48257 18.2461 2.55721C16.9639 2.70388 15.2843 2.99003 14.0547 3.274C13.398 3.42566 12.8777 3.57499 12.4668 3.7076C12.481 3.74197 12.4966 3.78065 12.5146 3.82381C12.6463 4.13941 12.915 4.73842 13.3867 5.48201C13.8628 6.23246 14.551 7.12382 15.2012 7.84822C15.8419 8.56208 16.4104 9.07106 16.9306 9.46053C17.4319 9.83575 17.8868 10.0952 18.206 10.2642C18.6088 10.4358 18.9062 10.5498 19.1094 10.6207C19.2413 10.6667 19.3195 10.6907 19.3545 10.7008C19.3793 10.7024 19.4164 10.7055 19.4638 10.7095C19.5626 10.718 19.6564 10.7415 19.7441 10.776C19.8736 10.4917 20.0181 10.1228 20.1513 9.56404C20.2982 8.9478 20.4305 8.12289 20.5097 7.21639C20.5887 6.31277 20.613 5.37657 20.5566 4.43416C20.5278 3.95214 20.4812 3.53041 20.3965 3.19002C20.3086 2.83758 20.2055 2.68381 20.1474 2.62849C20.1086 2.59184 20.0077 2.51912 19.6894 2.48885ZM16.0019 3.85896C16.3233 3.41036 16.9475 3.30651 17.3965 3.62752C17.4765 3.68482 17.5449 3.75288 17.6025 3.82674C17.7197 3.88563 17.828 3.96824 17.9179 4.07478C17.9595 4.12399 18.0348 4.21516 18.0967 4.32088C18.1843 4.47075 18.2639 4.68091 18.249 4.93904L18.2412 5.06014L18.206 5.17635C18.0811 5.58035 17.7856 5.80523 17.5928 5.92244L17.5566 5.94392L17.5185 5.96346C17.4074 6.0186 17.2547 6.0868 17.0898 6.13045C17.007 6.15233 16.8851 6.17792 16.7431 6.1783C16.6061 6.1786 16.3737 6.15523 16.1396 6.0074C15.8836 5.84559 15.7316 5.61256 15.6572 5.39021C15.626 5.29692 15.5448 5.03647 15.6201 4.71248C15.7104 4.32451 15.9061 3.99291 16.0019 3.85896Z" fill="black"/>
</svg>
