<svg width="24" height="24" viewBox="0 0 24 24" fill="none" xmlns="http://www.w3.org/2000/svg">
<path d="M20.6051 0.677652C20.8936 0.676535 21.2259 0.698365 21.5465 0.811441C21.9005 0.936353 22.1997 1.15771 22.4215 1.48039C22.6238 1.77477 22.7319 2.11063 22.8014 2.4257C22.939 3.04918 22.9875 3.91087 22.9958 4.75968C23.0043 5.6289 22.9708 6.56057 22.9215 7.36125C22.8223 8.97337 22.6568 10.0197 22.5719 10.5683C22.5337 10.8155 22.5069 10.9934 22.487 11.0946C22.4812 11.1239 22.4728 11.1676 22.4596 11.2148C22.4497 11.2501 22.4203 11.3533 22.3551 11.4667C22.2879 11.5837 22.1095 11.8367 21.7536 11.9384C21.4278 12.0313 21.1658 11.9295 21.1169 11.9111C20.9682 11.8551 20.8457 11.7849 20.7555 11.7284C20.6742 11.6774 20.577 11.6101 20.5163 11.5693C20.3796 11.4774 20.2164 11.3735 19.9665 11.2548C19.7627 11.1581 19.473 11.0372 19.1442 10.9023C18.829 10.773 18.4794 10.6309 18.1979 10.5058C17.6286 10.2526 17.3384 10.086 17.0905 9.92668C16.8295 9.75896 16.6357 9.61038 16.2536 9.25968C16.2325 9.24038 16.2114 9.21981 16.1891 9.19914C15.9669 9.41343 15.7314 9.6493 15.568 9.83586C15.2757 10.1697 14.7818 10.7261 14.3171 11.2441C14.3262 11.2499 14.3351 11.2566 14.3444 11.2626C14.7694 11.5347 15.3822 11.882 15.9411 12.1581C16.4925 12.4306 16.9759 12.6248 17.2995 12.7489C17.7119 12.9072 18.1022 13.0014 18.569 13.1103L18.5846 13.1142L18.5993 13.1181C18.7626 13.1616 18.851 13.1788 18.9665 13.1933C19.0148 13.198 19.0518 13.2005 19.1149 13.203C19.6667 13.2251 20.0959 13.6903 20.0739 14.2421C20.0515 14.7936 19.5864 15.2231 19.0348 15.2011C18.9688 15.1985 18.8795 15.1949 18.7653 15.1835L18.7546 15.1825L18.7448 15.1816C18.5184 15.1543 18.3419 15.1171 18.1149 15.0575C17.6505 14.9492 17.1385 14.829 16.5837 14.6161C16.2292 14.4801 15.6829 14.2612 15.0553 13.9511C14.4352 13.6447 13.7577 13.2617 13.2663 12.9472C13.146 12.8702 13.0343 12.7955 12.9294 12.7236C12.825 12.8264 12.7439 12.9076 12.6745 12.9755C12.4941 13.152 12.43 13.2218 12.0133 13.6376C12.4133 13.9632 12.7507 14.2205 12.986 14.3974C13.458 14.7521 13.7219 14.8778 13.9743 15.0058C14.1013 15.0637 14.224 15.1123 14.3571 15.165L14.3805 15.1747C14.4831 15.2183 14.5621 15.2598 14.6452 15.3114C15.1141 15.603 15.2588 16.2203 14.9674 16.6894C14.678 17.155 14.068 17.2996 13.6003 17.0165C13.485 16.9711 13.3073 16.9019 13.1256 16.8183L13.1071 16.8095L13.0895 16.8007C12.8115 16.659 12.4166 16.4717 11.7838 15.996C11.5073 15.7881 11.0855 15.4652 10.5817 15.0487C10.2105 15.4133 9.8521 15.7688 9.59342 16.0204C8.92374 16.6718 8.63662 16.9038 8.44205 17.0341C8.42448 17.1582 8.39673 17.373 8.36197 17.7001L8.361 17.7109C8.32862 17.9883 8.27152 18.453 8.23697 19.1728C8.20103 19.9216 8.19125 20.8636 8.17545 21.3769C8.16904 21.585 8.16105 21.7899 8.13248 21.9345C8.12674 21.9636 8.10129 22.0999 8.02018 22.247C7.97886 22.3219 7.87538 22.4881 7.67057 22.6161C7.42088 22.7721 7.12033 22.8083 6.8483 22.7265C6.62593 22.6595 6.48675 22.5339 6.43131 22.4794C6.36762 22.4168 6.32635 22.3584 6.30729 22.331C6.28599 22.3003 6.27026 22.2743 6.26334 22.2626C6.25949 22.2561 6.25647 22.2503 6.25455 22.247C6.25357 22.2453 6.25217 22.2431 6.25162 22.2421C6.25045 22.24 6.25162 22.2428 6.25065 22.2411L6.24869 22.2372C6.24409 22.2305 6.23009 22.2103 6.19791 22.1689C6.17202 22.1354 6.09644 22.0261 5.17252 21.1581C4.25425 20.2955 2.60597 18.7821 1.75944 17.996C1.55161 17.803 1.38419 17.6471 1.25846 17.5243C1.14766 17.4162 1.01571 17.2832 0.919591 17.1503C0.878105 17.0929 0.770007 16.9387 0.720373 16.7216C0.653614 16.429 0.703815 16.04 1.00553 15.745C1.21866 15.5368 1.46176 15.4804 1.5192 15.4667C1.60499 15.4463 1.68594 15.4378 1.71451 15.4345L2.25651 15.3905C2.46028 15.3774 2.66599 15.3658 2.80924 15.3564C3.13333 15.3349 3.31731 15.3152 4.12662 15.2929C4.92105 15.271 6.29556 15.2473 7.01725 15.2392C7.22434 15.2368 7.38362 15.2368 7.50065 15.2372C7.62871 15.1266 7.8448 14.9312 8.19889 14.5868C8.43323 14.3589 8.74999 14.0439 9.08463 13.7157C8.27126 12.9396 7.46314 12.0973 6.95279 11.5409C6.37554 10.9116 6.11023 10.5968 5.94596 10.3261C5.86299 10.1893 5.79945 10.0776 5.75358 9.98625C5.72636 9.93205 5.64922 9.77874 5.61881 9.6005C5.5263 9.05633 5.89202 8.54007 6.43619 8.44718C6.92184 8.3644 7.3843 8.64721 7.54459 9.09562C7.55114 9.10837 7.56182 9.12879 7.57779 9.15714C7.59669 9.19066 7.62291 9.23459 7.65592 9.28898C7.70003 9.36155 7.82407 9.53265 8.42643 10.1894C8.92919 10.7375 9.72685 11.567 10.5114 12.3124C10.9566 11.8688 11.1035 11.7147 11.2751 11.5468C11.3358 11.4874 11.4007 11.4216 11.4792 11.3446C11.4655 11.3281 11.4532 11.314 11.443 11.3017C11.331 11.1655 11.0358 10.8145 10.5299 9.87394C10.1991 9.25878 9.74621 8.34056 9.47819 7.7548C9.20443 7.15645 9.09709 6.86248 8.99869 6.45304C8.82318 5.72235 8.72496 5.20458 8.7067 5.12101C8.63586 4.79772 8.62566 4.47696 8.62565 4.31925C8.62565 3.76701 9.07342 3.31932 9.62565 3.31925C10.1779 3.31925 10.6256 3.76697 10.6256 4.31925C10.6257 4.36068 10.6277 4.42514 10.6335 4.49699C10.6394 4.57057 10.648 4.63928 10.6598 4.69328C10.6953 4.8552 10.7715 5.27107 10.943 5.98527C10.9999 6.2218 11.0511 6.38638 11.2965 6.92277C11.5481 7.47251 11.9826 8.35203 12.2917 8.92668C12.5625 9.43021 12.7514 9.71384 12.8639 9.86906C13.308 9.37394 13.7784 8.84475 14.0641 8.51847C14.2822 8.26945 14.5651 7.98875 14.7975 7.76457C14.7238 7.68114 14.646 7.5964 14.569 7.50675C13.8542 6.67453 13.0238 5.59136 12.5885 5.0175C12.0235 4.27249 11.9128 4.07747 11.8288 3.93937L11.8297 3.93839C11.8132 3.91149 11.7981 3.88871 11.7897 3.87394C11.7765 3.85049 11.7781 3.8525 11.7741 3.84562C11.7737 3.84488 11.7732 3.84328 11.7712 3.83976C11.7691 3.8363 11.7651 3.83065 11.7614 3.82414C11.7531 3.80956 11.7424 3.78935 11.7301 3.76554C11.7045 3.71577 11.6812 3.66458 11.6598 3.60929C11.6047 3.46663 11.5868 3.31873 11.5973 3.1757C11.4148 2.74585 11.5533 2.23315 11.9538 1.95988C12.1128 1.85145 12.3346 1.74975 12.6383 1.63175C12.964 1.50525 13.3771 1.41689 14.6403 1.25773C15.9374 1.0943 18.2183 0.857462 19.6335 0.735269C19.9792 0.705416 20.3122 0.67879 20.6051 0.677652ZM4.18131 17.2919C4.09864 17.2942 4.02302 17.2975 3.95377 17.2997C4.68196 17.9721 5.56731 18.7915 6.22819 19.4081C6.23242 19.2941 6.23385 19.1829 6.23893 19.0771C6.27689 18.2861 6.3413 17.7653 6.37467 17.4794C6.38351 17.3964 6.39291 17.3193 6.40104 17.248C5.68004 17.2591 4.76695 17.2758 4.18131 17.2919ZM20.613 2.67765C20.415 2.67842 20.1618 2.69765 19.8053 2.72843C18.4114 2.8488 16.157 3.0825 14.8903 3.24211C14.4145 3.30205 14.0906 3.35106 13.8678 3.38761C13.9491 3.499 14.0518 3.63741 14.1823 3.80949C14.6176 4.38342 15.4156 5.42184 16.0866 6.20304C16.7489 6.97418 17.2756 7.48267 17.6061 7.78605C17.9312 8.08439 18.0337 8.15547 18.1715 8.24406C18.3228 8.34124 18.5215 8.46023 19.0104 8.67765C19.2579 8.78771 19.5712 8.91555 19.903 9.05168C20.1799 9.16528 20.4744 9.2879 20.7184 9.39933C20.789 8.85982 20.8686 8.14663 20.9245 7.23918C20.9717 6.47294 21.0037 5.58971 20.9958 4.77921C20.9876 3.94824 20.9381 3.26339 20.8483 2.85636C20.8311 2.77832 20.8123 2.72348 20.7995 2.68546C20.7543 2.6811 20.6938 2.67734 20.613 2.67765ZM7.58951 9.26457C7.58445 9.23492 7.57951 9.20952 7.57486 9.19132C7.5738 9.18738 7.57195 9.18328 7.57096 9.17961C7.57816 9.20725 7.58461 9.23589 7.58951 9.26457ZM16.568 3.59367C16.9241 3.17163 17.5551 3.11755 17.9772 3.47355C18.1289 3.60152 18.2312 3.76582 18.2858 3.9423C18.3335 4.01401 18.3824 4.09879 18.4186 4.19718L18.4567 4.32023L18.4811 4.46183C18.5157 4.78231 18.4022 5.04175 18.3044 5.19621C18.209 5.3466 18.0465 5.53017 17.8005 5.65031C17.5631 5.766 17.2152 5.83173 16.8581 5.68449C16.7556 5.64218 16.6211 5.57 16.4948 5.44914C16.3668 5.32657 16.1989 5.10436 16.1637 4.78117C16.1254 4.42752 16.2435 4.135 16.3112 3.99308C16.3886 3.83095 16.4855 3.69153 16.568 3.59367ZM18.0963 4.88273C18.1032 4.87458 18.1082 4.86944 18.11 4.86711L18.113 4.86125V4.86027C18.1073 4.86746 18.1023 4.87568 18.0963 4.88273Z" fill="black"/>
</svg>
