<svg width="24" height="24" viewBox="0 0 24 24" fill="none" xmlns="http://www.w3.org/2000/svg">
<path d="M11.86 1.78686C12.1821 1.78484 12.5316 1.81003 12.822 1.83178C13.0122 1.84613 13.1683 1.90713 13.2448 1.9392C13.3371 1.97798 13.4274 2.02437 13.5065 2.06811C13.6647 2.15562 13.8542 2.274 14.0602 2.40502C14.4228 2.63555 14.7062 2.86485 14.9137 3.14233C14.9409 3.17859 14.9647 3.21577 14.988 3.2517C15.0768 3.24129 15.1759 3.22997 15.2848 3.22143C15.8318 3.17861 16.6235 3.17479 17.2438 3.22436C18.3162 3.31009 18.8804 3.53737 19.1022 3.63061C19.4159 3.76257 19.6311 3.98693 19.7819 4.16576C19.937 4.34977 20.1145 4.59808 20.3239 4.89819C20.5369 5.20354 20.6199 5.5491 20.6608 5.80736C20.7038 6.07898 20.7162 6.36887 20.7214 6.63061C20.7273 6.93222 20.6495 7.24663 20.5778 7.49584C20.5069 7.74233 20.4099 8.02643 20.3044 8.32983C20.3288 8.34191 20.3539 8.35436 20.3786 8.36791C20.8257 8.61284 21.2305 8.96472 21.5202 9.23705C21.7765 9.47801 21.9518 9.83332 22.0622 10.0837C22.1922 10.3787 22.3134 10.7254 22.4137 11.0808C22.609 11.7721 22.4638 12.5363 22.4274 12.824C22.3692 13.2857 22.2306 13.6411 22.0915 13.9099C21.8827 14.313 21.5177 14.5897 21.2116 14.8201C20.9752 14.9979 20.7243 15.1532 20.5104 15.279C20.5117 15.2989 20.5155 15.3192 20.5163 15.3396C20.53 15.711 20.513 16.3353 20.4938 16.7361C20.4721 17.1896 20.4318 17.4352 20.3581 17.7429C20.2182 18.3266 20.0341 18.8528 19.8317 19.197C19.4269 19.885 18.9058 20.1765 18.5173 20.3191C18.2403 20.4206 17.8983 20.4454 17.6442 20.4568C17.3502 20.4699 16.998 20.4686 16.6198 20.4617C16.4641 20.4588 16.3235 20.4525 16.197 20.4451C16.1811 20.5721 16.1536 20.7196 16.0993 20.8699C15.9245 21.3526 15.6919 21.7122 15.4225 21.9831C15.1581 22.249 14.8919 22.3911 14.777 22.4558C14.5956 22.5581 14.4166 22.5986 14.2721 22.6208C14.133 22.6422 13.9618 22.655 13.7536 22.6658C13.3173 22.6884 12.5925 22.6945 12.0993 22.6853C11.5914 22.6758 11.2972 22.6496 11.0026 22.5974C10.388 22.4884 9.83953 22.2146 9.38347 21.8943C8.93418 21.5786 8.68026 21.184 8.53093 20.8259C8.16251 20.8648 7.56901 20.862 7.18523 20.8503C6.43227 20.8274 5.97745 20.6904 5.59929 20.5203C5.07279 20.2832 4.65934 19.9761 4.4157 19.7605C4.19969 19.5693 4.05279 19.3316 3.95281 19.1501C3.84698 18.9581 3.74592 18.737 3.65008 18.5222C3.36146 17.8754 3.30972 17.169 3.29656 16.7136C3.29118 16.5263 3.32309 16.353 3.3698 16.2009C3.29316 16.1783 3.20367 16.1509 3.12078 16.116C2.63386 15.9103 2.39732 15.725 2.07976 15.5066C1.75866 15.2856 1.56157 14.9348 1.45965 14.738C1.3327 14.4929 1.22242 14.2168 1.13543 13.9626C0.922389 13.3397 1.00114 12.7039 1.01433 12.5076C1.03443 12.21 1.12433 11.938 1.22429 11.6736C1.33685 11.3759 1.5098 10.9961 1.74578 10.5808C1.97883 10.1708 2.26682 9.74011 2.4489 9.48022C2.70942 9.10858 3.02244 8.8087 3.25457 8.61303C3.2548 8.58624 3.25386 8.55791 3.25457 8.52904C3.26415 8.14064 3.34168 7.52799 3.42254 7.01342C3.50928 6.46149 3.62375 5.97102 3.74773 5.55834C3.85444 5.2032 3.98135 4.85124 4.13347 4.54467C4.27428 4.26105 4.48738 3.90973 4.81121 3.66576L4.92351 3.58764C5.04042 3.51275 5.17248 3.44809 5.32097 3.40502C5.52251 3.34666 5.7037 3.34254 5.84832 3.35424C5.97026 3.36415 6.0934 3.38888 6.1325 3.39623C6.18926 3.40689 6.21778 3.41174 6.2448 3.41381C6.60735 3.4414 7.10553 3.49941 7.50457 3.57104C7.97324 3.65521 8.29936 3.75634 8.49968 3.82494C8.50384 3.81667 8.50806 3.80792 8.51238 3.79955C8.82466 3.19487 9.32544 2.81324 9.45672 2.7019C9.92813 2.30209 10.4645 2.11586 10.7809 1.97338C11.1473 1.80854 11.5773 1.78866 11.86 1.78686ZM11.6178 3.80053C11.5698 3.80697 11.5601 3.81285 11.5759 3.80736C11.065 4.03654 10.9373 4.06813 10.7507 4.22631C10.543 4.40247 10.3861 4.53036 10.2897 4.71654C10.2503 4.79295 10.2467 4.82636 10.1823 5.01147C10.1604 5.07454 10.1057 5.22937 10.0046 5.38061C9.88564 5.55826 9.66415 5.78499 9.3073 5.86791C9.14646 5.90516 8.99011 5.90607 8.90886 5.90502C8.80811 5.90369 8.70537 5.89619 8.6159 5.88744C8.45913 5.87208 8.24855 5.84308 8.10125 5.80151L8.07 5.79272L8.0407 5.78197C7.90417 5.73375 7.66661 5.6314 7.15105 5.53881C6.83124 5.48142 6.40217 5.43144 6.09343 5.40795C6.04169 5.40401 5.99309 5.39724 5.9489 5.39135C5.942 5.40444 5.93306 5.41811 5.92547 5.43334C5.84095 5.60361 5.75094 5.84013 5.66277 6.13354C5.56659 6.45367 5.47173 6.85558 5.39812 7.32397C5.31869 7.82953 5.26067 8.33155 5.25457 8.57885C5.25089 8.72931 5.25751 8.82035 5.26238 8.91576C5.26385 8.94465 5.2707 9.05703 5.25847 9.1726C5.24566 9.29326 5.19323 9.61668 4.89812 9.8728C4.62067 10.1134 4.39858 10.1835 4.0866 10.6287C3.9228 10.8625 3.67374 11.2354 3.48406 11.5691C3.2974 11.8975 3.16995 12.1835 3.09539 12.3806C3.05391 12.4903 3.0321 12.5585 3.02019 12.6023C3.01419 12.6245 3.01131 12.6371 3.01043 12.6423C2.99923 12.8089 2.98793 12.915 2.98992 13.0447C2.99178 13.1641 3.00612 13.2511 3.02801 13.3152C3.09471 13.5101 3.16765 13.688 3.23504 13.8181C3.25692 13.8604 3.27665 13.8901 3.28972 13.9109C3.58903 14.118 3.6569 14.1709 3.8991 14.2732C3.90747 14.2757 3.94067 14.2857 4.02117 14.3074C4.10707 14.3305 4.24508 14.3665 4.3825 14.4089C4.64398 14.4897 5.06481 14.6395 5.41082 14.9548C5.56338 15.094 5.75433 15.35 5.76531 15.7175C5.77497 16.0445 5.6325 16.2762 5.57195 16.365C5.5224 16.4376 5.45442 16.529 5.41765 16.5798C5.37166 16.6435 5.33754 16.6931 5.31121 16.7361C5.30737 16.7423 5.30354 16.7484 5.30047 16.7537C5.31667 17.1176 5.36447 17.4563 5.47625 17.7068C5.57297 17.9235 5.64396 18.075 5.70476 18.1853C5.73228 18.2352 5.75117 18.2635 5.76043 18.2771C5.89127 18.3898 6.12817 18.5654 6.42058 18.697C6.50348 18.7343 6.58514 18.7652 6.69695 18.7908C6.81395 18.8175 6.98596 18.8434 7.24578 18.8513C7.64202 18.8633 8.12028 18.8611 8.32781 18.8376C8.35843 18.8341 8.38719 18.8253 8.54461 18.7585C8.59861 18.7356 8.74369 18.6718 8.90398 18.6374C9.0622 18.6036 9.32249 18.5781 9.60418 18.6892L9.72625 18.7458L9.82781 18.8083C10.0489 18.9617 10.1515 19.1622 10.194 19.2673C10.2405 19.3825 10.2561 19.4834 10.2604 19.5105C10.2636 19.5304 10.2661 19.548 10.2673 19.5574C10.2678 19.5617 10.2679 19.5661 10.2682 19.5691L10.3249 19.865C10.3749 20.1007 10.4144 20.1743 10.5329 20.2576C10.8195 20.4589 11.0983 20.5828 11.3512 20.6277C11.5061 20.6551 11.6873 20.6769 12.1364 20.6853C12.6008 20.694 13.275 20.6881 13.6491 20.6687C13.7434 20.6638 13.8156 20.6586 13.8698 20.654C13.8816 20.653 13.8925 20.6511 13.902 20.6501C13.9473 20.6222 13.9751 20.6026 14.0046 20.573C14.0462 20.531 14.1279 20.4314 14.2126 20.2029C14.2138 20.1937 14.216 20.1758 14.2175 20.1482C14.2219 20.0648 14.2195 20.0004 14.2204 19.8503C14.2211 19.7372 14.2236 19.5384 14.2673 19.3376C14.3119 19.1328 14.4281 18.7906 14.7634 18.5408L14.8659 18.4734C15.1042 18.3366 15.3303 18.3351 15.4089 18.3367C15.5102 18.3387 15.5975 18.3546 15.6218 18.3591C15.7362 18.3802 15.7009 18.3772 15.8112 18.3962C15.9453 18.4193 16.2019 18.4543 16.6569 18.4626C17.0242 18.4694 17.3252 18.469 17.5544 18.4587C17.6686 18.4536 17.7535 18.4468 17.8112 18.4392C17.8279 18.437 17.8402 18.4338 17.8483 18.4324C17.8862 18.4172 17.9172 18.4016 17.947 18.3787C17.9811 18.3523 18.0405 18.2981 18.1081 18.1833C18.1637 18.0886 18.2923 17.7833 18.4137 17.2761C18.4566 17.0971 18.4797 16.976 18.4958 16.6404C18.5144 16.2516 18.5277 15.697 18.5173 15.4138C18.5151 15.3555 18.505 15.3191 18.4694 15.1912C18.4619 15.1643 18.4077 14.9869 18.4069 14.7937C18.4065 14.6769 18.4235 14.4985 18.5163 14.3074C18.6156 14.103 18.7682 13.9512 18.9343 13.8523C18.9919 13.818 19.0574 13.7886 19.0612 13.7869C19.0893 13.7736 19.1058 13.7657 19.1374 13.7507C19.1916 13.725 19.2632 13.6907 19.3483 13.6453C19.52 13.5535 19.7524 13.4159 20.0095 13.2224C20.174 13.0986 20.2618 13.0258 20.3132 12.9773C20.3192 12.9715 20.3239 12.9656 20.3278 12.9617C20.376 12.8633 20.4219 12.7419 20.443 12.574C20.4729 12.3376 20.5004 12.1743 20.5114 11.9871C20.5217 11.8108 20.5093 11.6969 20.4889 11.6247C20.4085 11.3398 20.3172 11.0834 20.2321 10.8904C20.1895 10.7937 20.1537 10.7241 20.1276 10.6804C20.1242 10.6747 20.1214 10.6698 20.1188 10.6658C19.8694 10.4336 19.6263 10.2361 19.4177 10.1218C19.4161 10.121 19.41 10.1178 19.3981 10.113C19.3836 10.1072 19.3625 10.1003 19.3346 10.0915C19.2563 10.0669 19.2246 10.0603 19.0993 10.0242C19.0155 10 18.8505 9.95194 18.6901 9.86498C18.5251 9.77537 18.2361 9.57519 18.1052 9.18627C17.9929 8.8527 18.081 8.56221 18.1003 8.49584C18.1303 8.39269 18.172 8.29196 18.196 8.2351C18.2543 8.09648 18.3159 7.95978 18.3854 7.76049C18.5058 7.41553 18.596 7.15149 18.6559 6.94311C18.7214 6.71544 18.721 6.6496 18.7214 6.66967C18.7166 6.42872 18.706 6.25092 18.6852 6.11986C18.6758 6.06029 18.6653 6.02645 18.6608 6.01147C18.4563 5.71888 18.3362 5.55396 18.2526 5.45483C18.2471 5.44824 18.2416 5.44253 18.237 5.43725C18.0776 5.37761 17.721 5.26939 17.0846 5.2185C16.5727 5.17759 15.8866 5.1807 15.4411 5.21557C15.2304 5.23208 15.0731 5.25588 14.946 5.27611C14.8888 5.28522 14.8101 5.29769 14.7468 5.30639C14.6863 5.31469 14.5782 5.32847 14.4587 5.32494C14.3291 5.32106 14.164 5.29686 13.9928 5.2185C13.8122 5.13565 13.6715 5.01349 13.569 4.87963C13.4758 4.75787 13.4269 4.64236 13.405 4.58666C13.4014 4.57773 13.3845 4.53089 13.3757 4.50658C13.327 4.37524 13.3148 4.3458 13.3122 4.34057C13.3097 4.33725 13.2524 4.2607 12.988 4.09252C12.7803 3.96047 12.6372 3.87258 12.5387 3.81811C12.5378 3.8176 12.5367 3.81669 12.5358 3.81615C12.2908 3.79866 12.0665 3.78565 11.8727 3.78686C11.7603 3.78758 11.6761 3.79276 11.6178 3.80053ZM11.2673 8.03979C11.8931 7.96017 12.5462 7.91323 13.0954 8.15307C13.3323 8.25657 13.8404 8.46588 14.2136 8.87572C14.3794 9.05794 14.511 9.22381 14.612 9.37182C14.7626 9.45701 14.9123 9.56006 15.0602 9.69897C15.259 9.88572 15.4227 10.1048 15.5807 10.3445L15.612 10.3913L15.6374 10.4421C15.8382 10.837 16.0272 11.3654 16.0788 12.0886C16.1053 12.4613 16.1056 12.9126 16.0759 13.2703C16.0459 13.6303 15.9931 13.9563 15.82 14.3386C15.7001 14.6033 15.5825 14.8527 15.4723 15.0544C15.4171 15.1555 15.354 15.2631 15.2839 15.3621C15.2221 15.4491 15.1129 15.5909 14.9528 15.7087C14.8247 15.803 14.6444 15.9201 14.3942 16.0066C14.1506 16.0907 13.8848 16.1307 13.5886 16.1355C13.234 16.1412 12.6654 16.1265 12.1725 16.072C11.6666 16.016 11.2631 15.9222 10.9684 15.8376C10.6819 15.7553 10.4583 15.6769 10.1999 15.5388C9.80268 15.3266 9.20577 14.9799 8.72234 14.4529C8.45256 14.1588 8.13792 13.7964 7.94109 13.3621C7.83115 13.1194 7.71233 12.8245 7.65984 12.49C7.62961 12.2973 7.53131 11.759 7.6325 11.1111C7.69737 10.6963 7.81605 10.3249 8.07195 9.91967C8.18713 9.73733 8.30153 9.55957 8.40691 9.4099C8.49881 9.27942 8.63515 9.09534 8.79558 8.95483C8.86652 8.89277 8.98643 8.78854 9.17058 8.68432C9.34344 8.58659 9.54319 8.50443 9.78582 8.42748C10.0575 8.34132 10.7404 8.10693 11.2673 8.03979ZM12.1618 9.97631C12.0239 9.97297 11.8218 9.98482 11.5202 10.0232C11.2235 10.061 10.7746 10.2129 10.3903 10.3347C10.2319 10.385 10.1703 10.4168 10.155 10.4255C10.151 10.4278 10.1488 10.4289 10.1481 10.4294C10.1459 10.4312 10.1412 10.4352 10.1286 10.446C10.1272 10.4477 10.1254 10.4498 10.1237 10.4519C10.1057 10.4739 10.0792 10.5094 10.0427 10.5613C9.96827 10.6669 9.87578 10.8085 9.76238 10.988C9.67506 11.1264 9.63877 11.2297 9.60906 11.4197C9.56153 11.724 9.60392 11.9796 9.63543 12.1804C9.64547 12.2441 9.67517 12.3422 9.76336 12.5369C9.81641 12.6537 9.93209 12.8126 10.197 13.1013C10.4428 13.3692 10.7903 13.587 11.1423 13.7751C11.2307 13.8224 11.3081 13.8548 11.5202 13.9158C11.7243 13.9743 12.0159 14.0431 12.3923 14.0847C12.782 14.1278 13.2639 14.1412 13.5563 14.1365C13.6237 14.1354 13.6699 14.1294 13.6989 14.1247C13.704 14.1157 13.7115 14.1062 13.7175 14.0955C13.789 13.9644 13.88 13.7735 13.9977 13.5134C14.0403 13.4193 14.0627 13.3441 14.0827 13.1042C14.1029 12.8617 14.1038 12.5147 14.0837 12.2312C14.0557 11.8382 13.9633 11.5789 13.8766 11.3972C13.7755 11.2481 13.7218 11.1859 13.6911 11.157C13.6814 11.1479 13.6708 11.1389 13.654 11.1277C13.5933 11.1118 13.5344 11.0908 13.4782 11.0642C13.1338 10.9468 12.8925 10.6589 12.822 10.324C12.7961 10.2937 12.7683 10.259 12.735 10.2224C12.7271 10.2137 12.6964 10.1842 12.6159 10.1384C12.534 10.0919 12.4376 10.0485 12.3014 9.98901C12.2896 9.98626 12.2481 9.97844 12.1618 9.97631Z" fill="black"/>
</svg>
