<svg width="24" height="24" viewBox="0 0 24 24" fill="none" xmlns="http://www.w3.org/2000/svg">
<path d="M12.4618 0.704049C12.7868 0.756231 13.0261 0.924357 13.1747 1.06245C13.3413 1.21741 13.4585 1.39405 13.5341 1.51948C13.6124 1.64944 13.6801 1.78305 13.7255 1.87299C13.7811 1.98335 13.8024 2.0238 13.8143 2.04292C13.9044 2.18677 13.9805 2.33998 14.036 2.45112C14.098 2.57503 14.147 2.67381 14.204 2.77241C14.4333 3.16922 14.6473 3.74199 14.9169 4.52143C14.9257 4.54695 14.9329 4.57313 14.9413 4.59858C15.0885 4.52354 15.2299 4.46954 15.3417 4.43159C15.5292 4.36796 15.7657 4.30316 15.912 4.25971C16.1287 4.19538 16.3229 4.14023 16.4706 4.0976C16.5456 4.07596 16.6077 4.05741 16.6561 4.04292C16.6799 4.03582 16.6993 4.02987 16.7138 4.02534C16.7265 4.02135 16.7331 4.01989 16.7343 4.01948C16.8244 3.98786 16.9824 3.94324 17.1249 3.90229C17.2888 3.85519 17.4972 3.79419 17.7411 3.71967C18.2403 3.56724 18.8439 3.54557 19.4276 3.59663C19.9678 3.64411 20.2638 4.01921 20.3886 4.27534C20.5003 4.50478 20.5371 4.74329 20.5536 4.89546C20.5875 5.20787 20.5761 5.6076 20.5741 5.88471C20.5712 6.28016 20.5121 6.56816 20.4384 6.87202C20.3604 7.19322 20.2421 7.58196 20.0351 8.06049C19.936 8.28945 19.8163 8.53671 19.6942 8.77339C20.2704 8.8875 20.7386 9.09373 21.0644 9.23921C21.3859 9.38294 21.6495 9.62864 21.8163 9.79975C22.0027 9.99099 22.1707 10.1979 22.2948 10.3583C22.7364 10.9293 22.8262 11.4892 22.8046 11.9892C22.7959 12.1885 22.7341 12.344 22.6942 12.4296C22.6512 12.522 22.6023 12.5994 22.5644 12.6542C22.49 12.7618 22.4007 12.8663 22.328 12.9492C22.1514 13.1504 22.0119 13.2952 21.8046 13.54C21.6236 13.7537 21.4352 13.9409 21.2147 14.0966C20.9884 14.2564 20.7664 14.355 20.5497 14.4306C20.3326 14.5064 20.0124 14.5931 19.7177 14.6699C19.9422 15.0467 20.1921 15.4819 20.37 15.8271C20.6872 16.4424 20.7831 16.8033 20.8593 17.2812C20.925 17.6938 20.9832 18.2154 21.0185 18.6445C21.054 19.0777 21.066 19.4199 21.0663 19.6464C21.0664 19.6954 21.0662 19.7782 21.0585 19.8623C21.0517 19.9356 21.0324 20.1074 20.9413 20.2919C20.8279 20.5212 20.6267 20.7241 20.3476 20.8271C20.1186 20.9114 19.9144 20.8983 19.8202 20.8886C19.6352 20.8694 19.4377 20.8074 19.3163 20.7695C19.1476 20.7168 18.9806 20.6613 18.7118 20.5791C18.229 20.4312 17.3517 20.18 16.7841 20.0019C16.0991 19.787 15.6852 19.632 15.4169 19.5097C15.4055 19.5045 15.3947 19.4983 15.3837 19.4931H15.3817C15.2891 19.5942 15.1729 19.7309 15.0429 19.8974C14.8277 20.1728 14.3686 20.6635 13.9218 21.164C13.795 21.3061 13.5175 21.6877 13.0839 21.9804C12.7362 22.2151 12.4095 22.4208 12.1366 22.5576C12.0049 22.6235 11.8361 22.6992 11.6561 22.7421C11.5394 22.77 11.0897 22.8699 10.6767 22.5644C10.4419 22.3905 10.0392 22.0918 9.78505 21.7499C9.64724 21.5644 9.49068 21.3478 9.22451 20.8925C9.05318 20.5995 8.7626 20.0996 8.60146 19.7832C8.48786 19.56 8.41684 19.3943 8.37001 19.2714C8.23872 19.3587 8.09571 19.4513 7.9374 19.5429C7.52247 19.7831 6.9712 20.0725 6.46376 20.2294C6.10673 20.3398 5.77661 20.4279 5.48329 20.4833C5.20328 20.5363 4.8886 20.5729 4.58779 20.5341C4.25471 20.4911 4.03071 20.3073 3.9081 20.1669C3.79054 20.0322 3.72434 19.8926 3.6874 19.8007C3.61318 19.616 3.57728 19.4187 3.55654 19.2597C3.513 18.9257 3.50522 18.5019 3.52431 18.0429C3.53962 17.6751 3.54425 17.4296 3.56923 17.2587C3.59895 17.056 3.72648 16.4032 4.12001 15.4658C4.15919 15.3725 4.19888 15.2847 4.23525 15.2021C4.16609 15.1628 4.09153 15.1211 4.01357 15.0742C3.64297 14.8512 3.1089 14.509 2.70986 14.2324C2.299 13.9475 2.03662 13.7366 1.77822 13.5185C1.56733 13.3405 1.2428 13.0799 0.975482 12.7695C0.791472 12.5557 0.601601 12.3398 0.471576 12.1728C0.408131 12.0913 0.324267 11.9779 0.257709 11.8544C0.224462 11.7927 0.17585 11.6922 0.143451 11.5664C0.112894 11.4473 0.0729964 11.2129 0.165912 10.9443L0.229389 10.7919C0.303395 10.6373 0.405221 10.4797 0.495014 10.3505C0.636574 10.147 0.827184 9.90509 1.0624 9.65522C1.15682 9.55486 1.35718 9.32117 1.61611 9.11128C1.89649 8.88401 2.24243 8.67882 2.71767 8.49116C3.05289 8.35881 3.5594 8.17788 3.87978 8.09272C4.21331 8.00409 4.38336 7.96791 4.73622 7.93256C4.67366 7.80511 4.61057 7.66851 4.5497 7.52241C4.39089 7.14113 4.051 6.3731 3.92568 5.81342C3.77322 5.13209 3.73386 4.67892 3.78896 4.33686L3.829 4.1601C3.85955 4.0602 3.92641 3.89133 4.07704 3.73139C4.333 3.45969 4.64029 3.3986 4.84853 3.39253L5.01747 3.39839L5.51357 3.46479C5.57826 3.475 5.63703 3.48435 5.67861 3.49116C5.70027 3.49471 5.71727 3.49792 5.73037 3.49995C5.74255 3.50184 5.74795 3.50287 5.74794 3.50288C5.74935 3.50294 5.75203 3.50258 5.75478 3.50288C5.76357 3.50383 5.77294 3.50519 5.78798 3.50678C5.81628 3.50978 5.85434 3.51408 5.89931 3.51948C5.99053 3.53044 6.10953 3.54662 6.25087 3.57124C6.53362 3.62049 6.90481 3.70343 7.33486 3.84565C7.7834 3.994 8.29098 4.16976 8.67665 4.48432C8.72913 4.34531 8.78504 4.20505 8.8456 4.0644C9.18237 3.28233 9.54711 2.70549 9.77138 2.39253C10.047 2.00799 10.3182 1.69998 10.5321 1.50581C10.8539 1.21387 11.2006 1.02075 11.4726 0.900338C11.6102 0.839416 11.739 0.79177 11.8495 0.758737C11.904 0.74246 11.9621 0.727638 12.0194 0.715768C12.0468 0.710097 12.1719 0.682707 12.3173 0.689401L12.4618 0.704049ZM11.8759 2.98725C11.7949 3.06086 11.6162 3.25226 11.3974 3.55756C11.2452 3.76983 10.9552 4.22215 10.6825 4.85542C10.5046 5.2686 10.4195 5.53509 10.3856 5.75581C10.3279 6.13357 10.2771 6.56411 10.2694 6.70405C10.2397 7.25543 9.76805 7.6789 9.21669 7.64936C8.99473 7.6374 8.79396 7.55333 8.63466 7.42182C8.51513 7.348 8.40866 7.2488 8.32607 7.12397C8.18917 6.91685 7.75508 6.34566 7.41005 6.03022C7.40661 6.02741 7.36922 5.99802 7.25673 5.94721C7.13211 5.89099 6.95974 5.82771 6.70693 5.74409C6.39168 5.63984 6.12581 5.57983 5.92177 5.54389C6.02377 5.87946 6.22076 6.33455 6.3954 6.75385C6.61627 7.28402 6.85226 7.62437 7.09365 7.95503C7.1261 7.99947 7.18171 8.0748 7.21767 8.12983C7.23683 8.15918 7.28628 8.23697 7.32704 8.33979C7.37685 8.46565 7.4193 8.64273 7.39345 8.85151C7.33778 9.2994 7.02126 9.52043 6.95693 9.5644C6.85286 9.63548 6.75732 9.67316 6.71572 9.68842C6.62367 9.72217 6.53591 9.74097 6.48622 9.75092C6.37445 9.77329 6.23825 9.79166 6.10439 9.80756C5.82887 9.84029 5.44807 9.87466 5.02431 9.91303C4.72157 9.94045 4.6646 9.95426 4.39345 10.0263C4.18282 10.0823 3.75906 10.2303 3.45204 10.3515C3.13833 10.4754 2.97509 10.5828 2.8749 10.664C2.75365 10.7623 2.70108 10.8323 2.51845 11.0263C2.44237 11.1071 2.37443 11.1863 2.31435 11.2597C2.36782 11.3218 2.42604 11.3892 2.49111 11.4648C2.62847 11.6243 2.79919 11.7631 3.06826 11.9902C3.28969 12.1771 3.50152 12.3475 3.84951 12.5888C4.20986 12.8386 4.70764 13.1575 5.04482 13.3603C5.375 13.5589 5.55283 13.6401 5.63954 13.6748C5.68046 13.6911 5.70942 13.7014 5.74013 13.7109L5.96572 13.7929L6.05165 13.8369C6.45649 14.0688 6.53584 14.4746 6.54872 14.623C6.56275 14.7863 6.53305 14.9151 6.52333 14.956C6.49969 15.0554 6.46423 15.1396 6.45107 15.1708C6.41798 15.2494 6.36982 15.3505 6.329 15.4355C6.23803 15.6249 6.11073 15.8892 5.96376 16.2392C5.63717 17.0172 5.55479 17.5075 5.54872 17.5488C5.54826 17.5528 5.54499 17.5801 5.54091 17.6689C5.5362 17.7717 5.53165 17.9036 5.52236 18.1269C5.51798 18.2323 5.51545 18.3306 5.51454 18.4208C5.6223 18.3915 5.7423 18.3587 5.87294 18.3183C6.15796 18.2301 6.55074 18.0342 6.93544 17.8115C7.25614 17.6258 7.48099 17.4616 7.62783 17.3408C7.77489 17.2197 7.83813 17.1474 7.84072 17.1445C7.86296 17.1173 8.07166 16.8286 8.40322 16.6718C8.63571 16.562 8.96687 16.5005 9.31337 16.6406C9.62361 16.7661 9.79472 16.9938 9.87587 17.1289C10.0259 17.3788 10.0784 17.6634 10.1015 17.7968C10.1296 17.9596 10.1499 18.1459 10.163 18.2519C10.1728 18.3316 10.1794 18.3724 10.1815 18.3867L10.1727 18.3662C10.1861 18.4047 10.2049 18.4617 10.2108 18.4794C10.22 18.5071 10.2287 18.5335 10.2401 18.5634C10.263 18.6231 10.304 18.7193 10.3837 18.8759C10.513 19.1298 10.7708 19.5753 10.9511 19.8837C11.1721 20.2618 11.2862 20.4161 11.3905 20.5566C11.4055 20.5766 11.4324 20.6032 11.4696 20.6376C11.6016 20.5583 11.7669 20.4557 11.9647 20.3222C12.0315 20.2771 12.0814 20.2317 12.1415 20.166C12.1756 20.1286 12.2108 20.0872 12.2597 20.0292C12.3053 19.9751 12.3643 19.9051 12.4296 19.832C12.9507 19.2483 13.305 18.8739 13.4667 18.6669C13.7246 18.3367 14.0375 17.9742 14.3124 17.7539L14.3222 17.747L14.3319 17.7392C14.4017 17.686 14.5139 17.598 14.6054 17.5341L14.6435 17.5068L14.6845 17.4843C14.8293 17.4022 14.9643 17.3626 15.0311 17.3437L15.1308 17.3212C15.3657 17.2798 15.5993 17.3251 15.7958 17.4365C15.8435 17.4548 15.8835 17.4725 15.914 17.4882L16.0966 17.6015L16.1474 17.6396C16.1511 17.6419 16.1781 17.658 16.247 17.6894C16.4041 17.761 16.7264 17.8878 17.3827 18.0937C17.8832 18.2507 18.4783 18.422 19.0009 18.5781C18.969 18.2407 18.9297 17.8782 18.8847 17.5957C18.8396 17.3131 18.806 17.1569 18.5927 16.7431C18.3454 16.2634 17.9151 15.5385 17.6776 15.165C17.6181 15.0715 17.5623 14.989 17.5087 14.9101C17.4612 14.8403 17.3977 14.7487 17.3485 14.6679C17.3237 14.6272 17.1937 14.4236 17.1561 14.166C17.1329 14.0059 17.1295 13.7201 17.3144 13.4374C17.4997 13.1545 17.7642 13.0419 17.9227 12.999L18.1503 12.956C18.2043 12.9486 18.2536 12.9426 18.3202 12.9326C18.447 12.9135 18.6301 12.8815 18.8798 12.8212C19.2322 12.7362 19.6769 12.6174 19.8905 12.5429C19.9895 12.5083 20.0305 12.4846 20.0614 12.4628C20.0983 12.4368 20.1635 12.3824 20.2782 12.247C20.3913 12.1135 20.4984 11.9932 20.5917 11.8896C20.6657 11.8074 20.7243 11.7417 20.7763 11.6835C20.7641 11.658 20.7454 11.6241 20.7128 11.582C20.6086 11.4472 20.4933 11.3078 20.3837 11.1953C20.3296 11.1398 20.2854 11.1001 20.2528 11.0742C20.2426 11.066 20.235 11.0608 20.2304 11.0576C19.8449 10.8859 19.4867 10.7398 19.0683 10.6992C18.7023 10.6637 18.4063 10.6688 18.0731 10.6464C18.0172 10.6427 17.9163 10.6349 17.8144 10.6132C17.7641 10.6025 17.6605 10.5783 17.5448 10.5205C17.4319 10.4639 17.2101 10.3268 17.0751 10.0429C16.9293 9.73618 16.9734 9.44882 17.0292 9.2812C17.0789 9.13218 17.1523 9.02822 17.1806 8.98921C17.2145 8.94246 17.2471 8.90501 17.2616 8.88862C17.2758 8.87252 17.295 8.85182 17.2997 8.84663C17.3461 8.79547 17.4457 8.68462 17.6132 8.40717C17.7951 8.10583 18.036 7.64576 18.2001 7.26655C18.358 6.90176 18.4413 6.6217 18.495 6.40034C18.5529 6.16185 18.5728 6.04385 18.5741 5.87006C18.5749 5.76742 18.5744 5.6754 18.5751 5.58881C18.4702 5.59998 18.3864 5.61437 18.3261 5.63276C18.0656 5.71235 17.8441 5.77633 17.6776 5.82417C17.5931 5.84845 17.5262 5.86728 17.4735 5.88276C17.42 5.89848 17.399 5.90533 17.3964 5.9062C17.3067 5.93767 17.1611 5.97932 17.0253 6.0185C16.873 6.06245 16.6889 6.11607 16.4813 6.17768C16.2584 6.24387 16.1255 6.27757 15.9852 6.32514C15.9037 6.3528 15.8638 6.37106 15.8515 6.3769C15.7151 6.48767 15.4227 6.83877 15.1561 7.23237C15.1392 7.25746 15.0899 7.33001 15.0116 7.40522C14.9677 7.44732 14.7106 7.69642 14.2899 7.68745C13.7728 7.6761 13.5131 7.30977 13.4393 7.18159C13.3628 7.04829 13.3354 6.92775 13.328 6.89546C13.3097 6.8157 13.3028 6.73848 13.3017 6.72749C13.2967 6.68001 13.2982 6.69233 13.2938 6.65131C13.2532 6.27258 13.2237 5.74273 13.0272 5.17475C12.745 4.35888 12.5891 3.97398 12.4726 3.77241C12.3799 3.61205 12.3031 3.45787 12.247 3.34565C12.1845 3.22072 12.1499 3.15371 12.119 3.10444C12.079 3.04053 12.0447 2.9765 12.0175 2.92475C12.0114 2.91317 12.005 2.9013 11.9989 2.8896C11.9566 2.9196 11.9145 2.95217 11.8759 2.98725ZM11.3817 8.96479C11.6708 8.88286 12.3256 8.70432 13.0165 8.85639C13.5171 8.96668 13.9354 9.18286 14.1015 9.28901C14.4294 9.49888 14.5925 9.86874 14.5565 10.2314L14.6913 10.4238L14.7069 10.4482L14.7216 10.4746C14.8049 10.6223 15.009 10.946 15.1181 11.2314C15.2599 11.6028 15.3195 12.0583 15.12 12.5595C15.0192 12.8126 14.8344 13.1759 14.6054 13.5097C14.4895 13.6785 14.3473 13.8612 14.1825 14.0244C14.0262 14.179 13.7974 14.3692 13.4999 14.4794C13.0997 14.6276 12.3814 14.8499 11.5595 14.9414C11.3162 14.9684 11.107 14.9899 10.9442 14.9999C10.8627 15.005 10.7701 15.0082 10.6796 15.0048C10.604 15.002 10.451 14.9933 10.2851 14.9345C10.1391 14.8828 9.52163 14.7058 9.18837 14.083C9.09804 13.914 8.92948 13.5996 8.86318 13.1708C8.79568 12.7335 8.84381 12.2541 9.03408 11.7128C9.15601 11.3661 9.38779 10.7412 9.6249 10.3623C9.99678 9.76825 10.5235 9.2082 11.3817 8.96479ZM12.3007 10.8066C12.177 10.8223 12.0531 10.854 11.9276 10.8896C11.7071 10.9521 11.5339 11.0825 11.3202 11.4238C11.2199 11.5843 11.0542 11.9964 10.9208 12.3759C10.8204 12.6614 10.8306 12.8067 10.8397 12.8662C10.846 12.9065 10.8574 12.9429 10.8817 12.997C10.9855 12.9888 11.1319 12.9761 11.3388 12.9531C11.9191 12.8885 12.4464 12.7309 12.7558 12.6201C12.761 12.6153 12.7687 12.61 12.7763 12.6025C12.8241 12.5551 12.887 12.4798 12.9569 12.3779C13.073 12.2087 13.1667 12.0223 13.2245 11.8955C13.2112 11.8683 13.1942 11.8307 13.1669 11.7822C13.1426 11.7391 13.1163 11.6932 13.0839 11.6376C13.0596 11.596 13.0321 11.5485 13.0038 11.499C12.9742 11.4536 12.955 11.4295 12.9452 11.4179L12.8642 11.3554C12.694 11.2085 12.5847 11.0129 12.5409 10.8046C12.4789 10.7969 12.3994 10.7941 12.3007 10.8066Z" fill="black"/>
</svg>
