<svg width="24" height="24" viewBox="0 0 24 24" fill="none" xmlns="http://www.w3.org/2000/svg">
<path d="M8.81331 1.58795C9.29968 1.58192 9.7535 1.58338 10.1453 1.61237C10.5221 1.64026 10.9351 1.69849 11.2957 1.85749C11.3311 1.8731 11.3707 1.88871 11.4364 1.91315C11.4929 1.93418 11.5841 1.96708 11.6746 2.0069C11.8437 2.08123 12.0724 2.20298 12.2782 2.42389L12.3641 2.52448L12.6493 2.90631C12.6787 2.94759 12.7069 2.99046 12.7362 3.03229C12.9904 2.69071 13.2793 2.3599 13.536 2.14655L13.6287 2.0694L13.7381 2.01667C13.9806 1.89872 14.4388 1.65458 15.283 1.6446C15.8558 1.63784 16.3499 1.63896 16.7254 1.64948C16.912 1.65471 17.0795 1.66297 17.2166 1.67389C17.2879 1.67957 17.4182 1.68961 17.5516 1.71881L17.6844 1.75495L17.8094 1.79889C17.9777 1.86594 18.2667 2.01561 18.4618 2.32624L18.5125 2.4151L18.6112 2.61139C18.6554 2.70827 18.7057 2.83439 18.745 2.98249C18.8217 3.27248 18.8527 3.61133 18.8377 4.03913C18.8246 4.41349 18.7575 4.9886 18.4852 5.83893C18.3976 6.11249 18.2875 6.39918 18.1473 6.71491C18.7061 6.57777 19.1391 6.61863 19.4793 6.71881C20.0832 6.89672 20.4656 7.33087 20.6053 7.49225C20.7635 7.67496 20.8575 7.88084 20.9168 8.03229C20.9805 8.19484 21.0368 8.37977 21.0897 8.57233C21.2663 9.21533 21.2125 9.98326 21.158 10.5714C21.1046 11.1486 20.922 11.6009 20.6864 11.9503C21.1067 12.1006 21.4345 12.279 21.6952 12.4893C22.0578 12.782 22.2304 13.1005 22.2879 13.1915C22.712 13.8617 22.6955 14.6305 22.6815 15.0342C22.6713 15.3263 22.5679 15.5739 22.4832 15.7393C22.3924 15.9166 22.2771 16.0854 22.1629 16.2364C21.9353 16.5374 21.6407 16.8582 21.3514 17.1602C21.0504 17.4744 20.6365 17.6489 20.3182 17.7569C19.9689 17.8754 19.5666 17.9673 19.1619 18.044C18.9111 18.0915 18.6841 18.0557 18.5438 18.0255C18.3907 17.9924 18.2392 17.9422 18.1063 17.8936C18.0595 17.8765 18.011 17.8551 17.9598 17.835C18.0852 18.1767 18.1548 18.4724 18.1942 18.7188C18.3162 19.4827 18.0924 20.0751 17.8807 20.5665C17.6814 21.0291 17.3429 21.3335 17.0457 21.5323C16.7542 21.7272 16.4428 21.8594 16.2323 21.9464C16.0057 22.0399 15.7515 22.062 15.62 22.0723C15.45 22.0857 15.2501 22.0916 15.0506 22.0967C14.6524 22.107 14.2902 21.9471 14.0682 21.8389C13.8168 21.7165 13.534 21.5492 13.2625 21.3897C12.9897 21.2294 12.7663 21.0697 12.578 20.9151C12.4842 21.0624 12.3796 21.2191 12.2684 21.3507C11.9626 21.7123 11.6294 21.9582 11.2616 22.1163C10.9148 22.2652 10.5794 22.3152 10.3426 22.3487C9.2523 22.503 8.20488 21.9868 7.85628 21.8194C7.36754 21.5845 7.02156 21.1653 6.80257 20.8448C6.56853 20.5022 6.39219 20.1406 6.27914 19.8751C6.04856 19.3332 6.07621 18.7769 6.14046 18.3692C6.15843 18.2553 6.18193 18.1427 6.20687 18.0342C5.95388 18.1272 5.62352 18.2065 5.27035 18.2354C4.79102 18.2745 4.14195 18.2314 3.53792 17.8799C2.91676 17.5183 2.20282 17.0783 1.90218 16.2579C1.82188 16.0387 1.72983 15.7764 1.67953 15.5118C1.62729 15.2367 1.60623 14.8925 1.7264 14.5294C1.88301 14.0564 2.13251 13.5235 2.54476 12.9913C2.82216 12.6331 3.07807 12.3016 3.28499 12.0186C3.28744 12.0152 3.28939 12.0112 3.29183 12.0079C2.90648 11.67 2.55811 11.3434 2.3016 11.0264C2.03864 10.7015 1.73643 10.2255 1.76351 9.63483L1.79476 9.15045C1.85399 8.57947 2.03435 7.78922 2.68343 7.16413C2.85147 7.00229 3.10072 6.75354 3.42757 6.57038C3.78823 6.36834 4.18498 6.27171 4.65121 6.25788C4.94953 6.24906 5.24836 6.24036 5.5096 6.24616C5.63048 6.24885 5.76238 6.25435 5.8973 6.26862C5.82303 6.05998 5.75671 5.86751 5.70101 5.69538C5.6032 5.39304 5.49171 5.02078 5.48226 4.71295C5.48098 4.67236 5.46481 4.38684 5.46371 4.26569C5.46213 4.08622 5.4724 3.82542 5.56332 3.55182C5.74089 3.01781 6.1288 2.37595 6.77035 2.02448C7.11084 1.83805 7.85869 1.59981 8.81331 1.58795ZM11.661 13.9258C11.1801 14.3501 10.7017 14.7826 10.3172 15.1524C9.47347 15.964 9.11803 16.4303 8.85726 16.8467C8.55638 17.3274 8.38029 17.6944 8.3182 17.9014C8.23255 18.1873 8.15502 18.4339 8.11605 18.6807C8.07672 18.9303 8.10151 19.0493 8.11898 19.0909C8.19943 19.2799 8.31703 19.5154 8.45394 19.7159C8.52162 19.8149 8.58538 19.8924 8.64046 19.9473C8.69093 19.9976 8.71933 20.0147 8.72249 20.0167C8.90568 20.1047 9.13689 20.2115 9.39339 20.2882C9.65575 20.3665 9.8842 20.3944 10.0623 20.3692C10.2906 20.3369 10.3921 20.3129 10.4725 20.2784C10.5322 20.2527 10.6187 20.2043 10.741 20.0596C10.8066 19.9819 10.891 19.8464 11.0477 19.5889C11.1845 19.3641 11.3671 19.0651 11.5828 18.7891L11.6932 18.6612C11.7426 18.611 11.8046 18.5559 11.8787 18.5059C12.049 18.3914 12.3689 18.2521 12.7567 18.3624C13.0752 18.4531 13.2504 18.6683 13.286 18.711C13.3127 18.7431 13.3347 18.7726 13.3397 18.7794L13.3368 18.7764C13.3973 18.8534 13.484 18.9774 13.5096 19.0128C13.553 19.0726 13.595 19.1284 13.6483 19.1866C13.7511 19.2988 13.9306 19.4626 14.2752 19.6651C14.5712 19.839 14.7785 19.9604 14.9442 20.0411C15.0023 20.0694 15.0435 20.0842 15.0692 20.0938C15.2368 20.0892 15.3653 20.0858 15.4627 20.0782C15.4899 20.076 15.5114 20.0731 15.5272 20.0714C15.703 19.9974 15.8341 19.9373 15.9344 19.8702C16.0134 19.8173 16.0384 19.7839 16.0438 19.7755C16.2244 19.3561 16.2475 19.2089 16.2196 19.0342C16.1828 18.8046 16.09 18.4234 15.784 17.8956C15.5703 17.5269 15.3333 17.144 15.0662 16.8477C14.3972 16.1056 14.0941 15.7993 13.7821 15.5684C13.4296 15.3077 12.7248 14.7972 12.158 14.3409C11.977 14.1951 11.8108 14.055 11.661 13.9258ZM5.46468 8.24518C5.26525 8.24076 5.02216 8.24769 4.71078 8.2569C4.50365 8.26302 4.43433 8.29914 4.40511 8.31549C4.34246 8.35066 4.27625 8.40608 4.07015 8.60456C3.85768 8.8092 3.79525 9.11224 3.76644 9.64362C3.7824 9.66967 3.81078 9.71019 3.85726 9.76764C4.01461 9.9621 4.28049 10.2184 4.6971 10.5801C4.73225 10.6106 4.76978 10.6368 4.82308 10.6671C4.86353 10.69 4.87207 10.6932 4.9305 10.7256L5.12484 10.8487L5.22445 10.9278C5.35468 11.0436 5.55339 11.2703 5.59847 11.6241C5.64591 11.9981 5.47793 12.2982 5.45785 12.338C5.32932 12.5944 5.11324 12.9066 4.89925 13.1993C4.67337 13.5082 4.4006 13.8611 4.12582 14.2159C3.88581 14.5258 3.7378 14.8335 3.64046 15.1143C3.64139 15.1207 3.64261 15.1285 3.64437 15.1378C3.66095 15.2251 3.70006 15.3509 3.78011 15.5694C3.78911 15.594 3.80897 15.6419 3.9139 15.7335C4.03533 15.8393 4.224 15.9653 4.54378 16.1514C4.66975 16.2247 4.86281 16.2612 5.10726 16.2413C5.35306 16.2212 5.52597 16.1546 5.53402 16.1514C5.63415 16.101 5.78873 15.9899 6.03011 15.796C6.23479 15.6315 6.52015 15.3918 6.78109 15.212C7.6917 14.5846 7.80441 14.5426 8.1805 14.2637C8.22249 14.2326 8.25806 14.1975 8.3182 14.127C8.3344 14.108 8.35137 14.0873 8.37191 14.0626C8.39126 14.0392 8.41582 14.0105 8.44027 13.9815C8.49051 13.922 8.55229 13.8495 8.62679 13.7735C8.76903 13.6284 8.86368 13.5155 8.95394 13.4073C9.03045 13.3156 9.16487 13.1483 9.33675 13.0089C9.4648 12.905 9.62645 12.8042 9.75472 12.7217C9.84888 12.6612 9.95947 12.5858 10.0975 12.4923C9.75832 12.165 9.28881 11.7052 8.9266 11.3223C8.47433 10.8443 8.18972 10.4914 7.85042 10.0089C7.69973 9.79452 7.53889 9.55465 7.37972 9.30768C7.29356 9.25124 7.21414 9.1815 7.14632 9.09674C7.15013 9.1015 7.15318 9.10596 7.15609 9.10944C7.1425 9.09502 7.11901 9.07104 7.0848 9.03717C7.01615 8.96923 6.90776 8.86617 6.75277 8.7276C6.52736 8.5261 6.17943 8.38785 5.77621 8.27155C5.77621 8.27155 5.76982 8.27005 5.75667 8.26764C5.74216 8.265 5.72082 8.26187 5.6932 8.25885C5.6366 8.25268 5.56184 8.24734 5.46468 8.24518ZM18.8299 8.62702C18.781 8.62737 18.6849 8.63505 18.5301 8.68268C17.4447 9.01675 17.3211 9.09756 17.2821 9.12311C17.0979 9.24367 16.8289 9.41946 16.2694 9.93952C15.9958 10.1938 15.774 10.4089 15.5086 10.6514C15.4616 10.6995 15.4171 10.7473 15.3719 10.7921C15.0389 11.1219 14.7538 11.3675 14.4881 11.5723C14.3583 11.6724 14.2477 11.7517 14.0575 11.9005C13.8569 12.0693 13.649 12.2465 13.4393 12.42C13.7354 12.5945 14.0746 12.8077 14.452 13.0733C15.2571 13.64 16.2172 14.4282 16.7371 14.8419C17.4322 15.3948 17.6549 15.5508 17.9881 15.6876C18.3485 15.8355 18.5866 15.9402 18.7928 16.0157C18.8429 16.034 18.8826 16.0441 18.911 16.0528C19.2234 15.9905 19.4802 15.9296 19.6756 15.8633C19.8624 15.8 19.9249 15.756 19.9256 15.7579C20.1995 15.4713 20.4188 15.2278 20.5682 15.0303C20.6251 14.9551 20.6608 14.8978 20.6834 14.8594C20.6859 14.7183 20.6837 14.5991 20.6688 14.4942C20.6507 14.3677 20.6213 14.2984 20.5975 14.2608C20.4929 14.0955 20.4942 14.0903 20.4393 14.046C20.3733 13.9927 20.182 13.8663 19.6893 13.7335C19.3563 13.6437 19.028 13.6074 18.6619 13.5606C18.4934 13.5391 18.2946 13.5119 18.1112 13.4708C17.9388 13.4321 17.6841 13.3615 17.4491 13.2032C17.3663 13.1474 17.1785 13.0036 17.0741 12.7335C16.9491 12.4101 17.014 12.0971 17.1356 11.8809C17.2365 11.7019 17.3669 11.6004 17.4217 11.5606C17.4869 11.5134 17.5447 11.4834 17.577 11.4678C17.6817 11.4174 17.7795 11.3943 17.786 11.3926C17.8371 11.3796 17.8994 11.3675 17.9295 11.3614C18.0132 11.3445 18.1094 11.3246 18.2176 11.2969C18.4574 11.2356 18.6452 11.1598 18.743 11.088C18.8801 10.9871 18.9339 10.9556 19.0028 10.8682C19.0569 10.7994 19.1412 10.663 19.1668 10.3868C19.2247 9.76179 19.2276 9.34513 19.161 9.1026C19.1141 8.93196 19.0798 8.82637 19.0545 8.76178C19.0534 8.75905 19.0516 8.75637 19.0506 8.75397C19.02 8.72096 18.9923 8.69323 18.9647 8.67096C18.9245 8.63868 18.9076 8.63464 18.9149 8.63678C18.8992 8.63216 18.8749 8.62672 18.8299 8.62702ZM8.83773 3.58795C8.50922 3.59206 8.23356 3.63571 8.03109 3.68463C7.81369 3.73719 7.71568 3.78693 7.73128 3.77838C7.67384 3.80986 7.54333 3.94562 7.46566 4.16901C7.46981 4.15281 7.46305 4.16847 7.46371 4.24713C7.4641 4.29193 7.46682 4.34387 7.47054 4.41413C7.47393 4.47806 7.47865 4.56527 7.48128 4.65143C7.48091 4.63311 7.49369 4.74013 7.60335 5.07917C7.70072 5.38014 7.84153 5.76897 8.01839 6.25006C8.16467 6.64796 8.33584 7.00029 8.59359 7.45612C8.84961 7.90885 9.1893 8.43622 9.48617 8.85846C9.77012 9.26232 9.99422 9.53985 10.3797 9.94733C10.781 10.3715 11.3421 10.9196 11.6678 11.2305C11.6767 11.239 11.6857 11.2469 11.6942 11.2549C11.8071 11.1595 11.9129 11.069 12.0106 10.9874C12.4002 10.6618 12.655 10.4566 12.8387 10.3135C13.2495 9.96647 13.6178 9.65261 13.8563 9.44538L14.1785 9.15241C14.4008 8.91719 14.6471 8.63048 14.9207 8.25788C15.2929 7.75102 15.7084 7.09266 16.0086 6.53815C16.3012 5.99773 16.4663 5.58726 16.5809 5.22956C16.7992 4.54778 16.8322 4.15355 16.8387 3.96881C16.8435 3.83212 16.8404 3.73038 16.8348 3.65631C16.7849 3.65426 16.7299 3.65019 16.6698 3.6485C16.331 3.639 15.8657 3.63702 15.3065 3.64362C15.0881 3.64622 14.9546 3.67644 14.8739 3.70124C14.824 3.71659 14.7858 3.73175 14.7401 3.75299C14.5452 3.94614 14.2337 4.34369 14.0262 4.69635C13.9647 4.80948 13.9468 4.85477 13.8895 5.02936C13.7171 5.5539 13.1514 5.83927 12.6268 5.66706C12.4445 5.60716 12.292 5.49894 12.1766 5.36237C11.9188 5.29319 11.6892 5.12229 11.5535 4.86823C11.5517 4.86531 11.5267 4.82414 11.4705 4.73542C11.4179 4.65239 11.3503 4.54645 11.2733 4.4317C11.1335 4.22339 10.9754 4.00078 10.8416 3.82624C10.8184 3.81694 10.7877 3.80527 10.7391 3.78717C10.6775 3.76424 10.5857 3.73016 10.4891 3.68756C10.4479 3.66941 10.3114 3.62973 9.99789 3.60651C9.69918 3.58441 9.31973 3.58197 8.83773 3.58795Z" fill="black"/>
</svg>
