<svg width="24" height="24" viewBox="0 0 24 24" fill="none" xmlns="http://www.w3.org/2000/svg">
<path d="M1.22606 0.9526C1.55575 0.859627 1.85719 0.942283 1.94481 0.965295C2.07753 1.00017 2.23116 1.05404 2.36668 1.10104C2.95843 1.30625 4.05249 1.6944 4.67137 1.92233C5.28403 2.14797 5.48522 2.23433 5.71336 2.36471C5.91144 2.47793 6.1251 2.61762 6.40477 2.85494C6.68539 3.09309 7.01188 3.41154 7.49656 3.98678C7.86671 4.42609 8.32913 5.01509 8.6577 5.436C8.79693 5.35389 8.9478 5.2697 9.11082 5.18405C9.56632 4.94475 10.3297 4.73366 10.6499 4.63522C10.863 4.56971 11.0613 4.51552 11.2798 4.48483C11.4991 4.45403 11.703 4.45193 11.9214 4.45651C12.3519 4.46553 13.0175 4.50648 13.5005 4.55807C14.0891 4.62095 14.4686 4.70781 14.7309 4.79147L14.9575 4.8735L15.0132 4.89596L15.0669 4.92526C15.2041 5.00121 15.3391 5.08362 15.4682 5.17037C15.8068 4.5545 16.2089 4.19858 16.4624 3.97115C16.681 3.77501 16.9604 3.58142 17.48 3.25924C18.0121 2.92929 18.8527 2.43912 19.5395 2.08444C20.2392 1.72314 20.7484 1.51956 21.0278 1.40963C21.0755 1.39087 21.1852 1.3467 21.2915 1.31783C21.3805 1.29373 21.6795 1.21567 22.0171 1.34811C22.4 1.49857 22.5659 1.8059 22.6294 1.95358C22.6891 2.09259 22.719 2.23374 22.7339 2.30514C22.8048 2.64662 22.888 3.27409 22.936 3.89987C22.9849 4.53786 22.9971 5.17769 22.9848 5.70455C22.9724 6.24129 22.9331 6.67224 22.8345 7.14889C22.7396 7.60727 22.5931 8.08312 22.4555 8.4399C22.3063 8.82687 22.1606 9.09006 21.9595 9.36276C21.7759 9.61155 21.557 9.85441 21.3218 10.0893C21.2811 10.13 21.2429 10.1681 21.2075 10.2036C21.4583 10.5394 21.8247 11.0255 22.0239 11.3042C22.0738 11.374 22.1633 11.4977 22.229 11.6264C22.2822 11.7308 22.4621 12.1017 22.2993 12.5463C22.1426 12.9737 21.7838 13.1454 21.687 13.1909C21.5578 13.2515 21.4129 13.2962 21.3198 13.3247C21.0854 13.3962 20.8545 13.4612 20.6352 13.561C20.4545 13.6433 20.3808 13.7071 20.3589 13.728C20.3535 13.7573 20.3415 13.8526 20.3706 14.0688C20.4169 14.4132 20.5249 14.8289 20.6723 15.4614C20.9477 16.6429 21.2653 18.2302 21.4634 19.1381C21.5627 19.5936 21.634 19.888 21.6909 20.1059L21.8325 20.6137L21.8364 20.6313C21.9831 21.1933 22.0837 21.6075 22.105 21.7583L22.1323 21.9858C22.1899 22.5351 21.7909 23.0268 21.2417 23.0844C20.6927 23.1418 20.2008 22.7437 20.143 22.1948C20.1372 22.139 20.1329 22.106 20.1304 22.0854C20.1278 22.0651 20.1265 22.0554 20.1235 22.0337L20.1225 22.0278C20.1214 22.0221 20.1194 22.0154 20.1177 22.0073C20.1085 21.9651 20.094 21.9035 20.0747 21.8227C20.037 21.6651 19.9816 21.442 19.9067 21.1547L19.7554 20.6108C19.6932 20.3726 19.6153 20.0502 19.5093 19.5639C19.2967 18.5893 18.9984 17.0872 18.7251 15.9145C18.5982 15.37 18.4522 14.8036 18.3891 14.3344C18.3264 13.867 18.3056 13.2568 18.6382 12.7036L18.7632 12.521C19.0733 12.1178 19.5003 11.88 19.8061 11.7407C19.8188 11.7349 19.8324 11.7297 19.8452 11.7241C19.7071 11.5396 19.573 11.3586 19.4663 11.2143C19.3446 11.0498 19.2594 10.9325 19.2016 10.8471C19.1435 10.7612 19.0691 10.6442 19.0161 10.4907C18.9248 10.2262 18.9608 9.99341 18.9966 9.8608C19.0326 9.72732 19.0872 9.6229 19.1245 9.55904C19.1984 9.43271 19.2905 9.32183 19.3579 9.24459C19.4983 9.08378 19.6992 8.88353 19.9087 8.67428C20.0985 8.48469 20.2442 8.31868 20.3501 8.17526C20.4382 8.0558 20.501 7.95176 20.5903 7.72018C20.6913 7.45816 20.8054 7.0872 20.8764 6.74362C20.9438 6.41816 20.9743 6.11313 20.9848 5.65768C20.9957 5.19207 20.9853 4.61877 20.9419 4.05221C20.931 3.9109 20.9174 3.77229 20.9038 3.6401C20.7673 3.70486 20.6183 3.77873 20.4575 3.86178C19.8283 4.18671 19.0336 4.64847 18.5337 4.95846C18.0221 5.27568 17.8741 5.39157 17.7973 5.46041C17.5636 5.67012 17.38 5.83876 17.2143 6.14401C17.0734 6.40361 16.9719 6.60236 16.9038 6.75338C16.8702 6.82791 16.8496 6.88025 16.8384 6.91354C16.8366 6.91862 16.8345 6.92281 16.8335 6.92623C16.8169 7.06306 16.8053 7.17077 16.7973 7.24459C16.7939 7.27673 16.7904 7.30241 16.7886 7.32076L16.7895 7.26705L16.7846 7.36959C16.7332 7.87358 16.3071 8.26705 15.7895 8.26705C15.2907 8.2669 14.8774 7.90112 14.8022 7.4233C14.7906 7.40519 14.7786 7.38673 14.768 7.36764C14.7209 7.28251 14.6772 7.19947 14.6401 7.12936C14.6136 7.07921 14.5917 7.03769 14.5727 7.0024C14.5616 6.99113 14.5403 6.97054 14.5054 6.94186C14.43 6.88003 14.313 6.79989 14.1499 6.70651C14.0426 6.66988 13.7953 6.60157 13.2876 6.54733C12.8607 6.50174 12.2521 6.46335 11.8794 6.45553C11.6962 6.45169 11.6183 6.45684 11.5581 6.4653C11.4972 6.47384 11.4179 6.49097 11.2378 6.54635C10.7706 6.68998 10.2819 6.82835 10.0415 6.95455C9.70608 7.13079 9.48904 7.26731 9.35399 7.36471C9.23985 7.44706 9.20461 7.48675 9.2075 7.48287L9.15086 7.55123C8.80888 7.9254 8.23238 7.98714 7.81688 7.67819C7.62868 7.53813 7.5039 7.34465 7.44774 7.13424C7.41116 7.08765 7.36792 7.03338 7.31785 6.9692C7.00314 6.5658 6.40913 5.79929 5.96727 5.27487C5.53799 4.76539 5.28884 4.53144 5.11082 4.38033C4.93218 4.22874 4.82078 4.15798 4.72117 4.10104C4.65147 4.0612 4.59027 4.02273 3.98094 3.7983C3.58626 3.65294 2.98619 3.44002 2.45555 3.2524C2.47458 3.50442 2.49453 3.75799 2.51609 3.97018C2.56768 4.47759 2.60705 4.65131 2.67039 4.88229C2.74167 5.14218 2.83843 5.44448 2.99559 5.79733C3.15198 6.14838 3.37435 6.55931 3.72606 7.09127C4.08612 7.63583 4.55978 8.27313 4.83055 8.64596C4.95184 8.81297 5.05213 8.95368 5.11668 9.06393C5.14934 9.11971 5.21268 9.2327 5.25145 9.38033C5.30203 9.57311 5.2881 9.73347 5.27293 9.82955C5.24176 10.0267 5.16716 10.1812 5.09129 10.3061C5.02564 10.4141 4.93458 10.5398 4.81883 10.6909C4.56251 11.0253 4.18269 11.4901 3.91356 11.8647C3.85198 11.9504 3.79636 12.0307 3.74461 12.104C4.04645 12.214 4.28906 12.2939 4.5034 12.3676C4.60948 12.4042 4.77893 12.4631 4.91941 12.5395C4.97175 12.568 5.16094 12.6705 5.30906 12.8764C5.39605 12.9974 5.49511 13.1907 5.50438 13.4438C5.51388 13.705 5.42371 13.92 5.32078 14.0688C5.34895 14.028 5.32888 14.0453 5.25828 14.2309C5.19565 14.3957 5.11216 14.6409 4.99852 15.0005C4.86507 15.4227 4.71625 16.0974 4.61277 16.6352C4.51408 17.1482 4.49255 17.4315 4.43797 17.8188C4.43802 17.8195 4.4379 17.8234 4.43699 17.8315C4.43584 17.8417 4.43388 17.8558 4.43211 17.8735C4.42856 17.909 4.42438 17.9554 4.41941 18.0122C4.40946 18.1261 4.39691 18.2752 4.38328 18.4497C4.35604 18.7985 4.32313 19.2425 4.28856 19.7065C4.22022 20.6236 4.14477 21.6393 4.09617 22.104C4.03871 22.653 3.54655 23.0517 2.99754 22.9946C2.4483 22.9371 2.04953 22.4452 2.10691 21.896C2.15155 21.4692 2.22469 20.4928 2.29441 19.5571C2.36088 18.6652 2.42767 17.7511 2.4575 17.5395C2.49787 17.253 2.53802 16.8336 2.64891 16.2573C2.75512 15.7053 2.92212 14.9363 3.09227 14.3979C3.13347 14.2675 3.17203 14.1469 3.20848 14.0366C3.07544 13.9895 2.9298 13.9397 2.77879 13.8813C2.48667 13.7683 2.22571 13.6594 2.03172 13.5581C1.94288 13.5116 1.80974 13.4373 1.68895 13.3335C1.63002 13.2828 1.52284 13.1822 1.43602 13.0288C1.34271 12.8638 1.23961 12.5705 1.34031 12.2241L1.39012 12.0864C1.4488 11.949 1.53136 11.8124 1.61082 11.686C1.74121 11.4787 1.95134 11.1685 2.28953 10.6977C2.52152 10.3748 2.86448 9.94055 3.09031 9.65279C2.81859 9.281 2.39274 8.70145 2.05711 8.19381C1.6572 7.58892 1.37804 7.08136 1.16844 6.6108C0.959616 6.14196 0.831708 5.73982 0.741681 5.41158C0.643754 5.05451 0.587468 4.76869 0.526837 4.17233C0.4698 3.61116 0.403281 2.72518 0.399884 2.25826C0.399233 2.16915 0.396892 1.96543 0.446759 1.76803C0.475454 1.65471 0.535082 1.48141 0.672345 1.31393C0.823051 1.13017 1.01983 1.0109 1.22606 0.9526ZM12.6753 12.7143C12.9016 12.7145 13.0849 12.7196 13.227 12.7368C13.3668 12.7537 13.6683 12.802 13.9263 13.0571C14.1585 13.287 14.2708 13.5919 14.2593 13.8969C14.2493 14.1567 14.1528 14.3566 14.0903 14.4663C13.9681 14.6808 13.7938 14.8565 13.6958 14.9516C13.5982 15.0463 13.444 15.1837 13.3891 15.2348C13.3163 15.3028 13.3039 15.3213 13.3169 15.3042C13.298 15.334 13.2759 15.3714 13.2505 15.4077C13.2362 15.428 13.2117 15.4611 13.1792 15.5014C13.1769 15.5492 13.1749 15.6043 13.1723 15.6655C13.1637 15.8756 13.1536 16.1583 13.1411 16.4956L13.1401 16.5073C13.1262 16.7888 13.1108 16.8883 13.0893 17.0024C12.9866 17.5447 12.4638 17.9015 11.9214 17.7993C11.3791 17.6967 11.0225 17.1737 11.1245 16.6313C11.1279 16.6134 11.1281 16.6108 11.1284 16.6088V16.6069C11.1286 16.6057 11.1298 16.6025 11.1304 16.5981C11.1328 16.5763 11.1364 16.5241 11.1421 16.4096H11.143C11.1566 16.0458 11.1704 15.7332 11.1802 15.5063C11.168 15.4997 11.1552 15.4934 11.143 15.4868L11.063 15.4428L10.9917 15.3852C10.5369 15.0162 10.274 14.7941 10.104 14.6088C10.1007 14.6062 10.0957 14.6033 10.0884 14.5971C10.0345 14.5523 9.98769 14.5015 9.94578 14.4487C9.75463 14.2666 9.63426 14.0099 9.63426 13.7251C9.63454 13.1731 10.0823 12.7252 10.6343 12.7251C10.6479 12.7251 10.6613 12.726 11.0639 12.7231C11.4623 12.7202 12.2502 12.7139 12.6753 12.7143ZM10.063 14.5678C10.0744 14.5806 10.0846 14.5906 10.0913 14.5971C10.0938 14.5996 10.0971 14.6012 10.0991 14.603C10.0875 14.5903 10.0756 14.5783 10.0649 14.5659L10.063 14.5678ZM8.54246 10.2817C9.09473 10.2817 9.54246 10.7294 9.54246 11.2817V11.6508C9.54208 12.2028 9.09449 12.6508 8.54246 12.6508C7.99041 12.6508 7.54284 12.2028 7.54246 11.6508V11.2817C7.54246 10.7294 7.99018 10.2817 8.54246 10.2817ZM15.853 10.0688C16.3705 10.069 16.7968 10.4623 16.8481 10.9663L16.854 11.0893C16.8554 11.1355 16.8579 11.2256 16.8608 11.3188C16.8779 11.8705 16.4447 12.3324 15.893 12.3501C15.3414 12.3674 14.8797 11.9338 14.8618 11.3823C14.8589 11.2897 14.8564 11.1981 14.855 11.1508C14.8539 11.1154 14.853 11.0907 14.853 11.0688C14.853 10.5165 15.3007 10.0688 15.853 10.0688ZM16.7876 7.33639C16.7872 7.3418 16.7867 7.34606 16.7866 7.34713L16.7856 7.34908C16.7859 7.34648 16.7867 7.34069 16.7876 7.33151V7.33639Z" fill="black"/>
</svg>
