<svg width="24" height="24" viewBox="0 0 24 24" fill="none" xmlns="http://www.w3.org/2000/svg">
<path d="M20.8193 2.57522C20.9526 2.56919 21.0807 2.59071 21.1991 2.63283C21.6332 2.74186 21.9549 3.13271 21.955 3.60061C21.9549 3.68396 21.9174 4.19749 21.8525 4.93947C21.7985 5.55557 21.6892 6.16549 21.5146 7.15041C21.3842 7.88593 21.0804 8.93009 20.9003 9.55764C20.7006 10.2536 20.5756 10.584 20.3095 11.1494C20.0588 11.6819 19.6719 12.4474 19.2616 13.1504C18.8495 13.8567 18.431 14.4693 18.1552 14.8477C17.5937 15.6181 17.2224 15.8915 16.6298 16.3877C16.328 16.6403 15.9653 16.8402 15.4335 17.0938C14.8821 17.3566 14.0772 17.6897 13.6357 17.8653C13.3689 17.9713 13.1386 18.0552 12.8554 18.1133C12.5908 18.1676 12.3047 18.1938 11.9374 18.2237C11.2279 18.2813 9.96198 18.2889 9.06438 18.2539C8.25033 18.2222 7.70814 18.1322 7.23821 18.0049C6.7362 18.4733 6.60426 18.5997 6.12786 19.003C5.57586 19.4702 4.53622 20.333 3.47258 21.2168C3.04796 21.5696 2.41738 21.5113 2.06438 21.0869C1.71171 20.6622 1.77059 20.0316 2.19524 19.6787C3.26308 18.7914 4.29285 17.9353 4.83586 17.4756C5.04636 17.2974 5.17751 17.1816 5.3134 17.0596C4.58177 16.5078 4.10461 15.9362 3.83098 15.4737C3.62865 15.1315 3.49596 14.7106 3.40032 14.3838C3.28262 13.9817 3.20044 13.5655 3.14739 12.9492C3.09621 12.3543 3.07259 11.566 3.06438 11.1133C3.05189 10.4249 3.1508 9.90986 3.33391 9.19826C3.58873 8.20803 4.03107 7.4882 4.29973 7.08596C4.61472 6.61442 5.1329 6.1142 5.80657 5.52053C6.26981 5.11232 6.89785 4.71414 7.26751 4.47951C7.96195 4.03877 8.55244 3.84455 9.02141 3.70315C9.32284 3.61227 9.77348 3.5169 10.3945 3.37014C10.8361 3.26575 11.202 3.20029 11.4794 3.15627C11.6165 3.13453 11.734 3.11697 11.8193 3.10451C11.8628 3.09815 11.8959 3.09399 11.9218 3.08986C11.9415 3.08673 11.9518 3.08461 11.955 3.08401L11.995 3.07522L12.0361 3.07033C12.3627 3.02858 12.6832 2.98221 14.1679 2.88576L14.1806 2.88479C15.5416 2.81339 18.1447 2.69607 20.8193 2.57522ZM19.871 4.62014C17.5769 4.72395 15.461 4.82115 14.2851 4.88283L14.2841 4.88186C12.8466 4.97538 12.5686 5.01812 12.29 5.05373L12.289 5.05276C12.2265 5.06364 12.1615 5.07624 12.1083 5.08401C12.0174 5.09728 11.9147 5.11155 11.7929 5.13088C11.5517 5.16914 11.2363 5.22617 10.8544 5.31643C10.1445 5.48422 9.82361 5.5497 9.59954 5.61721C9.1988 5.73803 8.80906 5.87112 8.33977 6.16897C7.94006 6.42267 7.4524 6.73636 7.12883 7.0215C6.44363 7.62535 6.11459 7.96919 5.96282 8.19631C5.75024 8.51457 5.44486 9.01861 5.27044 9.69631C5.10693 10.3317 5.0566 10.6482 5.06438 11.0772C5.07241 11.5195 5.09538 12.2523 5.14055 12.7774C5.18387 13.2807 5.24392 13.5638 5.31926 13.8213C5.41672 14.1543 5.49216 14.3528 5.55266 14.4551C5.70107 14.706 6.05484 15.1548 6.72454 15.6133C6.75419 15.6336 6.78503 15.6511 6.81438 15.6699C7.64503 14.8995 8.73788 13.8869 9.45403 13.2031C10.3476 12.3501 10.6277 12.0367 10.9091 11.7237C11.2782 11.3132 11.9105 11.2797 12.3212 11.6485C12.7315 12.0177 12.7655 12.651 12.3964 13.0615C12.083 13.4102 11.7678 13.7597 10.8359 14.6494C10.3656 15.0984 9.73495 15.6859 9.12395 16.2539C9.12981 16.2542 9.13563 16.2556 9.14153 16.2559C9.99365 16.2891 11.1738 16.2794 11.7753 16.2305C12.154 16.1997 12.3242 16.1798 12.4531 16.1533C12.5631 16.1308 12.6653 16.0991 12.8974 16.0069C13.327 15.8361 14.0817 15.5228 14.5722 15.2891C15.0812 15.0464 15.2494 14.935 15.3456 14.8545C15.9558 14.3436 16.1418 14.2139 16.539 13.669C16.783 13.3342 17.1625 12.7793 17.5341 12.1426C17.9077 11.5023 18.2677 10.7912 18.4999 10.2979C18.7165 9.83772 18.8046 9.60842 18.9775 9.00588C19.1701 8.33464 19.437 7.41007 19.5448 6.80178C19.7249 5.78626 19.8147 5.27452 19.8593 4.76565C19.8637 4.71592 19.867 4.66712 19.871 4.62014Z" fill="black"/>
</svg>
