<svg width="24" height="24" viewBox="0 0 24 24" fill="none" xmlns="http://www.w3.org/2000/svg">
<path d="M11.3524 1.08444C11.6277 0.856798 11.9887 0.801246 12.3045 0.90573C12.7192 0.807539 13.167 0.985371 13.3954 1.37155C13.6314 1.77064 13.8357 2.1173 14.0878 2.51022C14.274 2.80044 14.4373 3.03381 14.5926 3.26315C14.7334 3.47098 14.8941 3.71304 15.0038 3.94968C15.1162 4.19214 15.3037 4.6074 15.496 5.15573C15.6873 5.70166 15.873 6.3572 16.0184 7.00436C16.1657 7.6599 16.2702 8.30446 16.3192 9.03073C16.3335 9.24328 16.3411 9.46003 16.3465 9.67233C17.0497 9.44464 17.8869 9.17616 18.2987 9.05221C19.0498 8.82614 20.6174 8.35419 21.452 8.16647C21.6669 8.11817 21.8611 8.08286 22.0311 8.06589C22.1804 8.05103 22.4144 8.03789 22.6551 8.10983C22.9721 8.2047 23.2636 8.43725 23.3963 8.80221C23.486 9.0488 23.4672 9.29041 23.4667 9.30124C23.4576 9.56015 23.4227 9.87581 23.3036 10.3745C23.1886 10.8557 22.9885 11.5265 22.7616 12.1128C22.5234 12.7281 22.2576 13.2392 21.8221 13.8403C21.4272 14.3855 20.9002 14.988 20.4139 15.5044C20.5072 15.5983 20.6047 15.696 20.702 15.7944C20.944 16.0391 21.1892 16.2889 21.3817 16.4868C21.4775 16.5852 21.5629 16.6731 21.6288 16.7426C21.6745 16.7909 21.7597 16.8807 21.8133 16.9507L21.8212 16.9604L21.828 16.9702C22.1209 17.3722 22.3987 17.8205 22.5497 18.2182L22.5653 18.2592L22.577 18.3022C22.6352 18.5087 22.7224 18.8034 22.745 19.0747C22.773 19.4132 22.714 19.8219 22.4051 20.185C22.2905 20.3198 22.1036 20.5344 21.7547 20.7133C21.45 20.8695 21.072 20.9741 20.5897 21.0591C20.1548 21.1356 19.4328 21.2588 18.8758 21.3003C18.0422 21.3623 17.4843 21.3746 16.7811 21.1948C16.3373 21.0813 15.5573 20.8718 14.8544 20.6186C14.1347 20.3594 13.5135 20.0635 12.8583 19.6489C12.4908 19.4164 12.0882 19.144 11.7128 18.851C11.6015 18.9202 11.4967 18.9895 11.3973 19.0493C10.8955 19.3512 10.5822 19.5097 10.1337 19.6997C9.70998 19.8791 9.1534 20.0914 8.67857 20.2397C8.16103 20.4013 7.75452 20.4795 7.06334 20.5356C6.40273 20.5892 5.4552 20.6238 4.71861 20.6196C3.49835 20.6126 2.7112 20.4736 2.28502 20.2905C2.08278 20.2035 1.87023 20.0733 1.6981 19.8589L1.57506 19.7055L1.51939 19.5161C1.46985 19.348 1.46657 19.1919 1.46666 19.1167C1.4668 19.0229 1.47388 18.9282 1.48228 18.8442C1.4992 18.6753 1.52921 18.4837 1.56139 18.2993C1.6245 17.9376 1.71566 17.4978 1.77135 17.2075H1.7733C1.78872 17.1274 1.80868 17.0674 1.81529 17.0493C1.82607 17.0199 1.83668 16.9962 1.84264 16.9829C1.85454 16.9563 1.86525 16.9344 1.87096 16.9233C1.8832 16.8996 1.89544 16.8772 1.90416 16.8618C1.92282 16.8289 1.94675 16.789 1.97154 16.7475C2.0221 16.663 2.09191 16.5482 2.17271 16.4165C2.33494 16.152 2.55228 15.8011 2.76646 15.4536C2.98213 15.1037 3.19666 14.7552 3.35826 14.4868C3.39665 14.423 3.43015 14.3638 3.4608 14.312C3.27379 14.0209 3.15411 13.8158 3.08678 13.6958C2.86549 13.3011 2.60325 12.8971 2.119 11.604C1.9515 11.1567 1.70226 10.5047 1.5858 10.0991C1.54877 9.97007 1.50732 9.84704 1.45689 9.69186C1.41189 9.55338 1.35532 9.37516 1.31822 9.19968C1.28479 9.04145 1.23846 8.76347 1.30748 8.46432C1.39408 8.08989 1.64702 7.7514 2.0565 7.58444C2.38463 7.45084 2.73583 7.4669 3.14732 7.5737C3.55138 7.67861 4.13003 7.90193 5.00182 8.33053C5.21137 8.43354 5.91321 8.73837 6.60045 9.03268C6.81123 9.12295 7.01676 9.21009 7.19908 9.28757C7.20006 9.24514 7.20059 9.20348 7.20201 9.16257C7.21778 8.70781 7.25771 8.33429 7.32115 7.97214C7.38985 7.58021 7.48383 7.22595 7.74693 6.55221C7.98895 5.93251 8.3907 4.92657 8.74791 4.25339C9.23656 3.33268 9.65139 2.64676 10.119 2.19675C10.6267 1.70828 11.2452 1.17313 11.3524 1.08444ZM18.9481 16.9194C18.4239 17.3702 18.0255 17.6475 17.6854 17.8413C17.3752 18.018 17.0626 18.1451 16.9579 18.1948C16.6313 18.3499 16.3275 18.4562 16.121 18.5122C15.9908 18.5566 15.7645 18.6263 15.4725 18.7133C15.4924 18.7207 15.5119 18.7295 15.5321 18.7368C16.1432 18.9569 16.8493 19.1479 17.2772 19.2573C17.6534 19.3534 17.9435 19.3644 18.7274 19.3061C19.1683 19.2733 19.7925 19.1686 20.243 19.0893C20.4549 19.052 20.5968 19.0155 20.6903 18.9878C20.683 18.9614 20.6755 18.9326 20.6669 18.9018C20.6028 18.7473 20.4551 18.4845 20.2225 18.1635C20.2124 18.1526 20.196 18.139 20.1766 18.1186C20.1199 18.0587 20.0418 17.9776 19.9481 17.8813C19.7613 17.6893 19.5209 17.4441 19.2801 17.2007C19.1771 17.0964 19.0737 16.993 18.9754 16.894C18.966 16.9022 18.9575 16.9113 18.9481 16.9194ZM4.46959 16.5024C4.25255 16.8545 4.03864 17.1991 3.87779 17.4614C3.80603 17.5784 3.7465 17.6761 3.70299 17.7485C3.65107 18.0124 3.59611 18.2873 3.54869 18.5493C3.82499 18.5861 4.2124 18.6176 4.73033 18.6206C5.41306 18.6244 6.30293 18.5911 6.90221 18.5424C7.47061 18.4963 7.72776 18.4411 8.08189 18.3305C8.14347 18.3113 8.20687 18.289 8.27232 18.2671C8.04881 18.2033 7.78339 18.1261 7.4608 18.0298L7.40416 18.0132L7.34947 17.9897C6.68852 17.7033 6.06899 17.3551 5.41392 16.7212C5.2285 16.5417 4.991 16.3069 4.74889 16.0434C4.65763 16.1924 4.56427 16.3488 4.46959 16.5024ZM21.2616 10.2758C20.4858 10.4836 19.4757 10.7874 18.8749 10.9682C18.5025 11.0803 17.744 11.3226 17.0672 11.5415C16.7694 11.6378 16.4916 11.7284 16.2743 11.7993C16.2382 12.062 16.1967 12.2533 16.1571 12.4184C16.0958 12.6737 15.9548 13.3389 15.7333 14.1089C15.6228 14.4927 15.5053 14.8939 15.2665 15.4194C14.9361 16.1459 14.5065 16.6617 14.1795 17.0073C14.509 16.9127 14.7912 16.8319 15.0116 16.7661C15.1556 16.723 15.2718 16.6872 15.3563 16.6606C15.4543 16.6298 15.479 16.6205 15.4667 16.6255L15.5272 16.601L15.5907 16.5854C15.653 16.5696 15.8511 16.5061 16.0995 16.3882C16.3793 16.2553 16.4626 16.2364 16.6952 16.104C16.8985 15.9882 17.1924 15.7915 17.6444 15.4028C17.8156 15.2555 18.0035 15.0855 18.2069 14.8921C18.2332 14.8579 18.2615 14.8247 18.2928 14.7934C18.3305 14.7558 18.3703 14.7213 18.412 14.6909C18.5606 14.5449 18.7185 14.3887 18.8807 14.2182C19.3594 13.7153 19.8577 13.1441 20.203 12.6674C20.5313 12.2142 20.7163 11.8563 20.8963 11.3911C21.0352 11.0323 21.1641 10.6257 21.2616 10.2758ZM3.99205 10.9028C4.42193 12.0507 4.6241 12.3484 4.83092 12.7173C4.92394 12.8831 5.20852 13.372 5.80064 14.187C6.07445 14.5638 6.46578 14.9559 6.80553 15.2846C7.22798 15.6934 7.61303 15.9185 8.09556 16.1313C8.90196 16.3716 9.2955 16.4763 9.56627 16.5385C9.5372 16.4969 9.50755 16.4581 9.48131 16.4194C9.2158 16.0276 8.78841 15.4005 8.36314 14.5366C8.14276 14.0888 7.96159 13.6437 7.7733 13.0014C7.64283 12.5563 7.50854 12.0152 7.40514 11.4907C7.34375 11.4838 7.28505 11.4762 7.26256 11.4712C7.24436 11.4665 7.21415 11.4589 7.20299 11.4555C7.1829 11.4493 7.16718 11.4437 7.16197 11.4419C7.14921 11.4373 7.13875 11.4333 7.1356 11.4321C7.12771 11.429 7.12076 11.4258 7.11705 11.4243C7.10845 11.4208 7.0976 11.4166 7.08775 11.4126C7.06735 11.4041 7.03914 11.3918 7.00474 11.3774C6.93484 11.3481 6.83526 11.3059 6.71568 11.2553C6.476 11.1539 6.1518 11.0165 5.81334 10.8716C5.1525 10.5885 4.38786 10.2576 4.119 10.1255C3.93338 10.0342 3.76722 9.95575 3.619 9.88815C3.72219 10.1853 3.86221 10.5561 3.99205 10.9028ZM12.0946 3.09225C11.908 3.26003 11.6976 3.45357 11.5057 3.63815C11.2967 3.83939 11.0116 4.25423 10.5145 5.19089C10.2204 5.74521 9.85795 6.6429 9.60924 7.27975C9.38177 7.86226 9.33141 8.08649 9.29088 8.31784C9.24514 8.57901 9.21396 8.85924 9.20103 9.2319C9.18832 9.59915 9.19449 10.0289 9.27721 10.5903C9.36243 11.1684 9.53071 11.8845 9.69322 12.4389C9.84954 12.9722 9.98804 13.3103 10.1571 13.6538C10.5171 14.385 10.8775 14.915 11.1366 15.2973C11.3004 15.5391 11.544 15.871 11.9393 16.3091C12.2774 16.0672 12.4184 15.9452 12.4745 15.8891C12.787 15.5763 13.1679 15.2033 13.4462 14.5913C13.6215 14.2055 13.7055 13.9209 13.8104 13.5561C14.0155 12.8432 14.1361 12.2672 14.2118 11.9516C14.2624 11.7408 14.3232 11.4965 14.3426 10.9243C14.3579 10.4721 14.3659 9.78491 14.3241 9.1655C14.2831 8.55772 14.196 8.01568 14.0672 7.44284C13.9366 6.86163 13.7709 6.28197 13.6083 5.81784C13.4467 5.35697 13.2896 5.00772 13.1893 4.79147C13.1576 4.72299 13.0875 4.60838 12.9364 4.38522C12.7997 4.18334 12.6083 3.90842 12.4042 3.5903C12.2936 3.41796 12.1921 3.25261 12.0946 3.09225Z" fill="black"/>
</svg>
