<svg width="24" height="24" viewBox="0 0 24 24" fill="none" xmlns="http://www.w3.org/2000/svg">
<path d="M10.8869 2.18155C11.2358 2.17855 11.6746 2.18884 12.1652 2.20304C12.7213 2.21918 13.17 2.30347 13.5129 2.51163L13.6525 2.60831L13.6857 2.6337L13.715 2.66202C13.843 2.78027 13.9453 2.9109 14.0324 3.04093C14.1219 3.17455 14.2105 3.33 14.3039 3.51651C14.3444 3.59757 14.3717 3.68174 14.3888 3.76651C14.5839 3.78478 14.7863 3.81056 14.9855 3.84659C15.2991 3.90334 15.4777 3.98033 15.9718 4.21378C16.4751 4.45153 17.3843 4.89178 17.9142 5.16105C18.316 5.36521 18.6082 5.51108 18.841 5.71183L18.9377 5.80167L19.2218 6.09562C19.3152 6.1977 19.4042 6.30392 19.4787 6.41398C19.6387 6.65035 19.8779 7.00741 20.005 7.37491C20.0848 7.60572 20.2811 8.0929 20.2765 8.69718C20.2745 8.97104 20.2683 9.22662 20.2521 9.43937C20.244 9.54567 20.2323 9.6571 20.214 9.76261C20.2025 9.82922 20.1819 9.92862 20.1437 10.038C20.1725 10.0448 20.2042 10.0501 20.2355 10.0605C20.3753 10.1068 20.4836 10.1739 20.5636 10.2382L20.6349 10.3007L20.7033 10.3739C20.8514 10.5451 20.9149 10.7231 20.9396 10.7909C20.9738 10.8849 21.0151 11.0186 21.0646 11.1786C21.1735 11.5304 21.3702 12.166 21.6154 13.0937C21.869 14.0534 22.1326 15.1611 22.3556 15.9726C22.5139 16.5486 22.6481 16.9548 22.7482 17.2392C22.8272 17.4633 22.9381 17.7492 22.9787 17.8993C23.1276 18.452 22.8632 18.8857 22.6799 19.1015C22.4949 19.319 22.2585 19.4855 22.0656 19.6054C21.6716 19.8501 21.1524 20.0845 20.7199 20.2802C20.1834 20.5229 19.7593 20.5898 19.4308 20.6542C19.1183 20.7155 18.6707 20.8146 16.7043 20.8964C14.757 20.9774 11.2864 21.0447 9.13102 21.0478C6.96599 21.0509 6.20116 20.9876 5.72575 20.9384C5.27147 20.8914 5.12426 20.8621 4.63591 20.7929C4.1468 20.7236 3.19976 20.5974 2.65739 20.5185C1.73265 20.3839 1.46307 20.3198 1.2277 20.2401C1.2249 20.2392 0.836903 20.1366 0.609539 19.748C0.418272 19.4205 0.452789 19.0872 0.465984 18.9706L0.50407 18.7362C0.519592 18.6554 0.536665 18.5749 0.550945 18.5058C0.58475 18.3421 0.624474 18.1443 0.665203 17.8984C0.744579 17.4191 0.844569 16.6116 1.04802 15.7499C1.24317 14.9234 1.5703 13.9243 1.74528 13.288C1.93258 12.6069 2.02227 12.0968 2.07048 11.8066C2.09551 11.6558 2.10714 11.5788 2.11247 11.538C2.11484 11.5198 2.11524 11.5116 2.1154 11.5097C2.11552 11.5083 2.11563 11.5071 2.11637 11.495C2.14055 11.1016 2.38987 10.7759 2.73063 10.6337C2.85893 10.533 3.01214 10.462 3.17985 10.4335C3.07828 10.1674 3.05105 9.90445 3.0402 9.7128C3.02558 9.45361 3.0365 9.1572 3.04216 8.91984C3.05921 8.20763 3.26673 7.68923 3.41911 7.34757C3.68666 6.74772 4.0951 6.32836 4.48845 6.0878C5.19352 5.65675 5.99212 5.48582 6.49235 5.41398C6.59924 5.14163 6.77191 4.71595 7.07145 4.28312C7.31236 3.9351 7.60772 3.66919 7.93473 3.40812C8.69569 2.8007 9.44274 2.42204 9.92595 2.27726L10.0353 2.24894C10.3013 2.19059 10.6274 2.18379 10.8869 2.18155ZM17.1281 12.0673C14.3776 12.154 9.08018 12.3265 6.36247 12.3993C5.10839 12.4329 4.39627 12.4447 3.98454 12.4472C3.92262 12.7838 3.8301 13.2506 3.67399 13.8183C3.44877 14.6372 3.18538 15.4006 2.9943 16.2099C2.81156 16.9839 2.73544 17.6422 2.63884 18.2255C2.62351 18.318 2.60383 18.4038 2.58903 18.4843C2.69176 18.5003 2.80997 18.5193 2.94548 18.539C3.49971 18.6196 4.37933 18.7364 4.91618 18.8124C5.45275 18.8884 5.52725 18.9063 5.9318 18.9482C6.31584 18.9879 7.00662 19.0508 9.12809 19.0478C11.2612 19.0447 14.7049 18.9781 16.6213 18.8983C18.5171 18.8195 18.8592 18.728 19.0461 18.6913C19.4138 18.6192 19.6061 18.5889 19.8957 18.4579C20.2974 18.2762 20.636 18.1174 20.8879 17.9755C20.8797 17.9525 20.8711 17.9286 20.8625 17.9042C20.7483 17.5801 20.599 17.1281 20.4269 16.5019C20.2094 15.7103 19.9082 14.4623 19.6818 13.6054C19.4939 12.8944 19.3351 12.3645 19.2257 12.0067C18.8189 12.0166 18.1691 12.0345 17.1281 12.0673ZM10.5519 4.19327C10.5159 4.19601 10.4929 4.19852 10.4806 4.20011C10.2802 4.26536 9.77114 4.5011 9.1818 4.97159C8.90509 5.19253 8.79039 5.3134 8.71598 5.42081C8.53102 5.68807 8.43184 5.94844 8.31462 6.24503C8.26716 6.3651 8.185 6.5767 8.0695 6.75675C7.94898 6.94447 7.6596 7.3046 7.13102 7.35343C6.85391 7.37895 6.09784 7.44757 5.53141 7.79386C5.48108 7.82475 5.34687 7.93426 5.24528 8.16202C5.13645 8.40605 5.04899 8.64178 5.04118 8.96769C5.03432 9.25552 5.02748 9.44284 5.0363 9.59952C5.03938 9.65374 5.04547 9.68961 5.04899 9.71085C5.20934 9.97165 5.38695 10.1018 5.53239 10.1982C5.62337 10.2586 5.70078 10.3316 5.76481 10.413C5.93316 10.4088 6.11447 10.4055 6.30876 10.4003C9.02036 10.3276 14.3095 10.1552 17.0656 10.0683C17.3227 10.0602 17.5568 10.0544 17.7697 10.0478C17.7933 10.0079 17.8191 9.96875 17.8488 9.93155C17.9062 9.85972 18.0019 9.73842 18.0949 9.60831C18.1644 9.51107 18.2141 9.43014 18.2472 9.37394C18.2497 9.35202 18.2543 9.32378 18.257 9.288C18.2679 9.14475 18.2745 8.94387 18.2765 8.68253C18.278 8.48923 18.2252 8.34693 18.1154 8.02921C18.0883 7.95073 18.0053 7.80516 17.8224 7.53507C17.8011 7.50357 17.7505 7.44618 17.5285 7.22159C17.5208 7.21667 17.5082 7.20959 17.4904 7.19913C17.4082 7.15078 17.2713 7.07809 17.008 6.94425C16.5013 6.68679 15.6108 6.2555 15.1174 6.02237C14.8635 5.90243 14.7546 5.85409 14.6945 5.83097C14.6827 5.82643 14.675 5.82414 14.672 5.82316L14.6681 5.8212C14.6672 5.821 14.6654 5.82068 14.6632 5.82023C14.6571 5.81895 14.647 5.81744 14.63 5.81437C14.2817 5.75135 13.971 5.73366 13.798 5.74015C13.7784 5.78563 13.7536 5.84223 13.7238 5.91398C13.647 6.09897 13.6212 6.22808 13.6115 6.3046C13.6065 6.34409 13.6045 6.37798 13.6037 6.41007C13.6032 6.42794 13.6039 6.44359 13.6037 6.46769C13.6035 6.48505 13.603 6.52665 13.6007 6.56827C13.5964 6.64917 13.5806 6.95098 13.3576 7.23917C13.1368 7.52438 12.8384 7.64201 12.6193 7.69327C12.4219 7.73937 12.1939 7.75186 12.047 7.7587C11.842 7.76824 11.7362 7.76867 11.5627 7.77823C11.3728 7.78872 11.2051 7.80797 11.0724 7.82706C11.2251 8.15657 11.1932 8.55731 10.9543 8.86319C10.6143 9.29804 9.98606 9.37579 9.55095 9.03605C9.43888 8.94851 9.36103 8.87701 9.28532 8.79191L9.26384 8.76651C9.1826 8.66889 9.08448 8.52629 9.01677 8.32218C8.95646 8.14022 8.93534 7.95513 8.9318 7.78019L8.92887 7.64249L8.96403 7.5087C9.06099 7.13567 9.26025 6.67762 9.54802 6.36515L9.65446 6.26261C9.91312 6.04167 10.2384 5.94424 10.5334 5.88859C10.7616 5.84554 11.0811 5.80165 11.4523 5.78116C11.5288 5.77694 11.606 5.77312 11.6779 5.77042C11.7191 5.58462 11.781 5.37657 11.8761 5.14737C11.9273 5.0242 11.9778 4.90381 12.0236 4.80558C12.0531 4.74239 12.1362 4.55951 12.2726 4.40714L12.4269 4.24796C12.4227 4.24059 12.4192 4.2332 12.4152 4.22648C12.3475 4.21664 12.2473 4.20614 12.1066 4.20206C11.6137 4.18779 11.2108 4.17794 10.9045 4.18058C10.7514 4.1819 10.6351 4.18696 10.5519 4.19327Z" fill="black"/>
</svg>
