<svg width="24" height="24" viewBox="0 0 24 24" fill="none" xmlns="http://www.w3.org/2000/svg">
<path d="M11.7183 0.825519C12.5571 0.77854 13.3238 0.806267 13.7759 0.833332C14.5485 0.879611 14.8904 0.979676 15.1011 1.01302C15.7465 1.1151 16.185 1.28073 16.4507 1.36165C17.0116 1.53263 17.483 1.95164 17.9819 2.46614C18.4117 2.90939 18.6672 3.51717 18.8511 3.94857C19.1211 4.58227 19.2009 5.21122 19.2534 5.72982C19.2922 6.11313 19.2793 6.54156 19.2163 7.37728C19.1519 8.23131 19.0186 9.56789 18.8852 10.5697C18.7503 11.5837 18.6185 12.2154 18.5425 12.5667C18.3973 13.2377 18.1545 13.5726 17.8462 13.9857C17.3938 14.5917 16.8951 15.028 16.6567 15.2181C16.3163 15.4895 15.8153 15.7464 15.3384 15.9447C14.9871 16.0906 14.6493 16.1502 14.0972 16.2249C13.7733 16.2688 13.3446 16.3165 12.9048 16.3587C12.907 16.5011 12.9105 16.6947 12.9145 16.9574C12.9243 17.5858 12.9401 18.6102 12.9546 19.5404C13.0012 19.4983 13.045 19.4595 13.0845 19.4232C13.3475 19.1811 13.7376 18.8623 14.0522 18.6273C14.4169 18.3549 14.7093 18.1872 15.2065 17.9827C15.6646 17.7945 16.3215 17.5652 16.7661 17.432C17.5144 17.2078 18.0055 17.2126 18.5278 17.2611C18.919 17.2974 19.2528 17.3604 19.5093 17.4281C19.6362 17.4616 19.7541 17.4992 19.8559 17.5384C19.9061 17.5578 19.9638 17.5818 20.021 17.6107C20.0482 17.6244 20.1203 17.6616 20.2026 17.723L20.2876 17.7923L20.3716 17.8792C20.5513 18.0874 20.612 18.3258 20.6226 18.5042C20.6322 18.6685 20.6016 18.8046 20.5884 18.8607C20.5599 18.9814 20.5086 19.1295 20.4634 19.2601C20.3542 19.5756 20.1485 20.1209 19.9673 20.5433C19.6414 21.3027 19.2946 21.7989 18.9556 22.1546C18.5489 22.5812 17.9803 22.8103 17.6118 22.9583C17.2958 23.0852 16.9966 23.1467 16.4634 23.2191C15.9246 23.2921 15.0757 23.3772 14.4663 23.4212C13.5278 23.489 13.0574 23.4684 12.8608 23.4388L12.8452 23.4368L12.8306 23.4339C12.8301 23.4337 12.8289 23.4332 12.8276 23.4329C12.8258 23.4327 12.8229 23.4324 12.8198 23.432C12.8128 23.4309 12.803 23.4295 12.7915 23.4281C12.7675 23.4251 12.7363 23.4216 12.6997 23.4183C12.6261 23.4116 12.5359 23.4058 12.437 23.4007L12.4155 23.3988C12.3527 23.3942 12.3003 23.3891 12.2515 23.3822C12.2288 23.379 12.209 23.3755 12.1958 23.3734C12.1807 23.3709 12.176 23.3705 12.1694 23.3695C12.1684 23.3693 12.1675 23.3686 12.1665 23.3685C12.0433 23.4255 11.9067 23.4591 11.7622 23.4613C11.2503 23.4687 10.7686 23.4691 10.2886 23.4447C9.81085 23.4204 9.35946 23.3734 9.0454 23.3343C8.69804 23.2911 8.47332 23.2498 8.06103 23.1185C7.69206 23.001 7.14781 22.8042 6.73876 22.6253C6.32737 22.4454 6.04161 22.2858 5.83935 22.1468C5.53513 21.9377 5.18235 21.6057 4.79345 21.0804C4.47976 20.6566 4.09105 20.1286 3.83544 19.5648C3.76854 19.4172 3.67284 19.2155 3.61474 19.0599C3.58633 18.9838 3.53944 18.8479 3.52001 18.6917C3.50591 18.5783 3.46384 18.1428 3.81493 17.7855L3.89599 17.7103C4.08987 17.5472 4.32188 17.4582 4.54345 17.4046C4.80616 17.3411 5.14523 17.3061 5.59325 17.305C6.10147 17.3038 7.01095 17.3162 7.71044 17.3831C8.45287 17.4542 8.99017 17.5872 9.60595 17.888C10.0435 18.1018 10.521 18.3888 10.9409 18.6859C10.9309 18.0385 10.9212 17.4193 10.9145 16.9876C10.9113 16.7758 10.9078 16.6086 10.9058 16.4769C10.692 16.4786 10.5203 16.4769 10.3892 16.473C9.85646 16.4572 9.55829 16.4072 8.91552 16.224C8.33021 16.057 7.70923 15.6789 7.2788 15.2581C6.94467 14.9314 6.70489 14.4656 6.54736 14.1771C6.29373 13.7126 6.14521 13.2804 6.06493 13.0413C6.03778 12.9605 6.01284 12.8775 5.99072 12.805C5.96754 12.7291 5.94389 12.6521 5.91454 12.5628C5.81739 12.2673 5.75692 11.9566 5.64013 11.1663C5.53402 10.4483 5.42521 9.18179 5.36279 8.10677C5.30931 7.1857 5.30676 6.40918 5.31005 5.90364C5.30773 5.89547 5.30442 5.88725 5.30224 5.87923C5.25248 5.69585 5.25012 5.51251 5.2495 5.42318C5.24875 5.31259 5.25279 5.18271 5.25634 5.06771C5.26446 4.80575 5.33916 4.55597 5.41161 4.35579C5.48865 4.14302 5.59431 3.9054 5.7163 3.64974C6.06165 2.92623 6.43636 2.52893 6.57079 2.38802C6.84358 2.10216 7.21441 1.87627 7.69091 1.65071C8.0774 1.46781 8.6169 1.29424 9.30322 1.14388C10.0062 0.989885 10.8837 0.872277 11.7183 0.825519ZM5.98681 19.3099C6.10652 19.4884 6.24503 19.6804 6.40087 19.8909C6.6875 20.2781 6.88741 20.4401 6.97216 20.4984C7.04393 20.5477 7.21107 20.6497 7.53954 20.7933C7.87073 20.9381 8.34755 21.1113 8.66747 21.2132C8.94367 21.3012 9.04583 21.3182 9.29247 21.349C9.57261 21.3838 9.97371 21.4254 10.3901 21.4466C10.5837 21.4565 10.7809 21.4595 10.9868 21.4613C10.9858 21.4048 10.9841 21.3434 10.9829 21.2767C10.9477 21.2442 10.8992 21.1998 10.8335 21.1439C10.6568 20.9933 10.3909 20.778 10.019 20.4886C9.64944 20.201 9.1547 19.8944 8.72802 19.6859C8.36955 19.5107 8.07476 19.4274 7.52001 19.3743C7.06004 19.3304 6.46314 19.3152 5.98681 19.3099ZM18.3315 19.2513C17.9984 19.2208 17.7763 19.2174 17.3403 19.348C16.9533 19.4639 16.359 19.6714 15.9673 19.8324C15.615 19.9772 15.4702 20.0642 15.2485 20.2298C14.9767 20.4329 14.6417 20.7082 14.439 20.8949C14.1435 21.1668 13.982 21.3112 13.8755 21.4505C14.0037 21.4444 14.1522 21.4383 14.3218 21.4261C14.8975 21.3845 15.7046 21.3031 16.1948 21.2367C16.689 21.1696 16.7874 21.1343 16.8657 21.1029C17.2929 20.9313 17.4469 20.8399 17.5083 20.7757C17.6627 20.6137 17.8849 20.3239 18.1294 19.7542C18.1954 19.6004 18.2642 19.4238 18.3315 19.2513ZM13.6558 2.8304C13.248 2.806 12.5644 2.78143 11.8296 2.82259C11.0905 2.86402 10.3195 2.96905 9.73095 3.09798C9.12617 3.2305 8.74624 3.36375 8.54638 3.45833C8.14586 3.64792 8.03677 3.74734 8.01708 3.7679C7.95908 3.8287 7.74011 4.05203 7.52099 4.51107C7.431 4.69965 7.36748 4.84633 7.32275 4.95931C7.34058 5.07083 7.33991 5.18636 7.31786 5.30208C7.31595 5.34114 7.31414 5.41214 7.312 5.54232C7.35435 5.61322 7.41542 5.68788 7.50048 5.75618C7.65314 5.87866 7.86733 6.00805 8.08837 6.12825C8.12522 6.14829 8.15838 6.16664 8.24657 6.19954C8.34832 6.23748 8.52906 6.29594 8.84814 6.37435C9.33566 6.49415 10.1155 6.66398 10.9809 6.74837C11.8573 6.83382 12.8127 6.83411 13.3198 6.83431C13.8231 6.83451 13.8281 6.83431 13.8325 6.83431C14.0471 6.83439 14.2458 6.90266 14.4087 7.0179C14.4219 6.97276 14.4347 6.93237 14.4419 6.90853C14.4534 6.87026 14.4573 6.85163 14.4604 6.83821C14.4634 6.82552 14.4696 6.80014 14.4692 6.73079C14.4682 6.5577 14.4691 6.44173 14.4624 6.34114C14.4601 6.3075 14.4557 6.28455 14.4536 6.26986C14.4139 6.17834 14.3737 6.0996 14.3306 6.03841C14.2874 5.97723 14.2608 5.95904 14.2583 5.95736C14.1687 5.90892 14.0329 5.85495 13.8491 5.82552C13.7438 5.80867 13.6084 5.78957 13.1919 5.77767C12.7604 5.76535 12.0834 5.76121 11.73 5.75911C11.3801 5.75703 11.3727 5.75716 11.3667 5.75716C10.8144 5.75716 10.3667 5.30944 10.3667 4.75716C10.3667 4.20492 10.8144 3.75716 11.3667 3.75716C11.3805 3.75716 11.3962 3.75706 11.7417 3.75911C12.0875 3.76117 12.7895 3.76554 13.2485 3.77864C13.7219 3.79216 13.9485 3.81538 14.1645 3.84993C14.5754 3.91566 14.9264 4.04492 15.2104 4.19857C15.8789 4.56038 16.1869 5.2243 16.3149 5.53157C16.4196 5.78285 16.4463 6.04121 16.4575 6.20833C16.4694 6.38583 16.4684 6.57948 16.4692 6.71907C16.4719 7.18649 16.3544 7.48326 16.3237 7.59505C16.2617 7.82137 16.1246 8.19923 15.8921 8.65169C15.7342 8.95897 15.5236 9.24536 15.3032 9.50911C15.0598 9.80037 14.7751 10.0792 14.3979 10.39C14.0347 10.6892 13.5722 11.0263 13.3413 11.1986C13.0841 11.3905 13.0308 11.4402 12.731 11.7122C12.4741 11.9453 11.9885 12.415 11.6929 12.7122C11.5099 12.8962 11.4108 13.0104 11.3608 13.0726C11.337 13.1022 11.3243 13.1204 11.3188 13.1283C11.3118 13.1384 11.3149 13.1341 11.2974 13.1615C11.3103 13.1412 11.3042 13.1487 11.2778 13.2044C11.2557 13.2512 11.2282 13.3127 11.1997 13.3822C11.1405 13.5265 11.0903 13.6698 11.0649 13.7591C11.0636 13.7655 11.0591 13.7852 11.0542 13.8206C11.0475 13.869 11.0416 13.9294 11.0366 13.9974C11.0285 14.1081 11.026 14.219 11.0259 14.3031C11.0432 14.36 11.0542 14.4176 11.061 14.4749C11.2635 14.4709 11.5036 14.4635 11.7827 14.4456C12.4455 14.4033 13.3 14.3151 13.8286 14.2435C14.3775 14.1692 14.4838 14.1341 14.5708 14.098C14.9829 13.9266 15.284 13.7537 15.4097 13.6536C15.564 13.5306 15.9258 13.2151 16.2436 12.7894C16.5027 12.4423 16.5348 12.3871 16.5874 12.1439C16.6554 11.8297 16.7768 11.2529 16.9028 10.306C17.0306 9.34638 17.1593 8.04769 17.2212 7.22689C17.2844 6.38861 17.2822 6.12013 17.2632 5.93196C17.2132 5.4385 17.1543 5.06866 17.0112 4.73275C16.7971 4.23029 16.672 3.98846 16.5464 3.85872C16.3106 3.61553 16.1459 3.46701 16.0259 3.37532C15.9681 3.33123 15.9277 3.30557 15.9018 3.29134C15.8894 3.28451 15.8808 3.27996 15.8755 3.27767C15.8731 3.27663 15.8708 3.27616 15.8696 3.27571L15.8677 3.27474C15.492 3.16029 15.2545 3.0623 14.7886 2.98861C14.3762 2.92337 14.3042 2.86923 13.6558 2.8304ZM7.35888 7.99446C7.4203 9.05081 7.52577 10.2447 7.61865 10.8734C7.73701 11.6743 7.77819 11.8261 7.81493 11.9378C7.85147 12.0489 7.88016 12.1436 7.9038 12.221C7.92845 12.3018 7.94495 12.3556 7.96142 12.4046C8.03464 12.6226 8.13717 12.9157 8.30224 13.2181C8.51861 13.6144 8.60679 13.7595 8.67724 13.8284C8.77575 13.9247 8.90054 14.0168 9.0288 14.096C9.03154 14.0157 9.03551 13.9326 9.0415 13.8509C9.05449 13.6738 9.08036 13.4241 9.14013 13.2132C9.19337 13.0255 9.27482 12.8069 9.35009 12.6234C9.41691 12.4605 9.5148 12.236 9.61474 12.0804C9.61626 12.0779 9.64293 12.0355 9.67333 11.9915C9.70713 11.9426 9.74925 11.8866 9.80224 11.8206C9.90721 11.69 10.0558 11.5224 10.2749 11.3021C10.5836 10.9918 11.0956 10.4953 11.3872 10.2308C11.7025 9.94476 11.8112 9.84503 12.145 9.59603C12.4067 9.4008 12.8116 9.10544 13.1265 8.84603C13.1318 8.8416 13.1368 8.83674 13.1421 8.83235C12.5978 8.83135 11.6676 8.8245 10.7866 8.73861C9.78951 8.64136 8.90729 8.44862 8.3706 8.31673C7.8515 8.18916 7.55879 8.0832 7.35888 7.99446ZM7.29247 5.41146C7.29347 5.40818 7.29727 5.39493 7.30126 5.37923C7.3033 5.37111 7.30442 5.36268 7.30615 5.35482C7.30153 5.37348 7.2982 5.39285 7.29247 5.41146Z" fill="black"/>
</svg>
