<svg width="24" height="24" viewBox="0 0 24 24" fill="none" xmlns="http://www.w3.org/2000/svg">
<path d="M11.6424 0.838795C11.9439 0.751674 12.2056 0.821664 12.2879 0.844655C12.411 0.879 12.5252 0.928415 12.62 0.974538C12.813 1.06851 13.031 1.20206 13.2625 1.36321C13.8391 1.76458 14.1408 2.1237 14.3133 2.34758L14.4481 2.52337L14.4774 2.55852L14.5037 2.59661C14.5612 2.67993 14.6413 2.79978 14.703 2.89739C14.773 3.00826 14.7771 3.02007 14.8211 3.08001C14.8509 3.12052 14.8755 3.16382 14.8983 3.20696C14.9745 3.16729 15.044 3.13196 15.1063 3.09954C15.2277 3.0363 15.365 2.96477 15.4579 2.92473C15.6811 2.82848 16.3762 2.62539 17.1668 2.4218C17.2066 2.41156 17.3807 2.36232 17.5584 2.3554C17.8014 2.34599 18.1743 2.40902 18.4627 2.73821C18.6789 2.98505 18.7376 3.26939 18.7596 3.39055C18.7869 3.54112 18.7998 3.70991 18.8084 3.87102C18.8435 4.52765 18.8424 5.76931 18.8299 6.67376C18.8174 7.58457 18.7923 8.19908 18.7547 8.61809C18.7152 9.05848 18.664 9.2909 18.6004 9.51848C18.5 9.87806 18.3333 10.4137 18.0477 10.9755C17.8583 11.348 17.7429 11.5345 17.702 11.6034C17.652 11.6876 17.574 11.8072 17.4998 11.9247C17.4155 12.0583 17.3 12.2439 17.1395 12.5156C17.0057 12.742 16.8421 13.0253 16.6561 13.2275C16.5892 13.3002 16.3482 13.6044 15.9803 13.8154C15.4765 14.1043 15.1274 14.276 15.0467 14.3202C14.8215 14.4439 14.3671 14.6704 13.8006 14.7685C13.593 14.8044 13.3128 14.8127 13.0604 14.8154C13.0358 14.8156 13.0107 14.8142 12.9852 14.8144C12.9825 14.9168 12.9748 15.1019 12.9412 15.6318C12.8959 16.3494 12.8066 17.6936 12.7625 18.4101C12.7622 18.4163 12.761 18.4225 12.7606 18.4286C13.1017 18.1628 13.4484 17.907 13.6239 17.7695C14.0095 17.467 14.1652 17.3094 14.7108 17.0322C15.1618 16.803 15.9802 16.4538 17.0467 16.1327C18.1126 15.8119 19.4048 15.5426 20.0829 15.4189C20.3883 15.3632 20.6662 15.3171 20.8807 15.3212C20.993 15.3234 21.2418 15.3389 21.4911 15.497C21.6983 15.6287 21.8125 15.8026 21.8631 15.8954L21.8944 15.957L21.9549 16.0976C22.0859 16.4361 22.1456 16.8343 22.1834 17.121C22.2466 17.6006 22.1805 18.0009 22.1014 18.37C21.9584 19.037 21.7286 19.5147 21.6278 19.7118C21.4719 20.0164 21.2059 20.326 20.9549 20.6122C20.5251 21.1026 20.059 21.4827 19.662 21.7421C19.34 21.9525 18.978 22.0625 18.4647 22.205C17.9045 22.3605 17.0066 22.5785 16.1551 22.7157C15.2966 22.8541 14.5286 22.9018 14.0838 22.9198C13.3855 22.9482 12.8206 22.7787 12.325 22.6318C12.2339 22.6744 12.1352 22.7051 12.0301 22.7187C11.8694 22.7395 11.753 22.757 11.6922 22.7685C11.6801 22.7708 11.6725 22.7716 11.6688 22.7724C11.6669 22.773 11.6648 22.775 11.661 22.7763L11.6405 22.7831L11.6209 22.789C11.5247 22.8181 11.3723 22.8652 11.1375 22.8915C10.9261 22.9152 10.6689 22.9202 10.3211 22.9072C9.91412 22.8919 9.22516 22.8567 8.80648 22.8232C8.36068 22.7874 8.17759 22.7458 8.09652 22.7333C7.81655 22.6904 7.23701 22.5886 6.48031 22.2519C6.08512 22.076 5.73638 21.8634 5.40609 21.6113C5.08012 21.3624 4.77742 21.081 4.49301 20.7714C4.23299 20.4883 3.92816 20.1404 3.66977 19.704C3.26563 19.0213 2.91765 18.3606 2.80355 17.8798C2.8075 17.8963 2.80838 17.8953 2.79477 17.8544C2.78891 17.8369 2.78176 17.8168 2.77328 17.7919C2.76517 17.7681 2.75576 17.7393 2.74594 17.7099C2.70831 17.5972 2.65266 17.4245 2.61801 17.2382C2.58662 17.0693 2.54915 16.7753 2.63852 16.4618C2.74798 16.0783 3.03223 15.7326 3.48422 15.5859L3.60238 15.5517C3.87556 15.4835 4.13721 15.4886 4.3973 15.5263C4.66764 15.5655 4.98453 15.6483 5.35336 15.7529C5.99369 15.9345 7.16394 16.281 7.93051 16.5673C8.74298 16.8708 9.13085 17.1144 9.49984 17.3866C9.79635 17.6054 10.1827 17.8858 10.5711 18.3622C10.6335 18.4388 10.6924 18.5136 10.7498 18.5849C10.7544 18.4947 10.7597 18.396 10.7664 18.287C10.8104 17.5729 10.9007 16.2079 10.9452 15.5058C10.9791 14.9693 10.9847 14.8165 10.9862 14.7636C10.6901 14.7454 10.2487 14.703 9.73129 14.5849C9.33013 14.4933 8.98465 14.4075 8.70004 14.2372C8.31796 14.0087 7.97437 13.8016 7.63656 13.3075C7.46586 13.0579 7.15037 12.6435 6.78891 12.1669C6.56573 11.8727 6.36702 11.5907 6.1932 11.2324C6.0468 10.9304 5.92686 10.6458 5.85141 10.3183C5.79708 10.0823 5.74038 9.77918 5.67074 8.63567C5.60137 7.49644 5.51912 5.52643 5.47836 4.54876C5.43854 3.59371 5.43637 3.54827 5.43637 3.51555C5.43661 3.01 5.81238 2.59312 6.29965 2.5263C6.40471 2.48879 6.51764 2.46771 6.63559 2.4677C6.91356 2.4677 7.13184 2.51584 7.61703 2.66204C7.94778 2.76171 8.5106 2.93941 9.02035 3.10735C9.05179 3.05461 9.08411 2.99837 9.11898 2.94231C9.27492 2.69166 9.47789 2.3861 9.66977 2.13079L9.76059 2.02239C9.85303 1.92202 9.94848 1.84395 10.0164 1.79192C10.1187 1.71367 10.2317 1.63886 10.3377 1.57122C10.5309 1.44806 10.8209 1.276 11.035 1.14348C11.2025 1.03982 11.4037 0.907888 11.6424 0.838795ZM20.2039 17.4325C19.5292 17.5627 18.4798 17.7902 17.6239 18.0478C16.6595 18.3381 15.9524 18.645 15.617 18.8154C15.4285 18.9112 15.349 18.9621 15.2791 19.0126C15.1745 19.0883 15.1045 19.1506 14.8582 19.3437C14.4123 19.6934 13.7987 20.1265 13.4666 20.4374C13.2854 20.6072 13.1876 20.7195 13.1366 20.7841C13.4973 20.8855 13.7299 20.9319 14.0028 20.9208C14.4026 20.9046 15.0846 20.8623 15.8368 20.7411C16.5961 20.6188 17.4192 20.4199 17.9295 20.2782C18.1944 20.2047 18.348 20.1569 18.4491 20.12C18.5391 20.0872 18.5625 20.072 18.5682 20.0683C18.8248 19.9006 19.149 19.6372 19.45 19.2939C19.5837 19.1413 19.6805 19.0284 19.7508 18.9384C19.7849 18.8948 19.8085 18.8614 19.825 18.8368C19.8394 18.8155 19.8462 18.8041 19.8475 18.8017C19.9051 18.6891 20.0535 18.3838 20.1463 17.9511C20.2021 17.691 20.2139 17.5559 20.2039 17.4325ZM4.85727 17.6923C4.95655 17.9095 5.12615 18.2379 5.39047 18.6845C5.5387 18.9348 5.72712 19.1582 5.96566 19.4179C6.17993 19.6511 6.39729 19.8514 6.61996 20.0214C6.83832 20.1881 7.05311 20.318 7.29281 20.4247C7.82869 20.6632 8.21843 20.7281 8.39926 20.7558C8.44266 20.7624 8.48736 20.7705 8.51449 20.7753C8.54535 20.7807 8.57526 20.7857 8.6102 20.7909C8.67902 20.8012 8.78627 20.8156 8.96664 20.83C9.23604 20.8516 9.64568 20.8726 10.0008 20.8896C9.99417 20.8796 9.98152 20.8621 9.96371 20.8368C9.92194 20.7776 9.85821 20.6907 9.7723 20.5771C9.60062 20.35 9.34913 20.0279 9.02133 19.6259C8.80767 19.3639 8.60595 19.2127 8.31234 18.996C8.09125 18.8329 7.86682 18.6791 7.23031 18.4413C6.56441 18.1926 5.50218 17.876 4.85727 17.6923ZM7.48617 4.71477C7.52956 5.7517 7.60424 7.48543 7.66684 8.5136C7.73431 9.62154 7.78349 9.79579 7.80062 9.87005C7.82714 9.98501 7.87392 10.1137 7.99301 10.3593C8.08068 10.5401 8.18586 10.6985 8.38266 10.9579C8.72554 11.41 9.08171 11.877 9.28793 12.1786C9.3426 12.2586 9.37544 12.289 9.40805 12.3154C9.45957 12.3569 9.53204 12.4045 9.71078 12.5116C9.71831 12.5146 9.7356 12.5219 9.76547 12.5312C9.84263 12.5551 9.9661 12.5866 10.1766 12.6347C10.8104 12.7794 11.2701 12.7766 11.4198 12.7812C11.5045 12.7838 11.6186 12.7902 11.7088 12.7949C11.813 12.8002 11.9456 12.8066 12.1268 12.8095C12.4825 12.8153 12.7922 12.818 13.0389 12.8154C13.162 12.814 13.2634 12.8117 13.3416 12.8075C13.3801 12.8055 13.4105 12.8028 13.4325 12.8007C13.4488 12.7991 13.4576 12.7981 13.4598 12.7978C13.6408 12.7664 13.8103 12.7007 13.9442 12.6376C13.889 12.5368 13.8498 12.425 13.8319 12.3046C13.817 12.2044 13.8112 12.1403 13.8075 12.1015L13.7879 11.9618C13.7593 11.7905 13.6944 11.4865 13.5223 10.7558C13.4505 10.5373 13.3473 10.2992 13.1063 9.86126C12.8532 9.40135 12.4849 8.78295 11.9549 8.06633C11.4168 7.33871 10.7291 6.52751 10.3094 6.06829C10.1001 5.83922 9.98086 5.72409 9.90316 5.65715C9.83995 5.60274 9.79886 5.57523 9.72641 5.53313C9.57633 5.44595 9.37016 5.33926 8.84555 5.1552C8.45428 5.01793 7.91874 4.84871 7.48617 4.71477ZM16.662 4.63274C16.532 4.6708 16.4263 4.70332 16.3485 4.72844C16.2583 4.75756 16.2355 4.76686 16.2498 4.76067C16.2541 4.75882 16.2408 4.76493 16.1952 4.78801C16.1532 4.8092 16.0984 4.83787 16.0291 4.87395C15.8931 4.94481 15.7076 5.04145 15.4852 5.1552C15.2907 5.2547 15.1953 5.33437 14.9862 5.51751C14.7906 5.69981 14.6285 5.8556 14.5096 5.97258C14.4485 6.03275 14.4026 6.07895 14.3719 6.11126C14.3712 6.112 14.3697 6.11251 14.369 6.11321C14.3625 6.12393 14.3543 6.13811 14.3436 6.15618C14.1374 6.5027 13.755 6.67768 13.3787 6.63762C13.4405 6.71866 13.5032 6.79785 13.5623 6.87786C14.1565 7.68131 14.5733 8.37695 14.8592 8.89641C15.1455 9.4165 15.3126 9.7827 15.4393 10.1816L15.451 10.2177L15.4598 10.2548C15.5452 10.6168 15.6078 10.8911 15.6551 11.1074C15.7147 11.0101 15.7643 10.9272 15.8084 10.8574C15.9123 10.6929 15.9504 10.6356 15.9823 10.582C16.0209 10.5169 16.1072 10.3787 16.2645 10.0693C16.4635 9.67774 16.5883 9.28602 16.6737 8.9804C16.6928 8.91202 16.7067 8.85842 16.7196 8.78801C16.7331 8.71395 16.7485 8.60713 16.7635 8.43938C16.7941 8.09902 16.8175 7.54678 16.8299 6.64641C16.8389 5.99238 16.8401 5.19605 16.8289 4.58489C16.7701 4.60165 16.7142 4.61745 16.662 4.63274ZM11.4139 3.25774C11.3291 3.31185 11.2714 3.35044 11.2352 3.37786C11.1195 3.53499 10.9927 3.7238 10.8807 3.89934C11.1488 4.07309 11.3848 4.28067 11.786 4.71965C11.9821 4.93433 12.2271 5.21722 12.4911 5.53118C12.5066 5.39491 12.5502 5.25929 12.6248 5.13372C12.6481 5.09464 12.6872 5.02717 12.7332 4.95891L12.7411 4.94817L12.7498 4.93645C12.8398 4.81098 12.9994 4.65202 13.1063 4.5468C13.1624 4.49158 13.2268 4.43196 13.2957 4.36614C13.2651 4.33432 13.2357 4.30018 13.2088 4.2636C13.1106 4.12978 13.0494 4.02415 13.0125 3.96575C12.9691 3.89698 12.9073 3.80551 12.8631 3.74114C12.815 3.68062 12.7683 3.6218 12.7391 3.58391C12.6923 3.52317 12.6503 3.47039 12.6024 3.41692C12.5117 3.31589 12.3722 3.18041 12.12 3.00481C12.0682 2.96882 12.0196 2.93847 11.9774 2.91106C11.7471 3.05203 11.5822 3.15042 11.4139 3.25774Z" fill="black"/>
</svg>
