<svg width="24" height="24" viewBox="0 0 24 24" fill="none" xmlns="http://www.w3.org/2000/svg">
<path d="M11.3019 1.52204C11.6677 1.35809 12.0287 1.30442 12.4386 1.3697C12.7674 1.42216 13.1263 1.55439 13.4845 1.68708C14.2376 1.96611 14.788 2.27216 15.0587 2.4947C15.3924 2.7691 15.834 3.28467 16.2247 3.74861C16.5032 4.07935 16.6608 4.3764 16.7706 4.61579L16.8673 4.83552L16.8761 4.85603L16.8849 4.87751C16.9168 4.96146 16.9457 5.03798 16.9718 5.10701C17.1924 4.98472 17.4419 4.85904 17.716 4.74372C18.1691 4.55312 18.6599 4.40047 19.1359 4.26716C19.6146 4.13311 20.0966 4.01399 20.3859 3.94685C20.4117 3.94084 20.4909 3.9219 20.5744 3.91072C20.6599 3.89928 20.8229 3.88433 21.0138 3.92927C21.524 4.04965 21.7515 4.44949 21.838 4.70173C21.9114 4.91603 21.9343 5.15456 21.9464 5.34919C21.9599 5.56591 21.9654 5.84025 21.966 6.17732C21.9682 7.52973 21.8955 10.2199 21.8263 11.8267C21.7568 13.4411 21.691 13.9281 21.6417 14.2359C21.586 14.5842 21.4557 15.1137 21.3117 15.7427C21.1912 16.2682 20.9814 16.8065 20.8595 17.1275C20.8413 17.1755 20.8222 17.2397 20.7921 17.3453C20.767 17.4335 20.7284 17.574 20.6818 17.7027C20.5995 17.9296 20.4627 18.2468 20.1964 18.691C20.0008 19.0172 19.6859 19.4249 19.4288 19.7408C19.1422 20.093 18.8692 20.3789 18.549 20.6646C18.2393 20.9408 17.9106 21.209 17.6398 21.4176C17.5044 21.5218 17.3786 21.6148 17.2736 21.689C17.2265 21.7223 17.165 21.763 17.1017 21.8033C17.0902 21.8123 17.081 21.823 17.0704 21.8306C16.9441 21.9216 16.8236 21.9664 16.7599 21.9869C16.6311 22.0282 16.5088 22.0419 16.4454 22.0484C16.3075 22.0626 16.1345 22.0669 16.006 22.0709C15.694 22.0805 15.4274 22.0933 15.2326 22.1383C14.9831 22.1958 14.8087 22.2716 14.2531 22.4351C13.8863 22.543 13.5902 22.5512 12.8839 22.5426C12.1501 22.5335 10.833 22.4916 9.82337 22.4039C8.79241 22.3143 8.11952 22.1783 7.59584 22.0504C7.08436 21.9254 6.70161 21.804 6.34681 21.6461C5.9924 21.4882 5.70154 21.308 5.45033 21.1275C5.18842 20.9393 4.95172 20.7365 4.69056 20.439C4.44367 20.1577 4.18457 19.8015 3.96888 19.4556C3.74748 19.1005 3.57181 18.7545 3.42591 18.4019C3.22236 17.9098 3.10798 17.5755 3.0392 17.3218C2.97695 17.0922 2.9426 16.8711 2.93959 16.8541C2.90214 16.6699 2.84809 16.3802 2.82728 16.1148C2.8173 15.9873 2.7988 15.7301 2.74623 14.9527C2.70473 14.3391 2.66407 13.2989 2.6388 12.7535C2.61221 12.1795 2.60752 12.0868 2.60365 11.3697C2.59986 10.6679 2.59666 9.33754 2.59291 8.45076C2.58919 7.57275 2.58482 7.1354 2.58412 6.88533V6.87068L2.58509 6.85603C2.5982 6.35977 2.61069 6.16951 2.61732 5.80329C2.61744 5.77731 2.61697 5.76425 2.61634 5.75154C2.61549 5.7345 2.61324 5.70817 2.60853 5.65388C2.60576 5.62192 2.60439 5.58962 2.60462 5.55818C2.57425 5.4213 2.57095 5.27547 2.60267 5.12947C2.72018 4.58989 3.25349 4.24737 3.7931 4.36482C3.82024 4.37075 3.87054 4.38368 3.89662 4.39021C3.93797 4.40056 3.99617 4.41515 4.06947 4.43318C4.21645 4.46932 4.42871 4.52086 4.70033 4.58357C4.89736 4.62903 5.04778 4.65086 5.28431 4.69392C5.5067 4.73442 5.76343 4.78756 6.0558 4.88923C6.3978 5.00823 6.85659 5.21759 7.34486 5.46833C7.44103 5.1991 7.63224 4.87345 7.85755 4.53962C8.10643 4.17094 8.45201 3.73676 8.77845 3.37654C9.11408 3.00624 9.42804 2.71745 9.73939 2.46931C10.3338 1.99567 10.8965 1.70385 11.3019 1.52204ZM4.58412 6.90876C4.58506 7.16845 4.58922 7.5717 4.59291 8.44197C4.5967 9.33781 4.59985 10.6565 4.60365 11.359C4.60736 12.0455 4.61136 12.1105 4.63685 12.6607C4.66369 13.2401 4.70174 14.2323 4.74134 14.8179C4.7941 15.5981 4.81146 15.8437 4.82045 15.9586C4.83115 16.0948 4.86471 16.2844 4.89955 16.4556C4.93831 16.6464 4.92569 16.6354 4.96986 16.7984C5.00894 16.9425 5.08942 17.1921 5.27357 17.6373C5.37775 17.889 5.50346 18.1371 5.66615 18.398C5.83472 18.6683 6.03021 18.9336 6.19349 19.1197C6.34247 19.2894 6.46284 19.3924 6.61732 19.5035C6.78243 19.6221 6.95511 19.7285 7.16029 19.8199C7.36558 19.9113 7.62265 19.9976 8.07045 20.107C8.50634 20.2135 9.07793 20.3318 9.99623 20.4117C10.9368 20.4934 12.1994 20.5338 12.9083 20.5426C13.2703 20.547 13.4515 20.544 13.5597 20.5367C13.6369 20.5314 13.6541 20.5263 13.6886 20.5162C14.0458 20.4111 14.4751 20.2612 14.7833 20.19C14.8503 20.1746 14.919 20.1634 14.9874 20.1519C14.943 20.0243 14.8979 19.8861 14.8546 19.7369C14.5198 18.5816 13.8997 16.505 13.463 15.2193C13.0459 13.9915 12.8339 13.5827 12.2072 12.7506C11.5277 11.8485 10.4346 10.5552 9.67201 9.72224C8.9264 8.90789 8.54496 8.58317 8.10267 8.26423C7.63073 7.92397 7.09678 7.59553 6.59877 7.33259C6.08004 7.05876 5.64634 6.86511 5.39857 6.77888C5.24629 6.72593 5.10392 6.69314 4.92591 6.66072C4.83678 6.64449 4.72106 6.62466 4.59291 6.60115C4.58971 6.69719 4.58702 6.79887 4.58412 6.90876ZM19.6749 6.19294C19.2275 6.31825 18.8309 6.44508 18.4923 6.58747C18.1559 6.72903 17.8662 6.88916 17.6466 7.02888C17.4588 7.14841 17.3341 7.24214 16.9728 7.58259C16.5997 7.93423 16.0371 8.48964 15.4816 9.11482C14.9013 9.76795 14.3642 10.4165 14.1134 10.7916C13.8455 11.1927 13.76 11.3517 13.7404 11.3912C13.7345 11.4068 13.7264 11.4219 13.7199 11.4371C13.7483 11.4744 13.7775 11.5111 13.8048 11.5474C14.5825 12.58 14.8856 13.1872 15.3576 14.5767C15.8101 15.9091 16.4402 18.0231 16.7755 19.1802C16.8062 19.2862 16.8382 19.3823 16.8683 19.4703C16.9847 19.3735 17.1043 19.2738 17.2179 19.1724C17.4564 18.9597 17.6564 18.7514 17.8781 18.4791C18.1294 18.1703 18.3652 17.8567 18.4816 17.6627C18.6819 17.3286 18.7632 17.1268 18.8019 17.0201C18.8189 16.9731 18.8367 16.9117 18.8693 16.7974C18.897 16.7 18.9375 16.5568 18.9904 16.4176C19.1247 16.0637 19.2788 15.6606 19.3624 15.2955C19.5237 14.5914 19.6253 14.1814 19.6671 13.9205C19.6989 13.722 19.7602 13.3215 19.8283 11.7408C19.8967 10.1499 19.9682 7.49169 19.966 6.18025C19.9659 6.1581 19.9651 6.13603 19.965 6.11482C19.8696 6.14029 19.7716 6.16587 19.6749 6.19294ZM12.1202 3.34626C11.8176 3.48201 11.4116 3.69422 10.9855 4.03376C10.7577 4.21533 10.5223 4.42985 10.2599 4.71931C9.98807 5.01926 9.70431 5.37946 9.51576 5.65876C9.41778 5.80393 9.345 5.92144 9.29505 6.01033C9.24825 6.09368 9.23101 6.13465 9.22865 6.14021C9.20019 6.22054 9.17437 6.31211 9.15345 6.39704C9.13827 6.45874 9.12797 6.50819 9.1222 6.53767C9.17227 6.57274 9.22346 6.60674 9.27259 6.64216C9.8522 7.06011 10.3347 7.4838 11.1476 8.37165C11.5125 8.77025 11.9468 9.26963 12.382 9.78474C12.4038 9.75163 12.4266 9.71672 12.4503 9.68122C12.7857 9.17939 13.407 8.43886 13.9865 7.78669C14.4697 7.24284 14.9534 6.75104 15.3341 6.38142C15.3277 6.36891 15.3198 6.35476 15.3126 6.3404L15.3077 6.33064L15.3029 6.3199C15.2463 6.19904 15.1431 5.92286 15.0324 5.63142C14.9217 5.37656 14.8613 5.23478 14.6945 5.03669C14.2596 4.52035 13.9493 4.17144 13.7892 4.03962C13.7892 4.03969 13.7097 3.98095 13.5236 3.88337C13.3484 3.79156 13.1029 3.6783 12.7892 3.56208C12.5968 3.49081 12.4541 3.43926 12.338 3.40193C12.2223 3.36473 12.1587 3.34987 12.1242 3.34431C12.123 3.3448 12.1215 3.34568 12.1202 3.34626Z" fill="black"/>
</svg>
