<svg width="24" height="24" viewBox="0 0 24 24" fill="none" xmlns="http://www.w3.org/2000/svg">
<path d="M12.3872 1.17993C12.518 1.18673 12.6313 1.21804 12.7241 1.2561L12.811 1.29614L12.9624 1.39087C13.1083 1.49679 13.2357 1.63046 13.3354 1.74146C13.5014 1.92622 13.7128 2.19103 13.978 2.56763C14.2676 2.9789 14.6594 3.57208 14.9341 3.98755C15.4909 3.75565 16.3331 3.39157 16.8169 3.18481C17.0696 3.07683 17.2509 2.99969 17.3706 2.95825C17.4008 2.94778 17.5645 2.88812 17.7583 2.88501C17.8791 2.88309 18.0967 2.89991 18.3198 3.03931C18.4935 3.1479 18.5978 3.28517 18.6577 3.38696L18.7036 3.47485L18.7505 3.58716C18.8458 3.84965 18.8538 4.11698 18.853 4.42114C18.8522 4.734 18.8471 5.31699 18.8296 5.71314C18.8094 6.16943 18.7688 6.41602 18.6333 6.95044C18.5052 7.45556 18.2827 8.26076 17.9487 9.15845C17.6177 10.0482 17.1897 11.0006 16.8237 11.6819C16.4482 12.3807 16.1368 12.8014 15.8276 13.1418C15.5326 13.4666 15.2657 13.6932 15.0864 13.8342C15.0012 13.9013 14.8959 13.9807 14.7632 14.0549C14.6316 14.1285 14.5028 14.1794 14.3774 14.2249C14.1371 14.312 13.768 14.4273 13.4878 14.4983C13.3069 14.5441 13.1572 14.5715 13.0005 14.5901C13.111 14.7509 13.1763 14.9456 13.1763 15.1555C13.1763 15.1649 13.176 15.1818 13.1714 15.635C13.1669 16.0787 13.1567 16.954 13.1206 17.9143C13.3413 17.7294 13.5708 17.5868 13.9556 17.3938C14.4045 17.1686 15.1214 16.8501 16.0249 16.5793C16.9183 16.3116 17.9575 16.1045 18.5874 15.9983C19.0092 15.9272 19.3246 15.8935 19.563 15.8899C19.6816 15.8881 19.8069 15.893 19.9292 15.9133C20.0141 15.9275 20.1876 15.9631 20.3667 16.0735L20.4438 16.1252L20.5513 16.217C20.7773 16.4379 20.8431 16.7069 20.8579 16.8743C20.871 17.0231 20.8507 17.1535 20.8423 17.2063C20.8221 17.3329 20.7807 17.5139 20.728 17.7405C20.6142 18.2297 20.3831 19.1485 20.1997 19.7405C19.8943 20.7259 19.4513 21.214 19.0513 21.595C18.6273 21.9987 18.0998 22.2799 17.7173 22.4885C17.1975 22.772 16.6752 22.8913 16.3169 22.9739C16.0477 23.0359 15.7903 23.0685 15.27 23.0872C14.7631 23.1053 13.9685 23.1068 13.5454 23.1047C13.2077 23.103 12.9433 23.0744 12.73 23.0452C12.4857 23.0117 12.4183 22.9961 12.3188 22.9895V22.9885C12.2784 22.9861 12.2426 22.9839 12.228 22.9827C12.21 22.9811 12.2002 22.9803 12.188 22.9797C12.1475 22.978 12.0776 22.9788 11.9712 22.9788C11.758 22.9787 11.5612 22.9109 11.3989 22.7971C11.3231 22.802 11.2457 22.7996 11.1675 22.7864L11.0015 22.7571C10.9127 22.7509 10.7921 22.7422 10.6538 22.7288C10.3676 22.7119 10.0164 22.6893 8.87255 22.4475C8.30834 22.3282 7.31688 22.1202 6.64208 21.8918C5.76748 21.5958 5.16421 21.3599 4.77294 21.0198C4.41631 20.7097 3.94121 20.26 3.5327 19.6633C3.32524 19.3603 3.1356 19.0282 2.9702 18.6497C2.85277 18.3809 2.63567 17.8977 2.57762 17.4885C2.5342 17.1824 2.47684 16.791 2.46337 16.4768C2.45713 16.3309 2.45515 16.1096 2.50634 15.8938C2.53189 15.7863 2.58894 15.5959 2.73387 15.4133C2.90421 15.199 3.17866 15.021 3.52684 15.0022L3.67626 14.9993C4.03895 15.0037 4.50205 15.0912 5.19872 15.3254C5.7598 15.5141 6.64662 15.8358 7.32274 16.1194C8.02126 16.4123 8.49713 16.6645 9.05126 17.0344C9.58248 17.3891 10.1777 17.8443 10.6821 18.302C10.8165 18.424 10.9508 18.5517 11.0825 18.6799C11.0944 18.4471 11.1091 18.2092 11.1186 17.9709C11.1579 16.9903 11.1667 16.0779 11.1714 15.6145C11.1737 15.3831 11.1757 15.2663 11.1763 15.2073C11.1765 15.1783 11.1762 15.1632 11.1763 15.1555C11.1763 14.9554 11.2351 14.7689 11.3364 14.6125C11.0911 14.5998 10.8814 14.5759 10.645 14.512C10.436 14.4554 10.1361 14.3421 9.9204 14.2708C9.66476 14.1861 9.20927 14.0499 8.82665 13.8928C8.43891 13.7336 8.09635 13.5529 7.84227 13.386C7.58868 13.2193 7.24728 13.003 7.02489 12.6917C6.87019 12.475 6.66673 12.1663 6.52684 11.8362C6.42495 11.5957 6.37903 11.4385 6.30712 11.1907C6.23898 10.9558 6.1101 10.5221 5.96337 9.71314C5.82003 8.92285 5.66342 7.80626 5.55223 6.84106C5.44055 5.87152 5.37509 5.06985 5.34227 4.6145C5.30925 4.15622 5.30809 4.0299 5.30809 3.89771C5.30828 3.34558 5.75592 2.89771 6.30809 2.89771C6.60449 2.89774 6.87011 3.02777 7.05321 3.23267C7.08376 3.24267 7.1283 3.25762 7.20067 3.27759C7.40346 3.33351 7.8227 3.4382 8.29149 3.60474C8.52449 3.68753 8.76529 3.78383 8.96337 3.86255C9.009 3.88068 9.05278 3.89579 9.09227 3.91138C9.35152 3.6354 9.73529 3.22772 10.1284 2.83716C10.6139 2.35487 11.1014 1.91042 11.3618 1.67798C11.4711 1.58046 11.5804 1.48222 11.6626 1.41919C11.6933 1.39566 11.8119 1.30297 11.978 1.24243C12.0774 1.20623 12.2184 1.17124 12.3872 1.17993ZM18.5962 18.0286C18.0183 18.1356 17.2509 18.3 16.5991 18.4954C15.8262 18.727 15.2182 18.9978 14.853 19.1809C14.6637 19.2758 14.5611 19.3343 14.4966 19.3762C14.442 19.4117 14.4052 19.4415 14.354 19.4885C13.9676 19.8437 13.7786 20.0443 13.7085 20.1604C13.568 20.3929 13.4862 20.5393 13.4194 20.7825C13.3886 20.8946 13.3604 20.9993 13.3345 21.095C13.4025 21.099 13.4756 21.1043 13.5552 21.1047C13.9773 21.1068 14.7354 21.1056 15.1977 21.0891C15.6461 21.0731 15.7665 21.048 15.8677 21.0247C16.2391 20.9391 16.5098 20.8687 16.7593 20.7327C17.1923 20.4964 17.4734 20.3362 17.6724 20.1467C17.816 20.0099 17.9164 19.9034 18.0073 19.7698C18.0966 19.6384 18.1962 19.4499 18.2895 19.1487C18.3843 18.843 18.496 18.4208 18.5962 18.0286ZM4.57274 17.2678C4.58445 17.308 4.60136 17.3593 4.6245 17.4211C4.67188 17.5476 4.73325 17.6887 4.80321 17.8489C4.91471 18.1041 5.04143 18.3265 5.18309 18.5334C5.45332 18.9281 5.78455 19.2494 6.08544 19.511C6.08796 19.5131 6.14193 19.5574 6.33837 19.6448C6.53727 19.7332 6.83271 19.8447 7.28368 19.9973C7.82158 20.1793 8.68054 20.3626 9.28563 20.4905C9.6874 20.5754 9.97486 20.6265 10.185 20.6614C10.0474 20.4686 9.76776 20.1731 9.33837 19.7834C8.91571 19.3999 8.39979 19.0049 7.94091 18.6985C7.50479 18.4073 7.14386 18.2125 6.5493 17.9631C5.93238 17.7044 5.09396 17.4012 4.56102 17.2219L4.57274 17.2678ZM12.2407 3.5813C12.0271 3.77938 11.7812 4.01308 11.5376 4.25513C11.0838 4.70593 10.6543 5.17255 10.3882 5.45337C10.3295 5.51534 10.2523 5.59687 10.1743 5.66724C10.0956 5.73824 9.96176 5.84907 9.77587 5.92798C9.33205 6.11632 8.93388 5.98141 8.79637 5.93677C8.62999 5.88275 8.41377 5.79594 8.22509 5.72095C8.01983 5.63938 7.81458 5.55774 7.62255 5.4895C7.55164 5.46431 7.48223 5.4418 7.41552 5.42017C7.44771 5.76947 7.48895 6.17332 7.53954 6.61255C7.64774 7.55177 7.79807 8.62297 7.93114 9.35669C8.06073 10.0711 8.16967 10.432 8.22802 10.6331C8.29744 10.8724 8.31627 10.9323 8.36864 11.0559C8.41993 11.1769 8.51579 11.334 8.63427 11.5022C8.63823 11.5054 8.64316 11.5094 8.64891 11.5139C8.70243 11.5555 8.78674 11.6144 8.93993 11.7151C9.06914 11.8 9.29536 11.9227 9.58641 12.0422C9.88269 12.1639 10.2083 12.2598 10.5483 12.3723C10.9284 12.4981 11.0171 12.5406 11.1675 12.5813C11.2369 12.6001 11.3074 12.6142 11.5698 12.6223C11.8431 12.6307 12.2449 12.6304 12.5161 12.6213C12.7508 12.6135 12.8306 12.6019 12.9966 12.5598C13.2105 12.5056 13.5162 12.4101 13.6958 12.345C13.7577 12.3225 13.7809 12.3116 13.7866 12.3088C13.7921 12.3051 13.8093 12.2932 13.8491 12.262C13.9673 12.169 14.1466 12.0179 14.3472 11.7971C14.5336 11.5919 14.7539 11.3091 15.062 10.7356C15.3795 10.1447 15.7712 9.27678 16.0747 8.46118C16.3752 7.65347 16.5774 6.92249 16.6948 6.45923C16.8048 6.02548 16.8186 5.9165 16.8315 5.62524C16.8352 5.54306 16.8358 5.44984 16.8384 5.35181C16.3579 5.55891 15.8224 5.78959 15.479 5.92896C15.3506 5.98108 15.194 6.04359 15.0454 6.08423C14.8969 6.12482 14.6325 6.18028 14.3296 6.10083C14.0064 6.01588 13.8002 5.8215 13.685 5.6897C13.5847 5.57478 13.4943 5.43608 13.4409 5.35571C13.1699 4.94753 12.6799 4.19854 12.3423 3.71899C12.3076 3.66972 12.2722 3.6248 12.2407 3.5813Z" fill="black"/>
</svg>
