<svg width="24" height="24" viewBox="0 0 24 24" fill="none" xmlns="http://www.w3.org/2000/svg">
<path d="M19.0841 16.1816C19.2666 16.1902 19.5511 16.2165 19.8273 16.3564L19.9445 16.4238L20.0616 16.5078C20.6073 16.9423 20.5773 17.608 20.5548 17.8418C20.5268 18.1316 20.4268 18.4921 20.4064 18.5811C20.315 18.9786 20.0946 19.4372 19.9435 19.7725C19.766 20.1662 19.4933 20.4902 19.2921 20.7295C18.8499 21.2555 18.2954 21.4997 17.8087 21.7002C17.4038 21.867 16.8343 22.0222 16.255 22.1416C15.645 22.2673 15.001 22.3411 14.3829 22.3809C13.7652 22.4206 13.1814 22.4244 12.8683 22.4248C12.5629 22.4252 12.4843 22.4225 12.4005 22.415C12.3765 22.4129 12.3549 22.4114 12.3243 22.4092C12.2171 22.4014 12.1152 22.3762 12.0206 22.3379C11.8742 22.3801 11.674 22.4204 11.5236 22.4492L11.5226 22.4473C11.2628 22.5013 10.9519 22.5363 10.2169 22.5244C9.64837 22.5152 8.65355 22.4888 7.93958 22.415C7.21657 22.3403 6.75614 22.2273 6.42591 22.1016C5.97321 21.9291 5.4754 21.6387 4.94739 21.0811C4.55139 20.6628 4.15091 20.212 3.95813 19.8379C3.95813 19.8379 3.95681 19.8359 3.9552 19.833C3.95347 19.8298 3.95072 19.8252 3.94739 19.8193C3.94011 19.8065 3.93169 19.7913 3.91907 19.7695C3.89507 19.7281 3.86056 19.6683 3.82337 19.5996C3.7463 19.4571 3.6572 19.2746 3.57337 19.0439C3.50582 18.858 3.42236 18.6188 3.36634 18.374C3.31315 18.1415 3.2612 17.8074 3.33118 17.458C3.37554 17.2368 3.50086 16.9313 3.81653 16.7246C3.95166 16.6363 4.07935 16.5956 4.16126 16.5752C4.23125 16.5578 4.29779 16.5488 4.30481 16.5479C4.44205 16.5283 4.57168 16.5199 5.10364 16.5176C5.64627 16.5153 6.63325 16.5196 7.20227 16.5303C7.76031 16.5408 7.96943 16.5533 8.21302 16.5967C8.59507 16.6647 9.1055 16.782 9.70911 17.0498C9.99787 17.1779 10.3692 17.3537 10.6827 17.5537C11.1376 17.8439 11.4422 18.0729 11.6144 18.2451C11.6937 18.3244 11.9717 18.5216 12.2902 18.9473C12.3201 18.9113 12.3501 18.8736 12.382 18.8359C12.6893 18.4734 13.2312 18.0195 13.4445 17.8281C13.882 17.4355 14.1701 17.2551 14.5743 17.0537C14.8463 16.9183 15.2462 16.7571 15.5031 16.6572C15.8457 16.524 16.0676 16.4662 16.5626 16.3965C17.0187 16.3323 17.7622 16.25 18.3146 16.207C18.5842 16.1861 18.8506 16.1707 19.0841 16.1816ZM5.51575 18.5176C5.58019 18.6607 5.63385 18.7225 5.73645 18.9219C5.73717 18.9233 5.74046 18.9296 5.7472 18.9404C5.75539 18.9535 5.76732 18.9715 5.78333 18.9941C5.8161 19.0404 5.86072 19.0998 5.92005 19.1719C6.03963 19.3171 6.20005 19.4953 6.39954 19.7061C6.71585 20.0401 6.95885 20.1642 7.13782 20.2324C7.2574 20.278 7.53615 20.3628 8.14563 20.4258C8.7642 20.4896 9.68056 20.5162 10.2491 20.5254C10.5852 20.5308 10.79 20.5242 10.9171 20.5156C10.8932 20.4725 10.8708 20.4285 10.8468 20.3867C10.719 20.1639 10.6242 20.0545 10.5568 19.9863C10.5177 19.9469 10.4782 19.9112 10.42 19.8604C10.3681 19.8148 10.2835 19.7423 10.2003 19.6592C10.1966 19.6559 10.1589 19.6205 10.0636 19.5498C9.96288 19.4751 9.8144 19.3728 9.60657 19.2402C9.42411 19.1238 9.1652 18.9967 8.89759 18.8779C8.48645 18.6956 8.14312 18.6164 7.86243 18.5664C7.79149 18.5538 7.7255 18.5408 7.16419 18.5303C6.7342 18.5222 6.04825 18.5183 5.51575 18.5176ZM18.4357 18.2031C17.9276 18.2436 17.2466 18.3198 16.8409 18.377C16.6348 18.406 16.5301 18.4255 16.4581 18.4434C16.3947 18.4591 16.3388 18.4777 16.2286 18.5205C15.9722 18.6202 15.648 18.7531 15.4659 18.8438C15.2124 18.9701 15.0759 19.0512 14.7804 19.3164C14.4523 19.6108 14.0975 19.9046 13.9074 20.1289C13.8207 20.2312 13.7457 20.3265 13.6779 20.4111C13.861 20.4051 14.0569 20.3975 14.255 20.3848C14.8093 20.3491 15.357 20.2846 15.8517 20.1826C16.3769 20.0743 16.8083 19.9499 17.047 19.8516C17.5249 19.6547 17.6615 19.5605 17.7609 19.4424C17.9821 19.1792 18.0732 19.0553 18.1202 18.9512C18.2925 18.569 18.3891 18.3519 18.4357 18.2031ZM5.62317 9.00684C5.92723 9.0002 6.46261 8.99964 6.97767 9.03418C7.44849 9.06576 7.98786 9.11194 8.45227 9.24512C8.77003 9.33625 9.02059 9.41366 9.21106 9.48047C9.32858 9.52169 9.47933 9.57735 9.61927 9.65137L9.75403 9.73145L10.0558 9.95117C10.1403 10.0164 10.207 10.0716 10.2511 10.1084C10.3463 10.1879 10.6973 10.4903 11.1525 10.9717C11.3729 11.2048 11.5147 11.391 11.6486 11.6611C11.7032 11.7715 11.7608 11.9022 11.8175 12.0518C11.8836 11.9869 11.953 11.9179 12.0265 11.8467C12.3395 11.5435 12.7685 11.1423 13.0773 10.8711C13.3964 10.5908 13.5905 10.4468 13.7677 10.3301C13.9537 10.2076 14.1012 10.129 14.3527 10.0137C14.6039 9.89849 15.0042 9.72556 15.5616 9.57715C16.1064 9.43216 16.7742 9.31977 17.3781 9.26172C17.9899 9.20291 18.5215 9.20315 18.8663 9.21387C19.1449 9.22254 19.4632 9.23687 19.7286 9.34766C19.7917 9.37396 20.0164 9.46883 20.1906 9.70898C20.3756 9.96429 20.3957 10.2275 20.3927 10.3672C20.3882 10.5722 20.3197 10.7919 20.295 10.8779C20.2134 11.1626 20.052 11.6834 19.9171 12.0703C19.7757 12.4758 19.6614 12.7405 19.5079 13.0293C19.365 13.2981 19.1897 13.5846 19.0294 13.8105C18.7255 14.239 18.436 14.4815 18.1583 14.6602C17.974 14.7787 17.7493 14.8894 17.4435 15.0117C17.1345 15.1353 16.7205 15.2739 16.3859 15.374C16.0057 15.4877 15.7046 15.5555 15.1085 15.6094C14.5501 15.6598 13.7077 15.6997 13.2609 15.7168H13.2452C12.7683 15.7272 12.5284 15.7125 12.2667 15.6279V15.6299C12.2236 15.617 12.2078 15.6145 12.0724 15.5781C12.0097 15.5612 11.9507 15.5374 11.8947 15.5098C11.8303 15.5501 11.7756 15.5786 11.7384 15.5947C11.6219 15.6452 11.5112 15.6722 11.4337 15.6875C11.2763 15.7185 11.0941 15.7338 10.9122 15.7432C10.6571 15.7563 10.3334 15.7584 9.79505 15.7178C9.27227 15.6783 8.5544 15.5995 8.13489 15.5439C7.68652 15.4846 7.50641 15.4433 7.22571 15.3447C7.0127 15.2699 6.6921 15.1481 6.39563 15C6.09387 14.8493 5.84613 14.6868 5.68079 14.5703C5.4851 14.4324 5.36944 14.3318 5.15735 14.126C4.96102 13.9354 4.64184 13.6157 4.36145 13.2861C4.09994 12.9787 3.82564 12.6317 3.62122 12.2402C3.3298 11.6821 3.14494 11.2662 3.07044 11.0244C3.00778 10.8207 3.01443 10.6123 3.07532 10.4238C2.98857 9.96528 3.23361 9.49348 3.68274 9.31152C3.72019 9.29635 3.7819 9.27147 3.86048 9.24512L3.87122 9.24219L3.88099 9.23828C4.0205 9.19489 4.22155 9.16384 4.36341 9.14258C4.53965 9.11617 4.76105 9.08682 5.00403 9.05664V9.05762C5.18421 9.03303 5.28635 9.0142 5.62317 9.00684ZM5.66712 11.0059C5.53628 11.0087 5.47812 11.0131 5.44153 11.0166C5.39561 11.0211 5.37307 11.0248 5.26087 11.04H5.25599C5.29754 11.1235 5.34291 11.2153 5.39466 11.3145C5.49209 11.5011 5.64652 11.71 5.88489 11.9902C6.10413 12.2479 6.37066 12.5165 6.55091 12.6914C6.64054 12.7784 6.68757 12.8214 6.72181 12.8506C6.75088 12.8753 6.77865 12.8971 6.83313 12.9355C6.94763 13.0162 7.10616 13.1195 7.28919 13.2109C7.47773 13.3051 7.70984 13.3942 7.8888 13.457C7.96943 13.4853 8.0029 13.4957 8.04895 13.5059C8.10753 13.5188 8.20164 13.5346 8.39759 13.5605C8.78803 13.6122 9.46745 13.6875 9.94544 13.7236C10.0405 13.7308 10.1268 13.7351 10.2042 13.7393C10.1638 13.5567 10.108 13.3119 10.0187 12.9756C9.97342 12.8053 9.91417 12.665 9.85657 12.5488C9.83669 12.5087 9.8252 12.4931 9.81458 12.4785C9.79978 12.4582 9.77041 12.4209 9.69935 12.3457C9.30722 11.931 9.0153 11.6823 8.96888 11.6436C8.90998 11.5944 8.80082 11.5062 8.66419 11.4111C8.64025 11.4013 8.6029 11.3871 8.54895 11.3682C8.41155 11.32 8.203 11.2547 7.90052 11.168C7.66579 11.1007 7.32419 11.0615 6.84388 11.0293C6.40738 11 5.93541 11 5.66712 11.0059ZM17.5695 11.252C17.0549 11.3014 16.4974 11.3977 16.0763 11.5098C15.668 11.6185 15.3807 11.7431 15.1866 11.832C14.9933 11.9207 14.9417 11.951 14.8673 12C14.7838 12.055 14.6641 12.14 14.3976 12.374C14.1202 12.6176 13.7148 12.995 13.4171 13.2832C13.2047 13.4889 13.0688 13.6257 12.9825 13.7158C13.034 13.716 13.1004 13.7186 13.1857 13.7168C13.6279 13.6999 14.4257 13.6626 14.9288 13.6172C15.3937 13.5752 15.563 13.5327 15.8126 13.458C16.1082 13.3696 16.4623 13.2495 16.7003 13.1543C16.9414 13.0579 17.0388 13.0017 17.0763 12.9775C17.127 12.9449 17.1691 12.9143 17.213 12.873C17.2585 12.8302 17.3207 12.7631 17.3986 12.6533C17.5035 12.5053 17.6337 12.2923 17.7413 12.0898C17.8383 11.9074 17.9141 11.7399 18.0284 11.4121C18.0497 11.3513 18.0695 11.2851 18.0919 11.2178C17.9292 11.2245 17.7534 11.2343 17.5695 11.252ZM11.6115 0.258789C11.9421 0.122853 12.3352 0.169442 12.63 0.413086C12.6318 0.41457 12.6332 0.416553 12.6349 0.417968C12.6739 0.433989 12.7235 0.454282 12.7784 0.480468L12.7794 0.479492C12.7794 0.479492 12.7807 0.480262 12.7833 0.481445C12.7867 0.482953 12.7915 0.485403 12.798 0.488281C12.8088 0.493094 12.8314 0.503001 12.8527 0.512695C12.8989 0.533732 12.964 0.564421 13.0372 0.606445C13.1535 0.673255 13.2767 0.760721 13.3986 0.876953L13.5197 1.00293L13.672 1.18457C13.8393 1.39546 14.0476 1.69606 14.2491 2.10059C14.3914 2.38607 14.5189 2.70407 14.6193 3.01953C14.7196 3.33496 14.7907 3.64013 14.838 3.9082C14.8915 4.21097 14.9143 4.46758 14.9034 4.92285C14.8933 5.34756 14.8546 5.96625 14.8077 6.4043C14.759 6.85949 14.7011 7.1295 14.6495 7.32519C14.5903 7.54978 14.5339 7.70163 14.3829 7.95996C14.2486 8.18984 14.12 8.40572 14.0079 8.57715C13.9522 8.66237 13.8918 8.74995 13.8302 8.8291C13.7818 8.89124 13.6804 9.01753 13.5392 9.12207C13.49 9.15848 13.2553 9.3463 13.089 9.45996C12.9717 9.54014 12.7931 9.66629 12.6398 9.75293C12.5619 9.7969 12.4355 9.86284 12.2843 9.90625C12.1518 9.94428 11.8251 10.0163 11.4718 9.84473C11.2152 9.71998 10.995 9.49671 10.8156 9.31348C10.5918 9.08501 10.2363 8.70529 9.92005 8.25586C9.61384 7.82068 9.35599 7.35174 9.21985 7.06055C9.03467 6.66434 8.876 6.21319 8.91614 5.49316C8.93159 5.21625 8.96635 4.74256 9.00696 4.38281C9.049 4.01039 9.09712 3.76113 9.14466 3.5625C9.19219 3.36392 9.23882 3.20251 9.34583 2.95703C9.54214 2.50681 9.714 2.17003 9.79895 2.02637C9.85361 1.93401 10.0203 1.61939 10.4171 1.23047C10.9984 0.660816 11.0996 0.56466 11.1749 0.495117C11.303 0.376881 11.4535 0.29799 11.6115 0.258789ZM21.0206 4.60449C21.5709 4.65185 21.9791 5.13631 21.9318 5.68652C21.9165 5.86354 21.86 6.0423 21.8204 6.16797C21.7713 6.32386 21.6945 6.55426 21.5831 6.88867L21.5734 6.91602L21.5626 6.94238C21.3606 7.44912 21.2014 7.81706 21.129 7.9707L21.13 7.97168C21.1202 7.9933 21.1137 8.00798 21.0802 8.09277C20.8773 8.6063 20.2969 8.85892 19.7833 8.65625C19.2698 8.45327 19.0179 7.872 19.2208 7.3584C19.2472 7.29166 19.2738 7.2214 19.3097 7.14258L19.3136 7.13379L19.3185 7.12402C19.3537 7.05089 19.4937 6.73331 19.6984 6.2207C19.8065 5.89612 19.872 5.69823 19.9132 5.56738C19.9332 5.50391 19.9438 5.46962 19.9484 5.45215C20.0258 4.93434 20.4918 4.55927 21.0206 4.60449ZM2.86927 4.02148C3.4117 3.91954 3.9348 4.27604 4.03724 4.81836C4.21553 5.76509 4.36635 6.60826 4.44153 7.03516C4.47879 7.2467 4.4985 7.3613 4.50892 7.4248C4.5141 7.45629 4.53133 7.54998 4.53138 7.65332C4.53138 8.20542 4.08341 8.65303 3.53138 8.65332C3.01261 8.65332 2.58612 8.25858 2.53626 7.75293C2.53601 7.75142 2.53556 7.74975 2.53528 7.74805C2.52701 7.69762 2.50923 7.59432 2.47181 7.38184C2.39747 6.95979 2.24872 6.12575 2.07239 5.18945C1.97023 4.64689 2.32682 4.12393 2.86927 4.02148ZM2.53138 7.67578C2.53172 7.68994 2.53239 7.70408 2.53333 7.71777C2.53384 7.72519 2.53569 7.73218 2.53626 7.73828C2.53391 7.71035 2.53138 7.68186 2.53138 7.65332C2.53137 7.65332 2.53109 7.66365 2.53138 7.67578ZM11.8175 2.65918C11.7143 2.76034 11.6509 2.83951 11.6134 2.89258C11.5727 2.95031 11.5625 2.97411 11.5206 3.04492L11.5197 3.0459C11.5192 3.04677 11.5186 3.04831 11.5177 3.0498C11.5158 3.05308 11.513 3.05787 11.5099 3.06348C11.5035 3.07502 11.4955 3.0904 11.4855 3.10937C11.4651 3.14788 11.4383 3.19909 11.4074 3.26172C11.3455 3.38696 11.2667 3.55436 11.1788 3.75586C11.1297 3.86845 11.1174 3.91354 11.09 4.02832C11.0625 4.14312 11.0276 4.31175 10.9943 4.60742C10.9594 4.91613 10.9275 5.34889 10.9132 5.60449C10.9034 5.77974 10.9181 5.88393 10.9337 5.95215C10.9499 6.0228 10.9754 6.0932 11.0314 6.21289C11.121 6.40465 11.3214 6.77129 11.5558 7.10449C11.7183 7.3354 11.9062 7.54931 12.0704 7.72656C12.1266 7.68383 12.1716 7.64997 12.2687 7.57617C12.2839 7.55508 12.3062 7.52504 12.3341 7.48242C12.4165 7.35641 12.5233 7.17884 12.6564 6.95117C12.6865 6.89968 12.6967 6.87771 12.6993 6.87207C12.7012 6.86628 12.7056 6.85014 12.715 6.81445C12.739 6.72316 12.7797 6.55351 12.8185 6.19141C12.8591 5.81216 12.8945 5.2487 12.9034 4.875C12.9116 4.53205 12.8964 4.40949 12.8693 4.25586C12.836 4.06759 12.785 3.84938 12.714 3.62598C12.6428 3.40235 12.5527 3.17995 12.4591 2.99219C12.3202 2.71343 12.1815 2.52222 12.0822 2.40039C12.008 2.47295 11.9204 2.55836 11.8175 2.65918Z" fill="black"/>
</svg>
