<svg width="24" height="24" viewBox="0 0 24 24" fill="none" xmlns="http://www.w3.org/2000/svg">
<path d="M11.1648 1.47131C11.9085 1.37163 13.0778 1.47617 13.3601 1.49573C13.8804 1.53172 14.4064 1.61852 14.7498 1.69885C15.1555 1.79378 16.1435 2.13998 16.7292 2.38635C16.9598 2.48334 17.3332 2.67639 17.8025 2.90979C18.5509 3.28204 19.0695 3.67911 19.4314 4.08948C20.0327 4.77141 20.4129 5.40985 20.5564 5.64709C20.6935 5.87382 20.9022 6.20685 21.1511 6.73499C21.5085 7.49352 21.7291 8.26147 21.8572 8.81897C22.0441 9.63255 21.9992 9.99842 22.0076 10.2555C22.0122 10.3977 22.0263 10.8136 22.0232 11.3717C22.019 12.1247 21.9343 13.1069 21.8884 13.5221C21.8661 13.7238 21.7913 14.2561 21.6443 14.9811C21.5555 15.4187 21.4256 15.7389 21.3611 15.9518C21.1635 16.604 20.9346 17.5245 20.7097 18.0709C20.5152 18.5435 20.2714 18.8811 20.033 19.1295C19.9165 19.2508 19.8083 19.3445 19.7244 19.4127C19.6855 19.4443 19.6458 19.4751 19.6248 19.4918C19.6062 19.5066 19.5979 19.5132 19.5955 19.5153C18.9797 20.0615 17.9737 20.7617 17.741 20.9293C17.4259 21.1562 17.0641 21.3523 16.6921 21.5026C16.3192 21.6531 15.8565 21.7361 14.5691 21.8024C13.2524 21.8701 10.9559 21.911 9.6687 21.9283C8.40142 21.9454 8.08504 21.9418 7.67749 21.8854C6.90561 21.7785 6.30486 21.6044 6.01636 21.4772C5.78627 21.3757 5.54512 21.2413 5.08862 20.8424C4.73753 20.5356 4.23288 20.0097 3.78003 19.5006C2.89932 18.5105 2.43267 17.8343 2.32104 17.6178C2.19813 17.3793 2.04418 17.0884 1.78296 16.4801C1.66614 16.2081 1.59295 15.9244 1.5271 15.6334C1.49365 15.4856 1.4585 15.3199 1.42065 15.1422C1.38226 14.9619 1.33915 14.7616 1.28784 14.5338C1.18519 14.0781 1.21708 13.7209 1.21948 13.2906C1.22217 12.806 1.27212 11.9544 1.31128 11.3727C1.37489 10.4278 1.43955 10.0117 1.48901 9.58459C1.53763 9.16475 1.64899 8.39569 1.74292 7.86389C1.9007 6.97066 2.17892 6.30076 2.45776 5.65881C2.76431 4.9531 3.13285 4.45724 3.45093 4.08459C4.21215 3.19287 4.84616 2.88105 5.25366 2.69104C5.85014 2.41293 6.33441 2.4076 6.56128 2.39319C6.56566 2.39269 6.59159 2.39029 6.65308 2.38245C6.72006 2.3739 6.80913 2.36179 6.92163 2.34631C7.14423 2.31569 7.45041 2.27284 7.82397 2.22327C8.67038 2.11095 8.98099 1.94236 9.53101 1.81213C9.539 1.81024 9.54743 1.8099 9.55542 1.80823C9.56118 1.80702 9.5672 1.80448 9.573 1.80334C9.73759 1.77171 9.9891 1.71177 10.2966 1.64221C10.5759 1.57904 10.9108 1.5054 11.1648 1.47131ZM13.2224 3.49084C12.8162 3.46273 11.9175 3.38844 11.4304 3.45374C11.2797 3.47398 11.0323 3.52585 10.738 3.59241C10.4892 3.64868 10.1982 3.71717 9.99194 3.75842C9.81064 3.80139 9.02671 4.08095 8.08667 4.20569C7.71943 4.25442 7.42094 4.29655 7.19409 4.32776C6.99375 4.35532 6.79644 4.38241 6.68921 4.38928C6.53514 4.39909 6.46767 4.40034 6.37573 4.41565C6.29973 4.42833 6.21097 4.45153 6.09937 4.50354C5.94421 4.57588 5.80224 4.64396 5.63159 4.76331C5.46047 4.883 5.23922 5.06994 4.97241 5.38245C4.73778 5.65731 4.4957 5.98529 4.29175 6.45471C4.02517 7.0684 3.82763 7.56069 3.71265 8.21155C3.62539 8.70556 3.52023 9.43501 3.47632 9.81409C3.42272 10.2769 3.3668 10.6237 3.30737 11.5065C3.2676 12.0973 3.22178 12.8882 3.21948 13.3014C3.21872 13.4381 3.21697 13.5544 3.21558 13.6471C3.21413 13.7431 3.21359 13.8095 3.2146 13.8658C3.21632 13.961 3.22165 14.0162 3.23901 14.0934C3.29303 14.3332 3.33792 14.5431 3.37671 14.7252C3.41603 14.9099 3.44835 15.0598 3.47827 15.192C3.53919 15.4612 3.58 15.5959 3.62085 15.691C3.85376 16.2334 3.98235 16.4747 4.09937 16.7018C4.08225 16.6685 4.14648 16.783 4.36011 17.067C4.5567 17.3284 4.85611 17.7015 5.27417 18.1715C5.71035 18.6618 6.14954 19.1133 6.40503 19.3365C6.5826 19.4917 6.68397 19.5653 6.73706 19.6002C6.77685 19.6264 6.79093 19.633 6.823 19.6471C6.823 19.6471 6.83167 19.6503 6.84937 19.6569C6.86691 19.6634 6.89055 19.6724 6.92065 19.6823C6.98166 19.7021 7.06355 19.7258 7.16382 19.7516C7.36443 19.8032 7.63155 19.8597 7.95093 19.9039C8.17801 19.9354 8.32939 19.946 9.64136 19.9283C10.9343 19.9109 13.1939 19.8708 14.4666 19.8053C15.7663 19.7384 15.9173 19.6586 15.9431 19.6481C16.1768 19.5537 16.3959 19.4331 16.572 19.3063C16.8666 19.0941 17.7512 18.4779 18.2683 18.0192C18.3114 17.981 18.3545 17.9459 18.3816 17.9244C18.4149 17.8981 18.4365 17.8822 18.4626 17.861C18.509 17.8233 18.5502 17.7868 18.5906 17.7448C18.666 17.6662 18.7665 17.5375 18.8601 17.3102C19.0382 16.8776 19.1885 16.2264 19.447 15.3727C19.5846 14.9185 19.6179 14.9109 19.6843 14.5836C19.8219 13.9053 19.8867 13.4332 19.9011 13.3024C19.9432 12.9217 20.0195 12.0155 20.0232 11.36C20.0261 10.8397 20.0129 10.4537 20.0085 10.3209C20.0052 10.2175 20.0065 10.1189 20.0066 10.0514C20.0067 9.97884 20.0062 9.92082 20.0027 9.85803C19.996 9.73967 19.9769 9.56643 19.908 9.26624C19.7992 8.79276 19.6185 8.17335 19.3425 7.58752C19.1438 7.16584 18.986 6.91622 18.8445 6.68225C18.7093 6.45882 18.4065 5.95157 17.9314 5.41272C17.7766 5.23723 17.4833 4.98503 16.9119 4.70081C16.373 4.4328 16.1067 4.29438 15.9539 4.2301C15.4119 4.00213 14.5412 3.70404 14.2937 3.64612C14.0526 3.58975 13.6333 3.51928 13.2224 3.49084ZM11.6404 7.17639C12.1925 7.19079 12.6284 7.65066 12.614 8.20276C12.6083 8.42055 12.6028 8.6375 12.5505 9.79749C12.506 10.7862 12.4267 12.4602 12.3416 14.274C12.9488 13.986 13.6629 13.6443 14.1794 13.3815C14.9431 12.9929 15.2234 12.8086 15.3728 12.7086C15.4632 12.6481 15.4975 12.6235 15.5125 12.6119L15.5193 12.6051C15.5215 12.603 15.5254 12.5999 15.531 12.5944C15.9234 12.2057 16.5564 12.2088 16.9451 12.6012C17.3334 12.9936 17.3305 13.6267 16.9382 14.0153C16.7994 14.1527 16.6901 14.2329 16.4841 14.3707C16.2612 14.5198 15.9114 14.7436 15.0857 15.1637C14.2747 15.5763 13.0246 16.1694 12.3787 16.4684C12.0645 16.6138 11.869 16.7029 11.7468 16.7526C11.6948 16.7737 11.5998 16.8108 11.4939 16.8346C11.3332 16.8705 11.128 16.8796 10.908 16.8024C10.6844 16.7238 10.4786 16.5846 10.1609 16.3463C9.87587 16.1325 9.37293 15.7452 8.86011 15.2809C8.35043 14.8193 7.85695 14.3064 7.56226 13.985C7.25462 13.6494 7.14224 13.4994 7.03394 13.3512C6.70828 12.9053 6.80588 12.2795 7.25171 11.9537C7.69759 11.6281 8.32338 11.7257 8.64917 12.1715C8.69123 12.2291 8.72288 12.272 8.77319 12.3336C8.82571 12.3979 8.90449 12.4901 9.03589 12.6334C9.30342 12.9252 9.75272 13.3908 10.2029 13.7985C10.2533 13.8441 10.3051 13.8873 10.3552 13.9313C10.4359 12.2142 10.5101 10.649 10.5525 9.70764C10.6046 8.55107 10.6098 8.34885 10.615 8.15002C10.6295 7.59834 11.0887 7.16244 11.6404 7.17639Z" fill="black"/>
</svg>
