<svg width="24" height="24" viewBox="0 0 24 24" fill="none" xmlns="http://www.w3.org/2000/svg">
<path d="M16.9365 5.81348C17.4888 5.81349 17.9365 6.2612 17.9365 6.81348C17.9365 6.82208 17.9365 6.83381 17.9277 7.7207C17.9189 8.61287 17.9016 10.4069 17.8642 11.8477C17.8267 13.2929 17.7695 14.3275 17.7363 14.8887C17.6955 15.5785 17.6208 15.8672 17.5234 16.1934C17.4732 16.3614 17.4037 16.6226 17.25 16.876C17.1221 17.0866 16.9432 17.2163 16.8789 17.2627C16.7859 17.3299 16.6842 17.3919 16.5918 17.4443C16.4061 17.5496 16.1707 17.6678 15.9306 17.7871C15.5029 17.9997 15.1541 18.003 14.7314 18.0137C14.2491 18.0258 13.5495 18.0249 12.8389 18.0586C12.1477 18.0914 11.5178 18.1559 11.0478 18.2324C10.8135 18.2706 10.6231 18.311 10.4062 18.3545C10.1937 18.3971 9.9628 18.4416 9.69432 18.4727C9.17772 18.5324 8.57076 18.5359 8.26854 18.5352H8.24803L8.22752 18.5342C7.83041 18.5166 7.70486 18.5103 7.58592 18.5117C7.58258 18.512 7.57792 18.5131 7.57127 18.5137C7.557 18.515 7.49348 18.5205 7.41893 18.5195C6.8669 18.5125 6.42488 18.0599 6.43163 17.5078C6.43845 16.9556 6.89208 16.5137 7.44432 16.5205C7.42191 16.5202 7.40316 16.5208 7.39256 16.5215H7.39159C7.39973 16.5207 7.41722 16.5191 7.43748 16.5176C7.45882 16.516 7.48306 16.5139 7.51073 16.5127H7.53709C7.73388 16.5093 7.93019 16.5184 8.28709 16.5342C8.58846 16.5348 9.08214 16.5296 9.46483 16.4854C9.64844 16.4641 9.81366 16.4335 10.0127 16.3936C10.2076 16.3545 10.4454 16.3044 10.7256 16.2588C11.2849 16.1677 11.9928 16.0962 12.7441 16.0605C13.4761 16.0258 14.2792 16.0247 14.6806 16.0146C14.712 16.0139 14.7408 16.0115 14.7676 16.0107C14.5345 15.733 14.3182 15.4759 14.1328 15.2656C13.9648 15.0751 13.8323 14.9282 13.124 14.333C12.422 13.7431 11.1395 12.7015 10.3135 11.9893C9.47414 11.2656 9.04698 10.8433 8.80955 10.584C8.68062 10.4431 8.59407 10.3375 8.50096 10.2275C8.40649 10.116 8.2766 9.96573 8.03319 9.7002C7.69822 9.33481 6.98841 8.58636 6.65623 8.21582C6.29582 7.81375 6.17482 7.66537 6.03319 7.41406C5.76226 6.93307 5.93234 6.32297 6.41307 6.05176C6.89413 5.7808 7.50421 5.95076 7.77538 6.43164C7.799 6.47358 7.80689 6.48612 7.8369 6.52441C7.88301 6.58321 7.96587 6.68047 8.14549 6.88086C8.48395 7.2584 9.11013 7.91485 9.5078 8.34863C9.76895 8.63351 9.91586 8.80394 10.0273 8.93555C10.1397 9.06826 10.1899 9.13034 10.2851 9.23438C10.4486 9.41289 10.8115 9.77741 11.6201 10.4746C12.4429 11.1839 13.6553 12.1667 14.4111 12.8018C15.16 13.4311 15.3745 13.6493 15.6338 13.9434C15.6799 13.9957 15.7257 14.052 15.7744 14.1084C15.8034 13.5382 15.8392 12.7612 15.8642 11.7959C15.9011 10.374 15.9188 8.59644 15.9277 7.70117C15.9322 7.25435 15.9344 7.03038 15.9355 6.91797C15.9361 6.86184 15.9364 6.83363 15.9365 6.81934V6.81348C15.9365 6.26129 16.3844 5.81363 16.9365 5.81348Z" fill="black"/>
</svg>
