<svg width="24" height="24" viewBox="0 0 24 24" fill="none" xmlns="http://www.w3.org/2000/svg">
<path d="M10.8519 1.11185C11.0881 1.08708 11.6512 1.04726 12.2797 1.13235C12.7446 1.19532 13.1588 1.23974 13.5736 1.29153C13.9618 1.34001 14.3569 1.39592 14.682 1.47806C15.4972 1.68413 16.0568 1.92067 16.2758 2.00638C16.665 2.15877 17.2788 2.46969 18.475 3.22708C19.1288 3.64124 19.5161 4.08736 19.7504 4.33743C20.254 4.87502 20.8693 5.46066 21.3695 6.24759C21.7508 6.84764 22.0299 7.6627 22.2767 8.46536C22.4313 8.96818 22.5047 9.46037 22.5629 10.0962C22.6291 10.82 22.6569 11.4173 22.6654 11.856C22.6733 12.2613 22.6667 12.596 22.6439 12.7574C22.5913 13.1295 22.4032 13.9066 22.2211 14.5865C22.0172 15.3476 21.8438 15.7293 21.6058 16.3296C21.365 16.937 21.0207 17.6522 20.4847 18.646C20.2295 19.1192 19.9886 19.4643 19.7094 19.7408C19.4353 20.012 19.1551 20.1819 18.9515 20.312C18.6321 20.5162 18.2679 20.6634 17.9574 20.7788C17.6001 20.9116 17.3503 20.9906 17.0414 21.1128C16.1167 21.4787 15.723 21.6315 14.6976 21.9322C14.5939 21.9626 14.484 22.0027 14.3256 22.0601C14.1739 22.115 13.988 22.1824 13.7719 22.2505C13.3946 22.3694 12.7843 22.4599 11.8129 22.5542C11.1542 22.6182 10.3393 22.5885 9.8324 22.5659C8.54175 22.5086 7.95101 22.3444 7.33631 22.0757C6.55501 21.7341 5.71062 21.0068 5.10779 20.4741C4.6931 20.1077 4.39517 19.7087 4.12635 19.3911C3.71173 18.9014 3.46553 18.4628 3.2826 18.1616C2.96981 17.6468 2.76085 17.3133 2.599 17.0581C2.4396 16.8068 2.31386 16.6111 2.18103 16.3921C2.01544 16.1191 1.90695 15.8331 1.82947 15.6138C1.74025 15.3612 1.6967 15.2156 1.63123 15.0611C1.42751 14.5806 1.32023 14.2174 1.26404 13.5327C1.17332 12.4264 1.22297 11.5829 1.2699 11.2642C1.39147 10.4396 1.45115 10.0096 1.71033 9.00052C1.94552 8.08484 2.3761 7.40664 2.69666 6.74661C3.06099 5.99641 3.45892 5.14275 3.76209 4.5806C3.94606 4.23947 4.15536 3.97887 4.48865 3.72415C4.76462 3.51327 5.13828 3.29932 5.60291 3.03079C5.9093 2.8537 6.35903 2.56219 6.79041 2.3511C7.06172 2.2184 7.44071 2.11046 7.73767 2.03079C7.90055 1.9871 8.06931 1.9443 8.22498 1.90481C8.38366 1.86457 8.52821 1.82782 8.65564 1.79349C8.76533 1.76393 8.92388 1.71799 9.12049 1.66165C9.29576 1.61143 9.49435 1.55493 9.68689 1.50345C9.7534 1.47937 9.87476 1.42683 10.0453 1.35013C10.1222 1.31554 10.2114 1.2753 10.2875 1.24368C10.3252 1.22802 10.3736 1.20808 10.4232 1.19095C10.448 1.18239 10.4833 1.17129 10.5238 1.16067C10.5561 1.15224 10.6352 1.1327 10.7347 1.12649L10.8519 1.11185ZM12.0111 3.1138C11.5628 3.05313 11.225 3.08546 11.0131 3.10794C10.9741 3.12487 10.9257 3.14734 10.8656 3.17435C10.7878 3.20934 10.6929 3.25092 10.6029 3.28958C10.5168 3.32656 10.4107 3.37094 10.3099 3.40481L10.2787 3.41556L10.2474 3.42337C10.0613 3.47258 9.86033 3.53032 9.67127 3.5845C9.48894 3.63675 9.30603 3.68915 9.17615 3.72415C9.03149 3.76312 8.87102 3.80402 8.71619 3.84329C8.55831 3.88333 8.40281 3.92284 8.25525 3.96243C7.93161 4.04927 7.73953 4.11275 7.66931 4.147C7.31371 4.32101 7.06124 4.49791 6.60389 4.76224C6.08765 5.06059 5.85199 5.1996 5.70349 5.31302C5.61236 5.38266 5.5818 5.41866 5.52185 5.52981C5.24551 6.04225 4.88756 6.81332 4.49549 7.62063C4.05215 8.53349 3.81625 8.84211 3.64783 9.49759C3.41476 10.4051 3.3667 10.7539 3.24842 11.5562C3.22886 11.6893 3.1757 12.3744 3.25721 13.3687C3.29508 13.8302 3.34726 13.9865 3.47205 14.2808C3.56942 14.5106 3.65812 14.7861 3.71521 14.9478C3.78412 15.1428 3.83744 15.2667 3.89099 15.355C4.01017 15.5515 4.11879 15.7193 4.28846 15.9868C4.45601 16.2511 4.67211 16.5951 4.99256 17.1226C5.20584 17.4737 5.36234 17.7552 5.65271 18.0982C6.02138 18.5336 6.16182 18.7355 6.43299 18.9751C7.08906 19.5548 7.69621 20.0509 8.13709 20.2437C8.48029 20.3937 8.82017 20.519 9.92127 20.5679C10.4419 20.591 11.1215 20.6113 11.6195 20.563C12.6148 20.4664 13.0221 20.389 13.1703 20.3423C13.3408 20.2886 13.4893 20.2352 13.6439 20.1792C13.7917 20.1257 13.9612 20.0642 14.1351 20.0132C15.0786 19.7365 15.41 19.608 16.306 19.2534C16.62 19.1292 17.0159 18.9946 17.2601 18.9038C17.5512 18.7956 17.7457 18.7088 17.8744 18.6265C18.1207 18.469 18.2083 18.4128 18.3031 18.3189C18.393 18.2299 18.5233 18.069 18.724 17.6968C19.2434 16.7337 19.5468 16.0958 19.7465 15.5923C20.0021 14.9475 20.1217 14.6916 20.2885 14.0689C20.475 13.3723 20.6304 12.7113 20.6635 12.4781C20.661 12.4934 20.6745 12.3124 20.6664 11.8941C20.6588 11.5034 20.6335 10.9548 20.5717 10.2788C20.5186 9.6986 20.46 9.3637 20.3646 9.05325C20.1127 8.23377 19.8992 7.66439 19.681 7.32083C19.3113 6.73907 18.8929 6.34669 18.2914 5.70462C18.0306 5.42628 17.809 5.17264 17.4047 4.91653C16.238 4.17783 15.7543 3.94981 15.5472 3.86868C15.3093 3.77555 14.866 3.58674 14.1928 3.41653C14.0017 3.36824 13.7191 3.32505 13.3256 3.27591C12.9582 3.23005 12.4832 3.17773 12.0111 3.1138ZM11.6869 7.24759C11.8554 7.2052 12.0384 7.2015 12.224 7.24856C12.4032 7.29409 12.5437 7.3778 12.6156 7.42239C12.7695 7.51788 12.9772 7.67534 13.2513 7.88821C13.8341 8.34076 14.9085 9.21 15.4818 9.6802L15.4916 9.68802H15.4906C16.1008 10.2004 16.2827 10.3782 16.5277 10.5952C16.7015 10.7384 16.9748 10.9497 17.2943 11.189C17.7362 11.5199 17.8261 12.1474 17.4955 12.5894C17.1644 13.0314 16.5371 13.1216 16.0951 12.7906C15.7686 12.5461 15.4614 12.3093 15.2494 12.1343L15.2367 12.1245L15.225 12.1138C14.9125 11.8383 14.811 11.7286 14.2045 11.2193V11.2183C13.8176 10.9011 13.2114 10.4129 12.6879 9.99466C12.6834 10.1967 12.6774 10.4927 12.6635 10.9566C12.6316 12.0124 12.5678 13.9442 12.5023 15.9312C12.484 16.4829 12.0218 16.915 11.4701 16.897C10.9183 16.8787 10.4861 16.4166 10.5043 15.8648C10.5698 13.8765 10.6327 11.9493 10.6644 10.897C10.6656 10.8567 10.6662 10.8176 10.6674 10.7798C10.5799 10.8734 10.4897 10.9708 10.3978 11.0728C9.84753 11.684 9.54146 12.1639 9.28553 12.6646C9.03423 13.1563 8.43156 13.3513 7.93982 13.1001C7.44809 12.8488 7.25305 12.2462 7.50428 11.7544C7.83667 11.1041 8.24103 10.4797 8.9115 9.73489C9.40972 9.18153 9.85261 8.7417 10.1849 8.42239C10.3488 8.26496 10.4908 8.1318 10.5883 8.03958C10.71 7.92436 10.7264 7.90512 10.7113 7.92337C10.9315 7.65801 11.2131 7.43505 11.5238 7.30227L11.6869 7.24759Z" fill="black"/>
</svg>
