<svg width="24" height="24" viewBox="0 0 24 24" fill="none" xmlns="http://www.w3.org/2000/svg">
<path d="M15.0929 6.02102C15.4909 6.02736 15.8614 6.03805 16.1671 6.08254C16.469 6.12649 16.8685 6.22337 17.1984 6.52786C17.5405 6.84368 17.6559 7.2406 17.7082 7.53469C17.7583 7.8168 17.7737 8.15729 17.7892 8.48196C17.8225 9.18053 17.8676 10.2049 17.9132 11.23C17.9589 12.2564 18.0054 13.2846 18.0392 13.9947C18.1074 15.4247 18.1222 15.4458 18.1437 15.5855C18.1767 15.8003 18.2222 16.139 18.2687 16.5337C18.3333 17.0822 17.9412 17.5795 17.3927 17.6441C16.8443 17.7085 16.3469 17.3155 16.2824 16.7671C16.2378 16.3883 16.1956 16.0741 16.1671 15.8892C16.1272 15.6295 16.1087 15.5055 16.0412 14.0894C16.0071 13.3754 15.9608 12.344 15.9152 11.3189C15.8995 10.9655 15.8825 10.6129 15.8673 10.2739C15.0146 10.9198 13.6043 11.9925 12.2072 13.107C10.6595 14.3415 9.17076 15.5954 8.38101 16.2652C7.58829 16.9375 7.56553 16.9655 7.54215 16.9878C7.47328 17.0533 7.40065 17.1149 7.35074 17.1577C6.93181 17.5176 6.30046 17.4702 5.94058 17.0513C5.58097 16.6324 5.62917 16.0009 6.04801 15.6411C6.10596 15.5913 6.13836 15.5622 6.16422 15.5376C6.23551 15.4699 6.3004 15.407 7.08707 14.7398C7.88157 14.0659 9.38877 12.7969 10.9601 11.5435C12.5307 10.2907 14.114 9.09268 14.9171 8.48489C15.1994 8.27131 15.3854 8.12907 15.5099 8.03469C15.3878 8.02863 15.2404 8.02388 15.0607 8.02102C13.4476 7.99533 10.3165 8.03139 8.73355 8.04934C7.16707 8.06711 7.14959 8.06692 7.13785 8.06692C6.58557 8.06692 6.13786 7.61919 6.13785 7.06692C6.13785 6.51464 6.58557 6.06692 7.13785 6.06692H7.15445C7.17987 6.06664 7.23009 6.06608 7.32926 6.06497C7.52782 6.06273 7.92305 6.05828 8.71109 6.04934C10.2805 6.03154 13.4457 5.99478 15.0929 6.02102Z" fill="black"/>
</svg>
