<svg width="24" height="24" viewBox="0 0 24 24" fill="none" xmlns="http://www.w3.org/2000/svg">
<path d="M11.6622 1C11.7698 1.00002 11.8736 1.01831 11.9707 1.0498C12.0204 1.0514 12.0679 1.05208 12.1114 1.05371C12.2235 1.05792 12.3078 1.06208 12.3829 1.06641H12.3907C12.6473 1.08322 12.9003 1.10654 13.1426 1.12988C13.4078 1.15543 13.6331 1.17689 13.8829 1.19629C14.3343 1.23136 14.7994 1.32586 15.2549 1.4248C15.7093 1.52351 16.553 1.79366 17.3721 2.2959C17.6787 2.48389 18.0875 2.71381 18.6358 3.09766C19.018 3.36521 19.3777 3.61536 19.6739 3.83594C19.9584 4.04785 20.2466 4.27859 20.4551 4.50977C20.8535 4.95155 21.1575 5.27505 21.3536 5.50488C21.5651 5.75297 21.7473 5.99868 21.8711 6.32422C21.9905 6.63773 22.1715 6.99763 22.3086 7.58301C22.4491 8.18261 22.538 8.51666 22.6475 8.97949C22.7382 9.36266 22.8201 9.74455 22.8438 10.0771C22.8792 10.5744 22.9194 11.0808 22.9063 12C22.9023 12.2824 22.889 12.8979 22.6875 13.9355C22.5805 14.487 22.4282 15.0314 22.2071 15.6719C21.9893 16.3027 21.707 17.0233 21.5079 17.4814C21.2932 17.9753 21.1568 18.2058 20.917 18.5352C20.6896 18.8476 20.3743 19.2446 19.7022 19.8945C19.054 20.5212 18.0859 21.39 17.5401 21.8447C16.9547 22.3324 16.5434 22.648 15.9336 22.7744C15.1274 22.9414 14.1575 23.01 13.5811 22.999C13.0181 22.9883 12.0715 22.9762 11.1719 22.9707C10.7442 22.9681 10.5783 22.9544 10.4131 22.9375C10.2521 22.9211 9.84719 22.906 9.52544 22.8438C9.20362 22.7815 8.8462 22.7214 8.53227 22.626C8.23358 22.5352 7.90903 22.4061 7.59477 22.2803C7.28927 22.158 6.86951 21.9747 6.56938 21.8193C6.43569 21.7501 5.99672 21.5525 5.72661 21.374C5.29471 21.0886 4.84737 20.7111 4.59477 20.4453C4.4809 20.3255 4.376 20.1966 4.25786 20.0586C4.12791 19.9068 3.93416 19.6855 3.59868 19.3213C3.31389 19.0122 2.7932 18.4882 2.45512 17.917C2.23206 17.5401 1.96006 17.0747 1.68169 16.4512C1.57577 16.214 1.34607 15.8147 1.24419 15.0938C1.21442 14.8829 1.1175 13.9687 0.981492 12.7734C0.916739 12.2043 0.89224 11.8044 0.921921 11.2861C0.973557 10.3854 1.16325 9.59954 1.25298 9.24707C1.36902 8.79125 1.44881 8.48909 1.57231 8.12598C1.65854 7.87243 1.75794 7.51742 1.96294 7.03418C2.07621 6.76715 2.20592 6.44835 2.35844 6.15723C2.47774 5.92955 2.60064 5.71158 2.73149 5.4873C2.94981 5.11314 3.14414 4.86002 3.35454 4.58301C3.49647 4.39611 3.7119 4.09158 4.0479 3.7793C4.26925 3.57361 4.49327 3.39316 4.78911 3.16992C5.04898 2.97383 5.33236 2.75498 5.66704 2.53223C5.9509 2.34332 6.22713 2.18344 6.51665 2.04688C6.83472 1.89686 7.09383 1.7907 7.38774 1.69824C7.73665 1.58849 8.08103 1.48921 8.42094 1.40332C8.72317 1.32697 9.06298 1.25216 9.36333 1.21289C9.62232 1.17904 10.0221 1.13526 10.334 1.0791C10.6571 1.02107 11.3948 1.00002 11.6622 1ZM11.1143 3.01562C11.0084 3.02067 10.9087 3.02658 10.8262 3.0332C10.7851 3.03651 10.751 3.04001 10.7247 3.04297C10.7008 3.04565 10.6891 3.04674 10.6875 3.04688C10.3129 3.1143 9.81594 3.17012 9.62309 3.19531C9.43605 3.21976 9.18283 3.27317 8.91118 3.3418C8.61436 3.41679 8.30676 3.50596 7.98735 3.60645C7.80571 3.6636 7.63468 3.73169 7.37016 3.85645C7.18325 3.94462 6.99221 4.05301 6.77544 4.19727C6.50199 4.37926 6.27514 4.5546 5.99419 4.7666C5.7232 4.97108 5.55955 5.10541 5.40923 5.24512C5.22781 5.41376 5.12633 5.55726 4.94731 5.79297C4.73342 6.07458 4.60851 6.23895 4.45903 6.49512C4.33745 6.70351 4.23054 6.89391 4.12993 7.08594C4.02559 7.28513 3.93596 7.50378 3.80376 7.81543C3.6369 8.20879 3.58794 8.41158 3.46587 8.77051C3.37017 9.05191 3.30708 9.28603 3.19145 9.74023C3.11081 10.057 2.9585 10.6942 2.91802 11.4004C2.8972 11.7639 2.91112 12.041 2.9688 12.5479C3.11099 13.7975 3.19888 14.6389 3.22368 14.8145C3.25176 15.0131 3.29065 15.1396 3.32817 15.2373C3.34853 15.2903 3.37179 15.3425 3.40141 15.4062C3.42599 15.4592 3.47188 15.5552 3.50786 15.6357C3.73757 16.1503 3.96179 16.5351 4.1768 16.8984C4.37778 17.2379 4.69664 17.5612 5.06938 17.9658C5.42147 18.348 5.6315 18.5884 5.77739 18.7588C5.93474 18.9426 5.97875 18.9977 6.04497 19.0674C6.18224 19.2118 6.50938 19.4947 6.82915 19.7061C6.98952 19.812 7.1275 19.8556 7.4893 20.043C7.71176 20.1582 8.06681 20.3153 8.33794 20.4238C8.6642 20.5544 8.91076 20.65 9.1143 20.7119C9.29863 20.7679 9.50339 20.8031 9.90532 20.8809C10.1304 20.9244 10.1788 20.9034 10.6172 20.9482C10.7107 20.9578 10.8116 20.9684 11.1836 20.9707C12.0898 20.9762 13.0455 20.9881 13.6192 20.999C14.0603 21.0074 14.8808 20.9506 15.5284 20.8164C15.5746 20.8068 15.6087 20.7969 15.6905 20.7461C15.8009 20.6774 15.9619 20.5558 16.2598 20.3076C16.7653 19.8865 17.6966 19.0517 18.3116 18.457C18.9023 17.8858 19.1416 17.5758 19.2999 17.3584C19.4456 17.1582 19.511 17.057 19.6729 16.6846C19.8505 16.276 20.1147 15.6039 20.3165 15.0195C20.5148 14.4451 20.6385 13.9926 20.7237 13.5537C20.8969 12.6617 20.9045 12.1694 20.9073 11.9717C20.9191 11.1403 20.8841 10.7021 20.8497 10.2188C20.8388 10.0666 20.7932 9.82937 20.7012 9.44043C20.628 9.13102 20.4784 8.53867 20.3614 8.03906C20.2647 7.62634 20.1955 7.54374 20.002 7.03516C19.9991 7.02745 19.9902 6.98808 19.8321 6.80273C19.6584 6.59911 19.4134 6.33951 18.9707 5.84863C18.9059 5.77667 18.7575 5.64746 18.4795 5.44043C18.2131 5.24195 17.8833 5.01286 17.4883 4.73633C17.006 4.39869 16.6899 4.22397 16.3262 4.00098C15.7301 3.6355 15.1051 3.43847 14.8311 3.37891C14.3744 3.27973 14.0292 3.21383 13.7286 3.19043C13.4578 3.16941 13.2148 3.14551 12.9512 3.12012C12.7131 3.09718 12.4846 3.07723 12.2598 3.0625V3.06152C12.1996 3.0581 12.1303 3.05529 12.0362 3.05176C11.9356 3.04798 11.8089 3.04409 11.6729 3.04004C11.5943 3.0377 11.5182 3.0252 11.4454 3.00586C11.3448 3.00841 11.2292 3.01015 11.1143 3.01562ZM11.2559 7.38184C11.6359 6.98111 12.2692 6.96384 12.67 7.34375C13.0703 7.72354 13.0873 8.35608 12.7081 8.75684C12.1928 9.30045 11.4577 9.92871 10.6563 10.5977C10.48 10.7448 10.3237 10.8822 10.1856 11.0088C10.2064 11.0098 10.2277 11.0117 10.2491 11.0127C11.7972 11.0833 14.7887 11.1874 17.8809 11.2949C18.4328 11.3142 18.8649 11.7772 18.8457 12.3291C18.8265 12.8809 18.3634 13.313 17.8116 13.2939C14.7259 13.1867 11.7203 13.082 10.1582 13.0107C10.1153 13.0088 10.0732 13.0058 10.0323 13.0039C10.0946 13.0817 10.1613 13.16 10.2256 13.2432L10.2354 13.2568L10.2452 13.2695C10.4195 13.5107 10.5877 13.7606 10.7432 13.9883C10.9027 14.2218 11.0542 14.4403 11.212 14.6484C11.5267 15.0637 11.8787 15.4504 12.3213 15.9316C12.6948 16.3381 12.668 16.971 12.2618 17.3447C11.8553 17.7185 11.2225 17.6915 10.8487 17.2852C10.4126 16.811 9.99861 16.3583 9.61821 15.8564C9.42835 15.6059 9.25318 15.3524 9.09184 15.1162C8.93029 14.8797 8.78533 14.6649 8.63481 14.4561C8.31716 14.0464 8.03857 13.7273 7.79302 13.4326C7.67506 13.291 7.55611 13.1439 7.45708 13.0049C7.36765 12.8793 7.24128 12.6878 7.16802 12.4619C7.10303 12.2613 6.92669 11.67 7.3018 11.1328C7.35766 11.0529 7.4169 10.9852 7.46001 10.9385C7.50512 10.8896 7.55287 10.8424 7.59282 10.8027C7.68136 10.7147 7.74864 10.6487 7.82427 10.5684C7.82534 10.5672 7.82815 10.5649 7.83208 10.5605C7.83893 10.5529 7.84755 10.5427 7.85942 10.5293C7.88258 10.5031 7.9151 10.4655 7.95317 10.4229C8.03063 10.3362 8.13451 10.2236 8.26469 10.0889C8.52525 9.81921 8.88974 9.46759 9.37505 9.0625C10.1906 8.38176 10.8341 7.82679 11.2559 7.38184Z" fill="black"/>
</svg>
