<svg width="24" height="24" viewBox="0 0 24 24" fill="none" xmlns="http://www.w3.org/2000/svg">
<path d="M11.6644 11.8968C12.014 11.9201 12.2583 12.1102 12.3324 12.1673C12.5237 12.3149 12.7861 12.5824 13.1566 12.9711C13.9453 13.7985 15.4819 15.4599 17.0844 17.2044C17.4578 17.6112 17.4305 18.244 17.0238 18.6175C16.6171 18.9906 15.9851 18.9634 15.6117 18.557C14.007 16.81 12.4832 15.1627 11.7094 14.3509C11.6685 14.3081 11.6284 14.2685 11.5922 14.2308C11.4983 14.3246 11.3866 14.4361 11.2562 14.5687C10.5171 15.321 9.2231 16.6689 8.46717 17.4857C7.71772 18.2955 7.51935 18.5583 7.43299 18.6722C7.40648 18.7072 7.38766 18.7325 7.3744 18.7503C7.37025 18.7559 7.36549 18.7602 7.36268 18.764C7.12347 19.1413 6.65232 19.3245 6.20838 19.1791C5.68398 19.0068 5.39783 18.4419 5.56971 17.9173C5.62176 17.7586 5.70376 17.6485 5.7201 17.6253C5.74616 17.5884 5.78393 17.5362 5.83924 17.4632C5.97639 17.2824 6.22053 16.9689 6.9994 16.1273C7.77213 15.2923 9.081 13.9291 9.83045 13.1664C10.5669 12.4169 10.7678 12.2416 10.933 12.1195L10.9906 12.0795C11.0262 12.056 11.0768 12.0252 11.1332 11.9984C11.2741 11.9317 11.4557 11.8831 11.6644 11.8968ZM7.43592 18.6293C7.43643 18.6281 7.43735 18.6265 7.43788 18.6253C7.44713 18.6041 7.45503 18.5842 7.46131 18.5668C7.46604 18.5536 7.46952 18.5422 7.4701 18.5404C7.46011 18.5709 7.44848 18.6004 7.43592 18.6293ZM11.3285 5.08336C11.4962 5.10215 11.6245 5.15781 11.6996 5.19664C11.8257 5.26193 11.9298 5.3483 11.9799 5.39C12.1077 5.4964 12.3153 5.68634 12.6644 6.01207C13.3782 6.67798 14.7689 7.99422 15.5238 8.72007C16.2779 9.44519 16.3977 9.58091 16.6117 9.85777C16.7804 10.0761 17.0294 10.4008 17.3139 10.7572C17.6583 11.1889 17.5873 11.818 17.1556 12.1625C16.724 12.5063 16.0947 12.4367 15.7504 12.0052C15.4535 11.6331 15.192 11.2905 15.0297 11.0804C14.9127 10.9291 14.8847 10.8804 14.1371 10.1615C13.3896 9.44272 12.0067 8.1332 11.3002 7.47398C11.291 7.4654 11.2818 7.45693 11.2728 7.44859C10.7616 8.01841 9.92225 8.96723 9.3119 9.72593C8.67031 10.5235 8.28842 11.0986 8.09705 11.391C8.04791 11.4661 8.01186 11.522 7.98573 11.5628C7.96859 11.5896 7.95569 11.6085 7.94764 11.6214C7.74912 12.0224 7.2984 12.2545 6.8412 12.1556C6.30213 12.0385 5.95932 11.5064 6.07557 10.9671L6.11268 10.8363C6.15496 10.7178 6.20786 10.6338 6.22596 10.6039C6.26282 10.5428 6.32405 10.4483 6.4242 10.2953C6.63658 9.97084 7.05706 9.33856 7.7533 8.473C8.44114 7.61796 9.38356 6.55724 9.88221 6.00328C10.1273 5.73096 10.2778 5.56684 10.3744 5.4691C10.4246 5.41836 10.6241 5.19835 10.9437 5.11265L11.0873 5.08433C11.1533 5.07629 11.236 5.07305 11.3285 5.08336Z" fill="black"/>
</svg>
