<svg width="24" height="24" viewBox="0 0 24 24" fill="none" xmlns="http://www.w3.org/2000/svg">
<path d="M4.48193 7.79139C4.85698 7.38616 5.49066 7.36184 5.89599 7.7367C6.5193 8.3136 7.14326 8.89208 8.18506 9.86463C9.23484 10.8446 10.6544 12.175 11.4243 12.8402C11.5022 12.9075 11.5637 12.9573 11.6108 12.9955C11.7529 12.9006 11.9416 12.7577 12.227 12.5346C13.4089 11.6107 15.6831 9.78451 18.0591 7.87147C18.4892 7.52518 19.1189 7.59291 19.4653 8.02283C19.8116 8.45301 19.7431 9.08274 19.313 9.42908C16.9415 11.3385 14.6544 13.175 13.4585 14.1097C13.169 14.336 12.9047 14.5403 12.6733 14.6908C12.4495 14.8364 12.1516 15.0044 11.7944 15.0541C11.3851 15.1109 11.0397 14.9975 10.7651 14.8412C10.5289 14.7066 10.3038 14.5146 10.1167 14.3529C9.30928 13.6552 7.85142 12.2887 6.8208 11.3265C5.7821 10.3569 5.15918 9.78166 4.53662 9.20545C4.13163 8.83032 4.10704 8.19662 4.48193 7.79139Z" fill="black"/>
</svg>
