<svg width="24" height="24" viewBox="0 0 24 24" fill="none" xmlns="http://www.w3.org/2000/svg">
<path d="M12.1884 6.28705C12.5893 5.9072 13.2226 5.92424 13.6025 6.32514C13.7584 6.48971 14.0488 6.76009 14.6581 7.24994C15.0068 7.53024 15.6406 7.99228 16.3017 8.63568C16.9592 9.27557 17.6431 10.0812 18.0117 10.5371C18.2923 10.8841 18.4902 11.1844 18.6054 11.4755C18.7416 11.8201 18.7322 12.0831 18.7294 12.2109C18.722 12.5531 18.5545 12.7915 18.5107 12.8554C18.4654 12.9214 18.3836 13.0269 18.3437 13.08C18.1815 13.2963 17.9225 13.6245 17.3115 14.2412C16.7125 14.8456 15.7696 15.7319 15.0956 16.3515C14.4176 16.9749 14.0186 17.3205 13.8046 17.5117C13.6968 17.6079 13.6457 17.6561 13.6191 17.6826C13.608 17.6936 13.6031 17.6993 13.6015 17.7011C13.5998 17.7031 13.5969 17.7076 13.5878 17.7187C13.2382 18.1458 12.608 18.2087 12.1806 17.8593C11.7533 17.5098 11.6898 16.8796 12.039 16.4521C12.1448 16.3228 12.2385 16.2296 12.4726 16.0204C12.7034 15.8143 13.078 15.4895 13.7421 14.8788C14.4108 14.2641 15.3255 13.4042 15.8906 12.8339C16.2895 12.4313 16.5028 12.183 16.6298 12.0253C16.5878 11.9655 16.5321 11.889 16.456 11.7949C16.1075 11.3638 15.4817 10.6274 14.9072 10.0683C14.3364 9.51284 13.839 9.15725 13.4052 8.80854C12.7683 8.29654 12.3973 7.96076 12.1503 7.70014C11.7709 7.2994 11.7881 6.66689 12.1884 6.28705ZM5.68158 5.9394C6.14835 5.73487 6.68584 5.91618 6.94036 6.34272L6.95501 6.36322C6.9681 6.38145 6.98713 6.40742 7.01361 6.4433C7.10241 6.56362 7.29852 6.82745 7.89349 7.47358C8.46636 8.09569 9.53347 9.20079 10.1679 9.90522C10.8412 10.6528 11.1213 11.0503 11.2841 11.2929C11.3417 11.3787 11.4227 11.499 11.4785 11.6152C11.5118 11.6848 11.5613 11.802 11.5829 11.9521C11.6071 12.1202 11.5868 12.2588 11.5673 12.3466C11.5274 12.526 11.4515 12.6612 11.3993 12.747C11.3488 12.8301 11.2811 12.9278 11.2011 13.04C11.0255 13.2862 10.7149 13.7071 10.2138 14.2568C9.75245 14.7629 9.03794 15.4678 8.63275 15.8954C8.19901 16.3533 7.95623 16.6565 7.80072 16.8456C7.63608 17.0458 7.55668 17.1345 7.44232 17.2353C7.37413 17.2954 7.29347 17.3612 7.22943 17.414C6.80335 17.7648 6.17342 17.7041 5.8222 17.2783C5.47118 16.8521 5.53196 16.2213 5.95794 15.8701C6.02959 15.811 6.08174 15.7681 6.12005 15.7343C6.12282 15.7319 6.12482 15.7304 6.12591 15.7294C6.12683 15.7284 6.12827 15.7263 6.13079 15.7236C6.14722 15.7057 6.1814 15.6666 6.25579 15.5761C6.41008 15.3885 6.6931 15.035 7.1806 14.5204C7.69696 13.9754 8.26248 13.4287 8.73529 12.9101C9.03618 12.58 9.25099 12.3055 9.40423 12.1025C9.25805 11.9106 9.03547 11.6361 8.68158 11.2431C8.0285 10.518 7.08165 9.54559 6.42181 8.82904C5.78444 8.13687 5.54146 7.81674 5.40423 7.6308C5.31695 7.51254 5.22833 7.39689 5.16693 7.25678C4.94553 6.75108 5.17598 6.16109 5.68158 5.9394ZM6.99896 6.45404L6.97357 6.40131C6.96921 6.39297 6.96482 6.38489 6.96087 6.37787L6.99896 6.45404Z" fill="black"/>
</svg>
