<svg width="24" height="24" viewBox="0 0 24 24" fill="none" xmlns="http://www.w3.org/2000/svg">
<path d="M6.82387 11.6168C7.29855 11.5552 7.73703 11.8373 7.89223 12.2701C7.89797 12.2801 7.9058 12.2923 7.91469 12.3073C7.94115 12.3518 7.97867 12.4136 8.03188 12.4987C8.23631 12.8255 8.64837 13.4607 9.39614 14.317C10.1377 15.1661 11.1948 16.2121 11.8209 16.8356C12.48 16.1493 13.5483 14.9465 14.4352 14.0114C15.3233 13.0749 15.8211 12.6414 16.0973 12.3961C16.2269 12.281 16.2934 12.2191 16.3297 12.1842L16.4508 12.0631C16.8283 11.7248 17.408 11.7212 17.7907 12.0699C18.1988 12.442 18.2281 13.0739 17.8561 13.4821C17.7753 13.5707 17.7004 13.647 17.4254 13.8912C17.1694 14.1187 16.7188 14.5096 15.8864 15.3873C15.0896 16.2275 13.7877 17.6844 13.1754 18.3141C13.0224 18.4714 12.8481 18.6468 12.6706 18.778C12.4884 18.9125 12.1698 19.102 11.7457 19.0768C11.3437 19.0527 11.0572 18.8445 10.9108 18.7262C10.7603 18.6046 10.5983 18.4415 10.4645 18.3082C9.86879 17.7146 8.71 16.5722 7.8893 15.6324C7.0523 14.674 6.57881 13.9465 6.33657 13.5592C6.22472 13.3804 6.14876 13.2539 6.09926 13.1588C6.07412 13.1105 6.04108 13.0409 6.01333 12.9596C5.9773 12.8539 5.96584 12.7698 5.96157 12.7369C5.89045 12.1894 6.27641 11.6882 6.82387 11.6168ZM7.94399 12.4791C7.94337 12.4743 7.94012 12.4494 7.93422 12.4205C7.93388 12.4189 7.93264 12.4173 7.93227 12.4157C7.93637 12.4366 7.9412 12.4576 7.94399 12.4791ZM6.44204 5.17542C6.87619 4.83427 7.50505 4.9094 7.84633 5.34339C7.89617 5.40681 7.94462 5.47037 8.12661 5.67054C8.31782 5.88085 8.66248 6.24776 9.23208 6.89905C9.77783 7.52309 10.6045 8.49545 11.0407 8.99671C11.2218 9.20483 11.3623 9.35759 11.4674 9.47327C11.5374 9.43589 11.6175 9.39394 11.7067 9.34436C11.9608 9.20305 12.326 8.93976 12.7897 8.55335C13.2329 8.18393 13.7187 7.71877 14.1207 7.29261C14.518 6.87146 14.8172 6.50335 15.0143 6.25257C15.3901 5.76724 15.6248 5.50779 15.7926 5.35608C16.1196 4.96613 16.6954 4.88167 17.1237 5.17542C17.579 5.4879 17.6949 6.10971 17.3825 6.56507C17.3132 6.66603 17.2359 6.75142 17.1432 6.82972L17.1266 6.84339L17.11 6.85608C17.1462 6.82802 17.1317 6.83292 17.0397 6.93518C16.9522 7.03248 16.8094 7.20037 16.5915 7.48206L16.5875 7.48792C16.3682 7.76704 16.0283 8.18598 15.5758 8.66565C15.128 9.14042 14.584 9.66208 14.07 10.0905C13.5763 10.5018 13.0981 10.8595 12.6793 11.0924C12.3981 11.2488 12.1648 11.3707 11.9801 11.4547C11.889 11.4962 11.7889 11.5372 11.6891 11.569C11.6231 11.59 11.4219 11.6539 11.1823 11.6295C10.9419 11.605 10.5842 11.5 10.3102 11.1666C10.3265 11.1865 10.3366 11.197 10.2946 11.153C10.2637 11.1206 10.217 11.0711 10.153 11.0026C10.0239 10.8643 9.82928 10.651 9.53188 10.3092C9.03681 9.7403 8.30276 8.87469 7.72622 8.21546C7.17382 7.58384 6.85374 7.24348 6.64712 7.01624C6.43154 6.77913 6.35199 6.67888 6.27407 6.57972C5.933 6.14562 6.00822 5.51672 6.44204 5.17542ZM15.8278 5.32483C15.8364 5.31745 15.8449 5.31016 15.8532 5.30335L15.8522 5.30139C15.846 5.30667 15.838 5.31515 15.8278 5.32483Z" fill="black"/>
</svg>
