<svg width="24" height="24" viewBox="0 0 24 24" fill="none" xmlns="http://www.w3.org/2000/svg">
<path d="M8.30754 4.23728C8.76666 3.93051 9.38737 4.05368 9.69426 4.51267C9.66022 4.46176 9.63499 4.4345 9.66692 4.47166C9.6877 4.49584 9.72906 4.54353 9.80461 4.62595C9.95604 4.79114 10.2312 5.08407 10.7226 5.59373C11.1357 6.02218 11.7381 6.61941 12.3642 7.24021C12.9842 7.855 13.6269 8.49239 14.1054 8.98631C15.0525 9.96391 15.3601 10.3583 15.5439 10.6465C15.605 10.7423 15.8395 11.0848 15.7753 11.5595C15.7489 11.7536 15.6804 11.9103 15.6318 12.0088C15.5824 12.1086 15.5217 12.2094 15.4687 12.2959C15.2297 12.6854 14.7763 13.3657 13.9071 14.2988C13.0549 15.2137 11.8136 16.3539 11.123 16.9717C10.4113 17.6082 10.2636 17.7068 10.12 17.8183C10.0268 17.8908 9.91907 17.9866 9.7636 18.1367C9.36632 18.5198 8.73301 18.5083 8.34953 18.1113C7.96625 17.7141 7.97796 17.0808 8.37492 16.6972C8.55233 16.526 8.71871 16.375 8.89348 16.2392C9.01814 16.1424 9.12615 16.0752 9.78996 15.4814C10.4752 14.8685 11.6575 13.7791 12.4433 12.9355C13.0696 12.2632 13.4329 11.7584 13.6425 11.4385C13.4775 11.2398 13.1899 10.9157 12.6689 10.3779C12.2075 9.90164 11.5813 9.28014 10.956 8.66013C10.3365 8.04591 9.71553 7.43086 9.28313 6.9824C8.78666 6.46748 8.49879 6.16057 8.33098 5.97752C8.18897 5.8226 8.09109 5.71206 8.03215 5.624C7.72544 5.16497 7.84877 4.54424 8.30754 4.23728Z" fill="black"/>
</svg>
