<svg width="24" height="24" viewBox="0 0 24 24" fill="none" xmlns="http://www.w3.org/2000/svg">
<path d="M11.5047 7.8299C11.7177 7.83015 11.8825 7.89473 11.9773 7.94025C12.1334 8.01517 12.2688 8.126 12.3299 8.1756C12.4731 8.2919 12.7886 8.56516 13.2391 8.93829C14.2133 9.74528 16.1059 11.2852 17.0984 12.0916C17.5918 12.4925 17.8507 12.7021 17.9871 12.8133C18.096 12.9021 18.1811 12.9692 18.2576 13.0516C18.2348 13.027 18.2151 13.0095 18.2078 13.0027C18.1988 12.9944 18.1911 12.9875 18.1873 12.9842C18.1839 12.9812 18.1811 12.9787 18.1795 12.9774L18.1814 12.9783C18.1847 12.9809 18.1888 12.9849 18.1941 12.9891C18.2172 13.0073 18.2517 13.0333 18.2957 13.0672C18.3851 13.1361 18.4965 13.2216 18.617 13.3143C18.7338 13.404 18.856 13.4983 18.9529 13.575C19.0007 13.6129 19.0482 13.6513 19.0877 13.6844C19.1069 13.7005 19.1307 13.7207 19.1541 13.742C19.1565 13.7442 19.1751 13.7608 19.201 13.7869L19.2957 13.8943L19.3533 13.9793C19.6177 14.4115 19.5171 14.9822 19.1053 15.2957C18.6989 15.6049 18.1325 15.5548 17.785 15.1981L17.8084 15.2215C17.8072 15.2205 17.8053 15.2191 17.8035 15.2176C17.785 15.2021 17.7545 15.1773 17.7117 15.1434C17.627 15.0763 17.5147 14.9897 17.3982 14.9002C17.2856 14.8137 17.1642 14.7209 17.075 14.6522C17.0299 14.6174 16.9875 14.5841 16.9549 14.5584C16.9391 14.546 16.9212 14.5316 16.9051 14.5184C16.8972 14.5119 16.8853 14.5029 16.8729 14.492L16.8338 14.4539C16.8297 14.4506 16.801 14.4263 16.7234 14.3631C16.5881 14.2528 16.3349 14.0491 15.8367 13.6443C14.8458 12.8392 12.9466 11.2925 11.9637 10.4783C11.7739 10.3212 11.6176 10.1893 11.4891 10.0809C11.4414 10.1243 11.3884 10.1731 11.3299 10.2283C11.0151 10.5258 10.2879 11.2283 9.96758 11.5301C9.60783 11.869 9.47845 11.9657 9.35332 12.077C8.87893 12.4988 8.52197 12.856 8.38848 13.0428C8.28772 13.1836 8.12321 13.3658 7.95781 13.5477C7.7698 13.7544 7.53593 14.0077 7.22637 14.3504C6.90942 14.7013 6.57686 15.0872 6.23516 15.4842C5.87487 15.9025 5.24351 15.9498 4.825 15.5897C4.40663 15.2294 4.35943 14.598 4.71953 14.1795C5.05778 13.7866 5.40616 13.3823 5.74199 13.0106C6.05175 12.6676 6.30511 12.3924 6.47832 12.202C6.56758 12.1038 6.63602 12.0277 6.6873 11.9686C6.71245 11.9396 6.73137 11.9168 6.74492 11.9002C6.75433 11.8887 6.75971 11.8821 6.76152 11.8797C7.04407 11.4844 7.56763 10.9887 8.02519 10.5818C8.25226 10.38 8.24947 10.4 8.59551 10.074C8.98143 9.71048 9.54289 9.16556 9.95586 8.77521C10.4027 8.35282 10.6644 8.1486 10.9764 7.97052L11.075 7.92072C11.1855 7.87184 11.331 7.82976 11.5047 7.8299Z" fill="black"/>
</svg>
