<svg width="24" height="24" viewBox="0 0 24 24" fill="none" xmlns="http://www.w3.org/2000/svg">
<path d="M14.5235 3.55409C14.8429 3.53304 15.1265 3.59813 15.3106 3.64686C15.4194 3.67568 15.5303 3.70933 15.6055 3.73182C15.6913 3.75747 15.7458 3.77303 15.7891 3.7826C16.2333 3.88078 16.5671 4.14237 17.2178 4.69178C17.8775 5.24876 19.0864 6.33455 19.8369 7.016C20.603 7.71147 20.8822 7.99392 21.0948 8.21229C21.3004 8.42354 21.4071 8.53488 21.5293 8.65272C21.9269 9.03602 21.938 9.66918 21.5547 10.0668C21.1714 10.4644 20.5383 10.4765 20.1407 10.0931C19.9887 9.94666 19.8497 9.80142 19.6612 9.6078C19.4794 9.42113 19.231 9.16636 18.4932 8.49647C17.7402 7.81286 16.5582 6.7509 15.9297 6.2201C15.9293 6.25134 15.9292 6.28445 15.9287 6.31873C15.9199 7.0523 15.9025 8.52402 15.8506 9.76209C15.7984 11.0066 15.7121 11.9686 15.6543 12.5248C15.6196 12.8588 15.5793 13.1978 15.5371 13.5531C15.4947 13.9108 15.4499 14.2924 15.4053 14.723C15.3765 15.0006 15.3087 15.2731 15.2412 15.5189C15.1527 15.8416 15.112 15.9627 15.0166 16.3158C14.9135 16.6973 14.6547 17.2346 14.3477 17.8978C13.9814 18.689 13.4197 19.3742 12.9688 19.9008C12.5278 20.4155 12.0786 20.6257 11.6192 20.766C11.4089 20.8302 11.1887 20.8606 10.916 20.8842C10.6409 20.9079 10.2534 20.9293 9.68558 20.9555C8.53774 21.0083 6.57937 21.0684 5.53812 21.1049C4.46531 21.1424 4.43884 21.1534 4.37112 21.1644C3.82632 21.2534 3.312 20.884 3.22269 20.3392C3.13366 19.7943 3.50393 19.28 4.04886 19.1908C4.26948 19.1547 4.4394 19.1419 5.4678 19.1058C6.52844 19.0687 8.4605 19.0096 9.59378 18.9574C10.1664 18.931 10.5149 18.9118 10.7442 18.892C10.9704 18.8725 11.0267 18.8565 11.0352 18.8539C11.1637 18.8147 11.228 18.7854 11.2735 18.7582C11.3138 18.734 11.3697 18.6928 11.4493 18.6C11.8968 18.0774 12.2939 17.5749 12.5332 17.058C12.8938 16.2791 13.0394 15.9629 13.085 15.7943C13.1532 15.5419 13.2721 15.1368 13.3125 14.9896C13.3738 14.7663 13.4049 14.6241 13.416 14.517C13.4623 14.0704 13.5082 13.6767 13.5508 13.3178C13.5937 12.9567 13.6323 12.6348 13.6651 12.3187C13.7194 11.7958 13.8014 10.875 13.8516 9.67811C13.902 8.47454 13.9198 7.0324 13.9287 6.29432C13.9292 6.26038 13.9293 6.22759 13.9297 6.19666C13.8578 6.26449 13.7798 6.33815 13.6963 6.41932C13.0181 7.07877 11.7842 8.29265 11.1612 8.90565C10.8502 9.21165 10.6925 9.3667 10.6123 9.44569C10.5722 9.48518 10.5517 9.5055 10.541 9.516C10.536 9.52103 10.5338 9.52329 10.5332 9.52381L10.461 9.59022C10.0709 9.91374 9.49127 9.89551 9.1221 9.5326C8.72842 9.14541 8.72326 8.51233 9.11038 8.11854C9.12518 8.10349 9.14467 8.08318 9.75784 7.47987C10.379 6.86875 11.6182 5.65042 12.3018 4.98573C12.7811 4.51966 13.1452 4.20052 13.4414 3.98866C13.7439 3.7724 14.043 3.61821 14.3848 3.56873L14.5235 3.55409Z" fill="black"/>
</svg>
