<svg width="24" height="24" viewBox="0 0 24 24" fill="none" xmlns="http://www.w3.org/2000/svg">
<path d="M14.5197 3.2304C14.9757 2.91904 15.5988 3.03618 15.9103 3.49212C15.9645 3.57139 16.0457 3.68266 16.6906 4.42083C17.2487 5.05963 18.2847 6.24595 18.9113 6.96087C19.5258 7.66196 19.7319 7.89313 19.8801 8.07317C20.0942 8.33349 20.2602 8.59279 20.3576 8.87591C20.4614 9.17765 20.4589 9.42732 20.4553 9.57024C20.4454 9.95931 20.2437 10.279 20.1017 10.5077C19.8964 10.8387 19.5459 11.3341 18.8508 12.1074C18.1676 12.8672 17.1395 13.9048 16.0871 14.9755C15.7 15.3692 15.0668 15.3742 14.673 14.9872C14.2793 14.6002 14.2734 13.9671 14.6603 13.5732C15.7331 12.4818 16.7185 11.4878 17.3635 10.7704C17.6719 10.4274 17.8936 10.1548 18.0568 9.94231C17.8072 9.94555 17.4824 9.95042 17.0597 9.95599C15.2423 9.9799 11.6374 10.0275 9.58612 10.0849C7.52836 10.1424 7.20585 10.2085 7.0158 10.247C6.7431 10.3023 6.50015 10.4824 5.94744 11.2079C5.92134 11.2422 5.89223 11.2709 5.85369 11.4521C5.80446 11.6837 5.7609 12.0685 5.71014 12.8007C5.61093 14.232 5.52821 16.7913 5.4992 18.2333C5.47031 19.67 5.4996 19.8422 5.5285 20.0615C5.60059 20.6088 5.21535 21.1111 4.66815 21.1835C4.12077 21.2557 3.61849 20.8704 3.54608 20.3232C3.49644 19.9466 3.47091 19.6485 3.50018 18.1933C3.52935 16.7432 3.61232 14.1437 3.71502 12.662C3.81139 11.2719 3.89211 10.6047 4.35565 9.99603C4.88727 9.29814 5.53229 8.50711 6.61834 8.28704C6.99446 8.21085 7.47043 8.14348 9.53045 8.08587C11.6001 8.028 15.2223 7.9808 17.0334 7.95696C17.0642 7.95656 17.0944 7.9554 17.1242 7.95501C16.5005 7.24251 15.6647 6.28655 15.1847 5.73724C14.5621 5.02457 14.3928 4.81835 14.258 4.62103C13.9464 4.16501 14.0637 3.54195 14.5197 3.2304Z" fill="black"/>
</svg>
