<svg width="24" height="24" viewBox="0 0 24 24" fill="none" xmlns="http://www.w3.org/2000/svg">
<path d="M19.7042 3.36816C20.2563 3.36835 20.7042 3.81599 20.7042 4.36816C20.7042 4.92034 20.2563 5.36798 19.7042 5.36816C19.6803 5.36816 19.6567 5.36848 18.7052 5.37207C17.7509 5.37567 15.8961 5.38264 14.4845 5.43945C13.0859 5.49575 12.1831 5.60101 11.6349 5.67969C11.1193 5.7537 10.9212 5.81981 10.8634 5.84375C10.8606 5.84734 10.8574 5.85201 10.8536 5.85742C10.824 5.89954 10.7819 5.97319 10.7218 6.10254C10.6867 6.1779 10.591 6.37178 10.4327 7.37598C10.2733 8.3873 10.0706 10.1341 9.96494 11.1104C9.8638 12.0449 9.86415 12.1424 9.83506 13.3848C9.80881 14.5055 9.7596 16.5119 9.72959 17.8154C9.91725 17.6172 10.1073 17.4173 10.2813 17.2275C10.805 16.6565 11.2522 16.134 11.7892 15.6475C12.3263 15.1608 12.9567 14.7096 13.5577 14.2617C14.0005 13.9317 14.6271 14.023 14.9571 14.4658C15.2866 14.9086 15.1957 15.5354 14.753 15.8652C14.1008 16.3513 13.578 16.7257 13.1319 17.1299C12.6856 17.5344 12.3412 17.9408 11.755 18.5801C11.1918 19.1942 10.4881 19.9289 10.1026 20.3154C9.91962 20.499 9.77498 20.6379 9.65928 20.7305C9.6048 20.774 9.49816 20.856 9.35556 20.917C9.15964 21.0008 8.95575 21.0215 8.76279 20.9902C8.4005 20.9314 8.18574 20.7084 8.12217 20.6426C8.05379 20.5718 7.96685 20.4674 7.87705 20.3613C7.67792 20.1262 7.33222 19.7179 6.78525 19.168C6.50786 18.8891 6.18289 18.5767 5.84678 18.2549C5.51504 17.9373 5.17104 17.6088 4.87412 17.3115C4.29626 16.7329 3.86196 16.2625 3.59385 15.8994C3.4301 15.6776 3.32211 15.5257 3.25303 15.4258C3.21852 15.3759 3.19405 15.3387 3.17783 15.3145L3.19053 15.3311C3.19555 15.3376 3.20485 15.3489 3.21592 15.3623C3.22507 15.3734 3.24817 15.4014 3.28037 15.4336C2.88989 15.0431 2.88999 14.4101 3.28037 14.0195C3.67089 13.629 4.30391 13.629 4.69443 14.0195C4.74681 14.072 4.78291 14.1209 4.78525 14.124C4.79557 14.1377 4.80428 14.1494 4.80771 14.1543C4.8147 14.1642 4.82105 14.1734 4.82334 14.1768C4.8276 14.1832 4.83605 14.1973 4.83994 14.2031C4.85172 14.2207 4.87106 14.2484 4.89853 14.2881C4.95435 14.3688 5.05004 14.5044 5.20322 14.7119C5.37616 14.946 5.7183 15.3269 6.28916 15.8984C6.567 16.1766 6.89294 16.4882 7.22959 16.8105C7.39963 16.9734 7.57309 17.1386 7.74131 17.3018C7.77155 16.0207 7.81288 14.3267 7.83603 13.3379C7.86564 12.0738 7.86663 11.9122 7.97666 10.8955C8.08218 9.92046 8.28933 8.13025 8.45713 7.06543C8.62589 5.99457 8.75682 5.58577 8.9083 5.25977C9.06276 4.92739 9.30072 4.47726 9.7501 4.17969C10.0848 3.95823 10.5288 3.81719 11.3507 3.69922C11.9659 3.61093 12.9369 3.50047 14.4044 3.44141C15.8592 3.38286 17.7514 3.37564 18.6974 3.37207C19.6456 3.36849 19.6754 3.36816 19.7042 3.36816Z" fill="black"/>
</svg>
