<svg width="24" height="24" viewBox="0 0 24 24" fill="none" xmlns="http://www.w3.org/2000/svg">
<path d="M20.0779 3.16868C20.6301 3.17511 21.0725 3.62827 21.0662 4.18039C21.03 7.28495 21.0051 10.2511 20.9744 11.7986V11.8181C20.9089 13.4687 20.8002 13.9797 20.5115 14.4734L20.4617 14.5593L20.3953 14.6345C20.0234 15.0519 19.3424 15.667 18.2606 15.8874C17.7274 15.9961 16.7968 16.1698 14.616 16.2761C12.4592 16.3812 9.14872 16.4199 7.45881 16.4392C7.1359 16.4429 6.87068 16.4446 6.65217 16.447C6.74095 16.551 6.83654 16.6629 6.94221 16.782C7.42402 17.3248 8.06421 18.0024 8.4676 18.4138L8.80353 18.7331C8.89499 18.8173 8.96706 18.8815 9.02424 18.9304L9.22053 19.0847L9.24103 19.0984L9.26057 19.113C9.33871 19.1723 9.46936 19.2866 9.48127 19.2966C9.90547 19.65 9.96334 20.2805 9.61018 20.7048C9.25663 21.1289 8.62524 21.1871 8.201 20.8337C8.06833 20.7232 8.09329 20.7376 8.05256 20.7068V20.7058C7.86406 20.5728 7.60473 20.363 7.076 19.8513L7.05842 19.8337C6.63671 19.4045 5.96108 18.6893 5.44611 18.1091C4.92983 17.5274 4.56503 17.0715 4.27814 16.6374C3.99805 16.2136 3.79788 15.8215 3.69611 15.5632C3.67842 15.5183 3.57856 15.2854 3.60432 14.988C3.63008 14.6924 3.76233 14.4743 3.84455 14.3552C3.98864 14.1466 4.25243 13.8688 4.59064 13.5095C5.33777 12.7158 6.75313 11.2212 7.47541 10.4431C7.83763 10.0529 8.01185 9.85781 8.0965 9.75754C8.10946 9.7422 8.11919 9.73055 8.1258 9.72239C8.38422 9.27437 8.94726 9.09336 9.4217 9.32004C9.9199 9.5584 10.1308 10.1558 9.8924 10.654C9.82662 10.7914 9.75325 10.8954 9.62482 11.0476C9.50663 11.1876 9.30336 11.4133 8.94123 11.8034C8.33047 12.4614 7.22723 13.6271 6.45197 14.4489C6.69919 14.4462 7.01941 14.4439 7.43635 14.4392C9.13843 14.4197 12.4068 14.381 14.5184 14.2781C16.6043 14.1764 17.4338 14.0145 17.8612 13.9275C18.3055 13.8369 18.6088 13.6028 18.8221 13.3835C18.8638 13.2442 18.9311 12.8543 18.9754 11.739C19.0057 10.1969 19.03 7.26314 19.0662 4.15696C19.0728 3.60497 19.526 3.16242 20.0779 3.16868Z" fill="black"/>
</svg>
