<svg width="24" height="24" viewBox="0 0 24 24" fill="none" xmlns="http://www.w3.org/2000/svg">
<path d="M4.2013 2.99219C4.23077 2.99514 4.26066 3.00315 5.47767 3.02344C6.66275 3.04319 8.98787 3.07534 10.2081 3.09668C11.5236 3.11969 11.9844 3.14899 12.6622 3.19629C13.4442 3.25092 13.9344 3.57767 14.2286 3.88379C14.433 4.09644 14.579 4.3645 14.6827 4.58594C14.7947 4.82502 14.8965 5.09685 14.9874 5.375C15.1697 5.93245 15.3299 6.58093 15.4513 7.1875C15.5196 7.52915 15.5432 7.95255 15.5597 8.3086C15.5688 8.50417 15.5757 8.68893 15.5841 8.86231L15.6163 9.35059L15.6173 9.35742L15.6183 9.36524C15.6311 9.52909 15.6327 9.7203 15.6876 11.2588C15.7367 12.6333 15.8282 15.0984 15.9279 17.7627C16.1198 17.5384 16.3373 17.2874 16.5773 17.0166C17.0915 16.4363 17.5189 16.1256 17.9552 15.7822C18.52 15.2782 18.8865 14.9645 19.129 14.7598C19.2463 14.6607 19.3458 14.578 19.4025 14.5303C19.4338 14.5039 19.4552 14.4854 19.4708 14.4717C19.4814 14.4624 19.4867 14.4576 19.4884 14.4561C19.4962 14.4479 19.4998 14.4439 19.5011 14.4424C19.8136 13.9871 20.4364 13.8712 20.8917 14.1836C21.347 14.4961 21.463 15.1189 21.1505 15.5742C21.0625 15.7024 20.9768 15.7959 20.8966 15.877L20.8898 15.8828L20.8839 15.8896C20.7877 15.9832 20.6172 16.1208 20.4191 16.2881C20.1881 16.4831 19.8297 16.7904 19.2658 17.2939L19.2433 17.3145L19.2199 17.333C18.7235 17.7249 18.4537 17.9147 18.0743 18.3428C17.6655 18.8042 17.3238 19.2071 17.0587 19.5215C16.8165 19.8087 16.5891 20.0824 16.4572 20.2139C16.4838 20.1877 16.1423 20.5821 15.8214 20.8203C15.4366 21.106 14.8432 21.392 14.089 21.2725C13.6137 21.197 13.2457 20.9388 12.9425 20.6729C12.6403 20.4078 12.2895 20.0307 11.8624 19.5645C10.986 18.6076 9.65872 17.1251 8.99622 16.3857C8.66433 16.0153 8.49653 15.8292 8.41224 15.7354L8.34681 15.6621L8.36048 15.6758C7.97009 15.2852 7.97 14.6522 8.36048 14.2617C8.75096 13.8713 9.38401 13.8713 9.77454 14.2617C9.80492 14.2921 9.84418 14.336 10.4855 15.0518C11.1509 15.7944 12.4697 17.267 13.337 18.2139C13.5992 18.5001 13.8032 18.718 13.9679 18.8857C13.8536 15.8342 13.7442 12.8856 13.6886 11.3301C13.6339 9.79929 13.6324 9.64151 13.6251 9.53711C13.5908 9.17175 13.5775 8.7437 13.5617 8.40039C13.5441 8.02217 13.5242 7.74939 13.4904 7.58008C13.3795 7.02648 13.2381 6.4581 13.087 5.99609C13.0114 5.76481 12.9382 5.5755 12.8722 5.43457C12.8227 5.32881 12.7901 5.27917 12.7814 5.26563C12.7736 5.25814 12.7635 5.24881 12.7443 5.23926C12.7203 5.22745 12.6543 5.2006 12.5226 5.19141C11.8786 5.14647 11.4526 5.11906 10.173 5.09668C8.9427 5.07516 6.65162 5.04356 5.44446 5.02344C4.26987 5.00386 4.13563 4.99581 4.00208 4.98242C3.45277 4.92729 3.05177 4.43699 3.10657 3.8877C3.16168 3.33826 3.65188 2.93723 4.2013 2.99219ZM8.33997 15.6543C8.34184 15.6564 8.34413 15.6591 8.34681 15.6621C8.34164 15.6567 8.33741 15.6528 8.33607 15.6514C8.33678 15.6522 8.33857 15.6528 8.33997 15.6543Z" fill="black"/>
</svg>
