<svg width="24" height="24" viewBox="0 0 24 24" fill="none" xmlns="http://www.w3.org/2000/svg">
<path d="M8.53133 3.53907C8.86459 3.4597 9.14994 3.54022 9.34383 3.63282C9.50643 3.71049 9.64572 3.81639 9.7286 3.88086C10.1 4.16981 10.7405 4.75152 11.2325 5.2295C11.4848 5.47463 11.6998 5.69458 11.9034 5.90235C12.1082 6.11138 12.3028 6.30905 12.5274 6.52539C12.9817 6.96284 13.5602 7.47573 13.8888 7.76368C14.2099 8.04506 14.2483 8.07327 14.2999 8.11524C14.7278 8.46398 14.792 9.09332 14.4434 9.52149C14.0948 9.94945 13.4654 10.0144 13.0372 9.66602C12.9649 9.60718 12.9079 9.56334 12.5704 9.26758C12.24 8.97803 11.6306 8.43854 11.1397 7.96582C10.8921 7.72729 10.6793 7.51057 10.4747 7.30176C10.272 7.09493 10.0768 6.89579 9.84969 6.67481C9.85195 7.29667 9.85667 8.46876 9.86825 9.15528C9.88264 10.0079 9.92366 10.3011 9.94344 10.6621C9.95279 10.8311 10.0377 11.7443 10.1622 13.2012C10.2206 13.8838 10.3297 14.4571 10.4454 15.3281C10.5308 15.971 10.7186 16.7445 10.8975 17.459C11.0229 17.9592 11.1523 18.2309 11.2608 18.4063C11.3838 18.6048 11.4872 18.7052 11.713 18.9736C11.685 18.9404 11.7173 19.0091 12.0587 19.0908C12.3911 19.1704 12.8495 19.226 13.5167 19.2959C14.383 19.3866 15.7946 19.4125 17.0011 19.4229C18.1711 19.4329 19.0405 19.3961 19.5196 19.3731C19.6411 19.3672 19.7315 19.3626 19.8009 19.3584C19.8561 19.355 19.8919 19.3517 19.9151 19.3496C20.4109 19.1965 20.9486 19.4494 21.1407 19.9404C21.3416 20.4546 21.0875 21.0351 20.5733 21.2363C20.2926 21.3461 20.0271 21.3513 19.6153 21.3711C19.116 21.3952 18.2062 21.4334 16.9845 21.4229C15.7987 21.4127 14.2869 21.3877 13.3077 21.2852C12.6687 21.2182 12.0755 21.1517 11.5929 21.0361C11.1193 20.9227 10.5722 20.7237 10.1827 20.2607C10.0466 20.099 9.78451 19.8204 9.56063 19.459C9.32227 19.0741 9.12276 18.6025 8.95809 17.9453C8.78347 17.2482 8.56579 16.3655 8.46297 15.5918C8.36436 14.8495 8.23309 14.1097 8.17 13.3721C8.05021 11.9703 7.95787 10.9801 7.94637 10.7715C7.93209 10.5108 7.88341 10.0869 7.86825 9.18848C7.85748 8.54973 7.85309 7.51055 7.85067 6.86328C7.83647 6.87911 7.82228 6.89488 7.80868 6.91016C7.62989 7.11094 7.51376 7.25648 7.36532 7.43457C7.21605 7.61365 7.05228 7.80363 6.80868 8.05762C6.23917 8.65138 5.77833 9.13284 5.45614 9.47364C5.29461 9.6445 5.17206 9.77568 5.08993 9.86621C5.05299 9.90693 5.02883 9.93469 5.01473 9.95118C4.74351 10.3313 4.23326 10.481 3.7911 10.2822C3.28771 10.0557 3.06308 9.46344 3.28914 8.95996L3.37215 8.81055C3.39615 8.77392 3.41423 8.74987 3.41707 8.7461C3.4394 8.71653 3.46191 8.68895 3.47957 8.66797C3.51603 8.6247 3.56111 8.57468 3.60848 8.52246C3.70502 8.41606 3.83952 8.27254 4.00301 8.09961C4.33128 7.7524 4.79767 7.26565 5.36532 6.67383C5.56726 6.46329 5.69903 6.30947 5.82918 6.15332C5.96018 5.99615 6.10848 5.81258 6.31551 5.58008C6.71543 5.13101 7.34311 4.47138 7.68172 4.11817C7.75583 4.04086 7.85668 3.93436 7.95516 3.84864C8.04864 3.76731 8.24539 3.60731 8.53133 3.53907ZM5.0284 9.92969C5.03192 9.92465 5.03685 9.9185 5.0411 9.91211C5.04316 9.90899 5.04572 9.90314 5.04989 9.89649C5.04298 9.90764 5.0357 9.91889 5.0284 9.92969Z" fill="black"/>
</svg>
