<svg width="24" height="24" viewBox="0 0 24 24" fill="none" xmlns="http://www.w3.org/2000/svg">
<path d="M12.1298 1.27372C12.3791 1.27943 12.6047 1.37657 12.7763 1.53153C13.5505 1.58214 14.2612 1.63226 14.83 1.6868C15.8515 1.78476 16.4152 1.89009 16.789 1.97001C17.123 2.04141 17.3529 2.09279 17.6376 2.21317C17.9318 2.33756 18.2616 2.45953 18.5966 2.65067C18.9498 2.85221 19.3063 3.1231 19.7988 3.55887C20.2935 3.99666 20.8293 4.51045 21.2011 5.00907C21.3764 5.24416 21.7387 5.80718 22.0683 6.52567C22.2048 6.82332 22.3319 7.10312 22.416 7.47489C22.4861 7.78548 22.588 8.56196 22.6494 9.56766C22.6612 9.76236 22.665 9.92012 22.666 10.0696C22.8733 10.1638 23.0498 10.3292 23.1552 10.5511C23.392 11.0498 23.1802 11.6461 22.6816 11.8831C22.6767 11.8854 22.6698 11.8888 22.6454 11.9016C22.6351 11.9071 22.6201 11.9142 22.6025 11.9231C22.5978 12.0108 22.595 12.0964 22.5898 12.178C22.5583 12.6685 22.5155 13.0309 22.4267 13.47C22.3413 13.8923 22.2166 14.3708 22.0654 14.8304C21.9189 15.2756 21.7534 15.7185 21.5429 16.1477C21.1993 16.8484 20.9725 17.3209 20.8046 17.6057C20.5095 18.1065 20.0672 18.827 19.4199 19.4436C19.1007 19.7476 18.7241 20.0606 18.3261 20.3225C17.6479 20.7689 17.0352 21.1294 16.2197 21.4056C15.7424 21.5672 14.9934 21.8123 14.5527 21.9319C13.8181 22.1314 13.1144 22.3452 12.4667 22.3782C11.4826 22.4282 10.7529 22.4446 10.579 22.4407C10.3643 22.4359 9.94609 22.4028 9.45111 22.2972C9.10952 22.2243 8.32129 22.154 7.14154 21.5169C6.98068 21.43 6.82521 21.3644 6.5849 21.2522C6.36552 21.1498 6.10087 21.019 5.8349 20.8401C5.03356 20.301 4.28863 19.6995 3.90814 19.261C3.63244 18.9433 3.20551 18.4585 2.86712 17.885C2.58949 17.4146 2.28403 16.8747 2.08197 16.1321C1.9682 15.7138 1.8512 15.1556 1.77923 14.5931C1.7062 14.0221 1.6816 13.4737 1.68255 12.8186C1.68266 12.7459 1.68374 12.6716 1.68451 12.596C1.20666 12.4857 1.12151 12.4645 1.03412 12.4417C0.500029 12.3019 0.179801 11.7561 0.319273 11.222C0.458965 10.6878 1.00572 10.3676 1.53998 10.5071C1.58046 10.5177 1.62291 10.5271 1.80755 10.5706C1.89932 9.82848 2.04463 9.13551 2.15423 8.69462C2.27886 8.19339 2.37077 7.96774 2.5888 7.49442C2.79204 7.05325 3.13187 6.33692 3.43939 5.77567C3.74562 5.2168 4.01223 4.80732 4.21771 4.54032C4.4917 4.18435 4.81153 3.83331 5.32709 3.44852C5.78827 3.10432 6.35095 2.73548 6.90228 2.50028C7.08644 2.42172 7.29672 2.32062 7.61224 2.21805C8.24187 2.01345 9.13631 1.66167 9.83783 1.52176C10.9214 1.30567 11.5838 1.26134 12.1298 1.27372ZM13.7822 12.9944C12.2949 13.036 10.6089 13.0699 9.04681 13.0784C8.99865 14.2139 9.02571 15.1811 9.05267 15.8225C9.08262 16.5348 9.10781 16.7169 9.22259 17.1253C9.35566 17.5986 9.60045 18.3146 9.86029 18.9485C10.072 19.465 10.2902 19.9113 10.5517 20.4349C10.5818 20.4367 10.606 20.4403 10.624 20.4407H10.6718C10.7006 20.4405 10.7384 20.4405 10.7851 20.4397C10.8792 20.4381 11.0057 20.4346 11.1591 20.43C11.3774 20.4234 11.6497 20.4099 11.9638 20.3958C11.8972 20.0752 11.9883 19.7283 12.2382 19.4807C12.2745 19.4448 12.348 19.3713 12.4316 19.302L12.4511 19.2864C12.4261 19.3061 12.4832 19.2656 12.6181 19.0647C12.742 18.8802 12.908 18.5926 13.1201 18.1614C13.2309 17.8581 13.4 17.377 13.5634 16.7806C13.6997 16.283 13.7789 15.9721 13.8154 15.594C13.8332 15.4087 13.866 15.0495 13.8183 13.7932C13.8091 13.5523 13.7963 13.2823 13.7822 12.9944ZM20.5478 12.5677C20.3644 12.6 20.147 12.6351 19.8915 12.6653C19.3231 12.7326 18.3662 12.8321 15.7802 12.93C15.794 13.2133 15.8073 13.479 15.8163 13.7171C15.8661 15.0275 15.8349 15.4821 15.8056 15.7864C15.7511 16.3517 15.6301 16.8088 15.4931 17.3089C15.2998 18.0144 15.1007 18.5747 14.9804 18.9016L14.9628 18.9495L14.7665 19.3421C14.6661 19.5356 14.5682 19.7109 14.4736 19.8694C14.8289 19.7593 15.2525 19.6213 15.5781 19.511C16.1573 19.3149 16.6049 19.0607 17.2265 18.6516C17.5055 18.468 17.7896 18.2348 18.041 17.9954C18.472 17.5849 18.7958 17.074 19.081 16.5901C19.198 16.3916 19.3755 16.0256 19.747 15.2679C19.902 14.9517 20.0351 14.6029 20.166 14.2054C20.2921 13.8219 20.3967 13.4197 20.4667 13.0735C20.5021 12.8987 20.5272 12.7408 20.5478 12.5677ZM3.68255 12.9192C3.68415 13.4732 3.70716 13.9054 3.76263 14.3391C3.82242 14.8065 3.92113 15.2739 4.01166 15.6067C4.14023 16.0794 4.3305 16.4291 4.58978 16.8684C4.82116 17.2605 5.12636 17.6134 5.41888 17.9505C5.62479 18.1877 6.19492 18.6722 6.95111 19.1809C7.08512 19.2711 7.23701 19.3489 7.43158 19.4397C7.58607 19.5118 7.80551 19.6104 8.01361 19.7181C8.01216 19.7145 8.01115 19.7108 8.0097 19.7073C7.72405 19.0104 7.45289 18.2216 7.29681 17.6663C7.1225 17.0461 7.0876 16.6909 7.05462 15.9065C7.02705 15.2505 6.99812 14.2526 7.04486 13.0735C6.71286 13.0695 6.39623 13.0649 6.09955 13.0569C5.08145 13.0296 4.29702 12.9791 3.68255 12.9192ZM11.4179 4.2913C11.2199 4.46499 11.0727 4.63845 10.9824 4.75712C10.8253 4.96343 10.6376 5.27377 10.4804 5.64091C10.3787 5.87841 10.2162 6.2432 10.0439 6.70829C9.88064 7.14883 9.70942 7.67698 9.52728 8.69169C9.40917 9.34973 9.29296 10.1987 9.20111 11.0774C10.6744 11.0679 12.2547 11.0373 13.665 10.9983C13.6204 10.3331 13.5734 9.69513 13.5253 9.19169C13.4083 7.96607 13.306 7.60664 13.1865 7.24735C13.0472 6.82877 12.8792 6.41244 12.7382 6.11161C12.5997 5.81598 12.5123 5.66178 12.3427 5.44559C12.0192 5.03327 11.7036 4.64221 11.4179 4.2913ZM8.23041 4.11942C8.02685 4.18558 7.95381 4.22648 7.68744 4.34012C7.34707 4.48532 6.93013 4.74845 6.52337 5.05204C6.17855 5.30943 5.98508 5.52306 5.80267 5.76005C5.6786 5.92127 5.46705 6.23702 5.1933 6.73661C4.92096 7.23364 4.60512 7.89737 4.40521 8.33134C4.22031 8.73273 4.1805 8.83574 4.09564 9.17704C3.99844 9.56804 3.86527 10.2014 3.78607 10.8645C3.78394 10.8823 3.78226 10.9004 3.78021 10.9182C4.35765 10.9773 5.12274 11.0303 6.15228 11.0579C6.47532 11.0666 6.82344 11.0715 7.19037 11.0755C7.28983 10.0759 7.4223 9.09715 7.55853 8.33817C7.76211 7.20403 7.96572 6.56225 8.16888 6.01395C8.3627 5.49094 8.54869 5.07056 8.64154 4.8538C8.81356 4.45215 9.01822 4.08495 9.22552 3.7786C8.92974 3.88086 8.60346 3.99819 8.23041 4.11942ZM13.916 4.21024C14.2082 4.58274 14.3704 4.88032 14.5497 5.26298C14.7267 5.64065 14.9223 6.13069 15.0839 6.61649C15.2652 7.16165 15.3903 7.67916 15.5165 9.00223C15.5682 9.54335 15.6182 10.227 15.665 10.9339C18.2432 10.837 19.1514 10.7387 19.6562 10.679C20.2175 10.6126 20.4389 10.5568 20.6581 10.5032C20.6688 10.1794 20.6726 10.0067 20.6533 9.68973C20.5937 8.7121 20.4995 8.06458 20.4658 7.91532C20.4326 7.76885 20.3883 7.65917 20.2509 7.35966C19.9778 6.76443 19.6861 6.32313 19.5976 6.20438C19.3552 5.8794 18.9499 5.47838 18.4736 5.05692C18.0245 4.65956 17.786 4.49106 17.6054 4.38798C17.4067 4.27457 17.2629 4.22603 16.8583 4.05497C16.7683 4.0169 16.7079 3.99809 16.371 3.92606C16.0733 3.86241 15.5851 3.76877 14.6386 3.67801C14.2841 3.64402 13.8693 3.61197 13.413 3.57938C13.5757 3.78203 13.7453 3.99265 13.916 4.21024Z" fill="black"/>
</svg>
