<svg width="24" height="24" viewBox="0 0 24 24" fill="none" xmlns="http://www.w3.org/2000/svg">
<path d="M7.94922 12.5928C8.77467 12.5904 8.98531 12.5962 9.13672 12.6064C9.14205 12.6067 9.23354 12.6114 9.33398 12.6348C9.45772 12.6636 9.6232 12.7242 9.78125 12.8564C10.0804 13.1068 10.1475 13.4365 10.168 13.5488C10.2122 13.7919 10.2077 14.1388 10.1943 14.5615C10.1649 15.4886 10.0652 17.2609 10.0068 18.1816C9.99269 18.4047 9.97864 18.6099 9.95898 18.7783C9.94111 18.9313 9.90885 19.1559 9.81348 19.3711C9.69241 19.6439 9.48126 19.8792 9.17578 20.0156C8.94402 20.119 8.71064 20.1368 8.61426 20.1445C8.17973 20.1796 7.32235 20.1685 6.4248 20.1885C5.46656 20.2098 4.32507 20.264 3.73438 20.2969C3.48477 20.3108 3.24624 20.3273 3.09961 20.3223C3.05151 20.3206 2.78193 20.3187 2.51953 20.1543C2.15113 19.9233 2.06818 19.566 2.04883 19.4785C2.0142 19.3219 2.01191 19.1624 2.01172 19.0781C2.01148 18.9719 2.01582 18.8467 2.02051 18.7178C2.02969 18.4654 2.04453 18.137 2.04199 17.2881C2.03942 16.428 2.01962 15.0832 2.00977 14.3975C2.00005 13.7219 2 13.6939 2 13.6689C2.00003 13.6651 2.00093 13.6611 2.00098 13.6572C2.00121 13.6356 2.00231 13.6141 2.00391 13.5928C2.00507 13.5774 2.00694 13.562 2.00879 13.5469C2.01015 13.5358 2.01195 13.5246 2.01367 13.5137C2.01684 13.4934 2.02004 13.473 2.02441 13.4531C2.02753 13.439 2.03145 13.425 2.03516 13.4111C2.03977 13.3938 2.04429 13.3763 2.0498 13.3594C2.05389 13.3469 2.05892 13.3345 2.06348 13.3223C2.08117 13.2745 2.1025 13.2286 2.12695 13.1846C2.13515 13.1698 2.14343 13.1549 2.15234 13.1406C2.16092 13.1269 2.16949 13.1129 2.17871 13.0996C2.18822 13.0859 2.19882 13.0728 2.20898 13.0596C2.21786 13.0481 2.22697 13.0365 2.23633 13.0254C2.24773 13.0119 2.26037 12.9992 2.27246 12.9863C2.28233 12.9758 2.29143 12.9642 2.30176 12.9541C2.31787 12.9384 2.33539 12.9238 2.35254 12.9092C2.35807 12.9044 2.36349 12.8991 2.36914 12.8945C2.38547 12.8812 2.40274 12.8687 2.41992 12.8564C2.42968 12.8494 2.43919 12.8416 2.44922 12.835C2.4652 12.8244 2.48241 12.8153 2.49902 12.8057C2.51154 12.7984 2.52425 12.7909 2.53711 12.7842C2.54632 12.7794 2.55605 12.775 2.56543 12.7705C2.58537 12.7608 2.60532 12.7505 2.62598 12.7422C2.63972 12.7367 2.65392 12.7315 2.66797 12.7266C2.68339 12.7211 2.69909 12.7156 2.71484 12.7109C2.73624 12.7046 2.75827 12.6993 2.78027 12.6943C2.78859 12.6925 2.79727 12.6911 2.80566 12.6895C2.8243 12.6858 2.84328 12.6823 2.8623 12.6797C2.88162 12.677 2.90125 12.6744 2.9209 12.6729C2.9231 12.6726 2.92553 12.672 2.92773 12.6719C2.94961 12.6703 2.97288 12.6708 2.99512 12.6699C2.99666 12.6698 2.99845 12.6689 3 12.6689V12.6699C3.03571 12.6686 3.07036 12.6654 3.09863 12.665C3.15098 12.6643 3.20804 12.6641 3.25879 12.6641H3.44531C3.62683 12.6505 3.82929 12.6331 4.80762 12.6143H4.81738C5.62072 12.6067 7.11215 12.5952 7.94922 12.5928ZM20.1094 12.0391C20.348 12.0387 20.8479 12.0524 21.2285 12.4521L21.3027 12.5371L21.3926 12.6631C21.5801 12.9613 21.6291 13.2876 21.6484 13.4531C21.6761 13.6899 21.6726 13.9198 21.665 14.0752C21.6484 14.4136 21.6234 14.6484 21.6416 15.5488C21.657 16.309 21.693 17.6179 21.7109 18.3037C21.7193 18.6223 21.7259 18.853 21.7197 18.998C21.7174 19.0519 21.7114 19.2258 21.6426 19.4082C21.5995 19.5223 21.5262 19.658 21.4023 19.7822C21.2808 19.9041 21.1568 19.9683 21.0889 19.999C20.8536 20.1053 20.6233 20.1046 20.5586 20.1055C20.4616 20.1068 20.3357 20.1021 20.207 20.0977C19.9361 20.0884 19.5028 20.0729 18.6094 20.082C17.6892 20.0915 16.3786 20.1101 15.7012 20.1494C15.5373 20.1589 15.3861 20.1758 15.2334 20.1943C15.0924 20.2115 14.9162 20.2353 14.7568 20.248C14.4223 20.2747 13.9658 20.2747 13.5 20.0176C13.3026 19.9085 13.1125 19.7347 12.9912 19.4756C12.8953 19.2704 12.8718 19.0688 12.8613 18.9492C12.841 18.716 12.8458 18.3575 12.8467 17.9111C12.8487 16.94 12.839 15.2144 12.834 14.3223C12.829 13.4345 12.8291 13.3433 12.8291 13.292C12.8291 13.2806 12.8307 13.2691 12.8311 13.2578C12.8316 13.2405 12.8325 13.2231 12.834 13.2061C12.8352 13.1914 12.837 13.1766 12.8389 13.1621C12.8415 13.1418 12.8448 13.1215 12.8486 13.1016C12.8522 13.0832 12.8558 13.0649 12.8604 13.0469C12.8635 13.0344 12.8675 13.0221 12.8711 13.0098C12.875 12.9966 12.8794 12.9836 12.8838 12.9707C12.8899 12.9526 12.8962 12.9346 12.9033 12.917C12.908 12.9055 12.9129 12.8941 12.918 12.8828C12.9269 12.863 12.9361 12.8433 12.9463 12.8242C12.9509 12.8156 12.9561 12.8073 12.9609 12.7988C12.9709 12.7813 12.9812 12.7639 12.9922 12.7471C13.0011 12.7334 13.0109 12.7203 13.0205 12.707C13.0289 12.6955 13.0371 12.684 13.0459 12.6729C13.0565 12.6594 13.0678 12.6466 13.0791 12.6338C13.0893 12.6222 13.0996 12.6107 13.1104 12.5996C13.1224 12.5872 13.1348 12.5753 13.1475 12.5635C13.1592 12.5525 13.1703 12.5407 13.1826 12.5303C13.1914 12.5228 13.2009 12.516 13.21 12.5088C13.2262 12.4959 13.2427 12.4835 13.2598 12.4717C13.2704 12.4643 13.2811 12.4572 13.292 12.4502C13.3086 12.4396 13.3255 12.4296 13.3428 12.4199C13.3527 12.4144 13.363 12.4095 13.373 12.4043C13.3911 12.395 13.409 12.3852 13.4277 12.377C13.4399 12.3716 13.4525 12.3672 13.4648 12.3623C13.4813 12.3559 13.4978 12.3493 13.5146 12.3438C13.5332 12.3376 13.5522 12.3322 13.5713 12.3271C13.5832 12.324 13.5953 12.3211 13.6074 12.3184C13.6296 12.3133 13.6521 12.3092 13.6748 12.3057C13.6832 12.3044 13.6917 12.3028 13.7002 12.3018C13.7259 12.2985 13.752 12.2962 13.7783 12.2949C13.7837 12.2946 13.7895 12.2932 13.7949 12.293C15.6675 12.2283 17.9258 12.1669 18.9619 12.1045C19.431 12.0762 19.8463 12.0395 20.1094 12.0391ZM4.84473 14.6123L4.8457 14.6133C4.45064 14.6209 4.1911 14.629 4.0127 14.6357C4.02307 15.3631 4.03969 16.511 4.04199 17.2822C4.04333 17.7317 4.03907 18.0449 4.03418 18.2793C4.67349 18.2472 5.584 18.2072 6.37988 18.1895C7.08823 18.1737 7.61965 18.1734 8.00195 18.167C8.00425 18.132 8.00823 18.0944 8.01074 18.0547C8.06698 17.1678 8.15955 15.5098 8.19141 14.5928C8.11959 14.5928 8.04087 14.5925 7.95508 14.5928C7.12751 14.5952 5.64859 14.6047 4.84473 14.6123ZM19.082 14.1006C18.194 14.154 16.4489 14.2073 14.833 14.2598C14.8331 14.2763 14.8339 14.2934 14.834 14.3105C14.8389 15.1986 14.8487 16.9342 14.8467 17.915C14.8464 18.0318 14.846 18.1345 14.8457 18.2256C14.8893 18.2202 14.9379 18.2156 14.9922 18.209C15.1584 18.1887 15.3589 18.1665 15.5859 18.1533C16.3213 18.1106 17.6844 18.0913 18.5889 18.082C19.0736 18.0771 19.432 18.0786 19.7051 18.083C19.6861 17.3649 19.6562 16.2649 19.6426 15.5898C19.6245 14.6942 19.6464 14.3711 19.6631 14.0615C19.5047 14.0724 19.3078 14.087 19.082 14.1006ZM15.9795 3.51172C16.8325 3.50187 18.6024 3.48033 19.5381 3.54297C19.9801 3.57258 20.3839 3.62661 20.6904 3.77832C20.8738 3.86911 21.1054 4.03486 21.2451 4.32617C21.3748 4.59698 21.3554 4.85197 21.3545 4.87305C21.3488 5.03824 21.3228 5.44285 21.2959 5.94531C21.2856 6.13713 21.2638 6.28476 21.25 6.39062C21.2369 6.49109 21.2264 6.58786 21.2207 6.73828C21.2087 7.05667 21.2002 7.66709 21.2119 8.23242C21.2164 8.44743 21.2506 8.9623 21.0615 9.43262C20.8272 10.015 20.3454 10.3823 19.7227 10.5889C19.1644 10.7739 18.4017 10.8573 17.7432 10.9023C17.0572 10.9492 16.3659 10.9608 15.9092 10.9697C15.4069 10.9795 15.1838 10.9872 14.9863 10.9912C14.828 10.9945 14.685 10.9967 14.5273 10.9736C14.1369 10.9162 13.903 10.6739 13.793 10.5186C13.6915 10.3752 13.6438 10.2354 13.6318 10.2012C13.5776 10.0459 13.5718 9.9042 13.5703 9.87695C13.5672 9.81911 13.5674 9.76192 13.5684 9.71582C13.5703 9.62194 13.5761 9.50971 13.584 9.39355C13.5999 9.16029 13.6272 8.83965 13.6553 8.48535C13.689 8.05931 13.7044 7.99358 13.7412 7.49316C13.7707 7.09245 13.8051 6.74502 13.834 6.46875C13.8633 6.18862 13.8837 6.01438 13.8926 5.90527C13.9279 5.2182 13.9398 5.0012 13.9463 4.85156V4.85059C13.9524 4.71385 13.9842 4.57079 13.9971 4.5127C14.0156 4.42942 14.0369 4.34693 14.0518 4.29199L14.0742 4.2168C14.1056 4.12633 14.1652 3.99579 14.2764 3.86816C14.4359 3.68537 14.6247 3.59503 14.7686 3.55176C14.9715 3.49087 15.1801 3.50152 15.2041 3.50195C15.3645 3.50484 15.5628 3.51652 15.9795 3.51172ZM3.58984 3.625C3.69944 3.63048 4.46387 3.69861 5.29883 3.7041C6.15981 3.70976 7.82724 3.71865 8.70801 3.7207C9.1383 3.72171 9.38496 3.72081 9.51855 3.72266C9.57623 3.72346 9.6614 3.7252 9.74121 3.73438C9.82742 3.74432 9.95158 3.76704 10.0869 3.83105L10.2256 3.91016L10.3174 3.98047C10.5156 4.14932 10.5963 4.34722 10.6221 4.41406C10.6626 4.51945 10.6825 4.61577 10.6924 4.6748C10.7127 4.79641 10.7194 4.92432 10.7227 5.02734C10.7294 5.24078 10.7236 5.51906 10.7178 5.80371C10.7145 5.96166 10.7026 6.09878 10.6934 6.22461C10.6836 6.35748 10.6717 6.53614 10.6631 6.83301C10.646 7.41908 10.6337 8.57808 10.5938 9.17969C10.5746 9.46828 10.5443 9.74276 10.4658 9.96387C10.424 10.0818 10.3312 10.2936 10.1211 10.4688C9.88028 10.6695 9.6268 10.7007 9.57129 10.708C9.45711 10.7231 9.34667 10.7209 9.23926 10.7197C9.09353 10.7182 8.83543 10.7146 8.33105 10.71C7.33259 10.7008 5.33125 10.6866 4.29883 10.6465C4.03873 10.6364 3.82582 10.6244 3.65527 10.6074C3.50057 10.592 3.31502 10.5672 3.14355 10.5098C2.97687 10.4539 2.60523 10.2926 2.43262 9.85742C2.35728 9.66722 2.35257 9.49834 2.35645 9.40234C2.35982 9.31961 2.37304 9.24224 2.37402 9.23633L2.40723 8.96387C2.4201 8.82512 2.434 8.62548 2.44629 8.32812C2.4716 7.71543 2.48827 6.72772 2.5 6.17676V6.16992C2.51713 5.5785 2.52252 5.41574 2.52539 5.14551V5.13672C2.52854 4.97203 2.53491 4.77998 2.54102 4.5918C2.54113 4.58837 2.54182 4.58449 2.54199 4.58105C2.54208 4.57899 2.54192 4.57631 2.54199 4.57422C2.54621 4.48972 2.56227 4.40843 2.58594 4.33105C2.59025 4.31699 2.59471 4.30285 2.59961 4.28906C2.64017 4.17498 2.70018 4.07082 2.77637 3.98047C2.78365 3.97184 2.79127 3.96346 2.79883 3.95508C2.80685 3.94619 2.81491 3.9373 2.82324 3.92871C2.83623 3.91532 2.84957 3.9023 2.86328 3.88965C2.87297 3.88071 2.88352 3.87281 2.89355 3.86426C2.93316 3.83051 2.97501 3.79976 3.01953 3.77246C3.026 3.76849 3.0325 3.76456 3.03906 3.76074C3.08726 3.73268 3.13763 3.70827 3.19043 3.68848C3.21319 3.67994 3.23628 3.67192 3.25977 3.66504C3.26586 3.66326 3.27218 3.66182 3.27832 3.66016C3.30206 3.65371 3.32621 3.64826 3.35059 3.64355C3.35898 3.64193 3.36751 3.64008 3.37598 3.63867C3.39336 3.63579 3.41106 3.63381 3.42871 3.63184C3.44519 3.62999 3.46181 3.627 3.47852 3.62598C3.51509 3.62375 3.55239 3.62316 3.58984 3.625ZM16.0029 5.51172C15.9726 5.51207 15.9428 5.51056 15.9141 5.51074C15.907 5.64621 15.8993 5.81274 15.8887 6.01953V6.03223L15.8877 6.04492C15.8766 6.19001 15.8494 6.42644 15.8232 6.67676C15.7954 6.94242 15.7638 7.26801 15.7363 7.64062C15.7065 8.04626 15.6684 8.40365 15.6494 8.64355C15.64 8.76195 15.6313 8.87295 15.623 8.97559C15.7001 8.97392 15.7827 8.97241 15.8701 8.9707C16.3349 8.96165 16.9773 8.94925 17.6064 8.90625C18.2628 8.86138 18.7983 8.78795 19.0928 8.69043C19.1472 8.67238 19.185 8.65492 19.21 8.64258C19.2107 8.63491 19.2123 8.62592 19.2129 8.61621C19.218 8.53192 19.2154 8.43986 19.2119 8.27344C19.1995 7.67065 19.2082 7.02145 19.2217 6.66309C19.2305 6.42939 19.2501 6.26718 19.2676 6.13281C19.2844 6.00385 19.2935 5.93805 19.2988 5.83789C19.3047 5.72834 19.3102 5.62649 19.3154 5.5332C18.4534 5.48394 16.8651 5.50177 16.0029 5.51172ZM4.49902 6.21875C4.48773 6.74928 4.47074 7.77201 4.44434 8.41113C4.4408 8.49669 4.43547 8.57604 4.43164 8.64941C5.44131 8.68649 7.34768 8.70077 8.34961 8.70996C8.44581 8.71084 8.53363 8.71112 8.61328 8.71191C8.63677 8.13395 8.64804 7.32479 8.66406 6.77441C8.67367 6.44467 8.68757 6.23655 8.69922 6.07812C8.71138 5.91282 8.7169 5.85212 8.71875 5.7627C8.71904 5.74863 8.71848 5.73442 8.71875 5.7207C8.71365 5.72069 8.70828 5.72071 8.70312 5.7207C7.81858 5.71864 6.14871 5.70977 5.28613 5.7041C5.02191 5.70236 4.75515 5.69288 4.51172 5.68262C4.50797 5.81972 4.50571 5.98797 4.49902 6.21875Z" fill="black"/>
</svg>
