<svg width="24" height="24" viewBox="0 0 24 24" fill="none" xmlns="http://www.w3.org/2000/svg">
<path d="M16.5312 17.0459C18.9726 17.0182 19.3427 17.025 19.4912 17.0352L19.4922 17.0342C19.643 17.0407 19.9384 17.0535 20.3857 17.0781L20.3848 17.0791C20.6094 17.0905 20.8473 17.0998 21.0977 17.1104C21.6494 17.1336 22.0779 17.5996 22.0547 18.1514C22.0312 18.7029 21.5652 19.1315 21.0137 19.1084C20.7639 19.0979 20.516 19.0871 20.2803 19.0752H20.2754C19.8391 19.0512 19.5524 19.0385 19.4062 19.0322L19.3828 19.0313L19.3594 19.0293C19.3537 19.0287 19.3549 19.0141 16.5537 19.0459C13.7832 19.0774 8.46515 19.1509 5.80176 19.1875C3.14824 19.224 3.12859 19.2236 3.11328 19.2236C2.56112 19.2236 2.11349 18.7758 2.11328 18.2236C2.11344 17.6715 2.56109 17.2236 3.11328 17.2236H3.14648C3.18944 17.2231 3.27428 17.222 3.44141 17.2197C3.77664 17.2152 4.44378 17.2058 5.77441 17.1875C8.43668 17.1509 13.7579 17.0774 16.5312 17.0459ZM3.41113 10.9043L3.41016 10.9033C3.40394 10.9029 3.39804 10.9026 3.39355 10.9024C3.42594 10.903 3.49932 10.9033 3.65918 10.9043C3.97568 10.9063 4.60943 10.9095 5.87891 10.9131C8.41665 10.9203 13.4941 10.9312 16.1406 10.9424C18.7409 10.9534 18.889 10.9627 19.1016 10.9883C19.2264 11.0033 19.4279 11.0238 19.7598 11.0557C20.3093 11.1086 20.7119 11.5979 20.6592 12.1475C20.6061 12.6968 20.1178 13.0996 19.5684 13.0469C19.2344 13.0149 19.0129 12.9918 18.8623 12.9736C18.7994 12.9661 18.8225 12.9538 16.1318 12.9424C13.4871 12.9312 8.41357 12.9203 5.87305 12.9131C4.60431 12.9095 3.96713 12.9064 3.64648 12.9043C3.48809 12.9033 3.40101 12.9024 3.35254 12.9014C3.33464 12.901 3.29962 12.9 3.26465 12.8975C3.25908 12.8971 3.18772 12.8932 3.10254 12.8731C3.05359 12.8615 2.95672 12.8356 2.84766 12.7754C2.71874 12.7042 2.63688 12.6193 2.62402 12.6065C2.23356 12.216 2.23369 11.5829 2.62402 11.1924C2.8397 10.9767 3.12918 10.8818 3.41113 10.9043ZM4.03809 11.1924C4.03892 11.1932 4.0094 11.1631 3.9707 11.1309C3.96851 11.1291 3.96516 11.1278 3.96289 11.126C3.98847 11.1469 4.01422 11.1685 4.03809 11.1924ZM3.83887 11.0401C3.83076 11.0353 3.82282 11.0291 3.81445 11.0244L3.81152 11.0235C3.8208 11.0286 3.82971 11.0346 3.83887 11.0401ZM3.57715 10.9317C3.57179 10.9303 3.56704 10.9279 3.5625 10.9268C3.55939 10.926 3.55581 10.9265 3.55273 10.9258C3.56088 10.9276 3.56904 10.9296 3.57715 10.9317ZM21.8818 4.78615C22.434 4.77817 22.8884 5.21936 22.8965 5.7715C22.9043 6.32344 22.4631 6.77796 21.9111 6.78615C16.3334 6.86713 10.9137 6.94569 7.81543 6.97267C4.71549 6.99966 3.94913 6.97552 3.55273 6.96291C3.36447 6.95691 3.26961 6.95463 3.22168 6.95314C3.19747 6.95239 3.18576 6.95133 3.18066 6.95119H3.20117C2.64901 6.95119 2.20138 6.5033 2.20117 5.95119C2.20143 5.39912 2.64905 4.95119 3.20117 4.95119C3.2254 4.95119 3.25831 4.95249 3.61621 4.96388C3.97409 4.97527 4.71051 4.99956 7.79883 4.97267C10.8898 4.94575 16.3011 4.86717 21.8818 4.78615Z" fill="black"/>
</svg>
