<svg width="24" height="24" viewBox="0 0 24 24" fill="none" xmlns="http://www.w3.org/2000/svg">
<path d="M12.2246 1.75976C12.3591 1.75466 12.5827 1.7691 12.8115 1.89551L12.9102 1.95703L13.0811 2.09668C13.1198 2.13221 13.1385 2.1506 13.1797 2.1875C13.2519 2.25216 13.3793 2.36185 13.6172 2.54297C13.8657 2.73215 14.2192 2.99109 14.623 3.28906C15.0223 3.58367 15.4648 3.91233 15.876 4.22754C16.7465 4.89477 17.3067 5.36934 18.0127 5.89453C18.6824 6.39268 19.3726 6.8461 19.7812 7.12305C20.2243 7.4233 20.6982 7.79444 21.1836 8.14258C21.401 8.2856 21.5111 8.34551 21.7305 8.47363L21.7354 8.47656C21.8652 8.55326 22.006 8.63809 22.1631 8.72656C22.644 8.99754 22.8146 9.60679 22.5439 10.0879C22.2729 10.5689 21.6628 10.7397 21.1816 10.4687C21.0555 10.3977 20.9369 10.3259 20.8369 10.2666C20.8267 10.4933 20.8134 10.7798 20.7969 11.1484C20.7359 12.5103 20.6263 14.9807 20.5732 16.2822C20.5193 17.6046 20.5351 17.9318 20.5371 18.3848L20.5469 18.6328L20.5586 18.7266L20.5596 18.7373C20.5658 18.7753 20.5675 18.7838 20.5732 18.8174C20.578 18.8449 20.5854 18.8849 20.5977 18.9482C21.3033 18.9415 21.5682 18.9441 21.8379 18.9482C22.3898 18.9566 22.8312 19.4111 22.8232 19.9629C22.8148 20.5151 22.3598 20.9566 21.8076 20.9482C21.3401 20.9411 20.8819 20.933 17.5029 20.9941C14.1239 21.0552 8.02154 21.1813 4.91699 21.2441C1.82276 21.3068 1.70635 21.3066 1.59277 21.3066C1.0406 21.3065 0.592773 20.8588 0.592773 20.3066C0.59322 19.7548 1.04088 19.3068 1.59277 19.3066C1.66643 19.3066 1.73851 19.3047 3.64648 19.2666C3.69294 17.721 3.7368 16.229 3.7334 14.6846C3.7298 13.0577 3.67711 11.4166 3.65039 10.5527C3.64574 10.4024 3.64285 10.2759 3.63965 10.1689C2.88735 10.6981 2.55508 10.9529 2.49219 10.998C2.04341 11.3196 1.41846 11.2172 1.09668 10.7686C0.775007 10.3199 0.877725 9.69495 1.32617 9.37305C1.32878 9.3711 1.3367 9.3651 1.35352 9.35254C1.37557 9.33606 1.40677 9.31257 1.44629 9.2832C1.52591 9.22404 1.64028 9.14059 1.79102 9.03125C2.09266 8.81243 2.54245 8.49169 3.16797 8.06055C3.56032 7.79012 4.01212 7.52379 4.42285 7.2832C4.84907 7.03354 5.22987 6.81184 5.53906 6.60449C6.15144 6.19374 6.49133 5.86765 6.68164 5.68164C6.90348 5.4648 6.95363 5.40649 7.38086 5.04199C7.78773 4.69487 8.5707 4.04064 9.08691 3.62988C9.61858 3.20685 9.86005 3.05054 10.2012 2.80957C10.6277 2.50824 11.0172 2.24432 11.3301 2.06738C11.4813 1.98185 11.6606 1.89015 11.8418 1.83105C11.9319 1.80169 12.0669 1.76582 12.2246 1.75976ZM12.1309 3.91797C11.9301 4.04335 11.6726 4.21933 11.3555 4.44336C10.9894 4.70195 10.8079 4.81645 10.333 5.19433C9.84213 5.58492 9.0784 6.22332 8.67969 6.56348C8.48139 6.73266 8.38564 6.81846 8.31641 6.88281C8.24359 6.95051 8.19952 6.9946 8.0791 7.1123C7.83836 7.34761 7.40245 7.76315 6.65332 8.26562C6.29141 8.50834 5.86173 8.75748 5.46582 8.98926C5.56506 9.1445 5.623 9.32845 5.62305 9.52637C5.62305 9.57387 5.62257 9.62246 5.64941 10.4902C5.67601 11.3501 5.72973 13.0204 5.7334 14.6807C5.7368 16.227 5.69375 17.7179 5.64844 19.2285C6.3759 19.2138 7.21191 19.1978 8.10645 19.1797C8.09434 19.0165 8.08123 18.8074 8.06836 18.542C8.03697 17.8946 8.11579 16.9609 8.24512 16.1943C8.48774 14.7566 8.88507 14.0118 9.00488 13.793L9.10156 13.6357C9.34363 13.287 9.68725 13.0535 9.94531 12.8877C10.6135 12.4583 11.4214 12.4465 12.5762 12.4512L12.7949 12.4668C13.2913 12.5322 13.6815 12.8025 13.959 13.0479C14.2806 13.3324 14.5892 13.7087 14.876 14.0723C15.3261 14.6434 15.3952 15.4108 15.4258 15.6221C15.5018 16.1462 15.5458 16.7486 15.5752 17.1084C15.6043 17.4645 15.6513 18.0161 15.665 18.2363L15.6885 18.6533C15.6945 18.7696 15.6998 18.8665 15.71 18.9521L15.7109 18.957C15.7148 18.9907 15.7145 18.9884 15.7148 18.9902C15.7149 18.9912 15.7151 18.9938 15.7158 18.9971C15.7169 19.0022 15.7193 19.0112 15.7227 19.0244C15.7231 19.026 15.7232 19.0277 15.7236 19.0293C16.3557 19.0172 16.9438 19.0046 17.4668 18.9951C17.8775 18.9877 18.2457 18.9841 18.5762 18.9785C18.5555 18.8284 18.5418 18.658 18.5371 18.4238V18.4082C18.5354 17.952 18.5185 17.5895 18.5752 16.2002C18.6285 14.8939 18.7379 12.4201 18.7988 11.0596C18.8598 9.69869 18.8713 9.4534 18.8828 9.20898C18.8868 9.12458 18.9014 9.04318 18.9248 8.96582C18.8395 8.90471 18.7526 8.84262 18.6592 8.7793C18.2807 8.52279 17.5352 8.03244 16.8193 7.5C16.1396 6.99442 15.4018 6.38368 14.6592 5.81445C14.2638 5.51141 13.8343 5.19265 13.4355 4.89844C13.0416 4.60776 12.6703 4.33482 12.4062 4.13379C12.2995 4.0525 12.2088 3.98083 12.1309 3.91797ZM12.5098 14.4512C11.9209 14.4495 11.5673 14.4611 11.3271 14.4912C11.1042 14.5192 11.0487 14.5559 11.0264 14.5703C10.8948 14.6549 10.8177 14.7115 10.7715 14.752C10.76 14.762 10.7518 14.7696 10.7471 14.7744C10.6786 14.9 10.4016 15.4379 10.2178 16.5273C10.1034 17.2053 10.0442 17.9871 10.0664 18.4453C10.0818 18.7634 10.099 18.9877 10.1113 19.1396C11.3097 19.1156 12.5437 19.0913 13.7139 19.0684C13.6937 18.8371 13.6798 18.5322 13.6689 18.3691V18.3643C13.6573 18.1745 13.6132 17.6527 13.582 17.2715C13.5503 16.8836 13.5111 16.3564 13.4463 15.9092C13.4209 15.7338 13.4045 15.6092 13.3721 15.4844C13.3409 15.3643 13.3116 15.3183 13.3057 15.3105C13.0137 14.9404 12.8048 14.6972 12.6338 14.5459C12.5728 14.492 12.5318 14.4646 12.5098 14.4512ZM14.1973 8.19531C14.7442 8.1233 15.2464 8.50787 15.3193 9.05469C15.3919 9.60194 15.0071 10.1048 14.46 10.1777C14.1741 10.2156 14.0225 10.2256 13.5176 10.2529C13.0116 10.2803 12.1394 10.3258 11.5244 10.3535C10.9059 10.3814 10.5564 10.3909 10.2119 10.4004C9.66006 10.4155 9.19998 9.98054 9.18457 9.42871C9.16955 8.87679 9.60527 8.41658 10.1572 8.40137C10.4967 8.39201 10.833 8.38261 11.4346 8.35547C12.0403 8.32813 12.9047 8.28316 13.4092 8.25586C13.9142 8.22853 13.9966 8.22192 14.1973 8.19531Z" fill="black"/>
</svg>
