<svg width="24" height="24" viewBox="0 0 24 24" fill="none" xmlns="http://www.w3.org/2000/svg">
<path d="M11.8298 1.16183C12.1035 1.14388 12.3815 1.23661 12.5896 1.43723L12.6599 1.51144L12.7888 1.68723C12.8196 1.73525 12.843 1.77684 12.8591 1.80637C12.9103 1.86721 12.9687 1.93568 13.0476 2.02805L13.0466 2.02902C13.2078 2.21677 13.7709 2.84991 14.5183 3.64621C14.7766 3.9214 14.9782 4.12039 15.2087 4.36105C15.1943 4.22784 15.1784 4.06505 15.1726 3.90305C15.1658 3.71215 15.1673 3.42031 15.2527 3.13742C15.3421 2.84127 15.6115 2.32284 16.2615 2.21848L16.4021 2.20383C16.4445 2.2017 16.4825 2.20112 16.5134 2.20187C16.5753 2.2034 16.6335 2.20846 16.6765 2.21262C16.7193 2.21676 16.7693 2.2229 16.8093 2.22726C16.8526 2.23199 16.898 2.23629 16.948 2.24094C17.4611 2.28864 17.6184 2.274 17.9919 2.29953C18.2856 2.31963 18.7374 2.37173 19.1326 2.73508C19.3297 2.91653 19.4017 3.12986 19.4138 3.16379C19.4409 3.23956 19.4572 3.30922 19.4666 3.35422C19.4859 3.44741 19.4983 3.54713 19.5076 3.63351C19.5268 3.81227 19.5412 4.0353 19.5525 4.2634C19.5752 4.72442 19.5885 5.27614 19.5984 5.68332C19.6076 6.06366 19.6202 6.40494 19.6443 6.74973C19.6528 6.87143 19.6523 7.00688 19.6521 7.10422C19.6518 7.21612 19.6519 7.30889 19.655 7.39719C19.6569 7.45006 19.6617 7.48996 19.6648 7.51926C19.859 7.79202 20.1205 8.12488 20.3396 8.35031C20.6222 8.64107 21.1694 9.25067 21.7429 9.93723C21.9789 10.2197 22.1207 10.3888 22.2537 10.5837C22.3279 10.6926 22.4182 10.7913 22.5583 10.9001C22.5745 10.9126 22.6109 10.941 22.6335 10.9607C22.6597 10.9834 22.7169 11.0342 22.7751 11.1081C22.8287 11.1763 22.9368 11.3304 22.9783 11.5583C23.0273 11.8284 22.9644 12.1001 22.8152 12.3161C22.6891 12.4985 22.5353 12.5943 22.4578 12.6364C22.3092 12.7172 22.1663 12.7459 22.1189 12.7556C21.9223 12.7957 21.5796 12.8229 21.4128 12.8337C21.2311 12.8455 21.0863 12.8573 20.9529 12.8679C20.8209 12.8783 20.6924 12.8886 20.5554 12.8972C20.4199 12.9057 20.2443 12.9034 20.1257 12.903C20.104 12.903 20.0822 12.904 20.0613 12.904C20.0517 13.0669 20.0379 13.279 20.0242 13.5573C19.9766 14.5256 19.8948 16.3163 19.8494 17.2605C19.8038 18.2082 19.7968 18.2553 19.7917 18.7038C19.7865 19.1707 19.7832 20.014 19.782 20.49C19.7814 20.7254 19.7867 20.9836 19.782 21.1228C19.7796 21.1919 19.7741 21.3422 19.7292 21.4997C19.6782 21.6786 19.5274 22.0269 19.1199 22.2019C18.9194 22.2878 18.7031 22.3154 18.531 22.3308C18.3347 22.3483 18.0708 22.3592 17.7117 22.362C17.3259 22.3651 16.6867 22.3582 15.7927 22.3552C14.895 22.3522 13.7298 22.3525 13.1287 22.3493C12.5122 22.3461 12.4476 22.3393 11.8718 22.323C11.3149 22.3072 10.1971 22.2893 9.59351 22.2605C8.93018 22.2287 8.68179 22.2284 8.13062 22.1609C7.57326 22.0926 7.09575 22.0375 6.72925 22.0007C6.54628 21.9823 6.39551 21.9688 6.27905 21.9607C6.22129 21.9566 6.17466 21.9542 6.1394 21.9529C6.1061 21.9516 6.08951 21.9518 6.08667 21.9519C6.02782 21.9538 5.96508 21.9579 5.89233 21.9636C5.82933 21.9685 5.73604 21.9764 5.65601 21.9802C5.59326 21.9831 5.43944 21.9904 5.27808 21.9597C5.19853 21.9445 5.02599 21.9046 4.85034 21.782C4.63917 21.6342 4.44644 21.3783 4.41187 21.0349C4.37036 20.622 4.31234 19.4202 4.28979 18.7595C4.28869 18.7273 4.28681 18.712 4.27515 18.5339C4.26532 18.3838 4.25235 18.1579 4.23706 17.7917C4.21118 17.1718 4.1698 16.0652 4.15308 15.4577C4.13545 14.8173 4.11662 14.5851 4.11499 14.2575C4.1114 13.5341 4.12575 13.0039 4.12769 12.8581C4.12916 12.7482 4.13964 12.6069 4.15015 12.4851C3.88779 12.4535 3.63751 12.42 3.44312 12.3904C3.43871 12.3903 3.4329 12.3903 3.42651 12.3904C3.38469 12.3906 3.3295 12.3918 3.25171 12.3943C3.10936 12.3987 2.90023 12.4061 2.69995 12.3991C2.53633 12.3935 2.2247 12.3765 1.94604 12.2614C1.8062 12.2036 1.5147 12.057 1.3396 11.7185C1.13516 11.323 1.22097 10.9368 1.33765 10.698C1.49062 10.3851 1.7178 10.1414 2.21362 9.64523C2.70422 9.15427 3.62612 8.23844 4.43237 7.46262C5.24194 6.68362 5.91531 6.064 6.70679 5.36398C7.47578 4.68386 8.3979 3.89761 8.82593 3.52219C9.30289 3.1038 9.54213 2.81975 9.87769 2.48117C9.9356 2.42237 10.2348 2.05983 10.6121 1.74582C10.777 1.60855 10.9263 1.51042 11.0349 1.44211L11.1521 1.36887C11.1828 1.34948 11.1637 1.35997 11.1316 1.38644C11.3352 1.21857 11.5857 1.14668 11.8298 1.16183ZM11.5955 3.56516C11.552 3.61239 11.5173 3.65295 11.4666 3.70969C11.4198 3.76199 11.362 3.8244 11.2976 3.88937C11.0551 4.13413 10.6908 4.54758 10.1453 5.02609C9.6548 5.45629 8.82477 6.16087 8.03198 6.86203C7.26143 7.54354 6.60843 8.14449 5.81909 8.90402C5.2815 9.42132 4.68988 10.0049 4.21265 10.4782C4.35314 10.4962 4.50357 10.5146 4.65308 10.531C4.83051 10.5504 5.05675 10.5866 5.29956 10.6462C5.44445 10.6819 5.7711 10.7869 5.99194 11.1325C6.1219 11.3361 6.16079 11.5455 6.17358 11.6804L6.17944 11.7878L6.17749 12.1687C6.17259 12.2884 6.16476 12.3994 6.15698 12.4958C6.13863 12.7232 6.12765 12.8149 6.12671 12.8855C6.12442 13.0568 6.11152 13.5492 6.11499 14.2478C6.11656 14.5632 6.13133 14.6484 6.1521 15.403C6.16845 15.997 6.2094 17.093 6.23511 17.7087C6.24983 18.0613 6.26162 18.2711 6.27026 18.403C6.27704 18.5065 6.28637 18.6199 6.28882 18.6911C6.30091 19.0454 6.32283 19.5324 6.34546 19.9616C6.5188 19.9721 6.72098 19.9895 6.92944 20.0105C7.31758 20.0495 7.81162 20.1066 8.37378 20.1755C8.82999 20.2314 8.97428 20.2282 9.68921 20.2624C10.2694 20.2902 11.3199 20.3067 11.9285 20.3239C12.5176 20.3407 12.5523 20.3463 13.1394 20.3493C13.7425 20.3525 14.8859 20.3521 15.7996 20.3552C16.7168 20.3583 17.3248 20.365 17.696 20.362C17.7256 20.3618 17.7545 20.3604 17.782 20.3601C17.7834 19.8721 17.7868 19.1192 17.7917 18.6814C17.7974 18.1861 17.8068 18.0907 17.8513 17.1648C17.896 16.2348 17.9787 14.4232 18.0261 13.4587C18.0767 12.4307 18.0988 12.1979 18.1384 11.9734L18.1638 11.8601C18.3138 11.3144 18.788 11.1017 18.9724 11.0359C19.2071 10.9523 19.4535 10.9261 19.6218 10.9148C19.7298 10.9075 19.8391 10.9042 19.9392 10.903C19.4916 10.3784 19.1017 9.94627 18.905 9.74387C18.5547 9.38345 18.1856 8.90028 17.9519 8.56125C17.7946 8.33292 17.733 8.09074 17.7039 7.93625C17.6722 7.76834 17.6608 7.60197 17.656 7.46848C17.6512 7.33369 17.6519 7.1985 17.6521 7.09933C17.6524 6.98567 17.6517 6.92564 17.6492 6.88937C17.622 6.50168 17.6089 6.12664 17.5994 5.73215C17.5894 5.31966 17.5767 4.79344 17.5554 4.36203C17.5541 4.33432 17.551 4.30733 17.5496 4.28098C17.5164 4.27973 17.4796 4.27868 17.4402 4.27707C17.3693 4.27416 17.2923 4.26997 17.2097 4.26535C17.2173 4.33216 17.226 4.4069 17.2322 4.47531C17.2384 4.54454 17.2462 4.6483 17.2429 4.75266C17.2335 5.05109 17.197 5.45322 17.1736 5.71164C17.1564 5.90098 17.1499 6.1276 17.1443 6.36008C17.1416 6.46916 17.139 6.58496 17.1345 6.6843C17.1308 6.76629 17.1242 6.90399 17.1003 7.02805C17.0778 7.14517 16.9522 7.70694 16.3464 7.88547C16.0687 7.96714 15.8275 7.91608 15.6824 7.86398C15.5403 7.81289 15.4338 7.74183 15.3699 7.69406C15.1551 7.5334 14.9757 7.28878 14.8826 7.16086C14.7659 7.00063 14.6358 6.80677 14.5359 6.66086C14.4219 6.49436 14.3437 6.38696 14.2947 6.3298C13.7596 5.70594 13.6323 5.62571 13.0593 5.01535C12.4351 4.3503 11.9333 3.78767 11.6697 3.48801C11.6437 3.51454 11.6186 3.53998 11.5955 3.56516Z" fill="black"/>
</svg>
