<svg width="24" height="24" viewBox="0 0 24 24" fill="none" xmlns="http://www.w3.org/2000/svg">
<path d="M12.071 0.52832C12.0899 0.529149 12.1088 0.531284 12.1277 0.533203C12.1407 0.534534 12.1538 0.535259 12.1667 0.537109C12.186 0.539843 12.2051 0.543955 12.2244 0.547852C12.2383 0.550691 12.2524 0.553181 12.2664 0.556641C12.2861 0.561535 12.3054 0.568062 12.325 0.574219C12.3326 0.576617 12.3408 0.57749 12.3484 0.580078C12.352 0.581323 12.3555 0.583688 12.3591 0.584961C12.3862 0.594559 12.4126 0.606064 12.4392 0.618164C12.4878 0.637654 12.533 0.65325 12.5671 0.668945C12.6258 0.695965 12.6863 0.725551 12.7341 0.749023C12.7863 0.774654 12.8255 0.793398 12.8601 0.80957L12.8943 0.825195L12.9949 0.862305L13.0867 0.918945C13.2441 1.0171 13.3993 1.14268 13.5564 1.26758C13.7294 1.40511 13.9689 1.59508 14.3435 1.87695C14.5407 2.02534 14.8092 2.22178 15.1189 2.49609C15.2445 2.60735 15.5408 2.87387 16.1013 3.27734C16.4066 3.49707 16.6028 3.61659 16.9841 3.88281C17.3143 4.11335 17.6741 4.38235 18.1042 4.69727C18.5604 5.03125 19.0553 5.39757 19.3679 5.60645C19.8697 5.94174 19.9755 6.03874 20.4441 6.28613C20.7845 6.46584 21.3756 6.75305 21.7712 7.09863C21.9555 7.25964 22.1781 7.50075 22.2664 7.86328L22.2957 8.02637L22.3347 8.39062C22.3507 8.57475 22.37 8.85392 22.3933 9.3252C22.4047 9.55482 22.4084 9.6341 22.3884 11.2383C22.3682 12.8631 22.3255 15.9548 22.3064 17.5303C22.2969 18.3144 22.2935 18.715 22.2927 18.9453C22.292 19.1613 22.2934 19.2502 22.2917 19.3662C22.2768 20.409 22.265 20.595 22.2546 20.7627C22.2584 20.7023 22.2681 21.0522 22.0417 21.3516C21.8031 21.6671 21.4747 21.7435 21.3464 21.7666C21.2151 21.7902 21.0789 21.7929 21.0085 21.7939C20.924 21.7952 20.8249 21.7942 20.7556 21.7939C20.4573 21.7928 20.1026 21.7715 19.5818 21.7607C19.0733 21.7502 18.1674 21.7397 17.6794 21.7393C17.205 21.7389 17.1564 21.747 16.8328 21.7568C16.5225 21.7662 15.9766 21.7765 15.6736 21.7695C15.6104 21.7681 15.4886 21.7658 15.366 21.7451C15.2383 21.7235 14.9897 21.6642 14.7644 21.459C14.5308 21.246 14.4482 20.9926 14.4158 20.8428C14.3862 20.7064 14.382 20.5738 14.3796 20.5039C14.3513 19.6689 14.3453 19.1304 14.3337 18.9912C14.3114 18.7218 14.35 18.6168 14.2351 17.5986C14.1587 16.9213 14.0142 15.8742 13.9089 15.2256C13.7994 14.5506 13.7548 14.3892 13.7087 14.2705C13.6275 14.0611 13.5613 13.9041 13.5056 13.791C13.4877 13.7546 13.4713 13.7275 13.4597 13.707C13.4446 13.701 13.4216 13.6906 13.3875 13.6826C12.7143 13.5248 12.7104 13.4915 12.3611 13.5029C12.0363 13.5136 11.4499 13.5512 11.1287 13.582C11.0511 13.5895 10.9933 13.5954 10.95 13.6006C10.7631 13.7177 10.6111 13.8469 10.4724 14.0742C10.2135 14.4987 10.0701 14.7729 10.03 14.9287C9.94535 15.2581 9.89124 15.7031 9.80835 16.2998C9.79496 16.3962 9.78568 16.4751 9.77222 16.5889C9.75891 16.7013 9.74264 16.8329 9.71655 17.0117C9.67221 17.3157 9.59333 17.8189 9.53394 18.3984C9.47137 19.009 9.42166 19.6261 9.42065 19.9365C9.4202 20.1002 9.45096 20.2317 9.49097 20.4756C9.50179 20.5415 9.54305 20.7666 9.51147 20.9932C9.49376 21.1199 9.43827 21.3721 9.22729 21.5977C8.98759 21.8539 8.68431 21.933 8.4519 21.9355C8.02968 21.9401 7.63113 21.9027 7.44995 21.8887C7.26171 21.8741 7.11244 21.8537 7.00269 21.8389C6.88832 21.8234 6.83342 21.8166 6.77905 21.8145C6.53462 21.8047 6.29952 21.7949 5.66382 21.75C5.17413 21.7154 4.26154 21.6524 3.77026 21.6211C3.57489 21.6086 3.36152 21.5994 3.27026 21.5918C3.23177 21.5886 3.0877 21.5781 2.93726 21.5264C2.84847 21.4958 2.70836 21.4353 2.57202 21.3125C2.42285 21.1781 2.32944 21.0155 2.27905 20.8584C2.24735 20.7594 2.23105 20.6682 2.22144 20.6055C2.21145 20.5403 2.20403 20.4758 2.19897 20.4248C2.1876 20.3101 2.18145 20.2305 2.16772 20.1279C2.15514 20.034 2.1225 19.8923 2.06323 19.6543C2.00889 19.4361 1.93842 19.1581 1.87671 18.8574C1.79488 18.4586 1.77323 18.0737 1.78784 16.6816C1.80274 15.2624 1.85697 12.7839 1.8894 11.5C1.90564 10.8573 1.91678 10.5083 1.92456 10.3105C1.92846 10.2115 1.9318 10.1481 1.93433 10.1035C1.93559 10.0812 1.93741 10.0643 1.93823 10.0518C1.93867 10.0451 1.93805 10.0414 1.93823 10.0381L1.93921 10.0361C1.94363 9.95395 1.94637 9.73431 2.00171 9.20703C2.04301 8.81358 2.08503 8.46636 2.12769 8.20703C2.14835 8.08143 2.1737 7.94936 2.20483 7.83496C2.21938 7.78155 2.2445 7.69591 2.28589 7.60547C2.30641 7.56065 2.34392 7.48446 2.40503 7.40234C2.45228 7.33887 2.56864 7.19794 2.77026 7.09668C2.78222 7.08787 2.81604 7.06267 2.87769 7.01074C3.00656 6.90217 3.19979 6.72812 3.51538 6.43945C3.87368 6.11173 4.43872 5.62413 5.67554 4.7168C6.90109 3.81774 8.75183 2.52995 9.76343 1.82031C10.8103 1.0859 10.9522 0.980688 11.0232 0.919922L11.1121 0.848633C11.2014 0.782914 11.2923 0.731529 11.3796 0.691406C11.4371 0.665042 11.4915 0.644186 11.5408 0.62793L11.6726 0.59082C11.6796 0.588174 11.687 0.586465 11.6941 0.583984C11.7098 0.578443 11.726 0.574087 11.7419 0.569336C11.7568 0.564894 11.7718 0.560394 11.7869 0.556641C11.7991 0.553606 11.8116 0.551397 11.824 0.548828C11.8463 0.544175 11.8687 0.539257 11.8914 0.536133C11.8991 0.535064 11.907 0.53409 11.9148 0.533203C11.9361 0.530783 11.9577 0.529353 11.9792 0.52832C11.9942 0.527597 12.0092 0.527394 12.0242 0.527344C12.0398 0.527305 12.0554 0.527619 12.071 0.52832ZM10.9119 3.45801C9.88545 4.17804 8.06221 5.44654 6.85913 6.3291C5.66802 7.2029 5.16014 7.64507 4.86499 7.91504C4.55609 8.19759 4.33168 8.40125 4.16577 8.54102C4.14272 8.56042 4.11658 8.5782 4.09155 8.59863C4.06114 8.79694 4.02585 9.07342 3.98999 9.41504C3.94134 9.87854 3.94218 10.0337 3.93628 10.1436C3.9334 10.1965 3.92152 10.2797 3.8894 11.5508C3.85702 12.8327 3.80257 15.2993 3.78784 16.7031C3.77283 18.1338 3.80411 18.3012 3.83569 18.4551C3.88721 18.7061 3.94656 18.9386 4.00464 19.1719C4.0406 19.3163 4.07661 19.4795 4.10815 19.6387C4.62416 19.6725 5.37661 19.7247 5.80444 19.7549C6.42022 19.7984 6.63509 19.8075 6.85815 19.8164C7.01954 19.8228 7.1628 19.8419 7.27026 19.8564C7.32233 19.8635 7.37177 19.867 7.42163 19.873C7.42774 19.4453 7.48563 18.7705 7.54468 18.1943C7.60956 17.5613 7.69678 17.0055 7.73804 16.7227C7.76062 16.5678 7.77481 16.4554 7.78687 16.3535C7.79872 16.2534 7.80994 16.1465 7.8269 16.0244C7.89809 15.512 7.97098 14.9022 8.09253 14.4297C8.21998 13.9345 8.53718 13.4048 8.7644 13.0322C9.16126 12.3815 9.64449 12.0414 10.0378 11.8135C10.3363 11.6405 10.6588 11.6176 10.9373 11.5908C11.3006 11.5559 11.9285 11.516 12.2947 11.5039C12.9846 11.4812 13.3446 11.6181 13.8445 11.7354C14.3483 11.8535 14.6878 12.0829 14.9119 12.3193C15.0876 12.505 15.2131 12.7317 15.2996 12.9072C15.3938 13.0986 15.4844 13.3194 15.573 13.5479C15.7057 13.8902 15.7765 14.252 15.8826 14.9053C15.993 15.5853 16.1423 16.6642 16.2224 17.374C16.3291 18.3192 16.3323 18.8885 16.3269 18.8262C16.3382 18.9627 16.3464 19.3231 16.3582 19.7666C16.5082 19.7641 16.6549 19.7614 16.7722 19.7578C17.0631 19.749 17.1652 19.7388 17.6804 19.7393C18.1826 19.7397 19.103 19.75 19.6238 19.7607C19.9342 19.7672 20.1308 19.7742 20.283 19.7803C20.2852 19.6543 20.2893 19.508 20.2917 19.3379C20.2932 19.2336 20.2919 19.1907 20.2927 18.9385C20.2935 18.7 20.2969 18.2932 20.3064 17.5059C20.3254 15.9374 20.3684 12.8261 20.3884 11.2139C20.4087 9.58204 20.4038 9.57653 20.3962 9.42383C20.3721 8.93492 20.3515 8.67643 20.3367 8.51758C20.1569 8.39393 19.889 8.2545 19.5105 8.05469C18.9222 7.74409 18.6857 7.55625 18.2566 7.26953C17.8973 7.02947 17.3509 6.62341 16.9236 6.31055C16.4704 5.97876 16.1444 5.73592 15.8386 5.52246C15.5839 5.34464 15.2145 5.10276 14.9333 4.90039C14.2948 4.44074 13.9414 4.12489 13.7927 3.99316C13.555 3.78259 13.3567 3.6376 13.1414 3.47559C12.7451 3.17745 12.4892 2.97446 12.3113 2.83301C12.168 2.71909 12.1009 2.66994 12.0613 2.6416C11.8587 2.79065 11.5277 3.026 10.9119 3.45801Z" fill="black"/>
</svg>
