<svg width="24" height="24" viewBox="0 0 24 24" fill="none" xmlns="http://www.w3.org/2000/svg">
<path d="M12.1378 1.51173L12.2306 1.52931L12.3399 1.56153C12.5835 1.64677 12.7436 1.79652 12.797 1.84571C12.8775 1.91999 12.9688 2.01744 13.0401 2.09278C13.2005 2.26219 13.4423 2.5159 13.8497 2.88771C14.5369 3.51473 15.8446 4.56338 16.7218 5.25782C17.5684 5.92801 17.918 6.15829 18.5157 6.5879C19.107 7.01283 19.8999 7.60504 20.3155 7.91212C20.5792 8.10688 20.7625 8.23682 20.9073 8.33693L21.2706 8.58497L21.2823 8.59376L21.294 8.60157C21.5953 8.82352 22.2347 9.31151 22.4815 9.50392C22.4886 9.50912 22.4957 9.51356 22.5011 9.51759C22.5067 9.5218 22.5125 9.52611 22.5167 9.52931C22.5213 9.5328 22.5249 9.53646 22.5284 9.53907C22.541 9.5485 22.5497 9.55481 22.5597 9.56153C23.0171 9.87076 23.1373 10.4917 22.8282 10.9492C22.5191 11.4066 21.8981 11.5275 21.4405 11.2188C21.3934 11.1869 21.3556 11.1592 21.3282 11.1387C21.3221 11.1341 21.3162 11.1295 21.3116 11.126C21.3068 11.1224 21.303 11.1195 21.2999 11.1172C21.2966 11.1147 21.2941 11.113 21.2931 11.1123L21.2755 11.0996L21.2579 11.0859C21.1693 11.0168 21.0183 10.9048 20.8526 10.7783C20.811 11.0513 20.7362 11.5017 20.5714 12.3311C20.3074 13.6597 19.8302 15.9195 19.5069 17.3311C19.1807 18.7558 19.0119 19.3106 18.9239 19.6133C18.8247 19.9549 18.7587 20.1787 18.6017 20.5059C18.5507 20.6121 18.508 20.7172 18.463 20.835C18.4227 20.9402 18.3667 21.0937 18.3087 21.2285C18.1793 21.5293 17.9789 21.8965 17.5743 22.1953C17.2607 22.427 16.8921 22.4474 16.7462 22.457C16.5426 22.4705 16.2687 22.4713 15.9317 22.4697C15.4352 22.4674 14.6684 22.4668 14.2276 22.4736C13.8056 22.4802 13.6435 22.495 12.589 22.499C11.533 22.5031 9.60833 22.4968 8.60361 22.4883C8.14027 22.4844 7.78212 22.4815 7.54209 22.4463C7.41338 22.4274 7.19195 22.3846 6.97568 22.2412C6.72783 22.0768 6.61174 21.8639 6.5626 21.7656C6.42258 21.4853 6.33204 21.0808 6.29893 20.9287C6.26194 20.7588 6.24682 20.6568 5.88193 18.9248C5.51214 17.1695 4.7973 13.8081 4.42979 12.0518C4.19178 10.9143 4.099 10.4331 4.05674 10.1983C3.96492 10.2661 3.87882 10.3302 3.79893 10.3897C3.23552 10.8092 2.94399 11.0303 2.79307 11.1465C2.71732 11.2048 2.6807 11.2344 2.66514 11.2471C2.65788 11.253 2.66483 11.2472 2.6583 11.2529C2.24276 11.6161 1.61078 11.5735 1.24717 11.1582C0.883857 10.7426 0.926489 10.1107 1.3419 9.74708C1.34784 9.74187 1.35532 9.73532 1.35752 9.73341C1.37156 9.72134 1.3876 9.70877 1.40537 9.69435C1.44004 9.6662 1.49177 9.62533 1.57334 9.56251C1.73723 9.4363 2.03881 9.20746 2.60459 8.78614C3.70349 7.96783 5.78512 6.47422 7.38779 5.18849C8.97447 3.91557 10.0181 2.91311 10.5997 2.36232C10.8816 2.09531 11.0747 1.91565 11.2071 1.80763C11.2657 1.75992 11.3797 1.66873 11.5255 1.60157C11.712 1.51576 11.9223 1.47993 12.1378 1.51173ZM11.9483 3.83888C11.3562 4.40004 10.2698 5.43955 8.63877 6.74806C7.71881 7.48609 6.63822 8.29424 5.68174 9.00099C5.72047 9.06435 5.75991 9.127 5.79307 9.18458C5.82082 9.23278 5.85211 9.28839 5.879 9.34181C5.8921 9.36784 5.91017 9.40627 5.92783 9.44923C5.93582 9.46854 5.98502 9.58379 6.00303 9.73243C6.00676 9.7634 6.01651 9.86726 6.38779 11.6416C6.75539 13.3983 7.4671 16.7476 7.83897 18.5127C8.20059 20.2292 8.21379 20.322 8.24815 20.4824C8.35191 20.4841 8.47443 20.4871 8.62022 20.4883C9.61741 20.4968 11.5341 20.503 12.5812 20.499C13.629 20.495 13.7162 20.4811 14.1964 20.4736C14.6585 20.4665 15.4426 20.4674 15.9415 20.4697C16.1736 20.4708 16.338 20.4683 16.4571 20.4658C16.4611 20.4571 16.4674 20.4485 16.4718 20.4385C16.5083 20.3535 16.5382 20.2691 16.5948 20.1211C16.6467 19.9856 16.7124 19.8198 16.7989 19.6397C16.8786 19.4738 16.9062 19.389 17.003 19.0557C17.0847 18.7747 17.2429 18.2598 17.5577 16.8848C17.8758 15.4957 18.3484 13.2552 18.6095 11.9414C18.8682 10.6392 18.9001 10.3377 18.92 10.1797L18.9239 10.1504C18.9658 9.88256 18.9734 9.7761 19.0001 9.55763C19.0004 9.54394 19.0001 9.52818 19.0001 9.50001C19.0001 9.47645 19.0014 9.45286 19.003 9.4297C18.5583 9.10018 17.8743 8.58965 17.3487 8.21193C16.778 7.80173 16.3743 7.53367 15.4806 6.82618C14.6174 6.14285 13.2511 5.04874 12.5021 4.36525C12.2777 4.16048 12.0958 3.98577 11.9483 3.83888ZM11.755 9.01564C12.156 8.9623 12.5659 9.01016 12.8868 9.06153C13.3521 9.13615 13.7463 9.34215 14.0157 9.4922C14.4005 9.70658 14.7001 9.99972 14.9269 10.2686C15.276 10.6827 15.3742 11.186 15.4327 11.5049C15.5639 12.2198 15.3672 12.9229 15.1847 13.3936C14.7988 14.3881 14.0543 14.724 13.6769 14.9102C13.4905 15.0021 13.3025 15.037 13.1847 15.0537C13.0517 15.0726 12.9117 15.0813 12.7794 15.085C12.5155 15.0923 12.1994 15.0821 11.8731 15.0684C11.1466 15.0378 10.7166 14.7379 10.4835 14.5068C10.2902 14.3153 10.1756 14.0595 10.1261 13.9463C10.0549 13.7837 9.9878 13.5959 9.92783 13.4063C9.80913 13.0309 9.69716 12.5743 9.64658 12.1729C9.64633 12.1704 9.64687 12.1675 9.64658 12.1651C9.64528 12.1538 9.64459 12.1422 9.64365 12.1309C9.64343 12.1291 9.64229 12.1272 9.6417 12.125C9.64141 12.118 9.64209 12.1106 9.6417 12.1035C9.64142 12.0987 9.64093 12.0937 9.64072 12.0889V12.1172C9.63822 12.0944 9.63415 12.0582 9.62998 12.0147C9.62164 11.9276 9.61176 11.8056 9.60752 11.667C9.60003 11.4214 9.60428 10.9992 9.73838 10.6123C9.91392 10.1065 10.2589 9.7502 10.5255 9.50196L10.6173 9.42286C11.0844 9.05194 11.6605 9.02823 11.755 9.01564ZM12.0187 10.9981C11.9858 11.0024 11.9501 11.0066 11.9249 11.0098C11.8972 11.0133 11.8747 11.0166 11.8546 11.0195C11.8448 11.021 11.8357 11.0222 11.8282 11.0234C11.6662 11.1818 11.6352 11.2473 11.628 11.2676C11.628 11.2676 11.618 11.3 11.6114 11.3731C11.6052 11.442 11.604 11.5228 11.6065 11.6065C11.6091 11.6885 11.6155 11.7643 11.6212 11.8233C11.624 11.8524 11.6267 11.8773 11.629 11.8984C11.63 11.9073 11.6317 11.9212 11.6329 11.9326C11.6653 12.1822 11.7423 12.5124 11.8341 12.8027C11.8667 12.906 11.899 12.9953 11.9269 13.0664C11.936 13.0672 11.9462 13.0699 11.9571 13.0703C12.2825 13.084 12.5365 13.0902 12.7237 13.085C12.791 13.0831 12.8396 13.0784 12.8722 13.0752C13.0219 13.0004 13.0955 12.9604 13.1593 12.9082C13.2096 12.8669 13.2673 12.8068 13.3204 12.6699C13.455 12.3227 13.4974 12.0383 13.4659 11.8662C13.4381 11.7147 13.4165 11.6284 13.3976 11.5733C13.3928 11.5594 13.3882 11.5504 13.3858 11.5449C13.2544 11.3912 13.1392 11.2934 13.0421 11.2393C12.7995 11.1042 12.666 11.0515 12.5704 11.0361C12.2932 10.9918 12.12 10.9846 12.0187 10.9981Z" fill="black"/>
</svg>
