<svg width="24" height="24" viewBox="0 0 24 24" fill="none" xmlns="http://www.w3.org/2000/svg">
<path d="M16.5674 2.2832C17.0971 2.28783 18.0789 2.32756 18.6582 2.35547C19.5863 2.40017 20.105 2.51643 20.4375 2.69531L20.5693 2.77539L20.6855 2.86621C20.9386 3.0854 21.0654 3.35807 21.1318 3.5459C21.212 3.77265 21.2491 4.00367 21.2686 4.18652C21.2886 4.37508 21.2944 4.55828 21.2979 4.69922C21.3019 4.86457 21.3028 4.93619 21.3066 4.98828C21.3219 5.19526 21.3377 5.35946 21.3027 7.36719C21.2676 9.38642 21.1811 13.3026 21.1162 15.4687C21.0519 17.613 21.0107 17.9796 20.9482 18.3359C20.7996 19.183 20.7179 19.5326 20.582 19.9834C20.4929 20.2789 20.4027 20.6107 20.21 20.9043C20.0758 21.1085 19.894 21.2309 19.8369 21.2695C19.7492 21.3288 19.6529 21.3831 19.5693 21.4287C19.4109 21.5151 19.1748 21.6335 18.9668 21.7422C18.4378 22.0187 17.9902 22.0888 17.6465 22.1455L17.6357 22.1475L17.626 22.1494C17.3772 22.1851 17.0158 22.2282 16.5225 22.2568C16.038 22.285 15.4359 22.2972 14.8438 22.3096C14.2919 22.3209 13.835 21.8829 13.8232 21.3311C13.8117 20.7789 14.2506 20.3221 14.8027 20.3105C15.4072 20.2979 15.967 20.2853 16.4062 20.2598C16.8367 20.2348 17.1416 20.1977 17.3418 20.1689C17.6585 20.1165 17.8235 20.0829 18.04 19.9697C18.1608 19.9066 18.2744 19.8491 18.3701 19.7998C18.4517 19.7578 18.5192 19.721 18.5762 19.6904C18.5976 19.6254 18.6271 19.5384 18.667 19.4062C18.7715 19.0598 18.8375 18.7952 18.9785 17.9912C19.0116 17.8024 19.052 17.5854 19.1172 15.4092C19.1818 13.2538 19.2686 9.34582 19.3037 7.33203C19.3389 5.31095 19.319 5.23639 19.3115 5.13574C19.3029 5.01892 19.3014 4.85229 19.2988 4.74902C19.2959 4.62941 19.29 4.51878 19.2803 4.41894C19.1272 4.39474 18.8973 4.36965 18.5625 4.35352C17.9831 4.32561 17.036 4.28745 16.5498 4.2832C15.9961 4.27837 15.0953 4.28516 14.6406 4.28516C14.0884 4.28516 13.6407 3.83736 13.6406 3.28516C13.6407 2.73291 14.0884 2.28516 14.6406 2.28516C15.0625 2.28516 16.0054 2.27829 16.5674 2.2832ZM8.81836 5.64746C9.24891 5.30161 9.87775 5.37024 10.2236 5.80078C10.3266 5.92891 10.5802 6.2289 10.8887 6.48144C11.1313 6.68001 11.7511 7.12733 12.4297 7.7793C13.1059 8.42906 13.8656 9.28783 14.2656 9.74609C14.7456 10.2959 14.935 10.5953 15.0449 10.9863C15.1031 11.1937 15.1132 11.4106 15.1152 11.5664C15.1175 11.7403 15.11 11.9422 15.0996 12.1562C15.0642 12.8813 14.6838 13.5967 14.3994 14.124C14.1819 14.5272 13.8942 14.8706 13.5684 15.2344C13.2262 15.6164 12.7786 16.0638 12.54 16.2988C12.2903 16.5449 12.0496 16.8072 11.8662 17.0215C11.7744 17.1288 11.7017 17.2182 11.6523 17.2832C11.6366 17.304 11.6243 17.3197 11.6162 17.3311L11.6152 17.3359L11.583 17.3887C11.4979 17.5278 11.3865 17.664 11.3086 17.7568L11.3027 17.7646C11.2497 17.8266 11.1853 17.8983 11.0859 17.9834C10.6666 18.3425 10.0351 18.2932 9.67578 17.874C9.31989 17.4585 9.36469 16.8355 9.77344 16.4746C9.77435 16.4737 9.77541 16.4726 9.77637 16.4717C9.778 16.4698 9.77966 16.4669 9.78223 16.4639C9.81374 16.4262 9.83814 16.3959 9.85645 16.3721C9.86415 16.362 9.86953 16.3545 9.87305 16.3496C9.93749 16.236 10.0138 16.1342 10.0586 16.0752C10.1385 15.9698 10.238 15.8487 10.3467 15.7217C10.5644 15.4672 10.8431 15.1634 11.1357 14.875C11.3722 14.642 11.782 14.2321 12.0791 13.9004C12.3923 13.5507 12.5422 13.3554 12.6396 13.1748C12.6463 13.1626 12.6518 13.1497 12.6582 13.1377C9.47239 13.1976 6.4983 13.2459 4.8584 13.2705C3.11558 13.2967 2.88081 13.2969 2.64453 13.2969C2.09225 13.2969 1.64453 12.8492 1.64453 12.2969C1.64484 11.7449 2.09244 11.2969 2.64453 11.2969C2.86394 11.2969 3.08487 11.2977 4.82812 11.2715C6.50025 11.2463 9.56183 11.1955 12.8193 11.1338C12.8 11.1112 12.7806 11.0865 12.7588 11.0615C12.3577 10.602 11.6498 9.80383 11.0439 9.22168C10.4403 8.64166 9.98079 8.32292 9.62207 8.0293C9.15466 7.64668 8.80007 7.2208 8.66504 7.05273C8.31922 6.62221 8.3879 5.99335 8.81836 5.64746Z" fill="black"/>
</svg>
