<svg width="24" height="24" viewBox="0 0 24 24" fill="none" xmlns="http://www.w3.org/2000/svg">
<path d="M16.2305 13.857C16.7047 13.5749 17.319 13.7306 17.6016 14.2046C17.6713 14.3217 17.7022 14.4318 17.7051 14.4419C17.7152 14.476 17.7221 14.507 17.7266 14.5269C17.7358 14.568 17.7442 14.6114 17.751 14.6519C17.7649 14.7355 17.7796 14.8467 17.7959 14.9868C17.8288 15.269 17.8691 15.6968 17.9102 16.3179C17.9203 16.4707 17.9239 16.6376 17.9268 16.8111C18.6699 16.8077 19.4809 16.807 20.3018 16.8013C20.8539 16.7976 21.3047 17.2423 21.3086 17.7945C21.3124 18.3467 20.8677 18.7974 20.3154 18.8013C19.4744 18.8072 18.6437 18.8087 17.8857 18.812C17.8822 18.9107 17.8788 18.9992 17.877 19.0747C17.871 19.3186 17.8696 19.4643 17.8691 19.5523C17.8698 19.5538 17.8704 19.5556 17.8711 19.5572C18.0905 20.0638 17.857 20.6529 17.3506 20.8726C16.8438 21.0921 16.2547 20.8589 16.0352 20.3521C16.0143 20.304 15.9648 20.1924 15.9307 20.0865C15.8777 19.9218 15.8701 19.7838 15.8682 19.6519C15.8664 19.533 15.8693 19.3426 15.877 19.0269C15.8785 18.9614 15.8815 18.8925 15.8838 18.8208C15.6738 18.8214 15.4834 18.8233 15.3164 18.8238C14.2749 18.8266 14.1409 18.8267 14.0068 18.8267C13.4547 18.8266 13.0069 18.3788 13.0068 17.8267C13.0068 17.2745 13.4546 16.8268 14.0068 16.8267C14.1379 16.8267 14.2698 16.8266 15.3115 16.8238C15.4914 16.8233 15.6984 16.8215 15.9277 16.8208C15.9251 16.6906 15.9217 16.5657 15.9141 16.4497C15.8745 15.8509 15.8375 15.4579 15.8096 15.2183C15.7956 15.0979 15.7841 15.0216 15.7773 14.981C15.7769 14.9778 15.7768 14.9746 15.7764 14.9722C15.6649 14.5515 15.8381 14.0908 16.2305 13.857ZM13.6826 4.33548C13.9069 4.26569 14.1557 4.27489 14.3857 4.37747C15.3613 4.44605 16.2514 4.55311 16.9453 4.67825C17.6528 4.80586 18.1402 4.95157 18.5606 5.11965C18.977 5.28621 19.3033 5.46598 19.5869 5.65286C19.8806 5.84636 20.1175 6.04208 20.4141 6.32864C20.7016 6.60643 21.0627 6.98787 21.4014 7.41262C21.7399 7.83722 22.0397 8.28588 22.2412 8.62551C22.5963 9.22414 22.8057 9.92132 22.9815 10.4878C23.141 11.0024 22.9641 11.4823 22.8359 11.7652C22.6914 12.0842 22.4722 12.4353 22.2315 12.7964L22.2207 12.812L22.209 12.8286C21.9359 13.2052 21.6643 13.5133 21.5147 13.6792C21.4395 13.7626 21.3913 13.8144 21.3565 13.8511C21.3484 13.8596 21.3406 13.8676 21.335 13.8736C21.3291 13.8798 21.3252 13.8842 21.3223 13.8872C21.3229 13.8865 21.3235 13.8852 21.3242 13.8843C20.9604 14.2994 20.3285 14.3417 19.9131 13.9781C19.4979 13.6144 19.4561 12.9824 19.8193 12.5669C19.8395 12.5439 19.8582 12.5249 19.8711 12.5113C19.8771 12.5049 19.8837 12.498 19.8887 12.4927C19.8941 12.487 19.8994 12.4804 19.9053 12.4741C19.9277 12.4505 19.9647 12.4111 20.0293 12.3394C20.1582 12.1964 20.3689 11.9547 20.5772 11.6695C20.8064 11.3249 20.9438 11.0963 21.0147 10.94C21.0173 10.934 21.0192 10.9277 21.0215 10.9224C20.8516 10.379 20.7139 9.97201 20.5205 9.64602C20.3607 9.37671 20.1134 9.00426 19.8379 8.65872C19.5626 8.31343 19.262 7.99568 19.0244 7.76614C18.7962 7.54564 18.6551 7.43398 18.4863 7.32278C18.3075 7.20495 18.1011 7.09017 17.8184 6.97708C17.5479 6.86894 17.2059 6.76093 16.6436 6.65676C16.8575 7.04266 17.0938 7.53839 17.2188 8.07083C17.3236 8.51786 17.3458 8.90168 17.2236 9.4927C17.1529 9.83484 17.0244 10.3491 16.876 10.7945C16.7455 11.1861 16.5816 11.636 16.3565 11.9693C16.0893 12.3645 15.7885 12.6961 15.3916 12.9097C15.1247 13.0533 14.7825 13.2103 14.1533 13.3365C13.7678 13.4137 13.1855 13.5099 12.7549 13.5591C12.2936 13.6118 11.9947 13.6124 11.6231 13.5845C11.3456 13.5636 10.8682 13.5301 10.5147 13.439C10.0951 13.3308 9.65176 13.1936 9.19239 12.8491C8.77636 12.537 8.17614 12.0487 7.74805 11.3775C7.4957 10.9818 7.00858 10.2409 6.93067 9.34817C6.89814 8.9749 6.8858 8.58932 6.90626 8.23587C6.90995 8.17223 6.91517 8.10567 6.92188 8.03762C6.55144 8.40124 6.143 8.8095 5.85547 9.11282C5.46189 9.52806 5.3304 9.70036 5.0713 10.1236C4.77059 10.6147 4.36849 11.2977 4.17774 11.6919C4.13126 11.788 4.09252 11.8701 4.06055 11.94C4.1767 12.0756 4.36505 12.2731 4.66212 12.5406C5.24327 13.0638 6.22749 13.8665 6.86231 14.3482C7.45681 14.7993 7.67302 14.9175 8.17579 15.1275C8.75005 15.3673 9.59323 15.6879 10.0752 15.8491C10.7068 16.0604 10.8768 16.0989 10.96 16.1167C11.4997 16.2327 11.8433 16.7644 11.7275 17.3042C11.6116 17.8441 11.08 18.1886 10.54 18.0728C10.3494 18.0319 10.0989 17.9656 9.44141 17.7456C8.90453 17.566 8.01465 17.2276 7.40528 16.9732C6.72452 16.6889 6.36331 16.4789 5.6543 15.9409C4.98532 15.4333 3.95566 14.5953 3.32422 14.0269C2.43616 13.2274 2.1623 12.7654 2.04883 12.4888C1.95032 12.2486 1.95794 12.028 1.97559 11.8921C1.99324 11.7564 2.03052 11.6334 2.06348 11.5386C2.12964 11.3485 2.23765 11.1108 2.37794 10.8208C2.61711 10.3265 3.06723 9.5654 3.36524 9.07864C3.70456 8.52444 3.92472 8.24281 4.4043 7.73684C4.85517 7.2612 5.56112 6.55943 6.02637 6.1177C6.72843 5.45121 7.21323 5.14568 7.62012 4.91555C8.02574 4.68624 8.46795 4.59378 9.1084 4.48684C9.64906 4.39661 10.4782 4.33157 11.4033 4.3052C12.1283 4.28455 12.9151 4.29742 13.6826 4.33548ZM15.8076 15.0728C15.8091 15.0767 15.8136 15.0816 15.8164 15.0884C15.8118 15.0771 15.8069 15.0657 15.8027 15.0542C15.8047 15.0598 15.8054 15.0666 15.8076 15.0728ZM15.7871 15.0103C15.7887 15.0155 15.7922 15.0224 15.7949 15.0308C15.7913 15.0198 15.7874 15.0086 15.7842 14.9976C15.7852 15.0013 15.7859 15.0061 15.7871 15.0103ZM11.46 6.30422C11.0118 6.31701 10.6056 6.33834 10.2607 6.36575C10.2096 6.45664 10.1439 6.54177 10.0625 6.61575C9.96517 6.70421 9.76689 6.89489 9.45801 7.23977C9.15419 7.57916 9.00855 7.87427 8.95313 7.99563C8.95122 8.00181 8.91763 8.10474 8.90333 8.3511C8.88991 8.58287 8.89712 8.86889 8.92383 9.17532C8.95298 9.50688 9.14602 9.84983 9.43458 10.3023C9.66114 10.6575 10.0191 10.9684 10.3926 11.2486C10.536 11.3561 10.6744 11.415 11.0137 11.5025C11.1568 11.5394 11.4317 11.5647 11.7734 11.5904C12.0206 11.6089 12.1936 11.61 12.5283 11.5718C12.8942 11.53 13.4199 11.4437 13.7598 11.3755C13.9776 11.3318 14.1199 11.2885 14.2148 11.2534C14.3059 11.2197 14.3708 11.187 14.4434 11.148C14.4445 11.1474 14.4651 11.1371 14.5059 11.0962C14.5496 11.0524 14.6135 10.9769 14.6992 10.8501C14.7513 10.773 14.8424 10.5709 14.9785 10.1626C15.0967 9.80794 15.2059 9.37158 15.2647 9.08743C15.3009 8.91235 15.3075 8.81762 15.3066 8.75833C15.3058 8.70279 15.2984 8.6427 15.2715 8.52786C15.1768 8.12404 14.9413 7.68948 14.707 7.30618C14.5016 6.97011 14.4513 6.96175 13.9453 6.4888C13.8751 6.43159 13.8156 6.38404 13.7647 6.34329C12.9832 6.30012 12.1812 6.28368 11.46 6.30422Z" fill="black"/>
</svg>
