<svg width="24" height="24" viewBox="0 0 24 24" fill="none" xmlns="http://www.w3.org/2000/svg">
<path d="M3.24561 8.23442C3.24394 8.23425 3.24003 8.23379 3.23584 8.23344C3.22955 8.23292 3.22466 8.23261 3.22217 8.23246C3.22496 8.23258 3.233 8.23304 3.24854 8.23344C3.29541 8.23465 3.38752 8.23658 3.56982 8.23832C3.93315 8.2418 4.63564 8.24598 6.00732 8.25004C8.7508 8.25816 14.1595 8.26557 17.1196 8.27153C20.0773 8.27748 20.4262 8.28139 20.7856 8.2852C21.3378 8.29111 21.7807 8.74373 21.7749 9.29594C21.7687 9.84786 21.3161 10.291 20.7642 10.2852C20.4147 10.2815 20.0735 10.2775 17.1157 10.2715C16.6431 10.2706 16.1078 10.2686 15.5308 10.2676C15.5326 10.2925 15.5356 10.3175 15.5356 10.3428C15.5356 10.4138 15.5358 10.4852 15.5396 12.1397C15.5413 12.8988 15.5451 13.9897 15.5483 15.1123C15.7017 15.2455 15.8169 15.4259 15.8667 15.6387C15.9533 16.0096 15.8201 16.3796 15.5532 16.6153C15.556 17.4132 15.5576 18.1563 15.561 18.7276C15.5714 20.4306 15.5837 20.4871 15.5903 20.5928L15.5923 20.6182L15.6187 21.2569L15.6206 21.2842C15.6216 21.3052 15.6221 21.3258 15.6226 21.3389C15.6231 21.3536 15.6232 21.3628 15.6235 21.3711C15.6239 21.3785 15.6243 21.3837 15.6245 21.3868V21.3897L15.6255 21.3907C15.694 21.9386 15.3042 22.4382 14.7563 22.5069C14.2085 22.5751 13.7086 22.1866 13.6401 21.6387C13.6315 21.5697 13.6276 21.5096 13.6255 21.4649C13.6245 21.4436 13.624 21.4234 13.6235 21.4102C13.623 21.3955 13.6228 21.3877 13.6226 21.3819L13.6235 21.3809C13.6148 21.2477 13.6046 20.9987 13.5942 20.7168L13.5776 20.3047C13.5718 20.0446 13.5662 19.5921 13.561 18.7403C13.5584 18.3012 13.5574 17.7611 13.5552 17.1729C13.4322 17.1965 13.2996 17.2241 13.1558 17.251L13.1567 17.252C12.2545 17.427 10.6961 17.7373 9.6626 17.9454L9.69287 19.6299V19.6416L9.69678 20.9209C9.69579 21.1724 9.69309 21.2851 9.68799 21.3663C9.68451 21.4247 9.68102 21.4889 9.67725 21.5586C9.64743 22.11 9.17587 22.5326 8.62451 22.503C8.07314 22.4732 7.65054 22.0026 7.68018 21.4512C7.68394 21.3817 7.68795 21.3102 7.69189 21.2442V21.2403C7.69653 21.1661 7.70085 20.9709 7.69287 19.6661L7.66748 18.2207C7.43053 18.1387 7.22372 17.9693 7.10205 17.7276C6.85397 17.2342 7.05304 16.6329 7.54639 16.3848C7.57867 16.3686 7.61056 16.3541 7.64209 16.3418C7.63712 15.7703 7.63418 15.188 7.63721 14.6309C7.6472 12.7942 7.71117 11.2801 7.74268 10.5254C7.74704 10.4209 7.75019 10.3307 7.75342 10.253C7.10053 10.2515 6.50594 10.2515 6.00146 10.25C3.30723 10.2421 3.14826 10.2352 3.04443 10.2247L3.04541 10.2237C3.0481 10.2238 3.05113 10.2245 3.0542 10.2247C3.06289 10.2251 3.0732 10.2254 3.0835 10.2256C3.09256 10.2258 3.10004 10.2256 3.1001 10.2256C2.54796 10.2256 2.10034 9.77771 2.1001 9.22563C2.1001 8.67334 2.54781 8.22563 3.1001 8.22563C3.16549 8.22564 3.22924 8.23275 3.24561 8.23442ZM9.74072 10.6084C9.70939 11.3589 9.647 12.843 9.63721 14.6416C9.63496 15.0554 9.63558 15.4836 9.63818 15.9112C10.6512 15.7083 11.9722 15.4452 12.7769 15.2891L12.7827 15.2872V15.2881C13.0882 15.2309 13.3402 15.1809 13.5483 15.1397C13.5451 14.0078 13.5413 12.9068 13.5396 12.1436C13.5358 10.4911 13.5356 10.4167 13.5356 10.3428C13.5357 10.3162 13.5365 10.2898 13.5386 10.2637C12.2985 10.2616 10.9872 10.2592 9.75439 10.2569C9.75045 10.3516 9.74662 10.4671 9.74072 10.6084ZM10.5171 1.68754C10.9248 1.55464 11.5119 1.43249 12.188 1.54301C12.6227 1.61415 13.3492 1.76151 13.8892 2.27446C14.3796 2.74072 14.6096 3.18785 14.6968 3.36528C14.7268 3.42646 14.7494 3.49028 14.7661 3.55375C14.769 3.55858 14.7729 3.56352 14.7759 3.5684L14.7925 3.59672L14.8071 3.62602C14.9193 3.84824 14.96 4.09524 14.979 4.29692C15.0002 4.52201 15.0037 4.80041 14.9868 5.14262L14.978 5.30473L14.9204 5.45512C14.6895 6.0509 14.1435 6.96097 13.1997 7.36039C12.9717 7.45686 12.4681 7.68643 11.7905 7.6602C11.0497 7.63146 10.2531 7.51679 9.67529 7.00785C9.31794 6.693 8.80873 6.2963 8.60986 5.59379C8.51462 5.25714 8.41353 4.83214 8.38232 4.42094C8.35633 4.07767 8.34971 3.44162 8.75537 2.95121L8.91357 2.76567C9.29787 2.33556 9.78443 1.92648 10.5171 1.68754ZM11.8647 3.51664C11.6059 3.47445 11.3569 3.51729 11.1372 3.58891C10.8321 3.68841 10.6232 3.85032 10.3726 4.13871C10.3716 4.17002 10.3722 4.21351 10.3765 4.26957C10.3929 4.48563 10.4527 4.76244 10.5337 5.04887C10.5369 5.06005 10.5379 5.07233 10.5835 5.12407C10.6563 5.20662 10.7632 5.30033 10.9976 5.50688C11.014 5.52121 11.1781 5.6344 11.8687 5.66117C12.0549 5.66832 12.1875 5.61713 12.4204 5.5186C12.519 5.47685 12.642 5.38442 12.77 5.22563C12.8594 5.11478 12.934 4.99067 12.9917 4.87309C12.9952 4.73469 12.994 4.63015 12.9897 4.55375C12.8464 4.39243 12.7629 4.19339 12.7427 3.98832C12.6845 3.90931 12.6099 3.81744 12.5112 3.72367C12.4511 3.66695 12.279 3.58442 11.8647 3.51664Z" fill="black"/>
</svg>
