<svg width="24" height="24" viewBox="0 0 24 24" fill="none" xmlns="http://www.w3.org/2000/svg">
<path d="M13.7298 2.59075C16.3272 2.5019 17.8425 2.53005 18.7269 2.56243C19.6096 2.59477 19.8574 2.63222 20.1556 2.69622C20.4244 2.75395 20.6811 2.82717 20.9026 2.92083C21.0607 2.98765 21.323 3.11329 21.5306 3.34368L21.6155 3.44915L21.6927 3.56732C21.7681 3.69245 21.8374 3.83413 21.8909 3.94622C21.9752 4.12278 22.0748 4.34209 22.1819 4.58196C22.4026 5.07594 22.4264 5.49067 22.472 6.51556C22.515 7.48389 22.59 9.34124 22.5804 10.6982C22.5705 12.0791 22.4694 12.8935 22.387 13.4511C22.3058 14.0003 22.2408 14.3135 22.1038 14.7177C21.962 15.1362 21.7955 15.5041 21.6194 15.8066C21.455 16.089 21.2414 16.3848 20.9759 16.5888C20.7179 16.7869 20.4223 16.9036 20.0804 16.9882C19.7467 17.0708 19.31 17.137 18.7269 17.1992C17.785 17.2994 16.2015 17.3102 15.0462 17.331C13.8431 17.3526 13.007 17.346 12.5687 17.3456C12.5084 17.3456 12.4566 17.3454 12.4124 17.3456C12.3944 17.3589 12.377 17.3751 12.3577 17.3886C12.3087 17.423 12.0467 17.6069 11.1585 18.3974C10.5189 18.9667 9.50997 19.9868 8.9085 20.5947C8.57495 20.9317 8.33797 21.1789 8.19756 21.3144C8.13416 21.3755 8.02589 21.4788 7.90068 21.5595C7.77723 21.639 7.39367 21.8531 6.92119 21.6699C6.26165 21.414 6.10706 20.7828 6.06279 20.5781C6.03455 20.4474 6.01764 20.3111 6.00713 20.2353C5.99384 20.1396 5.98672 20.1018 5.98174 20.082C5.91951 19.8368 5.87313 19.6209 5.83721 19.4511C5.79755 19.2637 5.77822 19.172 5.76299 19.1171L5.75518 19.0878C5.66549 18.7217 5.58471 18.3104 5.5335 17.8964C5.18486 17.9119 4.75465 17.9171 4.30889 17.8691C3.78945 17.8131 3.37302 17.7118 3.05498 17.6005C2.78173 17.5049 2.4789 17.3667 2.27471 17.1747C2.03131 16.9457 1.88856 16.6659 1.79326 16.3632C1.70333 16.0775 1.63999 15.7217 1.58721 15.2812C1.49149 14.4821 1.43675 13.0449 1.42119 11.9052C1.40504 10.7214 1.46109 9.83594 1.57256 8.83099C1.68258 7.83918 1.84581 6.74694 1.97393 6.02923C2.16166 4.97764 2.31162 4.57978 2.3626 4.43646L2.44072 4.25286C2.64724 3.83992 3.01392 3.5273 3.34404 3.3095L3.45244 3.24603C3.7077 3.11593 3.96733 3.10421 4.12822 3.09075C4.39301 3.0686 4.87571 3.03851 5.7708 2.98528C7.57688 2.87788 11.1404 2.67934 13.7298 2.59075ZM18.6536 4.56048C17.8201 4.52996 16.3521 4.50241 13.7981 4.58978C11.2355 4.67745 7.69279 4.87509 5.88897 4.98235C4.9914 5.03573 4.54072 5.06339 4.304 5.08294C4.27557 5.10692 4.25399 5.12801 4.23858 5.14446C4.23675 5.14633 4.23423 5.14767 4.23272 5.14935C4.19157 5.26439 4.08321 5.59357 3.94268 6.38079C3.82222 7.05562 3.66593 8.10434 3.56084 9.05169C3.45723 9.98584 3.40632 10.7878 3.42119 11.8779C3.43668 13.0123 3.49141 14.3584 3.57354 15.0439C3.6138 15.3798 3.65474 15.5806 3.68584 15.7001C3.69544 15.7037 3.70545 15.7091 3.71611 15.7128C3.8776 15.7693 4.14257 15.8388 4.52275 15.8798C4.9384 15.9246 5.36256 15.9062 5.73076 15.8827C5.89422 15.8723 6.09196 15.8579 6.23662 15.8554C6.30508 15.8542 6.4227 15.8537 6.54522 15.873C6.60477 15.8824 6.71986 15.904 6.84795 15.9628C6.95356 16.0114 7.16066 16.1284 7.30596 16.371L7.36358 16.4824L7.42119 16.6415C7.43448 16.6884 7.44256 16.7274 7.44756 16.7529C7.4596 16.8143 7.4669 16.8729 7.47197 16.9199C7.48208 17.0134 7.48775 17.1129 7.49151 17.1952C7.50041 17.3904 7.50109 17.4973 7.50811 17.58C7.54627 17.9206 7.61623 18.2792 7.69756 18.6113H7.69561C7.71938 18.701 7.74231 18.8071 7.76397 18.9091C8.36544 18.3024 9.22984 17.4371 9.82842 16.9042C10.7412 16.0918 11.0684 15.8502 11.2083 15.7519C11.2393 15.7301 11.2641 15.7091 11.3196 15.665C11.3427 15.6466 11.3801 15.6176 11.4202 15.5888C11.4582 15.5615 11.5265 15.5143 11.6126 15.4716L11.7649 15.4101C11.9111 15.3631 12.0367 15.3552 12.1087 15.3515C12.2079 15.3465 12.3545 15.3455 12.5706 15.3456C13.0187 15.346 13.8314 15.3532 15.011 15.332C16.2383 15.3099 17.6877 15.298 18.5149 15.2099C19.0732 15.1504 19.4012 15.096 19.5999 15.0468C19.6851 15.0257 19.7333 15.0077 19.7571 14.998C19.7766 14.9745 19.8243 14.9151 19.8909 14.8007C19.99 14.6304 20.1037 14.3867 20.2093 14.0751C20.2925 13.8294 20.3363 13.6473 20.4085 13.1591C20.4795 12.6788 20.5713 11.9578 20.5804 10.6835C20.5896 9.38485 20.5171 7.57605 20.4739 6.60442C20.4241 5.48285 20.3916 5.47831 20.3558 5.39837C20.2477 5.15654 20.1582 4.95818 20.0862 4.80755C20.0739 4.78172 20.0616 4.75861 20.0511 4.73724C19.9781 4.71221 19.8747 4.68096 19.7366 4.6513C19.6036 4.62273 19.4877 4.59103 18.6536 4.56048ZM7.67119 6.17278C7.90975 6.17618 8.09453 6.25706 8.20244 6.31634C8.40085 6.42536 8.55849 6.58514 8.6624 6.69622C8.7845 6.82674 8.92619 6.99559 9.09014 7.20306C9.73985 8.02532 10.9637 9.73403 11.6194 10.6767C12.2843 11.6324 12.3796 11.8227 12.4935 12.0517C12.7392 12.5462 12.5377 13.1466 12.0433 13.3925C11.5489 13.6381 10.9483 13.4366 10.7024 12.9423C10.6593 12.8555 10.6286 12.7715 10.1995 12.1435C9.59683 12.1937 8.9974 12.2443 8.46026 12.2734C7.88733 12.3044 7.40401 12.3115 7.1624 12.3154C7.04207 12.3173 6.97754 12.3178 6.94072 12.3183C6.88466 12.4976 6.83373 12.6615 6.78936 12.8036C6.64828 13.2555 6.5773 13.4834 6.54131 13.5995C6.52311 13.6583 6.51491 13.6863 6.51104 13.6992C6.51199 13.6958 6.5132 13.6902 6.51494 13.6835C6.51665 13.677 6.51778 13.6713 6.51787 13.6708C6.38608 14.207 5.8451 14.5348 5.30889 14.4033C4.77259 14.2714 4.44468 13.7296 4.57647 13.1933C4.58899 13.1424 4.60891 13.0758 4.88018 12.207C5.16207 11.3041 5.72654 9.49836 6.07158 8.44232C6.41732 7.38416 6.53751 7.09691 6.63994 6.87298L6.71318 6.72942C6.74993 6.66595 6.83471 6.52939 6.9876 6.40716C7.1655 6.26496 7.40226 6.16898 7.67119 6.17278ZM15.7229 5.79388C16.4212 5.81616 16.8344 5.91575 17.2239 6.12298C17.755 6.40557 18.0386 6.93325 18.1712 7.164C18.4703 7.68451 18.5797 8.1894 18.6351 8.46087C18.7183 8.8693 18.696 9.39132 18.6644 9.84954C18.636 10.2591 18.5208 10.5793 18.2933 11.0556C18.0698 11.5235 17.6847 12.2255 17.471 12.6015C17.303 12.8972 17.1537 13.1751 16.8938 13.3661C16.6048 13.5785 16.3009 13.6145 16.0511 13.6367C15.7856 13.6602 15.3402 13.679 14.9261 13.6962C14.8923 13.6976 14.8585 13.6972 14.8255 13.6952C14.8125 13.7031 14.7999 13.7123 14.7864 13.7197C14.3021 13.9845 13.6941 13.8064 13.429 13.3222C13.3407 13.1609 13.3102 13.0137 13.2864 12.8867C13.2619 12.7554 13.2266 12.5368 13.1722 12.1552C13.0625 11.3865 12.8598 9.87206 12.7571 8.85931C12.6527 7.82943 12.6562 7.34292 12.6663 7.04681C12.6677 7.00743 12.6704 6.86343 12.7015 6.72064C12.7411 6.53835 12.8426 6.27106 13.1058 6.06243C13.3304 5.8845 13.5693 5.83524 13.6829 5.81634C13.8067 5.79576 13.9358 5.78983 14.0354 5.78607C14.4579 5.7701 15.25 5.77879 15.7229 5.79388ZM14.6771 7.77923C14.6892 8.00176 14.7099 8.28761 14.7474 8.65716C14.8383 9.55385 15.0152 10.8858 15.1272 11.6845C15.3526 11.6748 15.5528 11.6639 15.7073 11.6542C15.7148 11.6411 15.7236 11.6276 15.7317 11.6132C15.9403 11.2462 16.2969 10.5946 16.4886 10.1933C16.5855 9.99031 16.6274 9.88308 16.6478 9.81927C16.6625 9.77301 16.6666 9.74953 16.6692 9.71087C16.7031 9.22005 16.697 8.96299 16.6761 8.86028C16.6299 8.63382 16.5701 8.39144 16.4378 8.16107C16.356 8.01866 16.3075 7.94106 16.2669 7.8886C16.2627 7.88318 16.2583 7.87865 16.2552 7.87493C16.2288 7.86261 16.1997 7.85153 16.1517 7.84075C16.0707 7.82262 15.9254 7.8014 15.6595 7.7929C15.386 7.78417 15.0102 7.77974 14.6771 7.77923ZM7.97295 9.06341C7.85859 9.41341 7.72074 9.84885 7.57549 10.3066C7.79572 10.3007 8.06185 10.292 8.35186 10.2763C8.51377 10.2675 8.68228 10.2543 8.85674 10.2421C8.55322 9.82204 8.24723 9.40247 7.97881 9.04388C7.97671 9.0503 7.97507 9.05693 7.97295 9.06341Z" fill="black"/>
</svg>
