<svg width="24" height="24" viewBox="0 0 24 24" fill="none" xmlns="http://www.w3.org/2000/svg">
<path d="M10.4961 6.73632C10.7138 6.73762 10.9848 6.74814 11.2226 6.81152C11.3829 6.85431 11.5566 6.92839 11.7373 7.08105C11.8584 7.18344 11.9723 7.31428 12.0742 7.43456C12.2999 7.70099 12.6378 8.12553 13.1924 8.70995C13.7501 9.29767 14.4863 10.005 15.2568 10.6103C16.0329 11.22 16.8259 11.7095 17.2881 12.0127C17.5283 12.1703 17.6806 12.272 17.7783 12.3379C17.8286 12.3718 17.8584 12.3921 17.8799 12.4062L17.8701 12.4023C18.3524 12.6713 18.5257 13.2803 18.2568 13.7627C17.9877 14.2446 17.3786 14.4173 16.8965 14.1484C16.847 14.1208 16.8008 14.091 16.7754 14.0742C16.7452 14.0543 16.7058 14.0271 16.6611 13.9971C16.5679 13.9343 16.423 13.8366 16.1914 13.6846C15.7837 13.4171 14.8846 12.8616 14.0215 12.1836C13.1524 11.5008 12.3441 10.7203 11.7422 10.0859C11.1459 9.45755 10.7568 8.97527 10.5566 8.73827C10.5352 8.73773 10.5109 8.73648 10.4844 8.73632C10.4293 8.736 10.3689 8.73689 10.3027 8.73827C10.2849 8.78929 10.265 8.84066 10.2383 8.88964C10.2545 8.85994 10.2549 8.85512 10.2324 8.90917C10.2147 8.95165 10.1892 9.0142 10.1572 9.09862C10.0933 9.26734 10.006 9.51063 9.89745 9.83007C9.81104 10.0846 9.74971 10.3673 9.70409 10.7217C9.60491 11.4924 9.63324 11.9351 9.63573 11.9678C9.63584 11.9693 9.63605 11.9734 9.6367 11.9795C9.63762 11.9881 9.6388 12.0002 9.64061 12.0146C9.64434 12.0443 9.64941 12.0831 9.65624 12.1289C9.66994 12.2207 9.68968 12.3366 9.71288 12.4668C9.75956 12.7287 9.82124 13.0369 9.88768 13.3174C9.88925 13.3241 9.89027 13.3303 9.89159 13.335C9.9006 13.3431 9.91562 13.3576 9.94139 13.3779C9.96466 13.3963 9.99022 13.4156 10.0254 13.4424C10.0584 13.4676 10.0996 13.4992 10.1426 13.5332C10.4132 13.7473 10.7905 14.0706 11.3447 14.4687C11.9162 14.8792 12.5899 15.3138 13.0078 15.5996C13.1682 15.7092 13.4927 15.9152 13.6885 16.3057C13.8422 16.6127 13.8849 16.9895 13.9219 17.251C14.0173 17.9251 14.1919 19.2289 14.2822 19.9355L14.2832 19.9424L14.2842 19.9502C14.3883 20.8711 14.4471 21.2253 14.4892 21.4629C14.4937 21.487 14.4973 21.505 14.5 21.5185C14.5026 21.5318 14.5042 21.539 14.5049 21.542C14.6721 22.063 14.3894 22.6235 13.8691 22.7969C13.3452 22.9712 12.779 22.6868 12.6045 22.1631C12.5621 22.0356 12.542 21.9291 12.5224 21.8223L12.5215 21.8174C12.4708 21.5319 12.4064 21.1393 12.2988 20.1894L11.9414 17.5312C11.9243 17.4106 11.9098 17.3269 11.8994 17.2646C11.8928 17.2601 11.8853 17.255 11.8779 17.25C11.5369 17.0167 10.7651 16.5156 10.1777 16.0937C9.57364 15.6598 9.10915 15.266 8.90135 15.1016C8.84047 15.0534 8.59246 14.8762 8.42088 14.6934C8.19286 14.45 8.03068 14.1549 7.94139 13.7783C7.7936 13.1544 7.66254 12.3929 7.64159 12.1191C7.62915 11.9557 7.60346 11.3766 7.72069 10.4658C7.77828 10.0185 7.86358 9.5996 8.00389 9.18652C8.00473 9.18406 8.00501 9.18115 8.00585 9.1787C7.82485 9.27157 7.58199 9.40728 7.36424 9.55468C7.12873 9.71417 6.92244 9.89181 6.71581 10.1094C6.29476 10.5528 6.04164 10.9617 5.88378 11.2851C5.6855 11.7924 5.47647 12.3166 5.30858 12.6894C5.28092 12.7517 5.26857 12.7804 5.26268 12.7949H5.2617C5.2617 12.7955 5.26206 12.7969 5.2617 12.7978L5.22655 12.8916C5.02467 13.3563 4.49909 13.6023 4.00585 13.4453C3.48028 13.2776 3.18952 12.7152 3.35643 12.1894L3.41014 12.042C3.43026 11.9924 3.45378 11.9386 3.48338 11.8721L3.48534 11.8682C3.63385 11.5383 3.83243 11.0417 4.0371 10.5176L4.05077 10.4824L4.06639 10.4492C4.30557 9.9495 4.67635 9.35299 5.26561 8.73241C5.56146 8.42092 5.87664 8.1466 6.24315 7.89843C6.59003 7.66361 6.96265 7.45941 7.21581 7.33593C7.63583 7.1311 8.0095 7.0441 8.25292 6.97948C8.43919 6.93002 8.90405 6.80345 9.65819 6.76269C9.96968 6.74587 10.2552 6.73491 10.4961 6.73632ZM7.37792 16.665C7.55845 16.1494 8.1203 15.8725 8.63963 16.0469C9.16266 16.2229 9.4449 16.7903 9.26952 17.3135C9.25475 17.3574 9.23402 17.4095 9.08299 17.79C8.92277 18.1937 8.60009 19.0047 8.31639 19.6699C8.03197 20.3367 7.79368 20.8394 7.66503 21.1211C7.54019 21.3945 7.51663 21.4646 7.50487 21.498C7.4837 21.5581 7.47328 21.5876 7.42674 21.7256C7.25024 22.2487 6.68329 22.5297 6.16014 22.3535C5.63683 22.177 5.35569 21.6092 5.53221 21.0859C5.57759 20.9514 5.59178 20.9088 5.61815 20.834C5.65408 20.732 5.70148 20.6058 5.84569 20.29C5.98724 19.9801 6.20538 19.5215 6.47655 18.8857C6.7488 18.2474 7.0623 17.4592 7.22362 17.0527C7.30374 16.8508 7.34454 16.748 7.36522 16.6953L7.37792 16.665ZM17.9639 14.251C18.4729 14.0378 19.0588 14.2773 19.2724 14.7861C19.3119 14.8804 19.384 15.0588 19.7939 15.9697C20.1442 16.7482 20.8103 18.1677 21.167 18.9316L21.5293 19.707C21.5783 19.8143 21.6068 19.8824 21.6308 19.9394C21.6314 19.9403 21.6322 19.9415 21.6328 19.9424C21.6401 19.9539 21.6528 19.9732 21.666 19.9951C21.9506 20.468 21.7977 21.0822 21.3252 21.3672C20.852 21.6521 20.237 21.4995 19.9521 21.0264C19.9514 21.0252 19.9498 21.0226 19.9473 21.0185C19.9436 21.0129 19.9318 20.9954 19.9219 20.9795C19.8977 20.9407 19.8655 20.8853 19.832 20.8154L19.8193 20.7881L19.8076 20.7607C19.7704 20.6694 19.7353 20.5861 19.3574 19.7851L19.3564 19.7812C19.005 19.0285 18.329 17.5863 17.9707 16.79C17.5553 15.8669 17.4759 15.6723 17.4287 15.5596C17.2156 15.0504 17.4549 14.4645 17.9639 14.251ZM9.6201 1.24902C9.91271 1.22131 10.2898 1.26848 10.6592 1.35546L11.0224 1.45409L11.1191 1.48437L11.209 1.53417C11.3808 1.62914 11.6052 1.7528 11.8017 1.88573C11.9519 1.98729 12.1961 2.16407 12.3769 2.4248L12.4502 2.54198L12.5762 2.76269C12.7333 3.05757 12.9431 3.56747 12.8506 4.23534C12.7841 4.71409 12.5824 5.38877 11.8418 6.01171C11.7204 6.11377 11.5345 6.26563 11.293 6.38183C11.0325 6.50703 10.7507 6.57198 10.4375 6.57714C10.1557 6.58176 9.62755 6.58079 9.20604 6.52245C8.94883 6.48683 8.67955 6.45183 8.46678 6.4082C8.29853 6.37367 7.92674 6.29524 7.63573 6.03222C7.37903 5.80005 6.91298 5.31817 6.88963 4.54882C6.87444 4.04665 6.86087 3.16158 7.48729 2.49316C7.67802 2.28967 8.0067 1.94935 8.49999 1.71679C8.53685 1.69942 8.57428 1.68411 8.60936 1.66796C8.71573 1.5555 8.84961 1.46561 9.00585 1.41112C9.15822 1.35806 9.34551 1.29419 9.54003 1.25976L9.58006 1.25292L9.6201 1.24902ZM10.0537 3.27245C9.98446 3.2956 9.91196 3.31283 9.8369 3.3203L9.83495 3.32128C9.76853 3.34304 9.6238 3.39855 9.35253 3.52636C9.22231 3.58786 9.1092 3.6875 8.94628 3.86132C8.94495 3.86279 8.94229 3.86665 8.93749 3.87695C8.93126 3.89032 8.92007 3.91825 8.91014 3.96874C8.8892 4.07545 8.88289 4.22409 8.88866 4.45214C9.01833 4.47752 9.19614 4.50261 9.48045 4.54198C9.73731 4.57749 10.1325 4.58162 10.4053 4.57714C10.4178 4.57693 10.427 4.5758 10.4326 4.57519C10.4367 4.57262 10.4432 4.56915 10.4512 4.56347C10.4739 4.54726 10.5049 4.52326 10.5547 4.48144C10.7065 4.35373 10.7733 4.24978 10.8066 4.18261C10.8408 4.11355 10.8583 4.04504 10.8701 3.95995C10.8801 3.88762 10.8708 3.84567 10.8564 3.80566C10.847 3.77946 10.8319 3.74673 10.8076 3.70116C10.7952 3.67796 10.7808 3.65209 10.7637 3.62206C10.7583 3.61275 10.7512 3.6012 10.7441 3.58886C10.7302 3.57792 10.7102 3.56131 10.6816 3.54198C10.5933 3.48224 10.4823 3.41867 10.3408 3.33984C10.2384 3.31093 10.1406 3.28837 10.0537 3.27245Z" fill="black"/>
</svg>
