<svg width="24" height="24" viewBox="0 0 24 24" fill="none" xmlns="http://www.w3.org/2000/svg">
<path d="M13.6559 3.38617C13.8054 3.3892 13.9109 3.39429 13.984 3.39886C14.0188 3.40104 14.0473 3.40365 14.07 3.4057C14.0727 3.40579 14.0758 3.40561 14.0788 3.4057C14.1084 3.40671 14.1528 3.40768 14.2086 3.4096C14.3204 3.41347 14.4815 3.41923 14.6784 3.42621C15.0729 3.44019 15.6126 3.45974 16.1911 3.48187C17.3411 3.52587 18.6679 3.58074 19.3102 3.62347C19.9341 3.66498 20.2911 3.6928 20.5055 3.71331C20.6097 3.72329 20.6959 3.73218 20.7731 3.74456L20.9899 3.79339L21.1266 3.83929C21.2764 3.89806 21.5002 4.01676 21.6725 4.25726L21.7692 4.41742L21.8561 4.61175C21.9358 4.8121 21.9934 5.024 22.028 5.2055C22.0495 5.31896 22.0535 5.42916 22.0612 5.66644C22.07 5.94108 22.0837 6.46526 22.1061 7.48578C22.1509 9.52692 22.2298 13.4703 22.234 15.6567C22.2382 17.8204 22.1743 18.3436 22.0563 18.8159C22.0091 19.0049 21.9475 19.216 21.86 19.4155C21.7736 19.6123 21.6361 19.8567 21.4059 20.059C21.0352 20.3847 20.5992 20.4179 20.1803 20.4409C19.7023 20.467 18.8714 20.4765 17.3903 20.4838C14.4026 20.4986 8.8148 20.5066 5.98598 20.5024C4.57399 20.5003 3.84233 20.495 3.45473 20.4877C3.1332 20.4817 2.93565 20.4792 2.73989 20.4194C2.72975 20.4163 2.73615 20.4182 2.70376 20.4086C2.68336 20.4026 2.6417 20.3906 2.59536 20.3735C2.54972 20.3566 2.47653 20.326 2.39516 20.2778C2.31328 20.2292 2.1995 20.1483 2.09633 20.019C1.89181 19.7625 1.84081 19.4602 1.81411 19.2973C1.77875 19.0815 1.7443 18.76 1.70571 18.2709C1.63829 17.4165 1.53136 15.8967 1.54458 13.5141C1.55773 11.1453 1.68642 8.01684 1.75454 6.44574C1.78843 5.66407 1.80654 5.25055 1.81997 5.02972C1.8261 4.9289 1.83326 4.83098 1.84536 4.74945C1.85165 4.70714 1.86506 4.62596 1.89711 4.53363C1.93895 4.41329 1.99384 4.32588 2.0309 4.27289L2.12758 4.15472C2.22599 4.05015 2.32593 3.98545 2.3893 3.94964C2.48078 3.89799 2.56683 3.86656 2.62661 3.8471C2.74484 3.80865 2.8647 3.78658 2.95864 3.77191C3.15189 3.74174 3.39515 3.71994 3.65395 3.7016C3.91591 3.68303 4.1552 3.65751 5.84536 3.59808C7.52701 3.53895 10.5679 3.44888 12.0954 3.40374C12.8703 3.38084 13.3568 3.3801 13.6559 3.38617ZM12.1549 5.40277C10.6254 5.44796 7.59047 5.53822 5.91567 5.5971C4.24973 5.65568 4.03433 5.67979 3.79555 5.69671C3.794 5.69679 3.79221 5.6966 3.79067 5.69671C3.78097 5.90858 3.76782 6.18123 3.75258 6.53265C3.68433 8.107 3.5575 11.1991 3.54458 13.5248C3.53175 15.8363 3.63547 17.2978 3.69985 18.1137C3.71135 18.2595 3.72316 18.3843 3.73305 18.4907C4.14717 18.4957 4.83557 18.5006 5.98891 18.5024C8.81367 18.5066 14.3974 18.4986 17.3805 18.4838C18.8842 18.4764 19.6548 18.4676 20.0709 18.4448C20.0752 18.4445 20.0795 18.4431 20.0836 18.4428C20.093 18.41 20.1053 18.3728 20.1159 18.3305C20.1656 18.1314 20.2382 17.8438 20.234 15.6606C20.2299 13.4977 20.151 9.57474 20.1061 7.52972C20.0837 6.50858 20.0706 5.99392 20.0622 5.73089C20.0616 5.71426 20.0607 5.69841 20.0602 5.68402C19.8629 5.66846 19.5818 5.64647 19.1774 5.61956C18.5693 5.57911 17.2738 5.52523 16.1149 5.48089C15.539 5.45886 15.0013 5.43917 14.6081 5.42523C14.4116 5.41826 14.2506 5.41247 14.1393 5.40863C14.0837 5.40671 14.0398 5.40573 14.0104 5.40472C13.9959 5.40422 13.9846 5.40302 13.9772 5.40277H13.9655L13.9176 5.40081L13.8893 5.39691C13.8886 5.39695 13.8875 5.39703 13.8864 5.39691C13.8853 5.39674 13.8839 5.39609 13.8825 5.39593L13.8766 5.39496C13.872 5.39481 13.8659 5.39539 13.859 5.39496C13.8193 5.39248 13.7422 5.38875 13.6149 5.38617C13.3587 5.38097 12.9074 5.38054 12.1549 5.40277ZM9.11879 8.11273C9.48568 8.06619 9.92542 8.01195 10.2653 8.05706C10.8769 8.13837 11.3692 8.42649 11.5885 8.58441C12.0366 8.90704 12.1385 9.53175 11.8161 9.97992C11.4934 10.4281 10.8678 10.5302 10.4196 10.2075C10.4033 10.1958 10.3431 10.156 10.2555 10.1166C10.1678 10.0773 10.0789 10.0498 10.0016 10.0395C10.012 10.0409 9.9728 10.0362 9.84438 10.0453C9.72525 10.0539 9.57178 10.0706 9.37075 10.0961C8.9989 10.1433 8.51622 10.2334 8.25063 10.2934C8.24922 10.2945 8.24741 10.2968 8.24477 10.2993C8.2384 10.3052 8.22839 10.3158 8.21547 10.3315C8.14953 10.412 8.07934 10.5385 7.95864 10.7856C7.87424 10.9584 7.79213 11.256 7.70376 11.602C7.5981 12.0156 7.59743 12.2922 7.61294 12.4955C7.61294 12.4955 7.61506 12.5169 7.62661 12.5639C7.63797 12.6101 7.65655 12.6709 7.68325 12.7475C7.73746 12.9031 7.81677 13.095 7.92153 13.3276C8.00039 13.5027 8.08375 13.589 8.16079 13.6498C8.2727 13.7381 8.36166 13.7761 8.60805 13.9125C8.59285 13.9041 8.59669 13.9103 8.64419 13.9194C8.68828 13.9278 8.74125 13.9317 8.82583 13.9389C9.12651 13.9224 9.38449 13.8951 9.5729 13.8666C9.62906 13.8581 9.67678 13.8476 9.71645 13.8403C10.105 13.595 10.6255 13.6434 10.9616 13.9838C11.3494 14.3768 11.3447 15.0099 10.9518 15.3979C10.9262 15.4232 10.8244 15.5287 10.6706 15.6205L10.6334 15.642L10.5954 15.6606C10.4513 15.7306 10.2879 15.7663 10.2272 15.7797C10.1263 15.802 10.0055 15.8239 9.87172 15.8442C9.60264 15.8848 9.25305 15.9228 8.8561 15.9418L8.7936 15.9448L8.73012 15.9399C8.52553 15.9238 8.06694 15.8993 7.6393 15.6625C7.32724 15.4897 6.55372 15.1601 6.09829 14.1489C5.89041 13.6873 5.65553 13.1286 5.61879 12.6479C5.58857 12.2518 5.60083 11.7545 5.76626 11.1069C5.83926 10.821 5.96876 10.3027 6.16176 9.90765C6.35607 9.50988 6.76893 8.57832 7.80922 8.3432L8.41567 8.2221C8.6477 8.18034 8.89596 8.14099 9.11879 8.11273ZM16.2409 8.00042C16.4839 7.99749 16.7087 8.0221 16.8893 8.05511C16.9795 8.07161 17.0678 8.0918 17.1491 8.11566C17.1891 8.12742 17.2777 8.15411 17.3766 8.2016L17.4782 8.25628L17.5631 8.31488C17.9659 8.62176 18.0789 9.18999 17.8092 9.63128C17.5479 10.0579 17.0185 10.2185 16.5709 10.0307H16.569C16.5589 10.0283 16.5452 10.0249 16.529 10.0219C16.4601 10.0093 16.3651 9.99922 16.2653 10.0004C16.1655 10.0016 15.9782 10.0522 15.5446 10.228C15.4133 10.2812 15.2029 10.4033 14.9752 10.5698C14.5823 10.8571 14.4103 11.1066 14.3571 11.1987C14.3064 11.2865 14.2627 11.4122 14.2086 11.6342C14.21 11.6288 14.2046 11.6524 14.1989 11.7192C14.1934 11.7835 14.1898 11.8691 14.1881 11.977C14.1848 12.1941 14.1913 12.4702 14.2047 12.7983C14.211 12.951 14.2328 13.0649 14.2584 13.1537C14.2846 13.2442 14.3198 13.3263 14.3668 13.4243C14.3979 13.4889 14.4287 13.5201 14.4743 13.5512C14.5394 13.5956 14.6406 13.6425 14.8405 13.7123C14.855 13.7151 14.9188 13.7259 15.0641 13.727C15.2439 13.7283 15.4794 13.7146 15.7985 13.6889C16.1434 13.6612 16.4168 13.6091 16.6081 13.5619C16.7725 13.1407 17.2089 12.8703 17.6764 12.935C18.2231 13.011 18.6053 13.5163 18.5299 14.0629C18.5149 14.1709 18.4955 14.2728 18.4567 14.3959L18.4508 14.4116L18.4459 14.4272C18.3759 14.6259 18.2338 14.9431 17.9245 15.1743L17.8795 15.2084L17.8307 15.2368C17.6496 15.3426 17.3794 15.431 17.1159 15.4975C16.817 15.5729 16.4265 15.6444 15.9586 15.6821C15.6335 15.7082 15.3233 15.729 15.0495 15.727C14.787 15.7251 14.4754 15.7036 14.1813 15.601C13.705 15.4347 12.9747 15.1446 12.5641 14.2895C12.4118 13.9722 12.2334 13.5308 12.2067 12.8803C12.1927 12.5392 12.1839 12.219 12.1881 11.9457C12.1921 11.694 12.2071 11.4034 12.2663 11.1606C12.3284 10.9057 12.4248 10.5465 12.6256 10.1987C12.8176 9.86638 13.1765 9.40745 13.7946 8.9555C14.0863 8.74222 14.4465 8.51479 14.7926 8.37445C15.1674 8.22254 15.7024 8.007 16.2409 8.00042Z" fill="black"/>
</svg>
