<svg width="24" height="24" viewBox="0 0 24 24" fill="none" xmlns="http://www.w3.org/2000/svg">
<path d="M19.3509 6.07951C19.8073 6.06986 20.1414 6.08739 20.4115 6.13029C20.7013 6.17638 20.8882 6.2475 21.0033 6.28947C21.8589 6.60135 22.2215 7.36221 22.4017 7.79142C22.4466 7.8983 22.4733 8.00403 22.4886 8.06974C22.5062 8.14508 22.5223 8.22829 22.5375 8.31193C22.5674 8.47664 22.6038 8.70189 22.6478 8.96427C22.7125 9.3495 22.7156 9.74933 22.7084 10.0629C22.6936 10.6975 22.5969 11.1893 22.4398 11.5385C22.2351 11.993 21.9081 12.3377 21.516 12.6303C21.227 12.8458 20.796 13.0592 20.5843 13.1654C20.4295 13.2432 20.2481 13.3275 19.9779 13.3861C19.7436 13.4369 19.4658 13.4638 19.1068 13.4848C18.458 13.5226 17.4431 13.5368 16.0922 14.5531C14.6186 15.662 12.8252 17.9046 11.599 19.3822C10.4005 20.8264 9.95825 21.2599 9.70348 21.5092C9.31817 21.8862 8.99886 22.0936 8.51891 22.2621C8.2521 22.3557 7.96552 22.3642 7.62731 22.3764C7.22045 22.391 6.53781 22.398 6.07067 22.3861C5.56766 22.3733 5.3072 22.3376 4.93004 22.269C4.58194 22.2056 4.10237 22.1089 3.64391 21.9906C3.18335 21.8718 2.77031 21.7369 2.5316 21.6557C1.84751 21.4227 1.37303 21.0097 1.06676 20.6254C0.713949 20.1826 0.655685 19.7015 0.631213 19.4125C0.577223 18.7747 0.700497 18.1553 0.82262 17.7289C0.977642 17.188 1.27454 16.7698 1.50328 16.4838L1.58336 16.391C1.77368 16.1839 1.99906 16.0333 2.1986 15.9193C2.4329 15.7856 2.70618 15.6609 2.98766 15.5395C3.40003 15.3616 3.89321 15.2463 4.25231 15.1693C4.59693 15.0955 4.90647 15.054 5.20836 15.0346C5.20799 15.0288 5.20766 15.0229 5.20739 15.017C5.20438 14.9528 5.20248 14.9085 5.19957 14.8705L5.20055 14.8695C5.187 14.7153 5.1809 14.5445 5.18004 13.9604V13.9457C5.18706 13.4236 5.20437 12.4211 5.25231 11.6078C5.29976 10.803 5.36691 10.1812 5.43297 9.80509C5.51593 9.33277 5.65162 8.8636 5.93883 8.34708C5.99616 8.24393 6.29904 7.50473 7.04625 7.21232L7.30016 7.12052C7.40745 7.08655 7.53808 7.05196 7.69274 7.02775C7.98818 6.98157 8.33401 6.97542 8.77867 7.01212C9.0144 7.03159 9.23672 7.04955 9.41149 7.06974C9.49969 7.07994 9.59516 7.0932 9.68492 7.11076C9.74059 7.12166 9.83447 7.14158 9.93883 7.18009L10.0453 7.22501L10.2347 7.32169C10.4399 7.43581 10.6886 7.61452 10.9193 7.95353C10.951 8.0001 11.1 8.19396 11.222 8.48087C11.3164 8.70271 11.3917 8.96735 11.4535 9.30314C12.6068 8.16874 13.2964 7.56162 13.6937 7.21037C13.9874 6.95076 14.2793 6.77145 14.4935 6.65275C14.5979 6.59494 14.6931 6.54699 14.7435 6.52091C14.7499 6.51763 14.7556 6.51447 14.7601 6.51212C14.7721 6.50405 14.7849 6.49626 14.7972 6.48869C14.8077 6.48226 14.8188 6.47612 14.8295 6.47013C14.8435 6.46224 14.8579 6.45395 14.8724 6.44669C14.8922 6.4368 14.9128 6.42784 14.933 6.41935C14.9454 6.41414 14.9583 6.40848 14.9711 6.40372C14.9822 6.39958 14.994 6.39573 15.0052 6.39201C15.0216 6.3866 15.0383 6.38005 15.055 6.3754C15.0588 6.37436 15.0639 6.37368 15.0687 6.37247C15.0721 6.37161 15.0761 6.37129 15.0795 6.37052C15.2425 6.32991 15.8373 6.20826 16.6039 6.17912C17.2737 6.15368 18.6057 6.09527 19.3509 6.07951ZM16.9574 16.2895C17.4102 16.2956 18.312 16.3085 18.8011 16.3188C19.344 16.3302 19.7343 16.3505 20.2211 16.5024C20.6052 16.6222 20.8738 16.8989 21.0033 17.227C21.1098 17.4971 21.1043 17.7537 21.0951 17.891C21.085 18.0396 21.0583 18.1853 21.0443 18.2641C21.0359 18.3115 21.0308 18.3419 21.0267 18.3686C21.0262 18.3722 21.0252 18.3755 21.0248 18.3783C21.0209 18.8781 21.0487 19.2859 21.0795 19.4574L21.1273 19.7406C21.2032 20.2877 20.8208 20.7927 20.2738 20.8686C19.7269 20.9443 19.2218 20.5629 19.1459 20.016C19.1386 19.9635 19.1327 19.9291 19.1117 19.8129V19.8119C19.0997 19.7454 19.0909 19.6715 19.0814 19.5922C19.0616 19.6088 19.0415 19.6269 19.0199 19.6449C18.5451 20.0418 17.6331 20.802 16.6947 21.5854C16.2708 21.9392 15.6405 21.8831 15.2865 21.4594C14.9329 21.0354 14.9896 20.404 15.4134 20.0502C16.2194 19.3774 17.0041 18.7211 17.5101 18.2983C17.2886 18.2951 17.0843 18.2915 16.93 18.2895C16.4707 18.2833 16.4698 18.2836 16.4681 18.2836C15.9158 18.2836 15.4681 17.8359 15.4681 17.2836C15.4682 16.7314 15.9159 16.2836 16.4681 16.2836C16.4875 16.2836 16.5099 16.2834 16.9574 16.2895ZM19.3939 8.07853C18.6711 8.09381 17.3776 8.15067 16.68 8.17716C16.2129 8.19493 15.8426 8.25761 15.6771 8.28849C15.6717 8.29133 15.6662 8.29482 15.6615 8.29728C15.594 8.33215 15.5344 8.36181 15.4623 8.40177C15.3221 8.47942 15.1651 8.57929 15.0179 8.70939C14.5837 9.09328 13.7933 9.78332 12.3939 11.183C11.0106 12.5667 8.98649 14.6912 7.82653 15.7416C7.24029 16.2724 6.80179 16.6001 6.42516 16.7885C5.97624 17.0129 5.65165 17.0172 5.46227 17.0238C5.22034 17.0323 4.973 17.0597 4.67125 17.1244C4.31371 17.2011 3.99348 17.2842 3.77965 17.3764C3.50962 17.4928 3.3226 17.5805 3.19078 17.6557C3.07533 17.7216 3.04822 17.7524 3.05699 17.7426C2.89208 17.9501 2.7914 18.1194 2.74547 18.2797C2.6589 18.5819 2.59873 18.94 2.62438 19.2436C2.62854 19.2927 2.63274 19.329 2.63707 19.3568C2.63976 19.3741 2.64197 19.3866 2.64391 19.3949C2.76006 19.5358 2.93062 19.6795 3.17614 19.7631C3.38919 19.8356 3.75061 19.9527 4.14391 20.0541C4.53968 20.1562 4.96837 20.2429 5.28844 20.3012C5.57917 20.3541 5.73604 20.3763 6.12145 20.3861C6.54348 20.3969 7.1848 20.3917 7.55504 20.3783C7.74434 20.3715 7.84145 20.365 7.89586 20.3598C8.04417 20.3053 8.12209 20.2595 8.30504 20.0805C8.50204 19.8877 8.89784 19.5064 10.0609 18.1049C11.1969 16.7361 13.178 14.2427 14.89 12.9545C16.7241 11.5747 18.2317 11.5319 18.9906 11.4877C19.334 11.4677 19.481 11.4478 19.5541 11.432C19.5903 11.4242 19.6017 11.4211 19.6869 11.3783C19.9563 11.243 20.2032 11.1144 20.3197 11.0277C20.5333 10.8684 20.5916 10.7711 20.6156 10.7182C20.6156 10.7182 20.6217 10.7048 20.6302 10.6762C20.6391 10.6463 20.6496 10.6021 20.6605 10.5434C20.6825 10.4247 20.7029 10.2521 20.7084 10.017C20.7149 9.73693 20.7077 9.48939 20.6752 9.29533C20.6278 9.01298 20.5964 8.81665 20.5697 8.66935C20.5576 8.60296 20.5478 8.55899 20.5414 8.53068C20.4758 8.37887 20.4237 8.28468 20.3773 8.22501C20.3361 8.17203 20.3187 8.16935 20.3187 8.16935C20.2192 8.13307 20.1854 8.11981 20.098 8.10587C19.9897 8.08869 19.7856 8.07027 19.3939 8.07853ZM8.00231 9.00431C7.94289 9.01361 7.90887 9.02361 7.83434 9.05216C7.82462 9.06749 7.81135 9.08885 7.7943 9.11954C7.78016 9.14501 7.7658 9.17213 7.74742 9.20646C7.73034 9.23837 7.70927 9.27848 7.68688 9.31876C7.53262 9.5962 7.45789 9.84222 7.40367 10.1508C7.35674 10.418 7.29488 10.9533 7.24938 11.725C7.2138 12.3286 7.19643 13.057 7.18688 13.5932C7.93707 12.8644 8.86043 11.9231 9.74352 11.0229C9.68982 10.9261 9.65054 10.8189 9.63121 10.7035C9.62491 10.6658 9.61893 10.6079 9.61656 10.5883C9.61194 10.55 9.60525 10.4985 9.59703 10.433C9.58062 10.3022 9.55593 10.1121 9.51989 9.86369C9.46626 9.49425 9.40967 9.33001 9.38121 9.2631C9.35639 9.20479 9.35783 9.215 9.265 9.07853C9.26176 9.07379 9.25852 9.06993 9.25621 9.06681C9.23744 9.06413 9.21274 9.0606 9.18199 9.05704C9.04799 9.04156 8.86622 9.02615 8.61364 9.00529C8.26592 8.9766 8.09016 8.99062 8.00231 9.00431ZM8.18004 1.11564C8.25526 1.11949 8.32816 1.1324 8.39781 1.15177C8.46969 1.13536 8.5446 1.1254 8.62145 1.1254C8.7205 1.1254 8.78959 1.12561 8.82653 1.12443C8.83757 1.12408 8.84354 1.12391 8.86656 1.12247C8.8927 1.12085 8.9285 1.11893 8.97789 1.11759L9.00035 1.11662H9.02379C9.16861 1.11935 9.42486 1.12169 9.69664 1.19767C9.99804 1.28194 10.26 1.43668 10.5043 1.6547C10.6762 1.80815 10.9795 2.08941 11.1918 2.5463C11.2852 2.74748 11.4222 3.03999 11.474 3.33829L11.4906 3.46622L11.5052 3.64884C11.51 3.72167 11.5137 3.80316 11.513 3.88322C11.5117 4.03787 11.4957 4.30112 11.3724 4.56876C11.2514 4.83143 11.027 5.20726 10.598 5.50822C10.2666 5.74067 9.84184 5.96769 9.32067 6.11857C9.11727 6.17744 8.80462 6.26514 8.48766 6.28556C8.14799 6.30744 7.59597 6.33979 7.0902 6.13517C6.93113 6.07083 6.38104 5.88506 6.05016 5.38615C5.83208 5.05724 5.59646 4.58383 5.59703 4.03263C5.59729 3.77751 5.58204 3.19328 5.84508 2.65665C5.93749 2.46797 6.15959 1.92567 6.69371 1.60978C6.92878 1.47084 7.16568 1.35156 7.38903 1.26603C7.58295 1.19177 7.87417 1.10006 8.18004 1.11564ZM8.35289 3.08829C8.29309 3.10199 8.23146 3.11031 8.16832 3.11271C8.15525 3.11654 8.13415 3.12298 8.10485 3.13419C8.02035 3.16655 7.90287 3.22238 7.76012 3.30412C7.75184 3.31811 7.74046 3.33771 7.72594 3.36564C7.70133 3.41298 7.67791 3.46217 7.64098 3.53751C7.63549 3.54871 7.62012 3.58743 7.60973 3.67814C7.59884 3.77337 7.5972 3.87863 7.59703 4.03458C7.59702 4.02323 7.59449 4.0391 7.61266 4.08732C7.62537 4.12104 7.64654 4.16219 7.67516 4.21134C7.68181 4.21443 7.68912 4.21832 7.69762 4.22208C7.73578 4.23895 7.77764 4.25635 7.8402 4.28165C7.84273 4.28249 7.87732 4.29405 7.96715 4.29923C8.06495 4.30484 8.18834 4.30051 8.35973 4.28947C8.43338 4.28466 8.55394 4.25847 8.76403 4.19767C9.04648 4.11591 9.27393 3.99373 9.44957 3.87052C9.47332 3.85386 9.49214 3.83349 9.51012 3.809C9.50967 3.80046 9.50982 3.79098 9.50914 3.78068C9.50701 3.74838 9.50368 3.71586 9.50035 3.67619C9.4987 3.6714 9.49702 3.66544 9.49449 3.65861C9.4738 3.60268 9.4379 3.51952 9.37731 3.38908C9.34113 3.31122 9.2887 3.25085 9.17223 3.14689C9.15911 3.13518 9.14883 3.12767 9.14196 3.12247C9.14073 3.12236 9.1394 3.12259 9.13805 3.12247C9.1101 3.12003 9.0742 3.11894 9.0111 3.11759C9.00499 3.1179 8.9986 3.11807 8.99059 3.11857C8.97097 3.11979 8.93578 3.12199 8.89 3.12345C8.81323 3.12589 8.7051 3.1254 8.62145 3.1254C8.52841 3.1254 8.43835 3.11206 8.35289 3.08829Z" fill="black"/>
</svg>
