<svg width="24" height="24" viewBox="0 0 24 24" fill="none" xmlns="http://www.w3.org/2000/svg">
<path d="M19.1689 15.9737C19.6308 15.671 20.2509 15.7999 20.5536 16.2618C20.8385 16.6966 20.7405 17.2705 20.3427 17.5889L20.3398 17.5918C20.3162 17.6106 20.2913 17.6287 20.2656 17.6455C20.2666 17.6449 20.2709 17.6426 20.2753 17.6397C20.2818 17.6353 20.2896 17.6299 20.2978 17.6241C20.314 17.6125 20.3275 17.6022 20.3368 17.5948L20.3105 17.6192C20.2429 17.6802 20.1091 17.8031 19.8408 18.0479C19.3596 18.4868 18.4466 19.3188 17.8564 19.8555C18.1478 19.843 18.4504 19.8289 18.7538 19.8164C19.3052 19.7942 19.771 20.2231 19.7939 20.7745C19.8164 21.3259 19.3872 21.7924 18.8359 21.8155C17.6896 21.8626 16.5931 21.9069 16.0243 21.9405C15.7127 21.9589 15.6352 21.9686 15.4941 21.9776C15.4718 21.979 15.3428 21.9895 15.2109 21.9717C15.1311 21.9609 14.9655 21.93 14.7909 21.8194C14.591 21.6924 14.4773 21.5238 14.4159 21.3955L14.3154 21.1856L14.3183 20.9532C14.3192 20.8793 14.3252 20.8103 14.33 20.7618C14.3349 20.7132 14.3412 20.6591 14.3456 20.6211C14.3558 20.5334 14.3618 20.4721 14.3632 20.419C14.3627 20.4092 14.3611 20.3865 14.3574 20.3457C14.3504 20.2707 14.3412 20.1917 14.3281 20.0616C14.3033 19.8161 14.2735 19.4816 14.2568 19.0371C14.2362 18.4898 14.2432 17.7552 14.245 17.4063C14.246 17.2268 14.2455 17.1425 14.245 17.1045C14.2117 16.6333 14.5166 16.1907 14.9902 16.0674C15.4911 15.9373 16.0031 16.2106 16.1796 16.6856L16.2099 16.7832L16.2314 16.8897C16.2463 16.9896 16.245 17.069 16.245 17.0791C16.2458 17.1376 16.246 17.2387 16.245 17.417C16.2435 17.7049 16.2427 18.1833 16.2499 18.6143C16.274 18.5925 16.2996 18.57 16.3261 18.5459C16.8887 18.0354 17.9531 17.062 18.4921 16.5704C18.7601 16.3259 18.8986 16.1999 18.9706 16.1348C18.9974 16.1106 19.0819 16.0308 19.1689 15.9737ZM16.6747 6.05082C17.6231 5.95954 18.3278 6.04905 18.7099 6.14066C19.309 6.28445 19.9056 6.50169 20.3339 6.78813C20.8456 7.13048 21.2028 7.52952 21.4365 7.83402C21.725 8.21019 21.902 8.54598 22.0136 8.84867C22.2092 9.37924 22.2624 10.0141 22.2665 10.5176C22.2702 10.9671 22.1899 11.3442 22.0419 11.6827C21.9047 11.9965 21.7187 12.2488 21.6015 12.4131C21.3081 12.8245 20.8894 13.0586 20.7538 13.1426C20.5328 13.2795 20.2901 13.3567 20.0429 13.4131C19.7944 13.4698 19.4795 13.5189 19.0761 13.5684C18.4434 13.646 17.3611 13.6481 16.9345 13.6661C16.8951 13.6677 16.8588 13.6694 16.8261 13.6709C16.7373 13.7768 16.6183 13.9214 16.4492 14.1163C15.9117 14.7353 14.8707 15.907 13.5595 17.1748C12.2525 18.4386 10.7173 19.7537 9.91985 20.4327C9.50809 20.7832 9.25163 20.9924 9.07806 21.1172C8.98995 21.1806 8.89034 21.2458 8.78021 21.2989C8.64612 21.3634 8.53738 21.39 8.47649 21.4034C8.28973 21.4442 8.10951 21.4758 7.67083 21.5489C7.25623 21.6179 6.51697 21.7094 6.04974 21.7598C5.5735 21.8112 5.22496 21.8189 4.93646 21.7881C4.63373 21.7558 4.41978 21.6785 4.3388 21.6543C3.62435 21.4413 3.07884 21.0856 2.78802 20.8204C2.09803 20.1907 1.89276 19.2091 1.80755 18.5791C1.69251 17.7283 1.81252 17.0713 1.87298 16.7989C1.97041 16.36 2.16277 15.9984 2.33685 15.7637C2.48731 15.561 2.69099 15.4407 2.75482 15.4024C2.85929 15.3396 2.9783 15.2784 3.09661 15.2217C3.33567 15.1072 3.64925 14.9731 4.00384 14.8252C4.43792 14.6442 4.75679 14.5842 5.38275 14.5127C5.6513 14.4821 5.9973 14.45 6.34271 14.419C6.34761 14.2713 6.35383 14.1912 6.35442 14.1807H6.35638C6.35863 14.1249 6.36219 14.0676 6.36517 14.0323C6.36963 13.9794 6.37541 13.9151 6.38177 13.8272C6.39443 13.6521 6.41077 13.3739 6.42571 12.9288C6.45003 12.204 6.47506 11.005 6.49407 10.3399C6.51164 9.72539 6.51761 9.5215 6.60149 9.22074C6.65601 9.0253 6.70987 8.83102 6.75872 8.67387C6.79361 8.56166 6.86698 8.32238 6.98626 8.13676L7.11517 7.93266C7.31106 7.64447 7.71894 7.15687 8.43939 6.94535C8.93534 6.79983 9.35405 6.75767 9.747 6.84965C9.88056 6.88091 10.1383 6.94044 10.4081 7.05277C10.674 7.16353 11.0251 7.35418 11.3036 7.69047C11.5519 7.9902 11.7571 8.23551 11.9023 8.43363C12.0145 8.58681 12.1275 8.75939 12.2109 8.96195L12.2392 9.04789C12.9671 8.31793 13.5243 7.82449 13.8554 7.53324L13.8593 7.53031C14.352 7.10065 14.4441 6.98374 14.5175 6.89652L14.5214 6.89164C14.6184 6.70877 14.7724 6.554 14.9736 6.45805C15.4063 6.25173 15.829 6.13226 16.6747 6.05082ZM18.2431 8.085C18.0878 8.04783 17.6061 7.97079 16.8661 8.04203C16.5076 8.07655 16.2931 8.11312 16.1503 8.14848C16.1156 8.15709 16.0841 8.16769 16.0546 8.1768C16.045 8.18742 16.0355 8.19865 16.0253 8.21C15.8772 8.38465 15.7008 8.57851 15.1738 9.03813C14.7712 9.39219 14.0309 10.0471 13.0478 11.085C12.051 12.1373 10.8399 13.5412 10.207 14.2725C9.55208 15.0292 9.56402 15.0098 9.48919 15.1094C9.36195 15.2788 9.25615 15.4304 9.16888 15.5557C9.12756 15.615 9.08384 15.6776 9.04681 15.7286C9.02801 15.7544 9.00461 15.7851 8.9804 15.8155C8.96117 15.8396 8.91785 15.8934 8.86028 15.9483C8.76761 16.0366 8.64707 16.121 8.49017 16.1797C8.38044 16.2207 8.27838 16.239 8.22259 16.2481C8.10303 16.2676 7.92682 16.2856 7.67376 16.3086C7.13253 16.3579 6.18797 16.4341 5.61028 16.5C5.05133 16.5638 4.95094 16.5973 4.77435 16.6709C4.4203 16.8186 4.14894 16.9353 3.96087 17.0254C3.93022 17.0401 3.90448 17.055 3.88177 17.0664C3.8593 17.1162 3.83931 17.173 3.8261 17.2325C3.79482 17.3734 3.71777 17.7764 3.78997 18.3106C3.87121 18.9114 4.01732 19.2347 4.13567 19.3428C4.20816 19.4089 4.48936 19.6128 4.91009 19.7383C5.06902 19.7857 5.07391 19.7908 5.14935 19.7989C5.23954 19.8084 5.4305 19.8151 5.83489 19.7715C6.29032 19.7224 6.98533 19.6348 7.34271 19.5752C7.67062 19.5206 7.82742 19.4924 7.93841 19.4707C8.0448 19.3915 8.24357 19.2332 8.62298 18.9102C9.42061 18.2311 10.9121 16.9516 12.1689 15.7364C13.4212 14.5255 14.4198 13.403 14.9384 12.8057C15.1978 12.5069 15.3313 12.346 15.4023 12.2588C15.4371 12.2161 15.4586 12.1895 15.4755 12.168C15.4854 12.1555 15.5239 12.1056 15.5702 12.0567L15.6318 11.9961C15.7029 11.9315 15.8027 11.8577 15.9365 11.7998C16.0736 11.7406 16.2005 11.7194 16.2714 11.709C16.4113 11.6887 16.6046 11.6784 16.8505 11.668C17.4552 11.6426 18.2999 11.6482 18.832 11.583C19.2169 11.5358 19.4518 11.4964 19.5986 11.4629C19.6655 11.4476 19.702 11.4352 19.7177 11.4297C19.8132 11.3707 19.865 11.3403 19.915 11.3028C19.9571 11.271 19.9709 11.2542 19.9726 11.252C20.1129 11.0552 20.1694 10.9713 20.2089 10.8809C20.2378 10.8148 20.268 10.7188 20.2665 10.5342C20.2631 10.1113 20.2143 9.74802 20.1376 9.54008C20.1002 9.4387 20.0251 9.2784 19.8505 9.05082C19.702 8.85721 19.4966 8.63417 19.2216 8.45023C19.0719 8.35017 18.7329 8.20257 18.2431 8.085ZM20.3593 17.5762C20.3585 17.5768 20.3569 17.5779 20.3554 17.5791L20.3574 17.5772C20.3584 17.5762 20.3597 17.5756 20.3603 17.5752L20.3593 17.5762ZM14.2665 17.2549L14.2743 17.2871C14.2685 17.2645 14.264 17.2414 14.2597 17.2188C14.2619 17.2308 14.2639 17.2432 14.2665 17.2549ZM9.30755 8.80082C9.27576 8.80206 9.18408 8.81211 9.00286 8.86527C8.87872 8.90176 8.83489 8.95936 8.70306 9.1641C8.69508 9.18625 8.68373 9.21983 8.66888 9.26762C8.63086 9.38992 8.58612 9.55038 8.52825 9.75785C8.52325 9.77578 8.52102 9.78368 8.52044 9.78617C8.52014 9.78785 8.51902 9.79944 8.51653 9.82914C8.50937 9.91491 8.50258 10.0647 8.4931 10.3965C8.47508 11.0267 8.44902 12.2725 8.42474 12.9961C8.42117 13.1024 8.41483 13.2 8.41107 13.2901C8.48994 13.1993 8.58392 13.0925 8.69524 12.9639C9.10477 12.4907 9.78169 11.7082 10.4902 10.917C10.4878 10.8887 10.4863 10.8601 10.4863 10.8311C10.4862 10.7542 10.4774 10.5546 10.4531 10.3164C10.4293 10.0848 10.3942 9.8668 10.3554 9.71488C10.3457 9.69865 10.326 9.66679 10.289 9.61625C10.1883 9.47883 10.0329 9.2922 9.76263 8.96586C9.75465 8.95931 9.7206 8.93327 9.63958 8.89945C9.54087 8.85835 9.43112 8.82997 9.30755 8.80082ZM9.06243 1.61723C9.38958 1.58646 9.86026 1.62737 10.3046 1.76371L10.4931 1.82816L10.6132 1.87406L10.7187 1.94828C10.9212 2.09226 11.134 2.29405 11.3036 2.57523C11.3625 2.6728 11.6493 3.09134 11.7626 3.64945C11.8282 3.97248 11.9776 4.66942 11.5937 5.29887C11.4503 5.53392 11.1789 5.89075 10.7011 6.11723C10.4303 6.24557 9.94907 6.458 9.31829 6.48051C9.10503 6.48811 8.88183 6.49247 8.67571 6.47953C8.48162 6.46733 8.22054 6.43607 7.96868 6.32914C7.77985 6.24897 7.38159 6.08043 7.06634 5.74809C6.8775 5.5489 6.66247 5.2668 6.53607 4.87309C6.44864 4.60053 6.37414 4.25361 6.40325 3.88285C6.42885 3.55754 6.53561 3.14643 6.8261 2.73441C6.89446 2.63746 6.99325 2.49264 7.07903 2.38188C7.1534 2.28588 7.31788 2.07893 7.56341 1.93852L7.67181 1.88188C7.92966 1.75819 8.20546 1.70048 8.40423 1.67289C8.54786 1.65298 8.7154 1.64238 8.88177 1.64652C8.92418 1.63769 8.97078 1.62906 9.02239 1.62211L9.04192 1.61918L9.06243 1.61723ZM9.18255 3.63773C9.0377 3.67378 8.8913 3.6747 8.75189 3.6475C8.7295 3.64921 8.70487 3.65084 8.67962 3.65434C8.65688 3.6575 8.63531 3.66225 8.61614 3.66605C8.60549 3.68083 8.59327 3.69804 8.58001 3.71684C8.56291 3.74107 8.54542 3.76717 8.52532 3.79594C8.50553 3.82427 8.48354 3.85559 8.46087 3.88773C8.43119 3.92987 8.41594 3.9635 8.40814 3.98637C8.40028 4.00949 8.39736 4.02773 8.39642 4.0391C8.39511 4.05579 8.39698 4.12644 8.44036 4.26176C8.44443 4.27442 8.45067 4.28641 8.45989 4.30082C8.4702 4.31684 8.48731 4.34024 8.51751 4.37211C8.50968 4.3639 8.5177 4.3739 8.56048 4.39848C8.59984 4.42106 8.65026 4.44382 8.72161 4.47465C8.73715 4.47696 8.7628 4.48103 8.80071 4.48344C8.90452 4.48995 9.04733 4.48957 9.247 4.48246C9.46295 4.47476 9.64455 4.40344 9.84271 4.30961C9.84141 4.29279 9.84132 4.27093 9.83782 4.24516C9.83055 4.19174 9.81906 4.12769 9.80267 4.04691C9.77427 3.90754 9.71186 3.80789 9.61517 3.64848C9.56629 3.63732 9.51498 3.62806 9.4638 3.62113C9.40816 3.61362 9.35786 3.60989 9.31732 3.60844C9.31193 3.60823 9.30653 3.60756 9.30169 3.60746C9.26285 3.61999 9.22302 3.63002 9.18255 3.63773Z" fill="black"/>
</svg>
