<svg width="24" height="24" viewBox="0 0 24 24" fill="none" xmlns="http://www.w3.org/2000/svg">
<path d="M13.5635 1.75004C14.2778 1.77767 14.7184 1.86298 15.1533 1.99808C15.5556 2.12309 15.9321 2.28397 16.2334 2.43754C16.557 2.60254 16.7931 2.76048 17.0645 2.98051C17.6126 3.42499 18.0357 3.87666 18.2774 4.2432C18.4435 4.49535 18.5504 4.76294 18.6738 5.15726C18.8035 5.57116 18.9626 6.19205 19.083 7.00199C19.2018 7.80044 19.277 8.76 19.3125 9.29301C19.3641 10.0667 19.2738 10.5143 19.1055 11.1036C18.9975 11.4816 18.807 11.8973 18.7041 12.125C18.544 12.4792 18.411 12.687 17.9395 13.2969C17.4611 13.9156 16.6509 14.9269 16.1651 15.6016C15.7094 16.2345 15.6246 16.4588 15.5557 16.6524C15.379 17.1486 15.3245 17.4757 15.2393 17.9034C15.1659 18.2716 15.015 18.8391 14.7803 19.502C14.5442 20.1688 14.2191 20.9168 13.9727 21.4209C13.601 22.1814 13.3215 22.5515 13.0938 22.7637C12.7917 23.0451 12.4426 23.2031 12.0957 23.2637C11.615 23.3475 10.9868 23.2609 10.375 23.1534C9.90836 23.0713 9.39399 22.8831 9.10451 22.7764C8.55347 22.5732 8.29133 22.4112 8.08303 22.2823L8.05861 22.2676L8.03518 22.251C7.8825 22.1441 7.65565 21.9694 7.51955 21.8565C7.34522 21.7119 7.27702 21.6322 7.20607 21.5479C6.85052 21.1253 6.90459 20.4943 7.32717 20.1387C7.74971 19.7835 8.38086 19.8375 8.73635 20.2598C8.76381 20.2924 8.75389 20.2814 8.74709 20.2745C8.75136 20.2784 8.76593 20.2908 8.79689 20.3164C8.89063 20.3942 9.05324 20.5201 9.15725 20.5948C9.23356 20.6419 9.29233 20.678 9.37404 20.7198C9.46393 20.7656 9.59453 20.8249 9.79689 20.8995C10.1118 21.0156 10.4595 21.1376 10.7207 21.1836C11.026 21.2373 11.2674 21.2712 11.4541 21.2871C11.5464 21.295 11.6185 21.2983 11.6719 21.2979C11.698 21.2977 11.7184 21.2961 11.7324 21.295L11.7334 21.294C11.7676 21.2548 11.9174 21.0715 12.1758 20.543C12.3946 20.0953 12.689 19.4183 12.8955 18.835C13.1033 18.2482 13.2264 17.7735 13.2783 17.5127C13.3576 17.1151 13.4375 16.6396 13.6719 15.9815C13.8168 15.5747 14.0008 15.1843 14.542 14.4327C15.0539 13.7218 15.9202 12.6388 16.3574 12.0733C16.5851 11.7788 16.6969 11.6246 16.7627 11.5235C16.8154 11.4426 16.839 11.3966 16.8819 11.3018C17.0014 11.0373 17.1229 10.7637 17.1826 10.5547C17.3076 10.1173 17.3495 9.90714 17.3174 9.42582C17.2826 8.90358 17.2118 8.01056 17.1055 7.29594C17.0009 6.59277 16.8645 6.07354 16.7647 5.75492C16.6592 5.41815 16.6191 5.36144 16.6074 5.34379C16.514 5.20209 16.2531 4.89781 15.8047 4.53422C15.631 4.39335 15.512 4.31402 15.3252 4.21879C15.1156 4.11196 14.8439 3.99659 14.5596 3.90824C14.3079 3.83007 14.0427 3.76962 13.4863 3.74808C12.8934 3.72518 12.0476 3.74771 11.461 3.80766C10.9013 3.86489 10.5945 3.95293 10.4336 4.00199C10.3328 4.03272 10.3403 4.03361 10.3604 4.02348C10.3694 4.01891 10.3706 4.01814 10.3565 4.02738C10.3392 4.03866 10.3121 4.05715 10.2637 4.09183C10.0695 4.23094 9.75638 4.46549 9.5176 4.6807C9.296 4.88051 9.13817 5.06303 8.97854 5.29008C8.81648 5.52061 8.65505 5.79169 8.44631 6.22562C8.19485 6.74842 7.95693 7.23622 7.87697 7.52445C7.69454 8.18281 7.67167 8.4443 7.66896 8.48051C7.66883 9.03259 7.22105 9.48037 6.66896 9.48051C6.11676 9.48051 5.6691 9.03268 5.66896 8.48051C5.669 8.26027 5.71553 7.83369 5.94924 6.99027C6.09008 6.48228 6.4408 5.78096 6.64357 5.35941C6.88894 4.84932 7.10456 4.47858 7.34279 4.13969C7.58327 3.79767 7.83899 3.50062 8.17873 3.19437C8.50164 2.90334 8.88735 2.61794 9.09963 2.46586C9.19854 2.395 9.31825 2.31005 9.45803 2.2393C9.60473 2.16512 9.74131 2.12194 9.84963 2.08891C10.1084 2.01002 10.5444 1.89133 11.2578 1.8184C11.9454 1.74813 12.885 1.72383 13.5635 1.75004ZM11.2979 10.9668C11.6923 10.5899 12.3174 10.5981 12.7012 10.9883C13.088 11.3821 13.083 12.0153 12.6895 12.4024C12.6773 12.4144 12.6585 12.432 11.5547 13.4727C10.4415 14.5223 8.20945 16.6268 6.86818 17.8633C5.51636 19.1095 5.12548 19.4215 4.70412 19.7803C4.29541 20.1284 3.85241 20.527 3.58986 20.7705C3.33417 21.0078 3.28615 21.0633 3.24611 21.1094C3.15463 21.2147 3.15034 21.2239 3.02248 21.3721C2.66175 21.7899 2.03038 21.836 1.61232 21.4756C1.19433 21.1148 1.14813 20.4836 1.50881 20.0655C1.55815 20.0083 1.68558 19.8574 1.73732 19.7979C1.84058 19.6791 1.94327 19.5693 2.22951 19.3037C2.50921 19.0443 2.97348 18.6263 3.40725 18.2569C3.82819 17.8984 4.19285 17.6094 5.51271 16.3926C6.84377 15.1655 9.06613 13.0703 10.1826 12.0176C10.74 11.4921 11.02 11.2289 11.1602 11.0967C11.2302 11.0307 11.2655 10.9973 11.2832 10.9805L11.2959 10.9678L11.2979 10.9668ZM12.2071 5.81937C12.5362 5.80225 12.9689 5.83255 13.3174 5.87601C14.0173 5.96336 14.4877 6.14091 14.7754 6.28226C15.1674 6.47505 15.4258 6.76537 15.6143 7.06449C15.7006 7.2014 15.7791 7.35198 15.8526 7.50687L16.0596 7.97562L16.0957 8.05863L16.1153 8.1475C16.1792 8.43215 16.2136 8.62859 16.2334 8.76957L16.2637 9.06058L16.2656 9.09183C16.2693 9.17222 16.2686 9.26252 16.2686 9.3223C16.2685 9.87449 15.8208 10.3223 15.2686 10.3223C14.7167 10.3219 14.2687 9.87424 14.2686 9.3223C14.2686 9.25803 14.2684 9.2192 14.2676 9.1934C14.2642 9.14623 14.2626 9.11683 14.2529 9.04789C14.2428 8.97548 14.2226 8.85888 14.1826 8.67387C14.062 8.39318 13.9881 8.23592 13.9219 8.1309C13.9006 8.09717 13.8857 8.07925 13.8779 8.07035C13.7711 8.01952 13.5172 7.91627 13.0694 7.86039C12.7791 7.8242 12.4753 7.80785 12.3106 7.81644C12.1377 7.82548 12.0341 7.83577 11.9697 7.84574C11.9488 7.849 11.935 7.85192 11.9278 7.85355C11.8528 7.88769 11.6846 7.97763 11.4922 8.18168C11.333 8.35052 11.2228 8.47136 11.1446 8.56742C11.074 8.65408 11.0601 8.68347 11.0654 8.67191C10.9326 8.99025 10.923 9.15213 10.9229 9.1768C10.9364 9.72862 10.5002 10.1873 9.94826 10.2012C9.39648 10.2148 8.93786 9.77842 8.92385 9.2266C8.91725 8.96393 8.95807 8.52267 9.22561 7.88676L9.30764 7.71879C9.39551 7.55817 9.50058 7.41813 9.59377 7.30375C9.7229 7.14529 9.87911 6.97719 10.0371 6.80961C10.4664 6.35438 10.8869 6.12457 11.1475 6.01176L11.2725 5.9639C11.5675 5.86245 11.8885 5.836 12.2071 5.81937ZM20.7354 1.65629C21.1668 1.3116 21.7959 1.3821 22.1406 1.81351C22.4852 2.24501 22.4149 2.87412 21.9834 3.21879C21.936 3.25664 21.902 3.28335 21.8789 3.30082L21.7578 3.42191C21.389 3.78252 20.9452 4.13784 20.7031 4.33891C20.5699 4.44962 20.4346 4.56353 20.252 4.70609C19.8167 5.04555 19.1885 4.96816 18.8487 4.53324C18.5089 4.09793 18.5863 3.46878 19.0215 3.12894C19.1742 3.00973 19.282 2.91944 19.4248 2.80082C19.7102 2.56373 20.0652 2.2789 20.3594 1.99125V1.99223C20.4147 1.93765 20.4463 1.90525 20.4717 1.87992C20.4927 1.85897 20.5303 1.82074 20.5762 1.78129L20.6358 1.73344C20.6495 1.72277 20.6641 1.71103 20.6719 1.70512C20.689 1.69216 20.7078 1.67833 20.7354 1.65629Z" fill="black"/>
</svg>
