<svg width="24" height="24" viewBox="0 0 24 24" fill="none" xmlns="http://www.w3.org/2000/svg">
<path d="M17.5817 13.3575C17.7667 12.8372 18.3388 12.5652 18.859 12.75C18.9658 12.788 19.0713 12.826 19.3746 12.9532C19.6664 13.0755 20.169 13.2925 20.4987 13.4483C21.0572 13.7122 21.3729 13.9801 21.6393 14.2246C22.2684 14.8023 22.4577 15.4478 22.5631 15.833C22.6541 16.1653 22.6935 16.5803 22.7096 17.0069C22.7267 17.4626 22.7059 17.993 22.6715 18.3692C22.6107 19.0337 22.4286 19.5127 22.2848 19.8877C22.1073 20.3504 21.8524 20.7053 21.6285 20.9707C21.313 21.3448 20.8686 21.5583 20.6901 21.6543C20.2464 21.8929 19.7563 21.9599 19.1295 22.0088C18.5805 22.0516 17.7313 22.0105 17.2438 21.9805C16.4428 21.9312 16.0197 21.7841 15.7076 21.6035L15.6344 21.5616L15.569 21.5069C15.2318 21.2261 15.0241 21.0173 14.7262 20.6367L14.7067 20.6114L14.6881 20.585C14.5974 20.4523 14.5545 20.3617 14.5192 20.2774C14.3057 19.7681 14.5451 19.1823 15.0543 18.9688C15.5433 18.7637 16.1017 18.9773 16.3346 19.4453C16.4927 19.6445 16.5945 19.7506 16.7555 19.8897C16.7692 19.8945 16.7863 19.9031 16.8092 19.9092C16.8978 19.9328 17.0672 19.966 17.3668 19.9844C17.8742 20.0156 18.5862 20.0449 18.9742 20.0147C19.5982 19.966 19.7056 19.9126 19.7428 19.8926C19.8815 19.818 19.9585 19.7775 20.0289 19.7325C20.0754 19.7027 20.0946 19.6851 20.0992 19.6807C20.2394 19.5145 20.348 19.3534 20.4176 19.1719C20.5514 18.8229 20.6452 18.56 20.6793 18.1866C20.7069 17.8844 20.7241 17.441 20.7106 17.0821C20.696 16.6938 20.6629 16.4657 20.6344 16.3614C20.5528 16.0631 20.4845 15.8799 20.2867 15.6983C20.1027 15.5293 19.9545 15.4025 19.6442 15.2559C19.3558 15.1196 18.8861 14.9173 18.6012 14.7979C18.3281 14.6834 18.2573 14.6591 18.1891 14.6348C17.6688 14.4497 17.3968 13.8777 17.5817 13.3575ZM6.25256 13.0235C6.80327 12.983 7.2832 13.3966 7.32385 13.9473C7.36429 14.4979 6.95063 14.9769 6.40002 15.0176C6.44645 15.0142 6.45081 15.0101 6.36682 15.0284C6.30266 15.0423 6.21246 15.0639 6.1012 15.0928C5.87908 15.1504 5.58725 15.2326 5.26624 15.334C5.01626 15.413 4.84659 15.5265 4.62561 15.7188C4.63403 15.7115 4.62968 15.7125 4.60999 15.7412C4.58687 15.7751 4.55528 15.8285 4.50452 15.9248C4.42456 16.0766 4.33279 16.2903 4.2467 16.5645C4.15956 16.8421 4.08408 17.1638 4.04163 17.4268C3.97029 17.8688 4.00518 18.0939 4.02014 18.1631C4.02017 18.163 4.02905 18.1975 4.06897 18.2754C4.10894 18.3534 4.16585 18.4479 4.2428 18.5655C4.28465 18.6294 4.35098 18.7004 4.58167 18.8565C4.65848 18.9084 4.83325 18.9976 5.09631 19.1065C5.32382 19.2007 5.58002 19.2829 5.78479 19.3389C5.95739 19.3861 6.05453 19.405 6.26624 19.419C6.51456 19.4354 6.88488 19.4409 7.12756 19.4385C7.25791 19.4372 7.34079 19.4265 7.39417 19.416C7.4071 19.4135 7.41932 19.4074 7.43127 19.4043C7.44163 19.3916 7.45479 19.3777 7.46838 19.3604C7.49968 19.3205 7.5331 19.2749 7.57483 19.2198C7.78919 18.8869 7.89627 18.7123 7.94983 18.6153C7.95905 18.5986 7.96465 18.5854 7.96936 18.5762C7.97002 18.5728 7.97148 18.5689 7.97229 18.5645C7.97487 18.5504 7.97736 18.538 7.98108 18.5176C8.08041 17.9748 8.6013 17.6152 9.14417 17.7139C9.68738 17.8131 10.0479 18.3338 9.94885 18.877C9.93844 18.934 9.9248 19.0106 9.90198 19.1006L9.89612 19.126C9.81681 19.4079 9.67314 19.6595 9.23987 20.3311L9.22034 20.3623L9.1969 20.3916C9.10187 20.5172 8.98622 20.6726 8.8717 20.7989C8.75839 20.9238 8.56579 21.1151 8.28186 21.2295C7.97436 21.3534 7.63363 21.4337 7.14709 21.4385C6.87446 21.4412 6.45003 21.4359 6.1344 21.4151C5.78269 21.3918 5.55329 21.3495 5.25745 21.2686C4.9936 21.1964 4.65498 21.088 4.33167 20.9541C4.04404 20.8351 3.71374 20.6833 3.46155 20.5127C3.17085 20.3161 2.83449 20.0652 2.56995 19.6612C2.40159 19.404 2.15859 19.0135 2.06604 18.5869C1.99106 18.2408 1.96262 17.7614 2.06799 17.1084C2.12576 16.7505 2.22249 16.3344 2.3385 15.9649C2.45552 15.5922 2.59129 15.2649 2.73499 14.9922C2.85165 14.7709 3.02134 14.464 3.31311 14.21C3.65324 13.914 4.06005 13.6175 4.6637 13.4268C5.01593 13.3155 5.34139 13.2232 5.59924 13.1563C5.81406 13.1006 6.08001 13.0363 6.25256 13.0235ZM9.57288 8.57913C9.71389 8.58791 9.89628 8.60661 10.1237 8.63577C10.4307 8.67518 11.0196 8.75454 11.5162 8.84866C12.024 8.94491 12.4273 9.05421 12.7867 9.17777C13.1558 9.30469 13.4746 9.4445 13.8678 9.67484C14.1072 9.81512 14.3834 9.99555 14.5953 10.1348C14.9459 9.91541 15.3722 9.65287 15.5924 9.47659C15.7548 9.3465 15.838 9.27252 15.8746 9.23831C16.0579 9.0125 16.3376 8.86737 16.651 8.86722C17.2031 8.86731 17.6509 9.31509 17.651 9.86722C17.651 10.0831 17.5791 10.2415 17.5651 10.2735C17.5384 10.3338 17.5105 10.3798 17.4938 10.4063C17.4595 10.4607 17.4258 10.5032 17.4049 10.5284C17.3609 10.5812 17.3135 10.6304 17.2692 10.6729C17.1779 10.7604 17.0435 10.8768 16.8434 11.0371C16.4741 11.333 15.7822 11.7506 15.5084 11.9239C15.352 12.0228 15.2329 12.0957 15.1432 12.1436C15.0992 12.167 15.0197 12.208 14.9215 12.2393C14.7868 12.2822 14.669 12.292 14.5787 12.291C14.3644 12.2886 14.1947 12.2264 14.067 12.1621C13.9744 12.1155 13.8715 12.0508 13.7643 11.9815C13.5176 11.822 13.1636 11.5816 12.8561 11.4014C12.5842 11.2422 12.3879 11.1559 12.1364 11.0694C11.8754 10.9797 11.5658 10.8935 11.1442 10.8135C10.9303 10.773 10.6903 10.7352 10.4664 10.7022C10.4706 10.7194 10.4748 10.737 10.4791 10.7549C10.7061 11.6946 11.1635 13.4543 11.4225 14.4326C11.4944 14.7044 11.5508 14.9096 11.5934 15.0664C11.9877 14.8674 12.4707 14.6662 12.9342 14.4981C13.5237 14.2843 14.1361 14.1204 14.6315 14.0518C15.363 13.9506 15.9473 14.05 16.3903 14.3418L16.5719 14.4795L16.733 14.6309C16.8996 14.7994 17.081 15.0146 17.2672 15.2471C17.5315 15.5772 17.8499 16.0168 18.0104 16.2325C18.0929 16.3434 18.1385 16.401 18.1647 16.4336C18.1915 16.4671 18.1942 16.4702 18.2291 16.5118C18.5848 16.9342 18.5314 17.5652 18.109 17.9209C17.6866 18.2763 17.0555 18.222 16.6998 17.7998C16.6481 17.7384 16.5953 17.6813 16.4059 17.4268C16.2202 17.1773 15.9406 16.7905 15.7057 16.4971C15.4931 16.2316 15.3609 16.0884 15.2946 16.0235C15.2464 16.0147 15.1275 16.0026 14.9059 16.0332C14.5882 16.0772 14.1168 16.1976 13.6168 16.3789C13.0956 16.568 12.6131 16.7779 12.3239 16.9414C12.113 17.0607 11.8076 17.2427 11.6823 17.3116C11.6149 17.3486 11.4761 17.4252 11.3248 17.4707C11.2598 17.4903 11.0631 17.5459 10.8199 17.5039C10.6813 17.4799 10.5079 17.421 10.3463 17.2901C10.1815 17.1564 10.0801 16.9896 10.025 16.834C9.92838 16.5605 9.84466 16.2349 9.82874 16.1817C9.7977 16.078 9.74992 15.9304 9.48889 14.9444C9.22956 13.9647 8.76726 12.1872 8.53479 11.2246C8.37183 10.5499 8.30275 10.2156 8.28479 9.97855L8.28186 9.77835C8.28181 9.7784 8.28112 9.7748 8.28088 9.76663C8.27955 9.72062 8.28157 9.78479 8.27991 9.72855C8.27942 9.71216 8.27862 9.68437 8.27893 9.65335C8.27932 9.61509 8.27936 9.45947 8.33948 9.28421C8.4155 9.06294 8.61682 8.74399 9.02795 8.6221L9.13245 8.59671C9.23243 8.57735 9.31662 8.57525 9.35706 8.57425C9.42906 8.57249 9.50322 8.57481 9.57288 8.57913ZM8.83655 1.51468C9.07756 1.50331 9.42158 1.48398 9.70471 1.52542C9.94609 1.5608 10.1425 1.60077 10.3004 1.64554C10.3982 1.67328 10.5929 1.73112 10.774 1.85843L10.8502 1.918L10.9254 1.98734C11.054 2.12048 11.1365 2.28312 11.1764 2.45413C11.3961 2.57893 11.5692 2.78577 11.6442 3.04788C11.6701 3.13876 11.704 3.25832 11.7184 3.41898L11.7223 3.46487V3.51175C11.7216 3.6967 11.7074 3.92059 11.6071 4.18265C11.5272 4.39104 11.4043 4.58467 11.2897 4.76077L11.2906 4.76175C11.1148 5.04313 10.6999 5.72159 10.3385 6.13187C10.1362 6.36152 9.91876 6.54845 9.67053 6.68265C9.4138 6.82138 9.17877 6.87407 8.99377 6.89945C8.64004 6.94787 8.30589 6.92284 7.98499 6.8555C7.69695 6.79503 7.39953 6.70131 7.19885 6.62015C6.99044 6.53586 6.70074 6.4161 6.42346 6.16507C6.27622 6.03176 6.03092 5.80163 5.86389 5.46683C5.74798 5.23444 5.593 4.86175 5.54358 4.43655C5.51691 4.20682 5.49386 3.81076 5.67932 3.34769C5.80818 3.0261 6.06297 2.60691 6.45471 2.23734C6.66871 2.03551 6.88655 1.87924 7.1803 1.77347L7.33557 1.72073C7.50024 1.66904 7.69945 1.62136 7.97717 1.58792C8.19348 1.5619 8.53033 1.52913 8.83655 1.51468ZM8.9303 3.51175C8.68585 3.52329 8.39928 3.55115 8.21545 3.57327C8.11191 3.58576 8.04412 3.59976 7.99768 3.61136C7.95757 3.6214 7.92212 3.63239 7.87659 3.64847C7.86748 3.65586 7.85093 3.66964 7.82678 3.69241C7.65765 3.85209 7.5627 4.02462 7.53577 4.09183C7.52855 4.10997 7.5267 4.12172 7.526 4.13089C7.52511 4.14291 7.52585 4.16272 7.53088 4.20609C7.53635 4.25274 7.54928 4.31315 7.57288 4.38284C7.59515 4.4486 7.62312 4.51179 7.65002 4.56644C7.65197 4.56899 7.65562 4.57321 7.66077 4.57913C7.67959 4.60077 7.71005 4.63178 7.76624 4.68265L7.76721 4.68362C7.7679 4.6841 7.77258 4.68689 7.78284 4.69241C7.80932 4.70663 7.85231 4.72661 7.94885 4.76566C8.03831 4.80184 8.2223 4.861 8.39612 4.89749C8.53693 4.92703 8.63663 4.9297 8.72229 4.918C8.7243 4.91772 8.72645 4.91729 8.72815 4.91702C8.74481 4.90434 8.78121 4.87351 8.83752 4.8096C9.0637 4.55281 9.37779 4.04869 9.59436 3.70218L9.59924 3.69437L9.6051 3.68558C9.64062 3.63113 9.66636 3.58763 9.68713 3.55374C9.62895 3.54077 9.54082 3.5234 9.41467 3.50491C9.41368 3.50482 9.40979 3.50446 9.40393 3.50394C9.39699 3.50332 9.38714 3.50258 9.37463 3.50198C9.3485 3.50075 9.31415 3.49969 9.27014 3.50003C9.17888 3.50075 9.06966 3.50518 8.9303 3.51175Z" fill="black"/>
</svg>
