<svg width="24" height="24" viewBox="0 0 24 24" fill="none" xmlns="http://www.w3.org/2000/svg">
<path d="M15.6086 1.87467C15.8103 1.72617 16.1397 1.59189 16.5324 1.70866C16.8593 1.80591 17.0386 2.03293 17.0861 2.09342C17.1998 2.23837 17.2937 2.43066 17.34 2.52311C17.4688 2.78 17.6486 3.15385 17.9689 3.68326C18.1557 3.99202 18.3259 4.21015 18.4543 4.35319C18.493 4.39635 18.5291 4.43023 18.5578 4.45866C18.6215 4.46344 18.7021 4.46847 18.8058 4.47428C19.2665 4.50008 20.0643 4.52273 20.5343 4.54166C21.0937 4.56422 21.3274 4.61716 21.5822 4.68522C21.8834 4.76572 22.1829 4.98354 22.3195 5.3483C22.3719 5.48849 22.3842 5.61096 22.3879 5.68034C22.3913 5.7457 22.3883 5.80405 22.3879 5.81315C22.3729 6.15879 22.2644 6.59044 22.2033 6.83366C22.0934 7.2711 21.8672 8.08132 21.757 8.49772C21.6463 8.91577 21.489 9.16568 21.3722 9.35026C21.1466 9.70671 20.8255 9.8638 20.6349 9.94401C20.5432 9.98258 20.4404 10.0189 20.3674 10.0456C20.2856 10.0755 20.2067 10.1054 20.1203 10.1413C20.0435 10.1731 19.969 10.1996 19.9006 10.2243C19.8894 10.305 19.8773 10.3948 19.8634 10.4967C19.8278 10.7587 19.8109 11.0223 19.7746 11.4079C19.7412 11.7623 19.7036 12.1346 19.5675 13.611C19.4317 15.0852 19.1987 17.6575 19.0734 19.0046C18.943 20.4063 18.9195 20.5322 18.9025 20.6589C18.8435 21.0983 18.5814 21.3797 18.4064 21.5299C18.2407 21.6721 18.0391 21.7917 17.9035 21.8727C17.3643 22.1945 16.5509 22.3995 15.9611 22.5485C15.6344 22.631 15.4097 22.6609 15.2531 22.6745C14.8716 22.7074 14.5939 22.5315 14.4513 22.4059C14.315 22.2858 14.2311 22.1537 14.1857 22.0739C14.0923 21.9095 14.0257 21.7213 13.9757 21.5612C13.8705 21.2242 13.761 20.7487 13.6418 20.1628C13.5042 19.4866 13.4235 18.731 13.3781 18.3483C13.3148 17.8143 13.3109 17.6525 13.2834 17.401C13.2565 17.3852 13.2274 17.3666 13.1945 17.3473C13.062 17.2696 12.8891 17.1692 12.6759 17.0417C12.0404 16.6615 10.8912 16.022 10.1154 15.6188C10.0931 15.7443 10.0681 15.8874 10.0422 16.0505C9.90887 16.8886 9.74396 18.1488 9.62907 18.9245C9.54479 19.4934 9.45421 19.8879 9.35075 20.1862C9.23634 20.5158 9.11376 20.7013 9.03825 20.818C8.68539 21.3633 8.09681 21.4731 7.81266 21.5133C7.53154 21.5532 7.08246 21.57 6.80485 21.5924C6.29228 21.634 5.59434 21.6437 5.23259 21.6501C4.76286 21.6584 4.53342 21.6433 4.30485 21.5973C4.21826 21.5799 4.05393 21.5363 3.88591 21.4118C3.72131 21.2897 3.62445 21.1431 3.56852 21.0309C3.47692 20.847 3.45116 20.661 3.44059 20.5817C3.41376 20.3798 3.39723 20.0606 3.382 19.5671C3.35055 18.5473 3.32554 16.574 3.31559 15.3503C3.3056 14.12 3.31122 13.6865 3.31169 13.4469C3.31214 13.2126 3.30796 13.2019 3.30192 12.8151C3.29628 12.4536 3.29087 11.7871 3.28923 11.3161C3.28743 10.8036 3.27642 10.554 3.26286 10.4245C3.26236 10.4201 3.26134 10.4156 3.26091 10.4118C3.21098 10.3296 3.15915 10.2445 3.11247 10.1725C3.0811 10.1242 3.0548 10.0849 3.0363 10.0583C3.03299 10.0535 3.02973 10.0497 3.02751 10.0465C3.01009 10.0272 2.9919 10.008 2.9738 9.98795C2.95462 9.9667 2.93711 9.94393 2.92009 9.92155C2.88712 9.90195 2.85405 9.88514 2.82243 9.86588C2.47233 9.65268 1.5966 9.0086 1.10173 8.57584C0.686157 8.21232 0.643663 7.58041 1.007 7.16471C1.37057 6.7494 2.00253 6.70669 2.41813 7.06998C2.84284 7.4414 3.62669 8.01427 3.86247 8.15787C4.00018 8.24173 4.14107 8.3296 4.70915 8.59147C4.83151 8.64785 4.95371 8.69397 5.16716 8.74186C5.35234 8.78339 5.64787 8.83187 6.56462 8.84635C7.48794 8.86091 8.9745 8.83965 9.8361 8.81803C10.6789 8.79688 10.8444 8.77714 11.1359 8.75455C11.8689 8.69776 12.4674 8.65065 12.7648 8.611C12.8558 8.59887 12.9458 8.59161 13.0285 8.58366C13.1219 8.34559 13.24 8.03654 13.3947 7.63737C13.6903 6.87485 13.9803 6.31639 14.091 6.05729C14.2342 5.72175 14.4926 5.05777 14.6935 4.43229C14.8909 3.81771 15.0229 3.24758 15.1037 2.89909C15.1418 2.73458 15.171 2.60609 15.1945 2.5192C15.2056 2.4782 15.2257 2.40692 15.256 2.33268C15.2837 2.26491 15.3597 2.09302 15.5304 1.93912L15.6086 1.87467ZM14.5207 10.0866C14.4893 10.1287 14.4322 10.1994 14.3498 10.2702C14.2766 10.3329 14.1052 10.4634 13.8459 10.5065C13.6965 10.5313 13.5322 10.5447 13.4084 10.5553C13.2701 10.5672 13.1496 10.5774 13.0295 10.5934C12.6624 10.6424 11.9913 10.6944 11.2902 10.7487C10.9774 10.7729 10.7754 10.7948 9.88688 10.8171C9.01666 10.8389 7.49691 10.8616 6.53239 10.8464C5.97108 10.8375 5.5833 10.8138 5.28239 10.7809C5.28584 10.9371 5.28853 11.1119 5.28923 11.3092C5.29085 11.7742 5.29644 12.4322 5.30192 12.7839C5.307 13.1087 5.31217 13.1988 5.31169 13.4508C5.3112 13.6988 5.30571 14.1168 5.31559 15.3337C5.32554 16.5575 5.35035 18.5109 5.38102 19.5055C5.38254 19.5545 5.38441 19.6015 5.38591 19.6452C5.76824 19.6383 6.27329 19.6292 6.64274 19.5993C6.84448 19.5829 7.03711 19.5722 7.18473 19.5631C7.29976 19.5561 7.38755 19.5471 7.45817 19.5397C7.45923 19.5369 7.46107 19.5338 7.46208 19.5309C7.5076 19.3996 7.57491 19.1421 7.65056 18.6315C7.75501 17.9264 7.93445 16.574 8.06755 15.737C8.20481 14.8739 8.30476 14.4663 8.38981 14.1852L8.44352 14.029C8.4784 13.9434 8.53229 13.8343 8.60954 13.7331C8.84096 13.43 9.17908 13.2899 9.50993 13.2858C9.75808 13.2829 9.98007 13.3556 10.1203 13.4079C10.2808 13.4678 10.4633 13.5519 10.6652 13.652C11.4593 14.0457 12.9336 14.8654 13.7033 15.3258C14.0776 15.5497 14.3858 15.7244 14.5558 15.8346C14.688 15.9203 15.0773 16.1621 15.1955 16.654L15.216 16.7555L15.2629 17.1139C15.3021 17.4551 15.3211 17.7555 15.3634 18.113C15.4131 18.5315 15.4847 19.188 15.6017 19.7633C15.6645 20.0716 15.7207 20.3258 15.7697 20.5309C16.3004 20.3912 16.6804 20.2729 16.8781 20.1549C16.9068 20.1378 16.9323 20.1211 16.9552 20.1071C16.9777 19.9011 17.0153 19.5288 17.0812 18.82C17.2066 17.472 17.4389 14.9093 17.5754 13.4274C17.6777 12.3165 17.7249 11.8234 17.756 11.5006C17.6546 11.4824 17.5517 11.4554 17.4132 11.4098C17.1976 11.3388 16.8576 11.215 16.3302 10.9655C15.8545 10.7404 15.1207 10.3864 14.6554 10.0846C14.6234 10.0639 14.5931 10.0422 14.5627 10.0221C14.5491 10.0429 14.5364 10.0654 14.5207 10.0866ZM16.5549 5.16959C16.3404 5.82072 16.0846 6.48005 15.9299 6.84244C15.7244 7.32353 15.5988 7.52246 15.3507 8.13639C15.4503 8.20924 15.5781 8.29909 15.7443 8.4069C16.0768 8.62253 16.6828 8.91992 17.1857 9.15787C17.5906 9.34944 17.8444 9.44154 17.9924 9.49186C18.0101 9.40321 18.0368 9.2879 18.0793 9.17545C18.1036 9.11112 18.1468 9.01024 18.2199 8.90494C18.2907 8.80308 18.4347 8.63241 18.6808 8.52799L18.8781 8.4567C18.9239 8.44199 18.9942 8.42016 19.0363 8.4069C19.1396 8.37432 19.2446 8.3389 19.3537 8.29362C19.4811 8.24074 19.5935 8.19958 19.6808 8.16764C19.7158 8.15482 19.7441 8.14317 19.7677 8.13444C19.7688 8.13259 19.7707 8.13046 19.7716 8.12858C19.7861 8.09915 19.8045 8.05736 19.8234 7.986C19.934 7.56804 20.1004 6.96515 20.214 6.53092C19.7598 6.5146 19.0942 6.49373 18.6945 6.47135C18.4676 6.45864 18.2753 6.4455 18.1261 6.4235C17.9619 6.39923 17.7391 6.34997 17.5177 6.19596C17.2921 6.03881 16.9394 5.71025 16.5549 5.16959ZM5.97282 2.0319C6.49176 1.84393 7.06567 2.11266 7.25407 2.63151L7.48161 3.23795L7.48649 3.24967L7.4904 3.26139C7.51434 3.33117 7.5274 3.3657 7.54313 3.39909C7.55787 3.43032 7.58283 3.47582 7.63005 3.55241C7.86923 3.86916 8.09926 4.13723 8.52556 4.40299C8.91746 4.64722 9.5363 4.99631 10.0646 5.23991C10.5954 5.48461 11.0202 5.62795 11.2316 5.68522C11.5302 5.76609 11.6964 5.7972 11.9914 5.86295C12.5302 5.98308 12.8699 6.5175 12.7502 7.05631C12.63 7.59525 12.0957 7.93501 11.5568 7.8151C11.2994 7.75773 11.0649 7.71127 10.7091 7.61491C10.3769 7.52492 9.8468 7.34173 9.2277 7.05631C8.60593 6.76964 7.91223 6.37811 7.46794 6.10123C6.71756 5.63361 6.31082 5.1273 6.00016 4.71256L5.97575 4.68034L5.95427 4.64616C5.76833 4.35059 5.68593 4.15848 5.60759 3.93326C5.57256 3.83904 5.46768 3.57345 5.37321 3.31315C5.18521 2.79415 5.45387 2.22024 5.97282 2.0319Z" fill="black"/>
</svg>
