<svg width="24" height="24" viewBox="0 0 24 24" fill="none" xmlns="http://www.w3.org/2000/svg">
<path d="M5.28723 3.19048C5.66139 3.18622 6.1414 3.19702 6.70129 3.22368C6.89817 3.23306 7.88366 3.23223 8.98059 3.23052C10.0443 3.22886 11.1834 3.22672 11.6202 3.23637H11.6613L11.7023 3.24126C11.7023 3.24125 11.7199 3.24304 11.7638 3.24516C11.8054 3.24717 11.8602 3.24912 11.9269 3.25102C12.06 3.25482 12.2317 3.25813 12.4327 3.26079C12.8354 3.2661 13.3428 3.26864 13.8663 3.27153C14.8961 3.27722 16.0229 3.2821 16.4747 3.3018C17.2174 3.33419 18.6978 3.37707 19.4581 3.42095C19.852 3.44368 20.2842 3.46927 20.6349 3.5479C20.9247 3.61289 21.4957 3.78421 21.7784 4.3477L21.8312 4.46587L21.8966 4.66509C21.9587 4.89485 22.0203 5.26009 22.1622 6.13774C22.3522 7.31238 22.7171 9.56896 22.9005 11.0157C23.0875 12.4909 23.0918 13.1503 23.046 13.9229C23.0045 14.624 22.9373 15.454 22.8546 15.9561C22.7596 16.5333 22.6304 17.1918 22.5197 17.7637C22.4333 18.2094 22.3494 18.6311 22.2618 18.9639C22.2181 19.1301 22.1657 19.3021 22.1017 19.4581C22.0492 19.5859 21.9401 19.8293 21.7267 20.0245C21.32 20.3963 20.8065 20.6066 20.2091 20.6573C20.0732 20.6688 19.9575 20.6744 17.1163 20.6915C14.2383 20.7087 8.69881 20.7363 5.90539 20.7364C4.5156 20.7364 3.78702 20.7307 3.40246 20.7178C3.22861 20.712 3.05906 20.7034 2.922 20.6778C2.85999 20.6662 2.6921 20.6332 2.51868 20.5225C2.27198 20.365 2.16454 20.1535 2.12219 20.0547C2.0559 19.9001 2.02167 19.7048 2.00696 19.6241C1.98317 19.4936 1.95756 19.328 1.93078 19.1368C1.87693 18.7519 1.81534 18.2334 1.75305 17.6182C1.72721 17.363 1.71042 17.1663 1.69348 16.9717C1.67661 16.778 1.65905 16.5831 1.63196 16.3204C1.57579 15.7758 1.47788 14.9422 1.45325 13.5411C1.42895 12.1582 1.47434 10.2773 1.52942 9.07915C1.58523 7.86525 1.65036 7.34601 1.68176 7.04302C1.69513 6.91406 1.7002 6.83072 1.70422 6.75884C1.70811 6.68932 1.71192 6.59167 1.72473 6.47954C1.75379 6.22527 1.78919 5.79901 1.88 5.41509C1.97362 5.01947 2.15719 4.51191 2.58996 4.11528C2.75143 3.96736 2.91947 3.88096 3.01965 3.83305C3.06957 3.80919 3.12171 3.78674 3.15149 3.77348C3.18683 3.75776 3.20747 3.74786 3.22473 3.7393C3.34482 3.67976 3.67848 3.45319 4.3468 3.27446C4.59554 3.20795 4.96284 3.19418 5.28723 3.19048ZM4.93371 5.20317C4.8461 5.20953 4.82558 5.21547 4.84485 5.21098C4.64341 5.26589 4.5265 5.3159 4.44836 5.35356C4.40448 5.37473 4.36432 5.3963 4.31262 5.42485C4.2669 5.4501 4.19153 5.49256 4.1134 5.5313C4.05579 5.55986 4.00148 5.58395 3.96399 5.60063C3.94676 5.6083 3.93318 5.61418 3.922 5.61919C3.89944 5.65462 3.86129 5.72808 3.82629 5.87602C3.77128 6.10868 3.75271 6.35126 3.71203 6.70708C3.7074 6.74776 3.7065 6.77712 3.70129 6.87016C3.69617 6.9616 3.68867 7.07877 3.67102 7.24907C3.64038 7.54474 3.58053 8.01762 3.52746 9.17192C3.47367 10.3424 3.42992 12.178 3.45325 13.5059C3.47626 14.8151 3.56555 15.5756 3.62121 16.1153C3.64999 16.3943 3.66854 16.6022 3.68567 16.7989C3.70273 16.9949 3.71811 17.178 3.74231 17.417C3.7955 17.9423 3.84829 18.3861 3.89368 18.7256C4.30357 18.7311 4.93408 18.7364 5.90539 18.7364C8.69217 18.7363 14.2264 18.7097 17.1046 18.6924C20.0173 18.675 20.0074 18.6679 20.0402 18.6651C20.1527 18.6555 20.2262 18.6336 20.2726 18.6143C20.2747 18.6134 20.2764 18.6113 20.2784 18.6104C20.2912 18.5702 20.3102 18.52 20.3273 18.4551C20.3951 18.1972 20.4672 17.8412 20.5558 17.3838C20.669 16.799 20.7917 16.1735 20.881 15.6309C20.9451 15.2414 21.0085 14.5041 21.0499 13.8047C21.0871 13.1771 21.0906 12.6438 20.9161 11.2676C20.738 9.86247 20.3795 7.64398 20.1876 6.45708C20.1088 5.96982 20.0558 5.66599 20.0206 5.47075C19.9781 5.46536 19.9298 5.45931 19.8751 5.45415C19.7254 5.44002 19.5512 5.42906 19.3429 5.41704C18.5904 5.37362 17.1991 5.33528 16.3868 5.29985C15.9844 5.28233 14.9164 5.2774 13.8546 5.27153C12.9345 5.26645 11.9504 5.25875 11.5763 5.23442V5.2354C11.1703 5.22642 10.0662 5.22883 8.98352 5.23052C7.93407 5.23215 6.86852 5.2332 6.60657 5.22075C6.07237 5.19531 5.63395 5.1868 5.31067 5.19048C5.14855 5.19232 5.02318 5.19668 4.93371 5.20317ZM6.68176 15.1602C8.04186 15.185 10.7583 15.2342 13.5568 15.2852C14.1087 15.2953 14.5479 15.7509 14.5382 16.3028C14.5281 16.8549 14.0728 17.2952 13.5206 17.2852C10.7219 17.2342 8.00468 17.184 6.64465 17.1592C5.96558 17.1469 5.62456 17.1408 5.45325 17.1377C5.36836 17.1362 5.32474 17.1352 5.30286 17.1348H5.29602C4.7439 17.1346 4.29602 16.687 4.29602 16.1348C4.29618 15.5828 4.744 15.135 5.29602 15.1348C5.31177 15.1348 5.33378 15.1356 6.68176 15.1602ZM18.4122 14.8643C18.9643 14.8554 19.4197 15.2957 19.4288 15.8477C19.4377 16.3997 18.9974 16.8551 18.4454 16.8643C17.9153 16.8729 17.3989 16.8806 17.1144 16.8848C16.8295 16.889 16.773 16.8897 16.715 16.8897C16.1628 16.8897 15.7151 16.4419 15.715 15.8897C15.715 15.3374 16.1627 14.8897 16.715 14.8897C16.7581 14.8897 16.8031 14.8899 17.0851 14.8858C17.3676 14.8816 17.8814 14.8729 18.4122 14.8643ZM12.1017 11.17C12.1598 11.1743 12.224 11.1817 13.254 11.1856C14.2735 11.1895 16.2111 11.1895 18.2111 11.1895C18.7632 11.1896 19.2109 11.6374 19.2111 12.1895C19.2109 12.7416 18.7632 13.1894 18.2111 13.1895C16.2134 13.1895 14.2705 13.1895 13.2462 13.1856C12.235 13.1818 12.0958 13.1748 11.9532 13.1641C11.4028 13.1229 10.9896 12.6433 11.0304 12.0928C11.0716 11.5422 11.5511 11.129 12.1017 11.17ZM8.62512 10.6954C9.1766 10.6684 9.64579 11.0941 9.67297 11.6456C9.69992 12.1972 9.2744 12.6665 8.72278 12.6934C7.8925 12.734 7.07814 12.774 6.5675 12.794C6.04817 12.8143 5.83992 12.8145 5.63391 12.8145C5.08184 12.8144 4.63417 12.3665 4.63391 11.8145C4.63413 11.2624 5.08182 10.8146 5.63391 10.8145C5.81782 10.8145 5.99975 10.8141 6.48938 10.795C6.98783 10.7755 7.79004 10.7361 8.62512 10.6954Z" fill="black"/>
</svg>
