<svg width="24" height="24" viewBox="0 0 24 24" fill="none" xmlns="http://www.w3.org/2000/svg">
<path d="M17.7074 13.5978C18.0187 13.6407 18.3679 13.6956 18.556 13.7365C18.9844 13.8297 19.2135 14.1336 19.307 14.2834C19.4107 14.4496 19.4732 14.6256 19.513 14.7609C19.5948 15.0386 19.6484 15.38 19.6898 15.7228C19.7171 15.9489 19.7089 16.1942 19.6996 16.4084C19.6888 16.6541 19.6741 16.8863 19.6625 17.2189C19.6391 17.8883 19.6067 18.8013 19.5921 19.299C19.583 19.8225 19.5902 20.0903 19.598 20.4445L19.6048 20.5744C19.6076 20.6187 19.6111 20.674 19.6146 20.756C19.6383 21.3078 19.2094 21.7744 18.6576 21.798C18.1061 21.8214 17.6403 21.3935 17.6166 20.842C17.614 20.7821 17.6106 20.7452 17.6078 20.6994C17.6047 20.6497 17.6018 20.5945 17.599 20.5129V20.5002C17.591 20.1346 17.5818 19.831 17.5921 19.2511L17.5931 19.2404C17.5972 19.1011 17.6035 18.93 17.6097 18.7414C17.5123 18.7506 17.4076 18.7619 17.3275 18.7677L17.3138 18.7687H17.3002C17.2078 18.7729 17.0708 18.7907 16.7679 18.8205C16.4927 18.8475 16.138 18.8775 15.7054 18.8957C15.3321 18.9113 15.0328 18.9266 14.807 18.9367C14.805 19.6395 14.8021 20.3937 14.8002 21.1564C14.7987 21.7087 14.3495 22.1549 13.7972 22.1535C13.2453 22.1517 12.7989 21.7035 12.8002 21.1515C12.8056 19.0147 12.8106 16.9357 12.8177 15.8713C12.8212 15.3466 12.8259 15.0489 12.8334 14.8771C12.8377 14.7745 12.8373 14.4732 13.0179 14.1896L13.0609 14.1213L13.1146 14.0607C13.2712 13.8852 13.4489 13.8057 13.5248 13.7746C13.6174 13.7367 13.7029 13.7143 13.763 13.7013C13.8845 13.6752 14.007 13.6637 14.1019 13.6574C14.2956 13.6445 14.5047 13.6474 14.6556 13.6584C15.2063 13.6982 15.6201 14.177 15.5804 14.7277C15.5483 15.1716 15.2309 15.5249 14.8207 15.6252C14.82 15.7034 14.8184 15.79 14.8177 15.8849C14.8158 16.1673 14.8155 16.5223 14.8138 16.9308C15.042 16.9208 15.3146 16.9105 15.6214 16.8976C16.0046 16.8816 16.3191 16.854 16.5716 16.8293C16.7837 16.8084 17.0203 16.7827 17.183 16.7736C17.3374 16.7624 17.5107 16.7416 17.682 16.7267C17.6898 16.5661 17.6969 16.4258 17.7015 16.3205C17.7112 16.0993 17.7096 16.0064 17.7045 15.963C17.6878 15.8248 17.6689 15.7076 17.6527 15.6105C17.5827 15.6 17.5088 15.5886 17.4339 15.5783C16.887 15.5027 16.505 14.9983 16.5804 14.4513C16.656 13.9045 17.1605 13.5225 17.7074 13.5978ZM10.6625 7.38492C10.8103 7.35096 11.0645 7.3243 11.3373 7.43668L11.4554 7.4943L11.5912 7.57926C11.678 7.63869 11.7573 7.70363 11.8285 7.77164L11.93 7.87516L12.0384 8.01285C12.0697 8.05648 12.095 8.09444 12.1078 8.11344C12.1564 8.18569 12.2045 8.25819 12.2728 8.35856C12.4033 8.55029 12.5872 8.81282 12.8382 9.13297C13.096 9.46158 13.333 9.73168 13.5629 9.92985C14.1615 10.4457 14.4428 10.6406 14.6283 10.7121C15.1901 10.9283 15.6266 11.0427 15.8236 11.0519C15.9036 11.0556 15.9508 11.0566 15.9769 11.0568C15.9897 11.0569 15.9997 11.0569 16.0082 11.0568C16.0111 11.0568 16.0358 11.0558 16.0521 11.0558C16.6043 11.0558 17.0519 11.5037 17.0521 12.0558C17.0521 12.6081 16.6044 13.0558 16.0521 13.0558C16.0497 13.0558 16.0447 13.0557 16.0355 13.0558C16.0181 13.0561 15.995 13.057 15.9662 13.0568C15.9084 13.0565 15.8334 13.0547 15.7308 13.05C15.1818 13.0244 14.48 12.7979 13.9095 12.5783C13.3471 12.3617 12.8117 11.9233 12.2572 11.4455C11.8791 11.1196 11.5479 10.728 11.265 10.3673C11.0633 10.1102 10.8996 9.88348 10.7679 9.69645C10.753 9.70944 10.7376 9.72292 10.722 9.73649C10.5697 9.86888 10.3945 10.0194 10.2045 10.173C9.98144 10.3533 9.69159 10.6092 9.43199 10.8097C9.12318 11.0483 8.82176 11.258 8.39781 11.6183C7.97637 11.9766 7.46484 12.4619 7.18102 12.7345C6.99982 12.9086 6.8512 13.0653 6.73668 13.1925C6.76683 13.2568 6.81107 13.3452 6.8734 13.4621C6.99423 13.6887 7.13831 13.9416 7.31383 14.2589C7.52509 14.6409 7.6151 14.9474 7.68883 15.3498C7.7107 15.4695 7.72 15.6416 7.72594 15.7609C7.73348 15.9126 7.74081 16.1067 7.74742 16.3273C7.76069 16.7699 7.77218 17.3386 7.78258 17.9298C7.80338 19.1132 7.81857 20.4023 7.82359 20.9914C7.82818 21.5435 7.38359 21.9945 6.83141 21.9992C6.27937 22.0036 5.8283 21.5601 5.82359 21.008C5.81861 20.4236 5.80423 19.141 5.78355 17.965C5.77321 17.3765 5.7613 16.8171 5.7484 16.3869C5.74194 16.1715 5.73447 15.9919 5.72789 15.8595C5.71975 15.696 5.71517 15.6727 5.72203 15.7101C5.67596 15.4587 5.64346 15.3717 5.56383 15.2277C5.40617 14.9426 5.23852 14.6468 5.10875 14.4035C4.98529 14.172 4.84615 13.897 4.76988 13.6476C4.75223 13.59 4.7044 13.4424 4.67906 13.3361C4.66434 13.2743 4.64115 13.1682 4.63805 13.0431C4.635 12.9176 4.64957 12.7033 4.77184 12.4787L4.85289 12.3449C4.94378 12.2094 5.06037 12.0684 5.16832 11.9445C5.33175 11.757 5.54344 11.5341 5.79527 11.2922C6.0801 11.0185 6.63055 10.4954 7.10289 10.0939C7.57274 9.69457 7.97615 9.40689 8.20934 9.22672C8.49165 9.00859 8.5656 8.92714 8.94762 8.61832C9.10906 8.48781 9.2626 8.3553 9.41051 8.22672C9.55227 8.10348 9.70183 7.97185 9.83238 7.86344C9.95523 7.76145 10.1152 7.6334 10.2796 7.53922C10.3608 7.49272 10.4948 7.4235 10.6625 7.38492ZM12.5511 1.23356C12.6866 1.24544 12.8021 1.26084 12.9222 1.29215L13.0453 1.32926L13.0677 1.33707L13.0892 1.34586C13.2485 1.40931 13.4299 1.5209 13.6312 1.67789C13.6829 1.71236 13.7296 1.75196 13.7728 1.7941C13.9066 1.90781 14.0489 2.03926 14.1966 2.19059L14.3861 2.39078L14.4379 2.44645L14.6478 2.76383C14.8289 3.04678 15.0359 3.40926 15.139 3.78238C15.2307 4.11452 15.3992 4.82215 15.0345 5.48942C14.9831 5.58345 14.8797 5.78458 14.7972 5.92301C14.7087 6.0716 14.5594 6.30268 14.3255 6.48746C14.1967 6.58928 13.9799 6.75066 13.6595 6.86735C13.3414 6.98317 12.9771 7.03513 12.5502 7.01383C11.8646 6.97963 11.0985 6.92826 10.6146 6.77457C10.4621 6.72614 10.2734 6.66343 10.1009 6.58414C9.94159 6.51084 9.67779 6.37196 9.47691 6.10953C9.23239 5.78999 8.65819 4.93165 8.85289 3.78336C8.89342 3.54439 8.94451 3.18817 9.01793 2.89957C9.08043 2.65399 9.2257 2.14638 9.65953 1.82242L9.78844 1.72965C9.94045 1.62474 10.1656 1.49256 10.4847 1.4025C10.8832 1.29014 11.3626 1.25944 11.975 1.31363C11.999 1.31577 12.0229 1.31928 12.0462 1.32145C12.1989 1.25111 12.3717 1.21788 12.5511 1.23356ZM11.7982 3.30582C11.3309 3.26448 11.1142 3.30295 11.0277 3.32731C11.0036 3.33413 10.9864 3.34049 10.9681 3.34977C10.9645 3.36252 10.9605 3.37684 10.9564 3.39274C10.936 3.47297 10.9159 3.57317 10.8939 3.70035C10.8831 3.76291 10.8722 3.8283 10.8607 3.8986C10.8495 3.96752 10.8373 4.04247 10.8246 4.11735C10.7806 4.37663 10.8811 4.61358 10.9955 4.79117C11.0081 4.79599 11.0223 4.802 11.0384 4.80778C11.0884 4.82566 11.1479 4.84538 11.2201 4.86832C11.4061 4.92741 11.8863 4.97867 12.6498 5.01676C12.8546 5.02698 12.9466 4.9987 12.975 4.98844C12.9953 4.98105 13.0117 4.97191 13.0511 4.94254C13.0577 4.93269 13.0678 4.9191 13.0795 4.89957C13.1027 4.86061 13.1289 4.81293 13.1634 4.74821C13.1894 4.69959 13.224 4.63361 13.2591 4.56852C13.2591 4.56743 13.2592 4.56581 13.2591 4.56461C13.2578 4.5161 13.245 4.43758 13.2113 4.31559C13.1779 4.19458 13.0713 4.00765 12.8617 3.69059C12.7505 3.57155 12.6537 3.47696 12.5726 3.4025C12.5698 3.40195 12.5667 3.4011 12.5638 3.40055C12.421 3.3737 12.1803 3.33966 11.7982 3.30582Z" fill="black"/>
</svg>
