<svg width="24" height="24" viewBox="0 0 24 24" fill="none" xmlns="http://www.w3.org/2000/svg">
<path d="M19.1993 18.8515C19.5932 18.5309 20.1564 18.5605 20.5157 18.9003H20.5177C20.579 18.9114 20.6403 18.9237 20.7032 18.9394L20.9005 18.9979L20.9415 19.0136C21.0671 19.0642 21.2869 19.1569 21.4786 19.3144L21.5597 19.3866L21.63 19.456L21.6866 19.538C21.8754 19.814 21.9867 20.201 21.8995 20.622C21.8689 20.7699 21.7932 21.1148 21.5275 21.3964C21.4855 21.4409 21.3769 21.5558 21.2296 21.6562C21.0785 21.7591 20.811 21.8983 20.4581 21.8847C20.3238 21.8795 19.9958 21.8698 19.6798 21.8104C19.5234 21.781 19.3146 21.7299 19.1124 21.6317C18.926 21.5412 18.5956 21.3373 18.4347 20.9257C18.4003 20.8376 18.2258 20.4291 18.4025 19.9491L18.4933 19.7401C18.5918 19.5419 18.7104 19.3751 18.8087 19.2528C18.941 19.0883 19.0848 18.9447 19.1993 18.8515ZM6.63586 12.3788C7.14016 12.43 7.53427 12.8561 7.5343 13.3739C7.5343 13.7141 7.36314 14.0136 7.10363 14.1942C7.11057 14.1894 7.11645 14.1865 7.11926 14.1845C7.1375 14.1712 7.15139 14.1605 7.15441 14.1581L7.12609 14.1825C7.08703 14.2169 7.02628 14.2716 6.94445 14.3456C6.78108 14.4935 6.53758 14.7167 6.22277 15.0126C5.79453 15.4152 5.60116 15.77 5.49426 16.0077C5.41972 16.1735 5.33192 16.5767 5.23547 17.2987C5.17974 17.7162 5.23896 17.9141 5.25793 17.9745C5.29905 18.1053 5.36659 18.2245 5.47668 18.3895C5.60962 18.5888 5.75051 18.7358 5.90344 18.8661C5.98842 18.9385 6.16996 19.0699 6.41027 19.2001C6.63737 19.3231 6.91906 19.4372 7.16808 19.5155C7.38364 19.5833 7.55195 19.618 7.86437 19.6405C8.20528 19.6651 8.67781 19.6714 9.03527 19.6591C9.36732 19.6476 9.5428 19.621 9.75305 19.5644C9.99316 19.4996 10.2721 19.3948 10.4943 19.2841C10.8407 19.1113 11.0173 18.9601 11.1163 18.8632C11.3404 18.5642 11.5275 18.292 11.6603 18.0849C11.7305 17.9753 11.7839 17.8879 11.8185 17.828C11.8227 17.8207 11.8258 17.8135 11.8292 17.8075C11.8318 17.7984 11.8355 17.7879 11.839 17.7753C11.9857 17.2429 12.537 16.9304 13.0695 17.077C13.6014 17.2241 13.9143 17.7744 13.7677 18.3065C13.7468 18.3822 13.7323 18.4314 13.713 18.4901L13.7101 18.4979C13.6649 18.6318 13.5813 18.7744 13.5509 18.827C13.4974 18.9198 13.4276 19.0348 13.3448 19.164C13.1786 19.4233 12.9491 19.7585 12.6749 20.121L12.6388 20.1698L12.5958 20.2128C12.3772 20.4387 12.0239 20.7565 11.3868 21.0741C11.0408 21.2466 10.6365 21.3981 10.2736 21.496C9.88112 21.6018 9.54794 21.6428 9.10363 21.6581C8.68415 21.6725 8.14069 21.6659 7.72082 21.6356C7.27289 21.6033 6.9492 21.5438 6.5675 21.4237C6.219 21.3141 5.81663 21.1531 5.45812 20.9589C5.11315 20.772 4.81169 20.5642 4.60558 20.3886C4.33699 20.1596 4.06469 19.8777 3.81262 19.4999C3.67293 19.2905 3.47767 18.9805 3.34972 18.5731C3.24921 18.2529 3.15606 17.7606 3.25305 17.0341C3.34241 16.3651 3.45574 15.6653 3.67004 15.1884C3.86078 14.7642 4.19458 14.1751 4.85363 13.5556C5.17675 13.2518 5.42903 13.0193 5.60265 12.8622C5.68909 12.784 5.75747 12.723 5.80578 12.6806C5.82936 12.6598 5.85157 12.6409 5.86926 12.6259C5.87718 12.6192 5.88979 12.6085 5.90344 12.5976C5.90904 12.5931 5.92512 12.5801 5.94543 12.5653C5.95396 12.5591 5.97934 12.5408 6.01281 12.5204C6.02852 12.5108 6.06565 12.4892 6.11437 12.4667C6.12395 12.462 6.29867 12.3739 6.5343 12.3739L6.63586 12.3788ZM10.4874 6.95498C11.0218 6.9711 11.5238 7.20369 12.1759 7.74599C12.4504 7.97429 12.863 8.33121 13.3028 8.79873C13.7317 9.25459 14.1692 9.79716 14.4054 10.0829C14.4234 10.1047 14.4391 10.1229 14.4523 10.1386C14.4727 10.1408 14.498 10.145 14.5284 10.1474C14.9622 10.1805 15.7854 10.1804 16.2394 10.1562C16.5262 10.1408 16.6877 10.1288 16.7745 10.121C16.8159 10.1173 16.8358 10.1148 16.8409 10.1142C16.8332 10.1153 16.807 10.1194 16.7726 10.1278C17.3086 9.99638 17.8495 10.3244 17.9816 10.8603C18.1134 11.3966 17.7855 11.9384 17.2491 12.0702C17.1161 12.1028 16.8932 12.124 16.3458 12.1532C15.8294 12.1808 14.9171 12.1828 14.3761 12.1415C14.1033 12.1206 13.7733 12.0791 13.4591 11.9003C13.1594 11.7294 12.963 11.4766 12.8644 11.3573C12.6046 11.0431 12.219 10.5656 11.8458 10.1688C11.4836 9.78386 11.1387 9.48544 10.8966 9.28408C10.6934 9.1151 10.56 9.03144 10.4825 8.98916C10.458 9.0015 10.4302 9.01635 10.3976 9.0331C10.3346 9.06544 10.2527 9.10672 10.1681 9.14736C10.1654 9.1503 10.1601 9.15739 10.1525 9.16885C10.1236 9.21202 10.0779 9.30182 10.0226 9.48037C10.0216 9.49561 10.0212 9.52092 10.0216 9.55849C10.0227 9.66336 10.0318 9.7929 10.045 9.99111C10.0666 10.3143 10.1223 10.7314 10.2023 11.1337C10.3599 11.9265 10.5105 12.3659 10.548 12.4804C10.5736 12.5587 10.6011 12.6303 10.6964 12.8827C10.8676 13.3359 11.0688 13.6685 11.1339 13.7694C11.1695 13.8245 11.2022 13.8701 11.2286 13.9091C11.3657 13.9219 11.5681 13.9385 11.8653 13.9589C12.7889 14.0223 14.6763 14.1241 15.7765 14.2099C16.8956 14.2971 17.296 14.3747 17.5929 14.4618C17.9773 14.5747 18.2243 14.7522 18.3995 14.9179L18.5538 15.077L18.631 15.162L18.6866 15.2626C18.973 15.7797 19.1968 16.41 19.3234 16.7714C19.3621 16.8694 19.3967 16.9361 19.462 17.0604C19.7187 17.5494 19.531 18.1543 19.0421 18.411C18.5532 18.6675 17.9482 18.479 17.6915 17.9901C17.6239 17.8613 17.5422 17.7061 17.4571 17.4882L17.4503 17.4726L17.4445 17.455C17.33 17.1276 17.1764 16.7136 17.0079 16.3749C16.9017 16.3451 16.6301 16.2817 15.6212 16.203C14.5137 16.1167 12.7266 16.0236 11.7277 15.955C11.2501 15.9222 10.9561 15.8964 10.7696 15.871C10.5969 15.8475 10.3522 15.8075 10.1144 15.6395C9.9409 15.5169 9.81314 15.3627 9.73156 15.2567C9.64112 15.1392 9.54738 15.0002 9.45324 14.8544C9.33483 14.6709 9.05983 14.2098 8.82531 13.5888C8.73612 13.3526 8.69036 13.2331 8.64758 13.1024C8.59972 12.9564 8.42066 12.4305 8.24035 11.5233C8.14569 11.047 8.07694 10.5435 8.04894 10.1239C8.03741 9.9512 8.02348 9.75439 8.0216 9.57998C8.01983 9.41387 8.02658 9.17413 8.09875 8.93349L8.17004 8.71474C8.35269 8.19958 8.66354 7.65183 9.30187 7.3456L9.48351 7.25381C9.54775 7.22081 9.6295 7.17947 9.71105 7.1415C9.79194 7.10386 9.8971 7.05813 10.0138 7.02236C10.1275 6.98756 10.2938 6.94924 10.4874 6.95498ZM6.94152 14.286C6.9455 14.2843 6.94991 14.2837 6.95324 14.2821C6.96181 14.2781 6.9699 14.2723 6.97765 14.2685C6.96574 14.2744 6.95369 14.2806 6.94152 14.286ZM7.03039 14.2401C7.03996 14.2347 7.04864 14.2316 7.05383 14.2284C7.06312 14.2227 7.07146 14.2159 7.07922 14.2108C7.06339 14.2212 7.04682 14.2307 7.03039 14.2401ZM10.4425 0.668846C10.5919 0.670339 10.7799 0.683431 10.9796 0.736229L11.1827 0.803611L11.3478 0.875877C11.5089 0.951582 11.6582 1.03676 11.7843 1.11806C11.9325 1.21364 12.1216 1.35027 12.2599 1.50478C12.3505 1.60623 12.417 1.72173 12.4591 1.84267C12.6998 2.11945 12.9248 2.55464 12.9669 3.16982C12.9803 3.36508 13.0029 3.70709 12.9523 4.07119C12.9007 4.44084 12.7647 4.90763 12.4044 5.31045C12.2084 5.52958 11.9743 5.78161 11.7237 5.99306C11.4862 6.19353 11.14 6.4399 10.7101 6.53017C10.4378 6.58731 9.83163 6.67638 9.03625 6.48525C8.78328 6.42446 8.49866 6.35195 8.24523 6.25185C8.00143 6.15553 7.66661 5.98889 7.41711 5.6708C7.25603 5.46535 6.92071 5.04419 6.88488 4.49306C6.86359 4.16443 6.82248 3.41538 7.14367 2.6874C7.39442 2.11932 7.78569 1.40544 8.51379 1.09951L8.78234 0.989158C9.08376 0.871566 9.47582 0.741106 9.88293 0.701072C10.0386 0.685789 10.2418 0.666856 10.4425 0.668846ZM10.0782 2.69228C9.87748 2.71213 9.62487 2.80163 9.30285 2.93642C9.32066 2.92658 9.29713 2.93301 9.23937 3.00869C9.16871 3.10139 9.07913 3.25405 8.97277 3.49502C8.87392 3.71922 8.86326 4.00116 8.87707 4.28213C8.88288 4.29107 8.8899 4.30199 8.89855 4.31435C8.9112 4.3324 8.92646 4.35235 8.94347 4.3749C8.95329 4.37933 8.96545 4.38553 8.98058 4.3915C9.08985 4.43463 9.25084 4.4803 9.50305 4.54092C9.90042 4.63642 10.1819 4.59342 10.2814 4.57412C10.2976 4.56512 10.3478 4.53724 10.4337 4.46474C10.5702 4.34952 10.7255 4.18623 10.9132 3.97646C10.9206 3.96818 10.9534 3.92648 10.9718 3.79482C10.99 3.66359 10.9847 3.51599 10.9728 3.33486C10.6351 3.25257 10.3672 2.99968 10.2609 2.67471C10.2097 2.67853 10.1496 2.68528 10.0782 2.69228Z" fill="black"/>
</svg>
