<svg width="24" height="24" viewBox="0 0 24 24" fill="none" xmlns="http://www.w3.org/2000/svg">
<path d="M18.8827 19.3216C19.1316 19.3519 19.7074 19.4012 20.1151 19.9007C20.1824 19.9833 20.3431 20.1753 20.4637 20.4095C20.5851 20.6453 20.7332 21.0511 20.6083 21.5277C20.564 21.6962 20.3526 22.5631 19.4266 22.805C19.2246 22.8578 18.9503 22.9238 18.6796 22.9457C18.462 22.9631 17.9682 22.9817 17.5536 22.6576C17.5161 22.6282 17.4298 22.5613 17.3544 22.4906C17.288 22.4283 17.1203 22.265 17.0262 22.0072C16.9609 21.8279 16.891 21.5858 16.8651 21.3236C16.854 21.2112 16.8492 21.0631 16.868 20.8988C16.8518 20.8696 16.8366 20.8393 16.8231 20.808C16.6047 20.301 16.8388 19.7132 17.3456 19.4945C17.4685 19.4415 17.5742 19.4133 17.7059 19.388L17.7147 19.3861L17.7245 19.3841C18.0233 19.3328 18.418 19.3099 18.7753 19.3148H18.829L18.8827 19.3216ZM5.94421 12.7386C6.44959 12.7783 6.85244 13.1955 6.86413 13.7132C6.87578 14.2371 6.48257 14.6748 5.97057 14.7289L5.9696 14.7298C5.95134 14.7339 5.91375 14.7432 5.85924 14.7611C5.75032 14.7967 5.58654 14.8607 5.38561 14.9681C5.38306 14.9696 5.36694 14.98 5.33483 15.0033C5.29999 15.0285 5.25813 15.0613 5.20885 15.1019C5.1597 15.1424 5.10893 15.1859 5.05456 15.2328C5.00363 15.2767 4.94396 15.3289 4.88952 15.3744C4.70347 15.5297 4.60806 15.6481 4.49401 15.808C4.48401 15.8221 4.45304 15.8718 4.40417 15.9915C4.3549 16.1124 4.29693 16.2817 4.22643 16.5218C4.15803 16.7549 4.09644 17.1254 4.0487 17.4867C4.00732 17.7999 3.99893 18.0305 4.00085 18.2074C4.00371 18.4695 4.04371 18.6856 4.13073 19.0072C4.17369 19.1658 4.26321 19.4041 4.35143 19.6244C4.4575 19.8891 4.55835 20.0517 4.68151 20.221C4.7731 20.3469 4.9004 20.4522 5.08678 20.5462C5.10135 20.5536 5.22027 20.6141 5.74596 20.6624C6.26333 20.71 7.08894 20.7257 7.66784 20.7083C8.22138 20.6917 8.47823 20.6459 8.64538 20.6087C8.80153 20.574 8.86541 20.5506 9.00085 20.4808C9.22423 20.3657 9.39363 20.2642 9.50866 20.1869C9.56271 20.1505 9.59929 20.122 9.62194 20.1039C9.62764 20.0957 9.63612 20.0852 9.64538 20.0707C9.67257 20.0279 9.71306 19.9578 9.7694 19.848C9.87802 19.6363 10.0247 19.3042 10.1229 19.0726C10.2491 18.6693 10.299 18.4045 10.3182 18.2933C10.3209 18.2572 10.3252 18.1982 10.329 18.1039C10.3511 17.5521 10.8163 17.1229 11.368 17.1449C11.9197 17.167 12.349 17.6322 12.327 18.1839C12.3234 18.2756 12.318 18.4183 12.3055 18.5335L12.3026 18.5619L12.2977 18.5902C12.273 18.7382 12.2061 19.1277 12.0184 19.7181L12.0048 19.7611L11.9872 19.8021C11.8847 20.046 11.7003 20.4656 11.5487 20.7611C11.3951 21.0604 11.2646 21.2628 11.1307 21.4203C10.9889 21.5871 10.7904 21.7351 10.6239 21.847C10.4339 21.9747 10.1962 22.1143 9.91686 22.2582C9.62418 22.4089 9.39809 22.4901 9.07995 22.5609C8.77266 22.6293 8.3891 22.6875 7.72838 22.7074C7.09298 22.7265 6.1821 22.7116 5.56237 22.6546C4.95323 22.5986 4.53734 22.5093 4.18639 22.3324C3.77381 22.1243 3.37786 21.8279 3.06432 21.3968C2.86471 21.1223 2.67438 20.8162 2.49499 20.3685C2.40942 20.1549 2.27745 19.8155 2.20006 19.5296C2.08955 19.1213 2.00624 18.7244 2.00085 18.2289C1.99797 17.9626 2.0118 17.6373 2.06628 17.2249C2.11444 16.8605 2.19142 16.3537 2.30749 15.9583C2.45987 15.4394 2.62079 14.9897 2.86608 14.6458C3.04126 14.4003 3.2485 14.1388 3.60729 13.8392C3.62178 13.8271 3.85896 13.6228 3.93639 13.5589C4.05943 13.4575 4.24437 13.3108 4.44323 13.2044C4.74725 13.0419 5.01786 12.9315 5.23717 12.8597C5.42094 12.7996 5.64843 12.7401 5.84264 12.7357L5.94421 12.7386ZM9.19811 7.39292C9.37389 7.38012 9.63399 7.37972 9.90124 7.46225L10.0165 7.50327L10.1805 7.57163C10.2609 7.60851 10.3628 7.66112 10.4735 7.73471C10.6761 7.86938 10.8906 8.05739 11.1512 8.32651C11.3642 8.54637 11.6301 8.84435 11.8973 9.21518C12.1274 9.53453 12.4346 10.0401 12.5126 10.1566C12.7077 10.448 12.7548 10.5218 12.8612 10.679C12.9686 10.8377 13.0636 10.9736 13.1434 11.0833C13.4487 11.0887 13.907 11.0933 14.1835 11.097C14.477 11.1009 14.5545 11.1044 14.6395 11.1126C15.1891 11.1663 15.5915 11.6558 15.538 12.2054C15.4843 12.755 14.9948 13.1575 14.4452 13.1039C14.4428 13.1036 14.4413 13.103 14.4403 13.1029C14.438 13.1027 14.4305 13.1024 14.4159 13.1019C14.3768 13.1005 14.303 13.099 14.1571 13.097C13.8742 13.0932 13.305 13.0882 12.9989 13.0814C12.8639 13.0784 12.7129 13.0751 12.5858 13.056C12.5085 13.0443 12.4024 13.0222 12.286 12.973C12.1633 12.9211 12.0774 12.8584 12.035 12.8265C11.8414 12.6805 11.674 12.4615 11.5819 12.3382C11.4632 12.1794 11.3325 11.9886 11.2049 11.8001C11.0979 11.642 11.0289 11.5365 10.8505 11.2699C10.641 10.957 10.5086 10.7093 10.2743 10.3841C10.0771 10.1105 9.87822 9.88694 9.71471 9.71811C9.50229 9.49879 9.40045 9.4226 9.36608 9.39975C9.35651 9.39332 9.36324 9.39775 9.33874 9.38803C9.31638 9.38987 9.29002 9.39426 9.26256 9.39975C9.23312 9.40565 9.20873 9.41222 9.19323 9.41733C9.18963 9.41866 9.17441 9.42463 9.14538 9.43686C9.11096 9.45136 9.06617 9.47095 9.01159 9.49643C8.90627 9.54561 8.77437 9.60989 8.62682 9.68686C8.62514 9.70524 8.62356 9.72662 8.62194 9.75131C8.62155 9.75729 8.6188 9.79226 8.62975 9.91342C8.64111 10.0389 8.664 10.2305 8.70788 10.5453C8.79475 11.1684 8.96152 12.2114 9.08288 12.8646C9.20143 13.5026 9.26653 13.7081 9.30553 13.8275C9.34715 13.9547 9.37832 14.0026 9.38561 14.013C9.39056 14.0201 9.39746 14.0269 9.43249 14.0589C9.44047 14.0624 9.45166 14.0685 9.46764 14.0746C9.5599 14.1094 9.69478 14.149 9.95495 14.223C9.98315 14.231 10.0602 14.2564 10.8046 14.2816C11.5197 14.3058 12.7313 14.3189 13.4579 14.3343C14.1506 14.349 14.3598 14.3645 14.538 14.3949C14.7616 14.4331 14.9549 14.5222 15.0965 14.597C15.1711 14.6364 15.2486 14.6807 15.327 14.7289L15.5663 14.8832L15.5887 14.8978L15.6102 14.9134C15.8389 15.0833 16.0579 15.2846 16.4061 15.6517C16.7466 16.0106 17.2444 16.566 17.7596 17.1322C18.131 17.5405 18.1012 18.1726 17.6932 18.5443C17.2847 18.916 16.6518 18.8864 16.2801 18.4779C15.7455 17.8903 15.2764 17.3666 14.9549 17.0277C14.6535 16.7099 14.5227 16.5996 14.4286 16.5287C14.3018 16.4454 14.2187 16.395 14.163 16.3656C14.1611 16.3646 14.1588 16.3635 14.1571 16.3626C14.0862 16.3564 13.9014 16.3447 13.4149 16.3343C12.7306 16.3198 11.4653 16.3052 10.7372 16.2806C10.0384 16.257 9.71166 16.2331 9.40807 16.1468C9.17694 16.0811 8.94932 16.017 8.76061 15.9457C8.55557 15.8681 8.33315 15.7597 8.12487 15.5746C8.03196 15.4919 7.88686 15.3594 7.74596 15.1576C7.60625 14.9574 7.49478 14.7258 7.40417 14.4486C7.33121 14.2253 7.24725 13.9314 7.11706 13.2308C6.98956 12.5447 6.81796 11.4711 6.72741 10.8216C6.64183 10.2077 6.60796 9.89342 6.62585 9.62045C6.64102 9.38888 6.6736 8.89412 7.0067 8.49155L7.11608 8.36362C7.24072 8.22639 7.41547 8.06447 7.67956 7.92612C8.00682 7.75471 8.34971 7.58967 8.56725 7.51792C8.75548 7.45588 8.97671 7.40906 9.19811 7.39292ZM16.7284 9.48667C17.1189 9.09614 17.7519 9.09614 18.1424 9.48667C18.1605 9.50471 18.1787 9.52448 18.1835 9.52963C18.1937 9.54068 18.2088 9.55701 18.2294 9.57944C18.2713 9.62513 18.3435 9.7031 18.4647 9.8353C18.6748 10.0644 19.0324 10.4519 19.2889 10.7035C19.518 10.928 19.6198 10.9976 19.7567 11.0746C19.7725 11.0834 19.7901 11.0911 19.8065 11.0999C20.1125 10.7418 20.567 10.2102 21.0428 9.65366C21.4018 9.23411 22.0333 9.18546 22.453 9.54428C22.8721 9.90317 22.9217 10.5339 22.5633 10.9535C21.9836 11.6315 21.4268 12.2843 21.1424 12.6165C21.0758 12.6944 21.0073 12.7752 20.9471 12.8402C20.8952 12.8962 20.7923 13.004 20.6551 13.0941C20.479 13.2097 20.2485 13.2954 19.9774 13.2826C19.7743 13.2729 19.6075 13.205 19.5799 13.1947C19.3791 13.1196 19.0513 12.972 18.7782 12.8187C18.4582 12.639 18.217 12.4541 17.8885 12.1322C17.5873 11.8369 17.193 11.4091 16.9901 11.1878C16.8683 11.0551 16.798 10.977 16.7567 10.932C16.7365 10.91 16.7239 10.8968 16.7167 10.889C16.7198 10.8922 16.7241 10.8964 16.7284 10.9007C16.3379 10.5102 16.338 9.8772 16.7284 9.48667ZM19.9647 2.69956C20.3121 2.70274 20.5629 2.85849 20.6971 2.9603C20.8215 3.0547 20.9304 3.1698 20.9999 3.2435C21.3135 3.57635 21.8685 4.22519 22.1678 4.5853C22.388 4.85019 22.4994 4.99344 22.576 5.11069L22.6444 5.22299L22.7001 5.32944C22.7137 5.35614 22.7206 5.36988 22.7294 5.38608C22.9916 5.87215 22.8102 6.47934 22.3241 6.74155C21.8382 7.0033 21.2318 6.82192 20.9696 6.33627C20.9478 6.29583 20.9296 6.25965 20.9188 6.23862C20.9085 6.21839 20.9025 6.20675 20.8964 6.19565C20.8934 6.19163 20.8889 6.18604 20.8837 6.17905C20.8478 6.13114 20.7755 6.03902 20.6298 5.86362C20.4344 5.62857 20.1409 5.28499 19.8876 4.99643C19.5927 5.25483 19.2572 5.55333 19.0546 5.74448C18.8812 5.90802 18.7999 5.99398 18.7645 6.03549C18.5197 6.49282 17.9611 6.69061 17.4794 6.4769C16.9748 6.2527 16.7466 5.66222 16.9706 5.15756L17.0243 5.04917C17.1601 4.8018 17.3733 4.58103 17.6825 4.2894C18.0155 3.97526 18.6288 3.43518 18.9618 3.15073C19.0348 3.08838 19.1474 2.99131 19.2655 2.9144C19.3852 2.83646 19.6315 2.69665 19.9647 2.69956ZM8.45397 1.00034C8.57381 1.00048 8.92208 0.992073 9.22741 1.05112C9.64436 1.13183 10.1284 1.30358 10.3915 1.45346C10.8306 1.70403 11.0055 2.23628 10.8221 2.69272C10.891 2.85455 10.9667 3.0386 11.0301 3.21616C11.1097 3.43878 11.1787 3.6582 11.2264 3.84799L11.3065 4.20542C11.3588 4.49508 11.3956 5.07843 10.9501 5.59506C10.8081 5.7596 10.6344 5.87594 10.5057 5.95249C10.3618 6.03811 10.1963 6.11826 10.0184 6.19272C9.82731 6.27272 9.66017 6.32817 9.42663 6.38706C9.21194 6.44118 8.90119 6.50902 8.60045 6.54233C8.35051 6.57 8.01979 6.59324 7.7235 6.5394C7.39859 6.48025 6.85963 6.33832 6.42467 5.806C6.27888 5.62751 6.06621 5.34608 5.95299 4.91928C5.89678 4.70716 5.85073 4.43858 5.84069 4.10483C5.83129 3.7908 5.85433 3.43142 5.87878 3.19956C5.90309 2.96896 5.93301 2.78181 6.0067 2.5853L6.07116 2.42319C6.15542 2.22658 6.30523 1.94041 6.56823 1.68979C6.73708 1.52896 6.98656 1.31317 7.38073 1.18979L7.61608 1.12045C7.86394 1.05407 8.147 1.00004 8.45397 1.00034ZM8.45202 3.00034C8.35254 3.00025 8.22191 3.0221 7.99792 3.09116C7.98716 3.10024 7.97209 3.11519 7.94811 3.13803C7.94564 3.14139 7.94101 3.14853 7.93444 3.16049C7.92075 3.18553 7.90643 3.21811 7.88561 3.2728C7.88244 3.28957 7.87555 3.32901 7.86706 3.40952C7.84916 3.57938 7.83375 3.84442 7.83971 4.04428C7.8451 4.22371 7.86915 4.34071 7.88659 4.40659C7.89086 4.42268 7.89544 4.43303 7.90221 4.44467C7.91185 4.46113 7.92968 4.48673 7.9735 4.54038C7.97484 4.54202 7.9756 4.54415 7.97643 4.54526C7.98297 4.5483 8.00763 4.55827 8.08092 4.57163C8.06419 4.5686 8.08047 4.57274 8.1444 4.57163C8.20384 4.57056 8.28271 4.5649 8.38073 4.55405C8.55306 4.53494 8.76449 4.49118 8.93737 4.4476C9.09108 4.40885 9.16165 4.38328 9.24596 4.34799C9.25893 4.34257 9.27109 4.33562 9.28307 4.33042C9.25755 4.23062 9.21384 4.07788 9.14635 3.88901C9.06152 3.65171 8.94462 3.3793 8.87292 3.22592L8.83678 3.15268C8.79975 3.10551 8.76641 3.05649 8.73913 3.00522C8.72743 3.00458 8.71465 3.00277 8.70104 3.00229C8.6214 2.99948 8.54773 3.00045 8.45202 3.00034Z" fill="black"/>
</svg>
