<svg width="24" height="24" viewBox="0 0 24 24" fill="none" xmlns="http://www.w3.org/2000/svg">
<path d="M7.54718 3.00289C8.33341 2.98239 9.19757 3.06164 9.88409 3.15914C10.5859 3.25883 11.1228 3.38183 11.636 3.54683C12.1451 3.71052 12.6092 3.90924 13.054 4.14547C13.4933 4.37879 13.8941 4.64012 14.1409 4.80953C14.6236 5.14093 14.9498 5.57739 15.2493 6.02925C15.6359 6.61249 15.7094 7.14196 15.7503 7.56636C15.7827 7.90253 15.7919 8.38791 15.7327 9.06148C15.7294 9.0993 15.7238 9.13784 15.72 9.17672C15.9905 9.06546 16.2174 9.00349 16.3978 8.95992C16.6296 8.90396 16.9377 8.85766 17.262 8.83199C17.9554 8.77715 18.5103 8.82649 18.8597 8.87886C19.2794 8.9419 19.7954 9.14954 20.3226 9.37984C21.0232 9.68598 21.4761 10.0538 21.7142 10.2783C22.2416 10.7758 22.4213 11.4869 22.5482 11.9345C22.6657 12.3493 22.7547 12.9133 22.8148 13.4199C22.8791 13.9631 22.8999 14.4961 22.8724 15.0117C22.8447 15.5286 22.7687 16.0008 22.6761 16.4062C22.5062 17.1498 22.2786 17.6599 22.0862 17.9746C21.8814 18.3093 21.5447 18.5965 21.3099 18.792C21.1007 18.9661 20.8588 19.0817 20.6653 19.1621C20.4628 19.2461 20.2354 19.3224 20.0169 19.3935L19.9817 19.4052L19.9446 19.414C19.5392 19.5132 19.1881 19.5595 18.8929 19.5654H18.8636C18.7924 19.5647 18.7361 19.5611 18.6868 19.5576C18.6355 19.5539 18.6145 19.5519 18.5648 19.5488C18.0136 19.5147 17.5942 19.0404 17.6282 18.4892C17.6624 17.9382 18.1368 17.5188 18.6878 17.5527C18.7499 17.5565 18.8094 17.5618 18.8314 17.5634C18.8439 17.5643 18.8537 17.5641 18.8616 17.5644C18.9812 17.5612 19.1714 17.5414 19.4368 17.4785C19.6345 17.4138 19.7837 17.3622 19.8987 17.3144C19.9834 17.2792 20.0224 17.2563 20.0335 17.25C20.1501 17.1528 20.2391 17.0768 20.304 17.0127C20.3723 16.9452 20.3868 16.9198 20.3802 16.9306C20.4432 16.8275 20.5969 16.5257 20.7259 15.9609C20.7971 15.6493 20.8546 15.2909 20.8753 14.9043C20.8961 14.516 20.881 14.0987 20.8284 13.6552C20.7716 13.1754 20.6966 12.738 20.6234 12.4795C20.5471 12.2103 20.4957 12.0382 20.4388 11.9033C20.3869 11.7804 20.3522 11.743 20.3421 11.7334C20.2345 11.6319 19.9696 11.4085 19.5218 11.2128C18.9579 10.9665 18.6794 10.875 18.5628 10.8574C18.3372 10.8236 17.937 10.7853 17.4202 10.8261C17.1676 10.8461 16.9688 10.8788 16.8675 10.9033C16.6822 10.948 16.4368 11.0168 16.0843 11.2285C15.8457 11.3718 15.6599 11.4883 15.5247 11.581C15.4576 11.6271 15.4094 11.6625 15.3782 11.6875C15.3756 11.6896 15.3727 11.6915 15.3704 11.6933C15.3658 11.7008 15.3592 11.7114 15.3509 11.7255C15.3394 11.745 15.3083 11.7991 15.2767 11.8476C15.2467 11.8936 15.1812 11.9901 15.0823 12.0849C15.0545 12.1116 14.9601 12.2021 14.8109 12.2714C14.6514 12.3454 14.2679 12.4598 13.8704 12.2187C13.5375 12.0166 13.446 11.705 13.4241 11.624C13.3939 11.5119 13.3898 11.4202 13.389 11.3857C13.3872 11.3097 13.3953 11.2495 13.3968 11.2373C13.3995 11.215 13.4021 11.1964 13.4036 11.1875C13.408 11.1611 13.4161 11.1203 13.4202 11.0986C13.4323 11.0349 13.455 10.9142 13.4915 10.6972C13.5668 10.2505 13.6894 9.46896 13.7405 8.88668C13.7911 8.31072 13.7786 7.95003 13.7601 7.75777C13.7299 7.44442 13.6972 7.30817 13.5823 7.13472C13.3116 6.72623 13.1597 6.56137 13.0091 6.45797C12.7976 6.31283 12.4652 6.09731 12.1165 5.91207C11.7734 5.72986 11.4178 5.57785 11.0237 5.45113C10.6334 5.32566 10.2092 5.22574 9.60284 5.13961C8.98136 5.05135 8.23653 4.98633 7.59991 5.00289C6.95518 5.01973 6.41894 5.10606 6.16046 5.16597C6.01454 5.19984 5.94868 5.22453 5.88409 5.2607C5.81112 5.30164 5.68893 5.38703 5.48468 5.59468C5.31231 5.76998 5.07666 6.02777 4.90362 6.23726C4.71579 6.46469 4.6369 6.57693 4.58526 6.67574C4.41012 7.01117 4.25099 7.39759 4.1419 7.79586C4.11996 7.876 4.10608 7.93152 4.0921 8.03804C4.07594 8.1613 4.05945 8.35607 4.0423 8.70797C4.00782 9.41523 3.97775 10.5988 4.02374 11.5205C4.06853 12.4181 4.18123 13.0407 4.3548 13.6601C4.53484 14.3027 4.77218 14.9177 4.97589 15.3388C5.2083 15.8193 5.2944 15.9112 5.37335 15.9677C5.97601 16.3991 6.40081 16.6253 6.57062 16.6992C7.07662 16.9197 7.30838 17.5084 7.08819 18.0146C6.86784 18.5208 6.27905 18.7523 5.77276 18.5322C5.43463 18.385 4.88505 18.0774 4.20929 17.5937C3.67605 17.2119 3.40636 16.688 3.17511 16.2099C2.91505 15.6723 2.63786 14.9445 2.42901 14.1992C2.21374 13.4308 2.07859 12.6605 2.02667 11.6201C1.97595 10.6036 2.00839 9.34572 2.04425 8.61031C2.08094 7.85779 2.12389 7.59009 2.21222 7.26754C2.36387 6.71377 2.58069 6.19448 2.8128 5.74996C2.96785 5.45318 3.16229 5.20519 3.36163 4.96383C3.57596 4.70434 3.8512 4.40355 4.0589 4.19234C4.34483 3.90163 4.61518 3.67947 4.90558 3.51656C5.20414 3.34914 5.47551 3.27177 5.70831 3.21773C6.10001 3.12689 6.76993 3.0232 7.54718 3.00289Z" fill="black"/>
</svg>
