<svg width="24" height="24" viewBox="0 0 24 24" fill="none" xmlns="http://www.w3.org/2000/svg">
<path d="M9.4988 3.00778C10.2613 2.98713 10.9997 2.99758 11.4861 3.13668C11.8139 3.23047 12.4225 3.4005 13.074 3.82614C13.5845 4.1597 14.3143 4.68863 15.0242 5.50875C15.5831 6.15448 15.9705 6.75286 16.2127 7.10055C16.3092 7.23915 16.5759 7.56217 16.8543 8.10153C17.3341 9.03145 17.6202 9.70356 17.7927 10.3173C18.261 10.3383 18.759 10.376 19.1502 10.4521C20.1527 10.6473 20.9156 10.88 21.4597 11.3252C21.6227 11.4585 21.8449 11.6438 22.0515 11.8584C22.252 12.0665 22.492 12.3567 22.6404 12.7158C22.7822 13.0589 22.9966 13.5488 23.0769 14.3398C23.1425 14.9853 23.1856 15.4926 23.2029 15.8818C23.2189 16.242 23.2193 16.5969 23.156 16.8818C23.1029 17.121 23.0266 17.4632 22.906 17.8047C22.7872 18.141 22.6016 18.5497 22.2888 18.8935C21.7881 19.4438 21.1727 19.9354 20.4998 20.1279C20.1028 20.2414 19.4092 20.4192 18.0261 20.6718C17.6114 20.7476 17.3003 20.8017 16.7244 20.8369C15.798 20.8935 14.9966 20.9688 14.1609 20.9873C13.4852 21.0022 12.3039 21.0119 11.3054 20.9668C10.31 20.9217 9.49047 20.8137 9.11794 20.7793C8.77536 20.7477 8.04284 20.8279 6.97536 20.3457C6.19064 19.9912 5.39639 19.6165 4.80446 19.0732C4.02383 18.3565 3.45521 17.7821 3.2615 17.5498C2.93307 17.1558 2.51063 16.6748 2.15212 15.8554C1.78393 15.0139 1.38509 14.0505 1.29372 13.3427C1.22448 12.8062 1.15061 11.7694 1.29177 10.4218C1.38761 9.50696 1.51253 8.50023 1.92263 7.68746C2.21546 7.10731 2.45636 6.3826 3.37185 5.49606C3.89189 4.99251 4.69548 4.40734 5.88943 3.92574C6.48205 3.68672 7.18229 3.44526 7.6531 3.33981C8.03078 3.25524 8.67799 3.03004 9.4988 3.00778ZM9.55349 5.0068C8.99077 5.02206 8.74712 5.14395 8.0906 5.29098C7.77591 5.36146 7.19158 5.55674 6.63747 5.78024C5.68194 6.16566 5.09727 6.60939 4.76345 6.93258C4.15359 7.52313 4.08317 7.84601 3.70876 8.58785C3.4893 9.02268 3.38229 9.66416 3.28103 10.6308C3.15806 11.805 3.22615 12.6845 3.2781 13.0869C3.32574 13.4558 3.58585 14.1434 3.98415 15.0537C4.2158 15.5831 4.46389 15.8691 4.79763 16.2695C4.89707 16.3887 5.37606 16.8826 6.157 17.5996C6.47536 17.8918 6.97118 18.1486 7.79861 18.5224C8.46235 18.8223 8.62749 18.7258 9.30153 18.788C9.7736 18.8317 10.4606 18.9264 11.3963 18.9687C12.3289 19.0109 13.4578 19.0028 14.116 18.9882C14.9027 18.9709 15.5862 18.9029 16.6023 18.8408C17.0669 18.8124 17.2914 18.7736 17.6668 18.705C18.9999 18.4615 19.6283 18.297 19.95 18.205C20.1078 18.1599 20.4189 17.977 20.8093 17.5478C20.8675 17.4839 20.9433 17.3565 21.0203 17.1386C21.0954 16.9259 21.1493 16.6941 21.2039 16.4482C21.2006 16.4628 21.2067 16.4376 21.2097 16.3447C21.2126 16.2575 21.2122 16.136 21.2049 15.9707C21.1901 15.6392 21.1522 15.1765 21.0877 14.541C21.0388 14.0599 20.9241 13.7997 20.7918 13.4795C20.7812 13.454 20.7359 13.3746 20.6111 13.2451C20.4927 13.1222 20.3493 13.0008 20.1931 12.873C20.0684 12.771 19.7498 12.6061 18.7683 12.415C18.183 12.3011 17.2259 12.3055 16.5252 12.2822C16.1704 12.2704 15.9916 12.2757 15.8914 12.2851C15.8191 12.2919 15.7912 12.2997 15.7263 12.3203C14.9054 12.5805 14.3478 13.045 14.1775 13.2402C14.0453 13.4687 13.9272 13.6705 13.8455 13.8047C13.8396 13.8156 13.8322 13.8316 13.8093 13.8847C13.5913 14.3921 13.0033 14.6271 12.4959 14.4091C11.9888 14.191 11.7546 13.6029 11.9724 13.0957C11.9966 13.0395 12.0395 12.9368 12.1043 12.8213L12.114 12.8037L12.1248 12.7861C12.1971 12.6688 12.3247 12.4497 12.491 12.1621L12.5242 12.1054L12.5633 12.0537C12.9726 11.5199 13.9099 10.7974 15.1228 10.413C15.3029 10.356 15.4681 10.3183 15.6765 10.2968C15.5438 9.96383 15.3538 9.55512 15.0769 9.01852C14.8793 8.63561 14.7583 8.51293 14.5711 8.2441C14.2905 7.84126 13.9822 7.36214 13.5115 6.81832C12.9679 6.19031 12.4044 5.77807 11.9802 5.50094C11.6004 5.2528 11.2454 5.14798 10.9363 5.05953C10.7943 5.01896 10.3658 4.98482 9.55349 5.0068Z" fill="black"/>
</svg>
