<svg width="24" height="24" viewBox="0 0 24 24" fill="none" xmlns="http://www.w3.org/2000/svg">
<path d="M12.1 14.0173C12.6121 13.9433 13.0901 14.2711 13.2133 14.7624L13.2328 14.863L13.2455 14.9792C13.2573 15.1292 13.2683 15.4291 13.2914 16.3132C13.3234 17.5363 13.3787 19.9241 13.4359 22.3698C13.4486 22.9217 13.0112 23.3792 12.4594 23.3923C11.9076 23.4049 11.4501 22.9684 11.4369 22.4167C11.3796 19.9693 11.3243 17.5856 11.2924 16.3659C11.2764 15.7552 11.2659 15.4416 11.2592 15.2761C11.2558 15.1926 11.2535 15.1552 11.2523 15.1403C11.2525 15.1412 11.2532 15.1421 11.2533 15.1433L11.2543 15.1501C11.1753 14.6037 11.5536 14.0966 12.1 14.0173ZM16.3773 12.2614C16.9295 12.2616 17.3773 12.7093 17.3773 13.2614C17.3773 13.2967 17.3768 13.3334 17.392 14.4772C17.4071 15.6179 17.438 17.8536 17.4691 20.1569C17.4765 20.7088 17.0347 21.1628 16.4828 21.1706C15.9308 21.1781 15.4769 20.7362 15.4691 20.1843C15.438 17.881 15.4081 15.6445 15.393 14.5036C15.3779 13.3698 15.3774 13.3141 15.3773 13.2614C15.3773 12.7091 15.8251 12.2614 16.3773 12.2614ZM8.1713 11.6403C8.72332 11.6405 9.17114 12.0883 9.1713 12.6403L9.17716 12.7604C9.18355 12.9143 9.19648 13.2188 9.22208 13.8239C9.27334 15.0357 9.37522 17.4524 9.48087 19.9421C9.50427 20.4936 9.07624 20.9603 8.52481 20.9841C7.97302 21.0075 7.50623 20.5788 7.48282 20.027C7.37718 17.5375 7.27433 15.1209 7.22305 13.9089C7.1729 12.7234 7.1713 12.6756 7.1713 12.6403C7.17145 12.0882 7.61911 11.6403 8.1713 11.6403ZM9.62833 1.46943C10.8162 1.45094 11.4599 1.68129 11.9691 1.90497C12.6561 2.20687 13.2408 2.72902 13.7162 3.21064C14.0334 3.53198 14.2967 3.90878 14.5648 4.32587C14.8677 4.79694 15.0998 5.20202 15.265 5.51923C15.3738 5.728 15.4798 5.94783 15.5482 6.1374L15.6029 6.31611L15.6313 6.4538C15.6326 6.46149 15.633 6.46955 15.6342 6.47724C15.776 6.4572 15.9266 6.43631 16.0531 6.4206C17.0645 6.29508 17.8042 6.33061 18.3393 6.4372C18.952 6.55932 19.3991 6.75287 19.7279 6.9079C20.3303 7.19198 20.9552 7.62663 21.474 8.06025C22.4085 8.84137 22.7446 9.76228 22.9721 10.3835C23.0973 10.7259 23.1129 11.1219 23.1117 11.4372C23.1104 11.7815 23.0846 12.1917 23.0561 12.6276C23.0172 13.2203 22.8366 13.8126 22.7289 14.1852C22.489 15.0153 22.1409 15.6727 21.766 16.1813L21.7436 16.2116L21.7191 16.2399C21.4875 16.5096 21.2661 16.6696 21.0981 16.777C20.919 16.8914 20.7633 16.9684 20.5414 17.0495C20.0227 17.2391 19.4478 16.9725 19.2582 16.4538C19.0689 15.9352 19.3363 15.3611 19.8549 15.1716C19.9105 15.1512 19.938 15.1382 19.9535 15.1306C19.9676 15.1236 19.986 15.1138 20.0209 15.0915C20.0574 15.0681 20.0853 15.0491 20.1107 15.028C20.1307 15.0115 20.1523 14.9878 20.1791 14.9587C20.4064 14.6422 20.6393 14.2099 20.807 13.6296C20.9318 13.1979 21.0381 12.8296 21.06 12.4968C21.0894 12.0482 21.1107 11.701 21.1117 11.4294C21.1128 11.1295 21.0864 11.0499 21.0941 11.071C20.8761 10.4756 20.686 10.0086 20.1918 9.5954C19.756 9.23115 19.275 8.90539 18.8744 8.7165C18.6136 8.59354 18.3338 8.47492 17.9486 8.39814C17.6722 8.34306 17.1542 8.29887 16.2992 8.40497C16.0371 8.43752 15.8332 8.47132 15.5522 8.50849C15.3361 8.53706 15.0285 8.57503 14.7816 8.55829C14.6468 8.5491 14.4401 8.5197 14.2309 8.40595C13.9835 8.27134 13.7948 8.05191 13.7035 7.78193C13.6284 7.55944 13.6416 7.36425 13.6469 7.29658C13.65 7.25691 13.6551 7.21945 13.6566 7.20673C13.6572 7.20165 13.6573 7.19745 13.6576 7.19501C13.6759 6.96548 13.6675 6.84538 13.6586 6.79462C13.6539 6.78296 13.6471 6.76575 13.6371 6.74286C13.6063 6.67264 13.5587 6.57195 13.4916 6.44306C13.3577 6.18589 13.1562 5.83397 12.8822 5.4079C12.6287 5.01356 12.4577 4.78247 12.2934 4.61591C11.8568 4.17365 11.4904 3.87925 11.1645 3.73603C10.8657 3.60482 10.5076 3.45624 9.65958 3.46943C8.99159 3.47988 7.95295 3.5552 7.3793 3.6081C7.08592 3.63516 6.95976 3.65119 6.89298 3.66376C6.88002 3.66621 6.87143 3.66773 6.86758 3.66865C6.86517 3.66925 6.86334 3.67023 6.8627 3.6706C6.86064 3.67129 6.85089 3.67415 6.82266 3.68622C6.39298 3.87021 6.03436 4.03913 5.72598 4.27997C5.14386 4.73479 4.77742 5.05958 4.59708 5.41572C4.26497 6.07264 4.09075 6.4941 4.04434 7.19697C3.99723 7.91157 3.94088 9.1449 3.92716 9.88154C3.91353 10.6134 3.9368 10.7848 3.97598 10.9851C4.1108 11.6742 4.19509 12.1679 4.54044 12.6979C4.90066 13.2508 5.19142 13.6837 5.392 13.9763C5.49264 14.123 5.56872 14.2321 5.61856 14.3015C5.63697 14.3271 5.64998 14.3439 5.65762 14.3542C5.80618 14.5286 5.89671 14.7547 5.89688 15.0017C5.89688 15.5537 5.44878 16.0012 4.89688 16.0017C4.68422 16.0017 4.52759 15.9341 4.46817 15.906C4.39544 15.8715 4.34133 15.8355 4.3129 15.8151C4.25583 15.7743 4.21617 15.7354 4.20059 15.7204C4.16528 15.6864 4.13927 15.6567 4.13028 15.6462C4.10798 15.6202 4.08848 15.596 4.07755 15.5817C4.05272 15.5494 4.02353 15.5092 3.99356 15.4675C3.93199 15.3817 3.84739 15.26 3.74258 15.1071C3.53182 14.7997 3.23209 14.3536 2.86465 13.7897C2.27143 12.8793 2.13444 11.9891 2.01309 11.3688C1.93308 10.9598 1.91269 10.6218 1.92715 9.84443C1.94155 9.07151 1.99943 7.8068 2.04825 7.06611C2.12038 5.97271 2.42936 5.27009 2.81192 4.51337C3.22489 3.697 3.96546 3.11792 4.49551 2.7038C5.02644 2.28917 5.59737 2.03596 6.03555 1.84833C6.37038 1.70502 6.60742 1.67017 7.19571 1.61591C7.78833 1.56126 8.88532 1.48105 9.62833 1.46943ZM5.48966 14.1979C5.48568 14.195 5.48209 14.1912 5.47794 14.1882C5.47454 14.1857 5.47034 14.1832 5.46622 14.1804C5.4742 14.1859 5.48184 14.1922 5.48966 14.1979ZM5.33243 14.1032C5.32959 14.1018 5.32654 14.0997 5.32364 14.0983C5.32158 14.0974 5.31911 14.0965 5.3168 14.0954C5.32203 14.0978 5.32725 14.1007 5.33243 14.1032Z" fill="black"/>
</svg>
