<svg width="24" height="24" viewBox="0 0 24 24" fill="none" xmlns="http://www.w3.org/2000/svg">
<path d="M13.6274 3.49837C14.1439 3.53201 14.5257 3.60872 15.0083 3.76887C15.4545 3.91703 16.0001 4.13963 16.4428 4.36946C16.899 4.60632 17.2294 4.84088 17.477 5.04036C17.7527 5.2625 17.9355 5.45151 18.2085 5.80891C18.4601 6.13843 18.8143 6.64212 19.1079 7.15364C19.4075 7.67566 19.6379 8.1907 19.8149 8.76106C19.9667 9.25008 20.0698 9.75461 20.1333 10.0921C20.2481 10.1297 20.3706 10.1797 20.4907 10.2493L20.5952 10.3157L20.7378 10.4202C21.0842 10.6907 21.5234 11.1531 21.8462 11.9115C22.0914 12.4878 22.4094 13.2452 22.4311 13.9857C22.4497 14.6238 22.448 15.2868 22.3413 15.7103C22.247 16.0834 21.9298 16.8813 21.2807 17.7327C20.9331 18.1887 20.5622 18.596 19.9194 18.8031C19.4429 18.9565 18.8455 19.1639 18.5141 19.2669C18.1882 19.3682 17.6528 19.483 16.3169 19.595C15.3453 19.6765 13.8213 19.7775 11.768 19.7747C9.72568 19.7719 7.23159 19.669 5.7485 19.556C4.25828 19.4424 3.72661 19.3167 3.29537 19.1673C3.05686 19.0847 2.60459 18.9514 2.25435 18.6195C1.88099 18.2655 1.55204 17.8892 1.30123 17.5267C1.07063 17.1933 0.830623 16.7657 0.769979 16.3245C0.737584 16.0884 0.665695 15.407 0.827596 14.3822C0.902807 13.9063 1.02596 13.4025 1.21529 13.013C1.54281 12.3393 1.90205 11.6464 2.85982 11.2542C3.05246 11.1754 3.24827 11.1037 3.43404 11.0404C3.46118 10.8059 3.49078 10.5842 3.53463 10.3665C3.60678 10.0086 3.70473 9.68885 3.89303 9.23469C4.07305 8.80057 4.34554 8.21703 4.63814 7.72005C4.93975 7.20786 5.252 6.80268 5.61959 6.42122C5.98679 6.04023 6.3983 5.69214 6.96041 5.33137C7.51542 4.97521 8.20643 4.61131 9.061 4.29817C9.90161 3.99022 10.8747 3.73858 11.6782 3.60774C12.4968 3.47448 13.1261 3.46575 13.6274 3.49837ZM13.4975 5.49446C13.1394 5.47116 12.6616 5.4736 11.9995 5.58137C11.322 5.6917 10.4714 5.91126 9.7485 6.1761C9.03967 6.43585 8.47993 6.73296 8.04049 7.01497C7.60857 7.2922 7.31744 7.5408 7.05904 7.80891C6.80126 8.07645 6.58453 8.35645 6.36178 8.73469C6.12992 9.12852 5.89719 9.62295 5.74068 10.0003C5.59267 10.3573 5.53677 10.5527 5.49459 10.762C5.48035 10.8327 5.47049 10.9068 5.45846 10.9857C5.63101 11.1528 5.74476 11.3814 5.76119 11.64C5.79418 12.1669 5.41328 12.6234 4.89791 12.6927C4.8826 12.6962 4.8579 12.7028 4.82369 12.7113C4.74601 12.7305 4.63549 12.7599 4.50533 12.7982C4.24292 12.8754 3.91822 12.9818 3.61764 13.1048C3.4743 13.1635 3.41018 13.2199 3.35103 13.2923C3.26578 13.3968 3.17536 13.5554 3.01412 13.887C2.95093 14.017 2.86602 14.2971 2.80318 14.6947C2.67819 15.4861 2.73953 15.9664 2.75142 16.0531C2.74707 16.021 2.76751 16.1312 2.94576 16.389C3.10173 16.6144 3.32975 16.8804 3.61275 17.1507C3.61741 17.1531 3.62422 17.1574 3.63326 17.1615C3.65857 17.1728 3.6957 17.1874 3.75045 17.2073C3.80662 17.2278 3.8686 17.2492 3.95064 17.2777C4.14394 17.3446 4.47744 17.4534 5.89986 17.5618C7.33039 17.6709 9.77537 17.772 11.771 17.7747C13.7549 17.7774 15.2208 17.6798 16.1499 17.6019C17.4391 17.4938 17.8035 17.3941 17.9204 17.3577C18.2785 17.2464 18.7141 17.0904 19.3061 16.8997C19.351 16.8853 19.3745 16.872 19.4106 16.8411C19.4643 16.7952 19.5454 16.7094 19.6899 16.5198C20.184 15.8717 20.3773 15.3183 20.4018 15.221C20.4023 15.2192 20.4049 15.2104 20.4077 15.1937C20.4107 15.1748 20.414 15.1483 20.4174 15.1156C20.4245 15.049 20.4301 14.9627 20.434 14.8558C20.4419 14.6403 20.4406 14.3668 20.4311 14.0433C20.4222 13.7443 20.2787 13.3371 20.0053 12.6947C19.8268 12.2754 19.6067 12.0742 19.4917 11.9876C19.4785 11.9842 19.4597 11.9786 19.435 11.974C19.3432 11.9566 19.2317 11.9444 19.0737 11.929C18.2564 11.9787 17.676 12.0774 17.4653 12.1224C17.3169 12.1609 17.0924 12.2266 16.8364 12.3011C16.8219 12.3082 16.8071 12.3153 16.7924 12.3226C16.7324 12.3526 16.6089 12.426 16.3295 12.6351C16.0598 12.837 15.6843 13.1434 15.4594 13.3372C15.331 13.4479 15.2611 13.5211 15.2172 13.5736C15.1745 13.6247 15.1396 13.6755 15.0854 13.763C15.0622 13.8007 15.0121 13.9043 14.9487 14.0784C14.8967 14.2211 14.8555 14.3771 14.8335 14.4915C14.8151 14.5871 14.8105 14.6484 14.8042 14.7611C14.7731 15.3125 14.3009 15.7345 13.7495 15.7034C13.1985 15.6719 12.777 15.1999 12.8081 14.6488C12.8152 14.5215 12.8246 14.3487 12.8696 14.1146C12.9111 13.8986 12.9802 13.6386 13.0698 13.3929C13.1478 13.179 13.2534 12.9232 13.3852 12.7103C13.5592 12.4291 13.7451 12.1738 14.1538 11.8216C14.4065 11.6039 14.8182 11.2679 15.1313 11.0335C15.4345 10.8066 15.6738 10.646 15.8989 10.5335C16.17 10.3981 16.5608 10.2092 17.1831 10.1146C17.5005 10.0663 17.7557 10.0309 17.937 10.0072C17.9868 10.0006 18.0321 9.99447 18.0717 9.98958C18.0251 9.7841 17.97 9.56399 17.9047 9.35383C17.7751 8.9362 17.6066 8.55587 17.3735 8.14973C17.1343 7.73301 16.8324 7.30277 16.6186 7.02278C16.4263 6.771 16.3529 6.70336 16.2221 6.59797C16.063 6.46976 15.843 6.31209 15.521 6.14485C15.1854 5.97066 14.7398 5.78731 14.3784 5.66731C14.0537 5.55956 13.8398 5.51677 13.4975 5.49446Z" fill="black"/>
</svg>
