<svg width="24" height="24" viewBox="0 0 24 24" fill="none" xmlns="http://www.w3.org/2000/svg">
<path d="M11.4541 19.6641C11.9456 19.501 12.4743 19.7406 12.6817 20.2032L12.7188 20.2979L12.753 20.4297C12.7608 20.468 12.7661 20.4999 12.7696 20.5225C12.7787 20.5816 12.7925 20.6822 12.8164 20.8594C12.865 21.2178 12.9578 21.9181 13.0528 22.6583C13.123 23.2059 12.7361 23.7069 12.1885 23.7774C11.6408 23.8477 11.1397 23.4609 11.0694 22.9131C10.9748 22.1761 10.8827 21.4806 10.835 21.128L10.793 20.8272C10.6843 20.3334 10.9638 19.8271 11.4541 19.6641ZM8.52445 17.627C9.07672 17.627 9.52442 18.0747 9.52445 18.627L9.52543 18.6563C9.52696 18.7078 9.52997 18.8083 9.53617 19.0069C9.54868 19.4076 9.57334 20.1903 9.59281 20.628C9.60245 20.8446 9.61039 20.9584 9.61625 21.0245C9.62128 21.0811 9.62441 21.1008 9.63187 21.1524C9.71097 21.6989 9.33175 22.2061 8.78519 22.2852C8.23879 22.3641 7.7315 21.985 7.65238 21.4385C7.63222 21.2993 7.61569 21.1872 7.59476 20.7169C7.57457 20.2629 7.5495 19.465 7.53715 19.0694C7.52524 18.6883 7.52445 18.6542 7.52445 18.627C7.52448 18.0748 7.9722 17.627 8.52445 17.627ZM15.5411 17.8487C16.0672 17.6811 16.6302 17.972 16.7979 18.4981C16.92 18.8814 17.0387 19.2542 17.1514 19.5879C17.275 19.9539 17.357 20.1759 17.4834 20.546C17.6617 21.0685 17.3829 21.637 16.8604 21.8155C16.3379 21.9939 15.7695 21.7148 15.5909 21.1924C15.4969 20.9174 15.3654 20.5497 15.2569 20.2286C15.1375 19.8752 15.0125 19.4849 14.8916 19.1055C14.7241 18.5794 15.0149 18.0163 15.5411 17.8487ZM10.8057 20.879C10.809 20.8912 10.8123 20.903 10.8155 20.9131L10.8203 20.9288C10.8117 20.9027 10.8053 20.8758 10.7989 20.8497C10.8008 20.8581 10.8028 20.8681 10.8057 20.879ZM11.5869 13.2403C12.1232 13.1081 12.6647 13.4355 12.7969 13.9717C12.8203 14.0665 12.8374 14.1568 12.8955 14.5499C12.9571 14.9659 13.0646 15.72 13.1299 16.1397C13.1459 16.2423 13.158 16.3189 13.168 16.376C13.1754 16.4183 13.1809 16.4468 13.1846 16.4649C13.3733 16.9401 13.173 17.4891 12.708 17.7247C12.2155 17.974 11.6139 17.7766 11.3643 17.2842C11.2481 17.0547 11.2114 16.8199 11.1534 16.4473C11.0867 16.0191 10.9753 15.2369 10.917 14.8428C10.8873 14.6417 10.8706 14.5386 10.8614 14.4844C10.8593 14.4722 10.8576 14.4629 10.8565 14.4571C10.8559 14.454 10.8557 14.4515 10.8555 14.4502C10.7234 13.9141 11.0508 13.3726 11.5869 13.2403ZM8.93656 0.704156C9.32721 0.684183 9.72824 0.693154 10.1455 0.745172C10.5775 0.799036 11.0022 0.896981 11.544 1.09283C12.0656 1.28138 12.6934 1.56095 13.1016 1.75884C13.8024 2.09859 14.222 2.47618 14.544 2.80377C14.8222 3.08691 15.0168 3.47562 15.1621 3.75884C15.369 4.16208 15.4626 4.61657 15.5703 5.40337C15.6509 5.992 15.6829 6.90584 15.7022 7.50982C16.2517 7.40196 16.9943 7.25459 17.4161 7.17486C18.4798 6.97387 19.0874 7.23259 19.8682 7.47173C20.6011 7.69623 21.1132 8.01226 21.4805 8.38384C21.656 8.56144 21.7899 8.7465 21.8868 8.90044L22.0733 9.23052L22.1719 9.42974C22.2616 9.6409 22.3314 9.89857 22.417 10.2803C22.5361 10.8112 22.6967 11.6909 22.7774 12.3653C22.8442 12.9239 22.858 13.3641 22.8379 13.7071C22.8191 14.0278 22.767 14.3337 22.6543 14.5792L22.6426 14.6055L22.6289 14.6319C22.475 14.9209 22.22 15.2998 21.8594 15.7364L21.8409 15.7588L21.8203 15.7813C21.5796 16.0398 21.3042 16.2757 20.959 16.5401C20.5208 16.8756 19.8926 16.7924 19.5567 16.3545C19.2209 15.9162 19.3041 15.2881 19.7422 14.9522C20.0308 14.7312 20.2059 14.5747 20.3379 14.4356C20.5805 14.1395 20.7353 13.91 20.8213 13.7637C20.8264 13.734 20.8357 13.6779 20.8409 13.5899C20.8524 13.3924 20.8484 13.0742 20.792 12.6026C20.7206 12.0058 20.5726 11.1936 20.4659 10.7178C20.412 10.4778 20.3758 10.3451 20.3516 10.2696C20.3405 10.2349 20.3334 10.2174 20.3311 10.212C20.2013 9.98166 20.1718 9.90468 20.0586 9.79009C19.961 9.69129 19.7539 9.52805 19.2832 9.38384C18.3909 9.11055 18.2778 9.04697 17.7871 9.1397C17.2414 9.24286 16.3127 9.43087 15.7237 9.544C15.4652 9.59364 15.2245 9.6388 15.0401 9.6524C14.9017 9.66257 14.3587 9.70157 13.9864 9.23052C13.8374 9.04194 13.7814 8.84668 13.7569 8.72076C13.7344 8.60538 13.7294 8.49327 13.7266 8.42193C13.7235 8.34429 13.7214 8.24922 13.7198 8.15435C13.718 8.05398 13.7165 7.93493 13.7119 7.79107C13.692 7.16016 13.6621 6.2089 13.5889 5.67388C13.4803 4.88056 13.417 4.73849 13.3828 4.67193C13.3001 4.51073 13.241 4.39919 13.1895 4.31353C13.1436 4.23723 13.1202 4.20962 13.1172 4.20611C12.8939 3.97891 12.6566 3.76617 12.2286 3.55865C11.8592 3.37963 11.2993 3.13093 10.8643 2.97369C10.4495 2.82376 10.1692 2.76342 9.8975 2.72955C9.61117 2.69388 9.329 2.68641 9.0391 2.70123C8.75859 2.71557 8.48502 2.74906 8.07816 2.8399C7.60848 2.94479 7.11578 3.06351 6.75101 3.21783C5.90814 3.57454 5.49828 3.79952 5.29984 3.97271C4.93488 4.29125 4.54347 4.65934 4.26566 5.11724C4.02644 5.5117 3.76081 6.06924 3.55863 6.82232C3.4723 7.14396 3.41523 7.44815 3.36918 8.22857C3.32176 9.03237 3.29093 10.2332 3.31742 11.0254C3.34297 11.7882 3.4188 12.1386 3.47953 12.3819C3.55077 12.6672 3.59184 12.7937 3.66996 12.9551C3.9519 13.5379 4.05423 13.6973 4.20414 13.8272C4.61753 14.1854 4.95926 14.4811 5.19828 14.6876C5.31738 14.7904 5.41224 14.8722 5.4766 14.9278C5.50861 14.9554 5.53427 14.9771 5.55179 14.9922C5.56034 14.9997 5.56757 15.0068 5.57328 15.0118C5.57598 15.0141 5.57969 15.0176 5.58304 15.0206C5.58472 15.022 5.5884 15.0243 5.59183 15.0274C5.59362 15.0291 5.59668 15.0326 5.60062 15.0362C5.60271 15.0381 5.61592 15.0495 5.6309 15.0645C6.02122 15.455 6.02135 16.0891 5.6309 16.4795C5.24053 16.8695 4.60727 16.8694 4.21683 16.4795C4.2479 16.5105 4.28558 16.5429 4.25882 16.5196C4.2556 16.5168 4.25038 16.5111 4.24222 16.504C4.2259 16.4898 4.201 16.4691 4.16898 16.4415C4.1045 16.3858 4.0106 16.3048 3.89066 16.2012C3.6512 15.9944 3.30899 15.698 2.89457 15.3389C2.3869 14.8991 2.1285 14.3602 1.87015 13.8262C1.7045 13.4838 1.6236 13.2047 1.5391 12.8663C1.44397 12.4852 1.34863 11.9953 1.3184 11.0928C1.28917 10.2196 1.32339 8.95283 1.37308 8.11041C1.42414 7.24525 1.49444 6.79759 1.62699 6.30377C1.87963 5.36272 2.22147 4.63123 2.5557 4.08013C3.00399 3.34114 3.5977 2.8034 3.98441 2.46587C4.45679 2.0536 5.15513 1.72121 5.97074 1.37603C6.52776 1.1403 7.19456 0.98759 7.64164 0.88775C8.15124 0.773948 8.53663 0.724623 8.93656 0.704156ZM16.3321 11.8419C16.881 11.7831 17.3737 12.1806 17.4327 12.7295C17.4853 13.2192 17.5377 13.7081 17.5772 14.0684C17.6178 14.439 17.6396 14.6256 17.6621 14.7579C17.6809 14.8681 17.6992 14.9306 17.7559 15.1368C17.9021 15.6691 17.5889 16.2197 17.0567 16.3663C16.5243 16.5126 15.9738 16.1993 15.8272 15.667C15.7752 15.478 15.7289 15.3191 15.6905 15.0938C15.6558 14.8903 15.6274 14.6378 15.5889 14.2862C15.5491 13.9232 15.4969 13.4315 15.4444 12.9424C15.3856 12.3935 15.7831 11.9009 16.3321 11.8419ZM7.89359 12.251C8.44366 12.202 8.92944 12.6082 8.97855 13.1583C9.03307 13.7692 9.08645 14.3694 9.12015 14.7012C9.13693 14.8664 9.14754 14.9461 9.15336 14.9854C9.15489 14.9958 9.15589 15.0017 9.15629 15.004C9.15661 15.0053 9.1567 15.0075 9.15726 15.0098C9.28942 15.5459 8.9619 16.0874 8.42582 16.2198C7.88989 16.3519 7.34843 16.0251 7.21586 15.4893C7.18466 15.3629 7.16621 15.2511 7.1309 14.9034C7.09563 14.5561 7.04027 13.9402 6.98636 13.336C6.93732 12.7859 7.34353 12.3001 7.89359 12.251Z" fill="black"/>
</svg>
