<svg width="24" height="24" viewBox="0 0 24 24" fill="none" xmlns="http://www.w3.org/2000/svg">
<path d="M1.52917 1.081C1.99779 0.788851 2.61488 0.9318 2.9071 1.40033C2.93166 1.43975 2.95933 1.49352 3.32703 1.96088C3.66003 2.38413 4.3149 3.20928 7.63464 6.44428C10.9583 9.6831 16.9019 15.2825 20.0028 18.2031C23.104 21.1239 23.1647 21.1785 23.2401 21.248C23.646 21.6223 23.6718 22.255 23.2977 22.6611C22.9235 23.0668 22.2906 23.0926 21.8846 22.7187C21.8058 22.646 21.7381 22.5828 19.3085 20.2949C19.3017 20.2954 19.2948 20.2974 19.288 20.2978C17.626 20.3952 15.9716 20.4064 14.8846 20.4433C13.8307 20.4791 13.0968 20.5469 12.0438 20.5517C11.0189 20.5564 9.52203 20.5547 8.50964 20.4072C7.1709 20.212 6.37403 20.0279 5.84656 19.7148C5.34484 19.4169 4.5767 18.8721 3.77722 17.8954C3.36902 17.3967 2.95565 16.809 2.66003 16.2871C2.22605 15.5208 1.9071 14.9241 1.79773 14.4511C1.69348 14.0002 1.46374 13.1294 1.55359 11.8857C1.60319 11.1991 1.65077 10.6153 1.69812 10.164C1.74083 9.75707 1.79334 9.34153 1.88171 9.07709C1.99766 8.73022 2.15008 8.35497 2.59363 7.69525C3.23035 6.74822 3.73978 6.01005 3.99597 5.64936C2.51541 4.14567 2.05307 3.57637 1.75476 3.19721C1.37596 2.71573 1.29384 2.59365 1.20984 2.45893C0.91774 1.99039 1.06082 1.37328 1.52917 1.081ZM5.43152 7.08295C5.16908 7.46073 4.7592 8.05828 4.25281 8.81146C4.07441 9.07681 3.9727 9.25734 3.90906 9.38666C3.84823 9.51028 3.81426 9.60301 3.7782 9.71088C3.78255 9.69789 3.77018 9.73837 3.7489 9.87494C3.72969 9.99827 3.70832 10.1632 3.6864 10.372C3.64257 10.7896 3.59803 11.3475 3.54871 12.0302C3.48266 12.9445 3.64378 13.5537 3.74695 13.9999C3.77733 14.1314 3.92167 14.4567 4.40027 15.3017C4.62893 15.7054 4.97344 16.1993 5.32507 16.6288C5.95143 17.394 6.52881 17.7942 6.86706 17.9951C7.003 18.0758 7.40734 18.2259 8.79773 18.4287C9.63265 18.5504 10.9692 18.5576 12.035 18.5527C13.0727 18.5479 13.6141 18.4852 14.8173 18.4443C15.5212 18.4204 16.3619 18.4058 17.2762 18.3788C14.0162 15.3063 9.13909 10.7018 6.23914 7.87592C5.95065 7.59479 5.68253 7.33017 5.43152 7.08295ZM11.8641 2.82123C12.7042 2.79505 13.2168 2.9786 13.5702 3.10541C13.7833 3.1819 13.9728 3.31069 14.1063 3.40912C14.2568 3.52015 14.42 3.65758 14.5897 3.80951C14.93 4.11411 15.3457 4.52304 15.8212 5.01068C16.7352 5.94811 17.0678 6.73238 17.2333 7.13568C17.4823 7.74248 17.5417 8.40568 17.579 8.85053C17.5952 9.04476 17.5884 9.24752 17.5721 9.44428C17.8089 9.4433 18.0881 9.44004 18.411 9.43549C19.6553 9.41794 20.518 9.73735 20.912 9.87103C21.5034 10.0717 21.9634 10.5329 22.2772 10.9306C22.6105 11.353 22.8863 11.8411 23.077 12.2802C23.5387 13.3432 23.1378 14.3517 22.9852 14.8076L22.9677 14.8613L22.9432 14.9121C22.6267 15.5935 22.4704 15.8992 22.2753 16.1415L22.2694 16.1494L22.2626 16.1572C22.1909 16.2427 22.1368 16.302 21.993 16.4824C21.6488 16.9142 21.0197 16.9857 20.5878 16.6415C20.1561 16.2973 20.0846 15.6681 20.4286 15.2363C20.58 15.0463 20.6682 14.9439 20.7177 14.8857C20.7218 14.8807 20.7446 14.8528 20.8007 14.748C20.8642 14.6292 20.9558 14.4399 21.1053 14.1191C21.295 13.5472 21.3445 13.3129 21.2421 13.0771C21.1092 12.7714 20.918 12.4364 20.7069 12.1689C20.4763 11.8768 20.3129 11.7803 20.2694 11.7656C19.8939 11.6382 19.3134 11.4232 18.4393 11.4355C17.8404 11.4439 17.2953 11.453 16.9091 11.4345C16.7279 11.4258 16.5008 11.4082 16.3007 11.3544C16.2107 11.3302 16.0171 11.272 15.8339 11.124C15.6008 10.9355 15.3721 10.5778 15.4501 10.1191L15.5594 9.47162C15.5851 9.29471 15.5969 9.14991 15.5858 9.01752C15.5467 8.55032 15.5003 8.17996 15.3837 7.89545C15.2687 7.61523 15.0553 7.08894 14.3895 6.40619C13.9243 5.92907 13.5453 5.55893 13.2557 5.29975C13.1107 5.16991 13.0001 5.07775 12.9198 5.0185C12.8888 4.99564 12.8672 4.98214 12.8553 4.97455C12.7176 4.92536 12.6127 4.88926 12.4852 4.86225C12.3514 4.8339 12.1747 4.81254 11.9266 4.82025C10.826 4.85464 9.7676 4.93522 9.00281 5.02729C8.45465 5.09305 7.9565 4.70242 7.8905 4.15424C7.82476 3.60612 8.2164 3.10797 8.76453 3.04193C9.5955 2.94191 10.7128 2.8572 11.8641 2.82123Z" fill="black"/>
</svg>
