<svg width="24" height="24" viewBox="0 0 24 24" fill="none" xmlns="http://www.w3.org/2000/svg">
<path d="M11.8098 10.858C12.145 10.4195 12.7724 10.3356 13.2111 10.6705C13.6499 11.0058 13.7339 11.634 13.3986 12.0728C12.4758 13.2807 11.5585 14.4809 10.9494 15.2965C11.5502 15.231 12.2349 15.1597 12.8723 15.1041C13.9775 15.0077 14.9795 14.9552 15.5207 14.9928C15.5897 14.9976 15.691 15.0066 15.7961 15.0279C15.8888 15.0468 16.0817 15.0935 16.2727 15.2301C16.5077 15.3983 16.6848 15.6645 16.7229 15.9918C16.7539 16.2602 16.6801 16.4778 16.635 16.5885C16.5463 16.806 16.3945 17.0173 16.2727 17.1803C16.1339 17.3658 15.9493 17.5965 15.7248 17.8726C14.8176 18.9888 13.0578 21.1079 11.2404 23.3062C10.8886 23.7318 10.2579 23.7917 9.83223 23.44C9.40662 23.0882 9.3467 22.4575 9.69844 22.0318C11.3111 20.0811 12.8627 18.2079 13.8234 17.0348C13.5829 17.0513 13.3225 17.0722 13.0461 17.0963C11.9486 17.192 10.7043 17.3364 9.99239 17.4156C9.68854 17.4494 9.40172 17.4865 9.26778 17.4996C9.20612 17.5056 9.06698 17.5196 8.92501 17.5055C8.85394 17.4983 8.68895 17.4774 8.51094 17.3805C8.29268 17.2616 8.09611 17.05 8.0129 16.7574C7.93028 16.4663 7.99985 16.2216 8.01778 16.1588C8.04647 16.0583 8.08476 15.9712 8.11446 15.9098C8.17549 15.7835 8.25902 15.6436 8.35274 15.4976C8.54425 15.1994 8.84527 14.7736 9.28438 14.1842C9.90125 13.3562 10.8587 12.1029 11.8098 10.858ZM8.09981 0.548429C8.61336 0.493448 9.09042 0.515377 9.71309 0.610929C10.3327 0.706036 11.1169 0.892454 11.8273 1.1373C12.5516 1.38695 13.1666 1.68851 13.718 2.00253C14.7601 2.59609 15.4932 3.19278 15.9582 3.83261C16.6188 4.74194 16.8407 5.81034 16.966 6.62655C17.0236 7.002 17.0572 7.3231 17.0773 7.59823C17.2124 7.57074 17.3568 7.54415 17.509 7.51913C18.1475 7.41416 18.6785 7.39194 19.0861 7.4078C19.3593 7.41844 19.6294 7.44822 19.8498 7.50448L20.052 7.56991L20.2424 7.66269C20.4225 7.76468 20.5717 7.88827 20.6789 7.983C20.8311 8.11747 20.9927 8.28009 21.1311 8.41757C21.4142 8.69887 21.634 9.08961 21.8029 9.42538C21.9827 9.78289 22.1628 10.2008 22.3371 10.607C22.8223 11.7374 22.5295 12.9004 22.0969 13.9205C21.7958 14.6303 21.2696 14.9682 20.7385 15.3912L20.7014 15.4205L20.6613 15.4469C20.3308 15.6621 19.8489 15.9404 19.5383 16.1021C19.1818 16.2877 18.9855 16.3511 18.7258 16.3971C18.182 16.4931 17.6628 16.1302 17.5666 15.5865C17.4708 15.0429 17.8336 14.5235 18.3772 14.4273C18.4062 14.4222 18.4163 14.4204 18.4201 14.4195C18.4212 14.4192 18.4227 14.4181 18.427 14.4166C18.4425 14.4111 18.4926 14.3916 18.6154 14.3277C18.8622 14.1992 19.2654 13.9649 19.5393 13.7887C19.8639 13.5308 20.0142 13.4182 20.132 13.3072C20.2085 13.2352 20.229 13.204 20.2561 13.1402C20.6308 12.2565 20.6515 11.751 20.4992 11.3961C20.3198 10.9782 20.1636 10.6176 20.0158 10.3238C19.8571 10.0083 19.758 9.87242 19.7219 9.83651C19.5619 9.67759 19.4517 9.56779 19.3547 9.48202C19.3294 9.45969 19.3081 9.44295 19.2922 9.43026C19.2303 9.42099 19.1351 9.4108 19.008 9.40585C18.7394 9.39542 18.3432 9.40893 17.8332 9.49276C17.3679 9.56928 16.9908 9.6673 16.7082 9.74179C16.5843 9.77446 16.4279 9.81666 16.3068 9.83944C16.2605 9.84814 16.1223 9.87478 15.965 9.86386C15.8917 9.85874 15.6994 9.83943 15.4963 9.71737C15.2356 9.56062 15.0335 9.27711 15.0061 8.92441C14.9956 8.78924 15.0141 8.6812 15.0246 8.62948C15.0356 8.57565 15.0491 8.53119 15.0539 8.51523C15.0712 8.45814 15.0645 8.4842 15.0715 8.45956C15.0736 8.45191 15.0833 8.4159 15.091 8.33358C15.1081 8.15133 15.114 7.74196 14.9895 6.93026C14.8724 6.16766 14.7029 5.50798 14.34 5.00839C14.1074 4.68832 13.6423 4.26171 12.7277 3.74081C12.2576 3.47305 11.7571 3.22924 11.176 3.0289C10.5809 2.82379 9.913 2.66478 9.40938 2.58749C8.90896 2.51071 8.61136 2.50571 8.3127 2.53769C7.4451 2.63061 6.98303 2.71038 6.76973 2.80136C6.44576 2.93977 6.05681 3.12665 5.59786 3.58651C5.18866 3.9966 4.83382 4.34521 4.53536 4.67441C4.2329 5.00803 4.0502 5.25602 3.95918 5.44198C3.66225 6.04925 3.47754 6.50019 3.42598 7.22714C3.38026 7.87265 3.34732 8.91433 3.35958 9.58456C3.37156 10.2383 3.41506 10.479 3.48262 10.7242C3.68067 11.4428 3.84264 12.0671 4.41231 12.8873C4.85589 13.5258 5.59766 14.467 5.98555 14.9557C6.17777 15.1978 6.27009 15.3127 6.31368 15.3658C6.48748 15.5456 6.59474 15.7904 6.59493 16.0601C6.59493 16.6124 6.14714 17.0601 5.59493 17.0601C5.58098 17.0602 5.44785 17.0635 5.29024 17.0133C5.1516 16.969 5.05324 16.9043 5.00313 16.8678C4.9177 16.8054 4.85944 16.7401 4.85372 16.734C4.82267 16.7006 4.79072 16.6623 4.76778 16.6344C4.71199 16.5664 4.60976 16.439 4.41915 16.1988C4.03975 15.7209 3.25631 14.7293 2.76973 14.0289C1.99068 12.9074 1.7583 11.9936 1.55489 11.2555C1.42792 10.7947 1.37338 10.3745 1.35958 9.62069C1.34608 8.88264 1.3816 7.78111 1.43086 7.08554C1.50869 5.98844 1.81779 5.26965 2.16329 4.56308C2.38111 4.11789 2.71687 3.70135 3.05293 3.33066C3.39321 2.95534 3.79833 2.55777 4.18184 2.17343C4.88686 1.46697 5.5276 1.15634 5.9836 0.961515C6.52823 0.728933 7.32046 0.631902 8.09981 0.548429ZM5.7336 15.0709C5.71969 15.0689 5.70602 15.0664 5.69258 15.065C5.64282 15.0601 5.59979 15.0601 5.59493 15.0601C5.64194 15.0602 5.68832 15.0646 5.7336 15.0709Z" fill="black"/>
</svg>
