<svg width="24" height="24" viewBox="0 0 24 24" fill="none" xmlns="http://www.w3.org/2000/svg">
<path d="M11.8663 19.5319C12.4185 19.5319 12.8662 19.9797 12.8663 20.5319V20.5056C12.867 20.5199 12.8685 20.549 12.8712 20.6071C12.8766 20.7226 12.8859 20.9311 12.9112 21.1628C12.9711 21.7117 12.5744 22.2053 12.0255 22.2653C11.4769 22.3248 10.983 21.9283 10.923 21.3796C10.8904 21.0817 10.8788 20.8206 10.8732 20.6999C10.8689 20.6075 10.8663 20.5647 10.8663 20.5319C10.8664 19.9799 11.3143 19.5322 11.8663 19.5319ZM15.8165 17.7644C16.3687 17.7645 16.8165 18.2122 16.8165 18.7644C16.8165 18.77 16.8163 18.8994 16.8185 19.1081L16.8224 19.1872C16.8245 19.2256 16.8267 19.273 16.8282 19.3415C16.831 19.4638 16.8312 19.6597 16.8312 19.8405C16.8311 20.3926 16.3831 20.8403 15.8312 20.8405C15.2789 20.8405 14.8313 20.3927 14.8312 19.8405C14.8312 19.6477 14.8313 19.4801 14.8292 19.3864L14.8194 19.1618V19.153L14.8185 19.1452C14.8161 18.9166 14.8165 18.773 14.8165 18.7644C14.8165 18.2121 15.2642 17.7644 15.8165 17.7644ZM8.02452 17.9431C8.57681 17.9431 9.02452 18.3908 9.02452 18.9431V18.945C9.02474 18.9596 9.02561 18.9888 9.02647 19.0456C9.02821 19.1595 9.03168 19.3853 9.03526 19.6179C9.04368 20.1699 8.60286 20.6248 8.05089 20.6335C7.49894 20.6418 7.04388 20.2011 7.03526 19.6491C7.03168 19.4165 7.02822 19.19 7.02647 19.0759C7.02487 18.971 7.02452 18.9551 7.02452 18.9431C7.02452 18.3909 7.47244 17.9433 8.02452 17.9431ZM10.9523 2.00167C11.3405 2.01066 11.6688 2.04449 12.0167 2.14132C12.3667 2.23877 12.6971 2.39073 13.0499 2.62472C13.3999 2.85691 13.761 3.16363 14.1817 3.59933C14.596 4.02822 15.0793 4.59539 15.4181 5.04171C15.7784 5.51649 15.9762 5.85958 16.1808 6.31222C16.3707 6.73251 16.5658 7.24605 16.6944 7.62179C16.8356 8.03405 16.9094 8.3215 16.9601 8.79854C16.9793 8.97979 16.9942 9.19069 17.0069 9.40011C17.1983 9.3523 17.3999 9.31238 17.6192 9.2839C18.0167 9.23231 18.449 9.22008 18.755 9.22628C19.1031 9.23337 19.3379 9.26769 19.6466 9.35616C19.9073 9.43088 20.2284 9.5462 20.4737 9.64815C20.9378 9.84101 21.2601 10.0617 21.5108 10.2448C21.8764 10.512 22.1868 10.9135 22.4405 11.2829C22.7837 11.7826 22.8911 12.2647 22.9444 12.5056C23.0768 13.1036 22.9438 13.6449 22.8282 14.1833C22.7286 14.6476 22.5225 15.3074 22.4064 15.6794C22.2768 16.0942 22.1899 16.3165 22.0401 16.5769C21.9114 16.8007 21.7449 17.0398 21.5343 17.2878C21.1127 17.7841 20.7201 18.119 20.4444 18.3044C19.9861 18.6126 19.3639 18.4903 19.0558 18.0319C18.7481 17.5737 18.8701 16.9523 19.3282 16.6442C19.4314 16.5748 19.69 16.3694 20.0099 15.9929C20.1474 15.8309 20.2426 15.6903 20.3067 15.5788C20.3348 15.5301 20.3534 15.4943 20.3761 15.4382C20.4031 15.3711 20.4393 15.268 20.4972 15.0827C20.6227 14.6808 20.7958 14.1197 20.8722 13.7644C21.0141 13.1034 21.0107 13.0259 20.9913 12.9382C20.9472 12.7387 20.9045 12.5785 20.7921 12.4148C20.5575 12.0732 20.406 11.9139 20.3312 11.8591C20.1377 11.7177 19.961 11.6007 19.7062 11.4948C19.5204 11.4177 19.2724 11.3286 19.0958 11.278C18.9675 11.2413 18.9052 11.2302 18.714 11.2263C18.4803 11.2215 18.1518 11.2317 17.8771 11.2673C17.6183 11.3009 17.4006 11.3575 17.1691 11.4372C17.0474 11.4791 16.9225 11.5268 16.8019 11.5739C16.6984 11.6143 16.5594 11.6698 16.4601 11.7028C16.4123 11.7187 16.3197 11.7476 16.212 11.7634C16.1561 11.7716 15.8025 11.8302 15.4601 11.5925C15.0406 11.3012 15.0223 10.859 15.0216 10.7526C15.0212 10.6831 15.0275 10.6263 15.0304 10.6032C15.0321 10.5898 15.0342 10.578 15.0353 10.571C15.0361 10.5652 15.0371 10.5561 15.0372 10.5554L15.0411 10.5066C15.0432 10.461 15.0446 10.3748 15.0411 10.2185C15.0339 9.89386 15.0082 9.36209 14.9708 9.00948C14.9386 8.70618 14.9035 8.56626 14.8019 8.26925C14.6875 7.93532 14.5156 7.48418 14.3585 7.13643C14.2161 6.82134 14.0953 6.60751 13.8253 6.25167C13.5333 5.86692 13.1003 5.35972 12.7423 4.98897C12.3911 4.6253 12.1415 4.42139 11.9444 4.29073C11.7504 4.16206 11.6105 4.10428 11.4806 4.06808C11.3484 4.03129 11.1988 4.00845 10.9054 4.00167C10.6079 3.99481 10.2245 4.00499 9.76476 4.05929C9.29337 4.11498 8.75192 4.21455 8.43956 4.28097C8.28222 4.31443 8.22116 4.33165 8.19151 4.34151C8.17666 4.34648 8.16378 4.35133 8.10167 4.3835C7.96595 4.45384 7.77178 4.56295 7.56358 4.71163C7.3604 4.85678 7.15027 5.03316 6.92198 5.28975C6.68626 5.55479 6.43751 5.8974 6.21983 6.29268C6.00332 6.68593 5.81684 7.12899 5.64464 7.67257C5.46236 8.2481 5.30071 8.85355 5.23155 9.2712C5.16816 9.65437 5.13279 9.91505 5.10167 10.1179C5.08767 10.2091 5.07121 10.3113 5.05186 10.3982C5.04244 10.4404 5.025 10.51 4.99718 10.5857C4.98251 10.6255 4.90916 10.8344 4.71202 11.0124C4.65075 11.0677 4.6227 11.0874 4.52647 11.1814C4.43658 11.2691 4.30111 11.4107 4.1212 11.6247C3.89515 11.8936 3.60414 12.2725 3.43468 12.5095C3.34805 12.6306 3.3077 12.6933 3.28429 12.7331C3.26706 12.7624 3.25625 12.784 3.23936 12.8259C3.09001 13.1964 3.00775 13.4555 3.00108 13.6345C2.99493 13.8053 3.00754 13.9993 3.10558 14.3464C3.1769 14.5989 3.28087 14.9241 3.37608 15.1618C3.45468 15.358 3.51578 15.472 3.67686 15.6755C3.86481 15.9129 4.14902 16.2208 4.44151 16.4743C4.73458 16.7283 5.04125 16.9347 5.213 17.0485C5.27428 17.0892 5.30983 17.1122 5.32921 17.1247C5.63707 17.2951 5.84567 17.623 5.84581 17.9997C5.84581 18.5519 5.39802 18.9996 4.84581 18.9997C4.80786 18.9997 4.70267 18.9985 4.57433 18.9626C4.48395 18.9373 4.41699 18.9044 4.39269 18.8923C4.34314 18.8675 4.30186 18.841 4.29015 18.8337C4.25258 18.8103 4.19516 18.7736 4.10753 18.7155C3.92377 18.5937 3.52747 18.3288 3.13194 17.986C2.73576 17.6427 2.36605 17.242 2.10851 16.9167C1.82432 16.5577 1.66766 16.2754 1.51964 15.906C1.38829 15.578 1.26318 15.1786 1.18175 14.8903C1.03422 14.368 0.988548 13.9661 1.00304 13.5632C1.02382 12.9884 1.24408 12.4247 1.3839 12.0778C1.49096 11.8123 1.60447 11.6307 1.80772 11.3464C2.00483 11.0708 2.32823 10.6501 2.59093 10.3376C2.81093 10.0759 2.99012 9.8863 3.12901 9.75069C3.1306 9.74904 3.13229 9.74639 3.1339 9.74483C3.16058 9.56661 3.20132 9.29303 3.2589 8.94503C3.35087 8.38937 3.54505 7.67951 3.73839 7.06905C3.94183 6.42677 4.17594 5.85806 4.46788 5.32784C4.75877 4.79961 5.09469 4.33524 5.42784 3.96065C5.76799 3.57831 6.0935 3.30467 6.40147 3.08468C6.70461 2.86818 6.98296 2.70965 7.18077 2.60714C7.45047 2.46741 7.63347 2.40787 8.02354 2.32491C8.37706 2.24974 8.98084 2.13779 9.5294 2.07296C10.0895 2.00679 10.568 1.99279 10.9523 2.00167ZM12.0939 12.5407C12.6461 12.5407 13.0939 12.9884 13.0939 13.5407C13.0939 13.6138 13.0851 13.6832 13.0821 13.7097C13.0818 13.7122 13.0717 13.7716 13.0538 14.4392C13.036 15.1045 13.0116 16.3421 12.9864 17.6237C12.9755 18.1758 12.519 18.614 11.9669 18.6032C11.415 18.5922 10.9758 18.1366 10.9864 17.5847C11.0115 16.3072 11.0358 15.0599 11.0538 14.3855C11.0716 13.7186 11.0839 13.5834 11.0948 13.486C11.096 13.4753 11.0963 13.4681 11.0968 13.4636C11.0973 13.4588 11.098 13.4589 11.0978 13.4616C11.0976 13.4637 11.0966 13.4735 11.0958 13.487C11.0957 13.4889 11.0949 13.4908 11.0948 13.4929C11.0944 13.5023 11.0941 13.5126 11.0939 13.5232C11.0937 13.5321 11.0939 13.54 11.0939 13.5407C11.0939 12.9886 11.5417 12.5409 12.0939 12.5407ZM8.16515 12.446C8.71743 12.446 9.16515 12.8937 9.16515 13.446V15.5564C9.165 16.1085 8.71734 16.5564 8.16515 16.5564C7.61299 16.5563 7.16529 16.1085 7.16515 15.5564V13.446C7.16515 12.8937 7.6129 12.446 8.16515 12.446ZM15.7999 12.781C16.3522 12.781 16.7999 13.2287 16.7999 13.781V13.8064C16.8005 13.8406 16.8024 13.9068 16.8048 14.0349C16.8097 14.2923 16.8192 14.799 16.8292 15.321C16.8396 15.873 16.4007 16.3298 15.8487 16.3405C15.2969 16.351 14.8402 15.9119 14.8292 15.3601C14.8192 14.8378 14.8097 14.3297 14.8048 14.072C14.8001 13.8247 14.7999 13.8008 14.7999 13.781C14.7999 13.2287 15.2477 12.7811 15.7999 12.781Z" fill="black"/>
</svg>
