<svg width="24" height="24" viewBox="0 0 24 24" fill="none" xmlns="http://www.w3.org/2000/svg">
<path d="M11.6198 5.45627C11.7282 4.91509 12.2553 4.56412 12.7966 4.67209C12.8771 4.68817 12.9142 4.69453 12.9362 4.69748H12.9372C12.9565 4.69826 12.9946 4.70011 13.0739 4.70139C13.2319 4.70392 13.5174 4.70682 14.0671 4.71311C15.1632 4.72566 17.2931 4.75074 19.487 4.77659C20.0392 4.78309 20.4817 5.23614 20.4753 5.7883C20.4687 6.34043 20.0157 6.78309 19.4636 6.77659C17.2693 6.75074 15.1393 6.72565 14.0437 6.71311C13.9841 6.71243 13.9275 6.7108 13.8737 6.71018C13.8119 7.03992 13.7102 7.62462 13.5437 8.67307C13.4005 9.57401 13.2125 10.8104 13.0134 12.1164C13.0279 12.1158 13.0426 12.1145 13.0573 12.1145H13.0622C13.0744 12.1143 13.0977 12.114 13.1433 12.1135C13.2353 12.1124 13.4166 12.1101 13.7761 12.1057C14.4957 12.0968 15.9293 12.079 17.406 12.0608C17.958 12.054 18.4117 12.496 18.4187 13.0481C18.4252 13.6 17.9824 14.0539 17.4304 14.0608C15.9542 14.079 14.5213 14.0968 13.8015 14.1057C13.0915 14.1144 13.0714 14.1145 13.0573 14.1145C12.9378 14.1145 12.8237 14.0914 12.7175 14.053C12.5137 15.4009 12.3203 16.6861 12.1804 17.6203C11.8381 19.9065 11.8355 19.9469 11.8298 19.9875C11.8271 20.0065 11.8237 20.0296 11.823 20.0344C11.8217 20.0427 11.8214 20.0469 11.821 20.05C11.8204 20.0544 11.8184 20.068 11.8171 20.0969C11.8142 20.1605 11.8122 20.2947 11.8269 20.5481C11.8586 21.0992 11.4376 21.5718 10.8864 21.6037C10.3356 21.6352 9.86284 21.2142 9.83077 20.6633C9.81362 20.3672 9.81194 20.1599 9.81905 20.0051C9.82673 19.8383 9.84633 19.7322 9.84933 19.7112C9.85649 19.6597 9.85985 19.6087 10.2019 17.3244C10.5441 15.039 11.2071 10.6382 11.5691 8.35959C11.7318 7.33522 11.8354 6.73162 11.903 6.36838C11.6689 6.13969 11.551 5.80106 11.6198 5.45627ZM6.97237 2.28342C7.05428 2.29467 7.14051 2.30711 7.22921 2.32346L7.50362 2.38596L7.52999 2.39377L7.55538 2.40256C7.96698 2.5426 8.41402 2.80893 9.04464 3.41037L9.12667 3.48948L9.18917 3.5842C9.46662 4.00534 9.94472 4.73729 9.75362 5.7219C9.6175 6.4232 9.37874 7.35866 8.5671 7.95041C8.29573 8.14824 7.79718 8.49687 7.1296 8.66721C6.81544 8.74737 6.33444 8.87428 5.86104 8.79026C5.38454 8.70562 4.52067 8.55431 3.86886 7.71799C3.72364 7.53167 3.49103 7.24411 3.31612 6.92698C3.13185 6.59278 2.96532 6.14812 3.00558 5.61838C3.04494 5.10042 3.13769 4.20132 3.821 3.58616C4.30189 3.15335 4.93985 2.75168 5.91085 2.7551C5.93434 2.75519 5.95813 2.75597 5.98116 2.75608C6.18148 2.42533 6.56494 2.22764 6.97237 2.28342ZM7.54366 4.74631C7.42909 4.77786 7.30798 4.79148 7.18429 4.77951L7.16378 4.77659C7.15527 4.77598 7.13716 4.77495 7.10714 4.77366C7.04757 4.77108 6.9601 4.76836 6.84542 4.76584C6.61707 4.76083 6.2959 4.75654 5.90401 4.7551C5.58416 4.75395 5.40467 4.85129 5.1589 5.07248C5.15218 5.07855 5.11946 5.10968 5.0837 5.2258C5.04491 5.35199 5.01837 5.52433 4.99972 5.76975C4.99889 5.78064 4.99646 5.83127 5.06808 5.96116C5.14904 6.10787 5.26467 6.25458 5.44698 6.4885C5.59496 6.67826 5.75944 6.73897 6.19893 6.8176C6.20849 6.81729 6.23 6.81704 6.26632 6.81174C6.34934 6.79962 6.46104 6.77421 6.63546 6.72971C6.91549 6.6582 7.15747 6.50252 7.38839 6.3342C7.52041 6.23796 7.65817 6.02392 7.79073 5.34104C7.81215 5.23065 7.79921 5.12696 7.57589 4.77561C7.56505 4.76561 7.55419 4.7559 7.54366 4.74631Z" fill="black"/>
</svg>
