<svg width="24" height="24" viewBox="0 0 24 24" fill="none" xmlns="http://www.w3.org/2000/svg">
<path d="M19.7259 19.7444C20.2779 19.7387 20.7296 20.1818 20.7357 20.7336C20.7415 21.2859 20.2987 21.7386 19.7465 21.7444C16.3187 21.7803 12.9912 21.8148 11.3256 21.8323C9.66708 21.8496 9.65216 21.8498 9.64098 21.8498C9.08891 21.8496 8.64098 21.402 8.64098 20.8498C8.64134 20.298 9.08913 19.8501 9.64098 19.8498H9.65954C9.6863 19.8496 9.73982 19.849 9.84411 19.8479C10.0538 19.8457 10.4725 19.841 11.305 19.8323C12.9709 19.8148 16.2983 19.7803 19.7259 19.7444ZM6.33044 19.5217C6.88124 19.4833 7.35919 19.8996 7.39782 20.4504C7.4361 21.0011 7.02078 21.4792 6.47008 21.5178C5.93744 21.5551 5.46955 21.5743 5.15368 21.5842C4.83366 21.5942 4.66947 21.594 4.5111 21.594C3.95882 21.594 3.5111 21.1463 3.5111 20.594C3.51138 20.0419 3.95899 19.594 4.5111 19.594C4.65768 19.594 4.7995 19.5943 5.09118 19.5852C5.38719 19.5759 5.82874 19.5568 6.33044 19.5217ZM19.6595 16.2102C20.2118 16.2102 20.6595 16.6579 20.6595 17.2102C20.6593 17.7623 20.2117 18.2102 19.6595 18.2102H16.0658C15.5137 18.2101 15.066 17.7622 15.0658 17.2102C15.0658 16.658 15.5136 16.2103 16.0658 16.2102H19.6595ZM13.0189 15.636C13.5708 15.6281 14.0243 16.0695 14.0326 16.6213C14.0405 17.1735 13.5994 17.6281 13.0472 17.636C9.73175 17.6832 6.5134 17.7292 4.85973 17.7522C3.21116 17.7751 3.11541 17.7746 3.02087 17.7746C2.46858 17.7746 2.02087 17.3269 2.02087 16.7746C2.0213 16.2227 2.46885 15.7746 3.02087 15.7746C3.09757 15.7746 3.17381 15.7752 4.83141 15.7522C6.4845 15.7292 9.70288 15.6832 13.0189 15.636ZM9.33923 2.00217C9.80187 1.9928 10.3798 2.02166 10.9945 2.04807C12.0724 2.09445 12.9048 2.44392 13.6185 2.74436C14.5788 3.14859 15.3017 3.8108 15.767 4.26291C16.2245 4.70762 16.4418 5.10424 16.6263 5.50608C16.9551 6.22226 17.1593 7.09365 17.3011 7.97385C17.458 7.92546 17.609 7.90108 17.7386 7.88694C18.0017 7.8583 18.2686 7.86696 18.5004 7.88499C18.7351 7.90326 18.9702 7.93403 19.1683 7.96116C19.379 7.99 19.5374 8.01243 19.6703 8.02463C20.0863 8.06278 20.4488 8.15174 20.8246 8.3469C21.1625 8.52248 21.4793 8.77008 21.8168 9.04124C22.1344 9.29648 22.3365 9.55618 22.4779 9.78245L22.6009 9.99631L22.6908 10.1916C22.8731 10.6557 22.8699 11.1683 22.849 11.5002C22.8218 11.9304 22.7422 12.3362 22.682 12.5764C22.5522 13.0941 22.1984 13.5747 21.8275 13.9953L21.8031 14.0227L21.7777 14.0481C21.6206 14.2021 21.4037 14.4002 21.2611 14.5246C21.0864 14.6771 20.9828 14.7505 20.7992 14.8596C20.3245 15.1412 19.711 14.9856 19.4291 14.511C19.1472 14.0364 19.3036 13.4231 19.7777 13.1408C19.8329 13.108 19.8489 13.0965 19.8578 13.0901C19.8679 13.0827 19.8885 13.0676 19.9457 13.0178C20.0569 12.9208 20.2272 12.7626 20.3509 12.6428C20.4936 12.479 20.5941 12.3489 20.6595 12.2463C20.7219 12.1486 20.7389 12.0989 20.7416 12.091C20.7796 11.9392 20.8351 11.6559 20.8529 11.3742C20.8617 11.2348 20.8603 11.1162 20.85 11.0256C20.8443 10.9761 20.8367 10.9472 20.8334 10.9348L20.8392 10.9416L20.7836 10.844C20.7657 10.8153 20.7478 10.7895 20.7289 10.7649C20.6921 10.717 20.6411 10.6619 20.5638 10.5998C20.2123 10.3173 20.0391 10.1936 19.9017 10.1223C19.8022 10.0707 19.7026 10.0365 19.4877 10.0168C19.2982 9.99942 19.0813 9.96786 18.8968 9.9426C18.6992 9.91555 18.5158 9.89242 18.3451 9.87913C18.1717 9.86565 18.0436 9.86562 17.9554 9.87522C17.9364 9.87731 17.9218 9.88016 17.9115 9.88206C17.7487 9.99457 17.5624 10.1479 17.4066 10.3196C17.4016 10.3252 17.3396 10.397 17.2845 10.4494C17.2513 10.4811 17.189 10.5369 17.1049 10.591C17.0247 10.6425 16.8661 10.7305 16.6478 10.7551C16.3971 10.7832 16.1431 10.7191 15.934 10.5715C15.7511 10.4423 15.6519 10.2848 15.6029 10.1916C15.5113 10.0173 15.4789 9.84121 15.4642 9.75413C15.4303 9.55247 15.4161 9.25461 15.4037 9.04807C15.3887 8.79894 15.3716 8.56551 15.3412 8.37034C15.2092 7.52579 15.0348 6.8321 14.809 6.34006C14.6854 6.07098 14.5938 5.91164 14.3734 5.69749C13.9373 5.27362 13.4386 4.83782 12.8431 4.58713C12.1268 4.28561 11.5908 4.07547 10.9086 4.04612C10.2553 4.01805 9.76131 3.99344 9.37926 4.0012C9.19185 4.00502 9.06358 4.01718 8.97985 4.03147C8.95728 4.03533 8.94107 4.03873 8.93102 4.04124C8.45581 4.3368 7.8494 4.73657 7.34997 5.24436C6.89973 5.70217 6.36126 6.29068 6.00329 7.06077C5.84828 7.39434 5.75538 7.70039 5.70934 7.94651C5.68644 8.06906 5.67614 8.17078 5.67419 8.24827C5.67325 8.28631 5.67442 8.31635 5.67614 8.33811C5.67698 8.34856 5.67827 8.35688 5.67907 8.36252C5.67984 8.36795 5.68005 8.37131 5.68005 8.37131C5.6786 8.36469 5.68018 8.3728 5.69079 8.40745C5.70127 8.44162 5.71317 8.47867 5.73083 8.53342C5.76137 8.62817 5.80993 8.77736 5.84313 8.93088C5.8714 9.0617 5.92039 9.32553 5.86071 9.61155C5.82748 9.77049 5.75245 9.97509 5.58825 10.1614C5.41676 10.3556 5.19912 10.4713 4.9818 10.5237C4.82362 10.5617 4.68357 10.5612 4.58141 10.552C4.53335 10.5476 4.48951 10.5372 4.45251 10.5305C4.44397 10.5342 4.43397 10.5376 4.42419 10.5422C4.31462 10.5944 4.14924 10.6945 3.96227 10.8684C3.24431 11.5363 3.12562 11.647 3.04137 11.8889C2.95951 12.124 2.90705 12.28 2.87731 12.4094C2.86556 12.4607 2.86124 12.4924 2.85973 12.508C2.90346 12.6832 2.96706 12.8603 3.03356 13.0129C3.06797 13.0919 3.10152 13.16 3.12926 13.2131C3.14306 13.2395 3.15511 13.2613 3.16442 13.2776C3.16892 13.2854 3.17245 13.2917 3.17516 13.2961C3.17783 13.3005 3.17907 13.303 3.17907 13.303C3.48059 13.7655 3.35058 14.3851 2.88805 14.6867C2.42549 14.9881 1.80586 14.8572 1.50426 14.3948C1.34165 14.1453 1.05624 13.572 0.906608 12.9406C0.81817 12.5672 0.869792 12.215 0.928093 11.9612C0.987091 11.7044 1.07996 11.4395 1.1527 11.2307C1.43911 10.4084 2.04318 9.92147 2.59997 9.40354C2.93566 9.0913 3.27042 8.87563 3.56481 8.73557C3.60842 8.71483 3.65539 8.69501 3.70348 8.67502C3.59481 7.97881 3.79542 7.06667 4.18981 6.21799C4.69917 5.12216 5.44225 4.33205 5.92419 3.84202C6.61873 3.13585 7.42455 2.62257 7.91833 2.31663L8.10583 2.21702C8.2942 2.13189 8.48399 2.0871 8.64391 2.05979C8.86589 2.02193 9.10461 2.00695 9.33923 2.00217ZM4.81872 8.56858C4.81727 8.5682 4.81519 8.56706 4.81286 8.56663C4.81109 8.56632 4.80845 8.56606 4.80602 8.56565C4.81179 8.56705 4.81602 8.56795 4.81872 8.56858Z" fill="black"/>
</svg>
