<svg width="24" height="24" viewBox="0 0 24 24" fill="none" xmlns="http://www.w3.org/2000/svg">
<path d="M13.9126 1.08493C14.2041 1.09061 14.4989 1.09521 14.7338 1.12302C14.9254 1.14572 15.3653 1.20696 15.6948 1.55466C16.074 1.9553 16.0541 2.44478 16.0288 2.67283C16.0021 2.91297 15.9278 3.19079 15.8628 3.43454C15.5771 4.50542 14.9673 6.63316 14.6518 7.74607C14.6257 7.83817 14.6026 7.92365 14.5805 8.00193C14.9418 7.94547 15.2803 7.9402 15.4907 7.92185C15.8491 7.89056 16.3964 7.8272 17.1899 7.76658C17.9766 7.70649 19.1336 7.63852 19.7172 7.66501C19.8179 7.66957 20.1056 7.6782 20.3647 7.7988C20.528 7.87488 20.7809 8.04084 20.9174 8.36716C21.0503 8.68515 20.9957 8.9728 20.9467 9.1279C20.8648 9.38743 20.6924 9.60314 20.6186 9.69626C20.5162 9.82545 20.379 9.98328 20.2358 10.1494C19.6346 10.847 18.5459 12.1196 17.8481 12.9717C17.1525 13.8211 16.8939 14.1946 15.9301 15.4394C14.9841 16.6614 13.3799 18.6936 12.5063 19.8105C11.6318 20.9287 11.5255 21.0831 11.4585 21.1758C11.2028 21.5292 10.9344 21.8912 10.811 22.0752C10.7657 22.1428 10.7291 22.2099 10.6997 22.2705C10.6839 22.3029 10.6729 22.3273 10.6567 22.3623C10.6501 22.3764 10.6396 22.4013 10.6274 22.4258C10.6215 22.4375 10.5876 22.5049 10.5366 22.5771C10.5128 22.6107 10.4241 22.7364 10.2622 22.8408C10.0616 22.97 9.66211 23.1061 9.24361 22.8799C8.93439 22.7125 8.82183 22.4441 8.79635 22.3828C8.75696 22.288 8.74089 22.2085 8.73482 22.1748C8.72181 22.1023 8.71981 22.0435 8.7192 22.0254C8.71831 21.9989 8.71795 21.9758 8.71822 21.9609C8.71921 21.9084 8.72431 21.8434 8.72994 21.7705C8.74214 21.6125 8.768 21.3194 8.82174 20.7744C8.92912 19.6852 9.147 17.5367 9.31588 16.1152C9.40081 15.4004 9.47115 14.8855 9.52389 14.5097C9.52506 14.5013 9.52566 14.4926 9.52682 14.4843C9.499 14.4838 9.46972 14.482 9.4399 14.4814C8.35736 14.4608 6.13648 14.4515 5.02584 14.414C4.49066 14.396 4.1205 14.3697 3.88033 14.3135C3.8123 14.2975 3.71095 14.2698 3.60299 14.2177C3.50122 14.1686 3.30884 14.0582 3.16451 13.834C2.99716 13.5737 2.98141 13.3007 3.01412 13.1035C3.02837 13.0178 3.05113 12.9509 3.0649 12.9131C3.07776 12.8778 3.09138 12.8477 3.09225 12.8457L3.24264 12.5302C3.27562 12.4667 3.34589 12.3489 3.94869 10.8291C4.2386 10.0981 4.88995 8.22005 5.47799 6.49411C5.7696 5.63821 6.04258 4.82931 6.24264 4.23435C6.34259 3.9371 6.42417 3.69289 6.48092 3.52341C6.50927 3.43873 6.53134 3.37201 6.54635 3.32712C6.55124 3.31249 6.55569 3.30004 6.55904 3.29001C6.56209 3.27792 6.56498 3.26436 6.56881 3.24997C6.58528 3.18806 6.60884 3.10402 6.64205 3.00583C6.70731 2.81293 6.81391 2.54575 6.97701 2.27048C7.28979 1.74273 7.94815 0.98121 9.07564 0.999974C10.2779 1.01998 12.6634 1.06063 13.9126 1.08493ZM9.04244 2.99997C8.96753 2.99873 8.85459 3.02536 8.69771 3.29001C8.62615 3.41078 8.57228 3.54099 8.53658 3.64646C8.51943 3.69716 8.50815 3.73838 8.50143 3.76365C8.49846 3.77481 8.49653 3.78308 8.49557 3.78708L8.48482 3.83786L8.46627 3.89158V3.89353C8.46604 3.89422 8.46568 3.89531 8.46529 3.89646C8.46431 3.89941 8.46234 3.90437 8.46041 3.91013C8.45655 3.92168 8.45117 3.93889 8.44381 3.96091C8.4287 4.00611 8.40587 4.07315 8.3774 4.15818C8.32044 4.32828 8.23838 4.57296 8.13814 4.87107C7.93749 5.4678 7.66339 6.28017 7.37057 7.13962C6.78957 8.8449 6.12052 10.7785 5.80807 11.5664C5.66885 11.9174 5.5551 12.1977 5.46334 12.4238C6.62228 12.452 8.44112 12.4616 9.47799 12.4814C9.75636 12.4867 9.99463 12.4934 10.186 12.5068C10.3582 12.5189 10.5848 12.5409 10.7954 12.6142C11.0531 12.7041 11.3773 12.9056 11.5346 13.3105C11.6482 13.6033 11.6165 13.8908 11.6118 13.9502C11.5955 14.1565 11.5535 14.4366 11.5044 14.7871C11.4526 15.1556 11.3839 15.6551 11.3012 16.3506C11.2307 16.9446 11.152 17.6706 11.0756 18.3926C11.9807 17.237 13.4544 15.3691 14.3481 14.2148C15.2737 13.0193 15.5838 12.5811 16.3012 11.7051C16.7745 11.1272 17.4179 10.3672 17.9731 9.71677C17.7575 9.73037 17.5428 9.74637 17.3422 9.76169C16.5395 9.82302 16.1123 9.87495 15.6645 9.91404C15.1353 9.96022 15.0022 9.9408 14.7358 10.0097C14.3558 10.1082 14.0468 10.2045 13.8198 10.2754C13.7158 10.3078 13.601 10.3441 13.5141 10.3672C13.4794 10.3764 13.3936 10.3986 13.2983 10.4092C13.2643 10.4129 13.1283 10.4279 12.9643 10.3935C12.8788 10.3755 12.7082 10.328 12.5385 10.1914C12.3397 10.0311 12.1967 9.79061 12.1684 9.50974C12.1541 9.36678 12.1751 9.24811 12.1782 9.22849C12.1851 9.18429 12.1934 9.14447 12.1997 9.11716C12.2125 9.06132 12.2295 8.99914 12.2446 8.94431C12.2804 8.8141 12.3133 8.70244 12.3598 8.53025C12.3949 8.40035 12.4084 8.32841 12.728 7.20115C13.0322 6.12821 13.5888 4.17728 13.8842 3.08396C13.8809 3.08389 13.8769 3.08401 13.8735 3.08396C12.6278 3.05972 10.2457 3.02 9.04244 2.99997Z" fill="black"/>
</svg>
