<svg width="24" height="24" viewBox="0 0 24 24" fill="none" xmlns="http://www.w3.org/2000/svg">
<path d="M11.3686 1.19663C11.8134 1.17896 12.4179 1.19748 13.0474 1.2728C13.3287 1.30646 13.6472 1.34352 13.9341 1.38901C14.204 1.43183 14.5328 1.49436 14.8052 1.60385C15.1864 1.75713 15.5575 1.95938 15.8735 2.15659C15.9863 2.15731 16.1249 2.15975 16.2681 2.17514L16.3296 2.18198L16.3892 2.19565C16.9714 2.33225 17.3007 2.51057 17.5171 2.6351L17.6343 2.70249L17.729 2.79819C17.8435 2.91384 17.9505 3.07403 18.0034 3.15268C18.0729 3.25598 18.1708 3.40705 18.2632 3.54624C18.4611 3.84434 18.7124 4.21277 19.0171 4.59799C19.1734 4.79561 19.6158 5.4015 20.2534 6.36166C20.3999 6.58227 20.5181 6.77179 20.6089 6.91733C20.7075 7.0755 20.7567 7.15304 20.7905 7.19858C20.8553 7.28586 21.0734 7.54645 21.2417 7.81967C21.4338 8.13152 21.6125 8.5174 21.7866 9.06967C21.9102 9.46167 22.0581 9.99607 22.1431 10.5081C22.2264 11.0103 22.2693 11.5008 22.2153 12.0638C22.1272 12.9834 22.0642 13.6391 21.9663 14.138C21.7979 14.9963 21.6482 15.8152 21.4282 16.3773C21.2556 16.8184 21.0942 17.2303 20.9507 17.5697C20.8155 17.8893 20.6673 18.2174 20.5161 18.4496C20.2509 18.8567 19.8796 19.3243 19.3257 19.806C19.0234 20.0689 18.6493 20.365 18.0747 20.6996C17.5223 21.0211 16.807 21.3677 16.2768 21.5892C15.7245 21.82 15.3624 21.9208 15.0337 21.9955C14.699 22.0714 14.4022 22.1196 13.8745 22.1468C13.3692 22.1729 12.65 22.1804 11.895 22.1439C11.1416 22.1074 10.3735 22.0288 9.78368 21.9398C9.18321 21.8492 8.75744 21.7476 8.32958 21.6009C7.90603 21.4557 7.49447 21.2718 7.02685 20.9818C6.59809 20.7158 6.10503 20.3632 5.81396 20.1136C5.48067 19.8278 5.33404 19.6943 4.95556 19.2806C4.65333 18.9502 4.10061 18.3347 3.7456 17.8939C3.35094 17.4038 3.17966 17.1019 2.93603 16.5619C2.71301 16.0675 2.40754 15.3312 2.19579 14.6996C1.979 14.0528 1.86095 13.5242 1.79736 12.9994C1.73375 12.4743 1.72655 11.9802 1.77489 11.3714C1.8203 10.7998 1.9055 10.1 1.98876 9.67221C2.07158 9.24672 2.11144 8.915 2.32275 8.42416C2.62541 7.72125 2.89727 7.03702 3.05029 6.73862C3.27171 6.30686 3.66557 5.68097 4.23095 5.04624C4.51823 4.72374 4.77912 4.4864 5.25927 4.12436C5.71711 3.77915 6.39247 3.30765 6.75243 3.05307C7.19613 2.73927 7.67837 2.38737 8.35009 2.08237C8.63412 1.9534 8.85749 1.84339 9.12841 1.74643C9.73674 1.52875 10.2686 1.24037 11.3686 1.19663ZM13.2134 4.11557C12.7803 4.12367 12.5458 4.16106 12.396 4.19956C12.255 4.23579 12.1563 4.27893 11.9595 4.3685C11.9549 4.37195 11.9496 4.37679 11.9429 4.38217C11.9008 4.41581 11.8386 4.47061 11.7515 4.55405C11.5763 4.7217 11.3473 4.95905 11.0483 5.2767C10.7966 5.54415 10.5657 5.85391 10.314 6.21518C10.0799 6.55115 9.87286 6.88992 9.66552 7.32358C9.45373 7.7666 9.245 8.30598 9.08837 8.81577C8.93349 9.31997 8.83491 9.78223 8.77294 10.1283C8.71724 10.4394 8.6978 10.6099 8.69775 11.0609C8.69769 11.5448 8.72125 12.289 8.77197 12.8636C8.82044 13.4127 8.89229 13.7748 9.01122 14.1927C9.13508 14.6279 9.30817 15.1139 9.50536 15.5873C9.70259 16.0607 9.90738 16.4786 10.1089 16.8128C10.3035 17.1356 10.4974 17.381 10.7124 17.6117C10.9272 17.8422 11.156 18.0493 11.4624 18.2933C11.9736 18.7003 12.3633 18.9694 12.6304 19.14L12.8569 19.2796L12.8667 19.2845L12.8755 19.2904C13.3997 19.6182 13.8516 19.8709 14.0649 19.9652C14.1639 20.0083 14.2107 20.0289 14.3179 20.0716C14.3318 20.0772 14.3453 20.0841 14.3589 20.0902C14.4399 20.0766 14.5135 20.0629 14.5913 20.0453C14.8161 19.9942 15.0671 19.9266 15.5054 19.7435C15.966 19.5511 16.6011 19.2427 17.0679 18.971C17.5121 18.7124 17.7851 18.4956 18.0132 18.2972C18.4102 17.9519 18.6623 17.6296 18.8393 17.3578C18.8812 17.2934 18.9696 17.1198 19.1089 16.7904C19.2399 16.4805 19.391 16.0948 19.5659 15.6478C19.7023 15.2992 19.815 14.7187 20.0044 13.7533C20.0786 13.3749 20.1315 12.8392 20.2241 11.8734C20.2565 11.5355 20.2354 11.2273 20.1704 10.8353C20.107 10.4532 19.9879 10.0185 19.8784 9.67124C19.7429 9.24145 19.6272 9.01235 19.5386 8.8685C19.4263 8.68634 19.3771 8.64965 19.1851 8.39096C19.0925 8.26624 18.9958 8.11094 18.9116 7.97592C18.8193 7.82781 18.7157 7.66137 18.5874 7.46811C17.9607 6.52435 17.5541 5.97147 17.4487 5.83823C17.0941 5.38979 16.8074 4.96934 16.5972 4.65268C16.5904 4.64249 16.5841 4.63221 16.5776 4.62241C16.439 4.61067 16.3004 4.57112 16.1714 4.49838C16.1475 4.48492 16.1134 4.47115 16.0708 4.45249C15.8174 4.47708 15.5581 4.40623 15.3481 4.23569C15.1501 4.19393 14.9148 4.15271 14.6382 4.12045C14.2959 4.08056 13.7279 4.10598 13.2134 4.11557ZM9.80224 3.63022C9.63376 3.69054 9.52901 3.74349 9.17626 3.90366C8.70468 4.11784 8.37276 4.35697 7.90771 4.68588C7.52708 4.95508 6.88952 5.39974 6.46337 5.72104C6.05937 6.02566 5.90283 6.17568 5.72411 6.37631C5.2789 6.87616 4.97892 7.35959 4.82958 7.65073C4.71618 7.87188 4.5172 8.38482 4.15966 9.21518C4.05503 9.45825 4.05461 9.52509 3.95165 10.054C3.88816 10.3803 3.81122 10.9986 3.76904 11.5296C3.72984 12.0232 3.73814 12.3821 3.78368 12.7581C3.8293 13.1346 3.91373 13.5311 4.09228 14.0638C4.27592 14.6116 4.5532 15.2828 4.75927 15.7396C4.9445 16.1502 5.03146 16.3015 5.30322 16.639C5.61501 17.0262 6.13008 17.6009 6.43114 17.93C6.75097 18.2796 6.83848 18.3583 7.11572 18.596C7.30863 18.7614 7.71262 19.0543 8.08056 19.2826C8.40971 19.4867 8.68356 19.6084 8.97802 19.7093C9.26802 19.8087 9.57302 19.8854 10.0825 19.9623C10.1847 19.9777 10.2941 19.9915 10.4087 20.0062C10.3468 19.9581 10.2813 19.9105 10.2163 19.8587C9.85138 19.5682 9.54637 19.2934 9.2495 18.9749C8.95298 18.6568 8.67123 18.3025 8.39599 17.846C8.12757 17.4008 7.8808 16.8866 7.65966 16.3558C7.43845 15.8248 7.2366 15.2648 7.08739 14.7406C6.93331 14.1991 6.83917 13.7121 6.77978 13.0394C6.72266 12.3922 6.69769 11.5874 6.69775 11.0609C6.69781 10.5015 6.72601 10.2124 6.80419 9.77573C6.87614 9.37393 6.9915 8.82927 7.17626 8.22788C7.35949 7.63154 7.6032 7.00021 7.86083 6.46127C8.12288 5.91314 8.3886 5.4803 8.67333 5.07163C8.9404 4.68832 9.23836 4.28268 9.59228 3.90659C9.69404 3.79845 9.79225 3.69607 9.88525 3.59897C9.85826 3.6088 9.83085 3.61998 9.80224 3.63022Z" fill="black"/>
</svg>
