<svg width="24" height="24" viewBox="0 0 24 24" fill="none" xmlns="http://www.w3.org/2000/svg">
<path d="M12.7355 19.4296C13.2878 19.4296 13.7355 19.8773 13.7355 20.4296C13.7355 20.4414 13.7353 20.4557 13.7374 20.6034C13.7397 20.7538 13.7445 21.023 13.7492 21.1796C13.7538 21.3344 13.7565 21.3347 13.7638 21.4794C13.7914 22.0308 13.3669 22.5002 12.8156 22.5282C12.264 22.556 11.7936 22.1315 11.7658 21.58C11.7621 21.507 11.7544 21.4148 11.7492 21.2392C11.744 21.0649 11.7396 20.7799 11.7374 20.6327C11.7353 20.4848 11.7355 20.4577 11.7355 20.4296C11.7355 19.8773 12.1832 19.4296 12.7355 19.4296ZM8.86146 17.872C9.41375 17.872 9.86146 18.3197 9.86146 18.872C9.86146 18.914 9.86203 19.0773 9.85951 19.3114V19.3193L9.85853 19.3271C9.85687 19.3882 9.85458 19.4339 9.85267 19.4677C9.85093 19.4986 9.84963 19.5206 9.84877 19.5527C9.84669 19.6309 9.84682 19.7636 9.84682 19.9238C9.84677 20.476 9.39907 20.9238 8.84682 20.9238C8.29456 20.9237 7.84686 20.476 7.84682 19.9238C7.84682 19.7764 7.84677 19.6106 7.84974 19.4989C7.85142 19.4363 7.85363 19.3904 7.8556 19.3554C7.85742 19.3232 7.8587 19.303 7.85951 19.2734C7.86175 19.058 7.86146 18.9094 7.86146 18.872C7.86146 18.3198 8.30932 17.8722 8.86146 17.872ZM12.924 2.03508C13.0721 1.99501 13.2486 1.98357 13.4367 2.03117C13.6212 2.07797 13.7466 2.166 13.7872 2.19524C13.8723 2.25643 13.9429 2.32751 13.966 2.35051C14.0372 2.42149 14.1562 2.54834 14.3507 2.75383C14.7618 3.18813 15.516 3.99123 16.1271 4.55461C16.7108 5.09272 17.1247 5.37112 17.5695 5.61516C18.036 5.87108 18.5308 6.08324 18.9074 6.2216C19.268 6.3541 19.4677 6.39841 19.6613 6.42375C19.8592 6.44965 20.0545 6.45441 20.3224 6.41887C20.6217 6.37916 20.9927 6.29126 21.2374 6.2343C21.3324 6.21219 21.4467 6.18634 21.5343 6.17375C21.5459 6.17194 21.7365 6.13744 21.9542 6.19231C22.1006 6.22924 22.3081 6.31762 22.4787 6.51848C22.6007 6.6624 22.6573 6.81081 22.6847 6.91399L22.7042 6.99992L22.716 7.0927C22.7332 7.3043 22.6806 7.48096 22.6271 7.60051C22.5768 7.71271 22.5152 7.79707 22.4835 7.83879C22.4154 7.92854 22.3238 8.02953 22.216 8.14152C21.9895 8.37669 21.5539 8.804 21.1007 9.17082C20.6363 9.54668 20.1775 9.83712 19.756 10.0605C19.3332 10.2845 18.9635 10.4315 18.7072 10.5243C18.4323 10.6239 18.2453 10.6755 17.9767 10.7148C17.746 10.7485 17.453 10.7742 17.1535 10.7802C16.8536 10.7862 16.5562 10.772 16.3449 10.7538C16.0597 10.7293 15.8853 10.6869 15.548 10.5722C15.4784 10.5485 15.3993 10.5193 15.3146 10.4892C15.3306 10.6695 15.341 10.8884 15.3468 11.0986C15.8617 11.0729 16.5541 11.048 17.0529 11.0507C17.6913 11.0542 18.0214 11.1004 18.3546 11.1738C18.649 11.2385 18.9301 11.3196 19.1788 11.4032C19.704 11.5799 20.1357 11.8349 20.4913 12.1161C20.893 12.4338 21.1284 12.805 21.3117 13.1093C21.46 13.3558 21.6158 13.6849 21.7462 14.0253C21.8858 14.3895 21.9927 14.7786 22.0607 15.1855C22.1283 15.5902 22.1526 15.9915 22.1593 16.328C22.1721 16.9709 22.0935 17.4895 21.9552 17.8749C21.8138 18.2688 21.4889 18.683 21.1847 19.0497C20.8589 19.4425 20.5175 19.7176 20.2482 19.9081L19.9757 20.0927L19.9445 20.1093C19.5619 20.3203 19.1572 20.4401 18.6203 20.4989L18.5997 20.5019L18.5802 20.5029C18.2619 20.5249 17.819 20.5357 17.3204 20.5351C16.7684 20.5342 16.3218 20.0862 16.3224 19.5341C16.3231 18.9819 16.7711 18.5344 17.3234 18.5351C17.7895 18.5356 18.1721 18.5245 18.424 18.5077C18.7157 18.474 18.8529 18.4229 18.9542 18.37C19.1695 18.2284 19.4162 18.0487 19.6447 17.7734C19.7996 17.5866 19.911 17.4431 19.9874 17.3329C20.0698 17.2141 20.0811 17.1777 20.0734 17.1991C20.1072 17.1046 20.1697 16.8424 20.1603 16.3681C20.1548 16.0919 20.1346 15.7931 20.088 15.5146C20.0418 15.2382 19.9702 14.9789 19.879 14.7411C19.7789 14.4798 19.6718 14.2619 19.5988 14.1405C19.4334 13.8659 19.3514 13.7638 19.2511 13.6845C19.0561 13.5303 18.8252 13.3943 18.5412 13.2988C18.354 13.2358 18.1425 13.1757 17.9249 13.1279C17.7459 13.0885 17.5579 13.0535 17.0421 13.0507C16.4943 13.0477 15.6479 13.0797 15.1632 13.1093C14.9281 13.1236 14.7847 13.1367 14.6818 13.1454C14.6364 13.1493 14.5718 13.1544 14.5119 13.1562C14.458 13.1577 14.3272 13.1607 14.1749 13.122C13.9925 13.0755 13.7347 12.9565 13.5529 12.6806C13.4153 12.4717 13.3873 12.2648 13.379 12.2011C13.3625 12.074 13.3617 11.8918 13.3595 11.7822C13.3524 11.4209 13.3515 10.9219 13.3214 10.6347C13.2817 10.256 13.2357 10.0853 13.1076 9.83879C13.0106 9.65223 12.8669 9.41609 12.7033 9.20012C12.5388 8.98314 12.3518 8.78189 12.2003 8.63567C12.0674 8.50728 11.9869 8.44448 11.8351 8.34953C11.6502 8.23391 11.4131 8.10512 11.2521 8.03606C11.1443 7.98989 11.0936 7.97661 10.9318 7.96184C10.7281 7.94326 10.4484 7.93329 10.2033 7.94328C9.98635 7.95214 9.81931 7.97372 9.55971 8.05363C9.26438 8.14457 8.879 8.30139 8.58607 8.44817C8.31125 8.58587 8.13898 8.70315 7.98646 8.82805C7.82638 8.95915 7.68645 9.09907 7.54213 9.26848C7.39072 9.44624 7.24804 9.64012 7.15541 9.78508C7.11567 9.84729 7.09509 9.88396 7.07142 9.93742C7.04205 10.0038 7.00234 10.1083 6.93471 10.3114C6.799 10.7191 6.59673 11.3857 6.47377 11.8622C6.40748 12.1192 6.41211 12.1763 6.34779 12.4667C6.32488 12.5701 6.28649 12.7243 6.21596 12.8798C6.14205 13.0426 6.00779 13.2625 5.76088 13.4296C5.48402 13.6169 5.18973 13.7216 5.02553 13.7822C4.82068 13.8577 4.76537 13.8832 4.73256 13.9052C4.60047 13.994 4.50119 14.0685 4.42982 14.1298C4.39497 14.1597 4.37003 14.184 4.35267 14.2021C4.33575 14.2197 4.32926 14.2294 4.32924 14.2294C4.18648 14.4275 4.14121 14.5067 4.12318 14.5546C4.08229 14.6635 4.05675 14.7355 4.03725 14.8202C4.01853 14.9016 4.00112 15.013 4.00014 15.1738C3.9984 15.46 4.01911 15.9142 4.04506 16.207C4.06801 16.4658 4.08899 16.5341 4.12318 16.6347C4.18749 16.8239 4.24666 16.9761 4.29994 17.0693C4.45262 17.3362 4.61367 17.5546 4.84291 17.7685C5.00551 17.9201 5.18194 18.0752 5.38197 18.2187C5.88857 18.582 6.21189 18.7995 6.32924 18.8749C6.79377 19.1734 6.92837 19.7921 6.63002 20.2568C6.33151 20.7213 5.71281 20.8569 5.24818 20.5585C5.09036 20.4571 4.73615 20.2167 4.21596 19.8437C3.91608 19.6286 3.66973 19.4086 3.47963 19.2314C3.0742 18.8533 2.79424 18.4657 2.56361 18.0624C2.40618 17.7871 2.29579 17.4729 2.22963 17.2782C2.13334 16.9949 2.08664 16.7645 2.05287 16.3837C2.02211 16.0368 1.99797 15.5184 2.00014 15.1611C2.00407 14.5264 2.14604 14.1287 2.25014 13.8515C2.37381 13.5222 2.57299 13.2443 2.70619 13.0595C2.94098 12.7337 3.28971 12.4646 3.61635 12.245C3.8851 12.0644 4.1816 11.9621 4.33314 11.9062C4.36809 11.8933 4.39855 11.8795 4.42592 11.8691C4.43123 11.841 4.43834 11.8092 4.44545 11.7724C4.46763 11.6574 4.4963 11.5171 4.53627 11.3622C4.67328 10.8313 4.89071 10.1197 5.03725 9.67961C5.19105 9.21766 5.28839 8.99303 5.46986 8.70891C5.61542 8.48105 5.81264 8.21354 6.01869 7.9716C6.23206 7.7211 6.45766 7.49591 6.71986 7.28117C6.98958 7.06031 7.28613 6.86228 7.68959 6.66008C8.0752 6.46686 8.56411 6.268 8.97182 6.1425C9.41516 6.00603 9.75395 5.96024 10.1212 5.94524C10.4601 5.9314 10.8288 5.94358 11.1144 5.96965C11.3953 5.99532 11.6267 6.04065 11.8995 6.14348C11.8147 5.72579 11.7727 5.31026 11.7589 4.93059C11.7438 4.51441 11.7611 4.13865 11.7853 3.87883C11.8121 3.59086 11.8526 3.39115 11.9484 3.15324C12.1236 2.7181 12.3354 2.27839 12.7863 2.08293L12.924 2.03508ZM12.7042 14.0673C13.2565 14.0673 13.7042 14.515 13.7042 15.0673C13.7042 15.107 13.7008 15.1556 13.6984 15.1982C13.6963 15.2342 13.6885 15.3414 13.7013 15.7001C13.7147 16.0747 13.75 16.6963 13.7872 17.3544C13.8181 17.9054 13.3968 18.3777 12.8458 18.4091C12.2946 18.4402 11.8215 18.0179 11.7902 17.4667C11.7535 16.8195 11.7175 16.1723 11.7033 15.7714C11.6885 15.357 11.6963 15.1878 11.7023 15.0839C11.7033 15.0668 11.7037 15.0533 11.7042 15.0439V15.0673C11.7042 14.5152 12.1522 14.0676 12.7042 14.0673ZM8.99232 12.703C9.54442 12.7031 9.99214 13.151 9.99232 13.703C9.99232 13.7174 9.99144 13.7361 9.98646 14.0497C9.98133 14.373 9.97164 15.0158 9.96107 15.6777C9.95225 16.2298 9.4975 16.6707 8.94545 16.662C8.39327 16.6532 7.95225 16.1976 7.96107 15.6454C7.97164 14.9839 7.98231 14.3417 7.98744 14.0185C7.99 13.8571 7.99071 13.7748 7.99135 13.7333L7.99232 13.703C7.99251 13.1509 8.44019 12.7031 8.99232 12.703ZM13.7667 5.03606C13.7838 5.30239 13.8183 5.57111 13.8751 5.82512C13.9459 6.14088 14.0527 6.446 14.1466 6.66887C14.2369 6.8829 14.3097 7.00996 14.3497 7.07805C14.3614 7.09793 14.3694 7.11255 14.3751 7.12199C14.3793 7.12875 14.3821 7.13242 14.3829 7.13371C14.3818 7.13198 14.3786 7.12727 14.3742 7.12102L14.3683 7.1132C14.5409 7.34349 14.5982 7.62394 14.5519 7.88664C14.6089 7.93957 14.6683 7.99294 14.7228 8.03899C14.8353 8.13402 14.9116 8.18788 14.9591 8.21867C14.9633 8.22138 14.9662 8.22342 14.9679 8.22453C14.9687 8.2249 14.9698 8.22501 14.9708 8.22551C14.9957 8.23704 15.0502 8.26046 15.1857 8.31242C15.4529 8.41488 15.921 8.58628 16.1925 8.67863C16.3287 8.72495 16.3841 8.74103 16.4142 8.74797C16.4319 8.75204 16.4495 8.75487 16.5167 8.76067C16.6672 8.77362 16.8933 8.78463 17.1134 8.7802C17.3342 8.77575 17.5436 8.75728 17.6876 8.73625C17.7935 8.7208 17.8475 8.70832 18.0265 8.64348C18.2242 8.57186 18.5027 8.46073 18.8195 8.29289L18.8214 8.29094C18.6376 8.24241 18.441 8.18088 18.2169 8.09856C17.7639 7.93205 17.176 7.67996 16.6076 7.36809C16.0175 7.04431 15.4717 6.67067 14.7716 6.02531C14.4473 5.72631 14.0921 5.37009 13.7667 5.03606Z" fill="black"/>
</svg>
