<svg width="24" height="24" viewBox="0 0 24 24" fill="none" xmlns="http://www.w3.org/2000/svg">
<path d="M9.48957 2.77094C9.97492 2.62907 10.48 2.87282 10.681 3.32172C10.837 3.52934 10.9129 3.7967 10.8704 4.07367C10.861 4.13513 10.8529 4.18135 10.846 4.21821C10.8461 4.22198 10.8459 4.22662 10.846 4.2309C10.8483 4.32783 10.8559 4.51491 10.8714 4.8891C10.9025 5.63783 10.9635 7.02171 11.0911 8.20356C11.2177 9.37617 11.4051 10.3288 11.556 10.9653C11.703 11.5857 11.8059 11.8734 11.9573 12.2309C12.1222 12.6201 12.3318 13.0622 12.4837 13.3491C12.6401 13.6444 12.6998 13.7234 12.7532 13.7836C12.9505 14.0056 13.2579 14.2724 13.68 14.52C13.8962 14.6467 14.1079 14.756 14.3704 14.8725C14.636 14.9903 14.9365 15.1084 15.2864 15.2192C15.6389 15.3307 15.9963 15.4209 16.3802 15.4575C16.7727 15.4948 17.211 15.4795 17.6302 15.4262C17.7074 15.4164 17.7976 15.3994 17.9124 15.3754C18.012 15.3546 18.1573 15.3227 18.2825 15.3012C18.395 15.2819 18.5982 15.2502 18.8099 15.2709C18.9921 15.2888 19.4781 15.383 19.7288 15.8676L19.7757 15.9702L19.8206 16.0932C20.0239 16.708 19.9042 17.32 19.6917 17.6987C19.5295 17.9875 19.3121 18.2901 18.7415 18.8608C18.3181 19.2843 17.5875 19.9946 17.0989 20.4311C16.5805 20.8942 16.2987 21.0816 15.9046 21.2866C15.5609 21.4653 15.1224 21.6664 14.6107 21.8393C14.1002 22.0117 13.5292 22.153 12.9105 22.2241C12.3042 22.2937 11.692 22.2928 11.3138 22.2817C10.8869 22.2692 10.6738 22.2402 10.2464 22.143C9.85103 22.0531 9.23162 21.8974 8.48371 21.6245C7.74851 21.3561 6.92673 20.9897 6.46223 20.769C6.23289 20.66 6.05004 20.5677 5.88215 20.4623C5.70641 20.352 5.57074 20.2415 5.43098 20.1245C5.15747 19.8955 4.714 19.5098 4.4007 19.1948C4.05394 18.846 3.86136 18.58 3.64485 18.2094C3.44727 17.8711 3.21705 17.4266 3.02766 16.9682C2.83272 16.4963 2.6865 16.025 2.57551 15.4262C2.46518 14.8308 2.39205 14.1335 2.39777 13.187C2.40342 12.2574 2.48266 11.0964 2.63215 10.144C2.78374 9.17826 2.99902 8.46438 3.14387 8.00922C3.29163 7.54495 3.38489 7.2913 3.59797 6.87153C3.78661 6.49994 4.0725 5.97576 4.26106 5.66254C4.47914 5.30031 4.68333 4.97814 5.01594 4.72016C5.2757 4.51881 5.57986 4.32502 6.37336 3.99262C6.98273 3.73736 8.02492 3.31758 8.60578 3.09028C9.19126 2.86117 9.33545 2.816 9.48957 2.77094ZM7.14582 5.83735C6.45614 6.12626 6.32025 6.23921 6.24152 6.30024C6.23979 6.30153 6.22748 6.30951 6.19172 6.35688C6.14656 6.41673 6.08375 6.51304 5.97492 6.69379C5.81756 6.95518 5.55448 7.4354 5.38117 7.7768C5.23233 8.07002 5.17748 8.2155 5.05012 8.61567C4.91982 9.02508 4.73701 9.63095 4.60774 10.4545C4.47634 11.2919 4.40291 12.3518 4.39777 13.1997C4.39277 14.0301 4.45585 14.6006 4.54133 15.062C4.62622 15.5199 4.73289 15.8574 4.87629 16.2045C5.02524 16.5651 5.21185 16.9275 5.37141 17.2006C5.51176 17.4409 5.6038 17.5685 5.81867 17.7846C6.06747 18.0348 6.45563 18.3748 6.71418 18.5913C6.83994 18.6965 6.88989 18.7336 6.94465 18.768C7.00744 18.8074 7.10151 18.8582 7.32063 18.9623C7.75407 19.1683 8.51417 19.5074 9.16926 19.7465C9.8115 19.9809 10.3437 20.1141 10.6898 20.1928C11.0038 20.2642 11.0878 20.2743 11.3724 20.2827C11.7056 20.2924 12.2108 20.2918 12.682 20.2377C13.1407 20.185 13.5738 20.079 13.971 19.9448C14.3666 19.8111 14.7094 19.6538 14.9818 19.5122C15.2038 19.3967 15.3505 19.3119 15.7669 18.9399C16.2081 18.5457 16.8961 17.8768 17.3128 17.4604C16.944 17.4824 16.5627 17.4831 16.1907 17.4477C15.6144 17.3929 15.1093 17.2604 14.6829 17.1254C14.2541 16.9897 13.8845 16.8446 13.5599 16.7006C13.2323 16.5553 12.9531 16.4116 12.6683 16.2446C12.0766 15.8975 11.6025 15.4996 11.2571 15.1108C11.0425 14.8689 10.894 14.6205 10.7161 14.2846C10.5337 13.94 10.3004 13.4452 10.1165 13.0112C9.91917 12.5452 9.78128 12.1502 9.60969 11.4262C9.44183 10.7179 9.23941 9.6823 9.10285 8.41742C8.97652 7.247 8.91332 5.91252 8.8802 5.13324C8.31582 5.35786 7.60145 5.64649 7.14582 5.83735ZM15.0521 5.0766C15.3895 4.93826 15.6811 5.02291 15.7864 5.06C15.9773 5.12738 16.1277 5.24867 16.1468 5.26313C16.2026 5.30551 16.2721 5.36159 16.3353 5.41254C16.4616 5.51444 16.6508 5.66795 16.8568 5.83735C17.0735 5.69897 17.3619 5.58352 17.7318 5.58344C17.9282 5.58351 18.2533 5.63192 18.5267 5.89594C18.8009 6.16111 18.8587 6.4832 18.8646 6.67133C18.8744 6.98841 18.7523 7.27714 18.7073 7.38422C18.6722 7.46786 18.6271 7.55597 18.5882 7.63715C18.6137 7.68198 18.6387 7.72962 18.6634 7.78071C18.7725 8.00634 18.9259 8.34213 18.9798 8.64887C18.9861 8.68448 19.0265 8.88708 18.972 9.12153C18.8972 9.44272 18.696 9.65749 18.5071 9.78071C18.3226 9.90098 18.1385 9.94482 18.0062 9.96625C17.8829 9.98617 17.7403 9.99555 17.5814 10.0014C17.5306 10.076 17.4779 10.1477 17.4144 10.2231C17.2908 10.3697 17.1022 10.5779 16.9749 10.6967C16.9643 10.7066 16.9106 10.7584 16.8402 10.808C16.7786 10.8514 16.5917 10.9761 16.3177 10.9975C15.981 11.0236 15.7077 10.883 15.5355 10.7221C15.396 10.5917 15.3245 10.4517 15.2962 10.393C15.2375 10.2712 15.2002 10.1389 15.18 10.0659C15.1657 10.0141 15.1508 9.95407 15.1341 9.88813C15.0918 9.88227 15.0523 9.8799 15.0179 9.87446C14.9641 9.8659 14.883 9.8518 14.803 9.83051C14.7698 9.82165 14.519 9.76231 14.306 9.55219C14.1689 9.41677 14.0527 9.22486 14.014 8.98676C13.9787 8.7687 14.021 8.59146 14.054 8.49262C14.0864 8.39578 14.1267 8.32309 14.1448 8.29145C14.1644 8.25738 14.1841 8.22788 14.1898 8.21918L14.3499 7.99457C14.4184 7.90588 14.5064 7.80084 14.6214 7.67426C14.602 7.58016 14.5811 7.48987 14.5648 7.40473C14.4256 6.67819 14.4096 6.30853 14.4124 6.08246L14.4163 5.97016C14.4192 5.93335 14.4296 5.81331 14.4798 5.67524C14.5333 5.52828 14.6838 5.2277 15.0521 5.0766Z" fill="black"/>
</svg>
