<svg width="24" height="24" viewBox="0 0 24 24" fill="none" xmlns="http://www.w3.org/2000/svg">
<path d="M13.0303 19.8546C13.5824 19.8548 14.0303 20.3024 14.0303 20.8546C14.0303 20.9335 14.0302 20.9738 14.0313 20.9943C14.0313 20.9954 14.0317 20.9984 14.0322 21.006C14.0326 21.0114 14.034 21.0324 14.0352 21.048C14.0382 21.0904 14.0412 21.1404 14.043 21.2091C14.0461 21.3312 14.0459 21.5266 14.0459 21.7042C14.0458 22.2563 13.598 22.704 13.0459 22.7042C12.4939 22.704 12.046 22.2563 12.0459 21.7042C12.0459 21.5134 12.0462 21.3507 12.044 21.2609C12.043 21.2241 12.0419 21.2043 12.041 21.1915C12.0402 21.1801 12.0395 21.177 12.0381 21.1583C12.0369 21.1427 12.0355 21.1206 12.0342 21.0958C12.03 21.013 12.0303 20.9144 12.0303 20.8546C12.0303 20.3023 12.478 19.8546 13.0303 19.8546ZM9.30665 18.2911C9.85892 18.2911 10.3066 18.7388 10.3066 19.2911V19.3019C10.307 19.3216 10.3082 19.3597 10.3096 19.4327C10.3122 19.5719 10.3172 19.8234 10.3516 20.1446C10.4102 20.6936 10.0128 21.1873 9.46387 21.2462C8.915 21.305 8.42251 20.9072 8.36329 20.3585C8.3193 19.948 8.31254 19.6255 8.30958 19.4708C8.30691 19.3318 8.30665 19.3104 8.30665 19.2911C8.30665 18.7388 8.75436 18.2911 9.30665 18.2911ZM13.168 1.00402C13.4851 0.976068 13.727 1.09962 13.8623 1.19835C13.9851 1.28803 14.0609 1.38482 14.0908 1.42492C14.1258 1.47176 14.1515 1.51416 14.1631 1.53332C14.1744 1.55195 14.1885 1.57724 14.1914 1.58214C14.185 1.57124 14.2004 1.59457 14.2539 1.67199C14.298 1.73583 14.3519 1.81407 14.4063 1.89074C14.4602 1.96683 14.5129 2.03956 14.5518 2.09386C14.5712 2.12099 14.5875 2.14382 14.5986 2.15929C14.6041 2.16691 14.6084 2.17283 14.6113 2.17687C14.6127 2.17882 14.6135 2.18074 14.6143 2.18175L14.6152 2.18273H14.6143C14.6493 2.23133 14.6731 2.27142 14.6748 2.27453C14.6826 2.28822 14.6884 2.30011 14.6914 2.30578C14.6974 2.31708 14.7034 2.32877 14.7061 2.3341C14.7135 2.34882 14.7195 2.35957 14.7285 2.37706C14.7451 2.40939 14.7698 2.45697 14.8037 2.51769C14.8717 2.63949 14.9786 2.81991 15.1318 3.0421C15.4385 3.48683 15.9309 4.10138 16.6641 4.75304C18.2226 6.13816 19.0582 6.67771 19.4238 6.90929C20.0338 7.29558 20.3677 7.39495 20.5117 7.4298C20.5611 7.44173 20.6253 7.45393 20.7246 7.47277C20.768 7.48099 20.8203 7.49043 20.8701 7.50109C20.916 7.51091 20.9847 7.52704 21.0547 7.54894C21.2161 7.59952 21.471 7.72597 21.6367 8.01574C21.8011 8.30336 21.7813 8.58392 21.7461 8.74328C21.6876 9.00683 21.5376 9.18162 21.5107 9.21398C21.4114 9.33352 21.2866 9.4394 21.2012 9.5089C21.0062 9.66757 20.7299 9.86422 20.4297 10.0685C20.0127 10.3521 19.683 10.4759 19.3643 10.587C18.8567 10.7638 18.2588 10.7829 17.5459 10.7433C17.2937 10.7292 17.0129 10.687 16.7188 10.6251C16.9073 11.0795 16.9955 11.5327 17.0459 11.8732C17.0916 12.1818 17.0845 12.4713 17.0557 12.7472C17.4033 12.7338 17.6765 12.7694 17.833 12.795C18.1966 12.8547 18.59 13.0441 18.8691 13.1876C19.1037 13.3083 19.2904 13.4755 19.4346 13.6212C19.5809 13.7692 19.7328 13.947 19.8848 14.129C20.3425 14.6777 20.6092 15.2294 20.7568 15.5782C20.88 15.8692 20.9158 16.1924 20.9287 16.4523C20.9426 16.7324 20.9342 17.0516 20.916 17.3868C20.8717 18.2028 20.569 18.7679 20.3857 19.1066C20.0972 19.6397 19.7281 20.0512 19.4736 20.296L19.4092 20.3585L19.334 20.4083C18.8842 20.7076 18.2401 20.9978 17.8301 21.1017L17.8203 21.1046L17.8106 21.1066C17.6475 21.1443 17.5549 21.1545 17.4619 21.1603C16.9109 21.1942 16.4357 20.7757 16.4014 20.2247C16.3677 19.6787 16.7796 19.2069 17.3232 19.1652C17.3275 19.1643 17.3345 19.1633 17.3438 19.1612C17.4059 19.1448 17.5484 19.0951 17.7344 19.0099C17.8875 18.9398 18.0353 18.859 18.1553 18.7853C18.3033 18.6326 18.4868 18.4117 18.626 18.1544C18.7829 17.8645 18.9 17.6282 18.919 17.2784C18.9358 16.9682 18.9395 16.7295 18.9307 16.5519C18.9239 16.415 18.9109 16.355 18.9092 16.3448C18.8027 16.0955 18.6285 15.7457 18.3486 15.4103C18.1959 15.2272 18.0931 15.1087 18.0127 15.0275C17.9717 14.986 17.9475 14.9654 17.9385 14.9581C17.8148 14.8949 17.7099 14.8454 17.625 14.8107C17.5308 14.7721 17.4972 14.7668 17.5088 14.7687C17.3956 14.7502 17.1343 14.7179 16.8057 14.7862C16.6652 14.8155 16.568 14.8427 16.502 14.8663C16.4564 14.8826 16.4335 14.8938 16.4268 14.8976C16.4724 14.8657 16.3743 14.9354 16.3496 14.9513C16.3241 14.9677 16.249 15.0157 16.1465 15.0548C16.062 15.087 15.7933 15.179 15.4668 15.0724C15.0769 14.9447 14.8952 14.6386 14.8272 14.4474C14.7681 14.2811 14.7663 14.1376 14.7666 14.0841C14.7674 13.9655 14.7872 13.8577 14.7969 13.8077L14.9014 13.3722C14.941 13.2167 14.9757 13.0762 14.9981 12.9669C15.0797 12.5675 15.096 12.3594 15.0674 12.1661C15.0147 11.8105 14.9375 11.4908 14.8057 11.2462C14.6867 11.0255 14.5573 10.8326 14.292 10.5724C14.1008 10.3849 13.8334 10.1429 13.542 9.91906C13.2557 9.69921 12.9484 9.49751 12.5635 9.2921C12.167 9.08057 11.701 8.87034 11.375 8.73644C11.0709 8.61156 10.935 8.57118 10.7285 8.52843C10.4853 8.47811 10.1753 8.43202 9.91797 8.41222C9.76093 8.40015 9.64819 8.39156 9.55762 8.38976C9.46118 8.38788 9.44873 8.39544 9.47852 8.38878C9.14957 8.46266 8.9323 8.56235 8.70899 8.80675C8.60893 8.91628 8.44871 9.10201 8.10352 9.63488C7.74771 10.1842 7.23481 11.0392 6.94532 11.5704C6.65654 12.1004 6.61995 12.2387 6.60059 12.3185C6.60016 12.3211 6.59487 12.3517 6.59083 12.4376C6.5885 12.4874 6.58337 12.669 6.5752 12.7794C6.56608 12.9021 6.54392 13.1269 6.44922 13.3536C6.33973 13.6157 6.10934 13.9282 5.69043 14.0665C5.54422 14.1147 5.39188 14.1433 5.29981 14.1603C5.187 14.181 5.10747 14.1949 5.01954 14.215C4.85454 14.2527 4.74164 14.2974 4.65235 14.3605C4.52079 14.4534 4.41649 14.5468 4.34961 14.6749C4.27195 14.8239 4.11504 15.1978 4.03028 15.7911C3.9921 16.0585 3.99672 16.2319 4.00879 16.3146C4.04277 16.5447 4.10455 16.7862 4.33204 17.1153C4.48373 17.3347 4.7129 17.6105 4.99903 17.8946C5.30999 18.2034 5.62072 18.4778 5.80567 18.6095C5.97869 18.7326 6.0885 18.8063 6.1504 18.8458C6.17881 18.8639 6.19421 18.8728 6.19825 18.8751C6.19604 18.8739 6.18996 18.8706 6.18165 18.8663C6.17544 18.8631 6.16345 18.8566 6.14844 18.8497L6.05567 18.8136C6.57915 18.9889 6.86148 19.5557 6.68653 20.0792C6.51121 20.6028 5.94454 20.8852 5.4209 20.7101C5.30758 20.6721 5.20954 20.6141 5.20508 20.6114C5.16681 20.5895 5.12295 20.5625 5.07422 20.5314C4.97577 20.4685 4.83734 20.3751 4.64649 20.2394C4.32666 20.0118 3.92382 19.6452 3.58985 19.3136C3.23068 18.9569 2.91937 18.5883 2.6875 18.253C2.25302 17.6247 2.10001 17.0789 2.03028 16.6066C1.98095 16.2716 1.99504 15.8927 2.04981 15.5089C2.16597 14.6956 2.39158 14.103 2.57618 13.7491C2.86103 13.2032 3.27033 12.8876 3.49805 12.7267C3.88503 12.4533 4.27963 12.3321 4.57422 12.2648C4.58223 12.2629 4.59066 12.2616 4.59864 12.2599C4.60617 12.1453 4.62053 11.998 4.65723 11.8468C4.73803 11.5139 4.87219 11.1956 5.18946 10.6134C5.50646 10.0317 6.04554 9.13348 6.42481 8.54796C6.81424 7.94677 7.04021 7.66752 7.23243 7.45714C7.80688 6.82847 8.43555 6.57336 9.04004 6.43761C9.39517 6.35789 9.82779 6.39935 10.0713 6.41808C10.4245 6.44525 10.8191 6.5053 11.1338 6.57042C11.4119 6.628 11.6302 6.69123 11.9043 6.79503C11.5262 5.92259 11.477 5.33522 11.4678 4.98351C11.4618 4.75571 11.4841 4.55098 11.5459 4.22765C11.6069 3.90843 11.718 3.43368 11.8506 2.96203C11.981 2.49794 12.1373 2.02216 12.2402 1.76867L12.2891 1.65636C12.3098 1.61208 12.3356 1.5624 12.3652 1.51378C12.3948 1.46544 12.4566 1.37078 12.5566 1.27746C12.6588 1.18235 12.8644 1.03095 13.168 1.00402ZM12.457 16.0001C12.9945 15.8734 13.5334 16.2068 13.6602 16.7443C13.6959 16.8958 13.7142 17.0285 13.7256 17.1818H13.7266C13.7323 17.2423 13.7512 17.4158 13.7607 17.6075C13.7703 17.8003 13.7705 18.0143 13.7705 18.2003C13.7704 18.7524 13.3226 19.2002 12.7705 19.2003C12.2184 19.2002 11.7707 18.7524 11.7705 18.2003C11.7705 18.0008 11.7703 17.8396 11.7637 17.7062C11.757 17.5724 11.7454 17.4757 11.7354 17.3683L11.7334 17.3556L11.7324 17.3429C11.7279 17.2758 11.7229 17.2457 11.7129 17.2032C11.5862 16.6659 11.9198 16.127 12.457 16.0001ZM9.13086 13.8575C9.68146 13.816 10.1615 14.2288 10.2031 14.7794C10.215 14.9357 10.2271 15.0958 10.2432 15.3497C10.2591 15.6013 10.279 15.9411 10.2988 16.2862C10.3304 16.8376 9.90877 17.3103 9.35743 17.3419C8.80641 17.3733 8.33363 16.9525 8.30176 16.4015C8.28183 16.0542 8.26254 15.7211 8.24708 15.4767C8.23177 15.2349 8.22064 15.0838 8.20899 14.9298C8.16747 14.3794 8.58048 13.8994 9.13086 13.8575ZM13.5107 4.60363C13.4859 4.73362 13.4754 4.80713 13.4707 4.85167C13.4669 4.88811 13.4662 4.90859 13.4668 4.93175C13.4707 5.08015 13.4815 5.41865 13.7559 6.0382C13.9435 6.46183 14.2515 7.02874 14.4336 7.36242C14.5066 7.49619 14.5537 7.58164 14.585 7.63878C14.6338 7.6663 14.6888 7.70061 14.7549 7.73644C15.1305 7.94013 15.6957 8.22947 16.2451 8.42003C16.823 8.62042 17.3408 8.72854 17.6563 8.74621C18.1391 8.77306 18.4117 8.75656 18.5693 8.73058C18.4997 8.68902 18.4274 8.64554 18.3535 8.59874C17.9018 8.31261 16.9788 7.7091 15.335 6.24816C14.5313 5.53387 13.9615 4.84665 13.5752 4.3048C13.5498 4.41799 13.5268 4.51956 13.5107 4.60363Z" fill="black"/>
</svg>
