<svg width="24" height="24" viewBox="0 0 24 24" fill="none" xmlns="http://www.w3.org/2000/svg">
<path d="M15.2617 1.88576C15.5259 1.85062 15.8638 1.90131 16.1435 2.1631C16.3948 2.39846 16.459 2.68293 16.4795 2.79396C16.5227 3.02835 16.4977 3.27538 16.4863 3.38771C16.4491 3.75453 16.4153 3.91517 16.4238 4.06056C16.462 4.70734 16.7173 4.85003 17.0918 5.45119C17.3256 5.82665 17.6368 6.36359 17.9404 6.82814C18.224 7.26205 18.4389 7.53967 18.706 7.81935C19.307 8.44853 19.8064 8.78223 20.1074 8.94044C20.6463 9.22352 20.8933 9.27014 21.1738 9.39162C21.4564 9.51408 21.6857 9.76385 21.7666 10.0918C21.8324 10.3592 21.7742 10.5792 21.7412 10.6787C21.6738 10.8813 21.561 11.0255 21.4931 11.1006C21.3849 11.2204 21.2633 11.312 21.1816 11.3701C21.0922 11.4337 20.9958 11.4945 20.9111 11.5469C20.7232 11.6632 20.5747 11.7503 20.4209 11.8545C19.6577 12.3716 19.1186 12.5604 18.7451 12.6221C18.1965 12.7126 17.4577 12.626 17.0908 12.5811C16.78 12.543 16.4085 12.4664 16.1074 12.3945C16.2281 12.6608 16.3297 12.8926 16.4023 13.0615C16.5197 13.3347 16.5736 13.4694 16.6064 13.5498C16.9644 13.6152 17.405 13.7431 17.8916 14.041C18.343 14.3175 18.8492 14.677 19.1611 15.1875C19.2553 15.3417 19.4085 15.5845 19.5312 15.8467C19.6554 16.112 19.7838 16.4662 19.7949 16.8731C19.8144 17.5939 19.6571 18.0596 19.4424 18.5381C19.0788 19.3482 18.5372 20.0288 17.7656 20.4141C17.3651 20.614 16.787 20.857 15.832 21.0254C15.2446 21.1289 14.4259 21.2388 13.3115 21.2891C12.2166 21.3385 10.8683 21.341 10.1084 21.3174C9.31447 21.2928 8.84767 21.3534 7.80368 21.1192C6.81492 20.8973 6.30556 20.7831 5.70798 20.5567C5.13687 20.3403 4.3771 20.0738 3.88278 19.7344C3.6882 19.6008 3.43814 19.4348 3.23044 19.2735C3.02972 19.1175 2.75939 18.8858 2.57614 18.5733C2.49128 18.4286 2.29115 18.1199 2.18357 17.7783C2.05543 17.3711 2.05074 16.9383 2.19333 16.459C2.25573 16.2494 2.33665 15.9415 2.50388 15.6397C2.68252 15.3173 2.92866 15.0454 3.25778 14.7559C3.76824 14.3069 4.07928 14.016 4.43845 13.833L4.57907 13.7725C4.5707 13.269 4.59635 12.6159 4.78806 11.9668C4.98064 11.3151 5.2279 10.6545 5.70114 9.97755C5.95116 9.62001 6.31045 9.15727 6.62888 8.82423C6.94595 8.49269 7.25208 8.23491 7.65622 8.05275C8.15247 7.82918 8.76923 7.57207 9.41989 7.46193C9.88269 7.38366 10.5845 7.29127 11.3623 7.42775C11.3768 7.03953 11.4183 6.55907 11.5136 6.02052C11.5785 5.65452 11.7749 5.28025 11.9365 4.99415C12.1147 4.67859 12.3483 4.30928 12.582 3.93361C12.9437 3.35229 13.493 2.89553 13.959 2.50587C14.3419 2.18561 14.7631 1.99797 15.1533 1.90529L15.2617 1.88576ZM11.1045 9.4131C10.6442 9.31385 10.1829 9.36105 9.75388 9.43361C9.3744 9.49783 8.95766 9.6611 8.47849 9.87697C8.39954 9.91256 8.29889 9.97207 8.07419 10.207C7.85056 10.441 7.55672 10.8143 7.34079 11.1231C7.04051 11.5526 6.86807 11.9849 6.70603 12.5332C6.56972 12.9947 6.56415 13.5174 6.58493 14.0088C6.58666 14.0491 6.59364 14.0816 6.60544 14.124C6.6149 14.158 6.61916 14.1698 6.63669 14.2285L6.6904 14.4531L6.70505 14.626C6.70755 14.8147 6.66527 15.0452 6.51364 15.2656C6.31995 15.5469 6.05223 15.6594 5.89255 15.7041C5.62019 15.7803 5.34827 15.7448 5.27341 15.7363C5.23973 15.7325 5.21301 15.7283 5.19138 15.7256C5.18542 15.7304 5.17925 15.736 5.17282 15.7412C5.04518 15.8458 4.87293 15.9975 4.5781 16.2568C4.34425 16.4626 4.28059 16.5612 4.25388 16.6094C4.21588 16.678 4.19574 16.7424 4.11032 17.0293C4.08909 17.1007 4.08694 17.1377 4.08689 17.1494C4.08688 17.1583 4.08777 17.165 4.09177 17.1777C4.09746 17.1958 4.11101 17.2297 4.14646 17.2949C4.18856 17.3724 4.22665 17.4344 4.30173 17.5625C4.28519 17.5343 4.30317 17.5748 4.457 17.6943C4.60377 17.8084 4.77556 17.9211 5.0156 18.086C5.25616 18.2511 5.70311 18.416 6.41696 18.6865C6.85684 18.8532 7.21947 18.9385 8.24216 19.168C9.04204 19.3474 9.20685 19.2885 10.1699 19.3184C10.88 19.3404 12.1782 19.3381 13.2217 19.291C14.245 19.2448 14.978 19.1451 15.4853 19.0557C16.2279 18.9247 16.6225 18.7496 16.872 18.625C17.1127 18.5048 17.3806 18.2457 17.6172 17.7188C17.7542 17.4133 17.8038 17.2531 17.7949 16.9268C17.7941 16.9013 17.7833 16.8303 17.7197 16.6943C17.6542 16.5545 17.5696 16.4171 17.4551 16.2295C17.407 16.151 17.2581 15.9985 16.8476 15.7471C16.5684 15.5761 16.3389 15.5251 16.1289 15.4971C15.865 15.462 15.3926 15.5017 14.6552 15.6563C14.304 15.7547 13.8955 15.9091 13.6484 16.0098C13.5271 16.0592 13.48 16.0831 13.4629 16.0918C13.0159 16.4156 12.3906 16.3158 12.0664 15.8692C11.7423 15.4221 11.8421 14.7959 12.289 14.4717C12.459 14.3485 12.5984 14.2788 12.8945 14.1582C13.1736 14.0445 13.6797 13.8498 14.1494 13.7207L14.1787 13.7129L14.207 13.707C14.2966 13.6881 14.3871 13.6717 14.4765 13.6543C14.2745 13.1892 13.9721 12.5079 13.6357 11.9141C13.2547 11.2414 12.8328 10.6851 12.54 10.3301C12.3402 10.0878 12.1936 9.94255 12.0898 9.8506C11.9901 9.76229 11.9161 9.71096 11.834 9.65626C11.7518 9.60164 11.5496 9.50913 11.1045 9.4131ZM14.5 4.7129C14.4093 4.81037 14.3358 4.89937 14.2793 4.99025C14.0305 5.39016 13.829 5.70965 13.6777 5.97755C13.5248 6.24831 13.4875 6.35888 13.4834 6.36915C13.3073 7.36383 13.3629 8.02626 13.3633 8.04396C13.3785 8.13561 13.3795 8.22638 13.3701 8.31447C13.566 8.48298 13.7995 8.7139 14.083 9.05763C14.3275 9.35419 14.6505 9.77539 14.9824 10.2861C15.2374 10.153 15.548 10.1308 15.834 10.251C15.8593 10.2617 15.8825 10.2712 15.9013 10.2793C15.9212 10.2878 15.9356 10.2935 15.9482 10.2988C15.9517 10.3003 15.9552 10.3016 15.958 10.3027C16.0293 10.3225 16.0983 10.3376 16.1884 10.3545L16.2373 10.3643L16.2861 10.3779C16.5003 10.4407 16.9964 10.5544 17.334 10.5957C17.766 10.6486 18.206 10.6835 18.4189 10.6485C18.4311 10.6464 18.5527 10.6236 18.8047 10.4942C18.3583 10.2119 17.8284 9.79648 17.2597 9.20119C16.8859 8.80976 16.5971 8.42764 16.2666 7.92189C15.9562 7.44687 15.5719 6.79367 15.3945 6.5088C15.2848 6.33302 14.7112 5.71262 14.5 4.7129Z" fill="black"/>
</svg>
