<svg width="24" height="24" viewBox="0 0 24 24" fill="none" xmlns="http://www.w3.org/2000/svg">
<path d="M10.4357 13.6113C10.8504 13.2466 11.4821 13.2876 11.8469 13.7021C11.8754 13.7345 11.8925 13.7524 11.9123 13.7724C11.9371 13.7976 11.969 13.8286 12.0334 13.8906C12.1809 14.0327 12.4106 14.255 12.8342 14.7724C13.2294 15.2552 13.8359 16.0228 14.1613 16.498C14.546 17.0599 14.7398 17.4078 14.8615 17.876C14.9733 18.3061 15.1269 19.1139 15.0061 20.039C14.9789 20.2469 14.9493 20.4749 14.9035 20.664C14.8595 20.8456 14.7623 21.1696 14.4797 21.4287C14.2335 21.6544 13.8872 21.9118 13.4465 22.0488C12.9966 22.1885 11.9449 22.3683 10.6223 22.1601C10.2288 22.0982 9.90415 22.0347 9.64668 21.9639C9.42178 21.902 9.11636 21.8014 8.87129 21.5986C8.76324 21.5093 8.46911 21.2846 8.23164 20.9492C7.97349 20.5844 7.7943 20.1183 7.77949 19.5283C7.76468 18.9362 7.79832 18.2757 8.10762 17.5762C8.46895 16.7589 8.77522 16.139 8.92207 15.8535C9.2723 15.1727 9.74093 14.5098 10.1672 13.9922C10.2236 13.8503 10.3133 13.719 10.4357 13.6113ZM15.5373 2.00096C15.7207 1.99349 15.9346 2.02844 16.1438 2.15037C16.3995 2.29972 16.5311 2.51218 16.5939 2.63865C16.6988 2.8499 16.7429 3.10448 16.759 3.18553C16.8109 3.44667 16.863 3.71942 17.0178 4.04881C17.2811 4.60887 17.6872 5.06387 18.0607 5.45799C18.3263 5.73808 18.782 6.11711 19.3938 6.6074C19.8166 6.94625 20.1361 7.04158 20.5754 7.1826C20.5899 7.18011 20.6185 7.17671 20.6477 7.17283C20.6667 7.1703 20.6931 7.16725 20.7238 7.16502C20.7542 7.16282 20.797 7.16029 20.8469 7.16209L21.0139 7.18065C21.086 7.19407 21.1718 7.21775 21.2619 7.25877C21.4737 7.35527 21.7431 7.57103 21.8352 7.9492C21.9128 8.26856 21.8158 8.52314 21.7697 8.62498C21.7172 8.74092 21.6537 8.82648 21.6174 8.87205C21.4939 9.02708 21.311 9.17642 21.2053 9.26268C20.9155 9.49902 20.5726 9.75635 20.1613 10.1133C19.7317 10.4861 19.2367 10.8312 18.4738 11.0947L18.3518 11.1367L18.2229 11.1465C17.7242 11.1843 17.2439 11.1916 16.8508 11.1826C16.6737 11.1786 16.497 11.1696 16.3361 11.1572C16.4531 11.7349 16.4676 12.2456 16.4318 12.6894C16.479 12.6921 16.528 12.6947 16.5773 12.6992C17.3799 12.7731 17.9497 12.9329 18.2307 13.043C19.2504 13.4425 19.9064 14.3213 20.2775 14.8808C20.5826 15.3408 20.7008 15.908 20.7531 16.374C20.8082 16.8652 20.8038 17.3811 20.7795 17.8291C20.7427 18.5057 20.4358 19.067 20.135 19.459C19.8334 19.8517 19.4724 20.1595 19.1828 20.3379L19.0754 20.4033L18.9553 20.4414C18.8737 20.4667 18.7864 20.4881 18.7248 20.5039C18.6557 20.5216 18.5881 20.5392 18.5109 20.5615C18.3549 20.6067 18.156 20.6737 17.9553 20.7597C17.4477 20.9774 16.8594 20.7419 16.6418 20.2344C16.4246 19.7269 16.6598 19.1394 17.1672 18.9219C17.4568 18.7977 17.7349 18.7042 17.9543 18.6406C18.0635 18.609 18.1564 18.5844 18.2268 18.5664C18.3164 18.4951 18.4384 18.383 18.548 18.2402C18.7044 18.0365 18.775 17.8554 18.7824 17.7207C18.8036 17.3312 18.8029 16.936 18.7648 16.5967C18.7239 16.2322 18.6508 16.047 18.6105 15.9863C18.2687 15.471 17.9032 15.0628 17.5012 14.9053C17.4178 14.8726 17.035 14.7494 16.3938 14.6904C16.2126 14.6737 16.0478 14.6822 15.8645 14.6953C15.7824 14.7012 15.6654 14.7104 15.5617 14.7138C15.4575 14.7173 15.3054 14.7179 15.1418 14.6885C14.9913 14.6613 14.7624 14.5875 14.5637 14.3867C14.3589 14.1796 14.2865 13.9394 14.2648 13.7685C14.2321 13.5088 14.3052 13.2698 14.3117 13.2451L14.3566 13.0625C14.458 12.6196 14.5161 12.068 14.3303 11.3476C14.2427 11.0081 14.2153 10.8913 14.1203 10.7295C14.0208 10.5599 13.8129 10.2943 13.2873 9.84373C13.0493 9.63968 12.5746 9.32206 11.5402 8.88865C10.9785 8.65331 10.3221 8.42289 9.81953 8.28123C9.2997 8.13473 9.01095 8.08253 8.75117 8.07713C8.37182 8.0693 8.09561 8.07005 7.89766 8.08201C7.81134 8.08724 7.7547 8.09404 7.7209 8.09959C7.4909 8.22107 7.31516 8.34041 7.18379 8.49022C6.91079 8.80177 6.56755 9.23093 6.26094 9.91502C6.07811 10.323 5.88988 10.8478 5.75215 11.2851C5.5849 11.8163 5.53128 11.9946 5.52656 12.1064C5.51681 12.343 5.57359 12.5648 5.63984 12.9697C5.66436 13.1195 5.70548 13.3822 5.675 13.6426C5.63989 13.9414 5.47204 14.4539 4.89961 14.6728C4.84271 14.6946 4.79153 14.7091 4.75606 14.7187C4.73319 14.7249 4.71095 14.7302 4.69356 14.7344C4.4204 15.0032 4.30151 15.1179 4.20527 15.2822C4.12302 15.4227 4.02685 15.6623 4.00801 16.1885C3.99164 16.6467 4.00028 17.0429 4.0334 17.3642C4.06784 17.6982 4.12311 17.8904 4.16426 17.9785C4.31925 18.3095 4.49007 18.6052 4.82539 18.9004C5.11808 19.158 5.34597 19.3533 5.49922 19.4824C5.57608 19.5471 5.6327 19.5933 5.66816 19.6221C5.67671 19.629 5.68351 19.6345 5.68867 19.6387C5.69108 19.6406 5.69313 19.6424 5.69453 19.6435C5.69558 19.6444 5.69628 19.6453 5.69649 19.6455L5.67695 19.6308C5.67584 19.6301 5.67365 19.6287 5.67109 19.6269C5.9326 19.8073 6.10461 20.1085 6.10469 20.4502C6.10469 21.0023 5.65681 21.45 5.10469 21.4502C4.94405 21.4502 4.82262 21.4109 4.78535 21.3984C4.73312 21.3808 4.6927 21.3619 4.67109 21.3515C4.62781 21.3308 4.59549 21.3108 4.58223 21.3027C4.55293 21.2848 4.52985 21.2694 4.52168 21.2637C4.502 21.2497 4.48481 21.2364 4.47578 21.2295C4.45511 21.2135 4.43173 21.1947 4.4084 21.1758C4.36 21.1365 4.29362 21.0812 4.21113 21.0117C4.04527 20.872 3.80619 20.6673 3.5041 20.4014C2.88246 19.8541 2.56948 19.2878 2.35371 18.8271C2.17532 18.4462 2.08849 17.9994 2.04414 17.5693C1.99846 17.1261 1.99155 16.6311 2.00996 16.1162C2.03725 15.3549 2.18789 14.7699 2.47969 14.2715C2.74988 13.8102 3.12193 13.4748 3.35664 13.2431L3.44356 13.1631C3.50181 13.1132 3.56237 13.0725 3.62031 13.0351C3.60595 12.9544 3.59047 12.8628 3.57637 12.7676C3.54534 12.5579 3.51721 12.2991 3.52852 12.0244C3.54705 11.576 3.72334 11.0697 3.84492 10.6836C3.99631 10.2028 4.21053 9.60027 4.43574 9.09764C4.8523 8.16813 5.33016 7.56987 5.67891 7.17186C6.07144 6.72398 6.53459 6.46056 6.86152 6.29295L6.97969 6.23924C7.25936 6.12657 7.56388 6.09885 7.77754 6.08592C8.06319 6.06867 8.40933 6.0702 8.79219 6.07811C9.30725 6.08877 9.7901 6.19413 10.3625 6.35545C10.6941 6.44893 11.0705 6.5735 11.4484 6.70994C11.446 6.63994 11.4455 6.56734 11.4455 6.49217C11.4454 6.02073 11.5964 5.5981 11.758 5.26268C11.9206 4.92532 12.1294 4.60554 12.3068 4.3408C12.6887 3.77104 13.3806 3.15857 13.8713 2.71385C14.451 2.18854 15.0251 2.08556 15.3654 2.02049L15.5373 2.00096ZM11.2023 15.9394C11.0171 16.2091 10.8429 16.4916 10.7004 16.7685C10.5711 17.0199 10.2818 17.6042 9.93672 18.3847C9.80266 18.688 9.76661 19.0028 9.77852 19.4785C9.78325 19.6647 9.83158 19.7475 9.86445 19.7939C9.91046 19.8588 9.96296 19.9042 10.0842 20.0049C10.1043 20.0119 10.1342 20.0234 10.177 20.0351C10.3281 20.0767 10.5673 20.126 10.9328 20.1836C11.9475 20.3433 12.6897 20.1902 12.8527 20.1396C12.8829 20.1303 12.9254 20.1086 12.9807 20.0713C12.9816 20.0656 12.9836 20.0598 12.9846 20.0537C12.9958 19.9807 13.0079 19.8931 13.0227 19.7803C13.0983 19.2009 13.0012 18.6683 12.926 18.3789C12.9048 18.2974 12.8828 18.2344 12.8352 18.1426C12.7795 18.0352 12.6869 17.8835 12.5119 17.6279C12.2393 17.2298 11.6799 16.5198 11.2863 16.039C11.2576 16.0039 11.2288 15.9712 11.2023 15.9394ZM5.65156 19.6142C5.64366 19.609 5.6347 19.6021 5.62422 19.5957C5.61917 19.5926 5.60998 19.5884 5.59883 19.582C5.61673 19.5922 5.63437 19.603 5.65156 19.6142ZM5.4377 19.5078C5.43291 19.5061 5.42806 19.5036 5.42305 19.5019C5.42033 19.501 5.41689 19.5002 5.41328 19.499C5.42146 19.5017 5.42961 19.5049 5.4377 19.5078ZM15.0041 4.38572C14.5284 4.81961 14.1533 5.17763 13.968 5.45408C13.7924 5.71601 13.655 5.93312 13.5598 6.13084C13.4639 6.32983 13.4456 6.44101 13.4455 6.49119C13.4456 6.73541 13.4629 6.89397 13.4787 6.98045C13.481 6.99275 13.4838 7.00287 13.4855 7.01072C13.5881 7.21102 13.6159 7.43427 13.5773 7.64549C14.011 7.88414 14.3355 8.10784 14.5891 8.32518C14.8243 8.52682 15.0267 8.71622 15.2023 8.89744C15.2835 8.89791 15.3663 8.9074 15.4484 8.92869C15.8103 9.02242 16.1233 9.10111 16.3107 9.14549C16.315 9.1462 16.366 9.15508 16.4787 9.16404C16.5877 9.1727 16.7294 9.17977 16.8957 9.18358C17.1941 9.19038 17.5572 9.18436 17.9357 9.16014C18.3227 9.01215 18.5728 8.83877 18.8244 8.62303C18.6102 8.50453 18.3809 8.35892 18.1438 8.16893C17.5579 7.69944 16.9863 7.23234 16.6086 6.83397C16.2233 6.42749 15.6181 5.77413 15.2072 4.90037C15.1222 4.71948 15.0577 4.54543 15.0041 4.38572Z" fill="black"/>
</svg>
