<svg width="24" height="24" viewBox="0 0 24 24" fill="none" xmlns="http://www.w3.org/2000/svg">
<path d="M12.7617 19.0429C13.3136 19.0431 13.7615 19.4909 13.7617 20.0429C13.7617 20.0843 13.7601 20.1252 13.7519 20.3339C13.7434 20.5519 13.7264 20.9689 13.709 21.3964C13.6865 21.9482 13.2207 22.3769 12.6689 22.3544C12.1175 22.3316 11.6887 21.8668 11.7109 21.3153C11.7284 20.8867 11.7455 20.4716 11.7539 20.2558C11.7581 20.1478 11.7598 20.0919 11.7607 20.0624L11.7617 20.0429C11.7619 19.4909 12.2097 19.0431 12.7617 19.0429ZM9.33591 18.0302C9.88804 18.0302 10.3357 18.4781 10.3359 19.0302V20.3056C10.3358 20.8577 9.88806 21.3055 9.33591 21.3056C8.78371 21.3056 8.33605 20.8577 8.33591 20.3056V19.0302C8.33609 18.4781 8.78373 18.0302 9.33591 18.0302ZM15.8213 1.02335L15.9131 1.04777C16.1205 1.113 16.2853 1.23718 16.4023 1.37882C16.4944 1.49042 16.5474 1.60247 16.5683 1.64738C16.6172 1.75229 16.6712 1.89853 16.7353 2.07804C16.8737 2.4656 17.1017 3.13686 17.4111 3.85246C17.7201 4.56697 18.108 5.31395 18.3457 5.74992C18.4667 5.97193 18.5245 6.06729 18.5674 6.12882C18.6018 6.17823 18.6361 6.22002 18.7363 6.32609C18.9454 6.54739 19.2997 6.90116 19.542 7.12882C19.7538 7.32789 19.8196 7.37542 19.9892 7.46671C20.2111 7.58609 20.5594 7.74466 20.8984 7.8671C21.0647 7.92716 21.2319 7.97873 21.3886 8.02628C21.5231 8.06707 21.7031 8.1205 21.8271 8.16691C21.8471 8.17438 22.0586 8.24484 22.2373 8.40714C22.3479 8.50773 22.543 8.73157 22.5732 9.0839C22.6035 9.43838 22.4476 9.69432 22.3515 9.81535C22.1968 10.0102 21.9938 10.1138 21.9609 10.1318C21.8842 10.1738 21.7954 10.217 21.7168 10.2538C21.3841 10.4096 20.7684 10.6814 20.4072 10.8329C20.2348 10.9052 20.0729 10.9707 19.9131 11.0146C19.7277 11.0654 19.5769 11.079 19.4453 11.0878C19.1925 11.1047 18.8016 11.1155 18.3291 11.0878C17.861 11.0604 17.3283 10.9957 16.9111 10.9267L16.8779 10.9208C16.6701 10.8792 16.4883 10.8386 16.33 10.8017C16.3705 11.0846 16.3862 11.3048 16.3857 11.4862C16.4913 11.4913 16.6066 11.4941 16.7314 11.5019C17.1608 11.5285 17.5865 11.6788 17.8925 11.8007C18.0558 11.8657 18.2129 11.9344 18.3457 11.9931C18.4858 12.055 18.5901 12.1018 18.6787 12.1376C19.3444 12.4067 19.6999 12.6368 20.0234 12.87C20.4056 13.1456 20.6722 13.4926 20.8437 13.7167C21.1132 14.0688 21.2911 14.5451 21.415 14.8739C21.5732 15.2939 21.6183 15.6923 21.6474 16.0605C21.6956 16.6717 21.5791 17.2625 21.4619 17.706C21.2975 18.3277 20.9296 18.7734 20.6836 19.037C20.3264 19.4197 19.8194 19.574 19.4599 19.6884L19.4336 19.6972L19.4072 19.704C19.2485 19.7451 19.06 19.7861 18.8906 19.8232C18.7121 19.8622 18.5498 19.8975 18.414 19.9306C18.1629 19.9918 18.0148 20.0434 17.833 20.1073C17.3121 20.2906 16.7409 20.0169 16.5576 19.496C16.3743 18.975 16.6479 18.4039 17.1689 18.2206C17.3678 18.1507 17.5906 18.0724 17.9404 17.9872C18.1051 17.9471 18.2958 17.9056 18.4629 17.8691C18.6252 17.8336 18.7662 17.8015 18.8779 17.7734C19.0691 17.7121 19.1737 17.6751 19.2383 17.6454C19.2423 17.6435 19.2458 17.6411 19.249 17.6396C19.3989 17.4739 19.4921 17.3311 19.5283 17.1943C19.6232 16.8349 19.6755 16.4987 19.6533 16.2177C19.6273 15.8894 19.5985 15.724 19.5439 15.579C19.394 15.181 19.3117 15.0057 19.2558 14.9325C19.08 14.7028 18.9707 14.5771 18.8545 14.4931C18.6356 14.3353 18.4199 14.1903 17.9297 13.9921C17.8037 13.9412 17.6613 13.877 17.5371 13.8222C17.4054 13.764 17.2781 13.7082 17.1523 13.6581C16.8805 13.5498 16.703 13.505 16.6084 13.4989C16.0365 13.4635 15.703 13.4624 15.5058 13.4609C15.4414 13.4603 15.2874 13.4604 15.1611 13.4413C15.117 13.4347 14.8785 13.4028 14.6533 13.2255C14.5164 13.1176 14.3928 12.9629 14.3222 12.7636C14.2557 12.5752 14.2574 12.4069 14.2705 12.2978C14.2872 12.1582 14.3239 11.9788 14.3418 11.8808C14.3648 11.7545 14.3796 11.6572 14.3847 11.5761C14.3909 11.4781 14.4016 11.2288 14.2656 10.6132C14.1729 10.1937 14.015 9.59593 13.83 9.04972C13.6453 8.50438 13.4374 8.01883 13.2929 7.71769C13.1419 7.40291 13.0967 7.35091 13.0761 7.32706C12.9829 7.21891 12.9107 7.14349 12.8447 7.08878C12.7823 7.03714 12.7396 7.01552 12.7119 7.00578C12.4638 6.91931 12.1292 6.84442 11.7187 6.82121C11.5253 6.8103 11.3201 6.80741 10.8037 6.85246C10.2698 6.89904 9.47662 6.98971 8.93064 7.07999C8.35123 7.17582 8.13154 7.24199 8.03708 7.2841C7.88445 7.35223 7.7857 7.40412 7.69235 7.47941C7.60259 7.55186 7.48413 7.67401 7.35056 7.90714C7.23926 8.10141 7.10078 8.37024 6.95505 8.73136C6.80522 9.10269 6.651 9.55929 6.55759 9.86613C6.47404 10.1406 6.45273 10.248 6.4238 10.4911C6.40889 10.6165 6.38383 10.8605 6.33493 11.0937C6.28789 11.3178 6.19566 11.6589 5.97263 11.9599C5.72468 12.2943 5.40427 12.4605 5.18259 12.5527C5.07271 12.5983 4.96483 12.6344 4.88767 12.6601C4.80037 12.6891 4.74675 12.7068 4.69528 12.7265C4.0745 12.9637 3.79231 13.1189 3.69724 13.2021C3.43192 13.4343 3.32782 13.5385 3.27146 13.6347C3.10591 13.9173 3.0388 14.0576 3.02634 14.2167C2.98773 14.7104 2.99661 14.9922 3.0322 15.1376C3.1073 15.4438 3.19077 15.6899 3.32321 15.8925C3.52527 16.2014 3.751 16.4988 4.04489 16.7694C4.19701 16.9095 4.37606 17.0549 4.7031 17.2753C5.04104 17.503 5.50204 17.7885 5.90915 18.0116C6.31096 18.2318 6.6571 18.3916 7.03317 18.5644C7.53481 18.7951 7.75493 19.3888 7.52439 19.8905C7.29369 20.392 6.69984 20.6111 6.19821 20.3808C5.82364 20.2087 5.41819 20.0236 4.94724 19.7655C4.48133 19.5102 3.96907 19.1926 3.58591 18.9345C3.19233 18.6693 2.93061 18.4623 2.6904 18.2411C2.23252 17.8195 1.90362 17.376 1.64939 16.9872C1.32939 16.4979 1.18049 15.9879 1.08884 15.6142C0.968135 15.1217 0.994325 14.5448 1.0322 14.0605C1.08472 13.3902 1.39144 12.8876 1.54587 12.6239C1.79496 12.1987 2.16367 11.8872 2.38083 11.6972C2.78178 11.3464 3.39217 11.0835 3.98142 10.8583C4.08395 10.8191 4.1881 10.7851 4.25583 10.7626C4.30303 10.7469 4.33789 10.7329 4.36618 10.7226C4.36912 10.7105 4.37477 10.6974 4.3779 10.6825C4.40361 10.5599 4.41609 10.4345 4.43747 10.2548C4.48118 9.88748 4.52865 9.66472 4.6445 9.2841C4.75052 8.93581 4.92355 8.42097 5.10056 7.98234C5.28174 7.53339 5.4604 7.18221 5.61521 6.91203C6.13659 6.0023 6.7499 5.66754 7.22165 5.45695C7.57526 5.29918 8.02559 5.2021 8.60446 5.10636C9.21749 5.00499 10.0648 4.90957 10.6299 4.86027C11.2122 4.80947 11.5167 4.80641 11.831 4.82414C12.019 4.83475 12.1993 4.85572 12.372 4.88078C12.4654 4.5766 12.6252 4.1864 12.7177 3.96281C12.8409 3.66519 12.9319 3.48634 13.0703 3.26456C13.2049 3.04893 13.3823 2.79695 13.6982 2.45109C13.9969 2.1241 14.4208 1.71426 14.6416 1.50382C14.7418 1.40835 14.8366 1.31778 14.9131 1.25578C14.9457 1.22936 15.0414 1.15257 15.1738 1.09269C15.3162 1.02839 15.4786 0.993335 15.6484 1.00089L15.8213 1.02335ZM12.8281 14.1503C13.3804 14.1503 13.8281 14.598 13.8281 15.1503V15.1855C13.8285 15.2268 13.8296 15.3085 13.831 15.4696C13.834 15.7932 13.8396 16.4376 13.8457 17.1015C13.8507 17.6536 13.4075 18.1051 12.8554 18.1103C12.3034 18.1152 11.8509 17.6721 11.8457 17.12C11.8396 16.4564 11.834 15.8119 11.831 15.4882C11.8281 15.1722 11.8281 15.1588 11.8281 15.1503C11.8281 14.5981 12.2759 14.1504 12.8281 14.1503ZM9.27634 12.2421C9.82526 12.1822 10.3189 12.5789 10.3789 13.1278C10.3912 13.2406 10.3956 13.3487 10.3984 13.8798C10.4013 14.4302 10.4013 15.4753 10.4013 16.5468C10.4013 17.099 9.95357 17.5468 9.40134 17.5468C8.84929 17.5466 8.40143 17.0989 8.40134 16.5468C8.40134 15.472 8.40125 14.4333 8.39841 13.8896C8.39699 13.6172 8.39562 13.4775 8.39353 13.4023C8.39251 13.3659 8.39084 13.351 8.3906 13.3476C8.39056 13.347 8.39142 13.3478 8.39157 13.3495C8.39148 13.3487 8.39086 13.3469 8.3906 13.3446C8.33075 12.7958 8.72752 12.3022 9.27634 12.2421ZM15.1748 3.79972C14.9455 4.05074 14.8407 4.20535 14.7666 4.32414C14.6964 4.43665 14.6548 4.51383 14.5664 4.72746C14.4533 5.00069 14.3269 5.31282 14.2754 5.4921C14.2577 5.55354 14.2441 5.60524 14.2334 5.64933C14.3806 5.78371 14.4995 5.91557 14.5908 6.0214C14.7892 6.25155 14.9264 6.49754 15.0967 6.85246C15.268 7.20957 15.4948 7.74481 15.7011 8.34464C15.8952 8.36688 16.0848 8.44598 16.2431 8.5839C16.3371 8.66581 16.4179 8.72996 16.4746 8.77335C16.5001 8.78157 16.5365 8.79408 16.5869 8.80753C16.7302 8.84579 16.9426 8.89263 17.2529 8.95499C17.6097 9.0135 18.0642 9.06834 18.4463 9.09074C18.5838 9.09879 18.7119 9.10122 18.8271 9.10246C18.5871 8.9551 18.4085 8.80823 18.1718 8.58585C17.8998 8.33013 17.5184 7.94818 17.2832 7.69913C16.9859 7.3844 16.8629 7.20781 16.5898 6.70695C16.3373 6.2437 15.9185 5.43818 15.5761 4.6464C15.4419 4.33584 15.3216 4.03098 15.2168 3.7548C15.2025 3.77009 15.1883 3.78496 15.1748 3.79972Z" fill="black"/>
</svg>
