<svg width="24" height="24" viewBox="0 0 24 24" fill="none" xmlns="http://www.w3.org/2000/svg">
<path d="M19.3203 3.26655C19.7254 2.89114 20.358 2.91519 20.7334 3.32026C21.1088 3.72534 21.0848 4.35794 20.6797 4.73335C20.5971 4.80991 20.5133 4.88397 18.7168 6.77241C16.9361 8.64421 13.4789 12.2915 11.669 14.1884C9.85258 16.092 9.77749 16.1444 9.30861 16.5908C8.87022 17.0081 8.0085 17.8499 7.27541 18.5205C6.53283 19.1997 5.93595 19.6906 5.62209 19.9521C5.14129 20.3693 4.82731 20.6406 4.73244 20.7138L4.71877 20.7236C4.65156 20.7736 4.58848 20.8153 4.49611 20.8681C4.01673 21.142 3.40596 20.9754 3.13185 20.496C2.85791 20.0167 3.02459 19.4059 3.50392 19.1318C3.51178 19.1273 3.51686 19.1232 3.52052 19.121C3.52941 19.1137 3.5445 19.1013 3.5674 19.082C3.60804 19.0477 3.66374 19.001 3.73439 18.9404C3.77388 18.9065 3.81698 18.8678 3.86525 18.8261C3.62068 18.6466 3.3384 18.4065 3.12697 18.0976C2.82654 17.6585 2.52813 17.0461 2.30959 16.2343C2.20678 15.8524 2.09464 15.3823 2.05763 14.9677C2.03237 14.6846 2.01303 14.4103 2.01369 14.1669C2.01434 13.9377 2.03117 13.6463 2.1299 13.3691C2.22671 13.0975 2.39908 12.7491 2.77931 12.4316C3.10832 12.1569 3.69311 11.7686 4.54689 11.4277C4.85888 11.3031 5.19125 11.1872 5.50295 11.1044C5.47497 10.9646 5.45432 10.8173 5.45216 10.6669C5.44598 10.2353 5.42378 9.45524 5.69826 8.74702C5.87585 8.28884 6.0763 7.83065 6.39357 7.48042C6.71191 7.12902 7.22779 6.59579 8.01955 6.19038C8.44152 5.97438 8.92534 5.79379 9.54298 5.62104C10.1649 5.44713 10.9387 5.27474 11.9229 5.18452C12.8885 5.09604 14.011 5.08885 14.7393 5.10347C15.1912 5.11255 15.7735 5.2121 16.2236 5.30171C16.622 5.38101 16.9771 5.46512 17.1572 5.50874C17.1946 5.46951 17.2316 5.43134 17.2676 5.39351C19.0385 3.53198 19.1789 3.39759 19.3203 3.26655ZM17.7139 10.1962C17.8998 10.1963 18.2915 10.2131 18.8887 10.2724C19.6499 10.3481 20.2012 10.5827 20.4629 10.6953C20.6715 10.7852 20.8253 10.9208 20.917 11.0107C21.0194 11.1111 21.1156 11.226 21.2031 11.3398C21.3782 11.5675 21.5749 11.866 21.793 12.2177C22.0886 12.6946 22.2852 13.2864 22.3682 13.5097C22.4211 13.6522 22.4789 13.8134 22.5147 14.0058C22.5495 14.1933 22.557 14.3752 22.5606 14.5605C22.5677 14.9381 22.5606 15.5913 22.5274 16.0751C22.4699 16.9112 22.2905 17.4169 22.1445 17.7597C21.9454 18.2273 21.5339 18.6199 21.1621 18.9492C20.6103 19.4378 20.0709 19.7437 19.7197 19.9023C19.3964 20.0483 19.1162 20.0679 18.5938 20.0849C18.0349 20.1031 17.0248 20.111 16.0528 20.0693C15.0854 20.0277 14.1727 19.9353 13.584 19.8886C12.6805 19.817 12.1682 19.8243 11.7842 19.8183C11.6437 19.8177 11.5494 19.8215 11.4854 19.8242C11.4519 19.8256 11.4385 19.8261 11.4268 19.8271C11.4133 19.8283 11.3911 19.8307 11.3428 19.8369C10.7951 19.9064 10.2945 19.5182 10.2246 18.9707C10.1551 18.4229 10.543 17.9222 11.0908 17.8525C11.2257 17.8353 11.2937 17.8297 11.4004 17.8251C11.4903 17.8213 11.6182 17.8174 11.7988 17.8183H11.8106C12.1642 17.824 12.7553 17.8172 13.7422 17.8955C14.386 17.9465 15.2195 18.0318 16.1387 18.0712C17.0536 18.1105 18.0132 18.1027 18.5293 18.0859C18.7582 18.0784 18.8706 18.0695 18.9268 18.0634C19.1237 17.9706 19.4715 17.7748 19.836 17.4521C20.0163 17.2924 20.1383 17.173 20.2197 17.081C20.2715 17.0225 20.2956 16.9883 20.3037 16.9755C20.3797 16.7972 20.4919 16.5111 20.5313 15.9384C20.5595 15.5273 20.5669 14.9345 20.5606 14.5986C20.5573 14.4289 20.5516 14.386 20.5488 14.371C20.547 14.3613 20.5423 14.3382 20.4932 14.206C20.3704 13.8755 20.2547 13.5327 20.0928 13.2714C19.885 12.9362 19.7301 12.7054 19.6172 12.5585C19.5923 12.5262 19.5695 12.5029 19.5537 12.4843C19.3472 12.3999 19.062 12.2996 18.6904 12.2626C18.1308 12.2071 17.8104 12.1963 17.7139 12.1962C17.1617 12.1962 16.7141 11.7484 16.7139 11.1962C16.7139 10.644 17.1616 10.1962 17.7139 10.1962ZM14.6992 7.10347C14.0065 7.08956 12.9665 7.09782 12.1055 7.17671C11.2635 7.2539 10.6098 7.39992 10.0811 7.5478C9.54829 7.69684 9.19961 7.83352 8.93166 7.97065C8.4617 8.21124 8.13911 8.53275 7.87599 8.82319C7.83233 8.87139 7.74051 9.01047 7.56252 9.46968C7.45235 9.75393 7.44494 10.1333 7.45216 10.6386C7.45303 10.6965 7.46774 10.7736 7.51369 10.8916C7.53696 10.9512 7.56551 11.0149 7.60158 11.0917C7.63266 11.158 7.68311 11.2611 7.72267 11.3505C7.86923 11.6822 7.82318 12.0373 7.66017 12.3056C7.53279 12.5151 7.36338 12.6263 7.29201 12.6699C7.13946 12.7629 6.97816 12.8122 6.89748 12.8359C6.70696 12.8918 6.44938 12.9449 6.20021 12.9951C5.96896 13.0417 5.63854 13.1452 5.2881 13.2851C4.62308 13.5507 4.22252 13.8324 4.06154 13.9667C4.04904 13.9772 4.04211 13.9848 4.03908 13.9882C4.03647 13.9912 4.03493 13.993 4.0342 13.9941C4.03335 13.9954 4.02717 14.005 4.01466 14.04C4.03095 13.994 4.01418 14.0124 4.01369 14.1718C4.01329 14.3185 4.02547 14.5171 4.04982 14.79C4.07047 15.0211 4.1433 15.35 4.24123 15.7138C4.40725 16.3305 4.61676 16.7329 4.77736 16.9677C4.80452 17.0074 4.8819 17.0917 5.05275 17.2167C5.16755 17.3007 5.29961 17.3841 5.44631 17.4736C5.59697 17.3406 5.75764 17.1977 5.9258 17.0439C6.63986 16.3907 7.46148 15.5883 7.9297 15.1425C8.3674 14.7258 8.41913 14.6977 10.2227 12.8076C11.5491 11.4174 13.7547 9.09157 15.542 7.20893C15.2057 7.14892 14.9006 7.10752 14.6992 7.10347Z" fill="black"/>
</svg>
