<svg width="24" height="24" viewBox="0 0 24 24" fill="none" xmlns="http://www.w3.org/2000/svg">
<path d="M20.1777 11.4999C20.5391 11.0825 21.1703 11.0372 21.5879 11.3983C22.0053 11.7597 22.0507 12.3909 21.6894 12.8085C21.222 13.3487 20.8488 13.7971 20.3984 14.2401C19.9495 14.6817 19.4426 15.1029 19.0254 15.4462L19.0225 15.4491C18.291 16.0463 17.7006 16.6644 17.0059 17.3241C16.016 18.264 15.7142 18.7211 15.6475 18.8583C15.8429 19.321 16.0004 19.9116 16.0508 20.5087L16.0771 20.8182L15.9238 21.0878C15.7368 21.4162 15.3825 21.8689 14.9619 22.2235C14.7489 22.4031 14.4785 22.592 14.166 22.7147C13.8508 22.8384 13.4256 22.9189 12.9726 22.7704C12.4786 22.6083 11.9169 22.4079 11.457 22.1776C11.2293 22.0636 10.9845 21.9216 10.7764 21.7469C10.5908 21.5911 10.2917 21.2919 10.2129 20.8358C10.1548 20.4991 10.0492 19.8751 10.3389 19.1952C10.5609 18.6744 10.9332 17.8033 11.876 17.4491C12.7883 17.1065 13.5368 17.0505 14.3223 17.2645C14.6262 16.8793 15.0516 16.4221 15.6289 15.8739C16.1629 15.3669 16.7732 14.7409 17.459 14.1503L17.7578 13.8993C18.1767 13.5546 18.6188 13.1853 18.9961 12.8143C19.373 12.4436 19.6764 12.0794 20.1777 11.4999ZM13.4746 19.1405C13.2461 19.1293 12.9741 19.1728 12.5791 19.3212C12.5549 19.3302 12.519 19.3467 12.456 19.4335C12.3779 19.5413 12.2964 19.7033 12.1787 19.9794C12.1484 20.0506 12.1369 20.1264 12.1523 20.2772C12.2008 20.3075 12.2661 20.3462 12.3525 20.3895C12.6474 20.5371 13.0462 20.6856 13.4775 20.8299C13.5229 20.8053 13.5902 20.7639 13.6728 20.6942C13.8004 20.5866 13.9185 20.4581 14.0117 20.3426C13.943 19.9714 13.824 19.6516 13.7324 19.4833C13.6774 19.3991 13.6073 19.3054 13.4746 19.1405ZM8.56054 5.34655C8.87168 4.89054 9.49403 4.77307 9.95019 5.08385C10.4064 5.39512 10.5241 6.0173 10.2129 6.4735C10.1845 6.5151 10.157 6.55477 10.1299 6.59362C10.101 6.63488 10.0628 6.68929 10.0049 6.77428L10.0039 6.7733C9.66442 7.27592 9.25349 7.82333 8.76464 8.32311L8.75195 8.33483L8.73925 8.34752C8.5926 8.48731 8.41679 8.63978 8.28027 8.76159C8.13014 8.89554 8.01435 9.00418 7.93066 9.09362C7.8263 9.20514 7.74189 9.29953 7.67284 9.37584C7.89689 9.70932 8.09583 10.1145 8.17382 10.5946C8.22039 10.8813 8.31628 11.4776 8.19628 12.1659C8.11813 12.6139 7.96285 13.0345 7.61327 13.4022C7.34386 13.6855 6.8463 14.1298 6.06542 14.4383C5.75677 14.5603 5.46131 14.6646 5.19042 14.7333C4.93343 14.7984 4.62115 14.8522 4.30859 14.8163C3.98519 14.7791 3.45161 14.6973 2.97753 14.3407C2.669 14.1086 2.27269 13.7737 1.98925 13.2967C1.78148 12.9471 1.49687 12.4252 1.36425 11.8143C1.28072 11.4295 1.20181 10.9867 1.2832 10.413C1.32149 10.1431 1.36108 9.83181 1.40527 9.59655C1.42787 9.47627 1.4591 9.33195 1.50683 9.1942C1.54294 9.09006 1.64114 8.82447 1.88476 8.61608C2.29398 8.26635 2.94327 7.97844 3.85351 7.96862C4.18631 7.96508 4.55975 7.95896 4.89452 7.97741C5.01256 7.98392 5.14332 7.99733 5.27929 8.01549C5.42983 7.96983 5.59361 7.95818 5.75878 7.9901C5.83781 8.00542 5.90708 8.02012 5.97363 8.03698L6.14159 8.08678C6.22784 7.99043 6.33524 7.87015 6.46972 7.72643C6.62145 7.56428 6.7993 7.40316 6.94921 7.2694C7.10725 7.12839 7.23447 7.01533 7.34667 6.90905C7.71933 6.52577 8.05443 6.08944 8.3496 5.65221L8.35156 5.6483C8.41465 5.55572 8.45733 5.49417 8.49023 5.44713C8.5246 5.39799 8.54092 5.37529 8.56054 5.34655ZM19.9609 3.31725C20.4081 2.99352 21.0334 3.09308 21.3574 3.53991C21.6813 3.98724 21.5811 4.6125 21.1338 4.93639C20.638 5.29536 20.5288 5.38024 20.418 5.47838C20.296 5.58635 20.17 5.71358 20.0674 5.82799L20.0478 5.84948L20.0283 5.86998C18.9781 6.91453 17.2794 8.58543 16.4932 9.38366C16.5216 9.454 16.5488 9.52635 16.5723 9.60143C16.6952 9.99507 16.7801 10.4854 16.7012 11.1297C16.6655 11.4202 16.6299 11.7029 16.5869 11.9383C16.5515 12.1323 16.4865 12.4522 16.3281 12.7147C16.2436 12.8547 15.9653 13.3778 15.375 13.6483C15.05 13.7971 14.5589 14.0159 13.8916 14.035C13.5435 14.045 13.208 14.047 12.9121 14.034C12.6317 14.0217 12.3227 13.9937 12.0566 13.9188C11.8192 13.852 11.3298 13.7324 10.917 13.4471C10.7021 13.2986 10.4406 13.1152 10.2197 12.909C10.0063 12.7098 9.72913 12.3985 9.61327 11.9657C9.49869 11.5374 9.37387 10.8187 9.74511 10.035C9.90348 9.70084 10.155 9.21483 10.5185 8.82701C10.684 8.65047 11.0396 8.24761 11.6846 8.02428C11.7829 7.99024 11.8798 7.96076 11.9736 7.93346C12.1089 7.61637 12.4047 7.37714 12.7715 7.3319C12.9567 7.3091 13.1369 7.29576 13.3232 7.29381H13.3545C13.7165 7.30126 14.1031 7.35114 14.5195 7.47936L14.5937 7.50182L14.6641 7.536C14.8301 7.61706 15.0203 7.71726 15.2109 7.83776C16.108 6.93095 17.6942 5.36995 18.6172 4.45201C18.7565 4.29952 18.9209 4.1327 19.0918 3.98131C19.2899 3.80592 19.4842 3.66242 19.9609 3.31725ZM3.87499 9.96862C3.63494 9.97121 3.46781 10.0071 3.35839 10.0458C3.33095 10.2096 3.30346 10.4138 3.26366 10.6942C3.23226 10.9159 3.25269 11.0835 3.31933 11.3905C3.38157 11.6768 3.52948 11.9732 3.70898 12.2753C3.79174 12.4144 3.93834 12.5605 4.17968 12.7421C4.18803 12.7483 4.21288 12.7646 4.27148 12.7821C4.33133 12.7999 4.41034 12.8136 4.52245 12.827C4.53129 12.8261 4.5852 12.8227 4.69921 12.7938C4.85278 12.7549 5.06 12.686 5.33105 12.579C5.76257 12.4084 6.02691 12.1685 6.16406 12.0243C6.17145 12.0165 6.1741 12.0124 6.17968 11.9999C6.18839 11.9803 6.2067 11.9304 6.22558 11.8221C6.28425 11.4856 6.24196 11.1721 6.20019 10.9149C6.16991 10.729 6.06639 10.5385 5.87695 10.3085C5.856 10.3046 5.83442 10.301 5.81347 10.2958C5.74542 10.2786 5.69066 10.2577 5.67089 10.2499C5.64452 10.2395 5.6199 10.2292 5.60253 10.2215C5.56857 10.2065 5.52705 10.1874 5.4912 10.1708C5.41362 10.1348 5.31015 10.0865 5.17187 10.0262C5.16548 10.0241 5.13663 10.015 5.07714 10.0047C5.00459 9.99223 4.90785 9.9813 4.78417 9.97448C4.52995 9.96049 4.23222 9.96483 3.87499 9.96862ZM14.1269 9.51744C13.9523 9.64429 13.7363 9.71735 13.5039 9.70885C13.3867 9.70465 12.9324 9.70851 12.3389 9.91393C12.2644 9.93972 12.2128 9.97198 12.168 10.0077C12.1135 10.0511 12.0702 10.0973 11.9785 10.1952C11.8394 10.3436 11.6956 10.5901 11.5527 10.8915C11.484 11.0366 11.4824 11.1844 11.5312 11.3905C11.5422 11.4029 11.5589 11.4228 11.585 11.4471C11.6858 11.5412 11.8341 11.6499 12.0537 11.8016C12.134 11.8571 12.2548 11.8975 12.5976 11.994C12.6355 12.0046 12.7578 12.0253 13 12.036C13.2272 12.046 13.5088 12.0453 13.835 12.036C14.0686 12.0293 14.2452 11.9632 14.5107 11.8426C14.5184 11.8329 14.5307 11.819 14.5459 11.7958C14.5587 11.7761 14.5699 11.7561 14.585 11.7313C14.5931 11.7013 14.6057 11.6526 14.6191 11.579C14.6499 11.4103 14.6792 11.1848 14.7158 10.8866C14.7552 10.5648 14.7143 10.3622 14.6631 10.1981C14.6108 10.0311 14.4928 9.85255 14.334 9.67369C14.302 9.63784 14.2382 9.58575 14.1269 9.51744ZM11.6543 2.43639C12.0097 2.01373 12.6408 1.95895 13.0635 2.31432C13.4859 2.66974 13.5407 3.30087 13.1855 3.7235C13.1104 3.81287 13.0235 3.91509 12.874 4.06823C12.7567 4.18846 12.5595 4.3804 12.4785 4.4608L12.2764 4.67858C12.2509 4.7072 12.2309 4.72926 12.2178 4.74498C12.2155 4.74767 12.2135 4.74987 12.2119 4.75182C11.887 5.19815 11.2619 5.29619 10.8154 4.97155C10.3688 4.64668 10.2699 4.02168 10.5947 3.57506C10.682 3.45509 10.8575 3.26003 11.041 3.07018L11.0527 3.05846C11.1814 2.92974 11.3191 2.79901 11.4434 2.67174C11.5415 2.57121 11.5903 2.51247 11.6543 2.43639Z" fill="black"/>
</svg>
