<svg width="24" height="24" viewBox="0 0 24 24" fill="none" xmlns="http://www.w3.org/2000/svg">
<path d="M10.2388 13.4651C11.0219 12.9724 11.7275 13.1761 11.9839 13.218C12.9014 13.368 13.4198 13.8952 13.8218 14.4446C14.235 15.0096 14.4674 15.6551 14.603 16.1087L14.7095 16.4885L14.7134 16.5012L14.7163 16.5139C14.7564 16.6775 14.7959 16.9047 14.8062 16.9534C14.8361 17.0954 14.8894 17.3078 14.9556 17.5823C15.0849 18.1191 14.754 18.6598 14.2173 18.7893C13.6805 18.9184 13.1406 18.5878 13.0112 18.051C12.9537 17.8122 12.8869 17.5448 12.8491 17.3655C12.7917 17.093 12.8161 17.1615 12.7739 16.9895H12.773C12.6539 16.5541 12.5022 16.0281 12.2075 15.6253C12.0671 15.4333 11.9749 15.3402 11.9038 15.2874C11.848 15.2459 11.7825 15.2124 11.6616 15.1926C11.6098 15.1842 11.5579 15.1741 11.519 15.1672C11.4775 15.1599 11.446 15.155 11.4175 15.1506C11.3698 15.1434 11.3451 15.1412 11.3335 15.1409C11.3277 15.1436 11.3178 15.1489 11.3042 15.1575C11.0244 15.3336 10.7758 15.5018 10.5796 15.6536C10.4822 15.7289 10.4049 15.7946 10.3481 15.8489C10.3206 15.8753 10.3 15.8971 10.2856 15.9133C10.2734 15.9272 10.2673 15.9352 10.2661 15.9368C10.0992 16.1801 10.0557 16.2593 10.0503 16.3801C10.0374 16.6737 10.0604 16.8555 10.0815 16.9573C10.1011 17.051 10.1219 17.092 10.1304 17.1087C10.3817 17.6003 10.1863 18.2028 9.69483 18.4544C9.20315 18.7055 8.6005 18.5104 8.34912 18.0188C8.18063 17.6891 8.01354 17.1778 8.05225 16.2932C8.08589 15.5272 8.47894 15.0068 8.6167 14.8059C8.81446 14.5177 9.10285 14.2667 9.35498 14.0715C9.62413 13.8633 9.93433 13.6567 10.2388 13.4651ZM11.2495 9.04029C11.4079 9.03724 11.5844 9.04316 11.8355 9.11158C12.036 9.16628 12.2798 9.25944 12.6069 9.39478C13.2796 9.67309 14.4906 10.2145 15.1802 10.5432C16.1724 11.0162 16.6257 11.5184 17.1001 12.0569C17.3772 12.3715 17.5785 12.6805 17.7964 13.0715C17.9603 13.3657 18.134 13.7192 18.2837 14.0501L18.4243 14.3704L18.4302 14.385L18.436 14.3987C18.7241 15.1414 18.9178 15.8671 19.0483 16.5969L19.0513 16.6135L19.0542 16.6292C19.1067 16.99 19.1215 17.2817 19.1353 17.5393C19.1646 18.0907 18.7413 18.5616 18.1899 18.5911C17.6385 18.6203 17.1676 18.1972 17.1382 17.6458C17.1248 17.3938 17.1127 17.1879 17.0767 16.9348C16.9675 16.3294 16.808 15.7377 16.5747 15.134C16.4226 14.777 16.2221 14.3553 16.0493 14.0452C15.8732 13.7292 15.7506 13.5511 15.5991 13.3792C15.1847 12.9087 14.9463 12.6465 14.3198 12.3479C13.6589 12.0329 12.4797 11.5072 11.8423 11.2434C11.5154 11.1082 11.3754 11.0594 11.3091 11.0413C11.2886 11.0357 11.2879 11.0369 11.2993 11.0383C11.2963 11.0384 11.2926 11.0392 11.2886 11.0393C10.7723 11.0493 10.462 11.0518 10.2065 11.1497C9.76232 11.32 9.3587 11.5078 9.01123 11.8186C8.52221 12.2561 8.16161 12.6383 7.85694 13.1536C7.62366 13.5481 7.32438 14.1013 7.13526 14.5432C6.95081 14.9744 6.86513 15.265 6.8208 15.6702C6.7579 16.246 6.71404 16.7003 6.68604 17.0169C6.65535 17.3637 6.64893 17.4954 6.64893 17.4758C6.64893 18.0281 6.20121 18.4758 5.64893 18.4758C5.09676 18.4757 4.64893 18.028 4.64893 17.4758C4.64909 17.3349 4.70895 16.5936 4.8335 15.4534C4.9043 14.8056 5.05508 14.3212 5.29639 13.7571C5.5332 13.2036 5.8802 12.5674 6.13526 12.136C6.58723 11.3716 7.11536 10.8319 7.67822 10.3284C8.30101 9.77133 8.97822 9.47866 9.48975 9.28248C10.1481 9.03002 10.8743 9.0475 11.2495 9.04029ZM11.1655 5.36256C11.7654 5.33147 12.3807 5.33232 13.23 5.43678C14.0563 5.53843 15.0852 5.73786 15.7417 5.89283C16.4392 6.05751 16.7864 6.19002 17.2397 6.46998C17.6286 6.71012 18.1 7.05771 18.5688 7.47584C19.0383 7.89458 19.4911 8.37355 19.8462 8.79029C20.2113 9.21891 20.4692 9.57979 20.7339 10.0022C21.0166 10.4534 21.3009 10.972 21.6108 11.9846C21.8334 12.7118 22.0683 13.6981 22.2417 14.4924L22.3921 15.2063L22.398 15.2317L22.4009 15.2581C22.5815 16.4882 22.6121 16.7882 22.6069 17.0852L22.606 17.0969V17.1087C22.6009 17.2309 22.5874 17.3324 22.5737 17.467C22.5178 18.0162 22.0273 18.4172 21.478 18.3616C20.9289 18.3057 20.529 17.8141 20.5845 17.2649C20.5889 17.2212 20.5931 17.185 20.5962 17.1555C20.5994 17.1252 20.6013 17.1038 20.603 17.0862C20.6051 17.065 20.6053 17.0517 20.606 17.0403C20.6074 16.9426 20.6036 16.7892 20.4263 15.5794C20.2632 14.7719 19.9636 13.4352 19.6987 12.5696C19.4449 11.7403 19.2382 11.3808 19.0396 11.0637C18.8228 10.7178 18.6214 10.4366 18.3237 10.0872C18.016 9.72594 17.6265 9.31572 17.2378 8.969C16.8485 8.62176 16.4699 8.34567 16.189 8.17213C15.9726 8.03849 15.8431 7.97264 15.2817 7.8401C14.6789 7.69779 13.724 7.51293 12.9858 7.42213C12.2713 7.33425 11.7743 7.33442 11.269 7.3606C10.7499 7.38752 10.2627 7.43841 9.78662 7.52857C9.25211 7.62981 8.83584 7.73037 8.56104 7.85279C7.8934 8.15023 7.64061 8.30859 7.41162 8.55592C7.16727 8.81985 6.75695 9.28609 6.14014 10.2698C5.50865 11.2769 4.69303 12.7664 4.22412 13.7083C3.76834 14.6238 3.68173 14.9367 3.60694 15.3196C3.5159 15.7857 3.44474 16.3236 3.42432 16.6448C3.40811 16.9 3.40257 17.0633 3.40088 17.1633C3.39899 17.2762 3.40302 17.2766 3.39697 17.2307C3.46922 17.7779 3.08474 18.2811 2.5376 18.3538C1.99026 18.4263 1.48733 18.0407 1.41455 17.4934C1.39099 17.3151 1.39606 17.0241 1.42822 16.5178C1.45514 16.0945 1.53986 15.4693 1.64405 14.9358C1.76453 14.3191 1.92941 13.8304 2.43408 12.8167C2.92612 11.8283 3.77315 10.2811 4.4458 9.20826C5.13286 8.1125 5.61994 7.5464 5.94385 7.19654C6.46399 6.63484 7.03591 6.34267 7.74756 6.02564C8.25998 5.7974 8.88818 5.66343 9.41455 5.56373C9.99935 5.45297 10.5792 5.39296 11.1655 5.36256Z" fill="black"/>
</svg>
