<svg width="24" height="24" viewBox="0 0 24 24" fill="none" xmlns="http://www.w3.org/2000/svg">
<path d="M18.0498 17.3547C18.4769 17.005 19.107 17.0676 19.457 17.4944C19.7763 17.884 20.0067 18.4717 20.0127 19.0794C20.0187 19.6927 19.5788 20.0952 19.5283 20.1477C19.3458 20.3389 19.1132 20.4657 18.9561 20.5462C18.7748 20.639 18.5434 20.7424 18.2744 20.8606C17.3431 21.2697 16.4327 21.4932 15.5957 21.635C14.3582 21.8447 13.3487 21.8843 12.8984 21.8811L12.8574 21.8801L12.8154 21.8772C12.5424 21.8526 12.2867 21.8226 12.0869 21.7991C11.9847 21.7871 11.9018 21.7776 11.833 21.7698C11.7997 21.766 11.7729 21.7631 11.752 21.761C11.7418 21.76 11.7334 21.7586 11.7275 21.7581C11.7233 21.7577 11.7205 21.758 11.7197 21.7581L11.6855 21.7561L11.6523 21.7512C11.4666 21.7272 11.3155 21.6766 11.1797 21.6174C10.6736 21.3969 10.442 20.8082 10.6621 20.302C10.8788 19.8047 11.4511 19.5727 11.9512 19.7737C12.0594 19.7844 12.1969 19.7981 12.3213 19.8128C12.5056 19.8344 12.7227 19.8589 12.9512 19.8801C13.3187 19.88 14.1873 19.8444 15.2617 19.6624C15.9939 19.5383 16.734 19.3527 17.4697 19.0296C17.6746 18.9396 17.8263 18.8703 17.9404 18.8157C17.9373 18.8094 17.9356 18.8026 17.9326 18.7971C17.9264 18.7859 17.9201 18.7769 17.916 18.7708C17.9122 18.765 17.9102 18.762 17.9102 18.762C17.5604 18.3349 17.6229 17.7048 18.0498 17.3547ZM4.98926 12.5764C5.47032 12.4181 6.00284 12.647 6.21387 13.1194C6.43437 13.6136 6.22053 14.1893 5.7373 14.4241C5.7513 14.4146 5.68129 14.4555 5.59961 14.6497C5.60024 14.6558 5.60144 14.6649 5.60352 14.676C5.61588 14.7418 5.6457 14.8266 5.70313 14.9612C5.742 15.0521 5.85469 15.1955 6.16016 15.3743C6.46343 15.5517 6.83873 15.6983 7.27051 15.8596C7.43071 15.9193 7.82099 15.9787 8.94922 16.0471C9.9956 16.1106 11.5556 16.1332 12.6582 16.094C14.3466 16.034 15.0391 15.7958 15.1895 15.7376L15.1992 15.7337L15.21 15.7297C15.4425 15.6455 15.848 15.535 16.292 15.4153C16.4331 15.375 16.4618 15.363 16.6719 15.2874C17.1912 15.1007 17.764 15.3697 17.9512 15.8889C18.1382 16.4083 17.8688 16.9809 17.3496 17.1682C17.1641 17.235 17.0626 17.2751 16.8418 17.3381L16.834 17.3411L16.8271 17.343C16.3455 17.4728 16.0398 17.5573 15.9004 17.6067C15.4885 17.7646 14.5659 18.0277 12.7285 18.093C11.5603 18.1345 9.93676 18.1105 8.82812 18.0432C7.80303 17.981 7.07168 17.9199 6.57031 17.7327C6.15915 17.579 5.62487 17.3784 5.15039 17.1008C4.67842 16.8247 4.14422 16.404 3.86328 15.7454C3.75523 15.4921 3.41241 14.7308 3.73242 13.9299L3.83887 13.6926C4.1026 13.1631 4.47733 12.7994 4.89355 12.6135L4.98926 12.5764ZM18.7861 10.5823C19.0718 10.1097 19.6865 9.9589 20.1592 10.2444C20.6318 10.53 20.7837 11.1448 20.498 11.6174C20.3636 11.84 20.259 11.9644 20.125 12.093C20.0335 12.1808 19.9176 12.2826 19.7822 12.3821L19.7646 12.3958L19.7471 12.4075C19.5661 12.5285 19.2883 12.7298 18.9141 12.9124C18.5297 13.0998 18.0602 13.2634 17.4189 13.3967C16.8879 13.5072 16.2003 13.6242 14.7578 13.6321C13.3465 13.6398 11.2448 13.5454 9.75684 13.4143C8.31723 13.2875 7.3562 13.1683 6.64551 12.928C5.21406 12.444 4.73396 12.145 4.51855 12.0061C4.05444 11.7068 3.92041 11.0874 4.21973 10.6233C4.51909 10.1593 5.13845 10.0261 5.60254 10.3254C5.65453 10.359 5.97998 10.5918 7.28613 11.0335C7.7323 11.1843 8.45161 11.2917 9.93262 11.4221C11.3657 11.5484 13.4046 11.6394 14.7471 11.6321C16.0575 11.6249 16.6124 11.5218 17.0117 11.4387C17.5204 11.3329 17.8273 11.2168 18.0371 11.1145C18.2477 11.0118 18.3811 10.916 18.6045 10.7659C18.6522 10.7303 18.6988 10.6904 18.7402 10.6506C18.7424 10.6485 18.7446 10.6463 18.7461 10.6448C18.7502 10.6392 18.7626 10.6213 18.7861 10.5823ZM10.4619 2.9026C11.3416 2.84115 12.4038 2.84322 12.9795 2.86647C13.2902 2.87903 13.4712 2.88881 13.5781 2.89576C13.6317 2.89925 13.6686 2.90218 13.6953 2.90455C13.7016 2.90512 13.7075 2.90609 13.7119 2.9065C13.7075 2.90615 13.6998 2.90511 13.6904 2.90455C13.6804 2.90397 13.6592 2.90358 13.6328 2.90357C13.7898 2.9036 13.9381 2.94068 14.0703 3.00514C14.5982 3.0278 15.1847 3.06066 15.7188 3.10377L16.4307 3.17115L16.4551 3.17408L16.4795 3.17799C17.1185 3.28071 17.654 3.37981 18.0791 3.49732C18.483 3.60899 18.9215 3.77075 19.2568 4.0774C19.5629 4.35741 19.8974 4.71888 20.1484 5.09693C20.2735 5.28538 20.3989 5.50834 20.4814 5.75025C20.5605 5.98216 20.6314 6.32364 20.5312 6.69459C20.4812 6.88007 20.3928 7.20138 20.167 7.56471C19.9418 7.92697 19.6099 8.28625 19.1221 8.63404C18.6493 8.97098 17.8261 9.27174 16.293 9.39186C15.3073 9.46906 13.951 9.48063 12.4951 9.39479C11.0821 9.31146 9.51117 9.18302 8.44922 8.9485C7.71459 8.78624 7.06902 8.61792 6.56641 8.42311C6.31426 8.32534 6.06419 8.20757 5.8457 8.0608C5.63232 7.91741 5.38745 7.70501 5.23047 7.39381C5.12102 7.17669 4.90831 6.76392 4.93555 6.2444L4.9541 5.96022C4.97747 5.6758 5.01712 5.39312 5.0918 5.13893C5.19407 4.79105 5.40352 4.35853 5.86816 4.09693L6 4.02955C6.15557 3.95733 6.37772 3.87021 6.63672 3.7776C7.00998 3.64414 7.5253 3.47746 8.18164 3.29713C8.86232 3.11012 9.54636 2.96657 10.4619 2.9026ZM10.6016 4.89772C9.84406 4.95063 9.29219 5.06614 8.71094 5.22584C8.09971 5.39379 7.63234 5.545 7.30957 5.66041C7.16967 5.71044 7.06547 5.75274 6.99121 5.78248C6.98333 5.8216 6.97464 5.87093 6.9668 5.9319C6.95334 6.03665 6.94317 6.16348 6.93457 6.31666C6.93878 6.32816 6.94534 6.34551 6.95605 6.3694C6.96147 6.38144 6.96794 6.39446 6.97461 6.40846C7.02879 6.44276 7.12698 6.49502 7.28906 6.55787C7.64329 6.6952 8.16627 6.83754 8.88086 6.99537C9.76646 7.19091 11.1866 7.31359 12.6133 7.39772C13.9972 7.47931 15.2597 7.4664 16.1367 7.39772C17.5126 7.28992 17.915 7.03872 17.9609 7.00611C18.2623 6.79135 18.3997 6.61846 18.4678 6.50904C18.5071 6.44577 18.5315 6.38738 18.5537 6.3235C18.5371 6.29224 18.5144 6.25164 18.4824 6.20338C18.346 5.99789 18.1312 5.75794 17.9072 5.55299C17.933 5.57654 17.8761 5.51634 17.5459 5.42506C17.2383 5.34004 16.8022 5.25517 16.1777 5.15455C15.3813 5.0683 14.2162 5.00395 13.3916 4.9817C12.5779 4.95976 12.1587 4.98275 11.6943 5.01881C11.4756 5.03573 11.2684 4.97904 11.0947 4.87232C10.9262 4.87913 10.7599 4.88666 10.6016 4.89772ZM13.7227 2.90748C13.7207 2.90729 13.7169 2.90697 13.7119 2.9065H13.7139C13.7176 2.90682 13.7211 2.90733 13.7227 2.90748Z" fill="black"/>
</svg>
