<svg width="24" height="24" viewBox="0 0 24 24" fill="none" xmlns="http://www.w3.org/2000/svg">
<path d="M11.7878 1.00101C12.3394 0.976429 12.807 1.40356 12.8318 1.95511C12.8385 2.10651 12.8564 2.76289 12.8562 3.69242C13.2375 3.43624 13.6152 3.1869 13.8923 2.99515C14.1966 2.78467 14.3578 2.66504 14.4509 2.59183C14.5306 2.52912 14.5567 2.50346 14.5964 2.46488C14.9924 2.07996 15.6255 2.08853 16.0105 2.48441C16.3953 2.88043 16.386 3.51355 15.99 3.89847C15.983 3.90523 15.9755 3.9113 15.9685 3.918C16.065 3.88698 16.1683 3.87015 16.2751 3.87015C16.8271 3.87052 17.2751 4.31811 17.2751 4.87015C17.2751 4.90064 17.2542 5.42921 17.2224 6.25296C18.0093 5.61977 18.1344 5.47316 18.1863 5.41507C18.2559 5.33723 18.2874 5.30143 18.3005 5.28617C18.2987 5.28845 18.2957 5.29208 18.2927 5.29593C18.2869 5.30327 18.2787 5.31354 18.2703 5.32523C18.2626 5.33595 18.2566 5.34573 18.2566 5.34574C18.5653 4.88793 19.1864 4.76672 19.6443 5.07523C20.1021 5.38392 20.2233 6.00504 19.9148 6.46292C19.8595 6.54488 19.7899 6.62227 19.6775 6.74808C19.5514 6.8891 19.3762 7.07286 18.8367 7.52054C19.2896 7.65533 19.7346 7.78776 20.0642 7.88871C20.8137 8.11825 20.9972 8.19043 21.2224 8.31156C21.7084 8.57322 21.8908 9.17987 21.6296 9.66605C21.368 10.1523 20.7614 10.3346 20.2751 10.0733C20.244 10.0565 20.2307 10.0477 20.1492 10.0176C20.0435 9.97871 19.8541 9.9166 19.4792 9.80179C19.1071 9.68782 18.5793 9.53084 18.0525 9.37406C17.6474 9.2535 17.2419 9.13155 16.9128 9.03226C15.97 9.75235 14.7219 10.6901 13.4597 11.626C14.9026 12.4525 16.3011 13.215 17.3699 13.793C17.7769 13.6304 18.2965 13.4379 18.8816 13.2256C19.5339 12.9581 19.8324 12.8093 19.8982 12.7715L19.9197 12.7588L19.9421 12.7471C20.0877 12.6731 20.2073 12.638 20.3044 12.6133C20.8397 12.4773 21.3842 12.8007 21.5203 13.336C21.6539 13.8626 21.342 14.3965 20.822 14.543C20.6172 14.6524 20.2469 14.8241 19.6824 15.0567C19.8355 15.1456 19.8956 15.1863 19.9646 15.2344C20.502 15.6058 20.8689 15.9148 21.0906 16.0909H21.0896C21.1342 16.1253 21.1956 16.1709 21.2849 16.2364C21.7305 16.5626 21.827 17.1892 21.5007 17.6348C21.1744 18.0798 20.5487 18.1765 20.1033 17.8506C19.9942 17.7708 19.9165 17.7118 19.8562 17.6651L19.8464 17.6573C19.583 17.4481 19.294 17.2021 18.8279 16.8799L18.824 16.877C18.7844 16.8493 18.7882 16.8417 18.0007 16.4121C18.0942 16.9424 18.1947 17.5831 18.2878 18.1006C18.3286 18.3273 18.3554 18.4572 18.3728 18.5362C18.3924 18.6249 18.3951 18.6305 18.4138 18.709C18.4504 18.8628 18.4729 19.0132 18.4734 19.1953C18.4747 19.7474 18.0275 20.1967 17.4753 20.1983C16.9237 20.1994 16.4753 19.7529 16.4734 19.2012L16.4724 19.1934C16.4726 19.1942 16.4725 19.1886 16.4685 19.1719C16.4471 19.082 16.4091 18.9542 16.3191 18.4541C16.2453 18.0438 16.0874 17.0762 16.0242 16.7198C15.9342 16.2128 15.895 15.9262 15.8249 15.2305C14.8784 14.7161 13.7447 14.0933 12.5749 13.4248C12.5691 13.692 12.5618 13.9428 12.5574 14.1719C12.5178 16.2007 12.5418 16.4091 12.5779 17.3643C12.5865 17.5923 12.5936 17.8606 12.6033 18.1602C12.837 18.2454 13.1165 18.3498 13.4578 18.4785C13.8236 18.6166 14.1024 18.7483 14.3113 18.8526C14.3622 18.878 14.4094 18.9022 14.4499 18.9229C14.4919 18.9443 14.5255 18.9616 14.5554 18.9766L14.6247 19.0108L14.6345 19.0137L14.6433 19.0176C14.8977 19.1171 15.1522 19.2095 15.3621 19.2852C15.5395 19.3492 15.7477 19.4234 15.8464 19.4659C15.9227 19.4987 16.0228 19.542 16.1824 19.6377C16.6557 19.9218 16.8098 20.5353 16.5261 21.0088C16.2422 21.4824 15.6277 21.6363 15.154 21.3526C15.1222 21.3335 15.1063 21.3252 15.1003 21.3223C15.0932 21.3188 15.0883 21.3165 15.0564 21.3028L15.0525 21.3008C15.0472 21.2988 15.0192 21.2879 14.9529 21.2637C14.8817 21.2377 14.7924 21.2064 14.6833 21.167C14.4702 21.0901 14.1958 20.9903 13.9158 20.8809V20.8799C13.8175 20.8424 13.7239 20.7972 13.6589 20.7647C13.6211 20.7457 13.5799 20.7246 13.5417 20.7051C13.502 20.6848 13.4606 20.664 13.4177 20.6426C13.2495 20.5586 13.0355 20.4577 12.7517 20.3506C12.7237 20.3401 12.6958 20.3296 12.6687 20.3194C12.6823 20.7987 12.6975 21.2981 12.7117 21.8008C12.7271 22.3527 12.2928 22.8124 11.741 22.8282C11.1891 22.8436 10.7284 22.4092 10.7126 21.8575C10.6935 21.1751 10.674 20.5017 10.656 19.877C10.1311 20.1958 9.47159 20.5983 9.03002 20.876C8.43772 21.2485 8.28426 21.3661 8.12377 21.4766C7.93837 21.6042 7.78576 21.6937 7.65697 21.7686C7.17949 22.0461 6.56732 21.8838 6.28979 21.4063C6.01237 20.9289 6.17381 20.3167 6.65111 20.0391C6.77724 19.9658 6.87278 19.9098 6.98998 19.8291C7.13243 19.7311 7.32923 19.5839 7.96557 19.1836C8.58906 18.7915 9.62068 18.1639 10.1335 17.8535C10.3794 17.7048 10.5117 17.6248 10.5837 17.5821C10.582 17.5333 10.5815 17.486 10.5798 17.4405C10.5427 16.4583 10.5169 16.2101 10.5574 14.1328C10.5597 14.0111 10.5634 13.8831 10.5662 13.75C10.2217 14.0006 9.9001 14.2366 9.60815 14.4463C9.00547 14.8792 8.5396 15.2049 8.16674 15.46C8.16605 15.4649 8.16646 15.47 8.16576 15.4746C8.12556 15.7408 8.03669 15.9759 7.96557 16.1426C7.92887 16.2286 7.89138 16.3095 7.86108 16.3741C7.84178 16.4152 7.82552 16.4479 7.81225 16.4766C7.71514 16.8202 7.60065 17.2279 7.50365 17.5752C7.45163 17.7615 7.40555 17.9299 7.36986 18.0606C7.35201 18.1259 7.33713 18.1813 7.32592 18.2237C7.3204 18.2445 7.31555 18.2615 7.31225 18.2744L7.31127 18.2774L7.27514 18.4659C7.16963 19.0077 6.6452 19.3621 6.10326 19.2569C5.56135 19.1515 5.20725 18.6269 5.31225 18.085C5.31841 18.0533 5.34018 17.9322 5.35522 17.8614L5.35619 17.8526L5.35815 17.8438C5.38114 17.7443 5.47096 17.416 5.57983 17.0264C5.18834 17.2527 4.80919 17.4744 4.55248 17.628C4.11578 17.9002 4.01496 17.9719 3.92162 18.0352L3.9226 18.0362L3.77611 18.1436C3.32497 18.4614 2.70086 18.3543 2.38256 17.9034C2.06429 17.4523 2.17292 16.8283 2.62377 16.5098C2.64022 16.4982 2.65498 16.4872 2.67553 16.4717C2.69401 16.4578 2.72763 16.4314 2.7644 16.4053L2.78783 16.3897C2.88032 16.3278 2.98975 16.2466 3.49486 15.9317L3.51049 15.9219C3.80218 15.7472 4.25262 15.4833 4.7058 15.2217C4.21393 15.0046 3.81737 14.8289 3.531 14.7002C3.36089 14.6238 3.22844 14.5641 3.13744 14.5225C3.09252 14.502 3.05593 14.4843 3.02904 14.4717C3.0164 14.4658 3.00182 14.4594 2.98901 14.4532C2.98345 14.4505 2.97112 14.4445 2.95776 14.4375C2.95195 14.4345 2.93679 14.4265 2.91869 14.416C2.90998 14.411 2.89192 14.4002 2.86986 14.3858C2.86603 14.3833 2.78903 14.3352 2.70971 14.2559C2.31923 13.8654 2.31931 13.2324 2.70971 12.8418C3.02348 12.5281 3.49355 12.4668 3.86889 12.6573C3.86673 12.6562 3.8647 12.6547 3.86401 12.6543C3.86471 12.6546 3.86873 12.6565 3.8767 12.6602C3.89548 12.669 3.92568 12.6836 3.9685 12.7032C4.05413 12.7423 4.18244 12.8006 4.35033 12.876C4.68601 13.0268 5.17841 13.2458 5.80248 13.5205C6.30565 13.742 6.63253 13.8597 6.85326 13.9346C7.23691 13.6758 7.74115 13.3251 8.44115 12.8223C8.8536 12.526 9.32768 12.1798 9.83861 11.8067C8.8819 11.219 7.98235 10.6434 7.18627 10.1221C6.63668 10.2929 5.98685 10.4848 5.46166 10.6553C4.82905 10.8832 4.59427 10.9824 4.49975 11.0235C4.47478 11.0356 4.46673 11.0423 4.28881 11.1338C3.79775 11.3864 3.19383 11.1932 2.94115 10.7022C2.68892 10.2114 2.88231 9.6083 3.37279 9.3555C3.44425 9.31873 3.49135 9.2937 3.52807 9.27445C3.56136 9.257 3.6015 9.23624 3.64428 9.21585L3.66186 9.20804L3.67846 9.20023C3.78413 9.15462 4.03261 9.0439 4.79467 8.76956L4.80932 8.76371L4.82397 8.75882C4.88975 8.73741 4.96486 8.71489 5.04565 8.68949C4.92006 8.60379 4.80237 8.52478 4.69506 8.45121C3.57687 7.68451 3.43634 7.57585 3.30444 7.45706C2.89438 7.08762 2.86122 6.45531 3.23022 6.04496C3.59972 5.63469 4.23194 5.60145 4.64233 5.97074C4.6507 5.97828 4.65166 5.99664 5.82592 6.80179C6.01122 6.92884 6.22582 7.07297 6.46361 7.23441C6.43081 7.16341 6.39934 7.0903 6.36498 7.01859C6.0603 6.38282 5.71978 5.77119 5.5144 5.37796C5.27169 4.91321 5.18165 4.67468 5.0769 4.37503C4.89501 3.85391 5.16917 3.28292 5.69018 3.10062C6.21136 2.91843 6.78216 3.19384 6.96459 3.71488C7.04349 3.94057 7.09664 4.08792 7.28686 4.45218C7.45769 4.77927 7.84496 5.47881 8.16869 6.15433C8.49753 6.84059 8.76612 7.50047 8.90893 7.86038C8.96687 8.00642 9.03907 8.18689 9.07494 8.33695C9.0954 8.42276 9.12861 8.59366 9.09545 8.79984C9.08666 8.85433 9.07218 8.90486 9.05736 8.95218C9.56293 9.27746 10.0993 9.61724 10.657 9.96195C10.6916 8.66438 10.7284 7.39119 10.7576 6.45511C10.7447 6.44221 10.7343 6.43397 10.7292 6.42874C10.6981 6.39635 10.6247 6.31577 10.5945 6.28324C10.4975 6.1788 10.3178 5.9919 9.97045 5.67191C9.72977 5.45021 9.15951 4.9606 8.87572 4.68851C8.38097 4.21403 7.99765 3.74629 7.85033 3.53128C7.53835 3.07571 7.65468 2.45278 8.1101 2.14066C8.5657 1.82866 9.18862 1.94493 9.50072 2.40042C9.55545 2.48026 9.84258 2.8453 10.2595 3.24515C10.444 3.42209 10.6418 3.59466 10.8552 3.78128C10.8555 3.75904 10.8572 3.73643 10.8572 3.71292L10.8474 2.57621C10.842 2.28975 10.8363 2.10295 10.8337 2.04496C10.8091 1.49331 11.2362 1.02574 11.7878 1.00101ZM4.02807 12.7598C3.99205 12.7318 3.96742 12.7139 3.96459 12.7119C3.94254 12.6975 3.92398 12.6874 3.91576 12.6827C3.90766 12.678 3.90015 12.6741 3.89428 12.6709C3.94085 12.6963 3.98518 12.7265 4.02807 12.7598ZM15.03 4.63968C14.4189 5.06249 13.3452 5.77655 12.7683 6.1641C12.7662 6.22876 12.7636 6.2956 12.7615 6.36429C12.7337 7.24166 12.6997 8.45935 12.6658 9.72269C13.5599 9.05798 14.4299 8.40334 15.1706 7.84183C15.1572 7.749 15.1554 7.66878 15.157 7.60648C15.1586 7.54424 15.1634 7.47843 15.1667 7.43656C15.1743 7.34214 15.1859 7.20744 15.1951 6.9766C15.2468 5.66812 15.2751 4.85885 15.2751 4.87015C15.2751 4.68872 15.3235 4.5188 15.408 4.3721C15.3045 4.44694 15.181 4.53526 15.03 4.63968Z" fill="black"/>
</svg>
