<svg width="24" height="24" viewBox="0 0 24 24" fill="none" xmlns="http://www.w3.org/2000/svg">
<path d="M11.7803 18.9727C12.3323 18.9728 12.7801 19.4207 12.7803 19.9727L12.7988 20.3408L12.7998 20.3545L12.8008 20.3691C12.8057 20.5266 12.8054 20.7476 12.7979 20.9336C12.79 21.1275 12.7729 21.2799 12.7608 21.4082C12.7087 21.9576 12.2214 22.3611 11.6719 22.3096C11.1221 22.2577 10.7187 21.7696 10.7705 21.2197C10.7853 21.0637 10.7947 20.9791 10.7998 20.8525C10.8053 20.7179 10.8053 20.5443 10.8018 20.4307C10.7913 20.2562 10.7803 20.1013 10.7803 19.9727C10.7805 19.4206 11.2282 18.9727 11.7803 18.9727ZM17.1182 17.8105C17.2359 17.2712 17.7691 16.9285 18.3086 17.0459C18.4673 17.0805 18.5838 17.1492 18.5947 17.1553C18.6338 17.1769 18.6671 17.1978 18.6885 17.2119C18.7328 17.2413 18.778 17.274 18.8174 17.3037L19.1113 17.5381L19.1172 17.5439L19.124 17.5498C19.2377 17.6473 19.3029 17.7118 19.3565 17.7676C19.4027 17.8157 19.399 17.8128 19.4053 17.8184C19.8173 18.1855 19.854 18.8171 19.4873 19.2295C19.1201 19.6419 18.4877 19.6787 18.0752 19.3115C17.9971 19.242 17.9383 19.1786 17.9141 19.1533C17.9014 19.1401 17.893 19.1317 17.8828 19.1221C17.8729 19.1126 17.8567 19.0972 17.8301 19.0742C17.7336 18.9944 17.6602 18.9367 17.6133 18.9014C17.6108 18.8995 17.6087 18.8972 17.6065 18.8955C17.233 18.6861 17.0224 18.2507 17.1182 17.8105ZM5.12697 17.0762C5.42176 16.8517 5.82954 16.7997 6.18264 16.9775C6.67561 17.2262 6.87353 17.8273 6.62502 18.3203C6.54876 18.4715 6.45184 18.5655 6.4258 18.5908C6.38648 18.6291 6.35229 18.6577 6.334 18.6719C6.29689 18.7006 6.26144 18.723 6.24416 18.7344C6.214 18.7542 6.1759 18.7774 6.13674 18.8018C5.99619 18.8986 5.86559 18.9972 5.77541 19.0723C5.74331 19.1009 5.71467 19.1294 5.66603 19.1777C5.27431 19.5669 4.64123 19.5644 4.25197 19.1729C3.86313 18.7811 3.86443 18.1479 4.25588 17.7588C4.30406 17.7109 4.37135 17.6436 4.45412 17.5703L4.46291 17.5625L4.4717 17.5557C4.62983 17.4221 4.82759 17.2753 5.01369 17.1475L5.03225 17.1348L5.05275 17.1221C5.08921 17.0994 5.11239 17.0854 5.12697 17.0762ZM17.6973 18.9404C17.7139 18.9478 17.7371 18.957 17.7647 18.9668C17.7669 18.9675 17.7701 18.9679 17.7725 18.9688C17.7462 18.9598 17.7204 18.9494 17.6953 18.9385L17.6973 18.9404ZM17.5908 18.8838C17.59 18.8832 17.5887 18.8824 17.5879 18.8818C17.5865 18.8809 17.5849 18.8804 17.584 18.8799C17.5853 18.8807 17.5879 18.8819 17.5908 18.8838ZM12.8028 6.03418C13.2176 6.04562 13.4575 6.07692 13.7578 6.15039C13.9872 6.20652 14.3336 6.29341 14.7197 6.46973C15.0482 6.61976 15.3389 6.76386 15.5606 6.87891C15.6704 6.91549 15.7751 6.97135 15.8692 7.04688C15.9131 7.07224 15.9491 7.09161 15.9727 7.10742C16.1707 7.2402 16.306 7.43219 16.3711 7.64355C16.4115 7.70683 16.4538 7.77672 16.499 7.85547C16.6607 8.13712 16.8935 8.58814 17.044 8.86914L17.2393 9.22559C17.4292 9.58355 17.5968 9.95471 17.6787 10.4053C17.7363 10.722 17.8009 11.1919 17.8233 11.6875C17.8456 12.1828 17.826 12.6899 17.7647 13.1406C17.7028 13.5955 17.6024 13.9754 17.4942 14.2832C17.3781 14.6131 17.2553 14.8542 17.0606 15.168C16.8825 15.4548 16.625 15.8351 16.4356 16.0791C16.3354 16.2081 16.2269 16.3347 16.086 16.4561C15.9505 16.5726 15.813 16.6597 15.6934 16.7324C15.4491 16.881 15.0651 17.0986 14.7207 17.2676C14.3564 17.4463 14.035 17.5722 13.6162 17.6807C13.2193 17.7834 12.7485 17.8683 12.2832 17.918C11.8398 17.9653 11.3819 17.9911 11.0537 17.9805C10.5677 17.9646 10.0091 17.8689 9.40725 17.6582C9.01405 17.5205 8.56459 17.2803 8.05471 16.8506C7.77139 16.6118 7.55863 16.3675 7.32326 16.0156C7.1058 15.6905 6.85643 15.2565 6.67971 14.8818C6.49653 14.4935 6.39173 14.1728 6.32619 13.9014C6.25094 13.5896 6.23278 13.3531 6.22463 12.8906C6.21671 12.4407 6.2179 11.7048 6.25295 11.1172C6.28716 10.5439 6.34031 10.0719 6.46779 9.62207C6.64531 8.996 6.8482 8.36694 7.16311 7.94727C7.36321 7.68062 7.6824 7.26232 8.11818 6.98633C8.60736 6.67671 9.03125 6.4307 9.84963 6.27246C10.1861 6.20743 10.705 6.1215 11.2715 6.0752C11.8335 6.0293 12.4142 6.02348 12.8028 6.03418ZM12.7481 8.0332C12.4207 8.02419 11.9133 8.02928 11.4346 8.06836C10.9605 8.10711 10.5166 8.17986 10.2295 8.23535C9.75481 8.32712 9.57258 8.43268 9.1885 8.67578C9.10166 8.73075 8.97797 8.86063 8.76271 9.14746C8.70662 9.22221 8.58636 9.48368 8.3926 10.167C8.32438 10.4076 8.28051 10.709 8.24904 11.2363C8.21842 11.7498 8.21709 12.4276 8.22463 12.8555C8.22841 13.0698 8.23384 13.1852 8.24123 13.2627C8.24731 13.3264 8.25505 13.3685 8.27053 13.4326C8.30402 13.5712 8.36309 13.7628 8.4883 14.0283C8.62018 14.3079 8.8198 14.6557 8.98537 14.9033C9.13297 15.124 9.2249 15.2211 9.34377 15.3213C9.68542 15.6092 9.92526 15.7204 10.0684 15.7705C10.4846 15.9162 10.842 15.9724 11.1182 15.9814C11.3175 15.9879 11.6746 15.972 12.0713 15.9297C12.4463 15.8896 12.8193 15.8205 13.1143 15.7441C13.3871 15.6735 13.5824 15.599 13.8399 15.4727C14.1174 15.3364 14.4474 15.1493 14.6543 15.0234C14.76 14.9591 14.778 14.9432 14.7813 14.9404C14.7824 14.9395 14.7868 14.9357 14.7949 14.9268C14.8062 14.9143 14.8248 14.8921 14.8555 14.8525C14.9899 14.6794 15.2077 14.3608 15.3613 14.1133C15.498 13.8932 15.5499 13.7838 15.6074 13.6201C15.6729 13.434 15.7404 13.1858 15.7832 12.8711C15.8266 12.5522 15.8427 12.1662 15.8252 11.7773C15.8077 11.3889 15.7559 11.0101 15.711 10.7627C15.6701 10.5382 15.5847 10.3612 15.2949 9.83887L15.2881 9.82715C15.107 9.4895 14.9106 9.10589 14.7647 8.85156C14.7037 8.74534 14.6655 8.68966 14.6397 8.6543C14.6315 8.65005 14.6228 8.64505 14.6143 8.64062C14.4362 8.54883 14.1875 8.42552 13.8887 8.28906C13.6841 8.19568 13.4925 8.14497 13.2832 8.09375C13.1447 8.05987 13.0485 8.0415 12.7481 8.0332ZM21.3145 11.0527C21.8626 10.9883 22.3599 11.3805 22.4248 11.9287C22.4895 12.477 22.0971 12.9741 21.5488 13.0391C21.4794 13.0473 21.4222 13.0518 21.3906 13.0547C21.3608 13.0574 21.3351 13.0599 21.2959 13.0654C21.2479 13.0723 21.1818 13.0832 21.0996 13.0967C21.0235 13.1091 20.932 13.1245 20.8545 13.1357C20.6844 13.1604 20.58 13.1673 20.4942 13.1729C19.9431 13.2084 19.4673 12.7903 19.4317 12.2393C19.3961 11.6882 19.8142 11.2124 20.3653 11.1768C20.4025 11.1743 20.4263 11.1725 20.4541 11.1699C20.4811 11.1674 20.5172 11.1637 20.5684 11.1562C20.6237 11.1482 20.6945 11.1365 20.7764 11.123C20.8519 11.1107 20.9414 11.0964 21.0147 11.0859C21.0963 11.0743 21.1562 11.0682 21.2071 11.0635C21.2564 11.0589 21.2779 11.0571 21.3145 11.0527ZM2.04689 10.9961C2.18641 11.0144 2.31422 11.0309 2.52639 11.0498C2.77531 11.0719 3.03343 11.089 3.42287 11.1221C3.97318 11.1688 4.38169 11.6528 4.33498 12.2031C4.28799 12.7531 3.80404 13.1609 3.25393 13.1143C2.94573 13.0881 2.56716 13.0613 2.34963 13.042C2.09548 13.0194 1.93517 12.998 1.78713 12.9785C1.23973 12.9066 0.854174 12.4048 0.9258 11.8574C0.997694 11.3099 1.49944 10.9244 2.04689 10.9961ZM17.9199 4.79395C18.3062 4.39924 18.9393 4.39209 19.334 4.77832C19.7286 5.1645 19.7356 5.79764 19.3496 6.19238C19.2473 6.29697 19.1458 6.39194 19.0547 6.46875C19.0071 6.50891 18.967 6.54088 18.9346 6.56543C18.9189 6.57729 18.9088 6.58409 18.9024 6.58887L18.5928 6.84082C18.1618 7.18604 17.5328 7.11656 17.1875 6.68555C16.8424 6.25454 16.9119 5.62553 17.3428 5.28027C17.454 5.19118 17.5471 5.11345 17.6289 5.0459L17.6397 5.03711L17.6514 5.02832C17.669 5.01463 17.6855 5.00203 17.6973 4.99316C17.7108 4.98302 17.7176 4.97752 17.7266 4.9707C17.7409 4.95983 17.7528 4.95126 17.7656 4.94043C17.7959 4.91486 17.8495 4.86588 17.9199 4.79395ZM3.76662 3.98828C4.16098 3.60188 4.79412 3.60784 5.18068 4.00195C5.30507 4.12891 5.55618 4.39099 5.84768 4.69629C5.8538 4.70269 5.8598 4.70916 5.86525 4.71484C6.26948 4.93355 6.48294 5.41032 6.35061 5.87012C6.19767 6.4005 5.64283 6.70725 5.11232 6.55469C4.97631 6.51552 4.83325 6.45531 4.68947 6.34863C4.57743 6.26544 4.4799 6.15902 4.40334 6.0791L4.40236 6.07812C4.10867 5.77052 3.86686 5.51862 3.75295 5.40234C3.36659 5.00804 3.37266 4.37485 3.76662 3.98828ZM11.9717 1.57812C12.524 1.57812 12.9717 2.02584 12.9717 2.57812C12.9717 2.60493 12.9721 2.63411 12.9746 2.79102C12.9772 2.95013 12.9819 3.23412 12.9873 3.52832C12.9973 4.08037 12.558 4.5367 12.0059 4.54688C11.454 4.55694 10.9978 4.11731 10.9873 3.56543C10.9819 3.27262 10.9773 2.986 10.9746 2.82422C10.972 2.66142 10.9717 2.62005 10.9717 2.57812C10.9717 2.02584 11.4194 1.57813 11.9717 1.57812Z" fill="black"/>
</svg>
