<svg width="24" height="24" viewBox="0 0 24 24" fill="none" xmlns="http://www.w3.org/2000/svg">
<path d="M11.7149 10.9337C11.9863 10.4532 12.5964 10.2828 13.0772 10.5538C13.5579 10.825 13.7278 11.4352 13.4571 11.9161C13.2981 12.1983 13.1386 12.4805 12.5636 13.4503C12.2346 14.0051 11.7754 14.775 11.3546 15.4855C12.0412 15.3048 12.7873 15.112 13.2735 14.9923C13.6417 14.9017 13.8864 14.8454 14.0509 14.8185C14.1817 14.797 14.5153 14.7403 14.8604 14.9239C14.9111 14.9509 15.0241 15.0149 15.1349 15.132C15.2531 15.2569 15.3313 15.4013 15.3761 15.545C15.451 15.7858 15.4224 16.0015 15.4102 16.0861C15.382 16.2831 15.3072 16.5445 15.2013 16.8771C14.977 17.5809 14.5108 18.9077 14.1778 19.7931C13.8394 20.6929 13.6461 21.1142 13.5294 21.3702C13.4754 21.4888 13.4402 21.5664 13.4161 21.6202C13.3938 21.6701 13.3761 21.7111 13.3604 21.7452C13.3197 21.834 13.2741 21.9241 13.1983 22.0392C12.8946 22.5003 12.2748 22.6279 11.8136 22.3243C11.3524 22.0206 11.2248 21.4008 11.5284 20.9396L11.5323 20.9337C11.5333 20.9316 11.5362 20.9251 11.5421 20.9122C11.5763 20.8377 11.5832 20.8175 11.7091 20.5411C11.8129 20.3133 11.9875 19.9352 12.3058 19.089C12.5199 18.5197 12.789 17.7621 13.0089 17.1232C12.291 17.3065 11.4208 17.5334 10.8487 17.6905C10.0457 17.9111 9.88544 17.9757 9.81455 18.007C9.81156 18.0083 9.80858 18.0106 9.8038 18.0128C9.79944 18.0148 9.7928 18.0177 9.78623 18.0206C9.77375 18.0261 9.75115 18.035 9.72568 18.045C9.70844 18.0518 9.55077 18.1187 9.3497 18.1241C9.23491 18.1272 9.0242 18.1132 8.8038 17.9835C8.55853 17.839 8.41454 17.6182 8.3497 17.4103C8.25125 17.094 8.33868 16.8235 8.34873 16.7892C8.3928 16.6384 8.47113 16.4854 8.52548 16.382C8.59265 16.2541 8.68496 16.0886 8.80478 15.88C9.28368 15.0464 10.2766 13.3865 10.8438 12.4298C11.4127 11.4703 11.5643 11.2011 11.7149 10.9337ZM11.8116 3.00695C12.1942 2.97922 12.6242 3.03477 13.1788 3.16808C13.745 3.30422 14.4933 3.5497 15.1026 3.8009C15.7285 4.05895 16.1958 4.31999 16.5479 4.54894C16.9265 4.7951 17.1688 5.00422 17.4874 5.34582C17.7826 5.66237 18.1646 6.11558 18.4894 6.5675C18.8181 7.025 19.0687 7.45769 19.2247 7.7423C19.4067 8.07445 19.4875 8.26503 19.6134 8.69933C19.7257 9.08712 19.8892 9.71733 19.9806 10.1046C20.0089 10.2249 20.0304 10.3259 20.0479 10.4132C20.088 10.4227 20.1295 10.4304 20.171 10.4415C20.4027 10.5034 20.7254 10.607 21.1749 10.7784C21.8762 11.0459 22.1853 11.5122 22.4435 11.88C22.6656 12.1966 22.8065 12.6284 22.9386 13.045C23.1765 13.796 23.2273 14.573 23.2403 15.0763C23.2543 15.617 23.0185 16.1026 22.8849 16.4103C22.6209 17.0181 22.2675 17.4444 22.006 17.7257C21.5568 18.2085 20.8428 18.5615 20.1554 18.8712L20.1036 18.8946L20.0479 18.9122C19.3032 19.1493 18.8701 19.2773 18.6036 19.3448C18.33 19.4141 18.1417 19.4447 17.9259 19.4269L17.9063 19.4249C17.8687 19.421 17.8282 19.4154 17.8009 19.4122C17.7707 19.4087 17.741 19.4058 17.7071 19.4025C17.1578 19.3481 16.7557 18.8581 16.8097 18.3087C16.8639 17.7595 17.3532 17.3586 17.9024 17.4122C17.9509 17.417 17.9928 17.421 18.0265 17.4249C18.0461 17.4206 18.0749 17.4158 18.1124 17.4064C18.3093 17.3565 18.6765 17.2493 19.381 17.0255C20.0832 16.7067 20.4105 16.5036 20.5411 16.3634C20.7237 16.167 20.9119 15.9312 21.0499 15.6134C21.1393 15.4075 21.1887 15.2949 21.2198 15.2013C21.2329 15.1619 21.2385 15.1389 21.2403 15.128C21.2288 14.6833 21.1846 14.1302 21.0323 13.6495C20.961 13.4245 20.9083 13.2707 20.8644 13.1593C20.8307 13.074 20.8115 13.0373 20.8067 13.0284C20.7393 12.9323 20.6918 12.8653 20.6485 12.8087C20.6073 12.7547 20.5805 12.7251 20.5626 12.7071C20.5472 12.6918 20.5372 12.6839 20.5294 12.6788C20.5207 12.6733 20.5007 12.6623 20.462 12.6476C20.0556 12.4926 19.8014 12.4131 19.6554 12.3741C19.5841 12.3551 19.5438 12.3466 19.5284 12.3439C19.5212 12.3433 19.5141 12.3416 19.5069 12.3409C19.4027 12.3836 19.29 12.4101 19.171 12.4152C18.6193 12.4383 18.1533 12.0098 18.13 11.4581C18.1171 11.1504 18.1225 11.1593 18.1144 10.9962C18.1126 10.9621 18.111 10.9401 18.1036 10.8946C18.0943 10.8373 18.0751 10.7408 18.0333 10.5636C17.9485 10.2041 17.7942 9.60697 17.6925 9.25598C17.6422 9.08237 17.6136 8.99901 17.589 8.93859C17.5658 8.88192 17.5372 8.82436 17.4708 8.70324C17.3377 8.46029 17.1303 8.10422 16.8653 7.73547C16.5962 7.36096 16.2694 6.97273 16.0245 6.71008C15.8031 6.47264 15.6833 6.37281 15.4571 6.2257C15.2043 6.06135 14.8473 5.85833 14.3409 5.64953C13.8178 5.43383 13.1673 5.22211 12.711 5.11242C12.2439 5.00014 12.0438 4.99585 11.9571 5.00207C11.711 5.01991 11.475 5.04785 10.752 5.36242C10.1371 5.63002 9.12409 6.0916 8.51279 6.39953C7.92869 6.69378 7.7689 6.81775 7.59384 6.96691C7.37842 7.15049 7.16017 7.36334 6.9581 7.61144C6.72932 7.89241 6.53862 8.16994 6.44931 8.34094C6.22706 8.76695 6.16108 8.93001 6.14267 9.05773C6.12546 9.17783 6.11913 9.32364 6.11826 9.48058C6.33113 9.58874 6.50632 9.77244 6.59873 10.0128C6.79664 10.5283 6.53898 11.1067 6.02353 11.3048C5.92763 11.3417 5.83441 11.3788 5.74326 11.4142C5.63257 11.4865 5.50578 11.5377 5.36728 11.5616C5.07927 11.6764 4.82203 11.7826 4.60263 11.882C4.24867 12.0423 4.00256 12.1788 3.83701 12.2814C3.61043 12.4407 3.4536 12.6055 3.34775 12.7736C3.26706 12.9017 3.14033 13.1367 3.05966 13.4689C3.00794 13.6819 2.97235 13.909 3.02841 14.2003C3.10048 14.574 3.18249 14.8373 3.32236 15.0528C3.53219 15.376 3.70083 15.6014 4.08798 15.878C4.57526 16.2261 4.96924 16.5055 5.2413 16.6964C5.37703 16.7916 5.48167 16.8647 5.55185 16.9132C5.5774 16.9308 5.59769 16.9452 5.6124 16.9552C5.60715 16.952 5.58906 16.9413 5.56552 16.9288C5.55475 16.9231 5.52624 16.9084 5.48935 16.8927C5.48421 16.8905 5.47739 16.8879 5.46982 16.8849C5.83754 17.0326 6.09772 17.3921 6.09775 17.8126C6.09775 18.3648 5.64988 18.8124 5.09775 18.8126C4.94697 18.8126 4.83213 18.7774 4.8038 18.7687C4.75829 18.7547 4.72246 18.7403 4.7042 18.7325C4.66704 18.7166 4.6389 18.7012 4.62802 18.6954C4.60352 18.6824 4.58446 18.6709 4.57822 18.6671C4.56286 18.6578 4.54916 18.6499 4.54404 18.6466C4.53163 18.6385 4.51864 18.6294 4.50791 18.6222C4.48462 18.6065 4.45245 18.5845 4.41513 18.5587C4.33951 18.5065 4.23085 18.4299 4.09287 18.3331C3.81566 18.1386 3.41634 17.857 2.9249 17.506C2.26013 17.031 1.93069 16.5832 1.64463 16.1427C1.29148 15.5988 1.15131 15.0292 1.06455 14.5792C0.93338 13.8986 1.02868 13.3582 1.1163 12.9972C1.25962 12.4069 1.48864 11.9718 1.65537 11.7071C1.93166 11.2686 2.2984 10.9124 2.71689 10.6232L2.73545 10.6105L2.754 10.5987C3.00344 10.4422 3.33589 10.2597 3.77744 10.0597C3.88768 10.0098 4.0042 9.95785 4.12607 9.90637C4.10813 9.54737 4.11085 9.1384 4.16318 8.77355C4.23789 8.25338 4.47882 7.79385 4.67588 7.41613C4.85462 7.07362 5.14025 6.67673 5.40732 6.34875C5.70124 5.98784 6.00894 5.68908 6.29599 5.44445C6.62337 5.16549 6.92758 4.95886 7.61338 4.6134C8.27263 4.28131 9.32382 3.80273 9.9542 3.52844C10.825 3.14956 11.284 3.04525 11.8116 3.00695Z" fill="black"/>
</svg>
