<svg width="24" height="24" viewBox="0 0 24 24" fill="none" xmlns="http://www.w3.org/2000/svg">
<path d="M6.50506 15.958C7.03343 15.9577 7.59336 16.0161 8.04998 16.0713C8.85135 16.1683 9.3674 16.5665 9.70526 16.8076C10.5472 17.4084 11.2065 17.8616 11.4855 18.0234C11.4883 18.0241 11.4919 18.0257 11.4953 18.0264C11.5429 18.0358 11.6215 18.0461 11.7385 18.0527C11.9757 18.0661 12.2997 18.0614 12.716 18.0381C13.2413 18.0086 13.752 17.8488 14.4172 17.5732C14.7655 17.4289 15.0628 17.2709 15.3537 17.1133C15.6217 16.9681 15.9477 16.7861 16.2638 16.667C17.1144 16.3467 17.9887 16.2063 18.798 16.1514L18.8488 16.1484L18.8986 16.1494C19.7941 16.1791 20.3674 16.2195 20.7433 16.2656C21.0415 16.3023 21.3096 16.3511 21.5383 16.457L21.634 16.5068L21.6594 16.5205L21.6838 16.5371C21.8288 16.6309 21.935 16.7317 22.0353 16.8271C22.4346 17.208 22.4499 17.8404 22.0695 18.2402C21.6892 18.6397 21.0575 18.6556 20.6574 18.2764C20.6196 18.2699 20.5676 18.2594 20.4992 18.251C20.2177 18.2164 19.7298 18.1791 18.8898 18.1504C18.2213 18.1987 17.5676 18.3132 16.968 18.5391C16.8107 18.5984 16.6277 18.6982 16.3068 18.8721C16.0082 19.0339 15.6335 19.2341 15.1828 19.4209C14.4543 19.7227 13.6942 19.9856 12.8283 20.0342C12.3869 20.0589 11.9755 20.0695 11.6262 20.0498C11.318 20.0324 10.8984 19.9861 10.551 19.7939C10.1698 19.5829 9.37771 19.031 8.54315 18.4355C8.16728 18.1674 8.03799 18.0853 7.80975 18.0576C7.36435 18.0038 6.90644 17.9578 6.50701 17.958C6.30894 17.9581 6.14545 17.9695 6.01971 17.9902C5.89992 18.0101 5.8497 18.0326 5.84393 18.0352C5.51084 18.2248 5.15634 18.4663 4.86834 18.6787C4.72577 18.7839 4.60499 18.8777 4.51776 18.9492C4.40501 19.0417 4.40143 19.053 4.43865 19.0098C4.07857 19.4283 3.44715 19.476 3.0285 19.1162C2.60985 18.756 2.56282 18.1237 2.92303 17.7051C3.01717 17.5958 3.15668 17.4792 3.2492 17.4033C3.36729 17.3065 3.51541 17.1914 3.68084 17.0693C4.00953 16.8269 4.4324 16.5383 4.85467 16.2979C5.37118 16.0039 6.02178 15.9583 6.50506 15.958ZM16.9377 10.2979C17.6369 10.104 18.4232 10.2825 18.9347 10.4365C19.3568 10.5636 19.741 10.7218 20.0031 10.8418L20.2209 10.9463L20.2248 10.9482C20.5879 11.1327 20.9462 11.3169 21.174 11.4453L21.3537 11.5537L21.3644 11.5605L21.3742 11.5674C21.4123 11.5945 21.4467 11.6201 21.4777 11.6436C21.51 11.668 21.5488 11.6987 21.6086 11.7432C22.0514 12.073 22.1435 12.6997 21.8137 13.1426C21.4838 13.585 20.857 13.6762 20.4142 13.3467C20.2773 13.2447 20.2578 13.2286 20.2297 13.208C20.2101 13.1969 20.1338 13.1537 19.9738 13.0693C19.8039 12.9797 19.5805 12.8641 19.3215 12.7324C19.1646 12.6535 18.7802 12.4786 18.3586 12.3516C17.8853 12.2091 17.5804 12.1955 17.4719 12.2256C17.4659 12.2276 17.4458 12.2348 17.4035 12.252C17.343 12.2765 17.2661 12.3098 17.1506 12.3594C16.925 12.4562 16.6007 12.5943 16.1222 12.7822C15.3431 13.0883 14.328 13.4524 13.6945 13.707C13.5487 13.7656 13.4273 13.8204 13.3097 13.874C13.2027 13.9229 13.0647 13.9866 12.9328 14.0361C12.6068 14.1584 12.2388 14.2233 11.7892 14.1025C11.1912 13.9418 10.483 13.6134 9.63592 13.2207C9.51852 13.1663 9.40133 13.099 9.3078 13.0449C9.20181 12.9836 9.11165 12.9303 8.9992 12.8672C8.78673 12.7479 8.53961 12.6208 8.23651 12.5068C7.59396 12.2654 7.33207 12.2153 7.1701 12.2178C6.51261 12.2281 5.91981 12.2676 5.42694 12.458C4.08805 12.9753 3.89195 13.1977 3.86248 13.2354C3.52262 13.6705 2.89442 13.7479 2.45916 13.4082C2.0239 13.0683 1.94652 12.4402 2.28631 12.0049C2.69542 11.4809 3.39659 11.0978 4.70623 10.5918C5.56526 10.26 6.48232 10.2291 7.13885 10.2188C7.71644 10.2097 8.29424 10.3922 8.93963 10.6348C9.36881 10.7961 9.71242 10.9736 9.97869 11.123C10.2953 11.3008 10.3769 11.36 10.4767 11.4062C11.3437 11.8081 11.8633 12.0414 12.2502 12.1543C12.2992 12.1348 12.3638 12.1075 12.4797 12.0547C12.6016 11.9991 12.7575 11.9273 12.9484 11.8506C13.5145 11.6231 14.7764 11.1622 15.3908 10.9209C15.8415 10.7439 16.1441 10.6148 16.3615 10.5215C16.546 10.4423 16.7572 10.3479 16.9377 10.2979ZM7.41717 3.92285C7.59331 3.93645 7.75729 3.97594 7.87518 4.00781C8.05789 4.05722 8.2631 4.1269 8.47674 4.2041C8.9027 4.35805 9.44481 4.57495 10.0441 4.8125C10.7207 5.08068 11.2164 5.49486 11.7346 5.90039C11.887 6.01969 11.9939 6.07918 12.0607 6.10938C12.1227 6.1373 12.1652 6.14681 12.1994 6.15234C12.7032 6.23346 13.0681 6.04576 14.0207 5.62598C14.1839 5.55405 14.3757 5.4465 14.6506 5.29199C14.9085 5.14701 15.2219 4.97161 15.5646 4.8125C16.0306 4.59619 16.5515 4.45869 17.2424 4.31934C17.9938 4.16781 18.6047 4.22857 18.9924 4.30762L19.3029 4.38574L19.3371 4.39648L19.3713 4.40918C19.5337 4.47177 19.6857 4.56135 19.8459 4.7168C19.9585 4.82611 20.0778 4.97184 20.2121 5.14258C20.4893 5.49509 20.9943 6.16976 21.5724 6.92676C21.9077 7.36566 21.8229 7.99387 21.384 8.3291C20.9452 8.66393 20.3178 8.58011 19.9826 8.1416C19.3785 7.35061 18.9072 6.719 18.6398 6.37891C18.6022 6.33109 18.5703 6.29186 18.5441 6.25977C18.3545 6.22642 18.0387 6.19945 17.6379 6.28027C16.9851 6.41195 16.652 6.51196 16.4064 6.62598C16.1433 6.74815 15.8933 6.88777 15.631 7.03516C15.3856 7.17307 15.099 7.33635 14.8273 7.45605C14.1087 7.77275 13.106 8.32396 11.882 8.12695C11.4782 8.06188 11.0332 7.89111 10.5021 7.47559C9.90855 7.01102 9.65766 6.81094 9.30682 6.67188C8.68677 6.42611 8.18574 6.22544 7.79705 6.08496C7.60352 6.01502 7.45735 5.96677 7.35272 5.93848C7.31629 5.92864 7.29086 5.92311 7.27557 5.91992C6.74459 5.94633 6.12006 6.03911 5.67889 6.18945C5.41147 6.28064 4.86997 6.45148 4.25213 6.96289C3.94713 7.21536 3.79936 7.36634 3.73455 7.44043C3.72763 7.44835 3.72144 7.45455 3.71697 7.45996C3.49354 7.90871 2.96513 8.12898 2.4826 7.9541C1.96382 7.76561 1.69493 7.19177 1.88299 6.67285L1.93963 6.54199C2.09133 6.23539 2.39875 5.90132 2.97674 5.42285C3.88833 4.66829 4.72056 4.40319 5.0324 4.29688C5.73006 4.05896 6.58596 3.94676 7.23846 3.91895L7.41717 3.92285Z" fill="black"/>
</svg>
