<svg width="24" height="24" viewBox="0 0 24 24" fill="none" xmlns="http://www.w3.org/2000/svg">
<path d="M17.8754 13.185C18.2085 12.7449 18.8354 12.658 19.2758 12.9907C19.7162 13.3239 19.8033 13.9516 19.4701 14.3921C19.4317 14.4428 19.3776 14.5071 18.4564 15.5737C17.5081 16.6719 15.6231 18.8513 14.6293 19.9956C13.6331 21.1426 13.5821 21.1914 13.4223 21.3667C13.2775 21.5255 13.0259 21.8094 12.766 22.1147C12.408 22.535 11.7763 22.5859 11.3559 22.228C10.9358 21.8701 10.8852 21.2393 11.2426 20.8188C11.5164 20.4972 11.7836 20.1957 11.9447 20.019C12.0907 19.859 12.1304 19.823 13.1195 18.6841C14.1114 17.542 15.9944 15.3642 16.9428 14.2661C17.4165 13.7175 17.6564 13.4398 17.7787 13.2973C17.8396 13.2265 17.8694 13.1909 17.8842 13.1733L17.8754 13.185ZM18.4096 3.36766C18.6993 3.00386 19.2142 2.88108 19.6449 3.10008C20.1368 3.35061 20.3327 3.9527 20.0824 4.44481C20.0064 4.59411 19.9028 4.69977 19.893 4.71043C19.8546 4.75194 19.7903 4.8192 19.6801 4.93309C19.476 5.14385 19.0515 5.57556 17.8812 6.97508C16.7014 8.38596 14.7935 10.7464 13.7719 11.9985C12.7725 13.2234 12.6724 13.324 12.4623 13.5307L12.4633 13.5317C12.0545 13.9412 11.703 14.2868 11.5541 14.4194L11.5551 14.4204C11.5193 14.4531 11.4707 14.5013 11.3988 14.5727C11.0073 14.9616 10.3741 14.9598 9.98476 14.5688C9.59553 14.1771 9.59693 13.543 9.98867 13.1538C10.0508 13.092 10.133 13.0109 10.2064 12.9438L10.2279 12.9243C10.2292 12.9232 10.2356 12.9177 10.2484 12.9057C10.2628 12.8924 10.2816 12.8744 10.3051 12.852C10.3521 12.8072 10.4131 12.7484 10.4867 12.6763C10.6338 12.532 10.8256 12.3416 11.0482 12.1186L11.1449 12.022C11.2509 11.9111 11.455 11.674 12.2221 10.7339C13.2319 9.4962 15.157 7.11608 16.3471 5.69285C17.5464 4.25863 18.0025 3.78942 18.2426 3.54149C18.2971 3.48511 18.338 3.44357 18.3676 3.41258C18.3864 3.39291 18.3998 3.37809 18.4096 3.36766ZM10.7455 3.05223C11.2204 2.87605 11.7612 3.08401 11.9896 3.54832C12.1875 3.95082 12.0897 4.42209 11.7807 4.71531C11.7791 4.71699 11.7768 4.71902 11.7748 4.72117C11.7412 4.75694 11.693 4.80874 11.5932 4.91551C11.4012 5.12074 11.0518 5.49286 10.4115 6.16453L10.4037 6.17137C9.22679 7.3815 6.97828 9.66585 5.76992 10.8979C4.57418 12.1171 4.44351 12.259 4.20839 12.4878C3.81264 12.8728 3.17949 12.8648 2.79433 12.4692C2.40927 12.0734 2.41821 11.4403 2.81386 11.0552C3.02693 10.8478 3.11705 10.7467 4.34218 9.49754C5.55624 8.25965 7.79704 5.98301 8.97011 4.77684C9.60248 4.11342 9.94589 3.74846 10.1322 3.5493C10.2214 3.45399 10.285 3.38589 10.3168 3.35203C10.332 3.3358 10.3527 3.31317 10.3725 3.29344C10.382 3.28395 10.4043 3.26287 10.432 3.23875C10.4474 3.22534 10.5297 3.15227 10.6518 3.09227L10.7455 3.05223ZM11.7357 4.7534C11.7391 4.75057 11.7422 4.74872 11.7435 4.74754C11.7462 4.74514 11.7489 4.74196 11.7514 4.73973C11.7463 4.74421 11.7409 4.74901 11.7357 4.7534ZM18.3158 3.50828C18.307 3.52427 18.3002 3.53856 18.3002 3.53856C18.313 3.51335 18.3276 3.48894 18.3422 3.46531C18.3331 3.47993 18.3237 3.4941 18.3158 3.50828Z" fill="black"/>
</svg>
