<svg width="24" height="24" viewBox="0 0 24 24" fill="none" xmlns="http://www.w3.org/2000/svg">
<path d="M11.5578 1.05456C12.4826 0.924423 13.199 1.06037 13.4699 1.1278C13.7148 1.1888 13.9887 1.33675 14.1808 1.44421C14.4119 1.57348 14.6884 1.74114 14.9875 1.92761C15.4675 2.2269 15.7117 2.51073 15.9005 2.74499C16.0802 2.96805 16.2129 3.24035 16.3175 3.49109C16.4275 3.75463 16.5341 4.06438 16.6408 4.40515C16.7941 4.89534 16.8242 5.45241 16.8478 5.78601C16.8771 6.20078 16.8775 6.55851 16.8517 6.93152C16.8015 7.65706 16.6848 8.2087 16.5802 8.57312C16.2988 9.55345 15.5676 10.0222 14.9132 10.3651L14.8439 10.4022L14.7687 10.4266C14.7194 10.4432 14.668 10.4565 14.6164 10.4725C14.7752 10.4709 14.9656 10.469 15.1935 10.4667C16.5412 10.4528 19.3541 10.4222 20.799 10.5604C21.1727 10.5962 21.4876 10.6464 21.7482 10.7167C21.9958 10.7835 22.2772 10.8901 22.5119 11.0897C22.7908 11.3272 22.9462 11.6474 22.965 11.9901C22.9795 12.2561 22.9029 12.4872 22.8898 12.5311C22.7123 13.1272 22.4557 13.6482 22.213 14.0673C22.0653 14.3223 21.8613 14.5435 21.671 14.7264C21.4747 14.9153 21.2415 15.1118 20.9972 15.3124C20.4011 15.8018 19.7484 16.0236 19.1662 16.1737C18.3833 16.3756 17.8094 16.3554 17.5783 16.3339C17.357 16.3132 17.1554 16.2228 17.0802 16.1893C16.9631 16.1372 16.8306 16.0703 16.6925 15.996C16.4138 15.846 16.0548 15.6374 15.6378 15.3866C14.932 14.9619 14.5756 14.4786 14.3791 14.1805C14.2736 14.4108 14.104 14.6771 13.8146 14.868C13.7954 14.8807 13.7749 14.8922 13.755 14.9051C13.7995 15.0081 13.8286 15.1198 13.8361 15.2382C13.8443 15.3682 13.8413 15.5059 13.7843 16.538C13.7249 17.6135 13.6024 19.7063 13.5353 20.8026C13.5024 21.34 13.4824 21.6475 13.465 21.8192C13.4586 21.8824 13.4456 22.0193 13.4044 22.1512C13.3817 22.2241 13.3233 22.3889 13.1789 22.5477C13.006 22.7377 12.8111 22.809 12.7257 22.8358C12.5713 22.8841 12.4396 22.8862 12.3791 22.8856C12.3231 22.8851 12.2651 22.8805 12.2296 22.8778C12.1395 22.871 12.0181 22.8607 11.7843 22.8446C11.3316 22.8134 10.4184 22.7599 9.90835 22.7196C9.58054 22.6937 9.30816 22.6564 9.06851 22.5878C8.80045 22.5109 8.61663 22.4071 8.46792 22.3134C8.0565 22.054 7.74597 21.7859 7.51871 21.4735C7.28966 21.1585 7.19037 20.8571 7.1271 20.6639C6.9358 20.0793 7.03795 19.4154 7.08316 19.0575C7.17851 18.3034 7.58681 17.6056 7.81949 17.1932C7.98178 16.9057 8.13381 16.7044 8.42007 16.3915C8.69256 16.0937 9.12183 15.6638 9.49722 15.3339L9.53433 15.3026C9.78166 15.1056 10.0023 14.9438 10.1945 14.8104C10.1279 14.7376 10.0627 14.658 10.0002 14.5712C9.93579 14.4818 9.86403 14.3792 9.79019 14.2655C9.72181 14.2803 9.65107 14.2889 9.57828 14.2889C9.61295 14.2889 9.61803 14.2873 9.38589 14.3007C9.1804 14.3124 8.80675 14.3349 8.13394 14.3759C6.9479 14.4481 4.69064 14.5965 3.51871 14.6493C2.9621 14.6744 2.57923 14.6823 2.33121 14.6532C2.23498 14.6419 1.93229 14.6074 1.66812 14.3856C1.32813 14.1001 1.29442 13.7112 1.29312 13.7001C1.23368 13.3023 1.2542 12.77 1.29605 12.3104C1.32345 12.0098 1.37538 11.8148 1.5021 11.4462C1.62264 11.0955 1.84032 10.5163 2.048 10.0507C2.42257 9.21095 2.80277 8.69113 3.14468 8.32312C3.58432 7.85002 4.04709 7.60425 4.39175 7.47448C4.94191 7.2675 5.49387 7.30411 5.71695 7.31335C6.18824 7.33291 6.5697 7.50389 7.00992 7.73913C7.40375 7.9496 7.9761 8.34944 8.37027 8.63464C8.92206 9.03392 9.27547 9.35822 9.50308 9.5946L9.69156 9.80163L9.71792 9.83093L9.74136 9.86316C9.748 9.8722 9.75335 9.88236 9.75992 9.89148C9.88174 9.75225 10.0609 9.57314 10.3029 9.4237C10.4044 9.36105 10.5119 9.30703 10.6252 9.26159C10.5975 9.13247 10.5705 8.98912 10.546 8.8446C10.5208 8.69496 10.5001 8.49711 10.4728 8.25769C10.4437 8.00224 10.4026 7.64899 10.3351 7.14148C10.1933 6.07559 9.97002 4.51084 9.84292 3.56237C9.78287 3.1142 9.74986 2.84245 9.73453 2.67077C9.72075 2.51647 9.70809 2.33143 9.75699 2.12683L9.79214 2.00573C9.99301 1.43119 10.5436 1.25842 10.7101 1.20984C10.9513 1.13951 11.2638 1.09595 11.5578 1.05456ZM11.6486 16.2743C11.6328 16.2748 11.6199 16.2749 11.6085 16.2753C11.5765 16.2931 11.5263 16.3223 11.4562 16.368C11.2996 16.4703 11.0833 16.6268 10.798 16.8534C10.4885 17.1273 10.1216 17.4951 9.89566 17.7421C9.67915 17.9787 9.62862 18.0571 9.56167 18.1757C9.28298 18.6695 9.10453 19.0164 9.06753 19.3085C9.00486 19.8047 9.006 19.9712 9.02847 20.0409C9.08484 20.213 9.10529 20.2545 9.13589 20.2967C9.16885 20.342 9.26153 20.449 9.53433 20.621C9.57174 20.6445 9.58591 20.6522 9.59195 20.6551C9.59466 20.6565 9.60142 20.6598 9.61929 20.6649C9.66791 20.6788 9.78485 20.7032 10.0656 20.7255C10.4522 20.756 11.0487 20.7923 11.5294 20.8231C11.5322 20.778 11.5362 20.7303 11.5392 20.6805C11.6061 19.5878 11.7281 17.4989 11.7873 16.4276C11.7906 16.3677 11.7922 16.3103 11.7951 16.2567C11.7474 16.2652 11.6985 16.2728 11.6486 16.2743ZM15.674 12.4618C15.756 12.6058 15.8598 12.7849 15.9377 12.91C16.0487 13.0777 16.0973 13.1638 16.2033 13.288C16.2981 13.399 16.438 13.5337 16.6691 13.6727C17.0782 13.9188 17.4041 14.1074 17.6398 14.2343C17.7359 14.2859 17.8098 14.3212 17.8615 14.3456C18.0031 14.3469 18.2855 14.3343 18.6662 14.2362C19.1443 14.1129 19.465 13.9821 19.7277 13.7665C19.9667 13.5702 20.1484 13.4158 20.2843 13.285C20.4253 13.1494 20.4725 13.0808 20.4816 13.0653C20.5723 12.9086 20.6591 12.7414 20.7394 12.5673C20.6983 12.5626 20.6548 12.5561 20.6085 12.5516C19.4283 12.4388 17.1421 12.4482 15.674 12.4618ZM11.5373 11.0975C11.4579 11.0963 11.4118 11.1054 11.3898 11.1112C11.3697 11.1165 11.3598 11.1221 11.3537 11.1259C11.3349 11.1375 11.3057 11.1599 11.2179 11.2665C11.2123 11.279 11.1993 11.309 11.1828 11.3632C11.1495 11.4727 11.1179 11.6219 11.0841 11.8212C11.0461 12.0458 11.0727 12.2253 11.132 12.4755C11.1951 12.7418 11.385 13.0713 11.6232 13.4022C11.685 13.488 11.7438 13.5295 11.7853 13.5516C11.8309 13.5759 11.8718 13.5854 11.8947 13.5887C11.8995 13.5894 11.9568 13.5966 12.1056 13.538C12.2336 13.4875 12.3879 13.4014 12.5861 13.2762C12.6246 13.155 12.6669 12.9684 12.7209 12.6688C12.7809 12.335 12.7893 12.0684 12.7814 11.8856C12.7781 11.8107 12.7705 11.7515 12.7648 11.7098C12.7568 11.6979 12.7483 11.6829 12.7365 11.6669C12.6857 11.5981 12.6051 11.5027 12.4982 11.3866C12.4364 11.3195 12.3868 11.2451 12.3468 11.1678C12.1954 11.1393 11.9106 11.1031 11.5373 11.0975ZM5.30484 9.30847C5.20859 9.31463 5.14145 9.32942 5.09585 9.34655C4.98089 9.38988 4.7988 9.48081 4.60953 9.68445C4.42193 9.88639 4.16188 10.2201 3.87417 10.8651C3.69723 11.2618 3.50131 11.7835 3.39371 12.0966C3.3388 12.2563 3.31683 12.3307 3.30581 12.3759C3.29836 12.4065 3.29386 12.4304 3.28824 12.4921C3.28311 12.5484 3.27937 12.6034 3.27554 12.6561C3.32372 12.6542 3.37511 12.6537 3.42886 12.6512C4.57984 12.5994 6.80301 12.4534 8.01187 12.3798C8.25556 12.3649 8.46141 12.3531 8.63492 12.3426C8.54154 12.2266 8.47108 12.0887 8.43667 11.9335C8.36803 11.6235 8.34049 11.4874 8.31167 11.3837C8.25599 11.2465 8.20301 11.154 8.14761 11.0751C8.02598 10.9384 7.75404 10.6575 7.19742 10.2548C6.79299 9.96214 6.32479 9.64134 6.06753 9.50378C5.872 9.39929 5.76514 9.35123 5.70035 9.328C5.65209 9.3107 5.63986 9.31162 5.63394 9.3114C5.5031 9.30598 5.40438 9.30211 5.30484 9.30847ZM12.9621 3.06335C12.826 3.03251 12.3976 2.95598 11.8361 3.03503C11.8216 3.03706 11.807 3.03892 11.7931 3.04089C11.803 3.11702 11.8127 3.20229 11.8253 3.29675C11.9396 4.14925 12.1847 5.87977 12.3175 6.8778C12.3873 7.40179 12.4302 7.76818 12.4601 8.03113C12.4918 8.30974 12.5051 8.43082 12.5187 8.51159C12.5409 8.64276 12.5632 8.75989 12.5832 8.85241C12.5846 8.85897 12.5857 8.86572 12.5871 8.87195C12.5992 8.87075 12.6119 8.86882 12.6242 8.86804C12.6349 8.86739 12.6381 8.86719 12.6398 8.86706C12.6409 8.86697 12.6452 8.86703 12.6535 8.86609C12.674 8.86367 12.716 8.85761 12.799 8.8446L13.1584 8.77917C13.4855 8.7142 13.8035 8.63453 14.0578 8.55359C14.2915 8.42736 14.4275 8.33504 14.5138 8.25378C14.5892 8.1827 14.6295 8.11847 14.6574 8.02136C14.7244 7.78758 14.8164 7.37413 14.8566 6.79284C14.8755 6.5186 14.8758 6.25518 14.8527 5.92761C14.8238 5.51853 14.8014 5.22179 14.7326 5.00183C14.6338 4.68611 14.5476 4.44306 14.4718 4.26159C14.4344 4.17199 14.4034 4.10541 14.3781 4.05847C14.3582 4.02177 14.3459 4.00408 14.3429 3.99987C14.2729 3.91302 14.2276 3.86055 14.174 3.80945C14.1227 3.76061 14.0496 3.69953 13.9298 3.62487C13.6372 3.44244 13.3929 3.29486 13.2043 3.18933C13.1099 3.13654 13.0383 3.09967 12.9884 3.07605C12.9774 3.07084 12.9687 3.06629 12.9621 3.06335Z" fill="black"/>
</svg>
