<svg width="24" height="24" viewBox="0 0 24 24" fill="none" xmlns="http://www.w3.org/2000/svg">
<path d="M12.7753 2.80274C13.3235 2.86722 13.7163 3.36394 13.6523 3.91212C13.6504 3.92795 13.6477 3.9417 13.5654 4.89063C13.4845 5.82288 13.3244 7.68466 13.1123 9.24415C13.0618 9.61469 13.0066 9.96438 12.9531 10.2979C13.9762 10.3017 14.9295 10.3058 15.6543 10.3096C17.6881 10.32 17.7902 10.3301 18.1025 10.3389C18.3965 10.3471 18.8989 10.3539 19.4306 10.3604C19.9828 10.3671 20.4245 10.8199 20.4179 11.3721C20.4112 11.9243 19.9584 12.366 19.4062 12.3594C18.8831 12.3531 18.361 12.3477 18.0468 12.3389C17.7513 12.3306 17.6655 12.32 15.6445 12.3096C14.8483 12.3055 13.7675 12.3002 12.6201 12.2959C12.5717 12.5998 12.5289 12.8995 12.4902 13.2041C12.3353 14.4248 12.2761 15.7186 12.2548 16.4541C12.2407 16.9454 12.2598 17.2326 12.2822 17.415C12.3095 17.6373 12.3268 17.6564 12.3711 17.9092L12.3808 17.9619L12.3837 18.0147C12.4005 18.2642 12.4052 18.3888 12.415 18.5137C12.4187 18.5491 12.4276 18.6319 12.4336 18.7119C12.4744 19.2624 12.0611 19.7419 11.5107 19.7832C10.96 19.8242 10.4805 19.411 10.4394 18.8604C10.437 18.8274 10.434 18.8021 10.4316 18.7783C10.4297 18.7602 10.4249 18.7178 10.4218 18.6846V18.6768L10.4209 18.669C10.4128 18.5662 10.4023 18.3639 10.3925 18.208C10.3718 18.1068 10.3237 17.8773 10.2968 17.6582C10.2593 17.3523 10.2395 16.9613 10.2558 16.3965C10.2778 15.6345 10.3391 14.2674 10.5058 12.9531C10.5343 12.7284 10.5653 12.5068 10.5986 12.2871C9.49496 12.2828 8.4465 12.2805 7.64547 12.2754C5.51884 12.2618 5.1172 12.2449 4.71187 12.2275C4.16016 12.2038 3.73217 11.7373 3.75582 11.1856C3.77961 10.6339 4.24612 10.2059 4.79781 10.2295C5.16669 10.2453 5.53986 10.2619 7.65816 10.2754C8.53779 10.281 9.71116 10.2844 10.9287 10.2891C10.9971 9.87328 11.0664 9.44092 11.1298 8.97462C11.3343 7.47156 11.4915 5.65836 11.5732 4.7168C11.6532 3.79463 11.6595 3.73466 11.666 3.67969C11.7305 3.13131 12.2269 2.73838 12.7753 2.80274Z" fill="black"/>
</svg>
