<svg width="24" height="24" viewBox="0 0 24 24" fill="none" xmlns="http://www.w3.org/2000/svg">
<path d="M4.63438 17.2256C6.35492 17.2399 9.75609 17.268 11.5406 17.2862C13.3265 17.3044 13.3986 17.3119 13.6315 17.3184C13.8486 17.3245 14.2263 17.3303 14.6275 17.336C15.1798 17.3439 15.6207 17.7975 15.6129 18.3497C15.605 18.9018 15.1514 19.3428 14.5992 19.335C14.2056 19.3294 13.8106 19.324 13.5758 19.3174C13.3574 19.3113 13.2978 19.3044 11.5201 19.2862C9.73791 19.268 6.33896 19.2399 4.61778 19.2256C2.89348 19.2113 2.85869 19.211 2.82286 19.211C2.27077 19.2108 1.82289 18.7631 1.82286 18.211C1.82286 17.6588 2.27075 17.2112 2.82286 17.211C2.86966 17.211 2.91826 17.2114 4.63438 17.2256ZM21.067 12.8917C21.6178 12.8533 22.0958 13.2697 22.1344 13.8204C22.1727 14.3712 21.7575 14.8493 21.2066 14.8878C19.7519 14.9891 18.3137 15.0893 16.7203 15.1221C15.1346 15.1548 13.4425 15.1214 11.0982 15.0977C8.74066 15.0739 5.78261 15.0598 4.24961 15.0489C2.74271 15.0381 2.60152 15.0309 2.46251 15.0196C1.91253 14.9747 1.50218 14.4925 1.54649 13.9424C1.59129 13.3923 2.07444 12.9821 2.62461 13.0264C2.67016 13.0301 2.71789 13.0378 4.26426 13.0489C5.78899 13.0598 8.75771 13.0739 11.1188 13.0977C13.4927 13.1217 15.1341 13.154 16.6793 13.1221C18.2165 13.0904 19.6076 12.9934 21.067 12.8917ZM14.9459 8.92389C15.4941 8.85837 15.9914 9.24974 16.0572 9.79791C16.123 10.3461 15.7323 10.8442 15.1842 10.9102C15.1206 10.9179 15.0457 10.9274 14.8844 10.9337C14.8149 10.9363 14.7277 10.9386 14.651 10.9405C14.5693 10.9425 14.4973 10.9444 14.4449 10.9464C14.3029 10.9516 14.236 10.9566 12.274 10.9581C10.3019 10.9595 6.5173 10.9574 4.61876 10.9542C3.67096 10.9525 3.19014 10.9502 2.94493 10.9483C2.82542 10.9474 2.7525 10.9467 2.70762 10.9454C2.68938 10.9448 2.65233 10.9432 2.6129 10.9395C2.54114 10.9327 2.464 10.9184 2.3834 10.8917C1.85989 10.7175 1.57611 10.1518 1.74961 9.62799C1.89716 9.18335 2.3271 8.91339 2.77403 8.94733C2.79803 8.94792 2.85093 8.94747 2.95958 8.94831C3.19771 8.95015 3.67283 8.95253 4.62168 8.95417C6.51874 8.95744 10.3017 8.95953 12.2721 8.95807C14.2471 8.9566 14.2738 8.95093 14.3717 8.94733C14.4393 8.94485 14.5259 8.94234 14.6022 8.94049C14.683 8.93854 14.7549 8.93762 14.8072 8.93561C14.855 8.93377 14.8794 8.93178 14.8912 8.93073C14.905 8.92949 14.9099 8.92822 14.9459 8.92389ZM3.01426 8.99323C3.0118 8.99241 2.9953 8.987 2.97618 8.98151C2.9662 8.97869 2.95507 8.97723 2.94493 8.97467C2.96772 8.98049 2.99159 8.98573 3.01426 8.99323ZM17.3443 4.99127C18.0212 4.99846 19.3884 5.00662 20.8453 5.0235C21.3974 5.03006 21.84 5.48307 21.8336 6.03522C21.827 6.58724 21.374 7.02988 20.8219 7.0235C19.3492 7.00644 18.0314 6.9988 17.3229 6.99127C16.6336 6.98395 16.5948 6.97713 14.2711 6.98249C11.9415 6.98786 7.45889 7.00512 5.20958 7.01374C2.96354 7.02234 2.94471 7.02252 2.92735 7.02252C2.37534 7.02232 1.92752 6.57454 1.92735 6.02252C1.92735 5.47037 2.37524 5.02273 2.92735 5.02252C2.93961 5.02252 2.95116 5.02236 5.20176 5.01374C7.45028 5.00512 11.9347 4.98786 14.2662 4.98249C16.6015 4.9771 16.6491 4.98389 17.3443 4.99127Z" fill="black"/>
</svg>
