<svg width="24" height="24" viewBox="0 0 24 24" fill="none" xmlns="http://www.w3.org/2000/svg">
<path d="M18.8828 17.0124L18.9053 17.0134L18.9287 17.0144C19.4092 17.0523 19.9472 17.0924 20.415 17.1511C20.4331 17.1529 20.4482 17.1535 20.4629 17.154C20.4827 17.1547 20.5027 17.155 20.542 17.155C21.0942 17.155 21.5418 17.6028 21.542 18.155C21.542 18.7073 21.0943 19.155 20.542 19.155C20.4627 19.155 20.3418 19.1555 20.1816 19.1374L20.1689 19.1355C19.7677 19.085 19.299 19.0492 18.8066 19.0105C18.6294 19.0048 18.2751 18.9982 15.8691 19.0642C13.448 19.1305 8.9915 19.2689 6.4541 19.3376C3.89074 19.407 3.19878 19.4084 2.50586 19.4099C1.9538 19.4109 1.50532 18.9648 1.50391 18.4128C1.50291 17.8606 1.94977 17.411 2.50195 17.4099C3.1747 17.4085 3.84912 17.4076 6.39941 17.3386C8.97607 17.2688 13.3409 17.1329 15.8145 17.0651C17.644 17.015 18.3167 17.0056 18.6426 17.0075L18.8828 17.0124ZM14.5977 12.945C17.7072 12.9296 19.2606 12.9653 20.8555 13.0026C21.4076 13.0156 21.8449 13.474 21.832 14.0261C21.819 14.5781 21.3607 15.0156 20.8086 15.0026C19.2243 14.9655 17.6917 14.9297 14.6084 14.945C11.5174 14.9604 7.00808 15.0249 4.74805 15.0573C2.49916 15.0896 2.48165 15.0896 2.46875 15.0896C1.91653 15.0896 1.46886 14.6417 1.46875 14.0896C1.46891 13.5374 1.91657 13.0896 2.46875 13.0896H2.49219C2.5281 13.089 2.5995 13.0877 2.74121 13.0856C3.02474 13.0816 3.59044 13.0735 4.71973 13.0573C6.97679 13.0249 11.4953 12.9604 14.5977 12.945ZM5.29102 9.14131C7.13574 9.15404 10.8214 9.17983 13.0625 9.21065C15.3396 9.24197 15.968 9.27637 16.8447 9.27608C17.7003 9.27579 18.7384 9.23928 19.8242 9.19112C20.3758 9.16665 20.8435 9.59462 20.8682 10.1462C20.8926 10.6979 20.4648 11.1647 19.9131 11.1892C18.822 11.2376 17.7475 11.2758 16.8457 11.2761C15.9649 11.2764 15.2318 11.2409 13.0352 11.2106C10.8025 11.1799 7.12479 11.1541 5.27734 11.1413C3.42695 11.1285 3.42339 11.1286 3.41797 11.1286C2.86568 11.1286 2.41797 10.6809 2.41797 10.1286C2.41813 9.57646 2.86578 9.12862 3.41797 9.12862C3.43259 9.12862 3.44924 9.1286 5.29102 9.14131ZM21.4277 4.96065C21.9796 4.94234 22.4415 5.3746 22.46 5.92647C22.4782 6.47824 22.046 6.94022 21.4941 6.95869C15.3474 7.16453 9.50472 7.34685 6.47363 7.42256C3.49047 7.49707 3.17668 7.47353 2.86426 7.42842C2.31771 7.34948 1.93875 6.84215 2.01758 6.29561C2.09664 5.74927 2.60304 5.37022 3.14941 5.44893C3.25236 5.4638 3.3557 5.50017 6.42383 5.42354C9.44561 5.34806 15.281 5.16648 21.4277 4.96065Z" fill="black"/>
</svg>
