<svg width="24" height="24" viewBox="0 0 24 24" fill="none" xmlns="http://www.w3.org/2000/svg">
<path d="M8.31353 17.2852C9.21656 17.3005 10.3436 17.3211 11.6094 17.3574C12.8837 17.394 14.2278 17.4447 15.2999 17.4551C16.3608 17.4653 17.1005 17.434 17.8985 17.4121C18.4503 17.3973 18.9097 17.8329 18.9249 18.3848C18.9398 18.9366 18.5049 19.3958 17.9532 19.4111C17.1774 19.4324 16.3887 19.4658 15.2803 19.4551C14.1829 19.4445 12.7973 19.3922 11.5518 19.3564C10.298 19.3204 9.18103 19.2995 8.28033 19.2842C7.37974 19.2689 6.71792 19.2597 6.05572 19.25C5.50351 19.2419 5.06228 18.7876 5.07037 18.2353C5.07854 17.6832 5.53285 17.2419 6.08502 17.25C6.74729 17.2597 7.4107 17.2698 8.31353 17.2852ZM20.8077 13.0049C21.3594 13.0148 21.7995 13.4697 21.7901 14.0215C21.7805 14.5736 21.3246 15.0134 20.7725 15.0039C20.5568 15.0002 20.3504 14.9969 19.9922 14.9951C19.6263 14.9933 19.138 14.9935 18.8653 15.001C18.487 15.024 17.6718 15.0612 16.6387 15.1211C16.2118 15.1458 16.0714 15.164 13.9297 15.2021C11.7938 15.2402 7.7716 15.297 5.69928 15.3213C3.65249 15.3453 3.4818 15.3389 3.31451 15.3281C2.76354 15.2925 2.34553 14.8167 2.38092 14.2656C2.4166 13.7147 2.89245 13.2966 3.44342 13.332C3.51401 13.3366 3.58756 13.3457 5.67584 13.3213C7.74542 13.2971 11.7628 13.2411 13.8936 13.2031C16.0177 13.1653 16.1303 13.1468 16.5235 13.124C17.6555 13.0584 18.3989 13.0268 18.7745 13.0029L18.793 13.002H18.8106C19.1201 12.9935 19.639 12.9933 20.002 12.9951C20.3725 12.997 20.5888 13.0011 20.8077 13.0049ZM6.35943 8.87597C6.76128 8.88454 7.16281 8.89319 8.62701 8.95215C10.0866 9.01092 12.6094 9.11997 14.2745 9.22363C15.9538 9.32818 16.6916 9.42463 17.1133 9.47363L17.1124 9.47461C17.5724 9.51843 17.7742 9.539 18.003 9.57031C18.1137 9.58058 18.2851 9.5874 18.5059 9.5957C19.0576 9.61667 19.4886 10.0811 19.4678 10.6328C19.4467 11.1842 18.9822 11.6143 18.4307 11.5937C18.2327 11.5863 17.9968 11.5781 17.8184 11.5615L17.795 11.5596L17.4512 11.5166C17.3232 11.5028 17.1569 11.487 16.9034 11.4629L16.8926 11.4619L16.8829 11.46C16.4742 11.4125 15.7771 11.321 14.1504 11.2197C12.5095 11.1176 10.0059 11.01 8.54596 10.9512C7.09162 10.8926 6.70322 10.8842 6.31646 10.876C5.76451 10.8641 5.32639 10.4064 5.33795 9.85449C5.34981 9.30241 5.80733 8.86421 6.35943 8.87597ZM21.1212 5.00976C21.6727 5.03185 22.1019 5.49718 22.0801 6.04883C22.0583 6.60051 21.5937 7.03035 21.042 7.00879C20.8812 7.00242 20.7177 6.99363 19.835 7.03222C18.9374 7.07147 17.3657 7.15603 14.4678 7.17773C11.5791 7.19936 7.49306 7.15937 5.33697 7.13281C3.18738 7.10633 2.93506 7.09313 2.68072 7.07812C2.1294 7.04559 1.70874 6.57183 1.74127 6.02051C1.77404 5.46953 2.24689 5.04872 2.79791 5.08105C2.99747 5.09283 3.20161 5.1062 5.36139 5.13281C7.51687 5.15936 11.586 5.19921 14.4532 5.17773C17.3111 5.15632 18.8504 5.07343 19.7481 5.03418C20.6601 4.99431 20.884 5.00037 21.1212 5.00976Z" fill="black"/>
</svg>
