<svg width="24" height="24" viewBox="0 0 24 24" fill="none" xmlns="http://www.w3.org/2000/svg">
<path d="M11.8054 1.18393C12.0031 1.19467 12.1655 1.21138 12.282 1.22592C12.3403 1.2332 12.388 1.23934 12.4216 1.24448C12.4381 1.24699 12.4515 1.24901 12.4597 1.25034C12.4627 1.25081 12.4641 1.25118 12.4646 1.25131C12.4641 1.25133 12.4627 1.25148 12.4617 1.25131C12.4603 1.25102 12.4572 1.24984 12.4539 1.24936C12.4509 1.24893 12.442 1.24772 12.4314 1.24643C12.4281 1.24606 12.4224 1.24615 12.4158 1.24545C12.8321 1.28873 13.3426 1.41956 13.7771 1.53842C14.2539 1.66888 14.6641 1.79167 15.0027 1.87045C15.8028 2.05662 16.4353 2.28592 17.0984 2.62631C17.7163 2.94356 18.3816 3.34593 18.8181 3.68002C19.453 4.16598 19.9945 4.7235 20.5037 5.45834C20.7617 5.83076 20.9292 6.14664 21.1824 6.7728C21.4252 7.37334 21.7545 8.2778 21.9431 8.82358C22.1415 9.39763 22.2033 9.63249 22.2781 10.0794C22.3462 10.4871 22.4306 11.0873 22.4724 11.8939C22.5138 12.6927 22.5138 13.6699 22.4343 14.638C22.3552 15.6012 22.2008 16.5414 22.0007 17.2757C21.7965 18.025 21.5559 18.5279 21.3884 18.8431C21.3086 18.9934 21.2217 19.1479 21.0916 19.3119C20.9688 19.4665 20.829 19.6028 20.6736 19.7474C20.3538 20.0449 19.7993 20.5303 19.1414 20.9691C18.4883 21.4046 17.7782 21.7673 17.3279 21.9808C16.8284 22.2177 16.5736 22.3046 15.9548 22.4632C15.3575 22.6164 14.3693 22.8519 13.074 22.9466C11.7997 23.0398 10.294 22.9954 9.34741 22.93C8.38284 22.8634 7.9357 22.772 7.57202 22.6664C7.25249 22.5735 6.99929 22.4794 6.72437 22.3246C6.31395 22.0933 5.7246 21.7522 5.09155 21.1527C4.76188 20.8404 4.36928 20.4354 3.99292 19.9144C3.29597 18.9495 2.91204 18.3333 2.80151 18.1468C2.68903 17.957 2.36926 17.3993 2.04565 16.6371C1.85211 16.1811 1.66204 15.5739 1.56421 14.5121C1.50917 13.9144 1.49257 13.1975 1.50171 12.6956C1.5117 12.1478 1.55362 11.8273 1.67847 11.182C1.7955 10.5771 1.98707 9.62117 2.13354 9.03549C2.31186 8.3225 2.38197 8.01107 2.4978 7.65659C2.87451 6.50373 3.07196 5.94983 3.36694 5.47104C3.77081 4.81554 4.10253 4.3177 4.53589 3.95541C4.96904 3.59334 5.4693 3.23165 6.58472 2.67807C6.88157 2.53075 7.46877 2.20375 7.96362 2.00424C8.74239 1.6903 9.46024 1.37822 10.2507 1.25717C10.8637 1.16339 11.4113 1.16255 11.8054 1.18393ZM11.697 3.18002C11.4034 3.1641 10.9984 3.16664 10.5535 3.23471C10.0477 3.31216 9.5832 3.50799 8.71069 3.85971C8.30679 4.0226 7.92903 4.24442 7.47437 4.47006C6.48212 4.9625 6.11665 5.24102 5.81812 5.49057C5.66862 5.61571 5.48933 5.8394 5.07007 6.51987C4.92355 6.75768 4.79455 7.06866 4.39917 8.27866C4.31216 8.54501 4.26547 8.75127 4.073 9.52084C3.94156 10.0464 3.76051 10.9511 3.64233 11.5619C3.53204 12.1319 3.509 12.3323 3.50171 12.7318C3.49359 13.1772 3.50851 13.819 3.55542 14.3285C3.63565 15.1993 3.77954 15.6029 3.88647 15.8548C4.16412 16.5089 4.43702 16.9842 4.52124 17.1263C4.59604 17.2525 4.94612 17.8189 5.61401 18.7435C5.89203 19.1284 6.18964 19.4382 6.46655 19.7005C6.91775 20.1279 7.33458 20.3723 7.70581 20.5814C7.80362 20.6365 7.90065 20.6799 8.12964 20.7464C8.31505 20.8003 8.61259 20.8746 9.48511 20.9349C10.3763 20.9965 11.7809 21.0354 12.9285 20.9515C14.0545 20.8692 14.9134 20.6655 15.4587 20.5257C15.9821 20.3915 16.1112 20.3445 16.4705 20.1742C16.8793 19.9803 17.4931 19.6653 18.032 19.306C18.5661 18.9498 19.0328 18.5426 19.3113 18.2835C19.4548 18.15 19.5015 18.0985 19.5251 18.0687C19.5414 18.0482 19.5614 18.0202 19.6228 17.9046C19.7384 17.6871 19.9147 17.3239 20.071 16.7503C20.2315 16.1617 20.3695 15.3475 20.4412 14.4749C20.5124 13.6076 20.5128 12.7203 20.4753 11.9974C20.4383 11.2826 20.3639 10.7596 20.3054 10.4095C20.2535 10.099 20.2253 9.97413 20.0535 9.4769C19.8717 8.95101 19.5536 8.08116 19.3279 7.5228C19.1126 6.99036 19.0097 6.81538 18.8591 6.59799C18.4683 6.03386 18.0715 5.62709 17.6023 5.26791C17.2908 5.02957 16.7373 4.689 16.1853 4.40561C15.6787 4.14554 15.2023 3.96959 14.5496 3.81772C14.1615 3.72743 13.6613 3.58096 13.2488 3.46811C12.7948 3.34392 12.4364 3.2583 12.2078 3.23471C12.2009 3.23397 12.194 3.23165 12.1873 3.2308C12.1771 3.22955 12.1688 3.22929 12.1658 3.22885C12.1591 3.22788 12.1532 3.22722 12.1511 3.2269C12.1477 3.22634 12.1422 3.22524 12.1404 3.22495C12.1351 3.2241 12.1277 3.22336 12.1189 3.22202C12.101 3.21928 12.0719 3.21503 12.0339 3.2103C11.9575 3.20077 11.8421 3.18791 11.697 3.18002ZM12.3923 1.2435C12.3978 1.24394 12.4035 1.24396 12.4089 1.24448C12.4066 1.24423 12.4036 1.24373 12.4011 1.2435C12.3935 1.24282 12.3609 1.24094 12.3191 1.24057C12.3433 1.24081 12.3679 1.24149 12.3923 1.2435Z" fill="black"/>
</svg>
