<svg width="24" height="24" viewBox="0 0 24 24" fill="none" xmlns="http://www.w3.org/2000/svg">
<path d="M13.1123 7.43945C14.8151 7.45614 15.1629 7.48703 15.4688 7.54492C15.5974 7.56928 15.873 7.61442 16.126 7.73145L16.2324 7.78613L16.4375 7.91406C16.5205 7.97313 16.6136 8.0504 16.7031 8.14844C16.8872 8.35019 17.0036 8.58117 17.0859 8.82227C17.3334 9.5467 17.593 10.4199 17.6768 11.1494C17.7189 11.5164 17.7247 11.8281 17.6992 12.6855C17.6736 13.5469 17.6151 14.9826 17.4688 16.4639C17.3232 17.9371 17.1088 19.4076 16.9649 20.2207C16.8912 20.6363 16.8162 21.1391 16.7149 21.542C16.6232 21.906 16.4481 22.4832 15.9893 22.8584C15.9473 22.8927 15.8569 22.9627 15.7236 23.0186C15.6115 23.0655 15.5113 23.0842 15.4492 23.0938C15.3369 23.1109 15.212 23.1156 15.0977 23.1172C14.846 23.1207 14.3897 23.1142 13.5459 23.0947C11.8487 23.0556 8.59147 22.9643 6.84376 22.8799C5.97845 22.8381 5.45577 22.8016 5.12403 22.7617C4.78742 22.7213 4.53331 22.666 4.28223 22.5215C4.02 22.3706 3.75017 22.2002 3.52149 22.0176C3.32571 21.8612 3.01904 21.5883 2.87012 21.2021C2.76069 20.9184 2.6583 20.6251 2.4795 19.5928C2.39704 19.1166 2.3125 18.4984 2.24024 16.6836C2.16845 14.8805 2.10868 11.9402 2.07227 10.415C2.03542 8.87116 2.02271 8.77416 2.01368 8.68262C1.95952 8.133 2.36153 7.64304 2.91114 7.58887C2.98451 7.58167 3.05663 7.58446 3.12696 7.59277C3.26873 7.51127 3.43235 7.46295 3.60743 7.45996C3.98957 7.45349 4.34856 7.44747 4.54981 7.44141C4.7742 7.43464 4.83657 7.4289 6.5088 7.42578C8.17916 7.42267 11.3788 7.42247 13.1123 7.43945ZM6.5127 9.42578C4.8438 9.42889 4.80502 9.43456 4.61036 9.44043C4.47223 9.44459 4.27055 9.44713 4.0459 9.45117C4.05263 9.68554 4.06312 9.98365 4.07227 10.3672C4.10908 11.9094 4.16831 14.8225 4.23926 16.6045C4.30973 18.3742 4.38854 18.8959 4.4502 19.252C4.58096 20.0069 4.65457 20.2608 4.70313 20.3955C4.71825 20.4097 4.73903 20.4307 4.76954 20.4551C4.87498 20.5393 5.02903 20.6391 5.22657 20.7549C5.2533 20.7597 5.29657 20.7685 5.36231 20.7764C5.61448 20.8067 6.07174 20.8399 6.94044 20.8818C8.66068 20.9649 11.8955 21.0556 13.5918 21.0947C14.1403 21.1074 14.5088 21.1128 14.7568 21.1152C14.7621 21.0959 14.7699 21.0755 14.7754 21.0537C14.8536 20.743 14.9068 20.3763 14.9961 19.8721C15.131 19.1104 15.3379 17.6907 15.4785 16.2676C15.6184 14.852 15.6752 13.4675 15.7002 12.626C15.7253 11.7816 15.714 11.592 15.6895 11.3779C15.6334 10.8895 15.4442 10.2138 15.2139 9.53223C15.1809 9.5254 15.1429 9.51851 15.0967 9.50977C15.0001 9.49147 14.8427 9.4566 13.0928 9.43945C11.3724 9.4226 8.18365 9.42267 6.5127 9.42578ZM12.4951 2.47559C14.0899 2.47489 17.2559 2.49845 18.9326 2.58398C19.7573 2.62606 20.2817 2.68709 20.6231 2.78125C20.7936 2.82834 21.0204 2.91008 21.2197 3.08105C21.4061 3.24109 21.4989 3.41996 21.544 3.53125L21.5752 3.61719L21.6162 3.75293C21.6536 3.89132 21.6855 4.05276 21.749 4.3623C21.8461 4.83486 22.024 5.70375 22.1104 7.19238C22.1951 8.65427 22.1859 10.694 22.1787 11.7891C22.1694 13.1909 22.0952 13.7827 21.7539 14.3203C21.4471 14.8033 20.9822 14.9939 20.6777 15.0742C20.4024 15.1468 20.0732 15.1666 20.0664 15.167L20.0498 15.1689L20.0342 15.1699C19.8709 15.1829 19.7325 15.1945 19.6309 15.2031C19.17 15.366 18.648 15.1719 18.4141 14.7266C18.1575 14.2376 18.3461 13.6337 18.835 13.377L18.9512 13.3223C19.0673 13.2739 19.1837 13.2431 19.2988 13.2266L19.334 13.2217L19.3701 13.2188C19.4701 13.2117 19.5698 13.201 19.875 13.1768C19.9079 13.1735 19.9404 13.1707 19.9609 13.1689C19.9943 13.1661 20.0217 13.1631 20.0488 13.1602C20.0667 13.1582 20.0823 13.1535 20.0967 13.1514C20.1014 13.1295 20.11 13.1028 20.1152 13.0693C20.1482 12.8595 20.174 12.4867 20.1787 11.7754C20.186 10.6675 20.1937 8.69368 20.1133 7.30762C20.0345 5.9502 19.8762 5.18437 19.79 4.76465C19.782 4.72525 19.7734 4.68843 19.7666 4.65527C19.5672 4.631 19.2687 4.60343 18.8301 4.58105C17.2112 4.4985 14.094 4.47488 12.4961 4.47559C12.0127 4.4758 11.6702 4.47611 11.4238 4.47754C11.4116 4.5849 11.402 4.70513 11.3955 4.83398C11.3673 5.38533 10.8971 5.81013 10.3457 5.78223C9.79453 5.7542 9.37003 5.28453 9.39747 4.7334C9.41283 4.42993 9.44467 4.12857 9.49415 3.86328C9.53657 3.63598 9.61429 3.30557 9.78516 3.03711C9.84592 2.94173 9.93848 2.82666 10.0781 2.72656C10.21 2.63217 10.3414 2.58161 10.4424 2.55273C10.616 2.50321 10.7985 2.49198 10.9258 2.48633C11.2073 2.47382 11.6928 2.47594 12.4951 2.47559Z" fill="black"/>
</svg>
