<svg width="24" height="24" viewBox="0 0 24 24" fill="none" xmlns="http://www.w3.org/2000/svg">
<path d="M13.4216 8.16683C14.6872 8.15167 16.3952 8.16941 17.3455 8.18636C18.5262 8.20743 19.1202 8.33351 19.7888 8.47835C20.3587 8.60179 20.6509 8.66565 20.9763 8.78695C21.4749 8.97281 21.7188 9.42017 21.8103 9.59359C21.9293 9.81918 22.0349 10.0924 22.1072 10.2723C22.2499 10.628 22.2876 10.9869 22.3035 11.3416C22.3187 11.6836 22.3158 12.1497 22.323 12.7069C22.3375 13.8305 22.3061 15.9731 22.2683 17.4071C22.2302 18.8571 22.1707 19.5573 22.113 20.0565C21.9912 21.1106 21.8128 21.7123 21.3259 22.1893C21.0441 22.4651 20.6985 22.514 20.5877 22.5321C20.4416 22.5559 20.2127 22.5806 19.9197 22.616C19.2677 22.695 18.0818 22.8206 16.7898 22.8944C15.4986 22.9681 14.1451 22.9866 13.3709 22.9881C11.8344 22.9911 10.9932 22.6839 10.5642 22.5203C9.55452 22.1353 9.06497 21.4678 8.82789 21.1571C8.38201 20.5727 8.388 19.9301 8.37672 19.7537C8.34949 19.3302 8.36949 18.8994 8.46363 17.7899C8.55204 16.748 8.71697 14.7005 8.8152 13.6043C8.8695 12.9984 8.9139 12.6193 8.95192 12.3289C8.99134 12.0279 9.01608 11.8724 9.03883 11.6502C9.11464 10.4328 9.13271 10.1187 9.14235 9.99105C9.15209 9.86216 9.16892 9.75265 9.22926 9.52034C9.26433 9.38536 9.32577 9.26375 9.40602 9.15999C9.4575 8.65625 9.8829 8.26286 10.4002 8.26253C10.4086 8.26253 10.416 8.2625 10.4187 8.26253C10.4211 8.26257 10.4237 8.26333 10.4246 8.26351H10.4285C10.4354 8.26354 10.4538 8.26308 10.489 8.26253C10.5604 8.26142 10.6949 8.25845 10.9382 8.24984C11.3306 8.23595 12.1574 8.18199 13.4216 8.16683ZM13.4461 10.1668C12.3112 10.1804 11.5958 10.2232 11.1297 10.243C11.1182 10.4188 11.0944 10.8125 11.032 11.8143L11.031 11.8338L11.0291 11.8534C11.0025 12.1126 10.9683 12.3365 10.9353 12.5887C10.9009 12.8517 10.8593 13.2032 10.8074 13.7821C10.7095 14.874 10.5458 16.8979 10.4558 17.9588C10.3604 19.084 10.3555 19.3724 10.3718 19.6258C10.3911 19.9248 10.4005 19.9216 10.4177 19.9442C10.6237 20.2141 10.8257 20.4803 11.2761 20.6522C11.5521 20.7574 12.145 20.9904 13.367 20.9881C14.1225 20.9866 15.4354 20.9681 16.6755 20.8973C17.9146 20.8266 19.0564 20.706 19.6785 20.6307C19.81 20.6148 19.9074 20.603 19.9939 20.5926C20.0327 20.4535 20.0802 20.221 20.1257 19.827C20.1748 19.4025 20.2322 18.7639 20.2693 17.3543C20.3068 15.9284 20.337 13.8163 20.323 12.7323C20.3149 12.1081 20.3189 11.7328 20.3054 11.4315C20.2926 11.144 20.2661 11.0557 20.2507 11.0174C20.2052 10.904 20.1692 10.8131 20.1316 10.7235C20.1105 10.6732 20.0896 10.632 20.073 10.5965C19.9382 10.5598 19.7407 10.5148 19.365 10.4334C18.762 10.3028 18.3087 10.2042 17.3093 10.1864C16.3677 10.1696 14.6829 10.152 13.4461 10.1668ZM14.0261 0.993977C14.1759 0.999334 14.437 1.00738 14.7 1.14632L14.8123 1.21468L14.9324 1.30745C15.1889 1.53206 15.2977 1.80973 15.3464 1.9637C15.4244 2.20986 15.7639 2.85815 15.8142 3.97054C15.8355 4.44225 15.8481 4.8231 15.8523 5.09261C15.8544 5.22617 15.8547 5.33941 15.8533 5.42464C15.8526 5.46531 15.8513 5.51136 15.8484 5.55452C15.8471 5.57427 15.8436 5.61052 15.8377 5.65218C15.8348 5.67213 15.8287 5.71085 15.8172 5.75765C15.8128 5.77536 15.7805 5.91798 15.6814 6.06917C15.3787 6.53099 14.7595 6.65994 14.2976 6.35726C13.9701 6.14246 13.8097 5.76838 13.8523 5.40413C13.8524 5.40027 13.8532 5.39563 13.8533 5.39046C13.8542 5.33649 13.8543 5.2475 13.8523 5.12386C13.8484 4.87866 13.8378 4.51794 13.8172 4.06038C13.7929 3.52439 13.7027 3.282 13.5906 2.99007C13.4348 2.99138 13.2302 2.99564 12.9607 3.00081C11.8357 3.0224 9.68852 3.07709 8.52516 3.11312C7.26178 3.15224 7.06977 3.17895 6.74293 3.20882C6.19035 3.25935 5.87222 3.31776 5.66383 3.36898C5.41941 3.42908 5.36603 3.46148 5.08668 3.54574C4.97654 3.57908 4.75498 3.70767 4.48121 4.12288C4.49737 4.09834 4.48906 4.10012 4.46071 4.18734C4.43038 4.28072 4.39461 4.41302 4.33766 4.63753C4.24412 5.00631 4.11541 5.60463 4.01149 7.02718C3.9061 8.4699 3.83317 10.7085 3.7986 11.953C3.77644 12.7503 3.78524 13.1669 3.8025 13.3993C3.80292 13.4049 3.80402 13.4105 3.80446 13.4159C3.95847 13.4781 4.15865 13.548 4.3816 13.6121L4.40211 13.618L4.42067 13.6248C4.87826 13.7769 5.2414 13.9009 5.55738 14.0047C5.85873 14.1037 6.04131 14.1571 6.13551 14.1785C6.21718 14.1897 6.30415 14.1955 6.44117 14.202C6.99257 14.2282 7.41823 14.6964 7.39235 15.2479C7.36631 15.7995 6.89808 16.226 6.34645 16.2C6.20662 16.1934 6.01201 16.1843 5.79957 16.1512L5.77711 16.1483L5.75367 16.1434C5.5332 16.0983 5.23596 16.0045 4.93336 15.9051C4.62733 15.8046 4.22652 15.6673 3.80836 15.5282C3.51179 15.4422 3.17912 15.3335 2.89723 15.2069C2.75561 15.1432 2.58943 15.0589 2.43922 14.95C2.32626 14.8682 2.0374 14.6451 1.92848 14.2508C1.88815 14.1048 1.83531 13.9228 1.80739 13.5477C1.78237 13.2111 1.77595 12.7123 1.7986 11.8973C1.83306 10.657 1.90724 8.37572 2.01637 6.88167C2.12696 5.36774 2.2712 4.65092 2.39918 4.14632C2.49351 3.77444 2.59108 3.35641 2.81129 3.0223C3.22763 2.39081 3.78523 1.84925 4.50953 1.6307C4.60758 1.60108 4.89299 1.49873 5.18629 1.42659C5.51645 1.34544 5.93812 1.27361 6.56129 1.21663C6.92565 1.18332 7.15772 1.15451 8.46266 1.11409C9.63269 1.07786 11.7876 1.02257 12.9216 1.00081C13.4777 0.990145 13.8166 0.98652 14.0261 0.993977Z" fill="black"/>
</svg>
