<svg width="24" height="24" viewBox="0 0 24 24" fill="none" xmlns="http://www.w3.org/2000/svg">
<path d="M6.24297 0.356445C6.79525 0.356445 7.24297 0.805137 7.24297 1.35742C7.24298 1.53332 7.24793 1.91824 7.25566 2.22949C7.26275 2.51574 7.25906 3.02261 7.24785 5.00586C7.24692 5.16959 7.24598 5.34333 7.24492 5.52539C8.02024 5.4575 8.69382 5.41145 9.34062 5.3584C10.2951 5.2801 11.3222 5.17047 12.1277 5.11914C12.9642 5.06586 13.5984 5.07266 13.9617 5.08496C14.5837 5.10614 14.9694 5.31263 15.2381 5.44531C15.5095 5.57935 15.8753 5.7712 16.2088 5.95996C16.5031 6.12656 16.8901 6.35468 17.1102 6.55469C17.4574 6.87048 17.6492 7.32983 17.7742 7.64844C17.8619 7.87202 17.9082 8.09513 17.949 8.51562C17.9889 8.92656 18.0287 9.59465 18.076 10.7441C18.1352 12.1842 18.2016 14.4136 18.2605 16.4385C19.4723 16.445 20.7278 16.4509 21.993 16.4531C22.5452 16.4541 22.992 16.9028 22.991 17.4551C22.9895 18.0068 22.5418 18.4539 21.99 18.4531C20.7465 18.4509 19.5121 18.4448 18.3191 18.4385C18.332 18.8848 18.3445 19.2958 18.3553 19.6553C18.3894 20.7952 18.4102 21.3855 18.4246 21.7002C18.4319 21.8589 18.437 21.9372 18.4402 21.9756C18.4409 21.9836 18.4419 21.9886 18.4422 21.9912L18.4539 22.0859C18.4939 22.5909 18.1455 23.0543 17.6365 23.1475C17.0935 23.2465 16.5728 22.8868 16.4734 22.3438C16.4395 22.1579 16.4226 21.9347 16.3562 19.7148C16.3449 19.3345 16.3318 18.8983 16.3182 18.4248C13.3881 18.4042 10.8556 18.3778 9.27324 18.3516C8.00599 18.3306 7.33145 18.3115 6.96562 18.291C6.79388 18.2814 6.64146 18.2689 6.5164 18.2451C6.45112 18.2327 6.34381 18.2079 6.22637 18.1533C6.07778 18.0842 5.97797 17.9978 5.92168 17.9424L5.77422 17.7969L5.69707 17.6055C5.55004 17.2419 5.47052 16.8418 5.41875 16.3848C5.33564 15.6508 5.28909 15.1258 5.26933 14.9131C5.24957 14.7003 5.21969 14.3911 5.2166 12.4492C5.21468 11.2414 5.22306 9.42915 5.23222 7.75098C4.16787 7.88359 3.07882 8.03654 2.3582 8.12695C1.81042 8.19541 1.31074 7.80659 1.24199 7.25879C1.17333 6.71086 1.56221 6.21132 2.11015 6.14258C2.83555 6.05156 4.08083 5.87791 5.24297 5.73633C5.24451 5.47211 5.24655 5.22317 5.24785 4.99414C5.25924 2.97978 5.26272 2.52521 5.25664 2.2793C5.24862 1.95647 5.24298 1.55419 5.24297 1.35742C5.24297 0.805271 5.69087 0.356662 6.24297 0.356445ZM13.8934 7.08301C13.5862 7.07263 13.0179 7.06661 12.2547 7.11523C11.46 7.16588 10.5463 7.26604 9.50371 7.35156C8.76596 7.41207 8.06031 7.4573 7.2332 7.53223C7.22354 9.27045 7.2146 11.188 7.2166 12.4453C7.21968 14.3816 7.24991 14.6133 7.26054 14.7275C7.28041 14.9414 7.32548 15.4485 7.40605 16.1602C7.41192 16.2118 7.41937 16.2604 7.42558 16.3057C7.80128 16.3189 8.38787 16.3364 9.30644 16.3516C10.8689 16.3774 13.3661 16.4041 16.2596 16.4248C16.2012 14.423 16.1361 12.2404 16.0779 10.8262C16.0306 9.67729 15.9928 9.05896 15.9588 8.70898C15.9419 8.53499 15.9281 8.44843 15.9197 8.40723C15.9147 8.38256 15.9129 8.38214 15.9119 8.37988C15.8521 8.22738 15.8064 8.12656 15.7703 8.06055C15.7609 8.04333 15.7521 8.03166 15.7469 8.02344C15.7253 8.00769 15.6823 7.9761 15.6111 7.93066C15.5059 7.86358 15.3722 7.78442 15.2234 7.7002C14.9258 7.53172 14.5932 7.35823 14.3523 7.23926C14.1995 7.16378 14.1431 7.13539 14.0818 7.11426C14.0401 7.09989 13.9869 7.0862 13.8934 7.08301Z" fill="black"/>
</svg>
