<svg width="24" height="24" viewBox="0 0 24 24" fill="none" xmlns="http://www.w3.org/2000/svg">
<path d="M21.6147 3.07921C21.9377 3.08144 22.0654 3.08805 22.2026 3.11046C22.2102 3.11168 22.2756 3.12194 22.3345 3.13487C22.4046 3.1503 22.5079 3.17708 22.6216 3.23058C22.8814 3.35301 23.0784 3.55385 23.2095 3.79893C23.4441 4.23768 23.6707 4.76282 23.7583 5.45714C23.8146 5.90369 23.8597 6.51998 23.7954 8.67491C23.731 10.8315 23.5603 14.4698 23.4526 16.3732C23.399 17.3213 23.3623 17.8549 23.3325 18.1671C23.3045 18.4612 23.2768 18.6557 23.1978 18.8526C23.1231 19.0385 22.9874 19.3473 22.6929 19.6144C22.4357 19.8474 22.1276 19.9229 21.978 19.9562C21.7988 19.996 21.5749 20.0268 21.3374 20.0587C20.9604 20.1094 20.4542 20.1831 18.0874 20.2208C15.7318 20.2583 11.6195 20.2609 9.52881 20.254C8.48923 20.2506 7.9343 20.246 7.63232 20.2384C7.4895 20.2348 7.36557 20.2299 7.26514 20.2179C7.12663 20.2013 6.97194 20.165 6.80908 20.0724C6.61489 19.9617 6.44014 19.8322 6.26709 19.6593C6.12663 19.5189 5.98008 19.3377 5.16455 18.1983C4.32278 17.0223 2.77547 14.8315 2.00439 13.713C1.65259 13.2027 1.38099 12.8068 1.25537 12.5001C1.17494 12.3036 1.10664 12.0388 1.16162 11.7316C1.20795 11.4733 1.33531 11.2704 1.35596 11.2345C1.50282 10.9784 1.81169 10.4591 1.96045 10.2023C2.0878 9.98237 2.1861 9.80022 2.25928 9.67686C2.39033 9.45599 2.56157 9.20927 3.41455 8.18956C4.27716 7.15834 5.82993 5.34466 6.604 4.44151C7.00921 3.96875 7.29576 3.69111 7.51318 3.52452C7.62266 3.44069 7.74422 3.36168 7.88037 3.30577C7.93178 3.28469 7.98818 3.26841 8.04736 3.25401C8.05928 3.25092 8.07139 3.2469 8.0835 3.24425C8.07992 3.24503 8.07593 3.24712 8.07178 3.24815C8.07849 3.24666 8.08548 3.24463 8.09229 3.24327C8.09378 3.24296 8.09567 3.2426 8.09717 3.24229L8.1001 3.24132H8.09912C8.10487 3.24013 8.11093 3.23847 8.1167 3.23741C8.11783 3.23716 8.11952 3.23662 8.12061 3.23643C8.12811 3.23521 8.13602 3.23554 8.14307 3.23448C8.14781 3.23375 8.15296 3.2332 8.15771 3.23253C8.16413 3.23157 8.17078 3.22941 8.17725 3.22862C8.18078 3.22822 8.18441 3.22772 8.18799 3.22765C8.19772 3.2263 8.20481 3.22496 8.20752 3.22472C8.21253 3.2243 8.22126 3.22424 8.22803 3.22374C8.22694 3.22381 8.22528 3.22452 8.22412 3.22472C8.24514 3.22317 8.26654 3.22201 8.2876 3.22179C8.29214 3.22166 8.29691 3.22084 8.30029 3.22081C8.32245 3.22063 8.34211 3.22053 8.35205 3.22081C8.36724 3.22125 8.40153 3.22315 8.41943 3.22374C8.47062 3.22541 8.56184 3.22794 8.72119 3.2296C9.04315 3.23294 9.64415 3.23226 10.7632 3.21495C13.0114 3.18017 17.3404 3.11687 19.5708 3.0919C20.684 3.07944 21.2814 3.07691 21.6147 3.07921ZM19.5933 5.0919C17.3674 5.11682 13.0414 5.18018 10.7935 5.21495C9.66607 5.23239 9.04664 5.23221 8.70068 5.22862C8.66606 5.22826 8.63343 5.2271 8.604 5.22667C8.50467 5.32203 8.34746 5.48088 8.12256 5.74327C7.34526 6.65019 5.80182 8.45293 4.94873 9.47276C4.08682 10.5031 4.01629 10.6345 3.979 10.6974C3.88411 10.8573 3.89352 10.8544 3.69092 11.2042C3.55955 11.431 3.38663 11.7232 3.2417 11.9708C3.3346 12.1158 3.46577 12.3087 3.65088 12.5773C4.41285 13.6826 5.95356 15.8636 6.7915 17.0343C7.21043 17.6196 7.43544 17.9271 7.56201 18.0939C7.62481 18.1766 7.65729 18.2166 7.67236 18.2345C7.67367 18.236 7.67545 18.2374 7.67627 18.2384C7.67834 18.2385 7.68101 18.2393 7.68311 18.2394C7.95791 18.2463 8.48719 18.2506 9.53564 18.254C11.625 18.2609 15.7212 18.2589 18.0562 18.2218C20.3791 18.1848 20.7999 18.1127 21.0708 18.0763C21.1739 18.0624 21.2602 18.0501 21.3335 18.0392C21.3355 18.0205 21.3391 17.9996 21.3413 17.9767C21.367 17.7073 21.4029 17.2097 21.4565 16.2608C21.5635 14.3692 21.7327 10.7491 21.7964 8.61534C21.8601 6.48188 21.8109 5.99363 21.7749 5.70811C21.7453 5.47314 21.685 5.2731 21.605 5.07921C21.6038 5.0792 21.6022 5.07921 21.6011 5.07921C21.2883 5.07705 20.7078 5.07943 19.5933 5.0919ZM10.1899 8.02354C10.5745 7.62754 11.2077 7.61765 11.604 8.00206C12.2126 8.59241 12.8156 9.17701 13.9087 10.17C14.0931 10.3376 14.2915 10.5137 14.4956 10.6974C14.9528 10.2562 15.3837 9.83999 15.7173 9.52061C16.6597 8.6185 16.8464 8.45891 17.0396 8.29698C17.4628 7.94266 18.094 7.99805 18.4487 8.42101C18.8034 8.84412 18.7476 9.47534 18.3247 9.83018C18.1838 9.94827 18.0352 10.0708 17.1001 10.9659C16.7928 11.2601 16.4046 11.6361 15.9888 12.0372C16.5436 12.532 17.0636 12.9944 17.4507 13.3429C18.3084 14.1151 18.4521 14.2684 18.5991 14.4425C18.9553 14.8642 18.9014 15.4952 18.48 15.8517C18.0581 16.208 17.4272 16.1554 17.0708 15.7335C17.0233 15.6772 16.9769 15.6072 16.1128 14.8292C15.7146 14.4707 15.1483 13.9666 14.5454 13.4288C14.1729 13.7887 13.8301 14.1199 13.5591 14.381C12.7137 15.1951 12.4926 15.3715 12.2896 15.4972L12.2905 15.4982C12.2762 15.5078 12.2638 15.5173 12.2524 15.5265C12.2406 15.536 12.2268 15.5478 12.2095 15.5636L12.1802 15.589C12.1477 15.6163 12.1162 15.64 12.1001 15.6525C12.0817 15.6667 12.0692 15.6765 12.0542 15.6886C11.6241 16.0349 10.9954 15.9671 10.6489 15.5372C10.3025 15.1071 10.3702 14.4774 10.8003 14.131C10.8327 14.1049 10.8603 14.0839 10.8765 14.0714C10.8839 14.0656 10.8888 14.0615 10.8911 14.0597C10.9651 13.9938 11.0569 13.917 11.1743 13.838L11.1987 13.8224L11.2231 13.8077C11.2331 13.8018 11.2347 13.801 11.2397 13.798C11.2416 13.7969 11.2433 13.7962 11.2437 13.796C11.242 13.797 11.2404 13.7969 11.2417 13.796C11.2481 13.7914 11.2762 13.7713 11.3384 13.7179C11.4695 13.6052 11.7099 13.385 12.1714 12.9405C12.415 12.7059 12.7196 12.4113 13.0532 12.089C12.8833 11.9359 12.7178 11.7903 12.564 11.6505C11.4473 10.636 10.8264 10.0341 10.2114 9.43761C9.81501 9.05306 9.8054 8.41996 10.1899 8.02354ZM7.68408 3.43272C7.68588 3.43137 7.68816 3.43019 7.68994 3.42882C7.69424 3.42547 7.69826 3.42133 7.70264 3.41808C7.69647 3.42265 7.69031 3.42786 7.68408 3.43272ZM7.771 3.37218C7.77315 3.37086 7.77568 3.36959 7.77783 3.36827C7.78173 3.36586 7.7856 3.3628 7.78955 3.36046C7.78347 3.36406 7.77725 3.36828 7.771 3.37218ZM7.92236 3.29405C7.91865 3.29556 7.91475 3.29814 7.91064 3.29991C7.91282 3.29899 7.91529 3.29788 7.91748 3.29698C7.92033 3.29579 7.9234 3.29422 7.92627 3.29308C7.92521 3.2935 7.92349 3.29369 7.92236 3.29405ZM8.09717 3.24229C8.09279 3.24319 8.08786 3.24334 8.0835 3.24425L8.08643 3.24327C8.09047 3.24244 8.09521 3.24211 8.09912 3.24132L8.09717 3.24229Z" fill="black"/>
</svg>
