<svg width="24" height="24" viewBox="0 0 24 24" fill="none" xmlns="http://www.w3.org/2000/svg">
<path d="M21.4446 14.4854C21.9965 14.497 22.4344 14.954 22.4231 15.5059C22.4103 16.1183 22.3976 16.7707 22.3059 17.4834C22.2153 18.1875 22.0549 18.9124 21.9504 19.3271L21.9456 19.3467L21.9397 19.3662C21.7533 19.9985 21.462 20.503 21.0969 21C21.0406 21.0766 20.9459 21.2112 20.8547 21.3174C20.7485 21.4411 20.5928 21.5953 20.3665 21.7119C20.0255 21.8874 19.6464 21.9111 18.9993 21.9248C18.3743 21.9381 17.2633 21.9515 14.9387 21.915C12.6184 21.8787 9.18323 21.7953 7.36646 21.7324C5.60256 21.6714 5.28893 21.6316 5.03931 21.5674C4.95979 21.5469 4.8953 21.5276 4.84106 21.5117C4.78422 21.4951 4.70621 21.4727 4.5686 21.4365C4.16622 21.3306 3.80989 21.2377 3.54712 21.165C3.41645 21.1289 3.29645 21.0944 3.19946 21.0635C3.15165 21.0482 3.09837 21.0296 3.04712 21.0098C3.01857 20.9987 2.90752 20.9568 2.79614 20.8818C2.71498 20.8272 2.45057 20.6542 2.2854 20.3408C2.18235 20.1451 2.14242 19.9261 2.11646 19.7666C2.08492 19.5728 2.05221 19.2979 2.01587 18.9033C1.95986 18.2951 1.87374 17.2847 1.82739 16.6934C1.78061 16.0964 1.77371 15.9194 1.76685 15.7412C1.74558 15.1893 2.17593 14.7244 2.72778 14.7031C3.27947 14.6821 3.74363 15.1123 3.76489 15.6641C3.77056 15.8112 3.77641 15.9613 3.82153 16.5371C3.8672 17.1198 3.95193 18.1219 4.00708 18.7207C4.02728 18.94 4.04552 19.1063 4.06079 19.2314C4.06692 19.2332 4.07304 19.2356 4.07935 19.2373C4.32662 19.3056 4.6652 19.3935 5.07739 19.502C5.23378 19.5431 5.32906 19.5706 5.40161 19.5918C5.47684 19.6138 5.49889 19.6207 5.53833 19.6309C5.54356 19.6322 5.54232 19.6322 5.55981 19.6348C5.58994 19.6392 5.65543 19.6472 5.78735 19.6572C6.0525 19.6774 6.53372 19.7022 7.43579 19.7334C9.23743 19.7957 12.6595 19.8788 14.97 19.915C17.2758 19.9512 18.3616 19.9384 18.9563 19.9258C19.176 19.9211 19.322 19.9131 19.4182 19.9062C19.4214 19.9019 19.4255 19.8973 19.429 19.8926C19.4451 19.8705 19.4647 19.8435 19.4846 19.8164C19.7575 19.4449 19.9164 19.1507 20.0178 18.8115C20.1106 18.4394 20.2472 17.8137 20.3225 17.2285C20.3986 16.6375 20.411 16.0886 20.4241 15.4648C20.4356 14.9127 20.8924 14.4738 21.4446 14.4854ZM11.9543 2.20312C12.5064 2.20337 12.9543 2.65099 12.9543 3.20312C12.9543 3.34037 12.9544 3.47865 12.9299 5.71973C12.9082 7.71422 12.8654 11.3764 12.8 15.3037C13.1458 15.132 13.5504 14.9024 13.9778 14.6123C14.8534 14.0181 15.7545 13.2215 16.7737 12.2949C17.1823 11.9238 17.8144 11.9539 18.1858 12.3623C18.5573 12.771 18.527 13.4039 18.1184 13.7754C17.1093 14.6928 16.1102 15.5825 15.1008 16.2676C14.1096 16.9403 13.0846 17.4375 12.3733 17.6025C12.3578 17.6061 12.3419 17.608 12.3264 17.6113C12.1635 17.7193 11.9682 17.782 11.7581 17.7783C11.4974 17.7736 11.2623 17.6686 11.0872 17.502C10.7715 17.3545 10.472 17.1007 10.262 16.9346C9.74091 16.5226 8.79067 15.8029 8.13403 15.2627C7.45262 14.7021 7.04843 14.3079 6.84888 14.1143C6.75295 14.0212 6.7115 13.9807 6.69458 13.9648C6.48334 13.7815 6.34891 13.5116 6.34888 13.21C6.34905 12.6578 6.79671 12.21 7.34888 12.21L7.41528 12.2129C7.45414 12.2156 7.50705 12.2207 7.5647 12.2334C7.67493 12.2577 7.76066 12.2967 7.81665 12.3262C7.90879 12.3748 7.97337 12.428 7.98267 12.4355C8.01729 12.4635 8.04804 12.4919 8.05884 12.502C8.09202 12.5329 8.14738 12.5865 8.24243 12.6787C8.42649 12.8574 8.78492 13.208 9.40454 13.7178C9.82403 14.0629 10.3377 14.461 10.8069 14.8242C10.868 11.0737 10.909 7.61642 10.9299 5.69824C10.9545 3.45047 10.9543 3.32647 10.9543 3.20312C10.9543 2.65084 11.4021 2.20312 11.9543 2.20312ZM7.28345 14.208C7.31682 14.2102 7.34549 14.21 7.34888 14.21C7.32289 14.21 7.29721 14.208 7.27173 14.2061C7.2756 14.2064 7.27968 14.2078 7.28345 14.208ZM6.72485 13.9912C6.73315 13.9979 6.74828 14.0081 6.76685 14.0215C6.74984 14.0093 6.73322 13.9966 6.71704 13.9834C6.7197 13.9856 6.72193 13.9889 6.72485 13.9912Z" fill="black"/>
</svg>
