<svg width="24" height="24" viewBox="0 0 24 24" fill="none" xmlns="http://www.w3.org/2000/svg">
<path d="M7.14976 18.1358C7.32021 17.611 7.88358 17.3235 8.40855 17.4932C8.54282 17.5367 8.66751 17.5757 8.78551 17.6124C8.90109 17.6482 9.01703 17.6836 9.12242 17.7178C9.28408 17.7704 9.61618 17.874 9.88023 18.085L9.96617 18.1534L10.0345 18.2383C10.3917 18.6816 10.5538 19.399 10.307 20.0762C10.2323 20.281 10.0954 20.5122 9.85191 20.6846C9.61406 20.8529 9.37105 20.8968 9.21324 20.9082C9.11328 20.9155 8.81429 20.9412 8.48765 20.8995C8.17967 20.86 7.66518 20.7394 7.27965 20.3067C7.2324 20.2536 7.13865 20.1441 7.06187 19.9952C6.9816 19.8393 6.89133 19.5842 6.93785 19.2715L6.96715 19.125C6.99943 18.993 7.05439 18.8471 7.13512 18.7022C7.08695 18.5222 7.08803 18.3262 7.14976 18.1358ZM15.4828 17.1006C15.7427 16.9035 16.094 16.8372 16.4242 16.9551C16.5666 17.006 16.6981 17.0559 16.8285 17.126L16.9584 17.2032L17.1009 17.2969L17.2045 17.4336C17.6266 17.9894 17.6618 18.6825 17.5873 19.1954L17.5648 19.3487L17.4974 19.4874C17.4073 19.6735 17.1496 20.0957 16.5912 20.1836C16.4268 20.2095 16.0986 20.263 15.7787 20.253C15.6169 20.2479 15.3952 20.226 15.1693 20.1407C14.9334 20.0515 14.6376 19.8704 14.4535 19.5235C14.3206 19.273 14.1589 18.8308 14.3265 18.3135L14.4408 17.9688C14.4707 17.8931 14.5194 17.7811 14.597 17.6661C14.6752 17.5503 14.8107 17.3902 15.0267 17.2745C15.1131 17.2282 15.1935 17.191 15.266 17.1631C15.3015 17.1495 15.3404 17.1359 15.3812 17.1241C15.4011 17.1183 15.4289 17.1105 15.4613 17.1036C15.4636 17.1031 15.4713 17.1029 15.4828 17.1006ZM8.55894 19.8575C8.58495 19.8575 8.60745 19.8566 8.62437 19.8555C8.63521 19.8548 8.64578 19.8535 8.65465 19.8526C8.62324 19.8556 8.59113 19.8575 8.55894 19.8575ZM8.66344 19.8516C8.66531 19.8514 8.66754 19.8517 8.6693 19.8516C8.69052 19.8492 8.70839 19.8459 8.72105 19.8438L8.72301 19.8418C8.70333 19.8451 8.68348 19.8495 8.66344 19.8516ZM15.806 19.0713C15.8119 19.0706 15.817 19.0709 15.8207 19.0704C15.8346 19.0683 15.8472 19.0655 15.8578 19.0635C15.8407 19.0666 15.8234 19.0691 15.806 19.0713ZM15.9105 19.0518C15.9229 19.0487 15.9333 19.0469 15.9398 19.045C15.9416 19.0444 15.943 19.0426 15.9447 19.042C15.9333 19.0452 15.9221 19.049 15.9105 19.0518ZM7.87437 10.1866C7.98485 10.1908 8.17043 10.1958 8.37144 10.2276L8.57555 10.2686L8.63219 10.2832L8.6859 10.3038C9.1137 10.4684 9.503 10.7418 9.77183 11.1094L9.81871 11.1729L9.85484 11.2432C10.0208 11.5674 10.0334 11.8868 9.98765 12.1504C9.94493 12.3965 9.82759 12.7334 9.51109 13.0069C9.30197 13.1875 8.98453 13.365 8.61558 13.4082C8.32479 13.4423 7.73763 13.4766 7.23277 13.1182C6.99986 12.9527 6.63994 12.5858 6.67906 11.9883C6.69203 11.7915 6.74197 11.5551 6.84703 11.3272C6.83872 11.2686 6.83392 11.2078 6.83629 11.1465C6.85802 10.5951 7.32292 10.1654 7.87437 10.1866ZM15.9076 9.80962C16.1316 9.82213 16.3329 9.90915 16.4925 10.043C16.6155 10.0681 16.7616 10.1027 16.9066 10.1602L17.0716 10.2364L17.1459 10.2754L17.2113 10.3262C17.4143 10.4825 17.5909 10.7032 17.6976 10.9766L17.7396 11.0967L17.7689 11.211C17.8267 11.4752 17.8141 11.7333 17.7748 11.9405C17.7624 12.0055 17.7197 12.2509 17.5619 12.4864C17.3635 12.782 17.0517 12.9737 16.6869 13.0225C16.4097 13.0595 16.0072 13.0879 15.6078 13.0381C15.271 12.9962 14.6211 12.8627 14.2337 12.2989C14.1649 12.1987 14.0303 11.9915 13.9535 11.7383C13.8818 11.502 13.779 10.9089 14.2699 10.4473L14.3763 10.3555C14.4008 10.3356 14.4266 10.3173 14.4515 10.2989C14.6229 10.0894 14.8771 9.95191 15.1644 9.93462C15.3756 9.86382 15.6558 9.79564 15.9076 9.80962ZM15.0316 4.06059C15.302 4.05126 15.5497 4.06476 15.7972 4.11235C15.9895 4.14936 16.2383 4.21641 16.473 4.35258L16.5726 4.41508L16.6654 4.48344C16.8756 4.64972 17.1289 4.93589 17.1859 5.38188L17.1957 5.48833L17.2005 5.81059C17.1976 5.9221 17.1896 6.03651 17.1732 6.14946C17.1427 6.35937 17.0711 6.65988 16.8744 6.93071C16.8177 7.00866 16.5271 7.43483 15.9652 7.51567C15.8897 7.52648 15.5628 7.58291 15.2503 7.55571C15.0915 7.54181 14.8302 7.49985 14.5765 7.33989C14.2777 7.15132 14.0539 6.83666 14.0033 6.43755C13.9536 6.04573 14.0116 5.65624 14.0834 5.37016C14.0881 5.35116 14.0949 5.33238 14.1 5.31352C14.0816 5.24332 14.0694 5.17032 14.0668 5.09477C14.0477 4.54283 14.4797 4.07971 15.0316 4.06059ZM7.45933 3.92485C7.75209 3.80892 8.09523 3.83145 8.37828 4.01762C8.68312 4.21816 8.85754 4.35666 9.01305 4.53618L9.03551 4.56157L9.05601 4.58794C9.20843 4.78996 9.31911 5.00858 9.39586 5.23344L9.46129 5.46098L9.4691 5.49419L9.47496 5.52837C9.47915 5.55244 9.53056 5.79268 9.47008 6.06157C9.39373 6.40087 9.18196 6.66328 8.91344 6.83208C8.69028 6.97228 8.42431 7.1147 8.15367 7.20415C8.01851 7.24877 7.84768 7.29158 7.66051 7.30083C7.47832 7.30975 7.20418 7.29008 6.93297 7.1309C6.66307 6.97237 6.29287 6.61027 6.30015 6.04106L6.3148 5.7813C6.33879 5.52321 6.38954 5.27575 6.44371 5.07524C6.48059 4.93877 6.52361 4.80409 6.57164 4.68559C6.59534 4.62715 6.62573 4.55984 6.66246 4.49223C6.68802 4.44518 6.76081 4.31469 6.88805 4.1934C7.05078 4.03835 7.25206 3.94941 7.45933 3.92485Z" fill="black"/>
</svg>
