<svg width="24" height="24" viewBox="0 0 24 24" fill="none" xmlns="http://www.w3.org/2000/svg">
<path d="M21.3963 20.3394C21.9483 20.3396 22.3961 20.7874 22.3963 21.3394C22.3963 21.8916 21.9484 22.3393 21.3963 22.3394C21.0342 22.3394 20.71 22.3401 20.4666 22.3492C20.1882 22.3596 20.0569 22.3767 17.3416 22.4898C14.6601 22.6016 9.63086 22.7996 6.81818 22.8961C4.00292 22.9926 3.41153 22.9874 2.81623 22.982C2.26409 22.9769 1.82004 22.5254 1.82502 21.9732C1.83036 21.4214 2.28199 20.9783 2.83381 20.983C3.38816 20.988 3.94745 20.9931 6.74982 20.897C9.55553 20.8008 14.5794 20.6034 17.2586 20.4918C19.9021 20.3816 20.1373 20.3597 20.3914 20.3502C20.6807 20.3393 21.0476 20.3394 21.3963 20.3394ZM13.3514 1.07087C13.7026 0.892647 14.108 0.943379 14.4031 1.16462C14.6561 1.22095 14.8872 1.37448 15.035 1.61188C15.1932 1.86616 15.5291 2.29098 16.0574 2.87653C16.4044 3.26098 17.0764 3.91121 17.5057 4.34919C17.6919 4.53917 17.8325 4.68282 17.9246 4.7906C18.0165 4.89813 18.1375 5.05553 18.2069 5.28083L18.2332 5.38142L18.2547 5.51716C18.2875 5.8277 18.2018 6.09283 18.1414 6.23884C18.0664 6.42023 17.9695 6.55044 17.8494 6.69294C17.7382 6.82501 17.5552 7.02719 17.2488 7.35895C16.6258 8.03372 15.43 9.31293 14.6668 10.109C13.8745 10.9353 13.6332 11.1548 12.911 11.9263C12.1999 12.686 11.0648 13.9382 10.4305 14.6509C10.0618 15.0652 9.81229 15.3561 9.61994 15.5826C9.43207 15.8038 9.28 15.9856 9.12678 16.1568C8.97782 16.3233 8.7416 16.5968 8.35236 16.9244C8.1354 17.1069 7.89211 17.2031 7.701 17.2603C7.50388 17.3193 7.29117 17.3577 7.08576 17.3863C6.6862 17.4419 6.15162 17.482 5.57111 17.5357C4.8165 17.6055 3.81752 17.6186 3.36213 17.6373C3.09743 17.6481 2.9359 17.6606 2.7967 17.6695C2.67251 17.6775 2.49681 17.6889 2.30256 17.6607C1.73316 17.5778 1.5233 17.1113 1.48029 17.0054C1.41839 16.853 1.39885 16.7092 1.39045 16.6353C1.3718 16.4712 1.3726 16.2812 1.3758 16.1197C1.37922 15.9475 1.38747 15.7444 1.39533 15.5386C1.40338 15.3279 1.4117 15.1033 1.41584 14.8687C1.42312 14.4561 1.39894 13.4595 1.43049 12.4312C1.44138 12.0775 1.49084 11.7618 1.60236 11.4722C1.71852 11.1707 1.87769 10.9628 2.00764 10.8121C2.08184 10.726 2.17236 10.615 2.60139 10.1802C3.02338 9.7526 3.77971 9.00461 4.93928 7.89704C6.09596 6.79223 7.65084 5.33326 8.89631 4.2613C10.1524 3.18026 11.0434 2.53935 11.5438 2.18708L11.5565 2.17829L11.5692 2.17048C11.9999 1.88601 12.3461 1.66134 12.6014 1.49958C12.8255 1.35755 13.0362 1.22839 13.161 1.16755V1.16657C13.2085 1.14339 13.2504 1.12213 13.3514 1.07087ZM13.6717 3.18903C13.4332 3.34015 13.1023 3.55409 12.6834 3.83063C12.2156 4.1602 11.3836 4.75914 10.201 5.77692C8.99757 6.81269 7.47477 8.24142 6.32111 9.34333C5.17073 10.4421 4.42838 11.176 4.02424 11.5855C3.62776 11.9873 3.5679 12.0648 3.52229 12.1177C3.47008 12.1783 3.46949 12.1882 3.46857 12.191C3.46288 12.2058 3.43598 12.2825 3.42951 12.4927C3.39562 13.5975 3.42612 14.2658 3.41486 14.9039C3.41034 15.1602 3.40151 15.4019 3.39338 15.6148C3.39313 15.6213 3.39265 15.6279 3.3924 15.6343C3.94772 15.6145 4.74392 15.604 5.38752 15.5445C6.0312 15.485 6.47174 15.452 6.81037 15.4049C6.96512 15.3833 7.06097 15.3625 7.11799 15.3463C7.35274 15.1427 7.4945 14.9816 7.63654 14.8228C7.76705 14.677 7.89144 14.5279 8.09553 14.2877C8.29537 14.0524 8.5551 13.7492 8.93635 13.3209C9.57773 12.6002 10.7249 11.3348 11.451 10.5592C12.1657 9.79567 12.5 9.47781 13.2225 8.72419C13.9743 7.94 15.1614 6.67152 15.7791 6.00251C15.8844 5.88852 15.9689 5.79135 16.0408 5.71247C15.6731 5.33945 14.9408 4.62388 14.5731 4.21638C14.2324 3.83889 13.9346 3.48548 13.6951 3.17341C13.6875 3.17824 13.6796 3.18401 13.6717 3.18903Z" fill="black"/>
</svg>
