<svg width="24" height="24" viewBox="0 0 24 24" fill="none" xmlns="http://www.w3.org/2000/svg">
<path d="M5.37832 2.77832C6.18741 2.77 7.69422 2.74516 8.60293 2.79004C9.18008 2.81855 9.54971 2.84244 9.78555 2.85938C9.903 2.86781 9.98763 2.87464 10.0424 2.87891C10.1199 2.88495 10.101 2.88186 10.0688 2.88184C10.6207 2.88204 11.0685 3.32987 11.0688 3.88184C11.0688 4.434 10.6209 4.88163 10.0688 4.88184C10.0026 4.88181 9.91977 4.8747 9.88614 4.87207C9.82896 4.86761 9.75159 4.86236 9.642 4.85449C9.42254 4.83873 9.06797 4.81495 8.5043 4.78711C7.6725 4.74603 6.25019 4.76957 5.39883 4.77832C4.32311 4.78937 3.87504 4.94917 3.63223 5.07129C3.62556 5.08085 3.61486 5.09526 3.60293 5.11719C3.55522 5.20513 3.50396 5.34314 3.45547 5.53516C3.4081 5.72286 3.37174 5.92734 3.33926 6.13574C3.31085 6.3181 3.27714 6.56129 3.24356 6.73047C3.16326 7.13495 3.14232 7.61961 3.10586 8.25391C3.02757 9.61603 2.98715 10.0295 2.96817 10.7754C2.96405 10.9373 2.95566 11.0092 2.96036 11.8154C2.96512 12.6336 2.98388 14.1836 3.017 15.3496C3.04995 16.5097 3.09727 17.2414 3.13223 17.6973C3.21202 18.7375 3.4533 19.7265 3.59024 20.1328C3.62972 20.2498 3.71898 20.402 3.86172 20.6074C3.88026 20.6108 3.9016 20.6157 3.9252 20.6191C4.17118 20.6551 4.4893 20.6683 4.97403 20.6992C5.52694 20.7345 6.00231 20.7535 6.42325 20.7686C6.8378 20.7833 7.22032 20.7948 7.55899 20.8164C8.09487 20.8506 9.12236 20.8786 10.8148 20.9023C12.4979 20.9259 14.787 20.935 16.1156 20.9277C17.1205 20.9222 17.632 20.8807 17.9057 20.834C18.0184 20.8147 18.0718 20.7973 18.101 20.7842C18.1161 20.7557 18.1463 20.6932 18.185 20.5752C18.2766 20.2953 18.3473 19.9524 18.4799 19.4092C18.5598 19.0819 18.6277 18.7674 18.683 18.5674C18.681 18.5743 18.6933 18.5193 18.7211 18.3477C18.7458 18.1953 18.7762 17.9909 18.8129 17.7383C18.8888 17.2159 18.9773 16.5835 19.0951 15.7705C19.1331 15.4854 19.1503 15.322 19.1586 15.2139C19.1665 15.1112 19.1671 15.0528 19.1693 14.9541C19.1738 14.7545 19.1821 14.5156 19.1908 14.2803C19.2113 13.7284 19.6761 13.298 20.2279 13.3184C20.7795 13.3392 21.2102 13.8028 21.1898 14.3545C21.181 14.5944 21.1724 14.8171 21.1684 14.999C21.1633 15.2259 21.1607 15.4091 21.0775 16.0342L21.0766 16.0459C20.965 16.8154 20.8636 17.5369 20.7924 18.0264C20.7249 18.4905 20.6622 18.9132 20.6107 19.0996C20.5628 19.2732 20.5312 19.4414 20.4232 19.8838C20.3154 20.3256 20.2099 20.8198 20.0863 21.1973C19.9653 21.5668 19.752 22.0866 19.2621 22.417C19.0216 22.5791 18.7509 22.7187 18.2426 22.8057C17.7983 22.8816 17.1492 22.9221 16.1264 22.9277C14.7845 22.9351 12.4822 22.9261 10.7865 22.9023C9.1016 22.8787 8.02458 22.8504 7.43106 22.8125C7.12847 22.7932 6.78515 22.783 6.35196 22.7676C5.92502 22.7524 5.42812 22.7324 4.84707 22.6953C4.44197 22.6694 3.98814 22.6493 3.63516 22.5977C3.4522 22.5708 3.23787 22.5288 3.03262 22.4482C2.82806 22.3679 2.55994 22.2212 2.35782 21.9434C2.16392 21.6767 1.85589 21.2473 1.69571 20.7725C1.50656 20.2115 1.23082 19.0591 1.13809 17.8506C1.10068 17.3628 1.05184 16.5986 1.01797 15.4062C0.984268 14.2194 0.965168 12.6532 0.960356 11.8271C0.955474 10.9892 0.964867 10.8927 0.969145 10.7246C0.98919 9.93686 1.0349 9.44214 1.10977 8.13965C1.1419 7.58071 1.16814 6.91744 1.28262 6.34082C1.30555 6.22526 1.32443 6.07905 1.36368 5.82715C1.3989 5.60109 1.44571 5.32452 1.51602 5.0459C1.5852 4.77184 1.68641 4.45662 1.84512 4.16406C2.00241 3.87423 2.25427 3.53765 2.65664 3.32422L2.88809 3.21094C3.45118 2.95879 4.19166 2.79051 5.37832 2.77832ZM18.3666 1.07422C18.7746 1.11598 19.1092 1.40369 19.2221 1.78613C19.3497 1.92269 19.4592 2.03504 19.5502 2.13574L19.5619 2.14844L19.5736 2.16211C19.8907 2.53849 20.0903 2.7893 20.3637 3.0957L20.6684 3.42773L20.6918 3.45215L20.7123 3.47754C21.303 4.19111 21.7969 4.76555 22.1068 5.18848C22.2625 5.40095 22.4195 5.63756 22.5229 5.88281C22.6264 6.12883 22.7313 6.51409 22.5844 6.9375C22.5193 7.1251 22.4304 7.4022 22.1439 7.80371C21.8864 8.16461 21.4787 8.61446 20.8022 9.25391C20.3556 9.67592 19.7425 10.2478 19.143 10.8066C18.5413 11.3675 17.9533 11.9154 17.5522 12.2949C16.6323 13.1651 16.5279 13.2617 16.4057 13.4072C16.17 13.6879 15.2771 14.5984 14.2553 15.6777C14.0655 15.8781 13.8649 16.1014 13.7162 16.2451C13.5406 16.4148 13.3115 16.6051 12.9838 16.7168C12.4657 16.8932 11.9989 16.9469 11.4457 17.043C11.2981 17.0686 11.1025 17.1239 10.8129 17.208C10.549 17.2846 10.2185 17.381 9.88907 17.4453C9.56636 17.5083 9.16584 17.5572 8.76407 17.4961C8.33648 17.4309 7.86968 17.2318 7.53262 16.7803C7.19775 16.3314 7.10957 15.7322 7.06582 15.3457C7.02254 14.9632 6.99295 14.3646 6.96426 14.0449C6.89304 13.2512 6.82 12.6583 6.76993 12.1641C6.74612 11.9291 6.7268 11.7076 6.7211 11.5195C6.71656 11.3697 6.71215 11.0962 6.79922 10.8398L6.86172 10.6816C7.02319 10.3224 7.30194 10.0254 7.79336 9.55762C8.32856 9.04815 9.1921 8.25847 9.66641 7.79785C10.1662 7.31249 10.7204 6.72882 11.7104 5.9248C12.4949 5.28761 13.0276 4.83064 13.9154 4.1543C14.67 3.57943 15.8858 2.69752 16.5805 2.14355C17.0162 1.79607 17.2749 1.58422 17.4252 1.46094C17.4956 1.40323 17.5546 1.35523 17.5854 1.33008C17.6002 1.31793 17.6231 1.2989 17.6449 1.28223C17.6542 1.27514 17.6808 1.2552 17.7143 1.2334C17.73 1.22317 17.7681 1.19894 17.8188 1.17383C17.8289 1.16861 18.0132 1.06934 18.2641 1.06934L18.3666 1.07422ZM17.8275 3.70703C17.1191 4.27199 15.8069 5.22741 15.1273 5.74512C14.2725 6.39635 13.7911 6.81155 12.9711 7.47754C12.0691 8.2102 11.5978 8.71004 11.06 9.23242C10.5963 9.68271 9.63785 10.5636 9.17227 11.0068C8.91783 11.2491 8.78835 11.3867 8.72012 11.4668C8.72388 11.5786 8.73739 11.7381 8.76016 11.9629C8.80436 12.3991 8.88374 13.0668 8.95547 13.8662C8.97596 14.0945 8.99141 14.3303 9.00528 14.5391C9.01965 14.7554 9.0335 14.9477 9.05313 15.1211C9.07296 15.2962 9.09552 15.426 9.12051 15.5186C9.12093 15.5201 9.12106 15.5219 9.12149 15.5234C9.20012 15.5261 9.32467 15.5179 9.50625 15.4824C9.73292 15.4381 9.97722 15.3678 10.2553 15.2871C10.5075 15.2139 10.8231 15.121 11.1039 15.0723C11.765 14.9575 11.9939 14.9333 12.2943 14.8359C12.3023 14.8288 12.3137 14.8201 12.3266 14.8076C12.3702 14.7655 12.4248 14.7076 12.5072 14.6191C12.5849 14.5358 12.6869 14.4256 12.8031 14.3027C13.9013 13.1428 14.6889 12.342 14.8744 12.1211C15.0929 11.861 15.325 11.6488 16.1781 10.8418C16.586 10.456 17.1805 9.90226 17.7797 9.34375C18.381 8.78322 18.9888 8.21693 19.4291 7.80078C20.0724 7.19273 20.3703 6.84685 20.516 6.64258C20.5508 6.59386 20.575 6.55347 20.5951 6.51855C20.5689 6.47892 20.5365 6.4287 20.4936 6.37012C20.2323 6.01365 19.8178 5.53217 19.1879 4.77148C18.7128 4.26688 18.4419 3.92516 18.0844 3.49902C18.0059 3.56197 17.9212 3.63235 17.8275 3.70703Z" fill="black"/>
</svg>
