<svg width="24" height="24" viewBox="0 0 24 24" fill="none" xmlns="http://www.w3.org/2000/svg">
<path d="M14.9024 2.51407C15.1942 2.16221 15.7005 2.04525 16.125 2.26114C16.2386 2.31891 16.3349 2.39719 16.4151 2.48672C16.4246 2.48976 16.4348 2.49133 16.4444 2.49453L16.4717 2.50332L16.4991 2.51407C16.7304 2.60679 16.9033 2.73773 17.0381 2.86758C17.2762 3.06934 17.6629 3.41704 18.2657 3.95254C18.6908 4.3302 19.637 5.12752 20.1446 5.63125C20.4491 5.93348 20.7432 6.23314 20.9639 6.53262C21.1976 6.84982 21.3952 7.22658 21.4424 7.6918C21.4485 7.75212 21.4572 7.87307 21.4317 8.01993C21.4046 8.17492 21.3485 8.30706 21.2852 8.41446C21.184 8.58597 21.0432 8.72465 20.9619 8.8041C20.4424 9.31182 19.8306 9.82857 19.3877 10.1781C19.0532 10.4421 18.9553 10.4885 18.626 10.7816C18.3938 10.9884 17.9658 11.382 16.7344 12.8344C16.116 13.5638 15.3148 14.5352 14.4912 15.5346C13.6706 16.5305 12.8279 17.5542 12.1338 18.3754C10.7401 20.0243 9.96776 20.8371 9.56839 21.266C9.37555 21.4731 9.27165 21.5883 9.21097 21.6557C9.18448 21.6851 9.15167 21.7215 9.12406 21.7504C9.09145 21.7845 9.0367 21.8404 8.95999 21.8969C8.67443 22.1069 8.35761 22.1151 8.27347 22.1215C8.12136 22.1332 7.86121 22.1447 7.41605 22.1625C6.5095 22.1987 4.7909 22.2627 3.86234 22.2885C3.42102 22.3007 3.12176 22.3114 2.94046 22.31C2.85769 22.3093 2.72523 22.3067 2.59183 22.2807C2.43443 22.25 2.1582 22.1637 1.94144 21.8959C1.69759 21.5945 1.65633 21.2402 1.63968 21.0248C1.62007 20.7706 1.6222 20.4171 1.64163 19.9193C1.66782 19.2485 1.70165 17.8981 1.80863 17.0541C1.9426 15.9974 2.10555 15.2706 2.49417 14.7777C2.63471 14.5995 3.02348 14.0673 3.61722 13.4457C4.00742 13.0372 4.24265 12.7867 5.20316 11.9262C6.06581 11.1534 7.66873 9.73252 8.63773 8.88516C9.60275 8.04128 9.89769 7.80171 10.836 6.83633C11.7966 5.8479 13.3582 4.17473 14.1465 3.32852C14.5398 2.90638 14.7355 2.69504 14.833 2.58926L14.9024 2.51407ZM15.6094 4.6918C14.825 5.53381 13.2479 7.22333 12.2696 8.22989C11.2691 9.25929 10.9201 9.54633 9.95413 10.391C8.99194 11.2324 7.3947 12.6481 6.53714 13.4164C5.61916 14.2388 5.4213 14.452 5.06351 14.8266C4.55394 15.36 4.24428 15.7892 4.06546 16.016C4.05669 16.0309 4.02404 16.0927 3.98148 16.2445C3.92262 16.4548 3.85917 16.7833 3.793 17.3051C3.70034 18.036 3.66874 19.2533 3.63968 19.9975C3.63537 20.1078 3.63408 20.2066 3.63187 20.2943C3.68629 20.2928 3.74445 20.2912 3.80667 20.2895C4.72268 20.2641 6.43222 20.2006 7.33695 20.1645C7.58461 20.1546 7.76145 20.1442 7.8887 20.1381C7.94594 20.0756 8.0165 19.9982 8.10452 19.9037C8.49822 19.4809 9.2443 18.696 10.6065 17.0844C11.2908 16.2748 12.125 15.2621 12.9483 14.2631C13.7685 13.2676 14.5795 12.2839 15.209 11.5414C16.4733 10.0502 16.968 9.57941 17.2959 9.2875C17.6751 8.94999 17.9542 8.76117 18.1485 8.60782C18.4745 8.35042 18.8963 7.99456 19.2862 7.63418C19.1688 7.49101 18.9972 7.31003 18.7354 7.0502C18.2782 6.59653 17.4489 5.90198 16.9375 5.44766C16.3768 4.94954 16.0392 4.64807 15.8233 4.46133C15.7592 4.53012 15.6883 4.60715 15.6094 4.6918ZM14.7969 2.66836C14.7883 2.68391 14.7813 2.69758 14.7803 2.69961C14.7935 2.67375 14.8082 2.64863 14.8233 2.62442C14.8142 2.63889 14.8051 2.65368 14.7969 2.66836ZM14.8321 2.60977C14.8291 2.61436 14.8262 2.61978 14.8233 2.62442C14.828 2.61689 14.8331 2.60933 14.8379 2.60196C14.8362 2.60454 14.8338 2.60709 14.8321 2.60977Z" fill="black"/>
</svg>
