<svg width="24" height="24" viewBox="0 0 24 24" fill="none" xmlns="http://www.w3.org/2000/svg">
<path d="M19.1033 1.3348C19.7564 1.33285 20.3216 1.34921 20.738 1.38852C20.939 1.4075 21.149 1.43566 21.3289 1.48324C21.4128 1.50548 21.5505 1.5475 21.6892 1.62777C21.7791 1.67986 22.1201 1.89064 22.2107 2.33578L22.2253 2.42855L22.2498 2.71371C22.2773 3.1477 22.2904 3.97247 22.0798 4.70102C21.9625 5.10696 21.673 5.85657 21.2234 6.6307C21.0011 7.01334 20.7336 7.42007 20.4529 7.78012C20.1859 8.12244 19.8527 8.49408 19.489 8.7352C18.6048 9.32126 18.1063 9.64743 17.781 9.86898C17.9249 9.94134 18.0767 10.02 18.2273 10.1034C18.4846 10.2458 18.7621 10.4138 19.0105 10.6043C19.2481 10.7867 19.5236 11.0377 19.7117 11.3621C19.7632 11.4512 19.8369 11.595 19.8806 11.7713C19.9206 11.9327 19.9735 12.2781 19.7742 12.6336C19.6926 12.7791 19.5695 12.9213 19.4685 13.0282C19.349 13.1546 19.1937 13.3007 19.0046 13.45C18.6269 13.7484 18.095 14.0774 17.4177 14.3006C16.8198 14.4977 16.3568 14.663 14.905 15.0936C13.5783 15.4871 11.1753 16.1868 9.66382 16.7059C8.18313 17.2145 7.62138 17.5256 7.25854 17.7401C6.83569 17.9901 6.68099 18.1014 6.57104 18.202C6.23028 18.5141 5.56648 19.134 4.99292 20.1776C4.52986 21.0202 4.32511 21.6964 4.27905 22.2948C4.24351 22.7542 3.90231 23.1163 3.47046 23.1991C3.45375 23.2045 3.43684 23.211 3.41968 23.2157C2.88662 23.3597 2.33729 23.0435 2.19312 22.5106C2.13477 22.2946 2.09018 22.1364 2.07886 21.8621L2.07788 21.8446V21.826C2.07585 21.4217 2.08565 21.0217 2.10034 20.7557L2.10327 20.703L2.11108 20.6512C2.14256 20.4564 2.20732 20.0884 2.27515 19.701C2.34419 19.3067 2.41772 18.8833 2.46948 18.5623C2.55077 18.0583 2.64263 17.4895 2.74292 16.8914C2.78658 16.6311 2.93447 15.6853 3.07788 15.0389C3.23514 14.3302 3.55473 13.2064 3.70386 12.6151C3.9663 11.5742 4.2237 10.6561 4.37476 10.2606C4.40628 10.1781 4.43117 10.0984 4.47241 9.97445C4.51114 9.85811 4.56026 9.71641 4.62573 9.55746C4.81937 9.08747 5.00453 8.54963 5.33374 7.95102C5.79127 7.11913 6.27796 6.28209 6.72339 5.76449C7.15332 5.26497 7.66084 4.64093 8.28296 4.21957C9.03867 3.70777 9.94663 3.27175 10.6462 2.96664C10.8575 2.87456 11.071 2.79786 11.2605 2.73031C11.4579 2.65995 11.6389 2.5963 11.8298 2.5184C12.1428 2.39073 13.0123 2.1138 14.1892 1.86703C14.6443 1.7716 14.9289 1.69572 15.408 1.63949C16.6645 1.492 17.0984 1.42151 17.6423 1.39535C18.0145 1.37742 18.4169 1.33687 19.1033 1.3348ZM19.1091 3.3348C18.4796 3.3367 18.2113 3.37062 17.738 3.3934C17.2857 3.41516 16.9929 3.46707 15.6404 3.62582C15.2797 3.66818 15.1429 3.71107 14.5994 3.82504C13.4905 4.05754 12.7482 4.30374 12.5857 4.36996C12.3454 4.46803 12.1201 4.54719 11.9324 4.6141C11.7368 4.68381 11.5845 4.73886 11.4451 4.79965C10.7841 5.08791 10.0089 5.46692 9.40503 5.87582C9.05661 6.11181 8.74533 6.48091 8.23901 7.06918C7.95234 7.40237 7.56133 8.05186 7.08667 8.91488C6.82936 9.38272 6.71898 9.72545 6.47437 10.3192C6.43615 10.412 6.40595 10.5009 6.37085 10.6063C6.33819 10.7044 6.29429 10.839 6.24292 10.9735C6.14118 11.2398 5.9109 12.0421 5.64331 13.1034C5.46195 13.8226 5.18309 14.7818 5.03003 15.4715C4.9025 16.0463 4.76895 16.9013 4.71655 17.2147C4.9186 17.0059 5.09216 16.844 5.21948 16.7274C5.4952 16.4749 5.80673 16.2746 6.23999 16.0184C6.73394 15.7264 7.42168 15.3613 9.0144 14.8143C10.5779 14.2773 13.0391 13.5615 14.3367 13.1766C15.7536 12.7563 16.1848 12.6012 16.7917 12.4012C17.0968 12.3007 17.3532 12.1642 17.5574 12.0291C17.4673 11.9722 17.3674 11.9131 17.2595 11.8534C17.0484 11.7365 16.8253 11.6265 16.6091 11.5213C16.4067 11.4229 16.1814 11.3157 16.0144 11.2264C15.7234 11.0708 15.4449 10.7875 15.3318 10.6795C15.1844 10.5389 15.0418 10.3232 15.0056 10.0389C14.9712 9.76734 15.0485 9.54778 15.1179 9.41293C15.2366 9.18258 15.4155 9.04247 15.4451 9.0184C15.6182 8.87731 15.8488 8.73279 16.0261 8.62191C16.2289 8.49511 16.4074 8.38621 16.5613 8.28012C16.9039 8.04385 17.4421 7.69123 18.3835 7.06723C18.4731 7.00779 18.6472 6.84366 18.8757 6.55062C19.0905 6.27517 19.308 5.94595 19.4939 5.62582C19.8621 4.99186 20.0863 4.39308 20.158 4.14535C20.2229 3.9205 20.2524 3.6387 20.2605 3.35922C19.9602 3.34245 19.5721 3.33342 19.1091 3.3348Z" fill="black"/>
</svg>
