<svg width="24" height="24" viewBox="0 0 24 24" fill="none" xmlns="http://www.w3.org/2000/svg">
<path d="M14.4709 2.83427C14.8954 2.48115 15.5259 2.53884 15.8792 2.96317C15.8739 2.95663 15.9746 3.06624 16.2131 3.32157C16.4362 3.56034 16.7542 3.89924 17.1477 4.31474C17.4702 4.65519 17.5367 4.69526 17.8899 5.05204C18.0384 5.20205 18.2183 5.38867 18.3879 5.56474C18.5605 5.74386 18.7217 5.91134 18.842 6.03349C18.9497 6.14277 19.0143 6.20649 19.092 6.27567L19.4192 6.55399L19.4211 6.55595C20.2686 7.27351 20.8841 7.79791 21.0129 7.91044L21.1711 8.03739C21.6096 8.37297 21.693 9.00021 21.3577 9.43876C21.022 9.87734 20.3939 9.96094 19.9553 9.62528C19.8526 9.54669 19.7783 9.48661 19.7122 9.42997L19.7063 9.42509L19.7014 9.4202C19.6643 9.38743 19.5121 9.25988 19.2727 9.05595C19.2431 9.09194 19.2124 9.12805 19.177 9.16044C19.0622 9.26556 18.83 9.49053 18.4475 9.87333C18.2875 10.0335 18.1123 10.1594 17.9495 10.2757C17.7752 10.4001 17.5626 10.5488 17.2502 10.7835C16.9943 10.9758 16.757 11.1394 16.5559 11.2815C16.588 11.3706 16.621 11.469 16.6467 11.5765C16.6969 11.7865 16.7069 12.082 16.7131 12.3069C16.7205 12.5752 16.7225 12.9148 16.7239 13.2913C16.7259 13.8672 16.6394 14.2457 16.5295 14.6419C16.3522 15.281 16.095 15.7691 15.8938 16.0931C15.3671 16.9406 14.9255 17.4124 14.6321 17.6575C14.497 17.7703 14.3443 17.8646 14.2434 17.927C14.1221 18.002 14.0387 18.0525 13.9514 18.1116C13.9155 18.1381 13.8781 18.1654 13.8352 18.1946C13.7988 18.2194 13.7983 18.2194 13.7649 18.2425C13.7416 18.2586 13.7075 18.2824 13.6545 18.3206C14.2056 18.8748 14.4965 19.1636 14.6565 19.3206C14.7915 19.4531 14.865 19.5217 14.9084 19.5667C15.2919 19.964 15.2803 20.5972 14.8831 20.9808C14.4857 21.3639 13.8525 21.3534 13.469 20.9563C13.4458 20.9323 13.4532 20.9417 13.2561 20.7483C13.0859 20.5813 12.7835 20.2811 12.2161 19.7102C11.3484 18.8374 9.91091 17.3817 8.54907 16.053C8.48904 16.1249 8.42167 16.1907 8.34399 16.2434C8.34525 16.2426 8.34697 16.2421 8.3479 16.2415C8.37292 16.2243 8.39077 16.2095 8.39478 16.2063C8.4036 16.1994 8.41009 16.1947 8.41138 16.1936C8.40862 16.196 8.39881 16.2045 8.38013 16.221C8.34384 16.253 8.28654 16.3042 8.20923 16.3743C8.05779 16.5117 7.83418 16.717 7.54517 16.9866L7.21216 17.3274C7.10579 17.4433 6.99883 17.5677 6.87427 17.719C6.61637 18.0324 6.2955 18.4487 5.90161 18.9641C5.56637 19.4028 4.93804 19.4866 4.49927 19.1516C4.06047 18.8163 3.97647 18.1881 4.31177 17.7493C4.70193 17.2388 5.04465 16.7935 5.32935 16.4475C5.62282 16.091 5.85292 15.842 6.15161 15.552L6.15942 15.5452L6.16626 15.5384C6.46773 15.257 6.70321 15.0401 6.86548 14.8929C6.94622 14.8196 7.01072 14.7617 7.05688 14.721C7.07518 14.7048 7.09325 14.689 7.10962 14.6751C5.58755 13.2516 4.53205 12.3915 3.95435 11.9124C3.35754 11.4174 3.24041 11.3049 3.12329 11.1751C2.75344 10.7652 2.78594 10.133 3.19556 9.76298C3.60555 9.39303 4.23767 9.42533 4.60767 9.83524C4.61221 9.8403 4.61913 9.85689 5.00024 10.177C5.06171 10.1067 5.12025 10.0376 5.17993 9.97392C5.49347 9.63926 6.04386 9.27052 6.62622 8.88602C7.37826 8.38951 7.92072 8.15383 8.21118 8.05888C9.0208 7.79438 9.34093 7.78533 9.97876 7.72392C10.5219 7.6716 10.9084 7.68088 11.2053 7.72489C11.2986 7.73874 11.379 7.75649 11.4485 7.77372C11.4656 7.76026 11.4861 7.74587 11.5071 7.72782C11.5976 7.65003 11.6913 7.55736 11.8118 7.43778C11.9175 7.33277 12.0628 7.18742 12.2092 7.06767C12.4371 6.88138 12.6361 6.7431 12.7961 6.63602C12.9761 6.51561 13.0453 6.47346 13.1077 6.42509L13.1448 6.39579L13.1848 6.3704C13.1848 6.36968 13.281 6.29814 13.5325 6.10477C13.7681 5.92358 14.0796 5.68337 14.4749 5.37919L14.4846 5.37138L14.4954 5.36356C14.7227 5.19772 14.8904 5.09133 15.0452 4.99931C14.6405 4.56866 14.3833 4.29195 14.342 4.24247C13.989 3.81795 14.0466 3.18747 14.4709 2.83427ZM16.4739 6.46513C16.428 6.5038 16.3785 6.5398 16.3245 6.57059C16.072 6.71455 15.9496 6.77927 15.6946 6.96415L14.7512 7.69071C14.5934 7.81201 14.4375 7.92868 14.3333 8.00321L14.3342 8.00419C14.1977 8.11019 14.0208 8.22298 13.9084 8.29813C13.7758 8.38691 13.6341 8.48625 13.4749 8.61649C13.4178 8.6632 13.3441 8.73448 13.2209 8.85673C13.1123 8.96465 12.966 9.11098 12.8108 9.24442C12.6578 9.37584 12.4509 9.53599 12.2034 9.65067C11.9487 9.76859 11.5943 9.86435 11.1926 9.7786C11.1226 9.76362 11.0628 9.74324 11.0422 9.73661C11.0095 9.72607 11.0047 9.72461 10.9895 9.72001C10.9744 9.71547 10.952 9.70943 10.9114 9.70341C10.8214 9.69009 10.6067 9.67222 10.1711 9.71415C9.54188 9.77475 9.41435 9.77008 8.83228 9.96024C8.74354 9.98932 8.36237 10.1367 7.72876 10.555C7.06581 10.9927 6.75378 11.2185 6.63892 11.3411C6.60364 11.3788 6.56879 11.4207 6.53052 11.4641C7.1128 11.966 7.83349 12.607 8.68677 13.4114C9.81332 14.4735 11.1545 15.8105 12.2551 16.9153C12.3127 16.8401 12.3826 16.7726 12.4631 16.7141C12.6137 16.605 12.6729 16.567 12.7092 16.5423C12.7319 16.5268 12.7536 16.5109 12.7913 16.4827L12.8108 16.4681L12.8303 16.4554C12.9629 16.3656 13.106 16.2794 13.1926 16.2259C13.2411 16.1959 13.2778 16.1732 13.3069 16.1536C13.3206 16.1444 13.3306 16.1367 13.3381 16.1311C13.3418 16.1285 13.345 16.1258 13.3469 16.1243C13.3484 16.1232 13.3496 16.1225 13.3499 16.1224C13.4444 16.0433 13.7534 15.7482 14.1946 15.0384C14.3225 14.8325 14.4876 14.5192 14.6018 14.1077C14.6851 13.8073 14.725 13.6231 14.7239 13.2981C14.7225 12.918 14.7207 12.6022 14.7141 12.3616C14.7108 12.2418 14.7063 12.1497 14.7014 12.0833C14.6993 12.055 14.6967 12.0358 14.6956 12.0257C14.6801 11.9676 14.6573 11.9064 14.6184 11.8245C14.6075 11.8016 14.5955 11.7772 14.5823 11.7503C14.5699 11.7252 14.554 11.6929 14.5393 11.6624C14.5106 11.6028 14.4695 11.5161 14.4348 11.4192C14.4264 11.3957 14.1875 10.8148 14.6106 10.302C14.7849 10.0909 15.0723 9.88536 15.2375 9.76591C15.5548 9.53655 15.7304 9.42329 16.0491 9.18388C16.3863 8.93053 16.6259 8.76395 16.7874 8.64872C16.9598 8.52565 17.0053 8.48647 17.0325 8.45927C17.3576 8.13388 17.5942 7.90367 17.7502 7.75712C17.6518 7.66912 17.5549 7.57744 17.4172 7.43778C17.2868 7.3054 17.1158 7.12716 16.9475 6.95243C16.7784 6.77686 16.6101 6.60282 16.4739 6.46513ZM8.01001 16.389C8.01574 16.3877 8.02164 16.3873 8.02661 16.386C8.03146 16.3848 8.0366 16.3824 8.04126 16.3811C8.03099 16.3839 8.0204 16.3865 8.01001 16.389ZM8.13403 16.3509C8.13932 16.3489 8.14513 16.3487 8.14966 16.347C8.15157 16.3462 8.15364 16.3448 8.15552 16.344C8.14863 16.3468 8.141 16.3483 8.13403 16.3509Z" fill="black"/>
</svg>
