<svg width="24" height="24" viewBox="0 0 24 24" fill="none" xmlns="http://www.w3.org/2000/svg">
<path d="M3.02548 15.1603C3.57762 15.1605 4.02548 15.6082 4.02548 16.1603C4.02547 16.1942 4.0236 16.2407 4.004 16.6994C3.98306 17.189 3.94268 18.1365 3.93661 18.8664C3.9336 19.23 3.93917 19.5137 3.95517 19.7297C3.95556 19.7351 3.95573 19.741 3.95614 19.7463C4.05439 19.7527 4.17285 19.7615 4.3165 19.7678C5.2566 19.809 6.98167 19.8472 8.77939 19.8869C9.33129 19.8994 9.76911 20.3574 9.75693 20.9094C9.74429 21.4609 9.28698 21.8987 8.73544 21.8869C6.95012 21.8475 5.19625 21.8082 4.2286 21.7658C3.79441 21.7468 3.37381 21.7259 3.05673 21.6311C2.86425 21.5734 2.63847 21.4703 2.44247 21.2717C2.25091 21.0772 2.16046 20.8634 2.11239 20.7238C2.02161 20.4598 1.98198 20.1598 1.96103 19.8771C1.93914 19.5817 1.93342 19.236 1.93661 18.8498C1.94302 18.0789 1.98537 17.0949 2.00595 16.6135C2.01629 16.3715 2.02096 16.2487 2.02353 16.1867L2.02548 16.1506C2.02554 16.1456 2.02543 16.1406 2.02548 16.1379C2.02551 16.1368 2.02626 16.1357 2.02646 16.135C2.03973 15.5943 2.48164 15.1604 3.02548 15.1603ZM20.6886 15.0549C21.2406 15.0551 21.6885 15.5028 21.6886 16.0549C21.6886 16.1335 21.6787 16.2296 21.627 16.7482C21.5705 17.3159 21.4567 18.4461 21.3849 19.092C21.3051 19.809 21.2388 20.187 21.0821 20.4758C20.8503 20.9027 20.4377 21.0207 20.3126 21.0568C20.1569 21.1018 19.9389 21.1442 19.6983 21.1916C19.2224 21.2855 18.3485 21.437 17.7179 21.5246C17.0612 21.6158 16.6836 21.6294 16.3936 21.6398C16.1207 21.6497 15.9379 21.6564 15.7198 21.6711C15.1689 21.7083 14.6917 21.2923 14.6544 20.7414C14.6172 20.1904 15.0341 19.7132 15.585 19.676C15.8377 19.6589 16.0484 19.6506 16.3214 19.6408C16.5776 19.6316 16.8803 19.6222 17.4425 19.5441C18.0314 19.4623 18.8681 19.3171 19.3116 19.2297C19.3256 19.2269 19.3394 19.2235 19.3526 19.2209C19.3654 19.126 19.3819 19.0105 19.3976 18.8703C19.4679 18.238 19.5801 17.1206 19.6368 16.551C19.6651 16.2665 19.6789 16.1233 19.6856 16.051L19.6895 16.0119C19.6894 16.0142 19.6897 16.0169 19.6895 16.0197C19.6893 16.0269 19.6887 16.0352 19.6886 16.0432C19.6885 16.0489 19.6885 16.0538 19.6886 16.0549C19.6886 15.5026 20.1363 15.0549 20.6886 15.0549ZM5.80673 2.36933C6.54213 2.27671 7.25368 2.30969 7.67294 2.32832C8.09537 2.34709 8.31529 2.35716 8.43173 2.36348C8.48372 2.36628 8.6255 2.36944 8.7579 2.40449C9.29155 2.54607 9.6102 3.0944 9.46884 3.62812C9.33981 4.11443 8.87335 4.41979 8.38778 4.36348H8.379L8.37607 4.3625C8.3801 4.36266 8.38335 4.36236 8.38583 4.3625C8.38001 4.36184 8.37408 4.3623 8.36825 4.36152C8.37116 4.3619 8.37383 4.36205 8.37607 4.3625C8.36514 4.36207 8.34818 4.36189 8.32333 4.36055C8.21796 4.35483 8.00729 4.34517 7.58407 4.32637C7.15611 4.30735 6.60238 4.28499 6.05673 4.35371C5.49267 4.4248 5.08728 4.57641 4.85458 4.78633C4.63641 4.98346 4.43928 5.36475 4.30185 6.05098C4.16667 6.72627 4.1183 7.52867 4.0665 8.43769C4.03499 8.98881 3.5629 9.4102 3.01181 9.3791C2.46042 9.34768 2.03898 8.87483 2.0704 8.32344C2.12006 7.45203 2.17167 6.49898 2.33993 5.6584C2.50598 4.82912 2.8167 3.93276 3.51376 3.30293C4.19654 2.68616 5.08991 2.45968 5.80673 2.36933ZM14.0411 3.1291C14.2201 2.62546 14.7612 2.35616 15.2677 2.50703C15.2754 2.50833 15.2888 2.51011 15.3077 2.51289C15.4066 2.52739 15.6041 2.55154 16.0059 2.59297C16.7734 2.67206 18.3902 2.82374 19.1866 2.90742C19.5818 2.94895 19.8474 2.98075 20.0196 3.01582C20.1 3.0322 20.2522 3.06596 20.4073 3.14961C20.5715 3.23828 20.6794 3.3489 20.7452 3.43086L20.7979 3.50215L20.8946 3.6623C20.9809 3.82644 21.0374 3.99759 21.0802 4.14961C21.1104 4.25697 21.1401 4.37743 21.169 4.51094L21.2559 4.95332L21.2618 4.98457C21.3314 5.44827 21.4166 6.1661 21.461 6.77949C21.5063 7.40395 21.5059 7.89425 21.5059 8.36641C21.5057 8.91837 21.0579 9.36624 20.5059 9.36641C19.9539 9.36631 19.5062 8.91841 19.5059 8.36641C19.5059 7.89536 19.5054 7.46926 19.4659 6.92402C19.4256 6.36767 19.3462 5.70176 19.2833 5.28242H19.2823C19.2557 5.13866 19.2322 5.02013 19.211 4.92305C19.1429 4.91545 19.0651 4.90587 18.9776 4.89668C18.1387 4.80854 16.6467 4.6694 15.8009 4.58223C15.0494 4.50477 14.8455 4.47631 14.6485 4.40644C14.1284 4.22158 13.8566 3.64936 14.0411 3.1291ZM8.28427 4.34785C8.29964 4.35122 8.3143 4.35344 8.32724 4.35566C8.30032 4.35086 8.27308 4.34519 8.24618 4.33808C8.24967 4.33904 8.26566 4.34375 8.28427 4.34785ZM15.3184 2.52168C15.3244 2.52378 15.314 2.51987 15.3009 2.51582C15.294 2.51371 15.2871 2.51247 15.2813 2.51094C15.2933 2.51466 15.3065 2.51745 15.3184 2.52168Z" fill="black"/>
</svg>
