<svg width="24" height="24" viewBox="0 0 24 24" fill="none" xmlns="http://www.w3.org/2000/svg">
<path d="M9.11492 3.79279C9.22383 3.25149 9.75131 2.90086 10.2927 3.00959C10.3464 3.02042 10.5142 3.06576 12.0583 3.09064C13.4106 3.11242 15.9214 3.05097 17.2946 3.03986H17.3063C18.6114 3.04438 18.8234 3.06977 19.0036 3.08771L19.0046 3.08673C19.0595 3.08977 19.139 3.08966 19.2614 3.08966C19.8135 3.08978 20.2613 3.53751 20.2614 4.08966C20.2612 4.64173 19.8135 5.08955 19.2614 5.08966C19.1571 5.08966 19.0156 5.09061 18.8932 5.0838L18.8737 5.08185L18.8552 5.08087C18.7419 5.07018 18.663 5.04463 17.3054 5.03986C16.9819 5.0425 16.5792 5.04954 16.1354 5.05646C16.121 5.16715 16.0888 5.27713 16.0358 5.38068L15.9499 5.57306C15.8482 5.80144 15.6463 6.25484 15.2468 7.159C14.447 8.96907 12.8554 12.5775 12.0212 14.4852C11.1899 16.386 11.1636 16.4787 11.0261 16.8065L11.0221 16.8162L11.0173 16.827C10.6746 17.5958 10.4811 18.0132 10.362 18.2635C11.6223 18.0878 13.0519 17.8902 14.5466 17.6766C15.093 17.5987 15.5991 17.9788 15.6774 18.5252C15.7556 19.0719 15.3755 19.5789 14.8288 19.657C12.3821 20.0068 10.1089 20.3201 8.47137 20.5486C6.83363 20.7773 5.85521 20.9173 4.87664 21.0574C4.33008 21.1356 3.82314 20.7563 3.74481 20.2098C3.66663 19.6632 4.04689 19.1563 4.59344 19.0779C5.55016 18.9409 6.50797 18.8037 8.08172 18.5838C8.07733 18.4143 8.11518 18.2415 8.20184 18.0819C8.24309 18.006 8.28157 17.9395 8.31219 17.8856C8.34445 17.8287 8.36538 17.7904 8.38348 17.7567C8.46319 17.5997 8.57397 17.3972 9.19109 16.0125C9.31954 15.7052 9.36827 15.5615 10.1891 13.6844C11.025 11.7729 12.618 8.16126 13.4177 6.35138C13.6802 5.75708 13.8572 5.35554 13.9772 5.08478C13.2432 5.0932 12.5475 5.09904 12.0261 5.09064C10.4948 5.06596 10.155 5.02215 9.89813 4.97052C9.35697 4.86158 9.00634 4.33402 9.11492 3.79279ZM15.9743 5.48517C15.9757 5.48311 15.9818 5.47434 15.988 5.46466C15.996 5.45202 16.0034 5.43886 16.0104 5.42658C16.0126 5.42273 16.0144 5.41841 16.0163 5.41486C16.0031 5.43837 15.9896 5.46241 15.9743 5.48517Z" fill="black"/>
</svg>
