<svg width="24" height="24" viewBox="0 0 24 24" fill="none" xmlns="http://www.w3.org/2000/svg">
<path d="M20.4964 16.3124C21.0088 16.1065 21.5912 16.3547 21.7972 16.8671C22.0028 17.3793 21.7546 17.9618 21.2425 18.1679C21.1318 18.2124 21.0793 18.2319 20.9896 18.2636C20.902 18.2944 20.801 18.3299 20.7288 18.3583L20.7278 18.3573C20.4402 18.4766 20.1335 18.5685 19.1204 18.9325C18.7651 19.0602 18.4611 19.1795 18.2854 19.2684C17.9251 19.4509 17.7337 19.5464 17.2425 19.8309C16.8197 20.0758 16.0174 20.5495 15.5882 20.7948C15.12 21.0624 15.0915 21.0641 14.7249 21.2938C14.4001 21.4974 13.6418 22.003 13.2298 22.2509C12.9493 22.4196 12.71 22.5543 12.513 22.6405C12.4151 22.6833 12.2828 22.7343 12.1331 22.7616C11.9828 22.789 11.7314 22.8073 11.4603 22.6893C11.3536 22.6429 10.7933 22.4206 10.263 22.1581C10.1853 22.1196 10.0902 22.0785 9.929 22.0077C9.77685 21.9409 9.58903 21.8575 9.36553 21.7489C8.46699 21.3124 8.16626 21.145 7.94853 21.0028C7.94848 21.0028 7.92059 20.9854 7.86064 20.9501C7.80139 20.9152 7.71688 20.8668 7.60967 20.8075C7.39411 20.6883 7.08622 20.5255 6.69951 20.3397C6.54095 20.2636 6.41436 20.209 6.21221 20.1181C6.0138 20.0288 5.76813 19.9155 5.40264 19.7372C4.68172 19.3855 3.52132 18.7917 2.94463 18.495C2.65741 18.3472 2.50509 18.2687 2.42412 18.2255C2.38935 18.2069 2.34713 18.184 2.31084 18.162C2.29896 18.1548 2.24092 18.1201 2.17803 18.0673C2.14009 18.0354 2.08304 17.9821 2.02568 17.9071C1.96396 17.8263 1.92865 17.7523 1.92412 17.7431C1.67885 17.2483 1.88059 16.6486 2.37529 16.4032C2.69634 16.2441 3.06105 16.2747 3.34502 16.4501C3.35 16.4527 3.3575 16.456 3.3665 16.4608C3.43198 16.4958 3.57096 16.5681 3.85967 16.7167C4.43745 17.014 5.58027 17.5982 6.27959 17.9393C6.62361 18.1072 6.85067 18.2116 7.0335 18.2938C7.21232 18.3743 7.37753 18.4466 7.56572 18.537C8.40496 18.9402 8.93198 19.2569 9.04228 19.329C9.14133 19.3937 9.33679 19.511 10.2386 19.9491C10.4281 20.0412 10.5894 20.1133 10.7337 20.1766C10.8687 20.236 11.0198 20.3008 11.1497 20.3651C11.4278 20.5028 11.6938 20.6178 11.9056 20.7069C11.9841 20.6632 12.0806 20.6079 12.1985 20.537C12.6233 20.2815 13.2108 19.8831 13.6634 19.5995C14.0738 19.3423 14.2033 19.2824 14.595 19.0585C15.026 18.8121 15.7819 18.3651 16.2405 18.0995C16.7798 17.7872 17.0101 17.6727 17.3821 17.4843C17.6796 17.3336 18.0886 17.1776 18.4446 17.0497C19.6176 16.6282 19.7392 16.6046 19.9739 16.5057L19.9974 16.496C20.1102 16.4517 20.2503 16.403 20.3245 16.3768C20.3962 16.3516 20.4204 16.343 20.4964 16.3124ZM20.6077 10.7997C21.095 10.5398 21.7013 10.7246 21.9612 11.2118C22.2208 11.699 22.0362 12.3054 21.5491 12.5653C21.4668 12.6092 21.4057 12.6411 21.2464 12.7069C21.0951 12.7694 20.9372 12.83 20.8265 12.8778C20.6592 12.9593 20.3113 13.1245 19.5618 13.5556C19.0289 13.8621 18.3549 14.2732 17.1644 14.9677C15.9764 15.6606 14.4483 16.5232 13.6419 17.0028C13.2135 17.2576 12.9843 17.4014 12.8274 17.497C12.7593 17.5385 12.6737 17.5911 12.5911 17.6317C12.4956 17.6787 12.3401 17.7442 12.138 17.7587C12.0243 17.7668 11.9107 17.7572 11.8001 17.7304C11.7084 17.7081 11.635 17.6775 11.5989 17.662C11.5408 17.6371 11.4476 17.5919 11.3831 17.5614C11.1812 17.4658 10.8312 17.3034 9.95342 16.8095C9.07364 16.3144 7.76972 15.5487 6.64971 14.9696C5.5429 14.3974 4.66671 14.0312 3.93779 13.7069C3.20836 13.3824 2.70218 13.132 2.21025 12.8886C1.71531 12.6437 1.51232 12.0437 1.75713 11.5487C2.0021 11.0538 2.60201 10.8516 3.09697 11.0966C3.58503 11.3381 4.06038 11.5728 4.75029 11.8798C5.44091 12.187 6.39441 12.5852 7.56865 13.1923C8.73015 13.7928 10.1055 14.6001 10.9339 15.0663C11.4962 15.3827 11.8203 15.5473 12.0218 15.6464C12.1664 15.5576 12.3612 15.4376 12.6194 15.2841C13.4228 14.8063 15.0229 13.9004 16.1565 13.2391C17.2874 12.5795 18.0444 12.1215 18.5647 11.8222C19.4275 11.3259 19.8211 11.1449 19.972 11.0702L19.9944 11.0595L20.0159 11.0497C20.1447 10.9935 20.3965 10.8943 20.4837 10.8583C20.5357 10.8368 20.5549 10.8274 20.5618 10.8241C20.5686 10.8208 20.5714 10.8191 20.6077 10.7997ZM3.71514 16.8554C3.71518 16.8553 3.70372 16.8305 3.68779 16.8026C3.68481 16.7974 3.67938 16.7923 3.67607 16.787C3.68933 16.8092 3.70346 16.8318 3.71514 16.8554ZM11.6448 1.43836C12.0989 1.26029 12.6237 1.43598 12.8733 1.86903C13.0289 1.92685 13.1996 1.98763 13.3753 2.04579L13.3958 2.05262L13.4163 2.06044C13.5293 2.1034 13.6581 2.14752 13.8392 2.21083C14.0143 2.27206 14.2227 2.34556 14.4681 2.43934C14.7731 2.55597 15.0535 2.68679 16.0579 3.2411C17.0674 3.79826 18.8026 4.78022 19.7142 5.31044C20.165 5.57265 20.4348 5.73539 20.5979 5.84364C20.6856 5.90178 20.9062 6.0396 21.0599 6.28309L21.1214 6.39344L21.1653 6.49989C21.2552 6.75583 21.2548 7.05964 21.1087 7.34266C20.9891 7.57386 20.806 7.7064 20.7991 7.7118C20.7154 7.77789 20.6343 7.82036 20.6126 7.83192C20.5805 7.84903 20.5456 7.86648 20.5267 7.87586C20.4809 7.8985 20.4398 7.91836 20.3919 7.9452C20.2997 7.99685 20.1679 8.08067 20.0091 8.22157C19.861 8.35298 19.6654 8.48033 19.513 8.57997C19.3365 8.69536 19.1316 8.82733 18.8792 9.00282C18.5823 9.20924 18.2216 9.49018 17.055 10.1552C15.9217 10.8011 14.022 11.8152 12.9456 12.2919C12.4155 12.5266 11.9984 12.6728 11.6448 12.7167C11.4495 12.7409 11.2553 12.7369 11.0618 12.6923C10.8754 12.6492 10.7356 12.5768 10.68 12.5487C10.4368 12.4259 10.2058 12.2896 9.83232 12.0331C9.45433 11.7734 9.00383 11.4444 8.51103 11.1337C7.98717 10.8034 7.56152 10.5781 6.9749 10.2235C6.4168 9.88614 5.98107 9.59163 5.29229 9.21083C4.60548 8.83114 3.73115 8.40212 3.23955 8.15516C3.13589 8.10308 2.99048 8.03059 2.87334 7.95594C2.81327 7.91764 2.71494 7.84983 2.61943 7.75184C2.52557 7.65544 2.36889 7.46158 2.31865 7.16883C2.20655 6.5134 2.70599 6.14033 2.76494 6.09461C2.8988 5.99075 3.0607 5.90329 3.17705 5.84169C3.69627 5.5668 4.72548 5.08818 5.26689 4.84071C5.81439 4.59046 5.87696 4.57007 6.4417 4.2704C7.03191 3.95721 8.0908 3.3803 8.65459 3.07606C9.2516 2.7539 9.24322 2.76573 9.43389 2.66004C9.79851 2.45793 10.2863 2.18454 10.8401 1.87489C11.0257 1.60104 11.3296 1.44584 11.6448 1.43836ZM10.4026 4.40907C10.2984 4.46683 10.2313 4.50276 10.1292 4.55653C10.0276 4.61004 9.87982 4.68741 9.60478 4.83583C9.05493 5.13254 7.97737 5.71958 7.3792 6.037C6.75563 6.36789 6.64253 6.41015 6.09795 6.65907C5.8984 6.75028 5.64348 6.86921 5.37725 6.99403C5.67493 7.14722 5.98137 7.30731 6.25908 7.46083C6.98879 7.86426 7.53796 8.22777 8.00908 8.51258C8.45177 8.78018 9.07178 9.12344 9.57744 9.44227C10.114 9.78063 10.6466 10.1659 10.9651 10.3847C11.2142 10.5557 11.3626 10.6439 11.4817 10.7089C11.5111 10.701 11.55 10.6942 11.597 10.6786C11.7226 10.6368 11.8969 10.5687 12.136 10.4628C13.1186 10.0276 14.9485 9.05317 16.0647 8.41688C17.147 7.79998 17.4438 7.56453 17.7376 7.36024C18.0186 7.16486 18.2509 7.01558 18.4183 6.90614C18.4274 6.90018 18.436 6.89321 18.4446 6.88758C17.5042 6.34485 15.9983 5.49275 15.0911 4.99208C14.0906 4.43989 13.9168 4.36968 13.7542 4.30751C13.5352 4.22379 13.3474 4.15739 13.179 4.09852C13.0314 4.04694 12.8818 3.99476 12.7464 3.94422L12.388 3.82118C12.1958 3.75283 12.0069 3.6802 11.8343 3.61024C11.2723 3.92446 10.7742 4.2031 10.4026 4.40907Z" fill="black"/>
</svg>
