<svg width="24" height="24" viewBox="0 0 24 24" fill="none" xmlns="http://www.w3.org/2000/svg">
<path d="M6.89646 5.87324C7.23554 5.87282 7.93938 5.86502 8.36814 5.90937C8.90272 5.96471 9.16908 6.03903 9.41794 6.10957C9.94906 6.2602 10.2577 6.81277 10.1074 7.34394C9.95681 7.87529 9.4034 8.18397 8.87205 8.0334C8.76277 8.00242 8.6879 7.98143 8.5908 7.96113C8.49438 7.94098 8.36272 7.9194 8.16209 7.89863C7.86718 7.86816 7.31 7.87273 6.89939 7.87324C6.57679 7.87364 6.51533 7.88202 6.16209 7.92011C5.78812 7.96044 5.17981 8.02397 4.73826 8.08515C4.04938 8.18063 3.78786 8.2721 3.76462 8.28047C3.69197 8.30662 3.45306 8.39196 3.07517 8.59199C2.84629 8.71316 2.75605 8.81572 2.71482 8.87129C2.65444 8.95276 2.64631 8.98952 2.54783 9.19746C2.42085 9.46563 2.29422 9.8777 2.23923 10.2863C2.20165 10.5657 2.18542 11.0749 2.19627 11.5754C2.2061 12.0284 2.25163 12.3984 2.35447 12.8C2.46207 13.2201 2.63594 13.6814 2.7783 14.0041C2.88525 14.2465 2.96706 14.391 3.02048 14.4738C3.06919 14.5493 3.09553 14.5753 3.10056 14.5803C3.19115 14.6707 3.43466 14.8416 3.85642 15.0881C3.94608 15.1405 4.0461 15.1949 4.60545 15.3566C5.16106 15.5173 6.07127 15.7483 6.8115 15.8713C7.53075 15.9907 8.07085 16.002 8.45115 15.9894C8.81043 15.9775 8.95635 15.9469 9.16502 15.8742C9.68638 15.6928 10.2567 15.9682 10.4385 16.4894C10.6202 17.011 10.3437 17.5811 9.82224 17.7629C9.38277 17.916 9.03019 17.9715 8.51658 17.9885C8.02354 18.0048 7.35086 17.9888 6.48435 17.8449C5.63857 17.7044 4.64624 17.4501 4.04978 17.2775C3.4571 17.1061 3.15922 16.9973 2.84666 16.8146C2.44276 16.5786 1.98507 16.2922 1.68845 15.9963C1.46681 15.7751 1.22834 15.4443 0.949195 14.8117C0.775731 14.4185 0.558948 13.8505 0.416969 13.2961C0.27026 12.7231 0.209836 12.1989 0.197242 11.6193C0.185694 11.0873 0.198307 10.4547 0.256812 10.0197C0.337325 9.42128 0.519821 8.80839 0.741187 8.34101C0.772876 8.27386 0.895962 7.96638 1.10837 7.67988C1.34086 7.36644 1.66774 7.07422 2.13962 6.82441C2.62551 6.56722 2.95703 6.44574 3.08787 6.39863C3.2744 6.3315 3.67656 6.21369 4.46287 6.10468C4.94244 6.03822 5.58987 5.9695 5.94822 5.93086C6.32707 5.89001 6.46947 5.87378 6.89646 5.87324ZM15.9961 6.0998C16.5875 6.08289 17.5664 6.06054 18.3789 6.09785C19.2089 6.13598 19.83 6.23563 20.2519 6.32246C20.9434 6.46477 21.3604 6.67888 21.7197 6.90351C22.0167 7.08916 22.2604 7.35246 22.4541 7.59687C22.6556 7.85122 22.8529 8.14993 23.0459 8.46015C23.3123 8.88858 23.448 9.37284 23.5058 9.55195C23.5492 9.68639 23.5941 9.8349 23.623 10.0344C23.6493 10.2157 23.6589 10.4157 23.664 10.6623C23.6744 11.1588 23.6676 12.0439 23.5791 12.8039C23.4875 13.5902 23.312 14.1937 23.1553 14.6486C22.8976 15.3961 22.6369 15.8839 22.3457 16.218C21.9512 16.6702 21.3798 16.9828 21.0156 17.174C20.6681 17.3563 20.347 17.4037 19.8672 17.4719C19.3426 17.5463 18.4531 17.651 17.7451 17.7053C17.0254 17.7605 16.5182 17.7604 16.1748 17.7512C15.4374 17.7314 15.1338 17.6404 14.9443 17.5969C14.4393 17.4811 14.2318 17.0717 14.1885 16.9846C14.0685 16.7437 14.0635 16.4873 14.0566 16.3752C14.0447 16.1816 14.0292 15.8353 14.0058 15.2004C13.9868 14.6839 13.9618 13.9639 13.9355 13.2033C12.2446 13.1999 10.161 13.183 9.01951 13.1682C8.3539 13.1595 7.99976 13.153 7.80466 13.1467C7.62458 13.1409 7.51894 13.1351 7.39841 13.1096C6.85841 12.9951 6.51288 12.464 6.62693 11.924C6.73658 11.4069 7.22753 11.0704 7.74314 11.1428V11.1418C7.7495 11.1423 7.7812 11.1448 7.86912 11.1477C8.04267 11.1532 8.37928 11.1595 9.04587 11.1682C10.1679 11.1828 12.2 11.1994 13.8662 11.2033C13.852 10.7937 13.8392 10.4188 13.8281 10.1105C13.778 8.72265 13.7564 8.66038 13.7519 8.6291L13.75 8.61543C13.7187 8.37146 13.7068 8.02356 13.7304 7.44648V7.43769L13.7314 7.4289C13.7378 7.31924 13.7403 7.27957 13.7431 7.23945C13.7681 6.88639 13.9743 6.5905 14.2636 6.43281C14.4316 6.26589 14.658 6.15655 14.9131 6.14277C15.1526 6.12993 15.3942 6.11701 15.9961 6.0998ZM16.0527 8.09882C15.9255 8.10246 15.8155 8.10827 15.7187 8.11152C15.7213 8.24447 15.7282 8.32001 15.7334 8.36054C15.7546 8.50963 15.779 8.7049 15.8271 10.0383C15.839 10.3665 15.8521 10.7655 15.8672 11.1994C16.9044 11.1875 17.542 11.1637 18.1972 11.1389C18.7489 11.1182 19.2134 11.549 19.2344 12.1008C19.2548 12.6523 18.824 13.1169 18.2724 13.1379C17.6157 13.1628 16.9701 13.1862 15.9375 13.1984C15.9628 13.9313 15.9863 14.6218 16.0049 15.1262C16.0141 15.3769 16.0236 15.5789 16.0302 15.7414C16.0892 15.7447 16.1552 15.7502 16.2285 15.7521C16.509 15.7597 16.9472 15.7606 17.5928 15.7111C18.2507 15.6607 19.0961 15.5609 19.5859 15.4914C19.844 15.4548 19.9661 15.4341 20.039 15.4172C20.0542 15.4137 20.0644 15.4111 20.0703 15.4094C20.0753 15.4079 20.0776 15.4066 20.0781 15.4064V15.4074C20.0786 15.4071 20.0808 15.4052 20.0859 15.4025C20.4714 15.2002 20.7213 15.0383 20.8388 14.9035C20.8895 14.8452 21.0464 14.6293 21.2646 13.9963C21.39 13.6326 21.5226 13.1747 21.5928 12.5725C21.6659 11.9438 21.6736 11.1625 21.664 10.7043C21.6592 10.4743 21.6514 10.3758 21.6435 10.3215C21.6384 10.2858 21.6329 10.2604 21.6025 10.1662C21.5575 10.0267 21.5275 9.92305 21.4814 9.8C21.438 9.68397 21.3935 9.58959 21.3476 9.51582C21.1699 9.23009 21.0188 9.00582 20.8867 8.83906C20.8216 8.75686 20.7673 8.69736 20.7246 8.65547C20.6834 8.61509 20.662 8.6001 20.6601 8.59882C20.46 8.47373 20.2629 8.36669 19.8486 8.28144C19.5151 8.21282 18.9988 8.12859 18.2871 8.0959C17.5575 8.0624 16.6459 8.08187 16.0527 8.09882Z" fill="black"/>
</svg>
