<svg width="24" height="24" viewBox="0 0 24 24" fill="none" xmlns="http://www.w3.org/2000/svg">
<path d="M19.459 9.42187C20.0084 9.36688 20.4985 9.76799 20.5537 10.3174C20.6087 10.8668 20.2077 11.357 19.6582 11.4121C18.8177 11.4964 18.0058 11.5795 17.5576 11.6221C17.0968 11.6658 16.995 11.6693 14.8564 11.8193C12.7068 11.9701 8.60613 12.2608 6.48145 12.4062C4.37523 12.5504 4.18779 12.5537 4 12.5537C3.44772 12.5537 3 12.106 3 11.5537C3.00019 11.0016 3.44783 10.5537 4 10.5537C4.10186 10.5537 4.20411 10.5577 6.34473 10.4111C8.46727 10.2658 12.5636 9.97524 14.7168 9.82421C16.8794 9.67251 16.9402 9.67151 17.3682 9.63085C17.8094 9.58893 18.6109 9.5069 19.459 9.42187Z" fill="black"/>
</svg>
