<svg width="24" height="24" viewBox="0 0 24 24" fill="none" xmlns="http://www.w3.org/2000/svg">
<path d="M12.2442 9.58104C12.3097 9.58703 12.6794 9.59306 13.0313 9.78612L13.1807 9.88183L13.4561 10.0947C13.4913 10.1239 13.5314 10.1584 13.5684 10.1933C13.5861 10.21 13.6143 10.2376 13.6446 10.2715C13.6598 10.2885 13.6851 10.3168 13.712 10.3535C13.7217 10.3668 13.7409 10.3944 13.7637 10.4326L13.837 10.5791L13.8692 10.6758C13.9316 10.8949 13.9145 11.1211 13.834 11.3213C13.903 11.5297 13.9463 11.791 13.9454 12.0732C13.9451 12.1722 13.9507 12.4767 13.793 12.792C13.6503 13.0773 13.4274 13.385 13.0967 13.6064C12.9656 13.6942 12.8305 13.767 12.671 13.835C12.5598 13.8823 12.3641 13.9619 12.1729 14.0078C12.0995 14.0255 11.6274 14.1773 11.1524 14.0215C11.0524 13.9886 10.916 13.9401 10.7803 13.8711C10.6499 13.8048 10.4532 13.6862 10.2901 13.4814C10.1232 13.2717 9.93864 12.9653 9.89557 12.499C9.87739 12.3015 9.87242 12.0371 9.87897 11.8359C9.88621 11.6138 9.90797 11.4484 9.93854 11.2969C9.95798 11.2005 9.99497 11.0175 10.0811 10.8271L10.1524 10.6767C10.2417 10.503 10.3872 10.2691 10.6231 10.081L10.7374 9.99218C10.8831 9.88256 11.1186 9.72624 11.3965 9.65136L11.5645 9.61229C11.7485 9.57704 11.979 9.55631 12.2442 9.58104ZM5.25201 9.93944C5.47658 9.96222 5.67837 10.0606 5.83404 10.207C5.99435 10.2422 6.16987 10.2985 6.34576 10.3955L6.45123 10.459L6.57428 10.541C6.71315 10.6383 6.89215 10.7811 7.04693 10.9756C7.08644 11.0252 7.35663 11.3219 7.46881 11.7363L7.50592 11.9209L7.5235 12.1182C7.53211 12.3884 7.48121 12.8439 7.07721 13.1904C6.84695 13.3877 6.53708 13.5859 6.10162 13.71C5.95307 13.7523 5.62303 13.8474 5.33502 13.8691C5.07538 13.8887 4.57123 13.9215 4.1192 13.6543C3.94445 13.551 3.66443 13.3663 3.46588 13.0322C3.37885 12.8858 3.16595 12.524 3.15143 12.0752C3.14763 11.9585 3.11464 11.5441 3.34674 11.1308L3.45416 10.9453C3.50117 10.8686 3.55914 10.7817 3.62506 10.6982C3.76414 10.5221 3.98656 10.299 4.32233 10.168L4.70221 10.0283C4.74804 10.0127 4.78687 9.99979 4.81744 9.99022C4.83219 9.98561 4.84858 9.9801 4.86432 9.97558C4.87137 9.97355 4.88432 9.96968 4.89947 9.96581C4.90647 9.96403 4.92292 9.96018 4.94244 9.95604C4.95214 9.95401 4.97056 9.95085 4.99322 9.94726C5.00465 9.94543 5.06892 9.93456 5.15045 9.93456L5.25201 9.93944ZM18.9151 9.92968C19.1548 9.92022 19.4015 9.9391 19.626 9.96679C20.1674 10.0337 20.553 10.5214 20.4971 11.0615L20.6055 11.1894L20.7481 11.4014C20.7984 11.4869 20.8525 11.5931 20.8926 11.7119L20.9278 11.835L20.9512 11.9404C20.9811 12.095 21.0138 12.3855 20.9063 12.7012C20.853 12.8576 20.697 13.3003 20.2706 13.5625C20.0182 13.7176 19.6888 13.8326 19.2911 13.8555C19.1059 13.8661 18.8984 13.8601 18.712 13.834C18.5373 13.8095 18.3547 13.7668 18.1749 13.6885C18.0432 13.6311 17.7416 13.5008 17.4971 13.2441C17.417 13.16 17.2209 12.9539 17.1143 12.6475C17.0729 12.5284 16.9773 12.2439 17.0313 11.8848C17.06 11.6942 17.127 11.3506 17.3409 10.9961C17.4317 10.8456 17.591 10.5803 17.8057 10.3838C17.8876 10.3088 18.1896 10.0141 18.6788 9.94921L18.9151 9.92968Z" fill="black"/>
</svg>
