<svg width="24" height="24" viewBox="0 0 24 24" fill="none" xmlns="http://www.w3.org/2000/svg">
<path d="M11.9293 17.0536L12.0397 17.0702L12.3522 17.1375C12.392 17.1474 12.4366 17.159 12.4781 17.1717C12.4972 17.1776 12.5308 17.1885 12.568 17.203C12.5859 17.21 12.6198 17.2239 12.6598 17.244C12.6727 17.2505 12.7994 17.3105 12.9215 17.4325C13.0077 17.5188 13.0736 17.6178 13.1217 17.7225C13.1227 17.723 13.1245 17.7231 13.1256 17.7235L13.2574 17.7987L13.3277 17.8446L13.3883 17.9002C13.4546 17.9613 13.7296 18.201 13.8531 18.6307C13.9024 18.8024 13.9613 19.0179 13.9898 19.2245C14.0122 19.3868 14.0567 19.7862 13.8356 20.1659C13.7923 20.24 13.7156 20.3572 13.5856 20.4706C13.4617 20.5785 13.3297 20.6484 13.2106 20.6961C12.9537 20.799 12.5667 20.934 12.0631 20.953C11.834 20.9616 11.6085 20.9692 11.4244 20.9667C11.3325 20.9653 11.2288 20.9616 11.1285 20.9501C11.054 20.9415 10.8714 20.9179 10.6852 20.827C10.58 20.7756 10.3879 20.6759 10.2106 20.5116C10.0225 20.3372 9.80528 20.0458 9.76524 19.6307C9.74673 19.4384 9.7129 18.9944 10.0201 18.4725C10.1325 18.2817 10.2556 18.079 10.3785 17.9051C10.482 17.7588 10.6632 17.516 10.9147 17.3514L11.0328 17.2743C11.2023 17.1717 11.5308 17.0132 11.9293 17.0536ZM12.3277 10.2176C12.5298 10.2262 12.7551 10.261 12.9869 10.3905L13.0865 10.452L13.1412 10.4891L13.19 10.5321C13.2833 10.6148 13.404 10.7332 13.5143 10.8944L13.6197 11.0702L13.7047 11.2459C13.7965 11.4473 13.9038 11.7236 13.9801 12.036C13.9965 12.1032 14.0367 12.2608 14.0475 12.4208C14.0603 12.6124 14.0412 12.9151 13.8356 13.2069C13.5868 13.5593 13.2023 13.7729 12.7818 13.8817C12.5951 13.93 12.3707 13.9852 12.1529 14.0194C11.9516 14.0509 11.6507 14.0831 11.3453 14.0135C11.2493 13.9916 11.0894 13.9522 10.9303 13.8807C10.7768 13.8117 10.4997 13.6588 10.3229 13.3358C10.1677 13.0521 10.025 12.6185 10.1197 12.1014L10.1754 11.8729C10.2489 11.6267 10.3779 11.3337 10.5738 11.0497C10.6088 10.999 10.6969 10.8657 10.7926 10.7586C10.8839 10.6566 11.0624 10.4842 11.3385 10.3934C11.4856 10.2965 11.6603 10.2367 11.8492 10.2293C11.9949 10.2238 12.1696 10.2168 12.2848 10.2167H12.3063L12.3277 10.2176ZM11.6471 12.2811C11.6497 12.2818 11.6532 12.2815 11.6559 12.2821C11.6508 12.2808 11.6453 12.2795 11.6402 12.2782C11.6426 12.2788 11.6449 12.2804 11.6471 12.2811ZM11.6529 3.05454C12.0583 3.0098 12.5049 3.05984 12.7037 3.11021C12.9214 3.16544 13.1029 3.28884 13.234 3.45103L13.2672 3.46372L13.3941 3.53013C13.5095 3.59875 13.6441 3.70234 13.7652 3.8563L13.8365 3.95493L13.9195 4.0936C14.1089 4.43854 14.2505 4.9258 14.1314 5.56919C14.1066 5.70391 14.0167 6.2972 13.4566 6.64341C13.2263 6.7857 12.8565 6.97333 12.3639 6.98032C12.1003 6.98406 11.6721 6.98918 11.3307 6.88364C11.2028 6.84411 10.7978 6.72743 10.5055 6.36704C10.4447 6.2921 10.3648 6.18796 10.2965 6.06431C10.2312 5.94618 10.14 5.74563 10.1266 5.49107C10.1248 5.45778 10.1099 5.28553 10.1412 5.0731C10.1733 4.85631 10.2477 4.62172 10.3814 4.3729C10.5041 4.14479 10.6242 3.92219 10.7242 3.75669C10.7724 3.67696 10.8359 3.57631 10.9078 3.48618C10.9427 3.44246 11.0025 3.37109 11.0846 3.30161C11.1431 3.25219 11.3435 3.08886 11.6529 3.05454Z" fill="black"/>
</svg>
