<svg width="24" height="24" viewBox="0 0 24 24" fill="none" xmlns="http://www.w3.org/2000/svg">
<path d="M4.46851 4.4209C4.67271 4.25058 4.99403 4.11297 5.37378 4.18848C5.6605 4.24566 5.85674 4.4042 5.94507 4.48145C6.13363 4.64645 6.32714 4.89633 6.53198 5.18262C6.96668 5.79022 7.71001 6.94367 8.09546 7.54883C8.29181 7.85711 8.39747 8.02665 8.46558 8.13574C8.53355 8.24462 8.55409 8.27689 8.58862 8.32715C8.90103 8.78217 8.78557 9.40498 8.33081 9.71777C7.87576 10.0305 7.25306 9.91484 6.94019 9.45996C6.87754 9.3688 6.83492 9.30201 6.76831 9.19531C6.70166 9.08854 6.5998 8.92424 6.40796 8.62305C6.24746 8.37107 6.03258 8.03642 5.80737 7.69141C5.69367 8.07976 5.53533 8.62227 5.34058 9.2793C5.248 9.59156 5.17151 9.80491 5.11597 9.96582C5.06234 10.1212 5.02999 10.2227 4.99976 10.3594C4.85172 11.0288 4.80025 11.7963 4.8103 12.3428C4.81549 12.6169 4.93869 13.1608 5.198 14.1904C5.28771 14.5464 5.40421 14.835 5.64624 15.3008C6.23185 16.4276 6.77179 17.127 6.94116 17.2979C7.14559 17.504 7.32621 17.6591 8.67554 18.4277C9.06694 18.6506 9.29955 18.7366 9.47729 18.7842C9.70283 18.8445 9.8316 18.8506 10.2361 18.9229C10.5736 18.9831 11.2803 19.0336 12.1023 19.0674C13.7029 19.1331 14.5863 19.063 14.7136 19.0518L14.7253 19.0508H14.7371C14.8828 19.0414 14.9631 19.0397 15.0652 19.0283C15.1475 19.0191 15.2291 19.0032 15.3611 18.9766C15.9023 18.8673 16.4304 19.2176 16.5398 19.7588C16.6487 20.2997 16.2984 20.827 15.7576 20.9365C15.6363 20.961 15.4711 20.9951 15.2878 21.0156C15.1243 21.0339 14.9261 21.042 14.865 21.0459L14.864 21.0449C14.6088 21.0663 13.6487 21.1324 12.0193 21.0654C11.2164 21.0324 10.3766 20.9794 9.88452 20.8916C9.65553 20.8507 9.29098 20.8054 8.95972 20.7168C8.58007 20.6151 8.18811 20.4524 7.6853 20.166C6.35486 19.4082 5.94324 19.1326 5.52026 18.7061C5.15369 18.3362 4.50454 17.4421 3.87085 16.2227C3.58397 15.6705 3.39808 15.2325 3.25854 14.6787C3.02831 13.7646 2.82182 12.9425 2.81128 12.3799C2.79897 11.7106 2.85881 10.7815 3.04761 9.92773C3.10265 9.67894 3.16371 9.49206 3.22534 9.31348C3.28507 9.14042 3.34611 8.97224 3.42358 8.71094C3.46189 8.58172 3.49821 8.45588 3.53394 8.33496C3.34529 8.55373 3.18415 8.73856 3.05444 8.89062C2.91843 9.05008 2.81581 9.17165 2.7478 9.25293C2.71354 9.29388 2.68914 9.32295 2.67456 9.34082C2.66935 9.3472 2.66661 9.35052 2.66577 9.35156C2.66642 9.35073 2.67184 9.34492 2.67847 9.33594C2.68184 9.33136 2.68924 9.32001 2.69897 9.30566C2.69951 9.30488 2.70077 9.30153 2.70386 9.29688C2.43068 9.71089 1.88632 9.86796 1.42944 9.64355C0.933897 9.39992 0.729858 8.80028 0.973389 8.30469L1.04468 8.18262C1.05523 8.16708 1.06443 8.15476 1.06909 8.14844C1.0789 8.13515 1.08762 8.12344 1.09253 8.11719C1.10324 8.10354 1.11517 8.08912 1.12573 8.07617C1.14782 8.04911 1.1774 8.01302 1.21362 7.96973C1.28705 7.88196 1.39354 7.75508 1.53198 7.59277C1.80918 7.26779 2.21765 6.79428 2.74878 6.18555C3.65321 5.14899 4.24552 4.60696 4.46851 4.4209ZM11.1648 2.39746C11.7297 2.3975 12.6778 2.55597 13.2937 2.70996C13.8268 2.8433 14.6627 3.14102 15.7488 3.69727C16.4022 4.03196 17.2045 4.51187 17.7966 4.91016C18.8245 5.60157 19.2642 6.12422 19.4871 6.39062C19.727 6.67737 20.1442 7.16567 20.5437 7.72363C20.9042 8.22725 21.0682 8.78041 21.2058 9.49609C21.4409 10.7189 21.2413 11.926 21.1179 12.6318C20.9375 13.6631 20.594 14.191 20.1208 14.8633C20.2797 14.808 20.3928 14.7682 20.4509 14.7432L20.4607 14.7393L20.4695 14.7354C20.5536 14.7011 20.6226 14.6751 20.6619 14.6602C20.6869 14.6507 20.6986 14.6463 20.7029 14.6445C21.2001 14.4041 21.7984 14.6122 22.0388 15.1094C22.279 15.6065 22.071 16.2039 21.574 16.4443C21.493 16.4835 21.4191 16.512 21.3708 16.5303C21.3187 16.55 21.2797 16.5643 21.2244 16.5869L21.2234 16.5859C20.9983 16.6805 20.5328 16.8382 20.0769 16.9932C19.5742 17.164 19.0138 17.356 18.5544 17.5303L18.5359 17.5371L18.5183 17.543C18.4107 17.5791 18.146 17.6609 17.8298 17.5977C17.4472 17.521 17.1773 17.2769 17.0203 17.0068C16.898 16.7964 16.8385 16.5552 16.7996 16.3994C16.7596 16.2394 16.6861 15.9234 16.6072 15.6016C16.4299 14.879 16.1304 13.7337 15.9734 13.1289C15.8219 12.5451 15.8034 12.4656 15.7878 12.3857C15.6822 11.8438 16.036 11.3188 16.5779 11.2129C17.1199 11.1072 17.645 11.4609 17.7507 12.0029C17.7516 12.0078 17.753 12.0262 17.9089 12.627C17.9976 12.9687 18.1319 13.501 18.2683 14.0312C18.2864 14.0034 18.3057 13.9742 18.3259 13.9443L18.3318 13.9355L18.3376 13.9277C18.8778 13.162 19.0312 12.9503 19.1472 12.2871C19.2711 11.5785 19.4006 10.6994 19.2419 9.87402C19.1202 9.24111 19.022 9.03445 18.9177 8.88867C18.5713 8.40476 18.2079 7.97867 17.9529 7.67383C17.8105 7.50368 17.507 7.12536 16.6804 6.56934C16.1466 6.21026 15.4121 5.77226 14.8367 5.47754C13.8528 4.97363 13.1613 4.73769 12.8083 4.64941C12.2659 4.51379 11.497 4.39752 11.1648 4.39746C10.6125 4.39746 10.1648 3.94975 10.1648 3.39746C10.165 2.84539 10.6127 2.39746 11.1648 2.39746Z" fill="black"/>
</svg>
