<svg width="24" height="24" viewBox="0 0 24 24" fill="none" xmlns="http://www.w3.org/2000/svg">
<path d="M7.75428 1.20214C7.91032 0.672744 8.46587 0.369743 8.99549 0.525387C9.86098 0.779801 10.2018 1.02367 10.7035 1.33398C11.1198 1.59144 11.4851 1.78454 11.7767 1.93945C11.9138 2.01225 12.0604 2.08974 12.1762 2.16015C12.2338 2.1952 12.3111 2.24454 12.3861 2.30468C12.4342 2.34323 12.6083 2.48238 12.7182 2.71972C13.1507 3.65483 12.6961 4.57299 12.4301 5.02539C12.2746 5.28975 12.1031 5.52656 11.9838 5.69043C11.9194 5.77884 11.8768 5.83724 11.8451 5.88378C11.843 5.88695 11.8401 5.8899 11.8383 5.89257C11.6912 6.26725 11.5834 6.58555 11.5453 6.7998C11.5362 6.88484 11.5203 7.02611 11.4818 7.18847C11.4393 7.36813 11.3716 7.56627 11.3246 7.70507C11.1475 8.22809 10.5791 8.50903 10.056 8.33203C9.53311 8.15476 9.25293 7.58648 9.43007 7.06347C9.48668 6.89629 9.5192 6.79643 9.53553 6.72753C9.54785 6.67548 9.55038 6.64551 9.56288 6.5332L9.56678 6.50488L9.57167 6.47656C9.64886 6.02125 9.84268 5.50164 9.99842 5.10839L10.0482 4.99804C10.1011 4.8932 10.1596 4.80603 10.1918 4.75878C10.246 4.67918 10.312 4.58895 10.3676 4.51269C10.3705 4.50868 10.3725 4.504 10.3754 4.5C10.2637 4.52588 10.1038 4.56023 9.8451 4.60839L9.83632 4.60937C9.15004 4.73119 8.52365 4.86253 8.03163 4.98535C7.78542 5.04682 7.5804 5.10455 7.42323 5.15527C7.34497 5.18054 7.28312 5.20273 7.23768 5.2207C7.19097 5.23918 7.17396 5.24787 7.17714 5.24609L7.17225 5.24902C6.83729 5.43103 6.50776 5.64663 6.17421 5.95898C5.58924 6.50675 4.90623 7.12164 4.47499 7.8916C4.17556 8.42607 3.92202 8.69906 3.78553 9.47754C3.61619 10.4435 3.56205 10.9195 3.5912 11.8018C3.60285 12.1545 3.60515 12.4983 3.62245 12.8662C3.63989 13.2371 3.66858 13.5046 3.70448 13.6504C3.79015 13.9976 3.84318 14.2789 3.90565 14.5762C3.9693 14.879 4.05257 15.2518 4.21034 15.8428C4.43158 16.6715 4.56896 17.0792 5.06092 17.5732C5.71593 18.231 6.25889 18.7517 6.66835 18.9795C6.85538 19.0835 6.99748 19.167 7.10292 19.2285C7.21821 19.2958 7.26283 19.3208 7.28944 19.334C7.65952 19.5163 8.11384 19.7154 8.63807 19.8193C9.60157 20.0103 9.90759 20.0979 10.5101 20.168C11.1054 20.2371 11.6555 20.3076 12.1478 20.3516C12.6553 20.3968 13.0001 20.4029 13.1957 20.376C13.6452 20.3138 14.0237 20.2759 15.6791 19.5059C16.3895 19.1754 16.5851 19.0394 17.1459 18.6455C17.4392 18.4394 17.9888 18.0916 18.3178 17.8672C18.7263 17.5885 19.0485 17.3395 19.2426 17.1279C19.5191 16.8263 19.7119 16.5219 19.9555 16.0166C20.121 15.673 20.242 15.3608 20.641 14.0049C20.7269 13.713 20.8588 13.1975 20.9086 12.1611C20.9372 11.5663 20.9424 10.9112 20.8969 10.4082C20.8086 9.43487 20.6765 8.69001 20.4183 8.11035C20.1529 7.51429 20.0472 7.34998 19.9779 7.27246C19.2191 6.42367 19.0295 6.21603 18.7621 6.04492C18.2972 5.74723 18.1619 5.12818 18.4594 4.66308C18.7571 4.1982 19.3751 4.06293 19.8402 4.36035C20.3957 4.71581 20.7974 5.18805 21.4691 5.93945C21.7774 6.28425 21.9945 6.73338 22.2455 7.29687C22.6441 8.19204 22.796 9.21203 22.8881 10.2275C22.9458 10.8642 22.937 11.6242 22.9066 12.2568C22.8491 13.4542 22.6901 14.127 22.5599 14.5693C22.1603 15.9277 22.0005 16.3798 21.7572 16.8848C21.4615 17.4985 21.1678 17.9869 20.7162 18.4795C20.3549 18.8734 19.8666 19.2307 19.4447 19.5186C18.9431 19.8607 18.6401 20.04 18.2953 20.2822C17.6755 20.7177 17.3747 20.9226 16.5219 21.3193C14.7404 22.148 14.1682 22.2608 13.4701 22.3574C13.028 22.4185 12.4821 22.3894 11.9701 22.3437C11.4423 22.2966 10.8412 22.2195 10.2797 22.1543C9.571 22.072 9.10073 21.9499 8.2494 21.7812C7.47285 21.6273 6.83556 21.3402 6.40467 21.1279C6.30133 21.077 6.18958 21.0118 6.09413 20.9561C5.98823 20.8942 5.86233 20.8202 5.69569 20.7275C4.98619 20.3328 4.22934 19.5722 3.64393 18.9844C2.76177 18.0985 2.51724 17.2528 2.2787 16.3594C2.11078 15.7304 2.01898 15.3221 1.94862 14.9873C1.87707 14.6468 1.83761 14.432 1.76307 14.1299C1.67562 13.7754 1.6429 13.3326 1.62538 12.96C1.60772 12.5843 1.60153 12.1502 1.59217 11.8672C1.55699 10.8021 1.63195 10.1805 1.81581 9.13183C2.02754 7.92436 2.53793 7.2584 2.73085 6.91406C3.34426 5.81889 4.28784 4.98518 4.80702 4.49902C5.29281 4.04411 5.76963 3.73553 6.21132 3.49511L6.33924 3.43066C6.65595 3.28387 7.10572 3.15492 7.54628 3.04492C7.99735 2.9323 8.53408 2.81807 9.11073 2.70996C8.92796 2.61161 8.74488 2.5356 8.43104 2.44336C7.90139 2.28749 7.5986 1.7319 7.75428 1.20214Z" fill="black"/>
</svg>
