<svg width="24" height="24" viewBox="0 0 24 24" fill="none" xmlns="http://www.w3.org/2000/svg">
<path d="M11.1416 2.01074C11.7544 1.99379 12.7117 1.98421 13.4141 2.08594C13.8994 2.15623 14.2374 2.21465 14.46 2.25684C14.5707 2.27784 14.6557 2.29494 14.7168 2.30859C14.7467 2.31528 14.7741 2.32213 14.7979 2.32812C14.8092 2.33098 14.8253 2.33513 14.8418 2.33984C14.8498 2.34212 14.8643 2.34618 14.8809 2.35156C14.8894 2.35434 14.904 2.35895 14.9209 2.36523L15.0205 2.40918L15.1094 2.45898C15.1687 2.49659 15.2227 2.54033 15.2715 2.58789C15.4199 2.66178 15.5114 2.70944 15.6006 2.76367C15.6421 2.78892 15.6801 2.81371 15.7041 2.8291C15.7268 2.84368 15.7419 2.85342 15.7549 2.86133C16.0959 3.05736 16.3361 3.21089 16.6709 3.35059C16.926 3.45702 17.2166 3.5844 17.4873 3.73047C17.7483 3.87136 18.054 4.06275 18.2988 4.32031C18.6734 4.71439 19.1401 5.32524 19.4062 6.18848C19.5015 6.49749 19.6594 7.03834 19.7598 7.73926C19.8585 8.42931 19.8976 9.23202 19.8848 9.94824C19.8719 10.6705 19.8084 11.3082 19.7041 11.8779C19.5995 12.4492 19.4575 12.9391 19.2734 13.4023C19.0879 13.8692 18.8652 14.2975 18.5371 14.7705C18.2213 15.2258 17.821 15.705 17.4805 16.0732C17.1876 16.3898 16.936 16.6264 16.6982 16.832C16.7565 16.9009 16.8216 16.981 16.9014 17.0713C17.2168 17.428 17.7185 17.9662 18.3398 18.5703C18.963 19.1762 19.6942 19.8355 20.5449 20.5977C20.9557 20.9662 20.9903 21.5986 20.6221 22.0098C20.2536 22.421 19.6213 22.4552 19.21 22.0869C18.3634 21.3284 17.6031 20.6435 16.9463 20.0049C16.288 19.3648 15.7514 18.7901 15.4033 18.3965C15.2297 18.2001 15.1027 18.0488 15.001 17.9219C14.4758 18.1852 13.8423 18.4792 13.3828 18.667C12.7461 18.9272 12.3777 19.0116 11.7471 19.0469C11.1882 19.0781 10.3983 19.0768 9.53516 19.001C8.69148 18.9268 7.78556 18.7971 7.24121 18.6836C6.6319 18.5565 6.1554 18.459 5.66797 18.2607C5.40161 18.1524 5.14194 18.0472 4.92578 17.9531C4.72652 17.8664 4.49352 17.7597 4.31543 17.6426C4.10585 17.5046 3.67582 17.238 3.38477 16.8574C3.1562 16.5584 2.85711 16.0824 2.58496 15.3184C2.43623 14.9007 2.29768 14.4029 2.21875 14.0967C2.12566 13.7354 2.09633 13.5551 2.05957 13.082C2.02498 12.6368 1.97858 11.8821 2.01172 11.0049C2.04458 10.1355 2.15269 9.16663 2.33301 8.35352C2.51191 7.547 2.74313 6.91431 2.91699 6.53516C3.16733 5.98941 3.58984 5.46607 4.16113 4.91406C4.4648 4.62067 4.68591 4.47715 5.11133 4.23242C5.51895 3.99794 6.16996 3.63863 6.80273 3.32422C7.43712 3.00903 8.03427 2.74738 8.49707 2.56641C8.96993 2.3815 9.30296 2.27965 9.66797 2.19238C10.0474 2.10169 10.4511 2.02986 11.1416 2.01074ZM11.1963 4.00977C10.6528 4.02483 10.3867 4.07701 10.1328 4.1377C9.86462 4.20182 9.61955 4.27467 9.22559 4.42871C8.82117 4.58686 8.27839 4.82457 7.69336 5.11523C7.10705 5.40654 6.49252 5.74485 6.1084 5.96582C5.74211 6.17654 5.68291 6.22488 5.55078 6.35254C5.06152 6.82529 4.83743 7.14587 4.73535 7.36816C4.62382 7.61134 4.43538 8.10973 4.28516 8.78711C4.1363 9.45841 4.03913 10.3035 4.00977 11.0801C3.98073 11.8487 4.02194 12.5189 4.05371 12.9277C4.0699 13.1361 4.0813 13.2402 4.09375 13.3193C4.10521 13.392 4.11988 13.4603 4.15527 13.5977C4.22815 13.8804 4.34933 14.3121 4.46875 14.6475C4.66912 15.21 4.86716 15.5033 4.97363 15.6426C5.01585 15.6976 5.11653 15.7752 5.41504 15.9717C5.418 15.9736 5.44187 15.9888 5.49805 16.0166C5.5553 16.0449 5.63034 16.0786 5.72363 16.1191C5.91248 16.2013 6.14535 16.2957 6.42188 16.4082C6.70933 16.5251 6.99672 16.5895 7.64941 16.7256C8.09881 16.8193 8.92466 16.9397 9.71094 17.0088C10.4778 17.0761 11.1716 17.0757 11.6357 17.0498C12.0276 17.0279 12.1786 16.9983 12.626 16.8154C13.1359 16.607 13.923 16.2374 14.4326 15.9668C14.9083 15.7142 15.0852 15.5775 15.2822 15.4131C15.502 15.2296 15.7279 15.0228 16.0127 14.7148C16.306 14.3977 16.643 13.9911 16.8936 13.6299C17.1318 13.2864 17.2839 12.994 17.415 12.6641C17.5476 12.3304 17.6539 11.9676 17.7363 11.5176C17.819 11.0661 17.8736 10.5375 17.8848 9.91211C17.896 9.28065 17.861 8.58774 17.7803 8.02344C17.7012 7.47089 17.5768 7.04249 17.4951 6.77734C17.3469 6.29644 17.0848 5.94573 16.8496 5.69824C16.8186 5.66558 16.727 5.59273 16.5371 5.49023C16.3569 5.39298 16.141 5.29668 15.9004 5.19629C15.4122 4.99261 15.0141 4.74191 14.751 4.59082L14.7373 4.58301C14.6924 4.55621 14.6526 4.53036 14.625 4.5127C14.595 4.49349 14.5786 4.48302 14.5615 4.47266C14.5396 4.45936 14.5024 4.43741 14.3506 4.3623C14.2796 4.32719 14.2148 4.28371 14.1562 4.23535C14.1355 4.23125 14.1121 4.22646 14.0869 4.22168C13.8981 4.1859 13.5894 4.13241 13.127 4.06543C12.6158 3.99144 11.8179 3.99256 11.1963 4.00977ZM11.3662 6.46094C11.5625 5.94493 12.1401 5.68579 12.6562 5.88184C12.8287 5.94744 13.0949 6.07488 13.2705 6.1582C13.6167 6.32264 14.1191 6.70499 14.6133 7.11523C15.033 7.4637 15.3038 7.80582 15.4775 8.14355C15.5589 8.30191 15.6163 8.46035 15.6543 8.58301L15.7158 8.80957L15.7178 8.81836L15.7207 8.82617C15.7574 8.96474 15.7825 9.08753 15.8018 9.21289L15.8477 9.61719L15.8486 9.63184L15.8496 9.64551C15.8638 9.88449 15.8795 10.2998 15.8955 10.708C15.9169 11.2595 15.487 11.7242 14.9355 11.7461C14.3839 11.7675 13.9193 11.3377 13.8975 10.7861C13.8814 10.377 13.866 9.99692 13.8535 9.78027C13.8322 9.54036 13.8182 9.45549 13.7871 9.33789V9.33691C13.7342 9.14811 13.7409 9.13871 13.6992 9.05762C13.6667 8.9945 13.5806 8.85747 13.3359 8.6543C13.0931 8.45272 12.8804 8.28602 12.71 8.16211C12.6253 8.10055 12.5552 8.05189 12.5 8.0166C12.4729 7.99931 12.4505 7.98668 12.4346 7.97754C12.4223 7.9705 12.4151 7.96612 12.4131 7.96484C12.1927 7.86028 12.0223 7.78027 11.9453 7.75098C11.4293 7.55472 11.1702 6.97708 11.3662 6.46094Z" fill="black"/>
</svg>
