<svg width="24" height="24" viewBox="0 0 24 24" fill="none" xmlns="http://www.w3.org/2000/svg">
<path d="M11.3065 5.15624C11.8533 5.07968 12.3587 5.46102 12.4354 6.00781C12.5117 6.55438 12.1305 7.05993 11.5839 7.13671C11.5082 7.1473 11.4206 7.14912 11.4101 7.14941C11.3688 7.15058 11.3157 7.15145 11.2548 7.15234C11.1321 7.15413 10.9621 7.15584 10.7528 7.15722C10.3328 7.15998 9.74416 7.16207 9.03994 7.16406C8.4763 7.16565 7.73017 7.20174 6.58193 7.23925C5.8463 7.26328 5.62608 7.32348 5.16884 7.36327C4.90658 7.38609 4.67652 7.40943 4.48329 7.43847C4.40352 7.45046 4.33968 7.46309 4.28994 7.47363C4.28631 7.4881 4.28112 7.50439 4.27724 7.52245C4.25225 7.63903 4.2327 7.78755 4.21376 7.98144C4.19849 8.13792 4.17596 8.41735 4.15517 8.6162C4.12451 8.90969 4.11424 9.15907 4.09951 9.83495C4.09567 10.01 4.08392 10.0829 4.07509 11.2168C4.06621 12.3581 4.05881 14.5371 4.10146 16.3721C4.14485 18.2384 4.23915 19.5861 4.38564 20.2451C4.39533 20.2886 4.40617 20.3262 4.41494 20.3584C4.73247 20.3983 5.0793 20.4158 6.02919 20.4238C7.07421 20.4326 9.0652 20.3981 10.8505 20.3838C12.6237 20.3696 14.0687 20.3642 14.87 20.3545C15.9361 20.3416 16.5653 20.0703 16.8056 19.9434C16.8089 19.9221 16.8151 19.8951 16.8192 19.8613C16.8428 19.6691 16.8696 19.32 16.8915 18.6699C16.9353 17.3695 16.9557 14.9794 16.9774 12.4932C16.9823 11.941 17.4341 11.4973 17.9862 11.5019C18.5384 11.5068 18.9823 11.9585 18.9774 12.5107C18.9558 14.9824 18.9354 17.4052 18.8905 18.7373C18.8471 20.0255 18.7845 20.4232 18.6513 20.7549L18.6347 20.7959L18.6151 20.835C18.4235 21.2125 18.1648 21.477 17.8358 21.6631C17.3693 21.927 16.3996 22.3363 14.8944 22.3545C14.0892 22.3642 12.6244 22.3697 10.8661 22.3838C9.11957 22.3978 7.07821 22.4328 6.01259 22.4238C4.86026 22.4141 4.46595 22.3937 3.91786 22.3096C3.77355 22.2874 3.36181 22.2313 3.0038 21.8711C2.69054 21.5556 2.53292 21.1258 2.43349 20.6787C2.23754 19.7973 2.14512 18.2546 2.10243 16.4189C2.05904 14.552 2.06617 12.3475 2.07509 11.2012C2.08405 10.0508 2.09638 9.93389 2.09951 9.79199C2.1142 9.11816 2.12568 8.79326 2.16591 8.4082C2.20082 8.07433 2.23159 7.52019 2.32118 7.10253C2.40909 6.69323 2.63524 5.97222 3.38564 5.6621C3.64481 5.55508 3.93923 5.49795 4.18544 5.46093C4.44516 5.42189 4.72869 5.39426 4.99501 5.37109C5.23852 5.3499 5.73291 5.26582 6.5165 5.24023C7.61275 5.20442 8.43109 5.16577 9.03408 5.16406C9.73825 5.16207 10.3232 5.15995 10.7392 5.15722C10.9472 5.15585 11.111 5.15401 11.2255 5.15234C11.2828 5.1515 11.3249 5.15116 11.3524 5.15038C11.3398 5.1515 11.3238 5.15383 11.3065 5.15624ZM19.2147 2.43261C19.3606 2.38643 19.6446 2.32072 19.9638 2.39452C20.4759 2.51303 20.784 2.89435 20.9501 3.27441C21.0931 3.6018 21.1791 4.04303 21.2431 4.39843C21.3182 4.81619 21.3748 5.18914 21.455 5.59863C21.675 6.72196 21.9035 7.43625 22.0292 7.79589L22.1161 8.04003L22.1288 8.07714L22.1386 8.11523C22.1739 8.25234 22.2024 8.35771 22.2382 8.46288C22.2491 8.48995 22.2669 8.52936 22.3124 8.61425C22.5728 9.10106 22.389 9.70714 21.9022 9.96777C21.4156 10.2281 20.8095 10.045 20.5487 9.55859C20.4741 9.41926 20.419 9.30436 20.369 9.17577L20.3573 9.14452C20.2936 8.96253 20.2482 8.79424 20.2128 8.65722C20.1355 8.44289 19.8433 7.66311 19.5565 6.29687C19.529 6.33457 19.5065 6.37067 19.4843 6.40038L19.4784 6.40722C19.3876 6.52621 19.1925 6.8123 18.8749 7.28027L18.8515 7.31347C18.5952 7.66007 18.143 8.14752 17.5878 8.80761C17.2217 9.24291 16.7294 9.85541 15.7685 10.7812C15.2911 11.2412 14.7021 11.7619 14.1425 12.2598C13.5718 12.7674 13.0303 13.2536 12.6093 13.6738C11.9129 14.3689 11.4472 14.8486 11.1581 15.1533C11.0135 15.3057 10.9144 15.4132 10.8534 15.4805C10.8225 15.5146 10.8035 15.5358 10.7948 15.5459C10.6116 15.7744 10.3303 15.9209 10.0145 15.9209C9.46226 15.9209 9.01454 15.4732 9.01454 14.9209C9.01459 14.7004 9.09078 14.5382 9.09853 14.5205C9.12108 14.4689 9.14269 14.4299 9.15322 14.4121C9.17548 14.3744 9.19577 14.346 9.20302 14.3359C9.22025 14.3119 9.23615 14.2935 9.24208 14.2861C9.25652 14.2682 9.27043 14.2507 9.28115 14.2383C9.30445 14.2113 9.33556 14.1769 9.37197 14.1367C9.44579 14.0553 9.55526 13.9362 9.70693 13.7764C10.0112 13.4557 10.4899 12.9627 11.1962 12.2578C11.6647 11.7901 12.2501 11.2667 12.8134 10.7656C13.3875 10.2549 13.9394 9.76703 14.3808 9.34179C15.2575 8.49707 15.6895 7.95805 16.0575 7.5205C16.721 6.7317 17.0248 6.41655 17.2372 6.13085C17.5261 5.70521 17.7571 5.36658 17.8886 5.19433C17.9412 5.12383 18.0067 5.02989 18.078 4.92675C17.2095 5.2097 16.0776 5.57596 15.4257 5.78027C15.0162 5.90859 14.7811 5.97941 14.6386 6.01757C14.4891 6.05759 14.3668 6.08299 14.2138 6.083C13.6616 6.083 13.214 5.63507 13.2138 5.083C13.2139 4.56646 13.6057 4.14155 14.1083 4.08886C14.1123 4.08782 14.1171 4.08626 14.122 4.08495C14.2194 4.05884 14.4178 4.00034 14.827 3.87206C15.641 3.61697 17.2279 3.10473 18.0761 2.82519C18.9118 2.54976 18.9626 2.52242 19.119 2.46581L19.2147 2.43261ZM10.8104 15.5244C10.8153 15.518 10.8224 15.5102 10.829 15.501C10.8301 15.4994 10.8311 15.4968 10.8329 15.4941C10.8257 15.5044 10.818 15.5144 10.8104 15.5244ZM10.8602 15.4521C10.8649 15.4448 10.8708 15.4373 10.8759 15.4287C10.878 15.4251 10.8796 15.4194 10.8827 15.4141C10.8754 15.4269 10.8681 15.4397 10.8602 15.4521Z" fill="black"/>
</svg>
