<svg width="24" height="24" viewBox="0 0 24 24" fill="none" xmlns="http://www.w3.org/2000/svg">
<path d="M11.3552 5.06023C11.9073 5.06042 12.3552 5.50806 12.3552 6.06023C12.3551 6.61229 11.9073 7.06004 11.3552 7.06023C11.3514 7.06034 11.3318 7.06068 11.2917 7.06316C11.247 7.06593 11.1865 7.07025 11.1121 7.07683C10.9631 7.08999 10.7637 7.11085 10.5232 7.1403C10.042 7.19926 9.40316 7.29281 8.67847 7.42741C7.96349 7.56024 7.19977 7.79892 6.66968 7.96843C6.0751 8.15856 5.66829 8.42051 5.17261 8.77409C5.19451 8.75851 5.08952 8.84529 4.87183 9.24577C4.67678 9.6046 4.45093 10.1006 4.1814 10.7389C3.98772 11.1978 3.92708 11.6206 3.86206 12.1774C3.80347 12.6793 3.78311 13.1902 3.82007 13.8464C3.85791 14.5177 3.95599 15.3044 4.08667 15.902C4.30945 16.9205 4.56286 17.3194 4.63257 17.4264C5.00685 18.0011 5.28183 18.1558 5.95483 18.6286C6.432 18.9636 6.83144 19.0218 7.30151 19.1188C8.14725 19.2935 9.20345 19.4883 9.7312 19.611C9.88093 19.6458 10.0004 19.6425 10.5359 19.6618C11.0452 19.6801 11.4742 19.6945 11.8093 19.696C11.9762 19.6967 12.1101 19.6943 12.2126 19.6891C12.3085 19.6843 12.351 19.6773 12.3572 19.6764C12.9498 19.5485 13.3096 19.5065 13.7273 19.3346C14.3987 19.0584 15.0373 18.5376 15.5564 17.9362C15.8534 17.5921 16.0709 17.2793 16.2312 17.028C16.3121 16.9011 16.3781 16.7904 16.4382 16.6901C16.4644 16.6465 16.5005 16.5931 16.5359 16.5368C16.7607 15.9656 17.0007 14.848 17.0007 13.903C17.0007 13.3507 17.4484 12.903 18.0007 12.903C18.5526 12.9035 19.0007 13.351 19.0007 13.903C19.0007 15.1205 18.7032 16.5485 18.3601 17.3669L18.3142 17.4743L18.2458 17.569C18.2434 17.5727 18.237 17.5825 18.2253 17.6012C18.2071 17.6306 18.1845 17.6676 18.1541 17.7184C18.0952 17.8165 18.0158 17.9505 17.9177 18.1042C17.7198 18.4143 17.446 18.8093 17.071 19.2438C16.4165 20.0022 15.5342 20.7538 14.488 21.1842C13.8523 21.4457 13.1929 21.5422 12.7791 21.6315C12.5082 21.6899 12.1369 21.6975 11.8005 21.696C11.4296 21.6943 10.9708 21.679 10.4646 21.6608C10.0734 21.6467 9.67256 21.6506 9.27905 21.5592C8.77397 21.4418 7.83495 21.2714 6.89722 21.0778C6.49032 20.9938 5.67527 20.8761 4.80542 20.2653C4.19173 19.8342 3.57638 19.4711 2.95581 18.5182C2.75049 18.2029 2.40563 17.5774 2.13257 16.3288C1.9748 15.6072 1.86551 14.7135 1.823 13.9596C1.77968 13.1909 1.80354 12.5644 1.87573 11.946C1.94155 11.3824 2.0238 10.7063 2.33862 9.96062C2.614 9.30841 2.8713 8.739 3.11499 8.2907C3.33558 7.8849 3.62434 7.42242 4.01147 7.14616C4.55847 6.75597 5.16668 6.34891 6.0603 6.06316C6.58553 5.8952 7.45939 5.61923 8.31323 5.46062C9.81972 5.1808 11.035 5.06033 11.3552 5.06023ZM15.2 4.00945C15.4286 4.02791 16.3584 4.07644 17.7839 4.17448C19.2885 4.27797 20.0677 5.01147 20.3689 5.31511C20.7692 5.71881 20.9246 6.24416 20.9978 6.57487C21.038 6.7565 21.0633 6.9271 21.0808 7.05827L21.115 7.31316L21.1199 7.34245L21.1238 7.37077C21.1726 7.77381 21.2054 8.08093 21.3269 9.04362L21.3572 9.25359C21.3676 9.32253 21.3777 9.39397 21.3875 9.49382C21.4412 10.0434 21.0396 10.5328 20.49 10.5866C19.9404 10.6403 19.4509 10.2378 19.3972 9.68816C19.392 9.63513 19.387 9.60042 19.3796 9.55144C19.3716 9.49805 19.3595 9.4204 19.3445 9.3073L19.3435 9.30046C19.2206 8.32698 19.1846 8.00023 19.1375 7.61101V7.61003C19.1223 7.51238 19.1077 7.3939 19.0984 7.3239C19.0954 7.30142 19.0899 7.27952 19.0867 7.25749C19.0772 7.27177 19.0676 7.28651 19.0574 7.30241L19.0564 7.30144C18.8955 7.55781 18.5046 8.03707 18.071 8.55437L17.8611 8.83366C17.6397 9.12074 17.3467 9.45882 16.6541 10.0944C15.9351 10.7541 14.6009 11.9928 13.7732 12.655C12.7745 13.4538 12.1624 13.9214 11.2126 14.8971C10.8274 15.2929 10.1943 15.3009 9.79858 14.9157C9.40305 14.5305 9.39391 13.8973 9.77905 13.5016C10.829 12.423 11.5379 11.8814 12.5242 11.0925C13.2838 10.4848 14.5487 9.31154 15.3015 8.62077C16.1045 7.88391 16.235 7.66808 16.4714 7.3532L16.488 7.33171L16.5046 7.3112C16.7461 7.02339 16.9507 6.77565 17.1052 6.58171C17.1824 6.48485 17.2443 6.40484 17.2908 6.34245C17.3138 6.3115 17.3318 6.28654 17.3445 6.26823L17.3679 6.23308L17.3748 6.22136C17.3873 6.2018 17.4024 6.17934 17.4187 6.15495C16.1793 6.07133 15.2581 6.02118 15.0398 6.00359C14.4895 5.95908 14.0786 5.47671 14.1228 4.92644C14.1674 4.37631 14.6498 3.96535 15.2 4.00945Z" fill="black"/>
</svg>
