<svg width="24" height="24" viewBox="0 0 24 24" fill="none" xmlns="http://www.w3.org/2000/svg">
<path d="M4.28317 14.9512C4.85291 14.9612 5.82376 14.9778 6.40231 15.002C7.20898 15.0357 7.62339 15.1647 7.96188 15.3662C8.15815 15.4831 8.29703 15.6389 8.37595 15.7354C8.4662 15.8457 8.54614 15.9648 8.61325 16.0732C8.68052 16.1819 8.74499 16.296 8.80368 16.4072L8.96091 16.7236L8.98239 16.7686L8.99899 16.8145C9.08263 17.0494 9.09993 17.2816 9.1279 17.8574C9.15855 18.4885 9.20068 19.6859 9.24899 20.8965C9.27097 21.4482 8.84171 21.9134 8.29001 21.9355C7.73839 21.9574 7.27318 21.5281 7.25095 20.9766C7.20187 19.747 7.15997 18.5753 7.12985 17.9551C7.11718 17.6941 7.10595 17.5495 7.0986 17.4688C7.03845 17.3473 6.97461 17.2254 6.91306 17.126C6.89655 17.0993 6.87972 17.0781 6.86716 17.0596C6.78772 17.0402 6.62523 17.0128 6.31931 17C5.77117 16.9771 4.83013 16.9605 4.24802 16.9502C3.67133 16.94 3.47949 16.9366 3.28806 16.9326C2.73605 16.9211 2.29724 16.4641 2.30856 15.9121C2.31998 15.3601 2.77708 14.9214 3.32907 14.9326C3.51851 14.9365 3.70834 14.941 4.28317 14.9512ZM20.0869 14.3643C20.6392 14.3643 21.0869 14.812 21.0869 15.3643C21.0866 15.9163 20.639 16.3643 20.0869 16.3643C19.9511 16.3643 19.8121 16.3624 19.2998 16.416C18.7676 16.4717 17.8657 16.5841 17.3496 16.6553C17.0506 16.6965 16.8945 16.7287 16.8125 16.75C16.7521 16.7657 16.7437 16.7726 16.7363 16.7764C16.7017 16.7941 16.6098 16.8704 16.4795 17.0791C16.4771 17.0975 16.4747 17.1196 16.4717 17.1455C16.4556 17.2815 16.4356 17.5326 16.4619 17.9951C16.4895 18.4807 16.5662 19.1646 16.6093 19.5693C16.6508 19.9576 16.6552 20.0385 16.6572 20.1299C16.6579 20.1617 16.6601 20.197 16.6621 20.2451C16.6848 20.7966 16.2557 21.2631 15.7041 21.2861C15.1526 21.3089 14.6864 20.8796 14.6631 20.3281C14.6612 20.2837 14.6594 20.2275 14.6582 20.1719C14.658 20.1651 14.6581 20.162 14.6582 20.1611C14.6581 20.1594 14.6572 20.1494 14.6552 20.125C14.651 20.0731 14.6417 19.9744 14.6211 19.7812C14.5811 19.4064 14.496 18.657 14.4648 18.1084C14.4324 17.5377 14.4547 17.1703 14.4853 16.9111C14.502 16.7703 14.5277 16.4571 14.6914 16.1709L14.8769 15.873C15.092 15.5589 15.4 15.2112 15.832 14.9922C16.1101 14.8513 16.4078 14.767 17.0761 14.6748C17.6075 14.6015 18.5323 14.4853 19.0918 14.4268C19.6695 14.3663 19.8776 14.3643 20.0869 14.3643ZM8.61227 1.73828C9.16456 1.73828 9.61227 2.186 9.61227 2.73828C9.61225 2.80824 9.60719 2.8835 9.57809 3.25586C9.54662 3.65869 9.48323 4.45729 9.38083 5.30371C9.27845 6.14978 9.14029 7.01249 9.0654 7.46484C9.03187 7.66733 9.00297 7.84071 8.97165 7.96094C8.95652 8.01899 8.91815 8.16148 8.82517 8.30859C8.69899 8.50799 8.54095 8.61334 8.45798 8.66211C8.26731 8.77403 8.08211 8.80974 7.93552 8.83008C7.79156 8.85001 7.58601 8.8668 7.2822 8.88379C6.67988 8.91747 5.5415 8.95837 4.92673 8.98633C4.25403 9.02719 3.96702 9.04944 3.74997 9.0293V9.02832C3.70327 9.02443 3.6557 9.02151 3.5986 9.01758C3.04788 8.97952 2.63123 8.50188 2.66892 7.95117C2.707 7.40051 3.18467 6.98483 3.73532 7.02246C3.79339 7.02646 3.85962 7.03132 3.9277 7.03711H3.93552C3.94907 7.03719 3.9881 7.03723 4.07517 7.0332C4.21495 7.02673 4.43262 7.01295 4.80661 6.99023H4.81345L4.82126 6.98926C5.4605 6.96002 6.52465 6.92068 7.13083 6.8877C7.20617 6.42089 7.31346 5.73319 7.3945 5.06348C7.49151 4.26163 7.55285 3.49867 7.58395 3.10059C7.59952 2.90138 7.60774 2.80016 7.6113 2.74805L7.61227 2.72754C7.61217 2.73331 7.61225 2.73815 7.61227 2.73828C7.61227 2.18618 8.06024 1.73858 8.61227 1.73828ZM15.7451 1.68945C16.2974 1.68945 16.7451 2.13717 16.7451 2.68945C16.7451 2.9021 16.7446 3.11464 16.7568 3.71387C16.7691 4.31956 16.7942 5.29721 16.8183 5.86328C16.8329 6.20445 16.8521 6.38755 16.8642 6.47461C16.8983 6.50903 16.9482 6.54977 17.0078 6.58887C17.0159 6.59091 17.0285 6.59523 17.0468 6.59863C17.1391 6.61562 17.2873 6.63048 17.5703 6.64844C18.0089 6.67626 18.7712 6.67006 19.2929 6.68066C19.7774 6.69052 19.8735 6.70121 19.9541 6.70703C19.9793 6.70885 19.9959 6.70898 20.042 6.70898C20.5942 6.70898 21.042 7.1567 21.042 7.70898C21.0418 8.2611 20.5941 8.70898 20.042 8.70898C19.9911 8.70898 19.9128 8.70854 19.8105 8.70117C19.769 8.69818 19.7517 8.69658 19.6826 8.69336C19.6088 8.68993 19.4814 8.68533 19.2519 8.68066C18.8384 8.67226 17.9355 8.67567 17.4443 8.64453C16.9385 8.61245 16.4185 8.58143 15.9629 8.2959C15.6176 8.07945 15.1834 7.70641 14.9961 7.21875C14.9081 6.98977 14.8514 6.67904 14.8203 5.94824C14.7951 5.35817 14.7701 4.36118 14.7578 3.75391C14.7453 3.14021 14.7451 2.91455 14.7451 2.68945C14.7451 2.13724 15.1929 1.68957 15.7451 1.68945Z" fill="black"/>
</svg>
