<svg width="24" height="24" viewBox="0 0 24 24" fill="none" xmlns="http://www.w3.org/2000/svg">
<path d="M18.4902 19.4697L18.6299 19.4766L18.6445 19.4785L18.6602 19.4805L19.1621 19.5186L19.1758 19.5195C19.3084 19.5288 19.3879 19.5389 19.4541 19.5479C20.0011 19.6224 20.3848 20.1267 20.3105 20.6738C20.2362 21.221 19.7317 21.6045 19.1846 21.5303C19.1561 21.5264 19.1389 21.5237 19.1191 21.5215C19.1009 21.5195 19.0762 21.5172 19.04 21.5146C18.8089 21.5016 18.6006 21.4848 18.4502 21.4678V21.4688C18.4443 21.4681 18.3888 21.4634 15.959 21.4795C13.5224 21.4957 8.87174 21.5302 6.51172 21.5518C5.3319 21.5625 4.72706 21.5701 4.41406 21.5752C4.25689 21.5777 4.17799 21.5797 4.13867 21.5811C4.12784 21.5814 4.12162 21.5819 4.11914 21.582C4.12072 21.5819 4.12342 21.5813 4.12598 21.5811C4.09636 21.5842 4.04728 21.5889 3.99316 21.5889C3.44088 21.5889 2.99316 21.1412 2.99316 20.5889C2.99344 20.0582 3.40719 19.6255 3.92969 19.5928C3.94516 19.5918 3.9609 19.5901 3.97656 19.5898C3.97024 19.59 3.96354 19.5896 3.95703 19.5898C4.07107 19.5803 4.37691 19.5711 6.49316 19.5518C8.85533 19.5302 13.5076 19.4957 15.9453 19.4795C17.7361 19.4676 18.2764 19.465 18.4902 19.4697ZM3.91504 19.5928C3.91594 19.5926 3.91777 19.592 3.91992 19.5918C3.92085 19.5918 3.92251 19.5919 3.92383 19.5918C3.91977 19.5922 3.91659 19.5926 3.91504 19.5928ZM3.9502 19.5908C3.95136 19.5907 3.95291 19.5899 3.9541 19.5898H3.95703C3.95475 19.59 3.95234 19.5906 3.9502 19.5908ZM11.4668 1.75293C11.5819 1.7653 11.6729 1.79249 11.7227 1.80859C11.8019 1.83427 11.8755 1.86551 11.9346 1.89258C12.0523 1.9466 12.1861 2.01815 12.3252 2.0957C12.6045 2.25143 13.0067 2.48887 13.5273 2.79102C14.1832 3.17162 14.9991 3.57861 15.873 4.0625C16.6926 4.51631 17.3986 4.93523 17.8799 5.24219C18.3694 5.55443 18.614 5.74465 18.7822 5.86523C18.8933 5.94481 19.1441 6.1104 19.3076 6.23633C19.7452 6.57328 19.8262 7.20109 19.4893 7.63867C19.1523 8.07606 18.5244 8.15818 18.0869 7.82129C17.9346 7.70402 17.8779 7.67709 17.6172 7.49023C17.4136 7.34432 17.2345 7.2029 16.8047 6.92871C16.3663 6.64909 15.6972 6.25056 14.9043 5.81152C14.2 5.42156 13.2633 4.94117 12.6172 4.57227C12.6322 4.91463 12.6516 5.36201 12.6738 5.95605C12.7528 8.06985 12.8842 12.0612 13.0195 16.1689C13.0377 16.7207 12.6053 17.1835 12.0537 17.2021C11.5018 17.2203 11.0387 16.7873 11.0205 16.2354C10.8851 12.1247 10.7545 8.13849 10.6758 6.03027C10.6599 5.60468 10.6448 5.25705 10.6328 4.97168C10.5658 5.04662 10.496 5.12662 10.4209 5.20898C9.65075 6.05313 8.31853 7.45521 7.65918 8.15137C7.32746 8.5016 7.16334 8.6765 7.08203 8.76367C7.06218 8.78495 7.04779 8.79999 7.03809 8.81055C7.02921 8.82022 7.02568 8.82487 7.02539 8.8252C7.02583 8.8247 7.0294 8.82013 7.03418 8.81445C7.03625 8.81199 7.03905 8.80759 7.04297 8.80273C6.75654 9.16168 6.2504 9.28807 5.82129 9.07715C5.32589 8.83353 5.12192 8.2338 5.36523 7.73828C5.43182 7.60282 5.51912 7.50891 5.52637 7.50098C5.5476 7.47694 5.57777 7.44377 5.61914 7.39941C5.70638 7.30589 5.87602 7.12586 6.20703 6.77637C6.87432 6.07184 8.18927 4.68787 8.94336 3.86133C9.51985 3.22944 9.82076 2.85449 9.99902 2.62402C10.076 2.5245 10.1689 2.39973 10.2305 2.32324C10.3055 2.23003 10.4072 2.11302 10.5498 2.00293L10.6729 1.91895C10.9618 1.74939 11.2491 1.74637 11.3438 1.74609L11.4668 1.75293ZM7.11621 8.7002C7.12772 8.68141 7.13768 8.6631 7.14648 8.64648C7.15331 8.63359 7.15925 8.62191 7.16016 8.62012C7.14665 8.64757 7.13182 8.67456 7.11621 8.7002Z" fill="black"/>
</svg>
