<svg width="24" height="24" viewBox="0 0 24 24" fill="none" xmlns="http://www.w3.org/2000/svg">
<path d="M12.1084 1.16577C12.4245 1.15661 12.9962 1.15755 13.5254 1.1853C14.5274 1.23786 15.1019 1.35318 15.2803 1.39233C15.585 1.45924 16.0184 1.57709 16.5723 1.78198C16.9157 1.90903 17.3248 2.19162 18.0186 2.72339C18.5781 3.15227 19.3798 3.90228 19.7686 4.25562C20.2647 4.70653 20.4413 4.9117 20.6631 5.14917C20.8623 5.36246 21.0034 5.58315 21.2031 5.94702C21.4037 6.31247 21.6888 6.88311 21.8623 7.25171C22.0505 7.65138 22.1224 7.84652 22.2178 8.17847C22.301 8.46813 22.4161 8.90904 22.4854 9.30054C22.5588 9.71602 22.5734 10.0439 22.5791 10.3708C22.5848 10.6957 22.5856 10.9564 22.585 11.1453C22.5846 11.2395 22.5836 11.3162 22.583 11.3728C22.5827 11.4013 22.5822 11.4235 22.582 11.4412V11.4666C22.5825 11.5316 22.5782 11.5857 22.5733 11.6277C22.5694 11.6602 22.5634 11.6995 22.5576 11.739C22.5449 11.8265 22.5225 11.9777 22.4815 12.2664C22.3993 12.8444 22.2397 13.9822 22.1465 14.6003C22.0491 15.2459 22.02 15.3443 21.9356 15.657C21.8662 15.9137 21.735 16.4169 21.6309 16.783C21.4563 17.3964 21.3074 17.7936 21.0508 18.1863C20.6317 18.8274 20.2343 19.2834 19.9258 19.5945C19.6988 19.8233 19.3076 20.1888 19.0166 20.4392C18.5 20.8837 18.0395 21.1059 17.7617 21.2507C17.7255 21.2696 17.6598 21.3102 17.5108 21.406C17.3769 21.4921 17.2012 21.6053 16.9932 21.7292C16.7515 21.8732 16.458 21.97 16.2139 22.0417C15.9523 22.1187 15.6378 22.1967 15.3135 22.2791C15.0492 22.3462 14.8626 22.4038 14.3428 22.5046C13.8466 22.6009 13.0105 22.7464 12.3877 22.824C11.7363 22.9051 11.3332 22.9078 10.9072 22.8894C10.501 22.8718 10.0653 22.8341 9.59962 22.7546C8.72641 22.6056 8.12341 22.4172 7.89161 22.3005C7.88254 22.296 7.87311 22.292 7.78614 22.2537C7.70966 22.2199 7.60151 22.1713 7.43751 22.0945C7.18158 21.9746 6.69285 21.7472 6.28712 21.5349C5.86521 21.3142 5.54607 21.1164 5.1963 20.8738C4.85605 20.6377 4.48318 20.3556 4.17091 20.0876C3.63715 19.6296 3.31547 19.2697 3.14845 18.9792C2.76951 18.3202 2.61389 17.7047 2.53224 17.446C2.50001 17.344 2.42967 17.1338 2.28028 16.6697C2.04678 15.9442 1.96017 15.3657 1.92775 15.1609C1.89939 14.9826 1.79103 14.5936 1.68946 14.1775C1.67332 14.1113 1.64169 13.9531 1.60646 13.783C1.56739 13.5943 1.51418 13.3434 1.44923 13.0476C1.36177 12.6492 1.33936 12.3462 1.32032 11.8347C1.30536 11.432 1.32624 10.8465 1.38673 10.1941C1.44815 9.53176 1.55988 8.80617 1.62501 8.40698C1.72075 7.82051 1.91745 7.30234 2.16114 6.69019C2.39619 6.09985 2.82869 5.55911 3.12306 5.17554C3.18221 5.09846 3.2597 4.99765 3.36915 4.89331C3.46659 4.80046 3.57399 4.71965 3.67189 4.64624C3.89214 4.48106 4.31517 4.17219 4.74025 3.90308C5.16691 3.63298 5.57644 3.41618 5.792 3.29858C5.9969 3.18679 6.22775 3.0017 6.64845 2.65894L6.68165 2.63257L6.71583 2.60913C7.06878 2.36756 7.6032 2.18475 8.1338 2.00562L8.14552 2.00073C8.38277 1.92401 8.57316 1.87164 8.78614 1.81616C8.92924 1.64413 9.13119 1.5185 9.36817 1.47339C9.57281 1.43447 10.2305 1.32968 11.082 1.22339C11.5888 1.16014 11.8358 1.17368 12.1084 1.16577ZM11.1524 16.8982C9.67372 16.9342 7.15728 17.004 4.51271 17.0779C4.59917 17.3613 4.6912 17.6506 4.88185 17.9822C4.87391 17.9684 4.89785 18.0118 4.9961 18.1189C5.0914 18.2228 5.24298 18.3711 5.47364 18.5691C5.72387 18.7838 6.03964 19.0246 6.33595 19.2302C6.62259 19.4291 6.87136 19.5827 7.21485 19.7625C7.57451 19.9506 8.0214 20.16 8.28614 20.2839C8.43348 20.3529 8.52694 20.3946 8.59278 20.4236C8.64752 20.4477 8.72277 20.48 8.79103 20.5144C8.75282 20.4952 8.74953 20.4965 8.81251 20.5183C8.8625 20.5356 8.93871 20.5602 9.04103 20.5886C9.24563 20.6455 9.54531 20.7172 9.93653 20.7839C10.1326 20.8174 10.3248 20.8396 10.5137 20.8572C10.5024 20.71 10.5228 20.5582 10.5811 20.4119C10.598 20.3693 10.6271 20.2952 10.6709 20.2058L10.6826 20.1824C10.7554 20.0433 10.8779 19.8165 11.1875 19.3289L11.1963 19.3162L11.2051 19.3025C11.4398 18.9574 11.818 18.4326 12.1553 18.0076C12.3249 17.7938 12.4815 17.6079 12.625 17.4363C12.7702 17.2627 12.908 17.0969 13.0576 16.9021C13.0692 16.887 13.08 16.8707 13.0918 16.8552C12.7621 16.8618 12.229 16.872 11.1524 16.8982ZM16.9043 14.0847C16.6547 14.739 16.2113 15.6145 15.8154 16.3269C15.398 17.0782 14.9961 17.6608 14.6436 18.1199C14.4676 18.349 14.3085 18.541 14.1592 18.7195C14.008 18.9002 13.8713 19.0622 13.7217 19.2507C13.4252 19.6244 13.0817 20.0988 12.8682 20.4119C12.7764 20.5566 12.7066 20.6737 12.6504 20.7673C13.1157 20.6965 13.6206 20.607 13.9619 20.5408C14.4114 20.4536 14.5293 20.4147 14.8213 20.3406C15.1646 20.2534 15.4331 20.1864 15.6494 20.1228C15.7554 20.0916 15.8361 20.0653 15.8955 20.0427C15.9416 20.0252 15.964 20.0144 15.9697 20.0115C16.1443 19.9075 16.293 19.8113 16.4297 19.7234C16.5506 19.6457 16.703 19.5476 16.8379 19.4773C17.1383 19.3207 17.3967 19.1946 17.7129 18.9226C17.9637 18.7068 18.3159 18.3769 18.5059 18.1853C18.6151 18.0752 18.7448 17.9346 18.8887 17.7595C18.6146 17.6896 18.3715 17.5051 18.2373 17.2312C18.1556 17.0643 18.1183 16.9984 18.0615 16.8884L18.0567 16.8796L18.0518 16.8699C17.9868 16.737 17.9051 16.5145 17.8233 16.2908C17.7317 16.0405 17.6128 15.7109 17.4541 15.2839C17.2731 14.8468 17.0391 14.3591 16.9043 14.0847ZM20.2988 8.74487C20.2042 8.781 20.1026 8.80353 19.9961 8.80933C19.2493 8.84992 18.5204 8.8902 16.8818 8.92651C16.5372 8.93415 16.1554 8.9389 15.7559 8.94604C15.7665 8.9661 15.777 8.98673 15.7881 9.00757C15.957 9.32392 16.2961 9.8596 16.7637 10.5193C17.2237 11.1683 17.7932 11.8919 18.1123 12.3015C18.2618 12.4934 18.374 12.6382 18.4629 12.7732C18.5631 12.9254 18.6272 13.0555 18.6963 13.196C18.8013 13.4096 18.9755 13.769 19.1436 14.1482L19.3067 14.53L19.3135 14.5457L19.3193 14.5623C19.4851 15.0078 19.6119 15.3577 19.7022 15.6042C19.744 15.7187 19.7773 15.8085 19.8037 15.8777C19.8764 15.6097 19.9517 15.3323 20.0049 15.1355C20.0443 14.9895 20.0586 14.9382 20.0772 14.8484C20.0972 14.7514 20.123 14.6061 20.169 14.3015C20.2605 13.6945 20.4177 12.5714 20.501 11.9851C20.5426 11.692 20.566 11.5346 20.5781 11.4509C20.5795 11.4413 20.58 11.4327 20.5811 11.4255C20.582 11.2738 20.5889 10.9685 20.5791 10.406C20.5742 10.1262 20.5629 9.91656 20.5156 9.64917C20.465 9.3627 20.3733 9.00567 20.2988 8.74487ZM3.83985 7.89526C3.71219 8.23955 3.64012 8.4812 3.59962 8.72925C3.53599 9.11922 3.43269 9.78836 3.37794 10.3787C3.32231 10.9787 3.30767 11.4724 3.31837 11.7605C3.33602 12.2348 3.35451 12.3965 3.40333 12.6189C3.47065 12.9255 3.5246 13.1852 3.56446 13.3777C3.58473 13.4755 3.6007 13.5516 3.61329 13.6121C3.61935 13.6411 3.62422 13.6641 3.62794 13.6814C3.6305 13.6933 3.63223 13.7003 3.63282 13.7029C3.70045 13.98 3.85805 14.5628 3.90333 14.8484C3.91258 14.9068 3.92827 14.9905 3.94728 15.0955C3.96666 15.0938 3.98617 15.0921 4.00587 15.0916C5.40658 15.0524 6.78777 15.0159 8.01466 14.9822C7.99204 14.9396 7.96994 14.8974 7.94923 14.8552C7.83848 14.6572 7.70417 14.402 7.4336 13.9373C7.25283 13.6268 6.93206 13.069 6.42872 12.2869C5.93628 11.5216 5.22156 10.4715 4.73048 9.64526C4.3007 8.92212 4.02458 8.3445 3.83985 7.89526ZM11.5567 9.0105C10.3319 9.02641 10.312 9.02612 10.2959 9.02612C10.2481 9.02612 10.2013 9.0209 10.1553 9.0144C10.0568 9.1665 9.96653 9.30641 9.88966 9.42651C9.48343 10.0612 9.34587 10.3188 9.14552 10.657C9.02319 10.8969 8.95967 11.0385 8.91114 11.1414L8.89943 11.1667C8.88999 11.1854 8.87981 11.2045 8.87403 11.2156C8.86727 11.2286 8.86249 11.2377 8.85841 11.2458C8.85112 11.2604 8.84613 11.2714 8.84181 11.282C8.76051 11.481 8.62168 11.6386 8.45314 11.7458C8.79101 12.2898 9.02234 12.692 9.16114 12.9304L9.70607 13.8992L9.72071 13.9265L9.73439 13.9539C9.75783 14.0022 9.77582 14.0373 9.79005 14.0632C9.79942 14.0803 9.80607 14.0922 9.81056 14.0994L9.81837 14.1062C9.886 14.1671 9.93569 14.2243 9.97169 14.2683C10.0003 14.3033 10.0376 14.352 10.0723 14.3962C10.1949 14.5531 10.2623 14.7351 10.2793 14.9197C10.5801 14.9119 10.8562 14.9042 11.1035 14.8982C12.6952 14.8595 13.0551 14.8605 13.3565 14.8494C13.6274 14.8393 13.8117 14.8201 14.0195 14.7986C14.1352 14.7866 14.2484 14.7954 14.3555 14.821C14.6354 14.2869 14.8916 13.7516 15.0391 13.363C15.2041 12.9281 15.3075 12.6393 15.3682 12.4626C15.3984 12.3747 15.4178 12.3155 15.4287 12.281L15.4336 12.2654C15.4444 12.2239 15.4579 12.1835 15.4736 12.1443C15.3578 11.9877 15.2423 11.83 15.1328 11.6755C14.6483 10.9919 14.2514 10.3769 14.0234 9.94995C13.7915 9.51543 13.6525 9.22528 13.5371 8.98315C12.7655 8.99416 12.0587 9.00397 11.5567 9.0105ZM11.8945 3.16968C11.7158 3.17217 11.599 3.17519 11.3301 3.20874C10.6884 3.28883 10.1785 3.36623 9.91212 3.40991C9.78308 3.55664 9.61103 3.66814 9.40724 3.71948C9.17223 3.77862 8.99888 3.82737 8.76173 3.90405C8.17252 4.10321 7.94157 4.19974 7.85743 4.25171C7.50725 4.53741 7.13464 4.8446 6.75001 5.05444C6.50722 5.1869 6.16764 5.36586 5.80958 5.59253C5.63621 5.70229 5.45916 5.82212 5.29982 5.93433C5.35284 6.02676 5.39341 6.12865 5.41505 6.23901C5.4552 6.44374 5.48807 6.61519 5.61818 6.95874C5.75392 7.3171 5.99736 7.86085 6.45021 8.6228C6.69088 9.02774 6.97935 9.4757 7.27638 9.92944C7.30669 9.86767 7.33837 9.79777 7.37696 9.72241L7.39161 9.69409L7.40821 9.66675C7.58773 9.3653 7.76328 9.03872 8.20509 8.34839C8.57741 7.76666 9.2467 6.74387 9.6963 6.06714C10.1438 5.39353 10.3849 5.04532 10.627 4.73511C10.7494 4.57823 10.869 4.43729 10.9756 4.31128C11.0849 4.18206 11.1855 4.06317 11.291 3.92749C11.5039 3.65381 11.7069 3.3983 11.8945 3.16968ZM14.2813 3.25757C14.2478 3.4577 14.1545 3.65 13.999 3.80347C13.7766 4.02309 13.3946 4.47959 12.8692 5.15503C12.7356 5.32673 12.6112 5.47421 12.502 5.60327C12.3902 5.73535 12.2969 5.84546 12.2031 5.96558C12.0286 6.1893 11.8432 6.45243 11.4707 7.0105C11.4902 7.01024 11.5101 7.01076 11.5303 7.0105C12.7646 6.99446 15.2183 6.9624 16.8379 6.92651C18.1009 6.89852 18.808 6.86718 19.4072 6.83667C19.2653 6.58346 19.2261 6.54106 19.2012 6.5144C18.9713 6.26828 18.8497 6.12216 18.4238 5.73511C17.9812 5.33277 17.2741 4.67234 16.8018 4.3103C16.4458 4.03745 16.2147 3.87016 16.0596 3.76733C15.8997 3.6614 15.8595 3.6498 15.8789 3.65698C15.4115 3.4841 15.0662 3.39357 14.8516 3.34644C14.8032 3.33582 14.6153 3.29788 14.2813 3.25757Z" fill="black"/>
</svg>
