<svg width="24" height="24" viewBox="0 0 24 24" fill="none" xmlns="http://www.w3.org/2000/svg">
<g clip-path="url(#clip0_724_510)">
<path d="M1.32999 1.14861C1.77687 0.82463 2.40214 0.92461 2.72647 1.37127C3.27412 2.12588 3.79563 2.84353 4.54483 3.67791C5.30083 4.51982 6.28353 5.47022 7.13858 6.23553C7.96883 6.97862 8.72849 7.58393 10.3691 9.11345C12.0175 10.6503 14.5759 13.1397 15.9364 14.4836C17.3152 15.8455 17.4212 15.9916 18.081 16.757C18.7208 17.4993 19.9146 18.8597 20.6552 19.6994C21.6303 20.7988 21.9289 21.1281 22.0165 21.2219L22.1796 21.3898C22.5672 21.7832 22.5632 22.4162 22.1698 22.8039C21.7765 23.1914 21.1434 23.1864 20.7558 22.7931C20.6593 22.6952 20.6159 22.6513 20.5644 22.5969L20.5605 22.5929C20.4905 22.5182 20.3335 22.3404 19.954 21.9152C19.7951 22.0152 19.6069 22.0731 19.4052 22.0695C14.2656 21.9779 9.25884 21.8891 6.59073 21.7912C3.97775 21.6953 3.49843 21.5953 3.13565 21.464L3.12101 21.4592L3.10733 21.4533C3.06964 21.4384 3.03108 21.4244 2.98331 21.4084C2.94396 21.3952 2.87043 21.3718 2.80753 21.3488C2.67054 21.2986 2.4462 21.2064 2.23526 21.0119C2.05785 20.8483 1.76426 20.5695 1.56046 20.0422C1.39207 19.6064 1.19269 19.0174 1.07022 18.3273C0.997183 17.9155 0.946814 17.468 0.906161 15.7756C0.865506 14.0828 0.822017 11.1664 0.825107 9.65252C0.826724 8.86013 0.826808 8.4114 0.82999 8.14666C0.833018 7.89497 0.837929 7.73386 0.871005 7.5617C0.884391 7.49198 0.911034 7.34136 0.94913 7.20623C0.985184 7.07848 1.06729 6.82622 1.26944 6.60271L1.35831 6.50994C1.4563 6.41622 1.58284 6.31961 1.7587 6.23064C1.95611 6.13082 2.19144 6.05358 2.47159 5.98162C2.77642 5.90333 3.26491 5.78498 3.68155 5.68377C3.46415 5.4579 3.25367 5.23337 3.05655 5.01385C2.23097 4.09437 1.65576 3.30077 1.10733 2.5451C0.783528 2.09821 0.883347 1.47288 1.32999 1.14861ZM5.35636 7.31463C5.21858 7.35652 5.04473 7.40752 4.64444 7.50701C4.15898 7.62767 3.40455 7.80619 2.96866 7.91814C2.91678 7.93148 2.87262 7.9452 2.83487 7.95623C2.83327 7.98839 2.83141 8.05251 2.82999 8.17107C2.82697 8.42254 2.82675 8.85293 2.82511 9.65642C2.82207 11.1464 2.86475 14.0442 2.90518 15.7277C2.9456 17.4103 2.99448 17.7269 3.03897 17.9777C3.13102 18.4965 3.28393 18.9546 3.42569 19.3215C3.45069 19.3861 3.47266 19.4182 3.48624 19.4357C3.49709 19.4497 3.51154 19.4614 3.53409 19.4836C3.55439 19.4904 3.58019 19.4995 3.62003 19.5129C3.67305 19.5307 3.74019 19.5542 3.81534 19.5832C3.82594 19.587 3.96573 19.6932 6.66397 19.7922C9.1122 19.882 13.5646 19.9634 18.2997 20.048C17.6762 19.3383 16.9973 18.5638 16.5653 18.0627C16.0197 17.4296 15.8949 17.2666 14.9989 16.3722C14.9313 16.5211 14.8472 16.6971 14.746 16.8429L14.6864 16.9299L14.6093 17.0021C14.4318 17.1687 14.2164 17.3048 13.9208 17.4308C13.4467 17.6329 12.7235 17.8157 11.6942 17.8146C11.4628 17.8144 11.1161 17.8209 10.8153 17.8127C10.5223 17.8046 10.1408 17.7818 9.80948 17.6838C8.92835 17.4229 7.99712 16.9482 7.61222 16.047C7.38246 15.509 7.06717 14.8096 7.02823 14.048C7.00895 13.6701 6.97822 12.9688 7.03702 12.466C7.13161 11.6585 7.43458 10.917 8.07706 9.97283C8.11188 9.92167 8.1513 9.87475 8.19327 9.8322C7.11974 8.8565 6.55122 8.39401 5.8046 7.72576C5.65802 7.59456 5.50935 7.45568 5.35636 7.31463ZM8.85636 2.0031C9.09639 2.02061 9.33792 2.03784 10.1161 2.06072C10.8723 2.08295 12.2517 2.11257 13.0038 2.13592C13.9904 2.16655 14.4126 2.21359 14.7636 2.24822C14.9338 2.26501 15.1306 2.31131 15.3232 2.42595C15.5118 2.53828 15.625 2.67633 15.665 2.72478C15.8115 2.90275 15.9135 3.11896 16.0868 3.48943C16.2813 3.90514 16.6193 4.64738 16.8075 5.05974C16.8145 5.05999 16.8218 5.06047 16.829 5.06072C17.2869 5.07647 18.0997 5.08697 18.5937 5.09783C19.2568 5.11241 19.8357 5.2133 20.537 5.34783C21.1137 5.45845 21.4485 5.62766 21.6747 5.78728C22.0179 6.0295 22.1817 6.34642 22.2792 6.62615C22.3592 6.85554 22.4267 7.16333 22.4941 7.44451C22.6266 7.99825 22.8005 8.93935 22.9052 9.54119C23.0148 10.1713 23.0428 10.4766 23.1386 11.215C23.236 11.9657 23.4073 13.1983 23.5146 13.9279L23.6308 14.6506C23.7221 15.2406 23.7447 15.4729 23.7616 15.6916L23.7626 15.7004C23.764 15.7212 23.7656 15.7433 23.7665 15.759C23.7676 15.7761 23.7685 15.7905 23.7694 15.8039C23.7713 15.8301 23.773 15.8503 23.7753 15.8674C23.8482 16.4145 23.464 16.9181 22.9169 16.9914C22.3699 17.0643 21.8663 16.6799 21.7929 16.133C21.7766 16.0113 21.77 15.8863 21.7675 15.8449C21.7518 15.6411 21.7309 15.3922 21.5419 14.256L21.54 14.2463L21.539 14.2375C21.4304 13.5004 21.255 12.2425 21.1552 11.4728C21.053 10.6853 21.0342 10.4575 20.9345 9.88396C20.8298 9.28188 20.6651 8.39651 20.5487 7.91033C20.5066 7.73428 20.4785 7.61187 20.4501 7.49724C20.438 7.44828 20.4248 7.40928 20.4159 7.37713C20.361 7.35871 20.2789 7.33431 20.161 7.3117C19.4674 7.17863 19.0311 7.10841 18.5497 7.09783C18.089 7.0877 17.2334 7.07502 16.7607 7.05877C16.5274 7.05075 16.346 7.04128 16.2069 7.02361C16.0586 7.00474 15.8638 6.96707 15.664 6.84783C15.411 6.69681 15.2833 6.49379 15.2089 6.35564C15.1525 6.25083 15.0826 6.09595 14.997 5.90838C14.8076 5.49351 14.4675 4.74794 14.2753 4.33709C14.252 4.2873 14.2301 4.24385 14.2118 4.20525C13.9346 4.18073 13.5631 4.15422 12.9423 4.13494C12.1499 4.11034 10.8849 4.0841 10.0566 4.05974C9.25122 4.03606 8.98145 4.0169 8.71183 3.99724C8.16142 3.95696 7.74734 3.47828 7.78702 2.92791C7.82717 2.37733 8.30584 1.96335 8.85636 2.0031ZM9.66397 11.1984C9.19778 11.9032 9.06866 12.3207 9.02433 12.6994C8.98842 13.0073 9.0045 13.5387 9.0253 13.9465C9.04255 14.2824 9.18326 14.6347 9.45108 15.2619C9.47058 15.3071 9.64056 15.5477 10.3769 15.7658C10.4385 15.7841 10.5936 15.806 10.87 15.8137C11.1387 15.821 11.397 15.8143 11.6962 15.8146C12.4852 15.8154 12.9365 15.6757 13.1357 15.591C13.1459 15.5866 13.1553 15.5803 13.164 15.5763C13.1815 15.5385 13.204 15.4946 13.2275 15.4416L13.2333 15.426L13.2411 15.4113C13.3229 15.2415 13.3333 15.2354 13.4101 15.0656C13.4368 15.0065 13.4687 14.9507 13.5048 14.8996C12.3422 13.7625 10.8631 12.3321 9.66397 11.1984Z" fill="black"/>
</g>
<defs>
<clipPath id="clip0_724_510">
<rect width="24" height="24" fill="white"/>
</clipPath>
</defs>
</svg>
