<svg width="24" height="24" viewBox="0 0 24 24" fill="none" xmlns="http://www.w3.org/2000/svg">
<g clip-path="url(#clip0_724_503)">
<path d="M9.95779 1.95474C10.5208 1.95574 11.5572 1.96789 12.3972 1.98794C13.239 2.00804 13.8608 2.03576 14.3094 2.06509C14.6594 2.08799 14.962 2.12135 15.2078 2.17935C15.3851 2.2212 15.6995 2.31081 15.9549 2.5563L16.0603 2.67154L16.2566 2.93521C16.3338 3.04289 16.4199 3.1663 16.5076 3.2897C16.6982 3.55787 16.9352 3.88749 17.2078 4.24478C17.4437 4.55398 17.5808 4.69552 17.698 4.80825C17.7056 4.80919 17.7137 4.81117 17.7224 4.81216C17.7945 4.82023 17.894 4.8278 18.032 4.83462C18.5566 4.8605 19.5461 4.85283 20.1512 4.86001C20.9063 4.86899 21.4348 4.92539 21.9051 5.02896C22.6404 5.19097 23.0698 5.79308 23.2703 6.11001C23.5032 6.4783 23.5687 6.83957 23.6004 6.98599C23.6715 7.31501 23.7893 7.71953 23.9119 9.32193C24.0184 10.7145 24.1174 13.2936 24.1648 14.8444C24.2129 16.4156 24.1829 16.9303 24.1482 17.3229C24.0748 18.1554 23.9964 18.5139 23.8455 19.3444C23.704 20.1224 23.2071 20.8402 22.781 21.2711C22.5455 21.5093 22.2582 21.6097 22.0994 21.6598C21.9224 21.7157 21.6978 21.7682 21.4656 21.8229C21.0058 21.9312 20.3756 21.9822 18.7469 21.9997C17.0854 22.0175 14.3161 21.9799 11.9646 21.9274C9.60868 21.8748 7.74257 21.8077 6.73123 21.7653C5.63343 21.7192 5.11886 21.6744 4.55154 21.6442C4.17526 21.6241 3.64827 21.5504 3.21853 21.5084C2.54212 21.4424 1.83018 21.2631 1.35232 20.9879C0.943038 20.752 0.739956 20.3966 0.647245 20.0436C0.577899 19.7791 0.559318 19.4548 0.5408 19.2204C0.49865 18.6865 0.463005 17.7139 0.446073 17.1696C0.427264 16.5645 0.442746 16.3948 0.513456 15.3395C0.584433 14.2802 0.715033 12.2707 0.791776 11.1842C0.890332 9.78903 0.918915 9.62758 0.94412 9.03775C0.976729 8.27484 1.01178 7.95957 1.06717 7.63638C1.15992 7.09578 1.49298 6.61708 1.58572 6.46353L1.66482 6.34634C1.85746 6.08664 2.10821 5.91893 2.27127 5.82193C2.42187 5.73236 2.57893 5.65774 2.7156 5.59732C2.88692 5.3997 3.13599 5.26893 3.41775 5.25357C3.63749 5.24162 3.98403 5.23338 5.77224 5.2145C6.01737 5.21191 6.15688 5.1983 6.24197 5.18521L6.2449 5.18423C6.25408 5.16676 6.26713 5.14816 6.2781 5.12564C6.32621 5.02684 6.37396 4.91573 6.43045 4.78286C6.48095 4.66408 6.54645 4.50848 6.61502 4.37368C6.78579 4.03808 7.06668 3.65817 7.60623 3.0524C7.86196 2.7653 8.08086 2.5673 8.28885 2.4147C8.47822 2.2758 8.67722 2.16683 8.73416 2.13247L8.83377 2.07876C9.06501 1.96876 9.28 1.96158 9.38064 1.95767C9.50611 1.95279 9.69936 1.95428 9.95779 1.95474ZM9.47146 4.027C9.3974 4.08137 9.28157 4.17906 9.10037 4.38247C8.58402 4.96218 8.4462 5.18475 8.39724 5.28091C8.36608 5.34224 8.32838 5.42943 8.27029 5.56607C8.21808 5.68888 8.15046 5.84862 8.07596 6.00161C8.00324 6.15088 7.90375 6.33718 7.77322 6.50747C7.65375 6.66327 7.42496 6.91712 7.06131 7.03677C6.74357 7.14128 6.42814 7.2078 5.79275 7.2145C5.09082 7.22191 4.61713 7.22718 4.2908 7.23208C4.1711 7.30246 4.03558 7.3506 3.88846 7.36587C3.80208 7.37481 3.75304 7.38024 3.72049 7.38443C3.69183 7.38812 3.67301 7.39053 3.64529 7.39517C3.61053 7.40098 3.58079 7.407 3.55642 7.41177C3.45108 7.45735 3.36213 7.5 3.29373 7.54068C3.27859 7.54968 3.26686 7.55792 3.2576 7.56411C3.18627 7.68064 3.14248 7.74921 3.09646 7.83658C3.0498 7.9252 3.03945 7.96552 3.03787 7.97427C3.00263 8.17994 2.97301 8.40213 2.94217 9.12368C2.91559 9.74527 2.87976 10.0102 2.78689 11.3249C2.71046 12.4069 2.58114 14.4049 2.50955 15.4733C2.43775 16.5449 2.42983 16.6172 2.4451 17.1081C2.46228 17.6602 2.4962 18.5849 2.53396 19.0631C2.543 19.1776 2.55058 19.2652 2.5574 19.3395C2.75482 19.4073 3.05337 19.4831 3.41287 19.5182C4.00433 19.5759 4.32407 19.6293 4.65799 19.6471C5.30579 19.6817 5.71419 19.721 6.81521 19.7672C7.81387 19.8091 9.66714 19.8761 12.0096 19.9284C14.3565 19.9807 17.0985 20.0171 18.7254 19.9997C20.3848 19.9819 20.7961 19.9252 21.0066 19.8756C21.1315 19.8462 21.2315 19.8227 21.3162 19.8014C21.3727 19.7872 21.4166 19.7741 21.451 19.7643C21.665 19.5164 21.8381 19.2041 21.8777 18.986C22.0329 18.1322 22.0922 17.8701 22.156 17.1471C22.181 16.8638 22.2126 16.4353 22.1658 14.9049C22.1183 13.352 22.0203 10.8165 21.9178 9.47525C21.8041 7.98973 21.7045 7.67805 21.6463 7.40884C21.6072 7.22792 21.5969 7.20631 21.5799 7.17935C21.5121 7.07227 21.4577 7.00669 21.4207 6.97134C21.1303 6.91165 20.7531 6.86746 20.1277 6.86001C19.6077 6.85384 18.5062 6.86085 17.9344 6.83267C17.3564 6.80415 16.8523 6.75612 16.4295 6.3649C16.2107 6.16241 15.9948 5.95171 15.6179 5.45767C15.3253 5.07401 15.0732 4.72298 14.8777 4.4479C14.7752 4.3037 14.6934 4.19238 14.6326 4.10708C14.5345 4.09228 14.3892 4.07393 14.1795 4.06021C13.7672 4.03325 13.1742 4.00764 12.3494 3.98794C11.5224 3.9682 10.5006 3.95571 9.95389 3.95474C9.81204 3.95449 9.70677 3.95364 9.62185 3.95376C9.60715 3.95378 9.59342 3.95371 9.58084 3.95376C9.54423 3.97551 9.51441 3.9955 9.47146 4.027ZM11.2049 8.3356C11.5925 8.34041 11.9908 8.34584 12.3357 8.37271C12.6512 8.39731 13.0642 8.44755 13.4109 8.61392C14.0226 8.90763 14.6303 9.38113 14.8963 9.63247C14.9842 9.71572 15.0524 9.8122 15.1033 9.9147C15.4212 10.2193 15.6452 10.4631 15.8797 10.7799L16.031 10.9909L16.073 11.0524L16.1053 11.1198C16.333 11.5842 16.6599 12.2885 16.7205 12.9831C16.7547 13.376 16.7927 13.9804 16.534 14.6959C16.3197 15.2883 15.9982 15.984 15.3455 16.5016C15.057 16.7304 14.7883 16.9371 14.5535 17.0983C14.3429 17.2429 14.064 17.4195 13.7713 17.5036C13.3818 17.6154 12.9573 17.7375 12.4285 17.7399C12.0099 17.7417 11.6075 17.7376 11.2615 17.7155C10.942 17.695 10.565 17.6545 10.2517 17.5358C9.8186 17.3716 9.30447 17.1747 8.93631 16.8698C8.57902 16.5737 8.07846 16.1688 7.78885 15.7428C7.70282 15.6163 7.5054 15.3485 7.35721 15.0944C7.19777 14.8209 7.02459 14.4557 6.96756 14.0192C6.90128 13.5118 6.86691 13.027 6.87283 12.5954C6.87856 12.1801 6.92237 11.7443 7.05545 11.3727C7.25749 10.8088 7.68897 10.0324 8.3406 9.41177C8.64075 9.12591 9.00019 8.79143 9.52127 8.61587C9.92128 8.48111 10.4685 8.3265 11.2049 8.3356ZM11.1804 10.3356C10.7564 10.3304 10.4481 10.4143 10.1599 10.5114C10.1045 10.53 10.0293 10.565 9.71951 10.86C9.32525 11.2355 9.05082 11.7334 8.93826 12.0475C8.91398 12.1155 8.87637 12.2958 8.87185 12.6227C8.86758 12.9337 8.89338 13.3197 8.95096 13.7604C8.95991 13.8285 8.99385 13.9306 9.08475 14.0866C9.18728 14.2624 9.28567 14.3886 9.44217 14.6188C9.53485 14.7551 9.7638 14.9586 10.2117 15.3297C10.2745 15.3818 10.4472 15.471 10.9607 15.6657C10.9678 15.6677 11.0003 15.6766 11.0672 15.6872C11.1473 15.6998 11.2537 15.7107 11.3894 15.7194C11.6633 15.7369 12.0078 15.7417 12.4187 15.7399C12.6398 15.7389 12.8235 15.6954 13.2195 15.5817C13.1752 15.5944 13.2236 15.5858 13.4217 15.4499C13.5957 15.3303 13.8178 15.1598 14.1023 14.9342C14.3135 14.7667 14.4779 14.4998 14.6531 14.0153C14.761 13.7168 14.7552 13.4665 14.7283 13.1569C14.7053 12.8938 14.5621 12.5241 14.3445 12.0729C14.089 11.7098 13.8989 11.5113 13.2351 10.9098C13.2287 10.9045 13.2228 10.8994 13.2176 10.8952C13.2163 10.8942 13.2148 10.8931 13.2137 10.8922C13.0414 10.8169 12.8996 10.6989 12.7976 10.5543C12.7135 10.5039 12.6284 10.4564 12.5457 10.4167C12.5613 10.4242 12.4761 10.3899 12.1804 10.3668C11.9133 10.346 11.584 10.3406 11.1804 10.3356Z" fill="black"/>
</g>
<defs>
<clipPath id="clip0_724_503">
<rect width="24" height="24" fill="white"/>
</clipPath>
</defs>
</svg>
