<svg width="24" height="24" viewBox="0 0 24 24" fill="none" xmlns="http://www.w3.org/2000/svg">
<path d="M11.8276 4.06982C12.051 4.04663 12.2389 4.09917 12.3062 4.11865C12.4851 4.17053 12.6704 4.25806 12.8228 4.33838C13.1408 4.50613 13.5336 4.761 13.8521 5.04248C14.3555 5.48756 15.1776 6.23059 16.2231 7.09131C17.2344 7.92377 18.5525 8.94298 19.4214 9.68213C20.3075 10.4359 20.8687 11.0084 21.1431 11.3882C21.2144 11.4869 21.2919 11.607 21.3511 11.7427C21.4086 11.8746 21.4802 12.0938 21.4497 12.3608C21.4151 12.6623 21.2679 12.8827 21.1284 13.021C21.0669 13.082 21.0096 13.1254 20.9751 13.1499C20.9439 13.1721 20.9108 13.1928 20.9077 13.1948C20.814 13.2557 20.7115 13.3282 19.7632 13.9155C18.814 14.5034 17.1023 15.5553 15.7065 16.52C14.3189 17.4792 13.2693 18.3307 12.7231 18.7808C12.4845 18.9774 12.2726 19.157 12.1382 19.2476C12.0979 19.2747 12.0175 19.3275 11.9136 19.3706C11.8284 19.406 11.5724 19.5022 11.2524 19.4204C10.8689 19.3222 10.6696 19.0476 10.5864 18.8794C10.5175 18.7399 10.4959 18.6115 10.4917 18.5894C10.4587 18.4147 10.459 18.2131 10.4644 17.8931C10.4704 17.5324 10.4877 16.9115 10.5249 15.813C10.5325 15.5876 10.5413 15.3431 10.5503 15.0835C9.55564 15.5524 7.99724 16.2836 6.95752 16.8169C5.80048 17.4104 5.35728 17.7011 5.15479 17.8667C5.00769 17.987 4.90576 18.0922 4.8335 18.1714C4.81762 18.1888 4.74203 18.2738 4.71533 18.3022C4.69745 18.3213 4.6506 18.3715 4.59033 18.4214C4.55996 18.4465 4.49972 18.494 4.41748 18.5386C4.34618 18.5772 4.17158 18.6615 3.93213 18.6616C3.82705 18.6616 3.61788 18.6458 3.3999 18.5112C3.17724 18.3736 3.06114 18.1847 3.00439 18.0552C2.91821 17.8582 2.91682 17.6713 2.9165 17.6646C2.91278 17.5834 2.91533 17.4677 2.91748 17.3726C2.92279 17.1381 2.93292 16.6923 2.93115 15.8481C2.92756 14.1371 2.91668 10.8589 2.89014 9.0376C2.8637 7.22435 2.82309 6.89168 2.80713 6.72998C2.79991 6.65682 2.78507 6.51146 2.7915 6.38623C2.7926 6.36217 2.79645 6.08397 2.98584 5.8208C3.11185 5.64585 3.30384 5.49808 3.54736 5.43311C3.70846 5.39025 3.8496 5.39527 3.94775 5.40869L4.03174 5.42334L4.16064 5.46143C4.27867 5.50422 4.35899 5.55637 4.37744 5.56787C4.41873 5.59361 4.4644 5.62498 4.49756 5.64795C4.57641 5.70257 4.70028 5.78968 4.92529 5.94287C5.37502 6.24905 6.18755 6.79128 7.22314 7.38135C8.27294 7.97949 9.50276 8.60233 10.2651 9.00439C10.458 9.10613 10.6207 9.1928 10.7603 9.26904C10.7839 8.62265 10.8044 8.03749 10.8218 7.56396C10.8958 5.55104 10.896 5.22631 10.896 5.09619C10.896 4.84234 10.9927 4.54094 11.2505 4.31787C11.4717 4.12667 11.7101 4.08207 11.8276 4.06982ZM12.8208 7.63818C12.7466 9.65458 12.5984 13.6818 12.5239 15.8804C12.5177 16.0636 12.5134 16.2333 12.5083 16.3901C13.0657 15.9557 13.7622 15.4321 14.5688 14.8745C16.0149 13.875 17.7746 12.7943 18.7095 12.2153C18.8267 12.1427 18.9297 12.0755 19.022 12.0181C18.8029 11.804 18.51 11.5327 18.1255 11.2056C17.2466 10.458 16.0658 9.55241 14.9517 8.63525C14.0777 7.91579 13.3519 7.27107 12.8472 6.82275C12.839 7.0589 12.8322 7.32946 12.8208 7.63818ZM4.89014 9.00928C4.91586 10.7745 4.92618 13.8837 4.93018 15.6392C5.23252 15.4668 5.59682 15.2672 6.04443 15.0376C7.22418 14.4324 9.03915 13.5878 9.97314 13.146C10.282 12.9999 10.4895 12.8969 10.6313 12.8276C10.6455 12.4324 10.6608 12.0301 10.6753 11.6294C10.6614 11.6175 10.6425 11.6011 10.6177 11.5806C10.551 11.5253 10.448 11.4412 10.3032 11.3276C10.2185 11.2612 10.0837 11.1696 9.33154 10.7729C8.61459 10.3948 7.32009 9.73907 6.23291 9.11963C5.72413 8.82974 5.2669 8.54996 4.87549 8.30225C4.87986 8.51051 4.88629 8.74534 4.89014 9.00928Z" fill="black"/>
</svg>
