<svg width="24" height="24" viewBox="0 0 24 24" fill="none" xmlns="http://www.w3.org/2000/svg">
<path d="M13.1401 3.76051C13.1534 3.76105 13.167 3.76332 13.1802 3.76441C13.1977 3.76581 13.2156 3.76702 13.2329 3.7693C13.2492 3.77148 13.2656 3.77509 13.2817 3.77809C13.3681 3.79397 13.4509 3.81979 13.5278 3.85621C13.6689 3.92287 13.7973 4.02301 13.8979 4.15602C13.9481 4.2223 13.9896 4.28381 14.022 4.3318C14.0574 4.38418 14.0784 4.41606 14.105 4.45387C14.1489 4.51615 14.2051 4.58985 14.3052 4.69606C14.5741 4.98125 14.9566 5.36252 15.2183 5.63258C15.4701 5.89244 15.51 5.94548 15.8042 6.21363C16.1115 6.49376 16.6549 6.96998 17.3872 7.53688C18.1249 8.10793 19.021 8.74725 19.7583 9.21266C20.4925 9.67606 21.0521 9.96012 21.4331 10.1668C21.5829 10.248 21.8279 10.3785 22.0093 10.5476C22.1175 10.6486 22.2642 10.8165 22.3452 11.0632C22.4312 11.3254 22.4087 11.5683 22.356 11.7537C22.2653 12.0718 22.0602 12.3111 21.9233 12.4597C21.7657 12.631 21.5499 12.8344 21.2788 13.0789C20.7269 13.5766 19.8579 14.3265 19.106 14.9275C18.728 15.2296 18.3863 15.4892 18.061 15.7351C17.7339 15.9825 17.4264 16.2137 17.1011 16.4705C16.4483 16.9858 15.7478 17.5834 15.2095 18.0945C14.9417 18.3487 14.7127 18.5824 14.52 18.78C14.347 18.9575 14.1562 19.1555 14.0132 19.2781C13.9935 19.2949 13.881 19.3948 13.73 19.4675C13.5527 19.5527 13.1018 19.6947 12.6626 19.3787C12.349 19.1528 12.2645 18.8292 12.2456 18.7595C12.2132 18.6397 12.1983 18.52 12.1899 18.4304C12.1581 18.0883 12.157 17.4374 12.1538 16.3504C12.1473 14.1074 12.138 9.8491 12.1372 7.57789C12.1368 6.44952 12.1256 5.82202 12.1157 5.44606C12.1069 5.10796 12.0952 4.90393 12.1001 4.73121C12.107 4.49005 12.1991 4.27094 12.3462 4.10231C12.3906 4.05152 12.4407 4.00398 12.4966 3.96168C12.5121 3.94993 12.5294 3.94014 12.5454 3.92945C12.5537 3.92388 12.5623 3.91818 12.5708 3.91285C12.5865 3.903 12.6026 3.89341 12.6187 3.88453C12.6316 3.87742 12.6445 3.86961 12.6577 3.86305C12.6788 3.85263 12.7006 3.84354 12.7222 3.83473C12.7285 3.83212 12.7353 3.8294 12.7417 3.82691C12.7628 3.81878 12.7847 3.81204 12.8062 3.80543C12.818 3.80177 12.8302 3.79792 12.8423 3.79469C12.8584 3.79039 12.8749 3.78644 12.8911 3.78297C12.9062 3.77975 12.9217 3.77575 12.937 3.7732C12.989 3.76465 13.0419 3.76079 13.0942 3.76051C13.1054 3.76045 13.1172 3.75926 13.1284 3.75953C13.1322 3.75964 13.1364 3.76032 13.1401 3.76051ZM3.43506 5.06031C3.44798 5.06078 3.46123 5.0613 3.47412 5.06227C3.4964 5.06392 3.51867 5.067 3.54053 5.07008C3.5515 5.07164 3.56281 5.07303 3.57373 5.07496C3.58935 5.0777 3.60524 5.08029 3.62061 5.08375C3.63822 5.08774 3.65595 5.09249 3.67334 5.09742C3.69404 5.10331 3.71473 5.10979 3.73486 5.11695C3.73846 5.11828 3.742 5.12051 3.74561 5.12184C3.7622 5.12796 3.77924 5.13342 3.79541 5.14039C3.79941 5.14149 3.8043 5.14198 3.80908 5.14332C3.84391 5.1531 3.88519 5.16434 3.93701 5.17848C3.98679 5.19206 4.04408 5.20765 4.10303 5.22438C4.21723 5.25677 4.35858 5.29866 4.48877 5.34645C4.55377 5.37031 4.6318 5.40115 4.70947 5.43922C4.77322 5.47048 4.90284 5.53836 5.02686 5.65211C5.16179 5.77587 5.41235 5.99424 5.63525 6.18727H5.63428C5.80639 6.33533 5.99193 6.47672 6.23193 6.65992C6.4671 6.83944 6.74083 7.04878 7.05225 7.31031C7.43441 7.63128 7.91588 8.07483 8.17627 8.31715C8.4254 8.54899 8.46516 8.59116 8.90771 8.95484C9.35788 9.32478 10.2189 10.0221 10.7036 10.4353C11.1049 10.7775 11.3404 10.9963 11.5024 11.238L11.5679 11.3435L11.6187 11.4373C11.6818 11.5659 11.7691 11.7947 11.7515 12.0789C11.7265 12.4784 11.5155 12.7695 11.3306 12.9548C10.7932 13.4933 10.3328 13.8597 10.1265 14.0232C9.81894 14.2669 9.56788 14.4667 9.4126 14.6257C9.25868 14.7835 8.96497 15.1101 8.06885 15.7937C7.38708 16.3137 6.51884 16.9107 6.02295 17.3162C5.39653 17.8285 5.24142 17.9325 4.99072 18.2166C4.77553 18.4604 4.59637 18.6859 4.46533 18.8523C4.40532 18.9285 4.34088 19.011 4.29639 19.0652C4.28001 19.0851 4.23538 19.1396 4.18408 19.1902C4.1688 19.2052 4.14221 19.2306 4.10791 19.2586C4.08306 19.2788 4.00576 19.341 3.89307 19.3933C3.84637 19.415 3.41784 19.62 2.95654 19.3445C2.47333 19.0556 2.46858 18.5561 2.46826 18.489C2.46744 18.3036 2.51453 17.9549 2.54053 17.741C2.54335 17.7192 2.55071 17.7524 2.52588 15.824C2.50164 13.9415 2.45081 10.348 2.42529 8.43238C2.39983 6.52011 2.3999 6.28969 2.3999 6.05836C2.39993 6.04667 2.40145 6.03479 2.40186 6.0232C2.40232 6.01025 2.40284 5.99705 2.40381 5.98414C2.40546 5.96184 2.40854 5.93961 2.41162 5.91773C2.41318 5.90675 2.41457 5.89545 2.4165 5.88453C2.41927 5.86884 2.42279 5.85309 2.42627 5.83766C2.43023 5.82012 2.43405 5.80223 2.43896 5.78492C2.45342 5.73409 2.4717 5.68465 2.49365 5.63746C2.49809 5.62796 2.50358 5.61853 2.5083 5.60914C2.51563 5.59466 2.52374 5.58024 2.53174 5.56617C2.54022 5.55119 2.54881 5.53583 2.55811 5.52125C2.56715 5.50712 2.5767 5.49289 2.58643 5.47926C2.59631 5.4654 2.60703 5.45165 2.61768 5.43824C2.62464 5.42947 2.6319 5.42041 2.63916 5.41188C2.65262 5.39607 2.66658 5.38007 2.68115 5.365C2.6905 5.35534 2.70073 5.34597 2.71045 5.33668C2.72332 5.32443 2.73685 5.31221 2.75049 5.30055C2.76444 5.28859 2.77886 5.27658 2.79346 5.26539C2.79967 5.26058 2.80563 5.25441 2.81201 5.24977C2.81499 5.24769 2.81883 5.246 2.82178 5.24391C2.83946 5.23134 2.85795 5.21919 2.87646 5.20777C2.88832 5.20047 2.90055 5.19304 2.9126 5.18629C2.92682 5.17835 2.94191 5.1711 2.95654 5.16383C2.96987 5.15718 2.98305 5.1493 2.99658 5.14332C3.01686 5.13439 3.03812 5.12651 3.05908 5.11891C3.06864 5.11545 3.07875 5.1123 3.08838 5.10914C3.10114 5.10497 3.11446 5.1011 3.12744 5.09742C3.14966 5.09114 3.17236 5.08552 3.19482 5.08082C3.20311 5.0791 3.21185 5.07746 3.22021 5.07594C3.23925 5.07248 3.25869 5.06949 3.27783 5.06715C3.29965 5.0645 3.32201 5.06251 3.34424 5.06129C3.35518 5.0607 3.36649 5.06055 3.37744 5.06031C3.38479 5.0601 3.39252 5.05836 3.3999 5.05836C3.41155 5.05839 3.4235 5.05991 3.43506 5.06031ZM14.1372 7.57691C14.138 9.84547 14.1473 14.1019 14.1538 16.3445V16.3474C14.6828 15.8653 15.2922 15.3498 15.8618 14.9002C16.2071 14.6276 16.5335 14.3824 16.855 14.1394C17.1784 13.8949 17.5015 13.6491 17.8569 13.365C18.5595 12.8034 19.3807 12.0947 19.9106 11.6179C19.5788 11.4369 19.1629 11.202 18.6909 10.9041C17.8877 10.397 16.9384 9.7185 16.1626 9.11793C15.3814 8.51315 14.7968 8.00228 14.4565 7.69215C14.3165 7.56449 14.2185 7.46783 14.1353 7.38551C14.1353 7.44767 14.1372 7.51154 14.1372 7.57691ZM4.42529 8.40602C4.45074 10.317 4.50165 13.9159 4.52588 15.7976C4.52657 15.8512 4.52621 15.9041 4.52686 15.9548C4.59964 15.8961 4.67646 15.8335 4.75732 15.7673C5.25972 15.3566 6.33155 14.6039 6.85596 14.2039C7.64537 13.6017 7.86396 13.3492 7.98096 13.2293C8.24618 12.9575 8.61706 12.6676 8.88428 12.4558C9.00063 12.3636 9.19662 12.2051 9.43994 11.988C9.42872 11.9784 9.41757 11.9678 9.40576 11.9578C8.93928 11.5601 8.11257 10.8906 7.63818 10.5007C7.15665 10.105 7.08596 10.0341 6.81396 9.78102C6.55303 9.53819 6.10496 9.12714 5.76611 8.84254C5.49311 8.61326 5.25143 8.42791 5.01807 8.24977C4.81993 8.09852 4.61705 7.94102 4.41846 7.77516C4.42086 7.96186 4.42217 8.17147 4.42529 8.40602ZM4.03271 5.28492C4.03178 5.28416 4.0307 5.28276 4.02979 5.28199C4.02742 5.28008 4.02432 5.27893 4.02197 5.27711C4.02541 5.27983 4.02932 5.28214 4.03271 5.28492Z" fill="black"/>
</svg>
