<svg width="24" height="24" viewBox="0 0 24 24" fill="none" xmlns="http://www.w3.org/2000/svg">
<path d="M16.4772 0.867672C19.1304 0.849557 19.6758 0.878357 20.2398 1.03857C21.1826 1.30642 21.7792 1.67362 22.0221 1.84521C22.2492 2.0058 22.3826 2.20568 22.4635 2.35595C22.5384 2.4952 22.5942 2.64381 22.6285 2.73486C22.6981 2.91946 22.7278 3.09205 22.7516 3.36962C22.7748 3.64154 22.7981 4.08911 22.8268 4.86279C22.8845 6.42179 22.9596 9.38239 22.9576 12.0698C22.9556 14.761 22.874 17.0847 22.8199 18.3413C22.7657 19.6021 22.7405 19.7479 22.7164 19.9517C22.6725 20.3237 22.6243 20.6532 22.5621 20.9282C22.5041 21.1848 22.4143 21.4913 22.2398 21.7524C22.0416 22.0488 21.7453 22.2011 21.6139 22.2671C21.4481 22.3503 21.2371 22.4367 21.027 22.5229C20.5583 22.7151 19.9322 22.8433 18.0113 22.9722C16.0574 23.1033 12.6549 23.22 10.8404 23.272C9.01829 23.3242 8.84319 23.3095 8.49375 23.2935C8.20926 23.2804 7.69768 23.2654 6.80723 23.2192C5.90653 23.1726 4.59867 23.0933 3.89903 23.0444C3.47255 23.0146 3.12836 22.9534 2.81797 22.8452C2.50792 22.7371 2.27589 22.5963 2.09727 22.4878C1.87278 22.3513 1.6914 22.1819 1.54649 21.9614C1.4283 21.7815 1.34772 21.5813 1.29551 21.4565C1.17911 21.1785 0.99639 20.6983 0.806255 20.0171C0.6146 19.3303 0.424079 18.4534 0.302348 17.3755C0.179197 16.2845 0.13313 15.0275 0.261333 13.103C0.388257 11.1982 0.690219 8.65111 0.842387 7.33349C0.996262 6.00106 1.00766 5.80068 1.02403 5.67529C1.02424 5.67313 1.02461 5.6696 1.025 5.66552C1.02672 5.64755 1.02957 5.61876 1.03379 5.57959C1.04219 5.50174 1.05655 5.38416 1.0836 5.18505C1.1367 4.79428 1.245 4.0387 1.34825 3.48095L1.35118 3.46337L1.35508 3.4458C1.45107 3.01453 1.53347 2.69213 1.60215 2.46142C1.63604 2.34763 1.67104 2.24103 1.70762 2.14892C1.72502 2.10517 1.7993 1.9089 1.95079 1.74267L1.95958 1.73291L2.04649 1.64697C2.13643 1.56548 2.24049 1.49337 2.38731 1.41162C2.58166 1.30347 2.79672 1.26787 3.00157 1.29443C3.17893 1.13368 3.41427 1.03478 3.67247 1.03466C3.74745 1.03466 3.82251 1.03493 6.32969 0.997555C8.82998 0.960281 13.7532 0.886275 16.4772 0.867672ZM9.24473 12.7563C9.22539 14.627 9.20787 16.4357 9.19786 17.7661C9.17631 20.6299 9.18832 21.1209 9.19395 21.3061C9.49005 21.3041 9.96191 21.2965 10.7828 21.2729C11.4674 21.2533 12.3726 21.2219 13.3365 21.187C13.323 20.9778 13.3085 20.7186 13.2955 20.3979V20.3892C13.2767 19.7904 13.2577 18.9041 13.3639 15.8745C13.3963 14.9479 13.4409 13.8329 13.4889 12.6597C12.0925 12.6912 10.623 12.7248 9.24473 12.7563ZM2.32481 17.4126C2.43333 18.2575 2.58254 18.9443 2.73204 19.48C2.89813 20.075 3.05334 20.4765 3.14024 20.6841C3.15537 20.7202 3.16789 20.7504 3.1793 20.7769C3.18517 20.7905 3.19028 20.8026 3.19493 20.813C3.32802 20.8927 3.39509 20.9282 3.47618 20.9565C3.56851 20.9887 3.72553 21.0275 4.0377 21.0493C4.7244 21.0973 6.02094 21.1761 6.91075 21.2222C7.0101 21.2273 7.10439 21.2295 7.19297 21.2339C7.18691 20.9376 7.17938 20.2068 7.19786 17.7515C7.19829 17.6944 7.19838 17.6364 7.19883 17.5776C6.85057 17.583 6.51463 17.586 6.36192 17.5884C6.26251 17.5899 6.20882 17.5916 6.11875 17.5942C6.02804 17.5969 5.91734 17.5994 5.72422 17.6011C5.34048 17.6044 4.62382 17.6051 3.84336 17.5552C3.30092 17.5205 2.74593 17.4609 2.32481 17.4126ZM20.7701 17.4604C20.5853 17.4604 20.4358 17.4604 20.3512 17.4634C20.2387 17.4673 20.1858 17.4756 19.3121 17.4819C18.4463 17.4882 16.808 17.4932 15.9664 17.4917C15.675 17.4912 15.4687 17.4883 15.316 17.4858C15.2676 19.2579 15.2811 19.886 15.2945 20.3169L15.3346 21.1079C16.2792 21.0668 17.1764 21.0241 17.8775 20.977C19.817 20.8469 20.1377 20.7259 20.2682 20.6724C20.38 20.6265 20.4719 20.5884 20.5494 20.5552C20.5669 20.5477 20.5832 20.5393 20.5982 20.5327C20.6017 20.5188 20.6072 20.5032 20.6109 20.4868C20.6499 20.3143 20.6888 20.067 20.7301 19.7173C20.7462 19.5806 20.7688 19.4888 20.8219 18.2554C20.8318 18.0241 20.842 17.7557 20.8531 17.4556C20.8259 17.4578 20.798 17.4604 20.7701 17.4604ZM5.07872 12.8511C3.48037 12.8877 2.68196 12.9054 2.28086 12.9145C2.27282 13.0234 2.26442 13.1309 2.25743 13.2358C2.20096 14.0835 2.18186 14.7824 2.18711 15.3833C2.5928 15.4333 3.29991 15.5161 3.97129 15.5591C4.68068 15.6044 5.3416 15.6042 5.70665 15.6011C5.8865 15.5995 5.98374 15.5974 6.06016 15.5952C6.13727 15.593 6.21387 15.5902 6.33165 15.5884C6.55512 15.5849 6.8524 15.5836 7.21836 15.5776C7.22635 14.7076 7.23482 13.7633 7.24473 12.8013C6.43365 12.8198 5.69616 12.8369 5.07872 12.8511ZM20.9537 12.4995C20.5776 12.505 19.7527 12.5203 17.9264 12.5601C17.2313 12.5752 16.4007 12.5944 15.4928 12.6147C15.4506 13.6425 15.4118 14.6288 15.3805 15.4868C15.5048 15.4884 15.6907 15.4912 15.9703 15.4917C16.8053 15.4932 18.4381 15.4882 19.2984 15.4819C20.1477 15.4758 20.1807 15.4679 20.2809 15.4644C20.4095 15.4598 20.6027 15.4604 20.7701 15.4604C20.8187 15.4604 20.8669 15.4645 20.9137 15.4712C20.9351 14.5801 20.9495 13.5735 20.9537 12.4995ZM2.73594 8.38818C2.65168 9.12185 2.55192 10.011 2.46153 10.9097C2.91077 10.8995 3.68801 10.8829 5.03282 10.852C5.66698 10.8375 6.4279 10.8204 7.26524 10.8013C7.27385 10.0169 7.28397 9.24681 7.29258 8.52197C7.24006 8.52061 7.1832 8.51963 7.12266 8.51806C6.26547 8.4959 4.5607 8.45149 3.63047 8.42236C3.15975 8.40761 2.89542 8.3964 2.73594 8.38818ZM13.9 2.89111C12.4483 2.90828 10.8385 2.93153 9.38145 2.95263C9.36899 3.29488 9.35036 4.05461 9.32579 5.80224C9.30784 7.07853 9.28696 8.87295 9.26622 10.7554C10.6674 10.7234 12.1598 10.6896 13.5719 10.6577C13.6585 8.61721 13.7465 6.61871 13.8033 5.30517C13.8578 4.04472 13.8831 3.41457 13.8941 3.09814C13.8977 2.99634 13.8991 2.9316 13.9 2.89111ZM20.901 7.50634C20.6827 7.54933 20.3672 7.6168 19.7779 7.75146C18.7918 7.97681 17.1139 8.36768 16.2731 8.56494C15.972 8.63557 15.78 8.68031 15.6578 8.70947C15.6312 9.32485 15.6032 9.96612 15.5758 10.6128C16.4342 10.5936 17.2198 10.5755 17.8824 10.561C19.7007 10.5214 20.5413 10.5062 20.9488 10.5005C20.9395 9.46404 20.9222 8.43453 20.901 7.50634ZM15.6969 8.65966C15.7007 8.65744 15.7056 8.65607 15.7096 8.6538C15.7122 8.65224 15.7148 8.64962 15.7174 8.64794C15.7108 8.65197 15.7036 8.65579 15.6969 8.65966ZM15.8385 8.56103L15.8414 8.56005C15.8792 8.52831 15.908 8.49851 15.9107 8.4956C15.8878 8.51893 15.8631 8.54043 15.8385 8.56103ZM16.4908 2.8667C16.3041 2.86797 16.107 2.8698 15.901 2.87158C15.9002 2.93276 15.8982 3.02554 15.8932 3.16845C15.8818 3.4945 15.8558 4.13251 15.8014 5.39111C15.7855 5.75753 15.7676 6.17651 15.7477 6.63427C15.7701 6.62901 15.7933 6.62421 15.817 6.61865C16.6589 6.42115 18.3409 6.02791 19.3326 5.80127C20.2136 5.59994 20.531 5.53423 20.8453 5.48291C20.8388 5.28571 20.8339 5.10268 20.8277 4.93603C20.799 4.16155 20.7771 3.75872 20.7584 3.54052C20.752 3.46585 20.7458 3.42327 20.7428 3.40185C20.7422 3.40028 20.7414 3.39849 20.7408 3.39697C20.5597 3.28901 20.2093 3.10908 19.693 2.9624C19.4708 2.89928 19.2727 2.8477 16.4908 2.8667ZM6.35997 2.99755C3.86531 3.03474 3.76699 3.03466 3.67247 3.03466C3.62895 3.03464 3.5856 3.03129 3.54356 3.02587C3.53347 3.03499 3.52284 3.04448 3.51231 3.05322C3.4644 3.21696 3.39856 3.47228 3.31504 3.84521L3.17442 4.6958C3.13041 4.98612 3.09125 5.26172 3.06504 5.45459C3.03946 5.64288 3.02784 5.74095 3.02207 5.79443C3.01931 5.82018 3.01786 5.83774 3.01622 5.85498C3.01469 5.87101 3.01181 5.90153 3.00743 5.93505C2.99762 6.01019 2.99375 6.06446 2.9586 6.39502C3.10964 6.40166 3.33916 6.41225 3.69297 6.42334C4.61656 6.45226 6.31532 6.49683 7.17442 6.51904C7.22426 6.52033 7.27172 6.52084 7.31602 6.52197C7.31951 6.25714 7.32251 6.00692 7.32579 5.77392C7.34756 4.22562 7.36448 3.42571 7.3795 2.98193C7.0094 2.98745 6.66643 2.99299 6.35997 2.99755ZM13.9498 3.11181L13.9664 3.15771C13.9571 3.13377 13.9503 3.10864 13.943 3.08447C13.9457 3.09351 13.9469 3.10304 13.9498 3.11181ZM13.9244 3.02002C13.9257 3.02562 13.9279 3.0311 13.9293 3.03662C13.9266 3.02595 13.9248 3.01507 13.9225 3.00439C13.9235 3.00937 13.9233 3.01484 13.9244 3.02002Z" fill="black"/>
</svg>
