<svg width="24" height="24" viewBox="0 0 24 24" fill="none" xmlns="http://www.w3.org/2000/svg">
<path d="M12.4023 1.98633C12.89 1.99533 13.3479 2.03627 13.8007 2.09766C14.2539 2.15909 14.7274 2.24455 15.2323 2.40527C15.7288 2.56331 16.2204 2.78392 16.5829 2.97656C17.2404 3.32591 17.6148 3.69077 17.911 4.01758C18.1213 4.24958 18.3229 4.53936 18.6132 5.01953C18.9073 5.50607 19.3058 6.22719 19.5517 6.69824C19.7273 7.03475 19.8404 7.27187 19.9179 7.43945C19.9476 7.50364 19.9924 7.60318 20.0028 7.62598L20.0126 7.64844L20.1034 7.83398C20.1286 7.89401 20.1483 7.94968 20.163 7.99121C20.1997 8.09472 20.239 8.21676 20.2782 8.34766C20.3571 8.61077 20.4491 8.9466 20.5468 9.32227C20.6367 9.66808 20.6483 9.84177 20.6845 10.0811C20.7301 10.3828 20.8173 10.914 20.8525 11.877C20.8868 12.8187 20.8694 14.1599 20.8241 15.1748C20.7783 16.2023 20.7041 16.869 20.6581 17.2559C20.6024 17.7252 20.5766 17.8857 20.539 18.125C20.4581 18.6395 20.3459 19.0147 20.3144 19.123C20.2663 19.2883 20.1523 19.6294 19.913 20.1484C19.7689 20.4609 19.6157 20.7263 19.4609 20.9365C19.3838 21.0411 19.2967 21.1458 19.1991 21.2383C19.1132 21.3197 18.9642 21.4457 18.7597 21.5254C18.449 21.6463 18.1083 21.6624 17.8954 21.667C17.6787 21.6716 17.3844 21.663 17.2216 21.6621C16.7925 21.6598 16.4204 21.6265 16.0624 21.5684C15.619 21.4961 15.3114 21.2072 15.1669 21.0566C14.9898 20.872 14.8411 20.6596 14.7294 20.4756C14.5934 20.2515 14.5176 20.0367 14.4735 19.8691C14.4466 19.7666 14.4197 19.6169 14.414 19.582C14.3782 19.4044 14.3339 18.9674 14.286 18.2939C14.2521 17.816 14.3097 17.2764 14.3319 17.0166C14.3799 16.4578 14.5242 15.9791 14.662 15.5625C14.8154 15.0989 15.053 14.717 15.3954 14.3682L15.4804 14.2891C15.6832 14.1135 15.9151 14.0059 16.0536 13.9443C16.2243 13.8685 16.4632 13.776 16.6337 13.7061L16.6503 13.6992L16.6679 13.6934C17.1359 13.521 17.6919 13.3581 18.1884 13.2334L18.1952 13.2314C18.3939 13.183 18.4956 13.1627 18.6718 13.1523C18.7389 13.1484 18.8049 13.1513 18.8691 13.1602C18.8705 12.7215 18.8673 12.3022 18.8544 11.9502C18.8234 11.0996 18.7486 10.6554 18.7069 10.3799C18.6559 10.0424 18.6656 10.0379 18.6103 9.82519C18.5152 9.45962 18.4309 9.15083 18.3622 8.92187C18.3278 8.80706 18.2995 8.72016 18.2782 8.66016C18.2662 8.62619 18.2591 8.60978 18.2577 8.60644L18.2831 8.65332C18.2417 8.58205 18.2065 8.50646 18.1864 8.46289C18.1532 8.39067 18.144 8.36916 18.1025 8.2793C18.037 8.1378 17.9377 7.92963 17.7782 7.62402C17.5457 7.17854 17.1689 6.49489 16.9023 6.05371C16.6321 5.60683 16.5082 5.44814 16.4286 5.36035C16.2315 5.14293 16.0348 4.95056 15.6444 4.74316C15.3693 4.59695 14.9891 4.42717 14.6259 4.31152C14.2711 4.19857 13.9213 4.13186 13.5321 4.0791C13.1428 4.02632 12.7636 3.99368 12.3661 3.98633C11.9571 3.97878 11.535 3.9965 11.248 4.00684C10.963 4.0171 10.8976 4.0166 10.6493 4.03906C10.3471 4.0664 9.96336 4.09493 9.56242 4.18555C9.08292 4.29392 8.7133 4.38459 8.455 4.45215C8.32582 4.48594 8.22488 4.51377 8.15324 4.53418C8.08306 4.55417 8.05253 4.56458 8.04972 4.56543C7.89014 4.62053 7.89834 4.60808 7.79679 4.66211C7.67516 4.72688 7.44233 4.87133 6.99503 5.21289C6.77786 5.37875 6.67068 5.48805 6.60636 5.56738C6.39869 5.82359 6.20671 6.09926 6.0507 6.43359C5.99394 6.55526 5.93136 6.69486 5.73039 7.51953C5.52738 8.3526 5.20329 9.7515 5.0507 10.501C4.86898 11.3935 4.82592 11.5814 4.75675 12.0322C4.7063 12.3611 4.6326 12.8698 4.59074 13.2031C4.64575 13.2095 4.74363 13.2191 4.92668 13.2285C5.36005 13.2507 5.92475 13.2637 6.40031 13.2861C6.87747 13.3087 7.19875 13.3647 7.4755 13.4951L7.59171 13.5557L7.72648 13.6436C8.01848 13.8606 8.17021 14.153 8.24894 14.3291C8.34684 14.5481 8.41903 14.7947 8.47257 14.9795C8.58363 15.3629 8.66377 15.9343 8.71671 16.4531C8.77385 17.0133 8.78815 17.581 8.77531 18.0127C8.75366 18.7388 8.65783 19.1186 8.59171 19.3418C8.53279 19.5408 8.44553 19.8904 8.26847 20.2451C7.95228 20.8783 7.47373 21.4053 7.17667 21.7061C7.01837 21.8663 6.87798 21.9791 6.73136 22.0664C6.50867 22.1988 6.29285 22.2129 6.2255 22.2168C6.12827 22.2225 6.0402 22.2173 5.97746 22.2109C5.84962 22.198 5.71201 22.1714 5.58488 22.1436C5.32472 22.0865 4.99229 21.996 4.62687 21.8916C4.24293 21.7819 3.95093 21.5672 3.73234 21.3652C3.52209 21.171 3.32623 20.9371 3.163 20.7432C2.49259 19.9466 2.47618 19.0575 2.44816 18.7959C2.41944 18.529 2.36128 18.0187 2.33195 17.4375C2.30279 16.8591 2.30336 16.234 2.31046 15.8545C2.32016 15.3379 2.35501 14.9769 2.3925 14.5088C2.41998 14.1655 2.46212 13.8869 2.50089 13.6543C2.54193 13.4082 2.57005 13.2631 2.58781 13.1074C2.62864 12.7491 2.72256 12.1042 2.78019 11.7285C2.85873 11.2167 2.91494 10.966 3.09074 10.1025C3.25071 9.31677 3.58156 7.88907 3.78703 7.0459C3.99425 6.19558 4.09402 5.89697 4.2382 5.58789C4.48362 5.06195 4.77762 4.64691 5.05265 4.30762C5.25049 4.0636 5.48963 3.8467 5.78117 3.62402C6.26384 3.25545 6.59592 3.03563 6.85734 2.89648C7.13731 2.74752 7.34817 2.6913 7.3964 2.6748C7.55073 2.6215 8.14024 2.45626 9.12199 2.23437C9.67867 2.10861 10.2081 2.07141 10.4687 2.04785C10.7827 2.01944 10.9094 2.01837 11.1757 2.00879C11.4405 1.99925 11.9261 1.97756 12.4023 1.98633ZM4.34464 15.1875C4.32737 15.4185 4.31541 15.628 4.31046 15.8916C4.30386 16.2438 4.30393 16.8199 4.33 17.3369C4.35596 17.8515 4.40657 18.3045 4.43644 18.582C4.48017 18.9886 4.48634 19.2092 4.69328 19.4551C4.87578 19.6719 4.98894 19.8033 5.08976 19.8965C5.14401 19.9466 5.17467 19.9651 5.18449 19.9707C5.46986 20.0522 5.70579 20.1142 5.88761 20.1582C6.10603 19.9227 6.33676 19.6381 6.47941 19.3525C6.55646 19.1982 6.58363 19.0776 6.67375 18.7734C6.69349 18.7068 6.75907 18.4977 6.77531 17.9531C6.78574 17.6023 6.77501 17.1227 6.72746 16.6562C6.67564 16.1484 6.60855 15.7326 6.55167 15.5361C6.52449 15.4423 6.50063 15.3649 6.47843 15.2969C6.43155 15.2929 6.37451 15.2874 6.30558 15.2842C5.98214 15.2689 5.1765 15.2436 4.82414 15.2256C4.60419 15.2143 4.45727 15.2011 4.34464 15.1875ZM18.789 15.1484C18.7814 15.1489 18.7763 15.1492 18.7734 15.1494C18.7694 15.1502 18.7639 15.1517 18.7568 15.1533C18.7371 15.1577 18.7096 15.1649 18.6689 15.1748L18.6679 15.1738C18.22 15.2865 17.7396 15.4302 17.3593 15.5703L17.3583 15.5693C17.261 15.609 17.1662 15.6477 17.0888 15.6787C16.9974 15.7154 16.9257 15.745 16.8661 15.7715C16.8286 15.7882 16.8019 15.8014 16.7841 15.8105C16.6719 15.9333 16.6087 16.0448 16.5605 16.1904C16.435 16.5697 16.3525 16.8687 16.3251 17.1875C16.2963 17.5231 16.2611 17.8701 16.2812 18.1523C16.3053 18.4915 16.3268 18.7467 16.3446 18.9258C16.3625 19.1056 16.374 19.1796 16.3749 19.1865C16.3805 19.2145 16.3852 19.2428 16.3876 19.2568C16.3907 19.275 16.393 19.2876 16.3954 19.3008C16.3998 19.3246 16.4037 19.3435 16.4081 19.3604C16.417 19.394 16.427 19.4187 16.4384 19.4375C16.4686 19.4873 16.501 19.535 16.5321 19.5771C16.5442 19.5934 16.5568 19.6071 16.5673 19.6201C16.7683 19.6455 16.9836 19.6608 17.2323 19.6621C17.5021 19.6635 17.6594 19.6721 17.8525 19.668C17.8712 19.6676 17.8889 19.6647 17.9052 19.6641C17.9564 19.5827 18.0242 19.4675 18.0966 19.3105C18.2977 18.8743 18.3753 18.6267 18.3935 18.5645C18.4194 18.4754 18.5019 18.1993 18.5624 17.8145C18.5981 17.5875 18.6212 17.4549 18.6728 17.0205C18.714 16.6735 18.779 16.0758 18.8222 15.1445C18.8112 15.1456 18.8001 15.1478 18.789 15.1484Z" fill="black"/>
</svg>
