<svg width="24" height="24" viewBox="0 0 24 24" fill="none" xmlns="http://www.w3.org/2000/svg">
<path d="M19.018 2.01153C19.1691 2.01464 19.2989 2.02037 19.4106 2.03497C19.567 2.05543 19.6691 2.09077 19.7348 2.11505C20.3267 2.33376 20.6328 2.48165 20.9321 2.76934C21.2013 3.02819 21.3517 3.34838 21.4468 3.58966C21.5441 3.83683 21.6296 4.12645 21.7065 4.38067C21.8364 4.81021 21.9446 5.43324 22.0063 5.76934C22.0781 6.15978 22.1027 6.3661 22.1157 6.53302C22.1296 6.71207 22.1275 6.84824 22.1196 7.74884C22.1114 8.68725 22.0944 10.5124 21.9272 12.6473C21.7605 14.7772 21.4454 17.1509 21.2778 18.3875C21.1103 19.6236 21.0933 19.7006 21.062 19.8729C21.0288 20.0554 20.9974 20.2347 20.9731 20.365C20.9607 20.4318 20.9481 20.4972 20.936 20.5535C20.9269 20.5964 20.9081 20.6812 20.8804 20.7625C20.7626 21.1073 20.5062 21.3048 20.4077 21.3768C20.273 21.4752 20.1233 21.556 19.9858 21.6209C19.7061 21.753 19.3503 21.8803 18.9575 21.9998C18.4257 22.1616 17.5659 22.2242 16.1899 22.2791C14.7442 22.3368 12.6068 22.3366 11.4585 22.3299C10.2925 22.323 10.1624 22.3089 9.74266 22.2918C9.33654 22.2753 8.59122 22.255 7.6743 22.1678C6.76329 22.0811 5.70718 21.9296 5.14989 21.8504C4.55339 21.7657 4.28226 21.7443 3.90965 21.7108C3.57256 21.6804 3.35758 21.5987 3.22215 21.5486C2.6305 21.3298 2.4381 20.8094 2.35985 20.5066C2.28487 20.2162 2.2367 19.8123 2.18114 19.3592C2.07147 18.4649 2.00789 16.8856 2.00047 14.8885C1.99299 12.8717 2.07613 10.4357 2.13133 9.06622C2.18706 7.68374 2.21362 7.42727 2.26512 6.74786C2.31597 6.077 2.39236 4.98219 2.43407 4.39044C2.45598 4.07945 2.47337 3.86732 2.49364 3.72052C2.51722 3.54991 2.55526 3.37685 2.6577 3.19122L2.71727 3.09552C2.86234 2.88671 3.04746 2.77482 3.14207 2.72345C3.26844 2.65487 3.40017 2.60781 3.51219 2.57306C3.73909 2.5027 4.03688 2.43801 4.40086 2.37286L4.42821 2.36895L4.45457 2.36505C4.91515 2.3081 5.63571 2.25198 6.12059 2.2088C6.22838 2.16906 6.3447 2.1463 6.46629 2.1463C6.47218 2.1463 6.4818 2.14654 6.7368 2.14337C6.92636 2.11889 7.05822 2.09767 7.20946 2.07306C7.39334 2.04314 7.5732 2.06708 7.73485 2.13067C7.97371 2.12763 8.25799 2.12328 8.59617 2.11895C10.6974 2.0921 14.8827 2.03858 17.0561 2.01739C18.1364 2.00686 18.7051 2.00511 19.018 2.01153ZM15.3159 12.0691C15.021 12.388 14.4851 12.9535 13.9888 13.4188C13.7405 13.6514 13.5046 13.8575 13.2261 14.1043C12.944 14.3543 12.5971 14.6644 12.105 15.1258C11.1099 16.0587 9.57732 17.5522 8.74754 18.3514C7.91803 19.1502 7.80916 19.2374 7.56981 19.4598C7.36925 19.6461 7.12838 19.8651 6.92821 20.0701C7.24169 20.1089 7.56208 20.1479 7.86375 20.1766C8.71421 20.2575 9.39678 20.2764 9.82371 20.2938C10.2368 20.3106 10.3395 20.3232 11.4702 20.3299C12.6188 20.3366 14.7147 20.3367 16.1098 20.2811C17.5745 20.2226 18.143 20.1565 18.3755 20.0858C18.6596 19.9993 18.8774 19.917 19.0327 19.8514C19.0501 19.7552 19.0706 19.6442 19.0942 19.5145C19.1165 19.3918 19.1289 19.3551 19.2964 18.119C19.3903 17.4258 19.5261 16.3919 19.6577 15.2537C19.515 15.1254 19.5341 15.1408 19.4839 15.0965C19.3814 15.0105 19.2716 14.912 18.6245 14.3875L17.3804 13.3924C16.9274 13.0355 16.4702 12.6876 16.1118 12.4539C15.8042 12.2534 15.5665 12.1038 15.3852 11.993C15.3632 12.0168 15.3403 12.0428 15.3159 12.0691ZM17.0757 4.01739C14.9061 4.03854 10.7244 4.09208 8.62157 4.11895C7.67871 4.131 7.1537 4.13676 6.85887 4.14044C6.74881 4.15342 6.62351 4.17132 6.47606 4.18536C5.92229 4.23808 5.20319 4.28925 4.71727 4.34845C4.61006 4.36788 4.51804 4.38682 4.43895 4.40313C4.43605 4.4422 4.43145 4.48507 4.42821 4.53106C4.38694 5.11668 4.31064 6.22039 4.25926 6.89825C4.20858 7.56692 4.18475 7.79772 4.13035 9.14727C4.07539 10.5111 3.99317 12.9101 4.00047 14.8807C4.00786 16.8706 4.07238 18.3474 4.16649 19.115C4.19667 19.3612 4.22026 19.5523 4.24266 19.7068C4.24394 19.7157 4.24532 19.7248 4.24657 19.7332C4.35438 19.7429 4.46162 19.7536 4.5786 19.7654C4.61364 19.7167 4.65798 19.6587 4.71043 19.5916C4.82128 19.4498 4.98445 19.2498 5.21239 18.9832C5.52599 18.6164 5.98475 18.2028 6.20848 17.9949C6.4648 17.7567 6.54739 17.6934 7.35985 16.9109C8.17269 16.1281 9.72868 14.6119 10.7368 13.6668C11.2461 13.1894 11.607 12.8659 11.8989 12.6072C12.1941 12.3456 12.3996 12.1668 12.6216 11.9588C13.0659 11.5423 13.5632 11.0178 13.8472 10.7108C14.0531 10.488 14.2054 10.3227 14.312 10.2166C14.3813 10.1476 14.5996 9.91819 14.9341 9.82989L15.0649 9.80352C15.3624 9.76401 15.6043 9.85818 15.6694 9.88263C15.8001 9.93166 15.9353 10.0006 16.063 10.0711C16.3241 10.2155 16.6922 10.4448 17.2036 10.7781C17.6137 11.0455 18.1295 11.4372 18.6177 11.8211L19.8677 12.8201L19.8755 12.827L19.9028 12.8494C19.913 12.7292 19.9248 12.6098 19.9341 12.491C20.0954 10.4296 20.1114 8.66263 20.1196 7.73126C20.1281 6.76658 20.1268 6.75464 20.1216 6.68731C20.1153 6.60717 20.1023 6.47222 20.0395 6.13067C19.9666 5.73382 19.8812 5.25364 19.7925 4.95977C19.7043 4.6684 19.6463 4.47514 19.5864 4.32306C19.5578 4.25041 19.5369 4.2114 19.5278 4.19513C19.5232 4.19232 19.5156 4.18744 19.5044 4.18145C19.4475 4.1512 19.3361 4.10263 19.104 4.01544C19.0767 4.01416 19.0352 4.01177 18.9761 4.01056C18.6999 4.0049 18.1657 4.00677 17.0757 4.01739ZM9.03563 5.65411C9.26713 5.67292 9.48919 5.72285 9.6577 5.76837C9.88642 5.83019 10.1283 5.91479 10.3003 6.00177C10.4502 6.07768 10.5726 6.18709 10.6636 6.31524C10.6943 6.32524 10.7182 6.33269 10.73 6.33673L10.769 6.3504C11.0201 6.44851 11.2047 6.57455 11.3598 6.71173L11.4302 6.7752L11.4888 6.84942C11.5201 6.88975 11.7031 7.10529 11.8325 7.40899C11.9703 7.73285 12.0447 8.13574 11.9761 8.61016C11.9002 9.13397 11.7745 9.9542 11.1567 10.6082C10.9802 10.7951 10.7534 11.0318 10.4497 11.2254C10.1283 11.4303 9.77253 11.5566 9.34715 11.6316C9.18261 11.6607 8.47328 11.8536 7.7241 11.6639C7.42072 11.587 7.08266 11.4846 6.78563 11.3397C6.52669 11.2133 6.09338 10.9583 5.88621 10.4705C5.77601 10.2107 5.66936 9.86045 5.68211 9.45977C5.68974 9.22171 5.70157 8.56084 5.99168 7.79962C6.10568 7.50058 6.24704 7.15946 6.47117 6.85821C6.7189 6.52543 7.03233 6.28566 7.42625 6.11309C7.67764 6.00299 7.91301 5.90015 8.10301 5.82501C8.19786 5.7875 8.29776 5.75078 8.39207 5.72149C8.46201 5.69978 8.62192 5.65156 8.80223 5.64727L9.03563 5.65411ZM8.83836 7.68536C8.68846 7.74465 8.48782 7.83176 8.22899 7.94513C8.12459 7.99086 8.0981 8.02241 8.07567 8.05255C8.0297 8.1144 7.96905 8.22862 7.86082 8.51251C7.69785 8.94035 7.6879 9.31321 7.68114 9.52423C7.68106 9.52904 7.68181 9.5386 7.68407 9.55255C7.79968 9.6059 7.97659 9.6649 8.21532 9.7254C8.3116 9.74973 8.41926 9.75442 8.54832 9.74102C8.70874 9.72437 8.78617 9.69957 8.9995 9.66192C9.22336 9.62241 9.31891 9.57428 9.3745 9.53888C9.44761 9.49226 9.52494 9.42319 9.70262 9.23516C9.84131 9.08839 9.9178 8.86692 9.99657 8.32306C10.0041 8.27106 10.0025 8.23893 10.0005 8.22345C9.999 8.21268 9.99476 8.20477 9.99266 8.19903C9.9263 8.17791 9.86342 8.15887 9.65477 8.08868C9.43929 8.01619 9.26541 7.87665 9.14696 7.70196C9.14346 7.701 9.13974 7.69998 9.13621 7.69903C9.06702 7.68034 9.00059 7.66522 8.94383 7.65606C8.93673 7.65492 8.92976 7.65405 8.92332 7.65313C8.90055 7.6615 8.87201 7.67206 8.83836 7.68536Z" fill="black"/>
</svg>
