<svg width="24" height="24" viewBox="0 0 24 24" fill="none" xmlns="http://www.w3.org/2000/svg">
<g clip-path="url(#clip0_724_494)">
<path d="M1.29796 0.967787C1.72466 0.617284 2.3546 0.678842 2.70518 1.10548C2.76879 1.18289 2.98393 1.43257 3.49815 1.99513C3.76564 2.28776 3.98965 2.54711 4.17198 2.75685C4.3615 2.97485 4.49346 3.12336 4.60362 3.23244C4.71279 3.34053 4.80838 3.44785 4.90538 3.5547C5.00581 3.66532 5.13064 3.80237 5.32042 3.99904C5.65992 4.35085 6.33468 4.99912 6.72374 5.37404C7.09192 5.72883 7.13201 5.75776 7.48546 6.08009C7.84787 6.4106 8.45014 6.96814 8.94933 7.42189C9.42802 7.857 9.77737 8.16403 10.2677 8.63185C10.7577 9.09934 11.3837 9.72324 11.9191 10.2793C12.4592 10.8404 12.8884 11.3138 13.4728 11.9776C14.0475 12.6304 14.7562 13.4491 16.173 14.8594C16.8877 15.5709 17.7753 16.4253 18.6271 17.2363L20.8653 19.3555L20.8751 19.3652C21.8721 20.3362 22.2192 20.6608 22.4054 20.8252L22.5567 20.9541L22.589 20.9815L22.6183 21.0108C22.7184 21.1107 22.7924 21.2062 22.8653 21.3096C23.1838 21.7607 23.0771 22.3846 22.6261 22.7031C22.1751 23.0216 21.5512 22.9138 21.2325 22.4629C21.2245 22.4516 21.2182 22.4432 21.214 22.4375C20.9903 22.2475 20.7097 21.9968 19.4796 20.7988V20.7979C18.833 20.1858 17.8578 19.2669 16.8702 18.3233C16.6279 18.5653 16.2564 18.8593 15.4454 19.3047L15.4005 19.3291L15.3546 19.3486C14.9443 19.5229 14.3811 19.7265 13.8331 19.8721C13.3932 19.989 12.9775 20.0638 12.5714 20.1133C12.576 20.2842 12.5821 20.4826 12.5821 20.7881C12.5822 21.0819 12.5769 21.4734 12.5724 21.8916C13.1309 21.8871 13.6456 21.8827 14.0519 21.8809H14.0616L14.9142 21.8887C15.1336 21.8923 15.2944 21.8971 15.4142 21.9024C15.5898 21.9101 15.7191 21.9204 15.8409 21.9453L15.961 21.9746L15.9845 21.9824C16.0604 22.0069 16.1247 22.0319 16.1905 22.0596C16.6994 22.2736 16.9395 22.8601 16.7257 23.3692C16.5129 23.8752 15.9319 24.1138 15.4249 23.9063C15.4027 23.9047 15.3705 23.9024 15.3263 23.9004C15.1303 23.8918 14.7629 23.884 14.0558 23.8809C12.7168 23.8869 10.1999 23.911 8.8253 23.9326C7.45087 23.9543 7.24863 23.973 7.05479 23.9893C6.50465 24.0354 6.02119 23.6262 5.97472 23.0762C5.92856 22.526 6.33667 22.0425 6.88683 21.9961C7.15106 21.9739 7.4085 21.9544 8.79405 21.9326C9.27966 21.925 9.9059 21.9175 10.5724 21.9102C10.5771 21.4783 10.5822 21.0815 10.5821 20.7891C10.5821 20.4828 10.5762 20.297 10.5714 20.1279C10.562 20.1269 10.5525 20.127 10.5431 20.126C9.91126 20.0551 9.11662 19.9253 8.59679 19.7959C7.95064 19.635 7.52238 19.5078 7.12901 19.2617C6.74365 19.0207 6.2291 18.6724 5.86339 18.1973C5.5462 17.7851 5.17716 17.1843 4.89464 16.4121C4.74467 16.0022 4.65573 15.6317 4.53038 14.8193C4.40687 14.0189 4.24558 12.771 4.14073 11.918C4.03505 11.0582 3.98711 10.5977 3.93956 10.1416C3.88237 9.59236 4.28092 9.10123 4.83018 9.04396C5.37938 8.98685 5.87058 9.38537 5.92784 9.93458C5.97477 10.3847 6.02154 10.8312 6.12511 11.6738C6.2295 12.5232 6.38834 13.7461 6.50694 14.5147C6.62374 15.2715 6.68905 15.4937 6.77354 15.7246C6.97933 16.2871 7.24295 16.7106 7.44835 16.9776C7.57865 17.1468 7.82283 17.336 8.18956 17.5654C8.28419 17.6246 8.42662 17.693 9.07921 17.8555C9.48596 17.9567 10.1887 18.0738 10.7667 18.1387C11.2993 18.1984 11.6746 18.1926 12.0724 18.1572C12.4797 18.1211 12.8837 18.0552 13.3194 17.9395C13.7456 17.8262 14.1973 17.663 14.5294 17.5244C15.1033 17.2065 15.3335 17.026 15.4327 16.9346C15.1986 16.706 14.972 16.4866 14.7618 16.2774C14.3362 15.8536 13.9719 15.4799 13.6544 15.1475C13.552 15.2282 13.4445 15.3074 13.336 15.3789C13.1133 15.5257 12.8133 15.6937 12.503 15.7861L12.504 15.7881C12.3773 15.8274 12.0981 15.9323 11.7745 15.9795C11.4344 16.0291 11.0482 16.0243 10.5226 15.9658C10.1214 15.9212 9.75624 15.8761 9.46593 15.8174C9.31988 15.7878 9.16216 15.7485 9.0128 15.6924C8.87491 15.6406 8.66545 15.546 8.48253 15.3643C8.46832 15.3501 8.02832 15.0222 7.838 14.4736C7.67227 13.9956 7.57948 13.5072 7.55772 12.6563C7.54391 12.1161 7.5204 10.9115 7.50401 10.2627C7.48629 9.56095 7.472 9.2488 7.45811 8.93458C7.45572 8.88021 7.45887 8.82681 7.46495 8.77443C7.00237 8.35235 6.43335 7.82716 6.1378 7.55763C5.80327 7.25255 5.73008 7.19417 5.33604 6.81447C4.96242 6.45442 4.25258 5.7728 3.88097 5.38771C3.67181 5.17095 3.53226 5.01767 3.42491 4.89943C3.3144 4.77769 3.259 4.71632 3.1964 4.65431C3.02398 4.4836 2.84278 4.27705 2.66222 4.06935C2.47433 3.85322 2.26954 3.61493 2.02257 3.34474C1.5059 2.77951 1.25998 2.49638 1.16026 2.37501C0.809678 1.94831 0.871288 1.3184 1.29796 0.967787ZM18.9317 9.00978C19.4807 8.95107 19.9734 9.34849 20.0323 9.89747C20.054 10.0993 20.0777 10.3161 20.0958 10.5401C20.1144 10.7696 20.1264 10.9939 20.1427 11.4004C20.159 11.8065 20.1798 12.4018 20.2013 13.0108C20.2207 13.5627 19.7883 14.0264 19.2364 14.0459C18.6847 14.0651 18.2217 13.6329 18.2023 13.0811C18.1807 12.4699 18.1597 11.8804 18.1437 11.4805C18.1276 11.0812 18.1169 10.8894 18.1017 10.7012C18.086 10.5076 18.0662 10.3162 18.0441 10.1104C17.9853 9.56136 18.3827 9.06873 18.9317 9.00978ZM9.55772 12.6055C9.57472 13.27 9.6394 13.551 9.71593 13.7803C9.72209 13.786 9.72924 13.7935 9.73839 13.8018C9.74785 13.8104 9.75973 13.8214 9.77354 13.834C9.79586 13.8396 9.82475 13.8488 9.86241 13.8565C10.0539 13.8952 10.3353 13.9321 10.7433 13.9776C11.1861 14.0268 11.3836 14.016 11.4864 14.001C11.6056 13.9836 11.6305 13.9652 11.9122 13.8779L11.922 13.874L11.9327 13.8711C11.9664 13.8614 12.077 13.8134 12.2355 13.709C12.2565 13.6951 12.2754 13.679 12.295 13.6651C12.1806 13.5354 12.0735 13.4143 11.9718 13.2988C11.3995 12.6488 10.9912 12.1995 10.4786 11.667C10.1727 11.3492 9.83472 11.0092 9.51378 10.6914C9.52912 11.3587 9.54455 12.0902 9.55772 12.6055ZM11.6651 0.223646C12.3354 0.22144 12.9102 0.493161 13.1944 0.607435C13.6266 0.781265 13.909 1.07554 14.1153 1.28615C14.5411 1.72067 14.8237 2.21646 15.0694 2.81154C15.2494 3.24751 15.4324 3.91549 15.5431 4.31544C15.6699 4.77346 15.7247 5.05153 15.7648 5.30861C15.808 5.58658 15.8289 5.82061 15.8448 6.45704C15.8606 7.08599 15.8714 8.14509 15.8829 9.22267C15.8888 9.77488 15.4459 10.2274 14.8937 10.2334C14.3416 10.2391 13.8888 9.79629 13.8829 9.24415C13.8713 8.1591 13.8611 7.11876 13.8458 6.50783C13.8307 5.90541 13.8121 5.76963 13.7882 5.61622C13.761 5.44165 13.7234 5.23914 13.6153 4.84865C13.4912 4.40004 13.3434 3.87217 13.2208 3.57521C13.034 3.12284 12.873 2.8758 12.6866 2.68556C12.5754 2.57209 12.5193 2.51923 12.4776 2.48536C12.461 2.47182 12.4528 2.46546 12.4503 2.46388C12.4492 2.46318 12.4486 2.46299 12.4483 2.4629C12.0182 2.28996 11.8615 2.22306 11.672 2.22365C11.3102 2.22492 11.0321 2.22201 10.7989 2.23244C10.6987 2.23693 10.6284 2.24353 10.5821 2.25001C10.5687 2.26042 10.5538 2.27403 10.5372 2.29103C10.4966 2.33269 10.4363 2.40799 10.3653 2.54005C10.089 3.05419 9.97563 3.35792 9.96886 3.50587C9.95067 3.90849 9.9503 4.11797 9.9503 4.12892C9.9503 4.68116 9.50252 5.12885 8.9503 5.12892C8.39802 5.12892 7.9503 4.6812 7.9503 4.12892C7.9503 4.09382 7.95102 3.85429 7.97081 3.41603C8.00121 2.74319 8.35866 2.04854 8.60362 1.59279C8.90271 1.03639 9.27649 0.669297 9.70909 0.445326L9.85753 0.37892C10.0047 0.322561 10.1452 0.294165 10.2501 0.277357C10.4022 0.253009 10.5612 0.241012 10.7091 0.234388C10.9971 0.221497 11.3509 0.224755 11.6651 0.223646Z" fill="black"/>
</g>
<defs>
<clipPath id="clip0_724_494">
<rect width="24" height="24" fill="white"/>
</clipPath>
</defs>
</svg>
