<svg width="24" height="24" viewBox="0 0 24 24" fill="none" xmlns="http://www.w3.org/2000/svg">
<path d="M5.01953 8.57033C5.5717 8.57033 6.01934 9.0182 6.01953 9.57033C6.01953 9.57581 6.0196 9.58069 6.02344 10.1777C6.02728 10.7759 6.03468 11.9412 6.05371 12.6338C6.07521 13.4153 6.18468 13.7128 6.27539 13.959C6.37322 14.2245 6.65298 14.8152 6.94824 15.3008C7.02371 15.4249 7.08449 15.5371 7.13184 15.624C7.18026 15.7129 7.22628 15.7963 7.29102 15.9004C7.61853 16.4269 8.00578 16.8492 8.17285 17.001C8.28233 17.1003 8.57012 17.2999 9.75879 17.7432C9.84435 17.7751 9.8994 17.7906 10.0039 17.8057C10.1353 17.8246 10.3333 17.8408 10.7119 17.8604C11.4473 17.8984 12.7343 17.929 13.4385 17.9414C13.8095 17.9479 14.0086 17.9399 14.127 17.9287C14.2255 17.9194 14.2724 17.9078 14.3584 17.8858C14.3224 17.895 14.327 17.8975 14.4023 17.8652C14.466 17.838 14.5555 17.7961 14.6738 17.7383C14.91 17.6229 15.2357 17.454 15.6553 17.2266C15.963 17.0598 16.2412 16.8136 16.5156 16.5664C16.7023 16.3982 16.7864 16.3066 17.0029 15.9717C17.2441 15.5985 17.6024 14.9925 17.7969 14.6533C17.9672 14.3562 18.1465 13.9082 18.5361 12.8613C18.6961 12.4313 18.8084 11.9432 18.8916 11.5235C18.927 11.0114 18.9144 10.7307 18.8965 10.584C18.882 10.4657 18.8678 10.4422 18.8535 10.4072C18.8052 10.2886 18.7674 10.1837 18.7256 9.96876C18.6204 9.42693 18.9739 8.90159 19.5156 8.79591C20.0575 8.69053 20.5826 9.04431 20.6885 9.58595C20.6944 9.61643 20.6986 9.63319 20.7002 9.63966L20.7061 9.65236V9.65333C20.7558 9.77571 20.8377 9.98024 20.8818 10.3408C20.922 10.6689 20.9297 11.1071 20.8838 11.7295L20.8789 11.7881L20.8682 11.8467C20.7781 12.3093 20.6361 12.9516 20.4102 13.5586C20.0404 14.5521 19.8014 15.1762 19.5312 15.6475C19.3313 15.9962 18.953 16.6394 18.6826 17.0576C18.3877 17.5139 18.1937 17.7472 17.8545 18.0527C17.6029 18.2793 17.1568 18.6881 16.6084 18.9854C16.1767 19.2194 15.8239 19.4026 15.5527 19.5352C15.3164 19.6507 15.0549 19.7719 14.8545 19.8233C14.5203 19.9089 14.2316 19.955 13.4033 19.9404C13.3011 19.9386 13.186 19.9352 13.0615 19.9326C13.0549 20.4116 13.0331 21.0431 13.001 21.711C13.5895 21.72 14.1332 21.7285 14.5557 21.7354C15.8567 21.7564 15.9472 21.7594 16.0371 21.7637C16.5886 21.79 17.0144 22.2591 16.9883 22.8106C16.9619 23.3621 16.4939 23.7878 15.9424 23.7617C15.8928 23.7594 15.8462 23.7568 14.5234 23.7354C13.211 23.7141 10.7284 23.6753 9.36523 23.6563C8.00268 23.6373 7.77009 23.6377 7.53906 23.6377C6.98678 23.6377 6.53906 23.19 6.53906 22.6377C6.53925 22.0856 6.98689 21.6377 7.53906 21.6377C7.78432 21.6377 8.0282 21.6382 9.39355 21.6572C9.8371 21.6634 10.3988 21.6717 11 21.6807C11.0341 20.9842 11.0547 20.3388 11.0605 19.876C10.8972 19.8696 10.7443 19.8645 10.6084 19.8574C9.85193 19.8183 9.509 19.7844 9.06055 19.6172C7.87704 19.1758 7.25253 18.8668 6.82812 18.4815C6.52372 18.205 6.01774 17.6402 5.59277 16.957C5.49801 16.8047 5.43028 16.6825 5.375 16.5811C5.31867 16.4777 5.28431 16.4139 5.23926 16.3399C4.88983 15.7652 4.54868 15.0581 4.39844 14.6504C4.24279 14.2279 4.08292 13.7153 4.05469 12.6885C4.03494 11.9699 4.02723 10.7802 4.02344 10.1904C4.01964 9.60038 4.01953 9.58434 4.01953 9.57033C4.01972 9.0182 4.46736 8.57033 5.01953 8.57033ZM12.1973 0.335951C12.55 0.352489 12.9131 0.370309 13.2324 0.398451C13.5319 0.424852 13.874 0.466595 14.1504 0.551771C14.2015 0.567445 14.4556 0.62643 14.6943 0.766615L14.7949 0.832045L14.9277 0.932631C15.2295 1.17515 15.4634 1.47191 15.6045 1.88478C15.7254 2.23858 15.8579 2.5909 16.0068 3.26564C16.1434 3.88452 16.2181 4.35083 16.2451 4.53615C16.2779 4.76008 16.38 5.10525 16.4023 6.20509C16.4117 6.6634 16.4044 7.28352 16.377 7.81544C16.3506 8.32504 16.3136 8.78498 16.2598 9.09279C16.1989 9.44067 16.1717 9.6013 16.0186 10.1397C15.8874 10.6005 15.6389 11.4538 15.5029 11.9043C15.4292 12.1487 15.3347 12.4914 15.2568 12.7334C15.176 12.9847 15.0602 13.3078 14.8721 13.582C14.6393 13.9213 14.4522 14.1488 13.998 14.6123C13.8842 14.7285 13.3923 15.3958 12.4541 15.3975C12.062 15.3982 11.7415 15.3974 11.4844 15.3799C11.2185 15.3618 10.9539 15.3231 10.6875 15.2168C10.5408 15.1583 9.97026 14.9778 9.57129 14.6201C9.15043 14.2428 8.68235 13.5981 8.51758 12.9209C8.42127 12.525 8.33808 12.1632 8.30371 11.4766C8.28497 11.1021 8.25066 10.4759 8.23242 9.86525C8.22458 9.71645 8.21362 9.5401 8.20215 9.32423V9.32033C8.18362 8.94583 8.17399 8.39386 8.18555 7.75587C8.19144 7.43043 8.19756 7.26698 8.20508 7.13673C8.21518 6.96193 8.20467 6.70663 8.21777 5.60548C8.22472 5.02152 8.21908 4.73437 8.25879 4.46486C8.31385 4.09143 8.44901 3.51884 8.57617 3.15626C8.63402 2.99139 8.70394 2.83145 8.76074 2.70412C8.82449 2.56122 8.86667 2.47085 8.90137 2.38576C9.02474 2.08319 9.11392 1.84788 9.29297 1.5547C9.35839 1.4476 9.45904 1.28719 9.59277 1.13478C9.72574 0.983252 9.93438 0.789092 10.2324 0.669935C10.599 0.523558 11.3317 0.295443 12.1973 0.335951ZM12.1035 2.334C11.6813 2.31428 11.2955 2.41342 11.0654 2.49415C11.064 2.4962 11.063 2.4988 11.0615 2.50099C11.0438 2.52656 11.0234 2.55783 10.999 2.59767C10.9219 2.72392 10.8951 2.79193 10.7529 3.14064C10.7019 3.26572 10.6336 3.41388 10.5869 3.51857C10.5334 3.63859 10.4928 3.7359 10.4639 3.81837C10.3837 4.04702 10.276 4.49422 10.2373 4.75685C10.2235 4.85047 10.2262 4.91689 10.2178 5.62892C10.2073 6.51275 10.2104 6.9295 10.2021 7.17287C10.2319 7.28428 10.2428 7.39951 10.2334 7.51369L10.2314 7.56642C10.2295 7.62707 10.2276 7.72479 10.2256 7.86427C10.2216 8.14304 10.2183 8.57926 10.2197 9.20119C10.2201 9.377 10.223 9.56597 10.2285 9.7588L10.2783 10.6377V10.6465L10.2793 10.6553C10.2885 10.8408 10.2875 10.9313 10.3008 11.1592C10.3037 11.2089 10.3011 11.2584 10.2969 11.3067C10.2981 11.3306 10.2996 11.3543 10.3008 11.377C10.3265 11.891 10.3808 12.1189 10.4609 12.4483C10.5077 12.6402 10.7062 12.9514 10.9062 13.1309C10.9114 13.1355 10.9456 13.1624 11.0449 13.207C11.0923 13.2283 11.1461 13.2499 11.2119 13.2754C11.2675 13.2969 11.3584 13.3309 11.4297 13.3594H11.4307C11.4314 13.3597 11.4328 13.3608 11.4346 13.3613C11.4387 13.3625 11.4468 13.3647 11.46 13.3672C11.4888 13.3727 11.5377 13.3792 11.6201 13.3848C11.7861 13.3961 12.0177 13.3969 12.3916 13.3965C12.3949 13.3932 12.3995 13.3906 12.4033 13.3867C12.4227 13.3669 12.443 13.345 12.4717 13.3145C12.4981 13.2864 12.5328 13.2502 12.5693 13.2129C12.9677 12.8063 13.0731 12.6682 13.2227 12.4502C13.2234 12.4491 13.2278 12.4432 13.2344 12.4307C13.2422 12.4158 13.2523 12.3943 13.2646 12.3652C13.2903 12.3052 13.3198 12.2258 13.3535 12.1211C13.43 11.8833 13.4846 11.6716 13.5889 11.3262C13.7211 10.8883 13.9667 10.0453 14.0957 9.59181C14.2246 9.13865 14.2364 9.04915 14.2891 8.74806C14.3202 8.57024 14.3539 8.2159 14.3799 7.71193C14.4047 7.23039 14.4107 6.65875 14.4023 6.24611C14.3925 5.76335 14.3672 5.48088 14.3438 5.29982C14.332 5.20946 14.32 5.13737 14.3076 5.06837C14.2966 5.00734 14.2785 4.91354 14.2656 4.82521C14.2446 4.68132 14.1786 4.26315 14.0537 3.69728C13.9322 3.14661 13.8356 2.89321 13.7119 2.53126C13.7107 2.5277 13.7098 2.52467 13.709 2.52247C13.7054 2.5187 13.696 2.51145 13.6797 2.49806C13.6642 2.49339 13.6499 2.48968 13.6289 2.48341C13.6089 2.47743 13.5862 2.4705 13.5615 2.4629C13.5054 2.44561 13.3492 2.41642 13.0566 2.39064C12.7839 2.3666 12.4597 2.3507 12.1035 2.334ZM10.1963 7.71193C10.1973 7.70831 10.1993 7.70511 10.2002 7.70216C10.2024 7.69422 10.2032 7.68609 10.2051 7.67872C10.2023 7.68978 10.1995 7.70095 10.1963 7.71193Z" fill="black"/>
</svg>
