<svg width="24" height="24" viewBox="0 0 24 24" fill="none" xmlns="http://www.w3.org/2000/svg">
<path d="M13.2104 1.44324C13.942 1.47559 14.4334 1.55411 14.814 1.66101C15.1196 1.74696 15.5102 1.91844 15.5112 1.91882C16.0197 2.10529 16.6823 2.50305 17.2114 2.86707C17.7628 3.24641 18.2704 3.60436 18.7681 3.97937C19.0841 4.2178 19.3695 4.6186 19.7339 5.16882C20.1384 5.77977 20.7134 6.74609 21.0142 7.25281C21.3755 7.86157 21.5012 8.12456 21.687 8.64929C21.9894 9.50321 22.0945 10.2101 22.1089 10.9159C22.1196 11.444 22.0956 12.3441 22.0571 13.0292C22.0171 13.7419 21.9498 14.223 21.8784 14.6346C21.7535 15.3548 21.6421 15.7506 21.5796 15.9501C21.3582 16.6558 21.0687 17.3475 20.7124 17.9012C20.3612 18.447 19.7355 19.0872 19.272 19.5751C18.9272 19.9379 18.598 20.3164 18.0884 20.7294C17.8113 20.9539 17.5323 21.0826 17.3091 21.1708C17.0173 21.286 16.9897 21.2805 16.8159 21.3573C16.5688 21.4665 16.2831 21.5532 16.0688 21.6151C15.8107 21.6897 15.6776 21.724 15.5952 21.7528C15.3837 21.8267 15.089 21.8979 14.5903 22.0448C14.1998 22.1598 13.5104 22.2419 13.1216 22.2782C12.881 22.3006 12.0384 22.3125 10.9614 22.2987C10.3515 22.2909 9.56209 22.1493 8.8335 22.0585C8.47256 22.0135 7.99507 21.9316 7.38721 21.8378C6.6276 21.7206 6.07442 21.3216 5.87158 21.1844C5.74731 21.1004 5.65132 21.0052 5.604 20.9579C5.53508 20.889 5.52626 20.8781 5.48877 20.8427C5.40578 20.7642 5.31766 20.6558 5.26123 20.5858C5.18906 20.4963 5.10046 20.3811 4.99854 20.2479C4.79368 19.9802 4.52141 19.6173 4.19971 19.1835C3.60836 18.3861 3.44277 18.1137 3.23096 17.8007C3.10885 17.6202 3.03081 17.4438 2.97314 17.3065C2.91024 17.1567 2.86768 17.0447 2.78955 16.8729C2.47202 16.1752 2.1737 15.4436 1.9917 14.7919C1.75181 13.9325 1.62196 13.267 1.57861 12.9188C1.55116 12.698 1.54158 12.4105 1.521 11.9579C1.49879 11.4697 1.46725 10.7201 1.45361 10.3075C1.43094 9.6193 1.56375 8.89883 1.76807 8.12C1.97574 7.32871 2.57648 6.68869 2.93213 6.27332C3.20871 5.95029 3.54639 5.63708 4.01025 5.22253C4.48552 4.79781 5.13974 4.24213 5.47705 3.95203C5.53253 3.90422 5.6045 3.81422 5.70068 3.66199C5.72304 3.6266 5.74454 3.5911 5.76807 3.55261C5.79 3.51673 5.81661 3.473 5.84229 3.4325C5.86754 3.39267 5.90207 3.34036 5.94092 3.28796C5.97487 3.24219 6.04191 3.15556 6.13818 3.07214L6.17236 3.04187L6.20947 3.0155C6.21135 3.01409 6.21544 3.01058 6.22314 3.00476C6.23862 2.99307 6.25 2.98477 6.27393 2.96667C6.31595 2.9349 6.37248 2.89311 6.43896 2.8446C6.57154 2.74788 6.74761 2.62319 6.95264 2.49402C7.34507 2.24679 7.9131 1.93492 8.51514 1.7948C8.7423 1.74195 8.94434 1.70834 9.33447 1.6532C9.73701 1.59631 10.3593 1.52092 11.0786 1.47546C11.7932 1.43033 12.5936 1.41599 13.2104 1.44324ZM13.1226 3.44128C12.5937 3.41791 11.8667 3.42974 11.2046 3.47156C10.5474 3.51308 9.97794 3.58137 9.61475 3.63269C9.23981 3.68569 9.10753 3.71064 8.96826 3.74304C8.69234 3.80729 8.34936 3.97832 8.01904 4.1864C7.7919 4.3295 7.62582 4.45255 7.50732 4.54187C7.49791 4.55715 7.48689 4.57469 7.47412 4.59558C7.45079 4.63376 7.42237 4.68088 7.39111 4.73035C7.27207 4.91876 7.07123 5.21881 6.78076 5.46863C6.42602 5.77372 5.79958 6.30596 5.34326 6.71375C4.87557 7.13171 4.63092 7.36476 4.45166 7.5741C3.96805 8.13893 3.76621 8.38551 3.70264 8.62781C3.51517 9.34244 3.43846 9.84243 3.45166 10.2421C3.46486 10.6416 3.4969 11.3803 3.51904 11.8671C3.54275 12.3884 3.54823 12.5529 3.56299 12.6718C3.5902 12.8902 3.69409 13.4535 3.91748 14.2538C4.0581 14.7573 4.30718 15.3787 4.60986 16.0438C4.70406 16.2509 4.77691 16.4346 4.81787 16.5321C4.86412 16.6422 4.87992 16.6688 4.88721 16.6796C5.11571 17.0172 5.24784 17.2392 5.80615 17.9921C6.12664 18.4242 6.39112 18.7778 6.58643 19.0331C6.68413 19.1607 6.76216 19.2596 6.81885 19.33C6.89078 19.4191 6.89442 19.4185 6.86279 19.3885C6.89972 19.4235 6.93306 19.4565 6.9585 19.4823C6.98889 19.5131 6.99993 19.5247 7.01807 19.5428C7.01966 19.5444 7.02161 19.5464 7.02295 19.5477C7.2436 19.6963 7.44428 19.823 7.69189 19.8612C8.35498 19.9635 8.75813 20.0338 9.08154 20.0741C10.0023 20.1889 10.5237 20.2928 10.9868 20.2987C11.5261 20.3056 11.9883 20.3053 12.3345 20.3016C12.5075 20.2998 12.65 20.297 12.7573 20.2938C12.8109 20.2922 12.8546 20.2915 12.8872 20.2899C12.9216 20.2883 12.936 20.287 12.936 20.287C13.3445 20.2488 13.848 20.1783 14.0259 20.1259C14.6914 19.9298 14.771 19.9224 14.9351 19.8651C15.0858 19.8124 15.3467 19.7423 15.5132 19.6942C15.7236 19.6334 15.8949 19.5778 16.0073 19.5282C16.184 19.4502 16.5144 19.3342 16.5747 19.3104C16.7038 19.2594 16.7733 19.2195 16.8286 19.1747C17.2087 18.8667 17.4199 18.6211 17.8218 18.1981C18.3568 17.635 18.8076 17.1635 19.0298 16.8182C19.2568 16.4654 19.4819 15.9554 19.6714 15.3514C19.7053 15.2433 19.7965 14.9338 19.9077 14.2928C19.9674 13.9485 20.0248 13.5443 20.0601 12.9169C20.0968 12.2615 20.1182 11.4166 20.1089 10.9569C20.0986 10.4508 20.0286 9.9567 19.8022 9.31726C19.6683 8.93905 19.6037 8.79423 19.2944 8.27332C18.9868 7.75511 18.4379 6.83508 18.0659 6.27332C17.8761 5.98669 17.7478 5.80494 17.6567 5.68835C17.5953 5.60978 17.5635 5.57749 17.5562 5.57019C17.0942 5.22236 16.6159 4.88484 16.0776 4.51453C15.5817 4.17332 15.0874 3.89387 14.8228 3.79675C14.709 3.75506 14.5658 3.692 14.5122 3.6698C14.4381 3.6391 14.3652 3.61176 14.2729 3.58582C14.085 3.53305 13.7557 3.46929 13.1226 3.44128ZM14.5093 6.96863C15.0613 6.96886 15.5092 7.41656 15.5093 7.96863V7.98132C15.5094 7.99979 15.5096 8.03596 15.5103 8.10632C15.5116 8.24741 15.5146 8.52689 15.52 9.08191C15.5309 10.1928 15.5531 12.4075 15.5659 13.5848C15.5783 14.7251 15.5821 14.8552 15.5767 14.9764C15.5725 15.0704 15.5558 15.2447 15.5493 15.3348C15.5094 15.8855 15.0306 16.2993 14.48 16.2596C13.9291 16.2198 13.5153 15.7411 13.5552 15.1903C13.5709 14.9738 13.5753 14.9621 13.5786 14.8876C13.5807 14.8402 13.5791 14.8198 13.5659 13.6063C13.5531 12.4276 13.5309 10.2118 13.52 9.10144C13.5092 7.99736 13.5093 7.9815 13.5093 7.96863C13.5094 7.41642 13.957 6.96863 14.5093 6.96863ZM9.66553 7.06921C10.1659 6.93743 10.6777 7.20939 10.856 7.68347L10.8872 7.78113L10.9136 7.91394C10.9186 7.95167 10.921 7.98317 10.9224 8.00476C10.9247 8.04355 10.926 8.09729 10.9282 8.17175C10.9329 8.32741 10.9407 8.6253 10.9526 9.203C10.9765 10.3621 11.0193 12.6568 11.0737 15.0419C11.0863 15.594 10.6493 16.0517 10.0972 16.0643C9.54524 16.0768 9.08743 15.6397 9.07471 15.0878C9.02018 12.6999 8.97645 10.3984 8.95264 9.24402C8.9407 8.66552 8.93354 8.37633 8.9292 8.23132C8.92814 8.19583 8.92794 8.17007 8.92725 8.15222C8.92691 8.14374 8.92648 8.13714 8.92627 8.13269C8.92604 8.12859 8.92529 8.12585 8.92529 8.12585C8.8818 7.64859 9.18677 7.19553 9.66553 7.06921ZM8.94189 8.24304L8.95361 8.29089C8.94633 8.26317 8.94088 8.23464 8.93604 8.20691C8.93787 8.21785 8.93928 8.23036 8.94189 8.24304Z" fill="black"/>
</svg>
