<svg width="24" height="24" viewBox="0 0 24 24" fill="none" xmlns="http://www.w3.org/2000/svg">
<path d="M9.17453 1.89089C9.79196 1.71303 10.6679 1.72344 11.906 1.81569C12.805 1.88272 14.0729 2.11521 14.8376 2.25808C15.9987 2.475 16.4545 2.64867 16.7966 2.75612C17.4587 2.96412 17.925 3.19181 18.2986 3.4319C18.6227 3.64036 18.945 3.91524 19.0671 4.0071C19.7084 4.48954 20.0279 4.86273 20.5593 5.53933C21.0454 6.15832 21.3421 6.679 21.5085 7.053C21.788 7.68126 22.0662 8.68757 22.2946 9.67018C22.5796 10.8959 22.4279 11.5958 22.3386 12.2464C22.2677 12.7628 22.0756 13.6751 21.9499 14.2669C21.6492 15.683 21.4553 16.0565 21.2888 16.5354C21.0889 17.1102 20.7844 17.7222 20.532 18.1741C20.1663 18.8286 19.8669 19.2569 19.5837 19.5862C19.3149 19.8988 19.0467 20.1295 18.8904 20.2796C18.6113 20.5474 18.1476 20.8968 17.5876 21.2561C16.3666 22.0396 15.4167 22.4498 15.0554 22.5618C14.8401 22.6284 14.5724 22.6698 14.3806 22.7102C13.6357 22.8672 12.5036 22.8871 11.5935 22.8948C11.2691 22.8975 10.8892 22.8283 10.5154 22.7464C10.1232 22.6604 9.64627 22.5381 9.10031 22.3967C8.01834 22.1166 7.197 21.5947 6.25656 21.0247C5.49658 20.5641 5.01221 20.0984 4.5134 19.7161C3.40789 18.8689 2.71936 17.8602 2.44406 17.3567C2.35611 17.1958 2.26047 16.9342 2.17551 16.6956C2.07792 16.4215 1.95357 16.0558 1.80344 15.6155C1.62739 15.0992 1.55453 14.6628 1.50852 14.011C1.40278 12.5127 1.45832 11.4993 1.47824 10.9934C1.52149 9.89495 1.55696 8.67748 1.66477 7.95339C1.77237 7.23125 1.91305 6.86683 2.05246 6.51979L2.07102 6.47487L2.08762 6.44362C2.08186 6.45552 2.08238 6.45545 2.09055 6.43483C2.1004 6.40993 2.10916 6.38634 2.12668 6.34011C2.14148 6.30103 2.16228 6.24544 2.18625 6.18972C2.20835 6.13835 2.24667 6.0556 2.29953 5.96999L2.31027 5.95143L2.32297 5.93386C2.2978 5.97058 2.62697 5.39167 3.03977 4.99929C3.18342 4.86274 3.32339 4.74678 3.7927 4.45046C4.25227 4.1603 5.07625 3.67003 5.79563 3.28249C7.09277 2.58371 7.98392 2.25139 8.4343 2.10573C8.68706 2.02399 8.92566 1.96261 9.17453 1.89089ZM11.7575 3.80983C10.4671 3.71367 9.94742 3.74966 9.72824 3.81276C9.4058 3.90569 9.26403 3.93969 9.04953 4.00905C8.71581 4.117 7.93581 4.40112 6.74387 5.04323C6.06876 5.40693 5.28444 5.87296 4.86008 6.14089C4.64747 6.27512 4.54176 6.34922 4.48703 6.38991C4.4477 6.41917 4.44084 6.4265 4.4177 6.4485C4.33557 6.52657 4.25033 6.63414 4.1716 6.75026C4.1341 6.80558 4.10157 6.85794 4.07297 6.90456C4.05492 6.93398 4.04848 6.9443 4.03098 6.97292C4.02837 6.97716 4.02415 6.98219 4.02023 6.98854C4.01504 7.00114 4.00761 7.01959 3.9968 7.04811C3.98613 7.07627 3.96705 7.12788 3.94992 7.17116C3.94038 7.19522 3.92376 7.22729 3.90695 7.26491L3.90891 7.26589C3.80479 7.52505 3.72026 7.73093 3.64328 8.24733C3.55622 8.83179 3.52378 9.89119 3.47727 11.0725C3.45744 11.5757 3.40638 12.4923 3.50363 13.8704C3.54194 14.4129 3.59278 14.6672 3.69602 14.97C3.8478 15.4152 3.96823 15.7662 4.06027 16.0247C4.15348 16.2864 4.19463 16.3851 4.19895 16.3967C4.37163 16.7126 4.89142 17.4861 5.72922 18.1282C6.44968 18.6803 6.64616 18.9219 7.2927 19.3137C8.29805 19.9231 8.85833 20.2688 9.60129 20.4612C10.1559 20.6048 10.5955 20.7169 10.9441 20.7932C11.3101 20.8734 11.4972 20.8954 11.5769 20.8948C12.5496 20.8866 13.4602 20.8603 13.9685 20.7532C14.3682 20.669 14.3595 20.6838 14.4636 20.6516C14.5992 20.6096 15.3827 20.2944 16.5075 19.5725C17.0191 19.2443 17.3599 18.9761 17.5046 18.8372C17.7628 18.5893 17.8821 18.4988 18.0681 18.2825C18.24 18.0825 18.4647 17.7733 18.7859 17.1985C19.0093 16.7986 19.2536 16.2996 19.4001 15.8782C19.5878 15.3385 19.726 15.1128 19.9939 13.8518C20.1261 13.2293 20.2985 12.4008 20.3571 11.9739C20.449 11.305 20.5377 10.9463 20.3464 10.1233C20.1192 9.1462 19.8753 8.30478 19.6804 7.86647C19.5882 7.65918 19.3827 7.27759 18.987 6.7737C18.4964 6.14903 18.3016 5.93423 17.865 5.60573C17.5517 5.37012 17.475 5.2801 17.2175 5.11452C17.0093 4.98066 16.7084 4.8247 16.198 4.66433C15.8482 4.55447 15.4985 4.41597 14.4704 4.2239C13.6776 4.07578 12.5249 3.86705 11.7575 3.80983ZM10.3171 7.136C10.3374 7.13664 10.5277 7.13795 10.7263 7.22097L10.7253 7.22194C10.8746 7.28333 11.0183 7.34302 11.1755 7.40944C11.5138 7.52924 12.0487 7.69812 12.5066 7.90847C12.9608 8.11721 13.3873 8.30634 13.7361 8.53054C14.1587 8.80238 14.9872 9.32567 15.4284 9.68776C15.6053 9.83292 16.0423 10.1623 16.3259 10.4173C16.477 10.5532 16.6617 10.7332 16.8034 10.9368C16.9039 11.0812 17.2092 11.5528 17.0056 12.1262C16.9018 12.4182 16.7054 12.6443 16.4685 12.8684C16.2214 13.102 15.8296 13.4239 15.197 13.8987C14.1381 14.6933 12.1386 16.1923 11.1071 16.971C10.075 17.7501 10.0286 17.7958 9.99289 17.8255C9.99241 17.8259 9.96204 17.8514 9.92453 17.8782C9.88841 17.904 9.80494 17.9606 9.68723 18.0051C9.56238 18.0524 9.36617 18.0985 9.13254 18.053C8.89197 18.006 8.71196 17.8817 8.59445 17.76C8.40301 17.5614 8.34434 17.3375 8.33078 17.2874C8.30725 17.2004 8.29541 17.1167 8.28781 17.055C8.25916 16.8217 8.24425 16.4095 8.23801 15.6995C8.22522 14.2438 8.24673 11.3956 8.25754 9.96511C8.2635 9.1785 8.35463 8.64286 8.47629 8.26686C8.53832 8.0752 8.60707 7.9285 8.67258 7.81472C8.69271 7.77978 8.71284 7.75154 8.72629 7.73073C8.81334 7.58129 8.91429 7.49097 8.94602 7.46413C9.04079 7.38404 9.12924 7.34011 9.16379 7.3235C9.24109 7.28639 9.30927 7.26558 9.33469 7.25808C9.39713 7.23964 9.45921 7.22622 9.5007 7.21804C9.5922 7.2 9.70159 7.18342 9.80441 7.17018C9.90696 7.15699 10.0238 7.14482 10.1306 7.13893C10.1825 7.13608 10.2489 7.13368 10.3171 7.136ZM10.3083 9.21413C10.2823 9.39311 10.2601 9.64209 10.2575 9.97976C10.2479 11.2498 10.2315 13.6019 10.2361 15.1233C11.3241 14.3037 13.0454 13.0131 13.9968 12.2991C14.3291 12.0497 14.5741 11.8561 14.7556 11.7073C14.7056 11.6668 14.653 11.6245 14.5984 11.5813C14.4609 11.4729 14.2929 11.3436 14.1589 11.2337C13.8323 10.9657 13.1389 10.524 12.654 10.2122C12.4548 10.0842 12.1929 9.96543 11.6716 9.72585C11.3106 9.56 10.9361 9.44744 10.4821 9.28542L10.4548 9.27565L10.4284 9.26491C10.3868 9.24732 10.3468 9.23037 10.3083 9.21413ZM8.66672 7.84792C8.66492 7.85223 8.66439 7.85903 8.66184 7.8655C8.66557 7.85602 8.66863 7.84632 8.67258 7.83718C8.67101 7.8408 8.66832 7.84417 8.66672 7.84792Z" fill="black"/>
</svg>
