<svg width="24" height="24" viewBox="0 0 24 24" fill="none" xmlns="http://www.w3.org/2000/svg">
<path d="M12.4172 3.50195C12.4303 3.50281 12.4433 3.50449 12.4563 3.50586C12.5095 3.51144 12.5614 3.52069 12.6116 3.53418C12.6253 3.53789 12.6389 3.54257 12.6526 3.54688C12.6706 3.55255 12.6888 3.5578 12.7063 3.56445C12.8278 3.61055 12.9424 3.68093 13.0422 3.77637C13.0519 3.7856 13.0604 3.79616 13.0696 3.80566C13.0817 3.81821 13.0943 3.83059 13.1057 3.84375C13.1131 3.85228 13.1201 3.86141 13.1272 3.87012C13.1421 3.88847 13.1566 3.90738 13.1702 3.92676C13.1739 3.9321 13.1773 3.93797 13.1809 3.94336C13.1956 3.96527 13.21 3.98768 13.2229 4.01074C13.2279 4.01971 13.2328 4.029 13.2375 4.03809C13.2452 4.05272 13.2521 4.06797 13.259 4.08301C13.2685 4.10367 13.2784 4.12436 13.2864 4.14551C13.2898 4.15446 13.293 4.16378 13.2961 4.17285C13.3024 4.19112 13.3075 4.20998 13.3127 4.22852C13.3173 4.24458 13.3217 4.26097 13.3254 4.27734C13.3278 4.28791 13.3293 4.29894 13.3313 4.30957C13.3467 4.38954 13.3548 4.47261 13.3499 4.55762C13.3408 4.71163 13.3319 4.85602 13.3323 5.22754C13.3327 5.60451 13.3422 6.18647 13.4075 6.96191C13.4697 7.70194 13.5611 8.45861 13.6409 9.25488C13.6635 9.24049 13.6866 9.2259 13.7102 9.21094C14.6132 8.63741 16.3455 7.60453 17.2424 7.06055C18.2402 6.45537 18.3095 6.39897 18.3567 6.3623C18.5267 6.23034 18.6701 6.12086 18.7893 6.02148C18.812 6.00257 18.8894 5.93603 18.9827 5.87695C19.0715 5.82075 19.2671 5.71026 19.5344 5.69043L19.6321 5.6875C19.7432 5.69009 19.8896 5.71262 20.0452 5.78711C20.2509 5.88572 20.3804 6.03218 20.4543 6.14453C20.5725 6.32451 20.6032 6.50263 20.6086 6.53027C20.6287 6.63256 20.638 6.75286 20.6448 6.84961C20.6606 7.07654 20.6816 7.49685 20.718 8.26172C20.7915 9.80633 20.9247 12.8337 20.9954 14.4053C21.0659 15.9732 21.0709 16.0043 21.0735 16.0576C21.0856 16.3084 21.0958 16.5324 21.1067 16.7295C21.1121 16.8276 21.1353 17.1559 21.1243 17.5537C21.1222 17.6295 21.1132 17.7608 21.0647 17.9072C21.0151 18.0567 20.8914 18.3144 20.5989 18.4854C20.3012 18.6591 20.012 18.6365 19.8596 18.6045C19.7173 18.5745 19.6102 18.5205 19.5774 18.5039C19.1576 18.291 18.8698 18.1256 18.6018 18.0176C18.3709 17.9246 17.9192 17.777 17.6204 17.6777C17.3481 17.5873 17.2719 17.5682 16.8752 17.4092C16.5027 17.2598 15.8152 16.9744 15.4417 16.8164C15.0164 16.6365 14.9202 16.5879 14.7249 16.5C14.2664 16.2938 13.8807 16.0769 13.6829 15.9629C13.6532 16.9381 13.6229 17.8579 13.5969 18.4785C13.5701 19.1203 13.5491 19.4699 13.5295 19.6602C13.5245 19.7097 13.5181 19.7639 13.509 19.8164C13.5026 19.8533 13.4841 19.9586 13.4358 20.0742C13.4173 20.1187 13.2092 20.6339 12.6018 20.6943C12.3367 20.7206 12.1374 20.6358 12.053 20.5938C11.9909 20.5628 11.9368 20.5268 11.925 20.5186C11.8173 20.4442 11.6951 20.3459 10.9924 19.9551C10.7511 19.8208 10.3491 19.5631 9.79028 19.1201C9.52991 18.9137 9.33668 18.7339 9.25317 18.6602C9.18861 18.6032 9.0737 18.5105 8.20337 17.7393C7.30906 16.9468 5.61686 15.4378 4.60376 14.5117C3.5921 13.587 3.24663 13.2348 3.04224 13.0098C2.98912 12.9513 2.81689 12.7707 2.71704 12.5605C2.65134 12.422 2.57032 12.1786 2.6272 11.8809C2.68367 11.586 2.84592 11.3941 2.94653 11.2969C3.19518 11.0568 3.47606 10.856 3.58716 10.7715C3.67806 10.7023 3.69591 10.6936 3.80493 10.6025C3.91532 10.5103 4.10227 10.3455 4.43872 10.0283C5.07959 9.42424 6.31446 8.24456 7.57056 7.18066C8.82826 6.11545 10.0715 5.19832 10.7249 4.70508C11.0695 4.44484 11.2506 4.26371 11.3469 4.15527C11.395 4.10116 11.4291 4.05776 11.4592 4.01758C11.4629 4.0127 11.494 3.97457 11.5325 3.92578C11.5617 3.88418 11.5932 3.84417 11.6282 3.80762C11.6421 3.79308 11.6576 3.78011 11.6721 3.7666C11.679 3.76022 11.6856 3.75327 11.6926 3.74707C11.7099 3.73186 11.7282 3.71791 11.7463 3.7041C11.7546 3.69777 11.7632 3.69162 11.7717 3.68555C11.7884 3.67364 11.8053 3.66213 11.8225 3.65137C11.8313 3.64588 11.8399 3.63999 11.8489 3.63477C11.8639 3.62603 11.8794 3.61824 11.8948 3.61035C11.9114 3.60177 11.9284 3.59359 11.9456 3.58594C11.9575 3.58066 11.9696 3.57608 11.9817 3.57129C11.9972 3.56511 12.0127 3.55912 12.0286 3.55371C12.0479 3.54712 12.0675 3.54151 12.0872 3.53613C12.0979 3.53319 12.1085 3.52993 12.1194 3.52734C12.1379 3.52295 12.1564 3.51896 12.175 3.51562C12.1912 3.51274 12.2074 3.50991 12.2239 3.50781C12.2408 3.50565 12.2577 3.50423 12.2747 3.50293C12.2879 3.50192 12.3013 3.50145 12.3147 3.50098H12.4104C12.4127 3.50112 12.415 3.5018 12.4172 3.50195ZM11.384 6.71484C10.704 7.2271 9.78711 7.92395 8.86255 8.70703C7.65618 9.72881 6.46576 10.866 5.81079 11.4834C5.40579 11.8652 5.17827 12.0605 5.03345 12.1787C5.2439 12.3805 5.53637 12.6558 5.95239 13.0361C6.95315 13.9509 8.63596 15.4503 9.52954 16.2422C10.4468 17.055 10.4315 17.0323 10.5764 17.1602C10.7025 17.2714 10.8273 17.3903 11.0334 17.5537C11.2667 17.7386 11.46 17.8783 11.6116 17.9824C11.6645 16.608 11.7369 14.3434 11.761 12.8379C11.7875 11.1836 11.756 10.5528 11.6829 9.76465C11.6129 9.01157 11.48 7.90939 11.4143 7.12891C11.4022 6.98499 11.3929 6.84669 11.384 6.71484ZM18.2795 8.77051C17.3527 9.33265 15.6623 10.3406 14.7825 10.8994C14.2898 11.2123 14.0302 11.3833 13.8958 11.4756C13.8619 11.4988 13.8385 11.5143 13.8245 11.5244C13.8069 11.5408 13.7864 11.5534 13.7678 11.5684C13.7701 11.933 13.7692 12.3563 13.761 12.8701C13.7569 13.1267 13.7498 13.4047 13.7434 13.6963C13.8147 13.7138 13.8877 13.7347 13.9534 13.7559C14.153 13.8202 14.3186 13.9423 14.4377 14.0967C14.5013 14.1305 14.571 14.1676 14.6243 14.1992H14.6252C14.7732 14.2856 15.1266 14.4885 15.5452 14.6768C15.7615 14.7741 15.8233 14.8064 16.2209 14.9746C16.5881 15.1299 17.2627 15.4097 17.6194 15.5527C17.7851 15.6192 17.8732 15.6523 17.9543 15.6807L18.7805 15.9561C18.878 15.9892 18.9772 16.0241 19.0706 16.0576C19.0633 15.9188 19.045 15.5539 18.9973 14.4951C18.9284 12.9645 18.8003 10.0726 18.7258 8.49512C18.5989 8.57286 18.4525 8.6656 18.2795 8.77051Z" fill="black"/>
</svg>
