<svg width="24" height="24" viewBox="0 0 24 24" fill="none" xmlns="http://www.w3.org/2000/svg">
<path d="M19 4C19.5523 4 20 4.44772 20 5C20 5.0193 19.9996 5.03372 20 5.05762C20.0004 5.08319 20.002 5.12196 20.0039 5.18555C20.0083 5.32782 20.0161 5.5591 20.0488 7.7998C20.0816 10.045 20.1385 14.2933 20.1719 16.5137C20.1886 17.6246 20.1987 18.1865 20.207 18.4814C20.2113 18.6318 20.2147 18.6971 20.2168 18.7246C20.2165 18.7221 20.2164 18.7188 20.2158 18.7148L20.2109 18.6895C20.3245 19.2298 19.9789 19.7604 19.4385 19.874C18.898 19.9877 18.3676 19.641 18.2539 19.1006C18.2231 18.9542 18.2163 18.8295 18.208 18.5381C18.1992 18.2273 18.1885 17.6513 18.1719 16.5439C18.1385 14.3258 18.0815 10.0672 18.0488 7.8291C18.0161 5.588 18.0087 5.37106 18.0049 5.24707C18.0005 5.10445 18 5.05243 18 5C18 4.44772 18.4477 4 19 4ZM5.0332 5.00195C5.05113 5.00253 5.069 5.00333 5.08691 5.00488C5.102 5.00618 5.11695 5.0078 5.13184 5.00977C5.1524 5.01249 5.17291 5.0155 5.19336 5.01953C5.20658 5.02212 5.21939 5.02619 5.23242 5.0293C5.24738 5.03288 5.26249 5.03574 5.27734 5.04004C5.30362 5.04762 5.32915 5.05678 5.35449 5.06641C5.35805 5.06776 5.36168 5.06891 5.36523 5.07031C5.38786 5.07921 5.40985 5.08915 5.43164 5.09961C5.44368 5.1054 5.45589 5.11087 5.46777 5.11719C5.48147 5.12446 5.4945 5.13274 5.50781 5.14062C5.5193 5.14742 5.53166 5.15285 5.54297 5.16016L5.99512 5.45312L6.00488 5.45996L6.29395 5.63965C6.45633 5.73365 6.71344 5.87613 7.14746 6.11035C7.84892 6.46742 9.14565 7.11339 9.84863 7.4668C10.7927 7.94142 11.1579 8.1801 11.6758 8.45996C12.1494 8.71591 12.5641 8.93146 12.9102 9.11035C13.2489 9.28545 13.5404 9.43546 13.7451 9.54785C14.1209 9.75421 14.4559 9.93854 14.708 10.085C14.8333 10.1578 14.9508 10.2283 15.0479 10.292C15.0897 10.3194 15.1982 10.3893 15.3047 10.4873L15.4082 10.5947L15.4551 10.6523C15.5169 10.734 15.6152 10.886 15.6621 11.0898C15.6981 11.2466 15.7048 11.4393 15.6426 11.6436C15.5808 11.8463 15.4692 12.0017 15.3555 12.1113C15.144 12.3151 14.8648 12.5169 13.7402 13.3047C12.7539 13.9956 10.9049 15.3017 9.93848 15.9922C9.45733 16.336 9.2007 16.5242 9.05566 16.6328C8.94791 16.7135 8.84681 16.7928 8.78809 16.834C8.72025 16.8815 8.63029 16.95 8.47656 17.0674C8.33014 17.1792 8.14391 17.3209 7.90723 17.4941C7.22952 17.9901 6.77127 18.3285 6.55664 18.5586C6.3607 18.7687 6.25289 18.9146 6.18457 19.0137C6.15854 19.0514 6.11227 19.116 6.04883 19.1826C6.01482 19.2183 5.84767 19.3979 5.56738 19.4795C5.3963 19.5293 5.1493 19.5503 4.8877 19.4414C4.63157 19.3347 4.47876 19.1523 4.39746 19.0146C4.26015 18.7821 4.24848 18.5522 4.24512 18.4844C4.22122 18.0026 4.20818 17.6008 4.20508 17.4678C4.20246 17.3552 4.18753 17.1857 4.15234 15.2686C4.11822 13.4095 4.05736 9.86246 4.0293 8.03906C3.99988 6.12802 4 6.01716 4 6C4 5.98887 4.00159 5.97784 4.00195 5.9668C4.00253 5.94887 4.00333 5.931 4.00488 5.91309C4.00618 5.898 4.0078 5.88305 4.00977 5.86816C4.01249 5.8476 4.0155 5.82709 4.01953 5.80664C4.02212 5.79342 4.02619 5.78061 4.0293 5.76758C4.03288 5.75262 4.03574 5.73751 4.04004 5.72266C4.05549 5.66909 4.07585 5.61782 4.09961 5.56836C4.1054 5.55632 4.11087 5.54411 4.11719 5.53223C4.12446 5.51853 4.13274 5.5055 4.14062 5.49219C4.14742 5.4807 4.15285 5.46834 4.16016 5.45703C4.16145 5.45503 4.16373 5.45316 4.16504 5.45117C4.19437 5.40664 4.22779 5.36536 4.26367 5.32617C4.35015 5.23145 4.45144 5.15655 4.5625 5.10254C4.62678 5.07114 4.69452 5.0464 4.76562 5.0293C4.77508 5.02702 4.78443 5.02447 4.79395 5.02246C4.8426 5.01226 4.89239 5.00578 4.94336 5.00293C4.95995 5.00197 4.97651 5.00111 4.99316 5.00098C4.99544 5.00096 4.99772 5 5 5C5.01113 5 5.02216 5.00159 5.0332 5.00195ZM6.0293 8.00781C6.05732 9.82892 6.11825 13.375 6.15234 15.2324C6.1604 15.6713 6.16793 16.0154 6.17383 16.2871C6.35818 16.1498 6.54584 16.0131 6.72656 15.8809C6.94649 15.7199 7.11924 15.5871 7.2627 15.4775C7.39884 15.3736 7.53017 15.2737 7.64062 15.1963C7.64066 15.1963 7.64292 15.1943 7.64941 15.1895C7.65759 15.1833 7.66803 15.1753 7.68652 15.1611C7.72291 15.1332 7.77547 15.0929 7.85645 15.0322C8.01751 14.9116 8.28691 14.7133 8.77539 14.3643C9.74844 13.669 11.6033 12.3601 12.5928 11.667C12.7313 11.57 12.8539 11.4805 12.9648 11.4023C12.9058 11.3699 12.8451 11.3353 12.7822 11.3008C12.6062 11.2041 12.3481 11.0712 11.9912 10.8867C11.6415 10.7059 11.2142 10.4843 10.7246 10.2197C10.0649 9.86318 9.88387 9.72329 8.9502 9.25391C8.26183 8.90785 6.94654 8.25308 6.24023 7.89355L6.21875 7.88184C6.15014 7.84483 6.08658 7.80761 6.02539 7.77441C6.02653 7.84905 6.02805 7.9268 6.0293 8.00781Z" fill="black"/>
</svg>
