<svg width="24" height="24" viewBox="0 0 24 24" fill="none" xmlns="http://www.w3.org/2000/svg">
<path d="M4.89746 3.6748C5.44975 3.6748 5.89746 4.12252 5.89746 4.6748L5.89844 4.69043C5.89936 4.72692 5.90056 4.79884 5.9043 4.93945C5.91183 5.22255 5.92693 5.78494 5.95703 6.9043C6.01728 9.14467 6.13802 13.6183 6.19824 15.9414C6.25796 18.2449 6.2554 18.3165 6.25293 18.4463C6.25124 18.5355 6.25098 18.6891 6.25098 18.8633C6.25056 19.4152 5.803 19.8633 5.25098 19.8633C4.69921 19.863 4.25139 19.415 4.25098 18.8633C4.25098 18.6988 4.25079 18.5213 4.25293 18.4082C4.25431 18.3366 4.25971 18.3264 4.19922 15.9932C4.13903 13.6713 4.01827 9.19898 3.95801 6.95801C3.89855 4.74693 3.89747 4.70067 3.89746 4.6748C3.89746 4.1226 4.34529 3.67494 4.89746 3.6748ZM19.1621 4.40137C19.1836 4.40154 19.2052 4.40274 19.2266 4.4043C19.2393 4.4052 19.2521 4.40586 19.2646 4.40723C19.2823 4.40919 19.2999 4.41215 19.3174 4.41504C19.3334 4.41767 19.3495 4.42045 19.3652 4.42383C19.3793 4.42687 19.3933 4.43092 19.4072 4.43457C19.4232 4.43874 19.4394 4.44234 19.4551 4.44727C19.4679 4.4513 19.4805 4.45638 19.4932 4.46094C19.5736 4.4899 19.6494 4.52772 19.7188 4.5752C19.7619 4.60464 19.8023 4.63828 19.8408 4.6748C19.8488 4.68238 19.8575 4.68942 19.8652 4.69727C19.8751 4.70722 19.8841 4.71809 19.8936 4.72852C19.9515 4.79221 20.0009 4.86335 20.041 4.94043C20.0472 4.95231 20.0529 4.96454 20.0586 4.97656C20.0663 4.99296 20.0742 5.00949 20.0811 5.02637C20.0879 5.04337 20.0937 5.06091 20.0996 5.07812C20.1042 5.09166 20.1092 5.10535 20.1133 5.11914C20.1176 5.13395 20.1214 5.14914 20.125 5.16406C20.1293 5.18172 20.1334 5.19976 20.1367 5.21777C20.14 5.23552 20.1422 5.25366 20.1445 5.27148C20.1462 5.28403 20.1483 5.29688 20.1494 5.30957C20.151 5.32671 20.1517 5.34418 20.1523 5.36133C20.1529 5.37418 20.1553 5.38742 20.1553 5.40039C20.1553 5.41868 20.1547 5.74043 20.1553 5.87012C20.1558 5.98747 20.1569 6.23025 20.2236 8.30566C20.2904 10.3808 20.422 14.2632 20.4883 16.2832C20.5214 17.2915 20.5377 17.8065 20.5449 18.0732C20.5485 18.2047 20.5493 18.2816 20.5498 18.3291C20.5501 18.3527 20.5503 18.3769 20.5498 18.3994C20.5496 18.4115 20.5494 18.4237 20.5488 18.4355C20.5484 18.4445 20.5479 18.4539 20.5479 18.4551C20.5464 18.4783 20.5402 18.5571 20.5234 18.6328C20.5108 18.6902 20.403 19.193 19.8584 19.377C19.3843 19.5369 19.0176 19.2908 18.9824 19.2686C18.8824 19.2053 18.8085 19.1359 18.7734 19.1016C18.7335 19.0624 18.6941 19.0187 18.668 18.9902C18.6338 18.9529 18.6108 18.9272 18.5762 18.8896C18.5137 18.8219 18.4482 18.7539 18.3799 18.6904C18.2639 18.5828 18.1092 18.4577 17.1387 17.8301C16.1938 17.2191 14.4929 16.1421 12.9717 15.0625C11.4455 13.9793 10.1482 12.9246 9.48926 12.3506C9.20155 12.1 8.93739 11.8598 8.79004 11.6377C8.72345 11.5373 8.48631 11.1587 8.64648 10.6768C8.72154 10.4514 8.85465 10.3055 8.93848 10.2285C9.01186 10.1612 9.08504 10.1141 9.09375 10.1084L9.37109 9.94336C9.48879 9.87883 9.63943 9.80021 9.84277 9.69727C10.244 9.49414 10.8944 9.17501 12.2959 8.35449C13.7117 7.52559 15.8655 6.20053 17.0029 5.50195C18.1182 4.81698 18.1849 4.77747 18.2412 4.74609V4.74707C18.3182 4.70132 18.4119 4.64568 18.4863 4.60449V4.60352C18.4877 4.60274 18.4898 4.60225 18.4912 4.60156C18.499 4.59726 18.5064 4.59185 18.5137 4.58789V4.58984C18.534 4.5789 18.5517 4.56847 18.5664 4.56152C18.5875 4.55161 18.6064 4.54311 18.6211 4.53711C18.6493 4.52563 18.6743 4.51758 18.6885 4.5127C18.696 4.5101 18.7037 4.50792 18.71 4.50586C18.7111 4.50527 18.7127 4.50449 18.7139 4.50391C18.7392 4.49142 18.7655 4.48007 18.792 4.46973C18.7984 4.46721 18.8051 4.4643 18.8115 4.46191C18.832 4.45444 18.853 4.44756 18.874 4.44141C18.8933 4.43574 18.9131 4.4312 18.9326 4.42676C18.9423 4.42456 18.9521 4.42185 18.9619 4.41992C18.9855 4.41529 19.0095 4.41208 19.0332 4.40918C19.0426 4.40804 19.0521 4.40617 19.0615 4.40527C19.0868 4.40292 19.1124 4.40178 19.1377 4.40137C19.1433 4.40127 19.1496 4.40042 19.1553 4.40039C19.1575 4.40039 19.1599 4.40129 19.1621 4.40137ZM18.0498 7.20605C16.9205 7.89959 14.7451 9.23788 13.3066 10.0801C12.3235 10.6556 11.6877 10.9943 11.251 11.2207C11.9292 11.7855 12.9567 12.5997 14.1289 13.4316C15.6049 14.4792 17.256 15.5241 18.2246 16.1504C18.3187 16.2113 18.4062 16.2688 18.4883 16.3223C18.4219 14.3009 18.291 10.4354 18.2246 8.37012C18.2079 7.84937 18.1961 7.44175 18.1865 7.12207C18.1429 7.14882 18.0972 7.17696 18.0498 7.20605Z" fill="black"/>
</svg>
