<svg width="24" height="24" viewBox="0 0 24 24" fill="none" xmlns="http://www.w3.org/2000/svg">
<path d="M11.8486 1.40039C12.1799 1.42404 13.5767 1.49908 13.8115 1.52734C14.2563 1.58101 14.6898 1.64815 15.0557 1.76172C15.0901 1.77241 15.0868 1.77123 15.1758 1.79688C15.2452 1.81689 15.3293 1.84275 15.4336 1.88086C15.6385 1.95575 15.9 2.06898 16.2783 2.26074C16.5938 2.42063 16.9471 2.62833 17.457 2.98242C17.956 3.32895 18.5978 3.80962 18.9648 4.0918C19.3582 4.39419 19.4928 4.5131 19.7803 4.81738C20.0317 5.0835 20.4232 5.51267 20.6709 5.79785C20.9369 6.10408 21.0583 6.2679 21.2305 6.54004C21.3824 6.7803 21.5832 7.11854 21.7461 7.42285C21.9074 7.72423 22.0403 7.99695 22.1641 8.32324C22.3819 8.89774 22.5894 9.51158 22.6738 9.99121C22.7292 10.3061 22.7418 10.8581 22.6934 11.499C22.6714 11.7891 22.6594 11.9604 22.5723 12.3369C22.5053 12.6264 22.3867 13.0911 22.0625 13.9688C21.7456 14.8264 21.2453 16.0631 20.9688 16.7119C20.6913 17.3628 20.6174 17.5532 20.5088 17.7539C20.3222 18.0988 20.1985 18.4531 19.6826 18.9639C19.2041 19.4376 18.7891 19.8114 18.6094 19.9443C18.4634 20.0522 17.9937 20.3276 17.293 20.6943C16.95 20.8738 16.6104 21.0381 16.4697 21.1094C16.0523 21.3208 15.6248 21.4947 15.4414 21.5713C15.14 21.6971 14.7321 21.7981 14.3213 21.877C13.8079 21.9754 13.4098 22.0365 13.2422 22.0537C12.8782 22.0912 12.5351 22.113 12.3906 22.126C12.2278 22.1405 11.67 22.1465 10.9824 22.1221C10.7723 22.1146 10.6916 22.1174 10.5215 22.1133C10.3858 22.1099 10.2012 22.1019 10 22.0508C9.60863 21.9512 9.21452 21.8191 8.57422 21.6973C8.36958 21.6583 7.93866 21.5809 7.4082 21.3184C7.08098 21.1564 6.65589 20.9566 6.28418 20.6982C6.18881 20.632 5.73605 20.3403 5.23047 19.9111C5.01564 19.7288 4.8012 19.5598 4.44238 19.1182C4.21033 18.8325 3.87544 18.3854 3.59668 17.9678C3.32 17.5532 3.09894 17.1776 2.97168 16.9375C2.91442 16.8295 2.84851 16.7226 2.72754 16.5146C2.61515 16.3214 2.48044 16.0818 2.32617 15.7744C2.16875 15.4608 2.00534 15.096 1.91016 14.8154C1.76347 14.383 1.66912 13.9536 1.64746 13.0967C1.63297 12.5223 1.63284 11.6322 1.64844 11.0303C1.6645 10.4112 1.69698 10.0722 1.76758 9.65918C1.83332 9.27478 1.92868 8.84018 2.01953 8.48535C2.11328 8.11926 2.20628 7.81999 2.35645 7.46289C2.48927 7.14715 2.66685 6.76492 2.79492 6.5332C3.02112 6.12419 3.2187 5.81253 3.47461 5.48926C3.81972 5.05336 4.20784 4.55982 4.53613 4.28027C4.74016 4.10662 5.00021 3.9107 5.6582 3.51758C6.30317 3.13226 7.33951 2.55057 7.9668 2.22363C8.61652 1.88503 8.88929 1.78 9.32324 1.67773C9.78152 1.56979 10.3884 1.5032 10.8447 1.46289C11.0813 1.442 11.2944 1.42728 11.4502 1.41699C11.6475 1.40396 11.6812 1.40181 11.6602 1.4043L11.7549 1.39355L11.8486 1.40039ZM11.582 3.41211C11.4354 3.42179 11.2378 3.43589 11.0205 3.45508C10.5687 3.49499 10.0882 3.55198 9.78223 3.62402C9.64792 3.65567 9.57053 3.67804 9.46875 3.71875C9.35226 3.76538 9.1875 3.84333 8.89062 3.99805C8.30036 4.30571 7.29795 4.86734 6.68359 5.23438C6.08257 5.59346 5.92299 5.72531 5.83203 5.80273C5.69154 5.92247 5.44939 6.21811 5.04297 6.73145C4.87491 6.94377 4.73686 7.15568 4.5459 7.50098C4.46676 7.64417 4.32014 7.95315 4.2002 8.23828C4.09772 8.48197 4.0334 8.68322 3.95703 8.98145C3.87769 9.29133 3.79463 9.6723 3.73926 9.99609C3.68881 10.2912 3.66274 10.5309 3.64844 11.082C3.63369 11.6508 3.63287 12.5075 3.64648 13.0469C3.66387 13.7338 3.73141 13.9597 3.80371 14.1729C3.85666 14.3289 3.97459 14.6016 4.11328 14.8779C4.24323 15.1368 4.35668 15.3379 4.45605 15.5088C4.54682 15.6648 4.65741 15.8466 4.73926 16.001C4.83082 16.1737 5.01547 16.4914 5.25977 16.8574C5.50235 17.2209 5.7998 17.6182 5.99414 17.8574C6.12169 18.0144 6.20777 18.1041 6.27441 18.168C6.34808 18.2385 6.40556 18.285 6.52539 18.3867C6.93669 18.7358 7.27963 18.9541 7.42578 19.0557C7.64517 19.2082 7.90385 19.3319 8.29492 19.5254C8.57155 19.6623 8.78143 19.7007 8.94824 19.7324C9.66395 19.8686 10.2364 20.047 10.4932 20.1123C10.4681 20.106 10.4672 20.1117 10.5703 20.1143C10.6229 20.1155 10.6779 20.116 10.7637 20.1172C10.8449 20.1183 10.9419 20.1201 11.0537 20.124C11.3849 20.1358 11.6706 20.1389 11.8818 20.1387C12.0982 20.1384 12.2038 20.134 12.2119 20.1338C12.4612 20.1114 12.6639 20.1019 13.0371 20.0635C13.1167 20.0553 13.4469 20.0075 13.9443 19.9121C14.3199 19.84 14.5644 19.77 14.6709 19.7256C14.8779 19.6391 15.2286 19.4963 15.5664 19.3252C15.7649 19.2247 16.0305 19.0985 16.3662 18.9229C16.7122 18.7417 16.9786 18.5937 17.1641 18.4873C17.3716 18.3682 17.4382 18.3234 17.4199 18.3369C17.4199 18.3369 17.4426 18.3185 17.4951 18.2734C17.5444 18.2311 17.6097 18.1743 17.6875 18.1035C17.8432 17.9619 18.0453 17.7708 18.2754 17.543C18.4166 17.4031 18.4675 17.3292 18.5039 17.2686C18.5282 17.2279 18.5539 17.1803 18.5947 17.1006C18.6333 17.0253 18.6857 16.9205 18.75 16.8018C18.7688 16.7669 18.7865 16.7318 18.8398 16.6084C18.8968 16.4765 18.9772 16.2837 19.1289 15.9277C19.3952 15.3031 19.883 14.097 20.1865 13.2754C20.4821 12.4752 20.5765 12.0913 20.624 11.8857C20.6774 11.6548 20.6791 11.6003 20.6982 11.3477C20.7192 11.0701 20.7253 10.8333 20.7227 10.6514C20.7213 10.5607 20.718 10.4863 20.7139 10.4297C20.7118 10.4016 20.7099 10.3788 20.708 10.3623C20.7063 10.3474 20.7045 10.3394 20.7041 10.3379C20.655 10.0594 20.5095 9.59824 20.2949 9.03223C20.2117 8.81266 20.1201 8.62164 19.9834 8.36621C19.8481 8.11337 19.6722 7.81827 19.54 7.60938C19.4283 7.4327 19.3695 7.34926 19.1611 7.10938C18.9343 6.84822 18.5614 6.43942 18.3262 6.19043C18.1272 5.97985 18.0757 5.93114 17.7461 5.67773C17.39 5.40397 16.7772 4.94498 16.3164 4.625C15.8667 4.31268 15.5923 4.15554 15.374 4.04492C15.039 3.87512 14.8536 3.79772 14.7471 3.75879C14.6121 3.70946 14.6438 3.72805 14.4629 3.67188C14.2812 3.61548 13.9996 3.56534 13.5713 3.51367C13.569 3.51343 13.5627 3.5127 13.5518 3.51172C13.5364 3.51033 13.5155 3.50781 13.4902 3.50586C13.4391 3.50192 13.373 3.4973 13.2959 3.49219C13.1415 3.48196 12.9482 3.47101 12.7471 3.45898C12.3909 3.43769 12.0006 3.41349 11.7754 3.39844C11.7126 3.40257 11.6389 3.40835 11.582 3.41211ZM14.3174 8C14.7077 8.00102 14.9533 8.00492 15.1055 8.01562C15.1637 8.01973 15.3031 8.02987 15.4473 8.07617C15.5325 8.10361 15.671 8.15868 15.8076 8.27441C15.9211 8.37059 15.9935 8.47468 16.0391 8.55566L16.0762 8.62793L16.1377 8.79102C16.1854 8.94983 16.1958 9.097 16.2031 9.2207C16.2141 9.40539 16.2224 9.71189 16.2324 10.2373C16.2519 11.2524 16.2874 13.1894 16.2959 14.2119C16.3 14.7058 16.303 15.0198 16.2959 15.209C16.2929 15.29 16.2862 15.4306 16.252 15.5703C16.2077 15.7504 16.0789 16.0748 15.7168 16.2666C15.5484 16.3557 15.3886 16.3883 15.2637 16.4014C15.1615 16.412 15.0544 16.4117 14.9736 16.4111C14.7571 16.4096 14.5606 16.4023 14.0537 16.4004C13.1822 16.3972 11.5071 16.4038 10.5635 16.3945C10.3412 16.3923 10.0897 16.3902 9.86621 16.3623C9.63627 16.3335 9.33065 16.267 9.04395 16.0664C8.45381 15.6534 8.33639 14.9496 8.27051 14.4814C8.11756 13.3943 8.0587 11.3731 8.03027 10.4092C8.01447 9.87325 8.04023 9.51149 8.08398 9.25488C8.1065 9.12292 8.13329 9.01814 8.16211 8.93164C8.17577 8.89067 8.18859 8.85791 8.19141 8.85059C8.33046 8.46569 8.69804 8.1896 9.13086 8.18945L9.24219 8.17871C9.29494 8.17052 9.36511 8.15689 9.45605 8.1377C9.52588 8.12295 9.63304 8.09993 9.71484 8.08398C9.78706 8.06991 9.92781 8.04306 10.0713 8.04102L11.1201 8.02344C11.9448 8.01333 13.5115 7.99791 14.3174 8ZM14.2256 10C13.4138 9.99913 11.9402 10.0127 11.1445 10.0225C10.3365 10.0324 10.3252 10.0369 10.1318 10.04C10.1241 10.0414 10.1126 10.044 10.0977 10.0469C10.0742 10.0515 10.0505 10.0562 10.0254 10.0615C10.0248 10.1451 10.0261 10.2413 10.0293 10.3506C10.0593 11.3675 10.1173 13.2529 10.251 14.2031C10.2612 14.2758 10.2726 14.3369 10.2822 14.3887C10.2843 14.3888 10.287 14.3896 10.2891 14.3896C10.3706 14.3926 10.4653 14.3944 10.583 14.3955C11.525 14.4048 13.1545 14.3971 14.0615 14.4004C14.1455 14.4007 14.2237 14.4017 14.2959 14.4023C14.2955 14.348 14.2964 14.29 14.2959 14.2285C14.2875 13.219 14.2529 11.2935 14.2334 10.2754C14.2315 10.1743 14.2274 10.0827 14.2256 10Z" fill="black"/>
</svg>
