<svg width="24" height="24" viewBox="0 0 24 24" fill="none" xmlns="http://www.w3.org/2000/svg">
<path d="M6.06522 13.1162C6.6175 13.1162 7.06522 13.5639 7.06522 14.1162L7.06717 14.1768C7.06901 14.2537 7.07246 14.4053 7.07987 14.7041C7.09463 15.2995 7.12507 16.4921 7.13553 17.1484C7.14637 17.8288 7.13538 17.9309 7.11698 18.2998C7.09949 18.6504 7.07456 19.2749 7.06034 19.6172C7.04654 19.9491 7.04325 19.9943 7.03983 20.041C6.99945 20.5918 6.52032 21.0052 5.96952 20.9648C5.41887 20.9243 5.00533 20.4452 5.04569 19.8945C5.04627 19.8868 5.04721 19.8736 5.06131 19.5342C5.07522 19.1995 5.1009 18.5617 5.11893 18.2002C5.13605 17.857 5.14543 17.8019 5.13553 17.1807C5.12525 16.5353 5.09572 15.3528 5.08084 14.7529C5.06639 14.1699 5.06522 14.14 5.06522 14.1162C5.06522 13.5641 5.51315 13.1165 6.06522 13.1162ZM12.1619 2.99121C12.7141 2.99132 13.1619 3.439 13.1619 3.99121C13.1619 4.01468 13.1606 4.06479 13.0887 6.61426C13.0157 9.20011 12.8696 14.365 12.74 19.7412C12.7265 20.2931 12.2676 20.7301 11.7156 20.7168C11.1639 20.7033 10.7271 20.245 10.74 19.6934C10.8697 14.3126 11.0157 9.14345 11.0887 6.55762C11.1251 5.26598 11.144 4.61806 11.1531 4.29297C11.1576 4.13156 11.1598 4.04922 11.1609 4.00781L11.1619 3.99121C11.1619 3.43897 11.6097 2.99129 12.1619 2.99121ZM18.075 9.12793C18.6272 9.12796 19.075 9.57566 19.075 10.1279V10.1104C19.0757 10.1258 19.0776 10.1588 19.0818 10.2285C19.0901 10.3666 19.1066 10.6349 19.1404 11.1641C19.2074 12.2127 19.3451 14.3395 19.3533 15.8535C19.3617 17.4011 19.2317 18.2561 19.157 18.7383V18.7393C19.0791 19.2388 19.064 19.4164 19.0535 19.5967L19.0525 19.6055C19.0453 19.7138 19.039 19.7651 19.0349 19.8027C18.9764 20.3519 18.4835 20.75 17.9344 20.6914C17.3855 20.6326 16.9881 20.1398 17.0467 19.5908C17.0499 19.5606 17.0499 19.5567 17.0515 19.54C17.0528 19.5275 17.0551 19.5074 17.0574 19.4727C17.0727 19.2131 17.0967 18.9678 17.1805 18.4307C17.2447 18.0159 17.3609 17.2723 17.3533 15.8643C17.3455 14.4212 17.2125 12.3595 17.1443 11.292C17.0789 10.2672 17.075 10.1911 17.075 10.1279C17.075 9.57569 17.5228 9.128 18.075 9.12793Z" fill="black"/>
</svg>
