<svg width="24" height="24" viewBox="0 0 24 24" fill="none" xmlns="http://www.w3.org/2000/svg">
<path d="M19.5881 19.6816L19.5979 19.7422C19.6507 20.2463 19.3146 20.7194 18.8078 20.8252C18.2673 20.9379 17.7372 20.5902 17.6242 20.0498C17.6034 19.9498 17.5963 19.8612 17.5832 19.6924C17.5686 19.5033 17.5439 19.1502 17.4963 18.4707C17.4009 17.1081 17.218 14.4788 17.1145 12.0801C17.0108 9.67944 16.9868 7.57761 16.9748 6.29102C16.9628 5.00594 16.9631 4.53625 16.9631 4.29883V4.06055C16.9631 3.50826 17.4108 3.06055 17.9631 3.06055C18.5153 3.06065 18.9631 3.50833 18.9631 4.06055V4.29883C18.9631 4.52947 18.9629 4.99301 18.9748 6.27246C18.9867 7.55358 19.0104 9.6282 19.1125 11.9941C19.2148 14.3629 19.396 16.9673 19.4914 18.3311C19.5392 19.0134 19.5634 19.3581 19.5773 19.5381C19.5842 19.6269 19.5864 19.6657 19.5881 19.6816ZM11.1623 9.68359C11.3384 9.16025 11.9055 8.87786 12.4289 9.05371C12.8784 9.20498 13.1486 9.64497 13.1047 10.0977C13.1054 10.09 13.1064 10.0842 13.1066 10.0811V10.0977C13.1062 10.1151 13.1054 10.1396 13.1047 10.1738C13.1017 10.313 13.0971 10.5926 13.0891 11.1533C13.0729 12.2745 13.0429 14.5017 13.0393 16.001C13.0357 17.4832 13.0589 18.1824 13.0725 18.5527L13.1115 19.2949L13.1242 19.4873C13.1685 20.0377 12.7586 20.52 12.2082 20.5645C11.6578 20.6088 11.1755 20.1988 11.1311 19.6484C11.1218 19.534 11.1191 19.4902 11.1145 19.4062V19.4053C11.1043 19.2219 11.0931 19.0604 11.0744 18.6426L11.0734 18.6348C11.0589 18.2401 11.0356 17.5152 11.0393 15.9961C11.0429 14.4832 11.073 12.2443 11.0891 11.124C11.0971 10.5642 11.1016 10.2788 11.1047 10.1318C11.1062 10.0612 11.1081 10.0126 11.1096 9.97949C11.1102 9.96663 11.111 9.93252 11.1154 9.89355C11.1237 9.82137 11.1394 9.7517 11.1623 9.68359ZM6.05976 15.0898C6.61185 15.0792 7.0685 15.5182 7.0793 16.0703C7.08485 16.3545 7.09062 16.6409 7.0959 17.1895C7.10115 17.7357 7.10523 18.5348 7.10664 18.9648C7.108 19.3807 7.1072 19.4524 7.10273 19.5273C7.06985 20.0786 6.59536 20.4986 6.04414 20.4658C5.49303 20.4327 5.07278 19.9594 5.10566 19.4082C5.106 19.4025 5.10562 19.4037 5.10566 19.4023C5.10582 19.3974 5.10637 19.3843 5.10664 19.3555C5.1072 19.2954 5.10734 19.1846 5.10664 18.9707C5.10525 18.5443 5.1011 17.7495 5.0959 17.208C5.09071 16.6689 5.08478 16.3901 5.0793 16.1094C5.06851 15.5572 5.50759 15.1006 6.05976 15.0898ZM13.0578 10.3203C13.0587 10.3177 13.0638 10.3042 13.0686 10.2881C13.0731 10.2727 13.0762 10.256 13.0803 10.2393C13.0736 10.2663 13.0668 10.2935 13.0578 10.3203Z" fill="black"/>
</svg>
