<svg width="24" height="24" viewBox="0 0 24 24" fill="none" xmlns="http://www.w3.org/2000/svg">
<path d="M9.65729 1.51474C10.0076 1.51004 10.4637 1.52505 10.9385 1.53525C11.4439 1.54617 11.9138 1.60768 12.2764 1.63877C13.7542 1.76549 14.3992 1.87821 14.8389 2.06845C15.342 2.28619 15.6236 2.68304 15.7911 2.99131C15.9437 3.27221 16.079 3.63837 16.1671 3.85068C16.2879 4.14208 16.3468 4.44362 16.4161 4.84775C16.455 5.07477 16.4928 5.34755 16.5362 5.83506C17.0102 5.83781 17.458 5.8401 17.7891 5.84678C17.9777 5.85056 18.1695 5.84234 18.3829 5.83115C18.5849 5.82055 18.8252 5.80621 19.0567 5.80478C19.5236 5.80196 20.1128 5.84782 20.6788 6.17392C21.1939 6.47082 21.6046 6.93501 21.8946 7.33701C22.1925 7.74996 22.427 8.18691 22.5635 8.52256C22.5872 8.58064 22.6828 8.78184 22.753 9.06357C22.8222 9.34139 22.8701 9.69128 22.8936 10.1837C22.9096 10.5175 22.9268 10.9824 22.9444 11.4483C22.9621 11.9185 22.98 12.3921 22.9981 12.755C23.0333 13.4604 23.0729 13.8065 23.0704 14.6563C23.0679 15.4895 23.0275 16.8038 22.9864 17.5899C22.9475 18.333 22.9181 18.6912 22.8341 18.9981C22.7185 19.4194 22.4194 20.8631 21.1729 21.5772C20.8389 21.7685 20.4023 21.8979 19.9512 21.9864C19.4814 22.0786 18.9232 22.139 18.3028 22.1573C17.7491 22.1736 16.8609 22.1984 16.3546 22.2198C15.827 22.2421 15.6853 22.2605 13.7569 22.2618C11.8395 22.2631 8.24368 22.2483 6.3946 22.2335C5.47371 22.2261 4.97742 22.2198 4.69929 22.212C4.4384 22.2047 4.29577 22.196 4.13972 22.1593C3.94087 22.1125 3.58308 22.027 3.23249 21.9044C3.05677 21.8429 2.8608 21.7648 2.67585 21.6661C2.50324 21.574 2.27139 21.4279 2.08503 21.2052C1.87947 20.9595 1.75096 20.6274 1.65436 20.2892C1.43751 19.5298 1.33796 19.1125 1.24225 18.4718C1.20022 18.1901 1.17706 17.8884 1.22175 16.1026C1.26713 14.2892 1.38265 10.9808 1.45026 9.29697C1.48394 8.45826 1.50623 8.00862 1.5235 7.76084C1.53755 7.55933 1.55072 7.35715 1.64167 7.14756C1.64823 7.13233 1.66157 7.10131 1.66315 7.09775C1.67816 7.06413 1.70508 7.00571 1.74518 6.94053C1.83462 6.7954 1.97982 6.62828 2.20612 6.51084L2.41413 6.40342C2.63983 6.28949 2.92253 6.16586 3.29792 6.10752C3.72999 6.04034 4.19386 5.94492 5.02253 5.9747C5.2729 5.98371 5.6229 6.00149 5.96491 6.01865C6.31302 6.03612 6.65589 6.05297 6.90632 6.06162C6.98145 6.06421 7.05096 6.06545 7.1153 6.06748C7.13945 4.89619 7.15696 4.26704 7.17194 3.92197C7.18455 3.63161 7.19296 3.39792 7.28718 3.16904L7.39265 2.94736C7.5093 2.72984 7.65587 2.52666 7.79597 2.36045C7.97607 2.14685 8.22733 1.89562 8.50788 1.73545L8.68464 1.65146C8.86069 1.58317 9.02847 1.55792 9.1319 1.54502C9.2979 1.52435 9.48028 1.51713 9.65729 1.51474ZM14.4268 7.82724C13.3009 7.82545 12.9066 7.84561 12.3839 7.86728C11.9443 7.8855 10.9612 7.90744 10.5167 7.92392C9.82245 7.96579 9.42862 8.00068 9.08015 8.04306C9.03135 10.7498 8.97344 14.4322 8.9571 16.6524C8.93798 19.251 8.9724 19.8078 9.0069 20.2472C10.6853 20.2551 12.5525 20.2626 13.755 20.2618C14.3626 20.2614 14.7874 20.2573 15.1007 20.254C15.0957 20.2163 15.0925 20.1777 15.0919 20.1388C15.0882 19.9088 15.085 19.683 15.0137 17.4024C14.9424 15.1199 14.8078 10.9265 14.6973 8.51474C14.686 8.26663 14.672 8.03814 14.6612 7.82724C14.5784 7.82712 14.5 7.82736 14.4268 7.82724ZM4.95026 7.97373C4.34131 7.95187 4.06043 8.01321 3.60456 8.08408C3.56841 8.08971 3.53855 8.09576 3.5069 8.10556C3.49309 8.35369 3.47357 8.74785 3.44831 9.37705C3.38094 11.0549 3.26582 14.3525 3.22077 16.1524C3.17513 17.9764 3.20804 18.0984 3.21979 18.1769C3.2983 18.7025 3.37514 19.0293 3.57819 19.7403C3.59944 19.8147 3.62012 19.8695 3.63483 19.9093C3.69678 19.9408 3.78283 19.9783 3.89265 20.0167C4.1206 20.0964 4.37126 20.1572 4.5655 20.2032C4.59417 20.2051 4.65032 20.2091 4.75495 20.212C5.00991 20.2191 5.48679 20.2261 6.4112 20.2335C6.5921 20.2349 6.7898 20.235 7.00104 20.2364C6.96624 19.7341 6.93971 19.0009 6.9571 16.6378C6.97339 14.4243 7.03063 10.7721 7.07917 8.0665C7.00515 8.06421 6.92464 8.06367 6.83698 8.06064C6.56772 8.05134 6.20849 8.03294 5.8653 8.01572C5.5162 7.99821 5.18295 7.9821 4.95026 7.97373ZM18.4874 7.8292C18.269 7.84065 18.0155 7.85213 17.7491 7.84678C17.4601 7.84095 17.0771 7.83879 16.6641 7.83603C16.6733 8.01946 16.6858 8.21467 16.6954 8.42295C16.8067 10.8521 16.9415 15.0615 17.0128 17.3399C17.084 19.6177 17.0879 19.8593 17.0919 20.1075C17.0923 20.137 17.09 20.1665 17.088 20.1954C17.499 20.1824 17.9321 20.1675 18.2442 20.1583C18.7738 20.1427 19.2211 20.0913 19.5665 20.0235C19.9302 19.9521 20.1205 19.8743 20.1788 19.8409C20.3572 19.7386 20.5019 19.5665 20.6251 19.3106C20.7541 19.0424 20.8229 18.7668 20.9044 18.4698C20.9203 18.4115 20.9476 18.2831 20.9893 17.4854C21.029 16.7279 21.068 15.4468 21.0704 14.6505C21.0727 13.871 21.0396 13.6294 21.001 12.8546C20.9823 12.4774 20.963 11.991 20.9454 11.5235C20.9276 11.0521 20.9109 10.6004 20.8956 10.2794C20.8757 9.86441 20.8394 9.65451 20.8126 9.54697C20.7869 9.4442 20.775 9.43277 20.711 9.27549C20.6368 9.09312 20.481 8.79585 20.2725 8.50693C20.0562 8.20707 19.8435 8.00024 19.6807 7.90635C19.5735 7.84454 19.4113 7.80273 19.0694 7.80478C18.8967 7.80584 18.717 7.81715 18.4874 7.8292ZM9.44147 3.52646C9.40677 3.55959 9.36605 3.60116 9.32526 3.64951C9.26027 3.72662 9.21133 3.79791 9.17878 3.85166C9.17652 3.88983 9.17293 3.94121 9.16999 4.00888C9.15642 4.32148 9.14048 4.9086 9.11725 6.02842C9.45703 5.99351 9.8481 5.96133 10.4044 5.92783L10.4151 5.92685H10.4268C10.9916 5.90552 11.791 5.88938 12.3008 5.86826C12.8387 5.84596 13.2649 5.82538 14.4307 5.82724C14.4616 5.82729 14.4936 5.8272 14.5264 5.82724C14.4944 5.50417 14.4695 5.32616 14.4454 5.18564C14.3742 4.77046 14.3437 4.67587 14.3194 4.61728C14.2881 4.54177 14.2584 4.46746 14.2315 4.40049C14.2039 4.33168 14.1795 4.27036 14.1553 4.21201C14.1063 4.09364 14.0678 4.01001 14.0333 3.94638C14.0186 3.91945 14.0049 3.90103 13.9962 3.88779C13.8526 3.83998 13.4434 3.74569 12.1055 3.63095C11.6175 3.58911 11.3176 3.5434 10.8956 3.53428C10.3804 3.5232 9.98748 3.51066 9.68366 3.51474C9.57853 3.51617 9.49933 3.52203 9.44147 3.52646Z" fill="black"/>
</svg>
