<svg width="24" height="24" viewBox="0 0 24 24" fill="none" xmlns="http://www.w3.org/2000/svg">
<path d="M11.755 0.538074C12.3071 0.527963 12.7633 0.967415 12.7735 1.51952C12.7805 1.89371 12.7871 2.26829 12.8185 3.97948C13.7246 3.97168 14.7021 3.97457 15.4064 4.00585C16.1631 4.03946 16.6422 4.06893 16.9386 4.09081C17.0863 4.10172 17.1932 4.11036 17.2677 4.11815C17.3043 4.12198 17.338 4.12586 17.3673 4.12987C17.3814 4.13182 17.4007 4.13512 17.421 4.13866C17.4311 4.14043 17.4469 4.14356 17.4649 4.14745C17.4769 4.15003 17.5207 4.15921 17.5733 4.17675C18.0969 4.35162 18.3797 4.91768 18.2052 5.44139C18.0414 5.93237 17.5336 6.21225 17.0392 6.10155L17.0431 6.10253C17.0587 6.10587 17.0715 6.10738 17.0773 6.10839C17.0806 6.10899 17.0837 6.10997 17.086 6.11034C17.0799 6.10961 17.071 6.1086 17.0597 6.10741C17.0119 6.10242 16.9271 6.09492 16.7921 6.08495C16.5219 6.065 16.0631 6.03701 15.3175 6.00389C14.6621 5.97479 13.7318 5.97192 12.8546 5.97948C12.8805 7.38448 12.9126 9.20792 12.9464 11.0654C13.2314 11.0793 13.5055 11.0952 13.7482 11.1123C14.758 11.1833 15.2304 11.2696 15.8233 11.4521C16.4098 11.6327 16.9008 11.8233 17.2726 12.0098C17.4565 12.102 17.6339 12.2048 17.7853 12.3174C17.8845 12.3912 18.0866 12.5496 18.2228 12.7988L18.2774 12.9121L18.3204 13.0283C18.4127 13.306 18.4495 13.6242 18.4718 13.873C18.5003 14.1916 18.5161 14.5624 18.5304 14.9238C18.5685 15.8892 18.1933 16.6685 17.7569 17.2695C17.3242 17.8654 16.6441 18.2558 16.2872 18.4785C15.94 18.6951 15.5882 18.8126 15.0831 18.917C14.637 19.0092 14.0404 19.0833 13.087 19.1318C13.1128 20.8019 13.1172 21.2828 13.1202 21.5791C13.1241 21.9624 13.1288 21.9829 13.13 21.9971C13.175 22.5473 12.7652 23.0299 12.2149 23.0752C11.6648 23.1204 11.1824 22.7112 11.1368 22.1611C11.1292 22.0678 11.1241 21.9828 11.1202 21.5996C11.1173 21.3072 11.1105 20.8329 11.0851 19.1855C10.1315 19.1947 9.13436 19.1903 8.41905 19.1699C6.91479 19.127 6.35366 18.9719 6.03331 18.8838L5.56749 18.7715C5.37126 18.72 5.09758 18.6362 4.81553 18.3877C4.40139 18.0223 4.36135 17.3897 4.72667 16.9756C5.07408 16.5818 5.66228 16.5273 6.0753 16.8369L6.51768 16.9433L6.53917 16.9492C6.713 16.9969 7.10664 17.1318 8.47569 17.1709C9.16441 17.1905 10.1322 17.1944 11.0558 17.1855C11.0357 16.0038 11.0083 14.5241 10.9806 12.9766C10.7424 12.9635 10.5212 12.9515 10.3321 12.9355C9.30985 12.8494 8.59509 12.6995 7.81163 12.2334C7.37975 11.9764 6.98815 11.7278 6.71104 11.4121C6.3935 11.0502 5.94697 10.3734 5.6876 9.52343C5.54098 9.04275 5.35148 8.27569 5.61046 7.31737C5.73999 6.83829 5.87793 6.38095 6.11436 5.98632C6.37641 5.5491 6.71761 5.25125 7.13975 4.99413C7.33807 4.87342 7.64892 4.75485 7.94249 4.65136C8.27285 4.5349 8.69949 4.39793 9.20225 4.24706C9.66321 4.10874 9.96604 4.04851 10.8185 4.01757C10.7868 2.30534 10.7805 1.93078 10.7735 1.55663C10.7633 1.00444 11.2028 0.548325 11.755 0.538074ZM13.0558 17.1308C13.9009 17.0855 14.3717 17.0215 14.6788 16.958C15.0613 16.8789 15.1592 16.8246 15.2286 16.7812C15.7071 16.4826 15.9849 16.3043 16.1378 16.0937C16.4138 15.7136 16.5458 15.3704 16.5314 15.0029C16.5167 14.6319 16.5029 14.3121 16.4796 14.0517C16.4717 13.9637 16.4607 13.8935 16.4532 13.8389C16.4305 13.8265 16.4048 13.8123 16.3761 13.7978C16.1326 13.6757 15.7518 13.5225 15.2345 13.3633C14.8316 13.2393 14.5198 13.1716 13.6075 13.1074C13.4184 13.0941 13.2069 13.0825 12.9825 13.0713C13.0094 14.5629 13.0363 15.9853 13.0558 17.1308ZM10.8556 6.01854C10.5486 6.03015 10.3576 6.0426 10.2198 6.06053C10.0562 6.08186 9.95941 6.1075 9.77745 6.1621C9.29245 6.30764 8.89795 6.4357 8.60753 6.53807C8.3085 6.64349 8.19039 6.69805 8.17979 6.70214C7.9544 6.83942 7.88309 6.9255 7.83018 7.01366C7.75181 7.14447 7.6718 7.35557 7.54112 7.83886C7.42668 8.26233 7.49635 8.59838 7.60069 8.94042C7.76769 9.48738 8.0609 9.91818 8.21397 10.0928C8.25297 10.137 8.37447 10.2405 8.83506 10.5146C9.24771 10.7601 9.61862 10.869 10.5001 10.9433C10.63 10.9543 10.7798 10.9612 10.9444 10.9707C10.9117 9.1601 10.8808 7.39034 10.8556 6.01854ZM17.0948 6.11132C17.0942 6.11123 17.0927 6.11153 17.0909 6.11132C17.0899 6.11115 17.088 6.11067 17.086 6.11034C17.0907 6.11089 17.0939 6.11119 17.0948 6.11132Z" fill="black"/>
</svg>
