<svg width="24" height="24" viewBox="0 0 24 24" fill="none" xmlns="http://www.w3.org/2000/svg">
<path d="M10.6593 1.02405C11.3694 1.04067 12.3871 1.09921 13.2931 1.23011C14.126 1.35047 15.0013 1.50764 15.6026 1.79261C15.9561 1.96018 16.2004 2.08943 16.3644 2.18323C16.4461 2.22999 16.5099 2.26891 16.5587 2.30042C16.5829 2.31605 16.6058 2.33204 16.6261 2.34632C16.6358 2.35319 16.6482 2.36194 16.6612 2.37171C16.6675 2.37642 16.6772 2.38402 16.6886 2.39319C16.6899 2.39429 16.7285 2.42433 16.7706 2.46644C17.161 2.85688 17.1609 3.48996 16.7706 3.8805C16.4273 4.22375 15.8965 4.26573 15.5079 4.0055L15.4356 3.95179C15.4458 3.95991 15.4538 3.96614 15.4581 3.96937C15.4669 3.97601 15.4735 3.98055 15.4757 3.98206C15.4749 3.98156 15.4738 3.98078 15.4728 3.98011C15.4588 3.97111 15.4264 3.95115 15.3712 3.91956C15.26 3.85596 15.0628 3.7503 14.7462 3.60023C14.4585 3.46384 13.8793 3.33567 13.0069 3.2096C12.2072 3.09405 11.2753 3.03956 10.6124 3.02405C9.96339 3.00888 9.65483 3.03386 9.39561 3.07288C8.89876 3.14771 8.28714 3.3577 7.43076 3.70277C6.62839 4.02611 6.2168 4.34867 6.05869 4.48109C5.78451 4.7108 5.49414 5.05369 5.12705 5.64319C4.91975 5.97616 4.64112 6.58974 4.29502 7.57581C3.95714 8.53852 3.60301 9.80431 3.39463 10.695C3.19297 11.557 3.1448 12.0007 3.11045 12.5133C3.07402 13.0573 3.05752 13.6349 3.07334 14.0582C3.08778 14.4437 3.12827 14.6647 3.22666 14.9791C3.48782 15.8135 3.75199 16.3209 3.94151 16.6041C4.08804 16.8231 4.38767 17.1989 4.71885 17.5465C5.02107 17.8638 5.34962 18.1406 5.89268 18.526C6.44361 18.917 7.16681 19.385 7.82041 19.7467C8.46533 20.1036 9.01915 20.3416 9.49131 20.5035C9.92774 20.6532 10.2839 20.7344 11.1095 20.8112C11.963 20.8905 13.2517 20.9569 14.005 20.9869C14.8221 21.0195 15.1466 20.9524 15.5792 20.8268C15.6963 20.7927 15.8632 20.7133 16.3224 20.401C16.7536 20.1077 17.3579 19.6469 17.7306 19.3424C18.1581 18.9931 18.3581 18.7096 18.5958 18.3776C18.7483 18.1646 19.1274 17.6589 19.6466 16.8785C19.8034 16.6428 19.8379 16.5778 19.9767 16.2047C20.1283 15.797 20.3627 15.1075 20.5353 14.4918C20.8247 13.2905 20.9193 12.7324 20.9356 12.5172V12.5084L20.9366 12.4987C20.9613 12.2381 21.0095 11.792 21.0831 11.2399C21.1563 10.6926 21.6598 10.3075 22.2071 10.3805C22.7543 10.4536 23.1383 10.9573 23.0655 11.5045C22.9952 12.0322 22.95 12.4529 22.9278 12.6871C22.895 13.0878 22.7625 13.7937 22.4757 14.9821L22.4659 15.0172C22.2747 15.7017 22.0189 16.4513 21.8517 16.901C21.6708 17.3873 21.5713 17.5967 21.3116 17.9869C20.7671 18.8054 20.3538 19.3583 20.2218 19.5426C19.966 19.8999 19.6388 20.3654 18.9952 20.8912C18.591 21.2214 17.9396 21.7205 17.4474 22.0553C16.9836 22.3708 16.5869 22.616 16.1368 22.7467C15.4937 22.9335 14.9546 23.0269 13.9259 22.986C13.1634 22.9556 11.8315 22.8877 10.9239 22.8034C9.98848 22.7164 9.46902 22.6099 8.84287 22.3951C8.25248 22.1926 7.59244 21.9051 6.85264 21.4957C6.12153 21.0912 5.33449 20.582 4.73545 20.1569C4.12853 19.7261 3.69023 19.3669 3.27061 18.9264C2.87999 18.5164 2.50345 18.0512 2.2794 17.7164C1.96002 17.2392 1.62172 16.548 1.31748 15.5758C1.1641 15.0855 1.09612 14.6891 1.0753 14.1334C1.05591 13.6153 1.07631 12.9622 1.11534 12.3795C1.15646 11.7658 1.21938 11.2145 1.44737 10.2399C1.66886 9.29311 2.04139 7.9564 2.40733 6.9137C2.76505 5.89449 3.10176 5.11188 3.42881 4.58655C3.85617 3.90018 4.2773 3.36544 4.77451 2.94886C5.06512 2.70541 5.65445 2.26202 6.68369 1.8473C7.5394 1.50251 8.34498 1.20872 9.09776 1.09534C9.50513 1.03401 9.93556 1.00713 10.6593 1.02405ZM21.1915 3.37659C21.5354 2.94486 22.1648 2.87392 22.5968 3.21741C23.0287 3.56141 23.0998 4.19066 22.756 4.62269C22.1441 5.39139 21.5866 6.07715 19.8507 7.83851C18.1317 9.58278 15.3128 12.3284 13.8312 13.6754C13.4644 14.0088 13.1521 14.2827 12.8839 14.484C12.631 14.6739 12.3207 14.8753 11.963 14.9586C11.5257 15.0603 11.14 14.9618 10.8263 14.7741C10.5801 14.6267 10.3617 14.4107 10.2198 14.2731C9.55305 13.6264 8.36919 12.435 7.63487 11.7057C6.89791 10.9738 6.59353 10.6867 6.28819 10.3991C5.8866 10.0203 5.86763 9.38685 6.24619 8.98499C6.62478 8.58336 7.25734 8.56481 7.65928 8.943C7.9748 9.24025 8.29232 9.53922 9.04405 10.2858C9.79918 11.0357 10.956 12.2009 11.6124 12.8375C11.633 12.8575 11.6534 12.8753 11.671 12.8922C11.6748 12.8894 11.6798 12.8873 11.6837 12.8844C11.8697 12.7447 12.1208 12.5274 12.4855 12.1959C13.9302 10.8824 16.7211 8.164 18.4259 6.43421C20.1137 4.72162 20.6246 4.08878 21.1915 3.37659Z" fill="black"/>
</svg>
