<svg width="24" height="24" viewBox="0 0 24 24" fill="none" xmlns="http://www.w3.org/2000/svg">
<path d="M10.5791 2.00097C11.6829 1.9963 13.7086 2.00733 14.7187 2.01269C15.6906 2.01785 15.7325 2.0176 15.7353 2.01757C16.2874 2.01759 16.7351 2.46554 16.7353 3.01757C16.7353 3.56985 16.2876 4.01756 15.7353 4.01757C15.727 4.01758 15.7074 4.01799 14.708 4.01269C13.6934 4.00731 11.6797 3.99635 10.5879 4.00097C9.52128 4.00549 9.44096 4.02483 9.00878 4.07226C7.68827 4.21718 6.7448 4.32222 6.45214 4.375C6.0778 4.44251 5.60721 4.50594 5.26366 4.56054C5.11264 4.58455 4.97735 4.60929 4.85839 4.63281C4.84256 4.75876 4.82426 4.91038 4.79882 5.08203C4.68968 5.81814 4.61392 6.44823 4.56054 6.91894C4.51239 7.34352 4.47321 7.73314 4.44726 7.87402C4.44708 7.87507 4.44634 7.88219 4.44433 7.89941C4.44153 7.92344 4.43797 7.9569 4.43261 8.01269C4.42211 8.122 4.40686 8.2896 4.3789 8.55371C4.32709 9.04304 4.23049 9.90344 4.24804 11.7822C4.26583 13.6849 4.40269 16.5903 4.47948 18.1426C4.51082 18.776 4.53903 19.1701 4.56152 19.4219C4.60278 19.4302 4.64588 19.4395 4.68749 19.4482C4.90854 19.4946 5.32718 19.5444 7.73534 19.6543C10.0992 19.7622 14.3048 19.911 16.5791 19.9727C19.0733 20.0403 19.2797 19.962 19.4092 19.9365C19.5589 19.9072 19.666 19.8665 19.7295 19.834C19.7357 19.8308 19.7412 19.827 19.7461 19.8242C19.7848 19.7484 19.8267 19.5929 19.9189 19.0205C19.993 18.5608 20.0849 17.6998 20.1572 16.6836C20.2286 15.6792 20.2633 14.581 20.2373 13.7227C20.2117 12.8764 20.1267 12.2934 20.0293 11.4775C19.9639 10.9293 20.3561 10.4308 20.9043 10.3652C21.4524 10.3 21.9501 10.6921 22.0156 11.2402C22.1082 12.0156 22.2073 12.7053 22.2363 13.6621C22.2649 14.6074 22.2269 15.7763 22.1523 16.8252C22.0786 17.8621 21.9815 18.7913 21.8935 19.3379C21.8064 19.8792 21.7295 20.4957 21.3525 21.0254C20.9885 21.5368 20.3408 21.7922 19.793 21.8994C19.4258 21.9712 19.0242 22.0404 16.5254 21.9727C14.24 21.9107 10.021 21.7608 7.64355 21.6523C5.31095 21.5459 4.69551 21.4929 4.27734 21.4053C4.11231 21.3707 3.85068 21.3236 3.67577 21.2744C3.5353 21.2349 3.05618 21.1018 2.80468 20.6211C2.68555 20.393 2.63124 20.1754 2.59179 19.8447C2.55519 19.5377 2.52257 19.0528 2.48241 18.2412C2.40602 16.697 2.26627 13.7506 2.24804 11.8008C2.22961 9.82709 2.33197 8.88752 2.38964 8.34277C2.41635 8.09049 2.4306 7.93371 2.4414 7.82129C2.4511 7.72033 2.46122 7.61492 2.48046 7.51074C2.48136 7.50441 2.48367 7.4884 2.4873 7.45898C2.49269 7.41527 2.49957 7.3574 2.5078 7.2832C2.52387 7.13839 2.54605 6.93309 2.57323 6.69336C2.62819 6.20877 2.70675 5.55497 2.8203 4.78906C2.84537 4.61997 2.86376 4.47215 2.88085 4.33593C2.8969 4.20805 2.91459 4.06877 2.93554 3.94824C2.95444 3.8395 2.98986 3.66066 3.07128 3.48437C3.16234 3.28723 3.35661 2.99971 3.73534 2.86328C4.10924 2.72886 4.5606 2.64674 4.94921 2.58496C5.38398 2.51584 5.73751 2.47199 6.09667 2.40722C6.4781 2.33842 7.52608 2.2228 8.79101 2.08398C9.30016 2.0281 9.45066 2.00575 10.5791 2.00097ZM21.1855 4.75879C21.5491 4.3431 22.181 4.30049 22.5967 4.66406C23.0123 5.02765 23.054 5.6595 22.6904 6.07519C21.9886 6.87769 21.3338 7.63093 19.7568 9.06738C18.2006 10.4849 15.8073 12.5179 14.5557 13.5586C13.9611 14.053 13.5454 14.3916 13.2383 14.5713C13.0697 14.6699 12.8327 14.784 12.54 14.8027C12.2307 14.8224 11.9939 14.7261 11.8838 14.6787C11.4643 14.498 10.943 14.1338 10.2617 13.5605C9.56748 12.9764 8.66295 12.1378 8.05468 11.5586C7.43829 10.9716 7.11661 10.6429 6.80077 10.3193C6.41512 9.92423 6.42349 9.29107 6.81835 8.90527C7.21357 8.5195 7.84664 8.52665 8.23241 8.92187C8.54005 9.23705 8.84213 9.54715 9.43359 10.1103C10.0335 10.6816 10.9033 11.4863 11.5498 12.0303C11.9588 12.3744 12.2437 12.5796 12.4316 12.7012C12.4675 12.6742 12.5102 12.6447 12.5566 12.6084C12.734 12.4696 12.9648 12.2796 13.2764 12.0205C14.5202 10.9862 16.8872 8.97605 18.4101 7.58886C19.9113 6.22145 20.5118 5.52911 21.1855 4.75879Z" fill="black"/>
</svg>
