<svg width="24" height="24" viewBox="0 0 24 24" fill="none" xmlns="http://www.w3.org/2000/svg">
<path d="M12.707 0.911896C13.1894 0.931166 13.6302 0.999659 13.9463 1.06131C14.1056 1.09238 14.2368 1.12257 14.3301 1.14529C14.3766 1.15663 14.4139 1.16597 14.4395 1.17264C14.4505 1.17551 14.4619 1.17845 14.4658 1.17947C14.8171 1.24909 15.4382 1.40345 16.373 1.70486C16.8859 1.87025 17.6621 2.14447 18.1953 2.35526C18.7532 2.57582 19.0819 2.74054 19.4844 3.01541C19.85 3.26514 20.2767 3.60372 20.6406 3.95877C21.0105 4.31969 21.2991 4.68032 21.5322 5.02518C21.7769 5.38719 21.9585 5.72844 22.1631 6.25467C22.3565 6.75216 22.5771 7.42923 22.708 7.96561C22.8484 8.54121 22.8856 8.95029 22.8896 9.48416C22.8934 9.99301 22.869 10.6299 22.7861 11.3445C22.7021 12.0687 22.561 12.8554 22.2441 13.8611C21.9342 14.8448 21.4701 16.0024 21.0967 16.8074C20.7114 17.6379 20.4173 18.1084 20.0518 18.6082C19.703 19.0849 19.2909 19.5892 18.832 20.0574C18.3713 20.5275 17.8883 20.9383 17.3506 21.3426C16.8208 21.7408 16.2371 22.1338 15.8105 22.3875C15.3292 22.6737 15.0081 22.8038 14.4385 22.9295C13.9312 23.0413 13.2022 23.1594 12.4834 23.2263C11.7618 23.2936 11.0668 23.3086 10.4922 23.2879C9.89268 23.2663 9.40102 23.205 8.74902 22.9978C8.13962 22.8042 7.4116 22.4934 6.81543 22.1834C6.20825 21.8676 5.74791 21.5596 5.4043 21.3142C5.06013 21.0685 4.81206 20.8711 4.55469 20.6297C4.29569 20.3867 4.04218 20.1149 3.7168 19.6873C3.40047 19.2716 3.01725 18.7108 2.67676 18.1199C2.33661 17.5296 2.04974 16.9303 1.85059 16.4451C1.64531 15.945 1.53122 15.5638 1.4375 15.1189C1.34297 14.6701 1.27294 14.1776 1.25 13.3396C1.22773 12.5257 1.24831 11.3867 1.30566 10.6062C1.36537 9.79432 1.47004 9.36319 1.51953 9.10428C1.60753 8.64387 1.67684 8.26306 1.92773 7.66873C2.09635 7.26933 2.40075 6.57582 2.82812 5.86893C3.25238 5.16724 3.7703 4.49219 4.14453 4.0574C4.53553 3.60316 4.79416 3.38128 5.05371 3.19217C5.3356 2.98681 5.59233 2.84392 6.29102 2.54764C6.97636 2.25701 8.13035 1.79998 8.94824 1.51834C9.79409 1.2271 10.295 1.11619 10.9033 1.0369C11.4337 0.967774 12.1265 0.888711 12.707 0.911896ZM12.627 2.91092C12.2368 2.89537 11.6995 2.95025 11.1621 3.02029C10.7025 3.08019 10.3334 3.15632 9.59961 3.40897C8.83787 3.67125 7.72814 4.10991 7.07129 4.38846C6.42911 4.66079 6.33289 4.73446 6.23145 4.80838C6.1074 4.89876 5.96033 5.01335 5.66016 5.36209C5.34312 5.73043 4.89565 6.31592 4.54004 6.90408C4.18773 7.48681 3.92741 8.07539 3.77051 8.44705C3.60632 8.836 3.56725 9.04156 3.4834 9.48026C3.42743 9.77304 3.34927 10.0801 3.2998 10.7527C3.248 11.4575 3.22834 12.5289 3.24902 13.2849C3.26905 14.0162 3.32741 14.3881 3.39453 14.7068C3.46253 15.0296 3.5407 15.2943 3.70117 15.6853C3.8679 16.0915 4.11509 16.6114 4.40918 17.1219C4.70283 17.6315 5.03847 18.1204 5.30859 18.4754C5.56938 18.8181 5.74843 19.007 5.92285 19.1707C6.09912 19.336 6.27391 19.4784 6.56641 19.6873C6.85949 19.8966 7.23846 20.149 7.73828 20.409C8.24911 20.6746 8.8708 20.9379 9.35449 21.0916C9.79574 21.2318 10.1008 21.2731 10.5635 21.2898C11.0508 21.3074 11.6602 21.2945 12.2979 21.2351C12.9385 21.1754 13.5855 21.0695 14.0078 20.9763C14.3675 20.897 14.4891 20.8466 14.7881 20.6687C15.1422 20.4581 15.6655 20.107 16.1484 19.7439C16.6231 19.3871 17.0265 19.0415 17.4033 18.657C17.7822 18.2704 18.1334 17.8433 18.4375 17.4275C18.7246 17.035 18.9517 16.678 19.2822 15.9656C19.6247 15.2274 20.0564 14.15 20.3369 13.2596C20.6105 12.391 20.7273 11.7305 20.7988 11.114C20.8714 10.4881 20.8929 9.93345 20.8896 9.49881C20.8866 9.08946 20.8619 8.83798 20.7646 8.43924C20.6578 8.00127 20.4658 7.40883 20.2988 6.97928C20.143 6.57848 20.0283 6.37212 19.875 6.14529C19.7101 5.90141 19.5068 5.64664 19.2432 5.38943C18.9736 5.12654 18.6398 4.86134 18.3564 4.66776C18.1097 4.49921 17.9224 4.39842 17.46 4.21561C16.9728 4.02302 16.2383 3.76347 15.7598 3.60916C15.0504 3.38042 14.5633 3.24973 14.2695 3.18143L14.0391 3.1326C14.0368 3.13219 14.0348 3.13193 14.0332 3.13162C14.0163 3.12838 14.003 3.12495 13.998 3.12381C13.9868 3.12123 13.9772 3.11959 13.9746 3.11893C13.968 3.11726 13.9615 3.11569 13.959 3.11502C13.9508 3.11286 13.9456 3.11081 13.9355 3.10818C13.9177 3.10354 13.8914 3.09692 13.8574 3.08865C13.7888 3.07195 13.6877 3.04843 13.5635 3.0242C13.3116 2.97507 12.9767 2.92489 12.627 2.91092ZM11.5283 5.06424C12.0802 5.04538 12.5426 5.47715 12.5615 6.02908C12.5745 6.40787 12.5876 6.78787 12.5791 7.84451C12.5721 8.71651 12.549 10.0491 12.5244 11.4842C12.7461 11.6139 13.1036 11.816 13.6455 12.1062C14.4319 12.4854 15.5784 12.9788 16.3301 13.324C17.0852 13.6708 17.2994 13.8058 17.5498 13.951C18.0276 14.2279 18.1909 14.8404 17.9141 15.3181C17.6371 15.796 17.0247 15.9584 16.5469 15.6814C16.3223 15.5512 16.169 15.4508 15.4951 15.1414C14.8221 14.8323 13.5591 14.285 12.7607 13.8992L12.7236 13.8797C12.2873 13.6462 11.9584 13.4627 11.7148 13.324C11.6434 13.3389 11.5692 13.3468 11.4932 13.3455C10.9412 13.3358 10.5013 12.8799 10.5107 12.3279C10.5413 10.5667 10.5708 8.86514 10.5791 7.82889C10.5873 6.80181 10.5755 6.44957 10.5635 6.09744C10.5446 5.5455 10.9764 5.08315 11.5283 5.06424ZM12.5225 11.618C12.5353 11.6394 12.5502 11.6597 12.5615 11.6824C12.5494 11.658 12.5351 11.6361 12.5225 11.615V11.618ZM14.4453 1.17557C14.4482 1.17613 14.4512 1.17694 14.4541 1.17752C14.4513 1.17683 14.448 1.17543 14.4443 1.17459C14.4429 1.17428 14.4405 1.17427 14.4375 1.17361C14.4401 1.17419 14.4427 1.17497 14.4453 1.17557ZM14.3887 1.16483C14.3929 1.16554 14.3972 1.16601 14.4014 1.16678C14.3925 1.16515 14.3801 1.16209 14.3652 1.15994C14.3629 1.15961 14.3569 1.16002 14.3486 1.15897C14.3621 1.16067 14.3754 1.1626 14.3887 1.16483Z" fill="black"/>
</svg>
