<svg width="24" height="24" viewBox="0 0 24 24" fill="none" xmlns="http://www.w3.org/2000/svg">
<path d="M4.78956 5.29543C5.17839 4.90375 5.81162 4.90127 6.20363 5.28957C6.38052 5.46518 6.55899 5.64195 8.69386 7.69778C9.47121 8.44634 10.5093 9.44121 11.7153 10.6011C13.3931 9.14814 15.2636 7.55238 16.3599 6.6177C17.1416 5.95121 17.5333 5.61657 17.73 5.44875C17.8278 5.36531 17.8773 5.32331 17.9019 5.30227L17.9107 5.29446C17.9071 5.29761 17.9012 5.30339 17.8941 5.31008L17.8784 5.32571C18.2722 4.93864 18.9053 4.9439 19.2925 5.33742C19.6795 5.73115 19.6743 6.36428 19.2808 6.75149C19.2458 6.78583 19.1929 6.83021 19.0288 6.97024C18.8319 7.13829 18.4395 7.47262 17.6577 8.13918C16.5872 9.05191 14.7941 10.5811 13.1626 11.9927C14.9662 13.7264 17.0226 15.7058 19.1138 17.7124C19.5123 18.0948 19.5255 18.728 19.1431 19.1265C18.7607 19.5248 18.1275 19.5381 17.729 19.1558C15.5881 17.1015 13.4831 15.0762 11.6489 13.313C11.4516 13.4862 11.2614 13.6514 11.0835 13.8091C9.20492 15.475 8.65268 16.0738 8.37062 16.3804C7.97103 16.8148 7.73271 17.1119 7.46339 17.4273L7.44679 17.4478L7.42823 17.4663C7.06905 17.8445 6.95565 17.987 6.80128 18.1626L6.7964 18.1685C6.67613 18.3033 6.738 18.2304 6.60988 18.3745C6.24294 18.7871 5.61143 18.8243 5.19874 18.4575C4.78638 18.0906 4.749 17.4581 5.11573 17.0454C5.16038 16.9952 5.29879 16.8425 5.30421 16.8364C5.4309 16.692 5.5814 16.5077 5.9507 16.1177C6.18138 15.8471 6.47073 15.4913 6.89796 15.0269C7.23539 14.6601 7.83833 14.0139 9.75636 12.313C9.89825 12.1872 10.0483 12.0571 10.2026 11.9214C9.05003 10.8129 8.05663 9.86088 7.30616 9.13821C5.17657 7.08746 4.98535 6.89804 4.79542 6.70949C4.40404 6.32049 4.40099 5.68726 4.78956 5.29543Z" fill="black"/>
</svg>
