<svg width="24" height="24" viewBox="0 0 24 24" fill="none" xmlns="http://www.w3.org/2000/svg">
<path d="M11.5058 1.04496C12.0333 0.881784 12.5934 1.17667 12.7568 1.70414C12.772 1.75337 12.7795 1.77944 12.7871 1.80278C12.7882 1.80644 12.7891 1.81001 12.79 1.81254C12.8407 1.92608 12.8815 2.02913 13.0136 2.28813C13.2893 2.7143 13.7022 3.23358 14.0947 3.58696C14.4004 3.86222 14.4722 3.9454 14.704 4.13383C14.891 4.28575 15.0922 4.43227 15.3173 4.59477C15.5348 4.75177 15.779 4.92753 16.0126 5.1143C16.5795 5.56749 17.1455 6.0579 17.5722 6.70317C17.8122 7.06611 18.1385 7.60001 18.458 8.30278C18.766 8.98035 19.0719 9.79133 19.2255 10.2862C19.391 10.8191 19.5963 11.305 19.6747 12.375C19.7165 12.9444 19.7778 13.969 19.7499 14.835C19.7214 15.72 19.6036 16.4319 19.4091 17.0664C19.2174 17.6918 18.9662 18.2019 18.7431 18.587C18.5267 18.9604 18.3254 19.2531 18.0761 19.5293C17.6761 19.9725 17.2614 20.3916 16.6162 20.8262C16.2546 21.0698 15.6601 21.4674 15.2636 21.6836C14.6909 21.996 14.0419 22.2069 13.1816 22.3926C12.7415 22.4876 12.3463 22.5466 11.7275 22.5694C11.1361 22.5912 10.3468 22.5811 9.75776 22.5469C9.18997 22.514 8.75062 22.4682 8.37006 22.3663C7.82904 22.2212 7.28535 22.0159 6.81049 21.7432C6.45261 21.5377 6.00969 21.1457 5.45893 20.4825C5.15189 20.1127 4.83501 19.6771 4.61616 19.336C4.3756 18.9609 4.24166 18.6827 4.09858 18.2588C3.95558 17.8351 3.8033 17.2688 3.75287 16.3262C3.70446 15.4205 3.74875 14.1817 3.89838 13.1192C4.05054 12.0392 4.30417 11.1675 4.59565 10.4131C4.88503 9.66433 5.20138 9.05295 5.48237 8.55375C5.76551 8.05075 6.02398 7.6409 6.38373 7.17094C6.72378 6.72678 7.15901 6.22351 7.42573 5.90141C7.69166 5.58024 7.89369 5.31425 8.25776 4.91996C8.64336 4.50239 9.08072 4.06976 9.54389 3.54399C9.98609 3.04199 10.3906 2.52105 10.6074 2.24028C10.7157 2.09999 10.7708 2.0277 10.7997 1.9893L10.8007 1.98735C10.806 1.56533 11.0809 1.17656 11.5058 1.04496ZM11.7724 3.99321C11.5629 4.2551 11.312 4.56298 11.0449 4.86625C10.5774 5.39688 10.0204 5.95914 9.72651 6.27739C9.41141 6.61866 9.27697 6.80095 8.96576 7.1768C8.65518 7.55189 8.28116 7.98244 7.97162 8.38676C7.6818 8.76538 7.47339 9.09216 7.22455 9.53422C6.97358 9.98009 6.70603 10.5021 6.46186 11.1338C6.21984 11.7602 6.00768 12.484 5.87885 13.3985C5.74754 14.331 5.70829 15.4406 5.74994 16.2198C5.78966 16.9615 5.90271 17.3484 5.99409 17.6192C6.0852 17.8891 6.14778 18.02 6.29975 18.2569C6.4738 18.5281 6.74152 18.8975 6.99701 19.2051C7.48243 19.7896 7.7472 19.9747 7.80659 20.0088C8.09567 20.1748 8.46968 20.3223 8.88862 20.4346C9.05905 20.4802 9.32504 20.519 9.87397 20.5508C10.4022 20.5815 11.1285 20.5897 11.6542 20.5704C12.1523 20.552 12.431 20.5095 12.7597 20.4385C13.5217 20.274 13.9656 20.1132 14.3056 19.9278C14.6034 19.7654 15.1152 19.4265 15.499 19.168C15.9567 18.8597 16.2479 18.5704 16.5917 18.1895C16.7185 18.049 16.8397 17.8817 17.0117 17.585C17.177 17.2997 17.3593 16.9296 17.497 16.4805C17.632 16.0401 17.7272 15.5066 17.7509 14.7705C17.7752 14.0158 17.7205 13.0793 17.6796 12.5215C17.6212 11.7254 17.5 11.4738 17.3154 10.8789C17.1888 10.4712 16.9131 9.73912 16.6367 9.1309C16.3718 8.54828 16.1034 8.10685 15.9042 7.80571C15.6615 7.43878 15.3089 7.11198 14.7646 6.6768C14.5769 6.52671 14.3747 6.38165 14.1464 6.21684C13.9258 6.05758 13.68 5.87965 13.4423 5.68656C13.1648 5.46103 12.9556 5.25231 12.7568 5.07328C12.4041 4.75575 12.0632 4.37002 11.7724 3.99321ZM8.44526 12.8223C8.99754 12.8223 9.44525 13.27 9.44526 13.8223C9.44526 13.7892 9.44344 13.7629 9.4433 13.7608C9.4428 13.7529 9.44254 13.7467 9.44233 13.7442L9.44428 13.7579C9.44723 13.7824 9.45256 13.8233 9.46088 13.8809C9.47757 13.9964 9.50521 14.176 9.55073 14.4229C9.61479 14.7703 9.77574 15.0355 9.96381 15.2989C10.4432 15.8912 10.6776 16.0649 10.8749 16.1299C11.1742 16.1369 11.6493 16.137 12.2177 16.1123C12.7695 16.0884 13.2367 16.5167 13.2607 17.0684C13.2845 17.62 12.8563 18.0864 12.3046 18.1104C11.6285 18.1398 11.0564 18.1401 10.707 18.128L10.6181 18.125L10.5312 18.1065C9.57338 17.8997 8.96186 17.2432 8.39057 16.5342L8.37397 16.5127L8.35834 16.4913C8.11617 16.155 7.73232 15.5904 7.58393 14.7862C7.53405 14.5157 7.50205 14.31 7.48139 14.167C7.47108 14.0957 7.46305 14.0385 7.45795 13.9961C7.45545 13.9753 7.45379 13.9561 7.45209 13.9395C7.45127 13.9315 7.45006 13.921 7.44916 13.9102C7.44873 13.9049 7.44782 13.8964 7.44721 13.8868C7.44688 13.8816 7.44526 13.8551 7.44526 13.8223C7.44527 13.2701 7.89309 12.8224 8.44526 12.8223Z" fill="black"/>
</svg>
