<svg width="24" height="24" viewBox="0 0 24 24" fill="none" xmlns="http://www.w3.org/2000/svg">
<path d="M14.7002 1.51367C15.7349 1.54527 16.172 1.63016 16.5156 1.6875C17.1788 1.79815 17.9034 2.01523 18.6348 2.39355C19.0771 2.62238 19.3265 2.89616 19.5654 3.15137C19.8245 3.42809 20.1835 3.83827 20.4805 4.25391C20.7978 4.69803 21.0176 5.11519 21.2998 5.7666C21.5754 6.40277 21.9207 7.29064 22.1172 7.83105C22.32 8.38908 22.3795 8.61768 22.4248 8.92188C22.4667 9.20343 22.4938 9.51957 22.499 10.416C22.5042 11.3075 22.4867 12.824 22.4258 13.9121C22.3637 15.0194 22.2563 15.6568 22.1426 16.1514C22.0285 16.6473 21.9046 17.0065 21.6768 17.416C21.4639 17.7986 21.172 18.2021 20.8047 18.5996C20.4392 18.9951 20.0089 19.3713 19.6113 19.6836C18.8594 20.2741 18.3542 20.5629 17.8926 20.8359C17.5629 21.031 16.8496 21.4777 16.3428 21.7588C15.4511 22.2533 14.8887 22.4319 14.0781 22.4795C13.4736 22.515 12.4052 22.504 11.417 22.4492C10.4024 22.393 9.47044 22.2712 8.63379 22.0986C7.7983 21.9263 7.09853 21.7095 6.70703 21.5811C6.20855 21.4175 6.04366 21.3297 5.90039 21.2656C5.6667 21.161 5.42974 20.9894 5.23535 20.8379C5.02281 20.6722 4.78338 20.4679 4.53125 20.2451C4.01949 19.7929 3.72139 19.3813 3.49902 19.0625C3.34794 18.8459 3.18103 18.5691 2.98926 18.2314C2.79088 17.8822 2.55445 17.4376 2.34082 16.9521C2.12653 16.4652 1.94693 15.959 1.81055 15.4883C1.67016 15.0037 1.57703 14.5549 1.53027 13.9893C1.48387 13.4274 1.48662 12.7803 1.57031 11.8887C1.65303 11.0076 1.81574 9.88938 1.94922 9.10059C2.08394 8.30453 2.19082 7.83822 2.29785 7.46777C2.41722 7.05475 2.53706 6.77701 2.82324 6.27637C3.09169 5.80677 3.52918 5.10144 3.8418 4.63281C4.34228 3.88264 4.7399 3.49496 5.23242 3.17676L5.27832 3.14746L5.32715 3.12305C6.27277 2.64947 6.58308 2.51067 6.84082 2.44531C6.90587 2.40765 6.97579 2.37539 7.05078 2.35254C7.50311 2.2147 7.93564 2.10192 8.42969 1.97949C8.90451 1.86186 9.74131 1.69597 10.9512 1.59766C12.153 1.50003 13.7006 1.48317 14.7002 1.51367ZM14.6387 3.5127C13.6964 3.48395 12.2255 3.50145 11.1133 3.5918C10.0096 3.68148 9.27907 3.82949 8.91016 3.9209C8.55094 4.00992 8.2417 4.09199 7.94043 4.17773C7.85324 4.23354 7.75611 4.2775 7.65039 4.30469C7.50917 4.34092 7.39958 4.36493 7.32715 4.38184L7.32812 4.38281L7.33008 4.38184C7.33166 4.38144 7.33381 4.3812 7.33496 4.38086C7.33376 4.38126 7.33102 4.38237 7.32715 4.38379C7.30829 4.39069 7.26631 4.4067 7.18457 4.44336C7.02483 4.51501 6.75621 4.6439 6.28027 4.88184C6.07853 5.01666 5.86808 5.19928 5.50586 5.74219C5.21654 6.17587 4.80333 6.84218 4.55957 7.26855C4.33371 7.66366 4.28483 7.79473 4.21875 8.02344C4.14027 8.29508 4.0494 8.68013 3.92188 9.43359C3.79307 10.1947 3.63801 11.2606 3.56152 12.0752C3.48605 12.8792 3.48884 13.4052 3.52344 13.8242C3.55769 14.2389 3.62257 14.5558 3.73145 14.9316C3.8445 15.3218 3.99496 15.7445 4.17188 16.1465C4.34939 16.5499 4.55112 16.9308 4.72852 17.2432C4.9125 17.5671 5.04289 17.7792 5.13965 17.918C5.32991 18.1907 5.52079 18.4513 5.85547 18.7471C6.09663 18.9602 6.30047 19.1326 6.46484 19.2607C6.64213 19.3989 6.71745 19.4399 6.71777 19.4404C6.83053 19.4909 6.84721 19.502 6.93652 19.5391C7.01109 19.57 7.12685 19.614 7.33008 19.6807C7.6846 19.797 8.30547 19.9885 9.03809 20.1396C9.77025 20.2907 10.6031 20.4009 11.5273 20.4521C12.4777 20.5048 13.4626 20.5127 13.9609 20.4834C14.4065 20.4572 14.6784 20.3945 15.3721 20.0098C15.8564 19.7411 16.4526 19.3635 16.874 19.1143C17.3309 18.844 17.7373 18.6126 18.377 18.1104C18.7201 17.8408 19.064 17.5364 19.3359 17.2422C19.6062 16.9497 19.8015 16.6737 19.9297 16.4434C20.0426 16.2404 20.1092 16.069 20.1934 15.7031C20.278 15.3349 20.372 14.8112 20.4287 13.7998C20.4864 12.7691 20.5041 11.2982 20.499 10.4277C20.494 9.56282 20.4674 9.35736 20.4463 9.21582C20.4346 9.13707 20.4258 9.08671 20.4033 9.00586C20.3772 8.9118 20.3311 8.76904 20.2383 8.51367C20.0519 8.00105 19.7208 7.15229 19.4648 6.56152C19.2156 5.9861 19.0597 5.70692 18.8525 5.41699C18.6251 5.09869 18.3306 4.75901 18.1055 4.51855C17.8602 4.25667 17.8185 4.22305 17.7158 4.16992C17.1873 3.89653 16.6646 3.73994 16.1865 3.66016C15.8828 3.60948 15.545 3.54036 14.6387 3.5127ZM12.4414 10.502C12.9924 10.4697 13.4654 10.8903 13.498 11.4414C13.5228 11.8594 13.5483 12.2813 13.5801 12.9805C13.6131 13.7064 13.6474 14.5926 13.6738 15.166L13.7129 15.918C13.721 16.1138 13.7247 16.278 13.7256 16.4746C13.7272 16.7105 13.7301 17.0514 13.7334 17.4043C13.7385 17.9564 13.2953 18.4078 12.7432 18.4131C12.191 18.4182 11.7386 17.9751 11.7334 17.4229C11.7301 17.0711 11.7272 16.7274 11.7256 16.4883V16.4863C11.7241 16.1488 11.7136 15.9326 11.6768 15.2783L11.6758 15.2676C11.6518 14.7479 11.6118 13.7267 11.582 13.0713C11.5508 12.3855 11.5265 11.9736 11.502 11.5586C11.4696 11.0075 11.8903 10.5346 12.4414 10.502ZM12.8926 6.00879L13.0293 6.03516L13.0908 6.0498L13.1484 6.07227C13.4468 6.18702 13.7007 6.40497 13.8545 6.69824L13.9141 6.82812L13.9443 6.9043L13.9619 6.98438C13.9779 7.05845 14.0135 7.24811 13.9648 7.47754C13.9088 7.74149 13.7593 7.97583 13.5391 8.1416C13.4503 8.20842 13.3277 8.29682 13.1875 8.37207C13.0595 8.44074 12.8348 8.54376 12.5566 8.55957C12.5089 8.56228 12.3493 8.57192 12.167 8.52832C11.964 8.47966 11.6346 8.33814 11.4395 7.96973C11.3279 7.75896 11.2598 7.5581 11.2217 7.38477C11.2028 7.29878 11.1895 7.21299 11.1836 7.13086C11.1798 7.07838 11.1705 6.93577 11.207 6.77539L11.2354 6.67676C11.3973 6.19692 11.8989 5.90805 12.4033 6.02246C12.478 6.00467 12.5557 5.99416 12.6357 5.99414C12.6565 5.99412 12.7623 5.99081 12.8926 6.00879Z" fill="black"/>
</svg>
