<svg width="24" height="24" viewBox="0 0 24 24" fill="none" xmlns="http://www.w3.org/2000/svg">
<path d="M20.1272 1.48747C20.5205 1.09986 21.1536 1.10411 21.5413 1.49724C21.9286 1.89051 21.9245 2.52369 21.5315 2.9113C21.4865 2.9556 21.4608 2.9819 21.4465 2.99724C21.4337 3.01104 21.4264 3.01997 21.4114 3.03728C21.3689 3.08628 21.3284 3.13244 20.7532 3.76286C20.679 3.8442 20.5952 3.93387 20.5061 4.03142C20.5123 4.0392 20.5196 4.04684 20.5256 4.05486C20.9625 4.63436 21.4986 5.24779 21.802 5.56364C21.9963 5.7659 22.2298 6.03928 22.4006 6.31364C22.4145 6.33561 22.5499 6.53153 22.5852 6.81853L22.593 6.94743L22.5872 7.07439C22.5582 7.35953 22.4323 7.57387 22.3616 7.6906C22.2715 7.83926 22.1289 8.04596 21.9319 8.32829C21.5544 8.86917 20.8243 9.8666 20.4436 10.3888C20.028 10.9591 19.9283 11.0797 19.8186 11.2023C19.7523 11.2764 19.5816 11.4499 19.2922 11.5246C19.0492 11.5873 18.844 11.5471 18.7493 11.5246C18.5709 11.4822 18.3789 11.3948 18.2141 11.3156C17.8357 11.1337 17.1478 10.7682 16.679 10.508L16.6663 10.5002L16.6526 10.4933C15.6633 9.90508 15.5364 9.82739 15.4143 9.75896L15.4124 9.75798C15.3768 9.73794 15.3598 9.72834 15.342 9.71892L15.1936 9.6447C15.1438 9.61592 15.0979 9.58193 15.0549 9.54607C15.0484 9.55198 15.0428 9.55887 15.0364 9.56462C14.4233 10.1172 14.0731 10.3818 13.8186 10.5988C13.0094 11.2889 12.879 11.41 12.8245 11.4689C12.7812 11.5157 12.7231 11.5804 12.6692 11.6427C12.8884 11.9526 13.0625 12.2701 13.2122 12.5617C13.4134 12.9538 13.5133 13.3353 13.6096 13.8224C13.7078 14.3189 13.7996 14.9947 13.844 15.4914C13.9225 16.3697 13.8138 17.0145 13.6848 17.5431C13.5389 18.1405 13.1379 18.7648 12.7092 19.381C12.1295 20.2144 11.5653 20.6297 11.4016 20.756C11.2408 20.8803 11.0024 21.027 10.8186 21.1467C10.5354 21.331 10.1897 21.4351 9.86938 21.507C9.52948 21.5833 9.11684 21.644 8.63696 21.6955C7.99651 21.7642 7.21367 21.7042 6.80103 21.6789C6.29349 21.6478 6.00941 21.6033 5.59595 21.4709C4.83444 21.2269 4.2069 20.9533 3.88403 20.7111C3.68115 20.5588 3.45105 20.3328 3.19556 20.048C2.60362 19.388 2.17947 18.7601 1.97681 18.3117C1.8585 18.0496 1.77825 17.7661 1.70239 17.4523C1.61695 17.0988 1.53526 16.6564 1.49341 15.9806C1.45289 15.3259 1.45227 14.4577 1.46802 13.9152C1.48306 13.398 1.53635 12.9739 1.68286 12.591C1.83165 12.2023 2.05204 11.9275 2.21606 11.7189L2.25024 11.6759L2.28931 11.6369C2.93079 10.9841 3.2158 10.7744 3.51587 10.6222C3.53242 10.6089 3.54953 10.5963 3.56665 10.5842C3.64712 10.5163 3.73978 10.46 3.84302 10.4191C4.81661 10.0331 5.63455 9.72507 6.41235 9.60173C6.96622 9.51401 7.74333 9.53088 8.31763 9.55388C8.95556 9.57945 9.48979 9.65156 9.87036 9.72966C10.3092 9.81976 10.5654 9.92654 10.9084 10.1281C10.9931 10.1779 11.0874 10.2362 11.1868 10.3C11.2534 10.2236 11.3158 10.1547 11.3567 10.1105C11.5136 9.94092 11.7655 9.7214 12.5208 9.07732C12.882 8.76927 13.0945 8.62174 13.6975 8.07829C14.1421 7.67761 14.7086 7.07322 15.2678 6.53825C15.6509 6.17174 15.9343 5.91978 16.135 5.74821C16.2349 5.6628 16.3128 5.59863 16.3684 5.5529C16.4417 5.49261 16.4389 5.49396 16.426 5.50603C16.4459 5.48735 16.447 5.48921 16.512 5.42204C16.5879 5.34361 16.7327 5.18996 17.0168 4.882C17.5857 4.26553 18.6914 3.05461 19.2756 2.41423C19.8647 1.76864 19.8796 1.75104 19.9006 1.72673C19.9469 1.67335 20.0016 1.61127 20.1272 1.48747ZM8.23755 11.5519C7.63571 11.5278 7.05281 11.5244 6.72485 11.5763C6.22188 11.6561 5.63494 11.8621 4.70044 12.2306C4.63027 12.2828 4.55822 12.3323 4.45923 12.384L4.44653 12.3908L4.38794 12.4201C4.36918 12.4315 4.34478 12.4496 4.30591 12.4806C4.20893 12.5581 4.04399 12.7069 3.75415 13.0002C3.60638 13.1898 3.57548 13.242 3.55103 13.3058C3.52253 13.3804 3.47954 13.5432 3.46704 13.9728C3.45243 14.4755 3.4538 15.2808 3.4895 15.8576C3.52393 16.4131 3.58796 16.7394 3.64673 16.9826C3.7149 17.2646 3.76061 17.401 3.80005 17.4884C3.88869 17.6844 4.17052 18.1397 4.68384 18.7121C4.90829 18.9623 5.0372 19.0755 5.08521 19.1115C5.09417 19.1169 5.18016 19.1709 5.38208 19.2599C5.583 19.3484 5.85943 19.4545 6.2063 19.5656C6.42164 19.6346 6.53394 19.6589 6.9231 19.6828C7.40815 19.7125 7.99034 19.7536 8.4231 19.7072C8.86898 19.6593 9.19771 19.6084 9.43188 19.5558C9.6827 19.4995 9.74707 19.4574 9.72778 19.4699C10.0046 19.2898 10.1033 19.2315 10.179 19.173C10.2976 19.0814 10.6651 18.8165 11.0667 18.2394C11.5225 17.5841 11.697 17.2502 11.7415 17.0685C11.8351 16.6844 11.9052 16.2686 11.8518 15.6701C11.8128 15.2336 11.7303 14.628 11.6477 14.2101C11.5634 13.7838 11.5063 13.6189 11.4329 13.4758C11.1625 12.9491 10.9389 12.6052 10.6467 12.3674C10.43 12.1911 10.1202 11.9852 9.89478 11.8527C9.72685 11.754 9.67572 11.7313 9.46802 11.6886C9.20149 11.634 8.77548 11.5735 8.23755 11.5519ZM18.4866 6.23845C18.2 6.54905 18.0414 6.7166 17.9485 6.81267C17.9017 6.86104 17.8676 6.89561 17.8391 6.92302C17.8298 6.93196 17.8072 6.9537 17.7961 6.96404C17.7462 7.01099 17.6724 7.07026 17.6389 7.09782C17.5873 7.14022 17.5207 7.19529 17.4348 7.26872C17.2631 7.41557 17.0074 7.64228 16.6506 7.98357C16.6142 8.01842 16.5759 8.05729 16.5344 8.09782C16.6919 8.19016 16.9695 8.35436 17.6565 8.76286C17.9806 8.94267 18.4024 9.1643 18.7346 9.33513C18.7629 9.29659 18.7948 9.25586 18.8274 9.21111C19.2169 8.67675 19.93 7.70281 20.2922 7.18376C20.337 7.11959 20.3763 7.06097 20.4124 7.00896C20.3946 6.98966 20.3779 6.96842 20.3596 6.94939C20.0522 6.62941 19.5756 6.08262 19.1379 5.52556C18.8899 5.79618 18.6636 6.04658 18.4866 6.23845Z" fill="black"/>
</svg>
