<svg width="24" height="24" viewBox="0 0 24 24" fill="none" xmlns="http://www.w3.org/2000/svg">
<path d="M12.0648 16.8018C12.617 16.8018 13.0648 17.2495 13.0648 17.8018V17.7822C13.0646 17.7759 13.0638 17.7706 13.0638 17.7695C13.0637 17.7675 13.0646 17.7676 13.0648 17.7725C13.0651 17.7814 13.0651 17.8001 13.0667 17.8379C13.07 17.9141 13.0769 18.0655 13.0902 18.3672C13.1166 18.972 13.1694 20.1738 13.2005 20.8086C13.2083 20.9669 13.2147 21.0839 13.22 21.1719C13.2233 21.2256 13.2256 21.2648 13.2278 21.293C13.368 21.7406 13.1774 22.2393 12.7493 22.4707C12.2635 22.7332 11.6565 22.5521 11.3939 22.0664C11.3659 22.0146 11.321 21.9249 11.2874 21.7998C11.2611 21.7016 11.2493 21.6095 11.2425 21.5439C11.229 21.4146 11.2186 21.2154 11.2034 20.9062C11.172 20.265 11.1185 19.0567 11.0921 18.4541C11.0669 17.8785 11.0648 17.8336 11.0648 17.8018C11.0648 17.2495 11.5125 16.8018 12.0648 16.8018ZM14.7073 15.5957C14.9824 15.1169 15.5937 14.9516 16.0726 15.2266C16.4116 15.4212 16.7745 15.6293 17.3196 16.0146C17.584 16.2015 17.8885 16.4289 18.1722 16.6445L18.8997 17.2061L18.9075 17.2119C19.0997 17.3655 19.2155 17.4569 19.2972 17.5195L19.4827 17.6562L19.5042 17.6709L19.5237 17.6875C19.6357 17.7759 19.7403 17.8759 19.804 17.9365C20.204 18.3171 20.2196 18.9494 19.8392 19.3496C19.4587 19.7497 18.8263 19.766 18.4261 19.3857C18.3464 19.3099 18.3106 19.2774 18.2845 19.2568H18.2835C18.1441 19.157 18.0169 19.0608 17.6585 18.7744V18.7734C17.2958 18.4895 16.6463 17.9874 16.1653 17.6475C15.6973 17.3166 15.3982 17.1457 15.0765 16.9609C14.5976 16.6859 14.4324 16.0746 14.7073 15.5957ZM8.23273 14.7754C8.63019 14.3921 9.2634 14.4035 9.64679 14.8008C10.0301 15.1983 10.0189 15.8315 9.6214 16.2148C9.58341 16.2515 9.54523 16.288 9.31281 16.5117C9.08121 16.7347 8.64218 17.1581 8.1966 17.5547C7.766 17.938 7.34216 18.2831 7.10773 18.4775C6.9549 18.6187 6.86912 18.7057 6.80499 18.7744L6.62238 18.9736L6.61163 18.9844C6.57485 19.0205 6.54006 19.0521 6.51593 19.0742C6.48979 19.0982 6.4571 19.1276 6.40851 19.1738C6.00821 19.554 5.37583 19.5378 4.99542 19.1377C4.61492 18.7374 4.63126 18.1041 5.03156 17.7236C5.0921 17.6661 5.13361 17.6278 5.16437 17.5996C5.18237 17.5831 5.19233 17.5741 5.19855 17.5684C5.25675 17.5045 5.41359 17.3195 5.76788 16.9932L5.78644 16.9756L5.80695 16.959C6.05364 16.754 6.45494 16.4278 6.86749 16.0605C7.28009 15.6933 7.69286 15.2958 7.92609 15.0713C8.15789 14.8481 8.19548 14.8113 8.23273 14.7754ZM6.92413 10.8174C7.47638 10.8174 7.92413 11.2651 7.92413 11.8174C7.92413 12.3696 7.47638 12.8173 6.92413 12.8174C6.83179 12.8174 6.77756 12.8172 6.7464 12.8184C6.47506 12.8572 5.99764 12.9025 5.28546 12.959L5.25421 12.9609C4.9037 12.978 4.38591 12.9923 3.79816 13.0029C3.20799 13.0136 2.55663 13.0202 1.91046 13.0273C1.35851 13.0333 0.906067 12.591 0.899721 12.0391C0.8936 11.4868 1.33673 11.0335 1.88898 11.0273C2.5367 11.0202 3.18027 11.0134 3.76203 11.0029C4.33834 10.9925 4.82599 10.9792 5.14484 10.9639C5.96238 10.8989 6.35418 10.8599 6.4964 10.8359L6.54523 10.8271L6.59503 10.8242C6.70462 10.8168 6.83963 10.8174 6.92413 10.8174ZM22.0628 10.6494C22.6151 10.6489 23.0632 11.0962 23.0638 11.6484C23.0641 12.2003 22.6176 12.6486 22.0657 12.6494C21.234 12.6503 20.4395 12.6512 19.8509 12.6621C19.2664 12.6729 18.901 12.6925 18.5452 12.707C18.1902 12.7216 17.8825 12.729 17.5833 12.7363C17.0315 12.7498 16.5728 12.3135 16.5589 11.7617C16.5453 11.2096 16.9824 10.7509 17.5345 10.7373C17.8345 10.7299 18.1266 10.7228 18.4632 10.709C18.7991 10.6952 19.1998 10.6735 19.8138 10.6621C20.4238 10.6508 21.2379 10.6503 22.0628 10.6494ZM18.5902 3.87695C18.9429 3.45201 19.5734 3.39344 19.9984 3.74609C20.4231 4.09887 20.4819 4.72942 20.1292 5.1543C20.0259 5.27879 19.9278 5.38684 19.7972 5.52539C19.6944 5.63443 19.5509 5.78109 19.0403 6.42188C18.5202 7.07479 17.6595 8.18836 17.2249 8.75391C17.0073 9.03706 16.9015 9.17623 16.8509 9.24414C16.8401 9.25863 16.8332 9.26822 16.8294 9.27344C16.5884 9.64659 16.1185 9.82631 15.6771 9.68066C15.1529 9.50751 14.8686 8.94216 15.0413 8.41797C15.0833 8.29101 15.1403 8.20077 15.1702 8.15625C15.1925 8.12317 15.2208 8.08583 15.2484 8.04883C15.3089 7.96763 15.4223 7.81719 15.639 7.53516C16.0735 6.96972 16.9436 5.8429 17.4759 5.1748C18.0167 4.49601 18.1964 4.30779 18.3411 4.1543C18.4577 4.03062 18.5245 3.956 18.5902 3.87695ZM16.8665 9.20996C16.8689 9.20574 16.8728 9.20176 16.8753 9.19727C16.8801 9.18822 16.8839 9.1774 16.889 9.16699C16.882 9.1815 16.8742 9.19592 16.8665 9.20996ZM16.9085 9.125C16.9111 9.119 16.9147 9.11275 16.9173 9.10645C16.9298 9.07573 16.9384 9.04913 16.9398 9.04492C16.9307 9.07226 16.9196 9.09899 16.9085 9.125ZM4.29132 4.35742C4.71557 4.00393 5.34694 4.06118 5.7005 4.48535C5.70977 4.49648 5.71234 4.49983 5.71417 4.50195V4.50293C5.7156 4.50444 5.72662 4.51554 5.7591 4.5459C5.83073 4.61285 5.96572 4.73281 6.24738 4.97949C6.80464 5.46756 7.86056 6.38459 8.39581 6.84961C8.90067 7.28821 8.95627 7.33683 8.99738 7.37793C9.38785 7.76844 9.38785 8.40148 8.99738 8.79199C8.60685 9.18234 7.97379 9.18242 7.58331 8.79199C7.58383 8.79252 7.58712 8.7959 7.59113 8.7998C7.59586 8.80441 7.60041 8.80834 7.60382 8.81152C7.60629 8.81383 7.60847 8.81628 7.60968 8.81738C7.60368 8.81202 7.58863 8.79883 7.55402 8.76855C7.48563 8.70875 7.35127 8.59132 7.08429 8.35938C6.55184 7.8968 5.49024 6.97591 4.92902 6.48438C4.39042 6.01265 4.29414 5.92348 4.16339 5.7666C3.80986 5.34236 3.86713 4.711 4.29132 4.35742ZM12.303 0.701172C12.8552 0.701342 13.303 1.14899 13.303 1.70117C13.3029 1.73465 13.2856 2.16058 13.2542 3.11328C13.2223 4.49256 13.1931 5.48125 13.1712 5.72949L13.1732 5.73047C13.1671 5.80073 13.1622 5.87915 13.1566 5.97754C13.1247 6.52864 12.6521 6.95045 12.1009 6.91895C11.5499 6.88716 11.1292 6.41429 11.1605 5.86328C11.1657 5.77105 11.172 5.66283 11.181 5.55859V5.55078L11.1819 5.54395C11.1819 5.54398 11.1828 5.52942 11.1849 5.49219C11.1869 5.45413 11.1891 5.40244 11.1917 5.33789C11.1969 5.20847 11.2038 5.0329 11.2103 4.81543C11.2232 4.38019 11.2375 3.78236 11.2542 3.05664L11.2552 3.04688C11.2715 2.55118 11.2832 2.20657 11.2913 1.98535C11.3004 1.73692 11.303 1.68099 11.303 1.70117C11.303 1.14889 11.7508 0.701172 12.303 0.701172Z" fill="black"/>
</svg>
