<svg width="24" height="24" viewBox="0 0 24 24" fill="none" xmlns="http://www.w3.org/2000/svg">
<path d="M11.5772 4.20653C11.598 4.20708 11.619 4.20761 11.6397 4.20946C11.658 4.21109 11.6764 4.21369 11.6944 4.21629C11.708 4.21827 11.7219 4.22058 11.7354 4.22313C11.7558 4.22696 11.776 4.23176 11.796 4.2368C11.8063 4.23941 11.817 4.24166 11.8272 4.24461C11.8503 4.25127 11.8732 4.25883 11.8956 4.26707C11.9027 4.26968 11.91 4.27211 11.9171 4.27489C11.9377 4.28304 11.9577 4.29278 11.9776 4.30223C11.9903 4.30825 12.0032 4.3142 12.0157 4.32079C12.0273 4.32691 12.0386 4.33376 12.0499 4.34032C12.066 4.34965 12.082 4.3593 12.0977 4.36961C12.11 4.3777 12.1219 4.3864 12.1339 4.395C12.1491 4.406 12.165 4.41624 12.1798 4.42821C12.1876 4.43459 12.1946 4.4421 12.2022 4.44872C12.2166 4.46114 12.2323 4.47244 12.2462 4.48582C12.25 4.48951 12.2532 4.49382 12.2569 4.49754C12.4066 4.64716 12.5081 4.84415 12.5391 5.06395C12.5455 5.10859 12.5486 5.1537 12.5489 5.19872C12.5489 5.20058 12.5498 5.20271 12.5499 5.20457C12.5499 5.23913 12.5499 5.27352 12.5723 6.12157C12.5946 6.96288 12.6385 8.58753 12.669 9.47704C12.6842 9.91832 12.6957 10.1646 12.7042 10.3354C12.7125 10.5033 12.7193 10.6207 12.7237 10.7817C12.732 11.0838 12.7324 11.591 12.7354 11.8393C12.7387 12.1083 12.7459 12.175 12.7423 13.1987C12.7386 14.2115 12.7239 16.1952 12.6944 17.1997C12.687 17.4506 12.6791 17.6524 12.6671 17.8091C12.6572 17.9367 12.639 18.1297 12.5821 18.3042C12.5581 18.3776 12.4785 18.6118 12.253 18.8032C11.9354 19.0723 11.5447 19.0906 11.2559 18.9936C11.0488 18.9239 10.9133 18.8031 10.8819 18.7759C10.836 18.736 10.792 18.6918 10.7862 18.686C10.4728 18.3738 10.1421 18.08 9.71882 17.7681C9.40629 17.5378 8.98049 17.281 8.58992 17.0151C8.15179 16.7169 7.58112 16.2623 7.00788 15.8432C6.83601 15.7176 6.71876 15.6566 6.63972 15.6216C6.57007 15.5907 6.52451 15.5752 6.44148 15.5483C6.35798 15.546 6.22012 15.5457 5.96101 15.5434C5.46663 15.5392 4.40421 15.5377 3.89851 15.5327C3.28883 15.5266 3.03871 15.4942 2.76179 15.4038C2.44684 15.3009 2.25704 15.0887 2.15828 14.9468C2.05792 14.8024 1.9978 14.6545 1.96003 14.5444C1.88436 14.3238 1.84078 14.0764 1.8116 13.8638C1.75345 13.4399 1.71977 12.8888 1.68562 12.4878C1.67323 12.3424 1.65199 12.1906 1.62312 11.6147C1.59708 11.0952 1.55053 9.99644 1.65925 9.3452C1.71948 8.98481 1.86912 8.4891 2.3614 8.18211C2.57361 8.04987 2.78754 7.99456 2.94343 7.96629C3.09483 7.9389 3.25284 7.92713 3.37312 7.91844C3.88268 7.88164 4.69866 7.84475 5.11824 7.82079C5.64494 7.7907 6.12684 7.76509 6.79499 7.75438C6.83531 7.75371 6.85505 7.74989 6.86042 7.74852C6.86323 7.74691 6.86817 7.74368 6.87507 7.73875C6.90308 7.71873 6.94016 7.68785 7.02156 7.61375C7.09343 7.54832 7.20449 7.44497 7.33308 7.34227C7.64347 7.09441 8.25742 6.63265 8.6446 6.33055C9.31252 5.79763 9.74698 5.38537 10.0137 5.08739V5.08836C10.0843 5.00934 10.1574 4.94835 10.1983 4.91551C10.2482 4.87546 10.3001 4.83713 10.3468 4.80418C10.4402 4.73821 10.545 4.66962 10.6348 4.6118C10.7373 4.54587 10.8037 4.50456 10.8731 4.45946C10.9043 4.43923 10.9222 4.42638 10.9307 4.42039C11.0018 4.36415 11.0786 4.31787 11.1593 4.28368C11.1991 4.26676 11.241 4.25338 11.2833 4.24168C11.3358 4.22718 11.3895 4.2162 11.4434 4.21043C11.4543 4.2093 11.4657 4.20928 11.4766 4.20848C11.4987 4.20687 11.521 4.20571 11.543 4.20555C11.5452 4.20545 11.5477 4.20458 11.5499 4.20457C11.5588 4.20461 11.5684 4.20629 11.5772 4.20653ZM14.2462 6.08641C14.7052 5.77968 15.326 5.90296 15.6329 6.3618C15.6389 6.37083 15.6459 6.38003 15.751 6.53563C15.8358 6.66105 16.0203 6.93707 16.9024 8.0493C17.2251 8.45618 17.6449 8.97862 18.0977 9.54442C18.3931 9.08773 18.6664 8.66919 18.8819 8.33446C19.6463 7.14724 19.6991 7.04985 19.751 6.9575C20.0221 6.4765 20.6312 6.30579 21.1124 6.57664C21.5934 6.84749 21.7637 7.4568 21.4932 7.93797C21.4066 8.09186 21.3203 8.24202 20.5635 9.41747C20.2607 9.88789 19.8463 10.5238 19.4112 11.1958C19.7691 11.6488 20.1124 12.0862 20.4102 12.4751C21.4667 13.8549 21.9328 14.5859 22.1964 14.9936C22.3238 15.1908 22.39 15.2909 22.4288 15.3462C22.4443 15.3682 22.4523 15.3779 22.4542 15.3804C22.8275 15.7872 22.8004 16.42 22.3936 16.7934C21.9868 17.1668 21.354 17.1397 20.9805 16.7329C20.8543 16.5953 20.7601 16.4563 20.5167 16.0796C20.2695 15.6971 19.8352 15.0138 18.8223 13.6909C18.6491 13.4647 18.4593 13.2235 18.2618 12.9712C18.0042 13.3685 17.7693 13.7344 17.5753 14.0337C16.7434 15.3172 16.6732 15.433 16.6319 15.5005L16.6124 15.5317C16.5338 15.6501 16.4134 15.8376 16.3487 15.9341L16.3497 15.935C16.3312 15.9638 16.3045 16.0083 16.2608 16.0835C15.9833 16.5609 15.3711 16.7233 14.8936 16.4458C14.4163 16.1682 14.2548 15.556 14.5323 15.0786C14.5686 15.0162 14.6199 14.9262 14.669 14.8501L14.6778 14.8364L14.6876 14.8237C14.7533 14.7287 14.772 14.6865 14.9454 14.4253H14.9464C15.0105 14.3213 15.1558 14.0901 15.8975 12.9458C16.1816 12.5075 16.5544 11.9289 16.9522 11.3149C16.3501 10.5613 15.7676 9.8378 15.335 9.29247C14.4372 8.16053 14.2185 7.84025 14.0938 7.65575C13.9905 7.50289 13.9804 7.48751 13.9708 7.47313C13.6642 7.01406 13.7873 6.39329 14.2462 6.08641ZM10.6046 7.29442C10.3893 7.48397 10.1504 7.68859 9.88288 7.90184L9.87507 7.9077C9.41151 8.26939 8.89983 8.65027 8.58113 8.90477C8.51405 8.95834 8.45579 9.01168 8.36726 9.09227C8.2887 9.16379 8.17245 9.26946 8.03621 9.36668C7.71547 9.5954 7.33145 9.74618 6.82722 9.75438C6.19933 9.76444 5.74859 9.7874 5.23249 9.81688C4.79297 9.84198 4.09772 9.87439 3.60652 9.9077C3.57505 10.3477 3.59664 11.0259 3.62117 11.5151C3.64775 12.0452 3.66387 12.1428 3.67878 12.3179C3.71791 12.7772 3.74176 13.185 3.78523 13.5288C3.82535 13.5296 3.86967 13.5322 3.91804 13.5327C4.47957 13.5383 5.3947 13.5384 5.97761 13.5434C6.23695 13.5457 6.41289 13.5464 6.52742 13.5503C6.63292 13.5539 6.79818 13.5605 6.97956 13.6206C7.20917 13.6967 7.60373 13.8015 8.18855 14.229C8.8852 14.7383 9.29725 15.0768 9.71589 15.3618C9.91761 15.4991 10.3772 15.7914 10.7169 16.0259C10.7308 15.0568 10.7397 13.8973 10.7423 13.1919C10.7458 12.1877 10.7388 12.1398 10.7354 11.8638C10.7318 11.5664 10.7325 11.1231 10.7247 10.8374C10.721 10.7049 10.7162 10.6187 10.7071 10.435C10.6981 10.254 10.6855 9.99779 10.67 9.54637C10.65 8.96523 10.6262 8.07654 10.6046 7.29442Z" fill="black"/>
</svg>
