<svg width="24" height="24" viewBox="0 0 24 24" fill="none" xmlns="http://www.w3.org/2000/svg">
<path d="M1.49461 1.27512C1.96478 0.985697 2.58095 1.13231 2.87058 1.60227C2.9293 1.69766 2.97224 1.76823 3.03465 1.8552C3.0973 1.94248 3.18769 2.05734 3.3325 2.22239C3.63457 2.56665 4.14288 3.08901 4.48582 3.43333C4.90792 3.85712 5.19103 4.1221 5.39207 4.32786C5.54513 4.48454 5.846 4.77629 7.65965 6.41087C9.47069 8.0431 12.7272 10.9526 14.6274 12.6628C15.573 13.5139 16.148 14.0379 16.5249 14.3825C16.908 14.7329 17.0732 14.8858 17.2192 15.0173C17.8943 15.6254 18.1268 15.8141 18.5288 16.2615C18.82 16.5855 19.4486 17.2577 19.9194 17.8142C20.4061 18.3895 20.7335 18.8438 21.0141 19.2605C21.1524 19.4657 21.2767 19.6586 21.3852 19.8269C21.4964 19.9993 21.5867 20.1387 21.6655 20.2546C21.8758 20.564 22.0413 20.757 22.1636 20.8845C22.2257 20.9492 22.2816 21.0025 22.3364 21.0534C22.3809 21.0949 22.4614 21.167 22.5239 21.2302H22.5229C22.5499 21.2573 22.5772 21.283 22.6069 21.3103C22.6364 21.3373 22.6599 21.3582 22.687 21.3825C23.0976 21.7516 23.1319 22.3839 22.7632 22.7947C22.3941 23.2053 21.7618 23.2396 21.3511 22.8708C21.3234 22.846 21.2927 22.8181 21.2544 22.7829C21.2163 22.748 21.1625 22.6983 21.103 22.6384L21.1011 22.6365C20.987 22.5214 20.5603 22.1874 20.0112 21.3796C19.9155 21.2388 19.8102 21.0747 19.7046 20.9109C19.5962 20.7429 19.4809 20.5646 19.355 20.3777C19.1069 20.0095 18.823 19.6155 18.3921 19.1062C18.2354 18.921 18.0633 18.7268 17.8921 18.5359C17.5811 18.5303 17.2857 18.526 17.0962 18.5183L17.0844 18.5173H17.0727C16.6739 18.4917 16.5048 18.5148 16.0161 18.5144H15.9946C15.8337 18.5108 15.6348 18.5061 14.018 18.4402C12.3966 18.374 9.447 18.25 7.31394 18.1892C5.18162 18.1284 3.91935 18.1316 3.29148 18.1218C3.03192 18.1177 2.78961 18.1126 2.63621 18.0847C2.60556 18.0791 2.55293 18.0685 2.49168 18.0486C2.44515 18.0334 2.30982 17.9874 2.17039 17.8767C2.01158 17.7504 1.76041 17.4585 1.79343 17.0154C1.82061 16.6524 2.02916 16.4344 2.08933 16.3747C2.16918 16.2957 2.24533 16.2479 2.2739 16.2302C2.30941 16.2083 2.33985 16.1915 2.35398 16.1843C2.35798 16.1823 2.37602 16.1737 2.38816 16.1677C2.44233 16.1408 2.4477 16.1365 2.45066 16.1345C2.45449 16.1319 2.47777 16.1159 2.52683 16.0661C2.64358 15.9477 2.84658 15.704 3.22996 15.1716C3.43109 14.8923 3.49097 14.7789 3.57664 14.6365C3.72597 14.3881 3.81829 14.1494 3.86375 13.9626C3.88673 13.8683 3.91807 13.7698 3.93113 13.7263C3.94738 13.6722 3.96036 13.6242 3.97312 13.5652C3.99856 13.4473 4.03207 13.2389 4.04539 12.8435C4.06085 12.3837 4.06088 11.6268 4.05515 11.1931C4.05021 10.8191 4.03746 10.6195 4.03465 10.0788C4.0317 9.51393 4.03243 8.51331 4.04246 7.95481C4.04778 7.65807 4.03888 7.18892 4.02683 6.77708C4.01598 6.40607 4.00047 6.02292 4.00047 5.99973C4.00048 5.92666 4.00803 5.85545 4.02293 5.78684C4.00096 5.76489 3.98004 5.74537 3.9614 5.7263C3.71896 5.47813 3.61226 5.39007 3.06882 4.84446C2.72351 4.49776 2.17671 3.93733 1.82957 3.54173C1.45717 3.11729 1.30529 2.87501 1.16746 2.6511C0.878233 2.18091 1.02459 1.56465 1.49461 1.27512ZM9.10496 19.8913C9.47586 19.4823 10.1089 19.4512 10.518 19.822C10.7855 20.0644 10.9572 20.1993 11.1343 20.3015C11.3073 20.4013 11.5269 20.4938 11.9018 20.5974C12.0814 20.6469 12.3518 20.6555 12.8559 20.6052C13.2683 20.4971 13.494 20.4155 13.6118 20.362C13.621 20.3578 13.6289 20.3528 13.6362 20.3493C13.6495 20.3281 13.6659 20.3036 13.686 20.2712C13.9775 19.8023 14.5939 19.6577 15.063 19.949C15.5318 20.2404 15.6755 20.8578 15.3843 21.3269C15.3099 21.4466 15.2489 21.5495 15.1567 21.6648L15.145 21.6794L15.1333 21.6931C14.7952 22.0853 14.2389 22.3178 13.2749 22.5642L13.2046 22.5818L13.1333 22.5896C12.5636 22.6499 11.9491 22.6851 11.3696 22.5251C10.891 22.3929 10.4998 22.2448 10.1343 22.0339C9.77262 21.8251 9.47621 21.578 9.17429 21.3044C8.76513 20.9335 8.7341 20.3005 9.10496 19.8913ZM6.04246 7.99094C6.03285 8.52637 6.03173 9.50929 6.03465 10.0691C6.03769 10.6524 6.04846 10.6601 6.05515 11.1657C6.06106 11.6125 6.06042 12.4057 6.04343 12.9109C6.0272 13.3926 5.98507 13.7248 5.9282 13.988C5.89988 14.119 5.86993 14.2224 5.84617 14.3015C5.81928 14.391 5.81354 14.4099 5.80711 14.4363C5.71122 14.83 5.53803 15.255 5.2905 15.6667C5.23191 15.7642 5.15277 15.9046 4.99265 16.1394C5.62672 16.1482 6.41668 16.1629 7.37156 16.1902C9.52008 16.2514 12.4847 16.3763 14.0991 16.4421C15.2711 16.4899 15.6895 16.5021 15.8843 16.5075C15.883 16.5064 15.8816 16.5048 15.8803 16.5036C15.7283 16.3666 15.5404 16.192 15.1753 15.8581C14.8029 15.5177 14.231 14.9974 13.2886 14.1491C11.4107 12.459 8.11912 9.517 6.32078 7.89622C6.22296 7.80806 6.12999 7.72306 6.0405 7.64231C6.04126 7.7683 6.04432 7.88684 6.04246 7.99094ZM13.3833 0.967507C13.7281 0.956876 14.0659 0.960091 14.4468 1.04759C14.8168 1.13267 15.1747 1.28478 15.5952 1.49485C15.8859 1.64018 16.1731 1.85903 16.3872 2.03098C16.5013 2.12267 16.6121 2.21547 16.7085 2.29661C16.8087 2.38099 16.8899 2.44935 16.9594 2.50559C17.5135 2.95347 17.8096 3.35993 18.1782 3.96458C18.4392 4.39277 18.7306 5.01186 18.9761 5.59739C19.2328 6.21007 19.4332 6.81535 19.563 7.25559C19.7761 7.97915 19.8234 8.389 19.8803 8.82786L19.977 9.51438C20.0143 9.79682 20.053 10.1232 20.0825 10.4636C20.1419 11.149 20.1616 11.8631 20.1694 12.6609C20.1747 13.2127 19.731 13.6648 19.1792 13.6706C18.627 13.676 18.1749 13.2326 18.1694 12.6804C18.1618 11.8963 18.1429 11.2436 18.0903 10.6365C18.0372 10.0243 17.9514 9.4638 17.9009 9.11106L17.8989 9.09837C17.8442 8.67719 17.813 8.39466 17.644 7.82102C17.5294 7.43206 17.3529 6.89861 17.1313 6.36985C16.8984 5.81406 16.6534 5.30473 16.4712 5.00559C16.1647 4.50279 16.008 4.30886 15.7016 4.06126C15.6125 3.9892 15.5126 3.9045 15.4204 3.82688C15.3244 3.74607 15.2295 3.66633 15.1352 3.59055C14.9321 3.4274 14.7866 3.32648 14.7016 3.28391C14.3266 3.09653 14.1367 3.02844 13.9995 2.9968C13.8731 2.96776 13.7406 2.95742 13.4448 2.96653C12.9336 2.98231 11.9853 3.0194 11.393 3.05442C10.7901 3.09008 10.6146 3.11394 10.4507 3.1511C9.96249 3.2619 9.57606 3.37984 9.29832 3.52805C9.14032 3.61239 9.02676 3.67823 8.95066 3.72532C8.91309 3.74858 8.88856 3.76526 8.87449 3.77512C8.85775 3.78687 8.86496 3.78234 8.88523 3.76438C8.47212 4.13035 7.84045 4.09207 7.4741 3.67942C7.10781 3.26608 7.14572 2.6336 7.55906 2.26731C7.73336 2.11295 8.02435 1.94093 8.35691 1.76341C8.88073 1.48391 9.48334 1.31983 10.0073 1.20091C10.3466 1.12394 10.6672 1.09329 11.2749 1.05735C11.8947 1.0207 12.8648 0.98351 13.3833 0.967507Z" fill="black"/>
</svg>
