<svg width="24" height="24" viewBox="0 0 24 24" fill="none" xmlns="http://www.w3.org/2000/svg">
<path d="M13.4199 2.14133C14.3895 2.15375 14.7981 2.21876 15.1699 2.3093C16.229 2.56725 16.608 2.75005 17.0488 2.95676C17.3882 3.11592 17.9207 3.50311 18.2344 3.7634C18.4311 3.92667 18.8793 4.335 19.4502 5.02219C19.8221 5.46998 20.3855 6.35243 20.707 6.84544C21.2588 7.69137 21.4474 8.18956 21.6309 8.75755C21.7556 9.14386 21.9173 9.73718 22.041 10.2361C22.1724 10.7658 22.2587 11.2145 22.3096 11.865C22.3585 12.4904 22.3733 13.2993 22.3398 13.9558C22.3054 14.632 22.2197 15.1192 22.1406 15.4958C22.0079 16.1278 21.8886 16.4681 21.8057 16.6853C21.6966 16.9709 21.5392 17.404 21.2939 17.8825C21.1403 18.1823 20.9334 18.5062 20.6865 18.8552C20.1542 19.6077 19.6637 20.1548 19.3066 20.4548C19.072 20.6519 18.7932 20.8154 18.457 20.9939C18.1022 21.1822 17.6212 21.4084 17.2324 21.5691C16.572 21.8419 16.1639 21.9331 15.9561 21.9607C15.8365 21.9765 15.2584 22.0352 14.4619 22.1003C14.1163 22.1286 13.7984 22.1827 13.1074 22.2546C12.7783 22.2889 12.6121 22.288 12.0342 22.2947C11.4836 22.301 10.4661 22.2885 9.55273 22.2478C8.62846 22.2066 7.8229 22.1304 7.06348 22.0027C6.30833 21.8756 5.63999 21.7021 5.29395 21.613C4.29627 21.3562 3.79571 20.6313 3.52637 20.2136C3.34463 19.9317 3.09218 19.4639 2.86719 19.0017C2.41191 18.0664 2.19794 17.4204 2.13574 17.1628C2.0787 16.9265 1.86486 16.1941 1.78027 15.5974C1.76004 15.4546 1.75673 15.3334 1.75684 15.2087C1.75692 15.1198 1.75993 14.9147 1.76074 14.7234C1.76258 14.289 1.7889 13.4967 1.83594 12.8337C1.88452 12.149 1.9605 11.6242 2.06348 11.0388C2.16492 10.4621 2.29308 9.82981 2.36719 9.48118C2.4595 9.04696 2.52326 8.85228 2.64062 8.47923C2.86831 7.75549 3.13608 7.16179 3.30664 6.822C3.40819 6.61971 3.52416 6.41788 3.75293 6.05637C4.30235 5.18821 4.72603 4.56609 4.87305 4.38157C5.37876 3.74688 6.00496 3.33478 6.12305 3.23508L6.2373 3.14817C6.35224 3.06976 6.4657 3.01547 6.5459 2.9802C6.66751 2.92674 6.79582 2.88189 6.91504 2.84544C7.12474 2.78135 7.35666 2.72962 7.5625 2.69895C8.072 2.56826 9.0647 2.32474 9.32617 2.26048C9.52562 2.21146 9.7466 2.19209 9.98047 2.17942C10.2249 2.16618 10.5515 2.15712 10.9893 2.14719C11.6577 2.13203 12.7396 2.13263 13.4199 2.14133ZM11.0352 4.14622C10.5914 4.15628 10.2965 4.16525 10.0889 4.17649C9.98636 4.18204 9.91567 4.18747 9.86621 4.19309C9.82551 4.19772 9.80725 4.20114 9.80371 4.20188C9.52563 4.27023 8.48707 4.52517 8.01074 4.64817C8.0063 4.64931 8.00151 4.64904 7.99707 4.65012C7.98352 4.6534 7.96984 4.65618 7.95605 4.65891C7.93485 4.66316 7.91375 4.66681 7.89258 4.66965C7.89029 4.66996 7.88804 4.67132 7.88574 4.67161C7.78975 4.68371 7.63892 4.71575 7.49902 4.75852C7.43377 4.77848 7.38493 4.79618 7.35449 4.8093C6.99676 5.10261 6.76357 5.21721 6.43652 5.62766C6.43585 5.62855 6.43383 5.63194 6.42969 5.63743C6.42461 5.64416 6.41769 5.65313 6.40918 5.66477C6.39168 5.68874 6.36869 5.72078 6.34082 5.76048C6.28503 5.83994 6.21199 5.94587 6.12402 6.07688C5.94824 6.33867 5.7163 6.69443 5.44336 7.12571C5.23115 7.46104 5.15438 7.60063 5.09473 7.71946C4.96143 7.985 4.73695 8.47784 4.54785 9.07883C4.43238 9.44586 4.39416 9.56268 4.32324 9.89622C4.25256 10.2287 4.12951 10.8371 4.0332 11.3845C3.93841 11.9233 3.87346 12.3777 3.83105 12.9753C3.78709 13.5949 3.76239 14.3431 3.76074 14.7322C3.76024 14.8512 3.75968 14.948 3.75879 15.0271C3.75788 15.1083 3.75688 15.1644 3.75684 15.2107C3.75676 15.2952 3.75879 15.3095 3.75977 15.3161C3.82657 15.7876 3.98226 16.288 4.08008 16.6931C4.0978 16.7664 4.2495 17.272 4.66504 18.1257C4.87579 18.5587 5.0882 18.9452 5.20703 19.1296C5.43384 19.4814 5.57841 19.6213 5.79297 19.6765C6.13891 19.7655 6.73343 19.9186 7.39551 20.03C8.05368 20.1407 8.77443 20.2111 9.6416 20.2497C10.5197 20.2888 11.4995 20.3005 12.0107 20.2947C12.6169 20.2877 12.6822 20.2881 12.9004 20.2654C13.419 20.2113 13.9664 20.1333 14.2988 20.1062C14.6942 20.0739 15.0281 20.0445 15.2734 20.0212C15.3962 20.0096 15.4965 19.9996 15.5703 19.9919C15.6072 19.9881 15.637 19.9846 15.6592 19.9822C15.6702 19.9809 15.6792 19.98 15.6855 19.9792C15.6908 19.9786 15.6932 19.9783 15.6934 19.9782C15.706 19.9762 15.9454 19.9367 16.4688 19.7204C16.7991 19.5839 17.2221 19.3851 17.5195 19.2273C17.8354 19.0597 17.9565 18.9773 18.0205 18.9236C18.1961 18.7761 18.5731 18.3794 19.0537 17.6999C19.275 17.3871 19.4213 17.1506 19.5137 16.9704C19.6995 16.6078 19.8182 16.2847 19.9375 15.9724C19.9848 15.8486 20.0735 15.6088 20.1836 15.0847C20.2476 14.7802 20.315 14.3997 20.3428 13.8542C20.3716 13.2888 20.3581 12.5662 20.3154 12.0212C20.2748 11.502 20.2103 11.1638 20.0996 10.7175C19.9812 10.2398 19.8322 9.69592 19.7275 9.3718C19.5874 8.93776 19.4689 8.60775 19.0322 7.93821C18.6639 7.37358 18.1876 6.63331 17.9111 6.30051C17.4164 5.70501 17.0557 5.38439 16.957 5.30247C16.8321 5.19879 16.6676 5.07337 16.5098 4.9636C16.4315 4.90918 16.3593 4.86179 16.2998 4.82493C16.2705 4.80676 16.2463 4.79252 16.2275 4.78196C16.2111 4.77273 16.2022 4.76829 16.2002 4.76731C15.8457 4.60105 15.594 4.47129 14.6963 4.25266C14.516 4.20876 14.2671 4.15251 13.3936 4.14133C12.726 4.1328 11.671 4.1318 11.0352 4.14622ZM15.6074 9.80442C15.9332 9.35844 16.5589 9.26091 17.0049 9.58665C17.4508 9.91241 17.5483 10.5382 17.2227 10.9841C17.0054 11.2816 16.7887 11.5799 16.3164 12.1218C15.8535 12.653 15.15 13.4135 14.2939 14.1784C13.4469 14.9353 12.4838 15.6685 11.9775 16.0632C11.8681 16.1485 11.714 16.2719 11.5664 16.364C11.4091 16.462 11.1496 16.5984 10.8115 16.6081C10.4605 16.6183 10.1782 16.4895 9.97754 16.3611C9.78909 16.2404 9.61446 16.0817 9.45898 15.9304C8.83463 15.323 7.7776 14.0901 7.19043 13.3845C6.58922 12.662 6.4122 12.4126 6.30859 12.2595C6.27001 12.2025 6.23652 12.1516 6.21094 12.1091C6.17686 12.0525 6.12017 11.9506 6.08496 11.8093C5.95175 11.2735 6.27865 10.7308 6.81445 10.5974C7.26554 10.4853 7.72018 10.6995 7.93262 11.0896C7.93995 11.1007 7.95108 11.1166 7.96582 11.1384C8.01745 11.2147 8.14771 11.4084 8.72754 12.1052C9.30382 12.7977 10.253 13.8997 10.8008 14.4441C11.3387 14.0256 12.2033 13.3652 12.9619 12.6872C13.7369 11.9947 14.3804 11.2987 14.8086 10.8074C15.2273 10.3269 15.4059 10.0803 15.6074 9.80442ZM8.02637 11.3269C8.02638 11.3269 8.01867 11.2957 8.00684 11.2595C8.00529 11.2548 8.00257 11.2504 8.00098 11.2458C8.00993 11.2722 8.01952 11.2994 8.02637 11.3269Z" fill="black"/>
</svg>
