<svg width="24" height="24" viewBox="0 0 24 24" fill="none" xmlns="http://www.w3.org/2000/svg">
<path d="M22.2363 2.00488C22.3394 2.00724 22.4376 2.01077 22.5225 2.02051C22.6054 2.03005 22.7046 2.04794 22.8125 2.08887L22.9238 2.13867L23.0303 2.2002C23.0785 2.23238 23.1367 2.27674 23.1943 2.33496C23.3196 2.46143 23.3988 2.60628 23.4443 2.74414C23.517 2.96457 23.4999 3.16592 23.4951 3.22656C23.4823 3.38909 23.4399 3.62063 23.3789 3.92773C23.2483 4.58579 22.9866 5.80476 22.7852 7.30176C22.5823 8.80966 22.4495 10.5503 22.3613 11.502C22.3224 11.9226 22.2866 12.29 22.1963 12.5664C22.1373 12.7467 22.0503 12.9142 21.9209 13.0674C21.8155 13.1921 21.6935 13.2886 21.6553 13.3203C21.4024 13.5302 20.9408 13.9159 19.8984 14.5977C19.3858 14.9329 18.7326 15.3389 17.9854 15.8057C17.2337 16.2752 16.3759 16.8133 15.4375 17.4209C13.5583 18.6376 11.395 20.1117 10.248 20.8994C9.65573 21.3062 9.30594 21.5514 9.10254 21.6855C9.00598 21.7492 8.89426 21.8205 8.7832 21.874C8.64057 21.9428 8.45699 22.0035 8.2334 22C7.81943 21.9934 7.56225 21.7553 7.45996 21.6406C7.36277 21.5316 7.30199 21.4195 7.2832 21.3848C7.21093 21.2512 7.22783 21.2698 7.18359 21.1963C7.10959 21.0733 6.97012 20.8519 6.3457 20.0908C5.7275 19.3374 4.60991 18.0289 3.59668 16.7002C2.57678 15.3627 1.6885 14.0352 1.22559 13.3389C0.765242 12.6464 0.642743 12.4419 0.56543 12.2188C0.447156 11.8769 0.5137 11.5709 0.577148 11.3896C0.641242 11.2067 0.735611 11.0526 0.810547 10.9434C0.95794 10.7285 1.16086 10.5023 1.31152 10.332C1.60599 9.99933 2.06545 9.60325 2.97656 8.88965C3.90865 8.15963 5.3688 7.07673 6.14453 6.50586C6.92767 5.92954 6.99702 5.88721 7.35938 5.62793C7.54117 5.49784 7.80012 5.3107 8.0625 5.12109C8.32327 4.93265 8.58831 4.74162 8.77734 4.60645C9.20082 4.30363 9.25333 4.27158 9.54102 4.0293C9.84548 3.77289 10.4201 3.31532 10.7324 3.06738L10.7422 3.06055C11.0579 2.81605 11.2205 2.70249 11.3604 2.62012C11.3707 2.61089 11.3836 2.60007 11.3994 2.58594C11.4288 2.55958 11.4694 2.52359 11.5098 2.48926C11.5272 2.47441 11.5524 2.45646 11.5801 2.43457C11.6291 2.39176 11.6825 2.35397 11.7393 2.32129C11.7629 2.30767 11.7872 2.29567 11.8115 2.28418C11.8832 2.25036 11.9592 2.22405 12.0391 2.20801C12.1041 2.19491 12.1698 2.18853 12.2354 2.18848L12.2373 2.1875C12.4801 2.18747 12.7358 2.15983 13.2334 2.12109C13.7064 2.08428 14.3191 2.04665 15.1709 2.04102C16.813 2.03017 19.5012 2.00815 20.9229 2.00195C21.6297 1.99887 22.0181 1.9999 22.2363 2.00488ZM15.1846 4.04102C14.3914 4.04625 13.8273 4.0811 13.3887 4.11523C13.1218 4.13601 12.8635 4.1583 12.6211 4.17285C12.6055 4.18607 12.5877 4.20284 12.5674 4.21875C12.5486 4.23344 12.4944 4.275 12.4238 4.31543L12.4004 4.3291C12.3819 4.33899 12.3295 4.36072 11.9668 4.6416C11.6438 4.89802 11.1035 5.3285 10.8291 5.55957C10.4717 5.86059 10.3553 5.93677 9.94043 6.2334C9.75639 6.365 9.49659 6.5527 9.23438 6.74219C8.97365 6.9306 8.71002 7.1204 8.52344 7.25391C8.14909 7.52177 8.09915 7.55024 7.33008 8.11621C6.55333 8.68783 5.11563 9.75454 4.20996 10.4639C3.28328 11.1897 2.96465 11.4809 2.80859 11.6572C2.7455 11.7285 2.68985 11.7914 2.63965 11.8496C2.70347 11.9483 2.78622 12.0729 2.8916 12.2314C3.35095 12.9224 4.20828 14.2044 5.18652 15.4873C6.17129 16.7787 7.23891 18.0256 7.89258 18.8223C8.1888 19.1833 8.39212 19.4449 8.54102 19.6445C8.69567 19.5378 8.88534 19.4095 9.11621 19.251C10.2662 18.4611 12.4477 16.9743 14.3506 15.7422C15.3034 15.1253 16.1727 14.5798 16.9258 14.1094C17.6833 13.6362 18.3133 13.2446 18.8037 12.9238C19.6767 12.3529 20.0866 12.0219 20.3125 11.835C20.3134 11.8288 20.3154 11.8222 20.3164 11.8154C20.3318 11.704 20.3488 11.548 20.3701 11.3174C20.4537 10.4146 20.5925 8.59767 20.8027 7.03516C20.9715 5.78085 21.1833 4.70685 21.3252 4.00195C21.2077 4.00225 21.0769 4.00132 20.9316 4.00195C19.5127 4.00814 16.8331 4.03013 15.1846 4.04102ZM16.7021 5.00098C17.075 4.99451 17.3952 5.05129 17.6826 5.16406C17.9579 5.27216 18.163 5.41801 18.2764 5.49707C18.5243 5.67008 18.685 5.90191 18.7793 6.05176C18.8813 6.21379 18.9775 6.39919 19.0576 6.55469C19.261 6.94951 19.3734 7.30109 19.4209 7.62109C19.4694 7.94831 19.4428 8.19848 19.4219 8.35254C19.3715 8.72229 19.163 8.98318 19.0508 9.1084C18.9185 9.25607 18.7658 9.38181 18.6338 9.48047C18.3686 9.6787 18.0592 9.86046 17.8438 9.98535C17.32 10.2889 16.7874 10.2822 16.3994 10.2451C15.6506 10.1734 14.9679 9.88917 14.5908 9.71582L14.5312 9.6875L14.4756 9.65332C14.1457 9.44548 13.9133 9.20574 13.749 8.89746L13.7402 8.88086L13.7314 8.86328C13.6681 8.7323 13.6146 8.59297 13.5566 8.39844C13.5155 8.2604 13.5062 8.12054 13.5234 7.98633C13.5128 7.93465 13.5043 7.88155 13.502 7.82715C13.4918 7.59026 13.5131 7.08032 13.6611 6.65039L13.7246 6.49023C13.8869 6.13081 14.1409 5.86705 14.3418 5.69336C14.5813 5.48638 14.8286 5.3365 14.9834 5.24902L15.123 5.18164C15.2601 5.12412 15.3887 5.09546 15.4746 5.0791C15.6054 5.05424 15.7421 5.03982 15.8682 5.03027C16.1186 5.01133 16.4172 5.00598 16.7021 5.00098ZM16.7363 7C16.4367 7.00526 16.1998 7.01069 16.0186 7.02441C15.9608 7.02879 15.9181 7.03494 15.8877 7.03906C15.8053 7.0891 15.7212 7.14486 15.6504 7.20605C15.5556 7.28801 15.5429 7.32661 15.5498 7.30859C15.538 7.34601 15.5217 7.42081 15.5107 7.52344C15.4995 7.62891 15.4988 7.71376 15.5 7.74121C15.5022 7.79215 15.4994 7.8424 15.4941 7.8916C15.4996 7.90838 15.5038 7.92249 15.5078 7.93359C15.8213 8.0725 16.2174 8.21823 16.5898 8.25391C16.7132 8.26572 16.7803 8.26446 16.8174 8.25977L16.8408 8.25488V8.25586C17.0584 8.12973 17.2721 7.99946 17.4326 7.87988C17.4167 7.80105 17.3807 7.66753 17.2793 7.4707C17.1917 7.30068 17.135 7.19366 17.0869 7.11719C17.0825 7.11017 17.0777 7.10391 17.0742 7.09863C17.0027 7.05018 16.9775 7.03537 16.9521 7.02539C16.933 7.01787 16.8753 6.99758 16.7363 7Z" fill="black"/>
</svg>
