<svg width="24" height="24" viewBox="0 0 24 24" fill="none" xmlns="http://www.w3.org/2000/svg">
<path d="M11.3889 1.16035C11.6263 1.12687 12.1363 1.07758 12.8625 1.1545C13.2056 1.19084 13.5936 1.25344 13.9368 1.37325C14.4259 1.54413 14.956 1.79453 15.4221 2.16328C15.6826 2.36941 16.0337 2.67932 16.2473 3.12227C16.3331 3.3001 16.4549 3.56377 16.5569 3.85371C16.6538 4.12913 16.7603 4.50243 16.7649 4.88399C16.7761 5.81753 16.7384 6.15003 16.7229 6.29024C16.6622 6.83914 16.1673 7.23572 15.6184 7.175C15.0696 7.11418 14.6739 6.61935 14.7346 6.07051C14.7403 6.01887 14.7752 5.76829 14.7649 4.9084C14.7642 4.85069 14.7412 4.71873 14.6702 4.5168C14.6043 4.32959 14.519 4.14277 14.4456 3.99043C14.436 3.97107 14.3848 3.893 14.1809 3.73164C13.9407 3.54164 13.6283 3.38447 13.2776 3.26192C13.1471 3.21633 12.9348 3.17277 12.6516 3.14278C12.1149 3.08593 11.7718 3.12621 11.6682 3.14082C11.4851 3.16669 10.8631 3.31359 10.4495 3.42403C10.3587 3.44826 10.2376 3.48632 10.1233 3.5295C10.067 3.55075 10.0181 3.57057 9.97974 3.58809C9.93927 3.60659 9.92435 3.61574 9.92798 3.61348C9.92017 3.61837 9.8959 3.63464 9.8479 3.70039C9.79008 3.77964 9.73023 3.88343 9.6272 4.06953C9.59534 4.12716 9.52082 4.31468 9.39575 4.71602C9.2874 5.06378 9.17743 5.50349 9.11255 5.94551C9.04773 6.38719 9.02863 6.83589 9.02856 7.15254C9.02843 7.89848 9.07273 7.94819 9.10669 8.42207C9.13097 8.76121 9.14557 9.34775 9.15356 9.65938C11.5142 9.6173 14.6005 9.56444 16.4495 9.54512C17.6541 9.53254 18.3148 9.53469 18.6907 9.54512C18.9553 9.55247 19.1364 9.563 19.2981 9.59785L19.4563 9.6418L19.5813 9.69063C20.1805 9.95314 20.4032 10.5087 20.4436 10.5871C20.5229 10.7414 20.5554 10.8834 20.5745 11.008C20.5903 11.1117 20.6026 11.2471 20.6165 11.4182C20.647 11.7948 20.6874 12.4674 20.6741 13.4357C20.6609 14.3942 20.5944 15.6216 20.554 16.2795C20.5094 17.0037 20.481 17.1905 20.4641 17.4045C20.3778 18.4973 20.2523 18.9292 20.1135 19.5725C20.0127 20.0397 19.8397 20.5997 19.72 20.9582C19.6071 21.2961 19.3927 21.5313 19.1936 21.6936C19.0058 21.8465 18.7876 21.9707 18.5901 22.0744C18.4609 22.1423 18.3447 22.1812 18.2268 22.2102C18.1446 22.2304 18.0294 22.2521 17.929 22.2727C17.6244 22.3351 17.1362 22.4274 15.7756 22.5158C14.4337 22.603 12.2193 22.6861 11.0725 22.7316C9.93795 22.7767 9.85858 22.7843 9.49243 22.7844C9.14571 22.7844 8.49444 22.7786 7.98364 22.7551C6.61201 22.692 6.04943 22.5038 5.60474 22.299C5.03888 22.0385 4.68733 21.6335 4.52563 21.4514C4.24033 21.13 3.92443 20.5383 3.76001 20.174C3.69251 20.0243 3.65768 19.8657 3.63794 19.7678C3.61432 19.6506 3.59342 19.517 3.57446 19.3772C3.53647 19.0968 3.49845 18.7365 3.45728 18.3234C3.40889 17.8379 3.43867 17.4467 3.49634 16.7873C3.52602 16.448 3.56791 16.0193 3.61255 15.5627C3.65749 15.1029 3.70509 14.609 3.74634 14.1272C3.78598 13.6641 3.82013 12.9421 3.84888 12.2541C3.87667 11.589 3.90035 10.936 3.91919 10.6652C3.91962 10.659 3.92155 10.6528 3.92212 10.6467C3.92344 10.6316 3.92502 10.6166 3.927 10.6018C3.92954 10.5828 3.93125 10.5637 3.93481 10.5451C3.9376 10.5306 3.94214 10.5164 3.94556 10.5022C3.94995 10.4837 3.95481 10.4655 3.96021 10.4475C3.96394 10.435 3.96772 10.4226 3.97192 10.4104C3.97793 10.3929 3.98453 10.3756 3.99146 10.3586C3.99774 10.3432 4.00397 10.3277 4.01099 10.3127C4.01746 10.2988 4.02441 10.2852 4.03149 10.2717C4.03971 10.256 4.04886 10.2409 4.05786 10.2258C4.06526 10.2133 4.07241 10.2008 4.08032 10.1887C4.08904 10.1754 4.09834 10.1625 4.10767 10.1496C4.11766 10.1358 4.12728 10.1218 4.13794 10.1086C4.14852 10.0955 4.15993 10.0831 4.17114 10.0705C4.1799 10.0607 4.18838 10.0507 4.19751 10.0412C4.21191 10.0263 4.22713 10.0123 4.24243 9.99825C4.25111 9.9903 4.25985 9.98244 4.2688 9.97481C4.28679 9.95946 4.3054 9.94492 4.32446 9.93086C4.32991 9.92685 4.33554 9.92305 4.34106 9.91914C4.36213 9.90425 4.38329 9.88943 4.40552 9.87617C4.41126 9.87276 4.41729 9.86972 4.4231 9.86641C4.43876 9.85749 4.45477 9.8491 4.47095 9.84102C4.48706 9.83296 4.5032 9.82477 4.51978 9.81758C4.52806 9.814 4.53677 9.81118 4.54517 9.80782C4.56547 9.79966 4.58579 9.7912 4.60669 9.78438C4.62717 9.77771 4.64816 9.77216 4.66919 9.7668C4.67694 9.76482 4.6848 9.76274 4.69263 9.76094C4.70996 9.75698 4.7277 9.75423 4.74536 9.75117C4.76567 9.74766 4.78621 9.74465 4.80688 9.74239C4.81754 9.74122 4.82836 9.74028 4.83911 9.73946C4.85752 9.73805 4.87613 9.73691 4.89478 9.73653C4.90187 9.73635 4.90913 9.73458 4.91626 9.73457H4.95239C4.99468 9.73394 5.07503 9.73226 5.22583 9.72969C5.51989 9.72469 6.08151 9.71405 7.15454 9.69453L7.13892 9.12715C7.13168 8.91483 7.1228 8.70776 7.11255 8.56465C7.09287 8.29004 7.02843 7.98268 7.02856 7.15254C7.02864 6.76882 7.05132 6.21806 7.13403 5.6545C7.2167 5.0915 7.35305 4.5488 7.48657 4.12032C7.60334 3.74563 7.73213 3.36462 7.87817 3.10078C8.048 2.79399 8.32347 2.25835 8.87036 1.91719C9.18073 1.72362 9.66187 1.56402 9.93384 1.49141C10.3338 1.38464 11.0684 1.20558 11.3889 1.16035ZM16.4709 11.5451C14.0654 11.5702 9.54791 11.6523 7.28149 11.6936C6.6646 11.7048 6.20911 11.711 5.87329 11.717C5.86556 11.9083 5.85611 12.1181 5.84692 12.3381C5.81851 13.018 5.78349 13.7831 5.7395 14.2971C5.69714 14.792 5.64876 15.2966 5.60376 15.757C5.55843 16.2208 5.51706 16.6358 5.48853 16.9621C5.4298 17.6337 5.42009 17.8501 5.44751 18.1252C5.48884 18.5399 5.52325 18.8676 5.55591 19.1086C5.57225 19.2292 5.58637 19.3151 5.5979 19.3723C5.59931 19.3792 5.60066 19.3856 5.60181 19.3908C5.66385 19.5244 5.74526 19.6836 5.82935 19.8293C5.8751 19.9085 5.91899 19.9777 5.9563 20.0334C5.97475 20.0609 5.98991 20.0834 6.0022 20.0998C6.01335 20.1147 6.01973 20.122 6.02075 20.1232C6.17687 20.2991 6.28939 20.4129 6.44067 20.4826C6.59729 20.5547 6.89474 20.7028 8.07544 20.757C8.54196 20.7785 9.15884 20.7844 9.49243 20.7844C9.80611 20.7843 9.81852 20.7793 10.9924 20.7326C12.1551 20.6864 14.3357 20.6048 15.6458 20.5197C16.9368 20.4359 17.3319 20.3538 17.5276 20.3137C17.56 20.307 17.5897 20.3013 17.6155 20.2961C17.6416 20.2908 17.6636 20.2864 17.6829 20.2824C17.6922 20.2805 17.7002 20.278 17.7073 20.2766C17.7659 20.245 17.8133 20.2195 17.8508 20.1965C17.8562 20.1932 17.8607 20.1888 17.8655 20.1857C17.9688 19.8661 18.0908 19.4639 18.1584 19.1506C18.3045 18.4739 18.3972 18.1804 18.4709 17.2473C18.4956 16.935 18.5137 16.8752 18.5579 16.1564C18.598 15.5041 18.6616 14.3158 18.6741 13.4074C18.6864 12.5092 18.6493 11.9011 18.6233 11.5803C18.6223 11.5675 18.6204 11.555 18.6194 11.5432C18.2819 11.5343 17.6568 11.5327 16.4709 11.5451ZM11.5481 13.9895C12.086 13.8652 12.6238 14.2006 12.7483 14.7385C12.7957 14.9435 12.8218 15.3331 12.8352 15.6818L12.8362 15.7043V15.7268C12.8317 16.3693 12.8173 16.7304 12.8069 16.9397C12.8975 17.228 12.8586 17.5541 12.6702 17.8195C12.3505 18.2695 11.7258 18.375 11.2756 18.0559C11.0637 17.9053 10.9026 17.6856 10.8333 17.4191C10.781 17.218 10.7987 17.0339 10.8 17.0207L10.801 17.0158C10.8069 16.9347 10.8294 16.6555 10.8362 15.7346C10.8297 15.573 10.8208 15.4321 10.8118 15.3244C10.807 15.2681 10.8018 15.2244 10.7981 15.1945C10.796 15.1778 10.7953 15.1689 10.7952 15.1672C10.6848 14.6366 11.0175 14.1123 11.5481 13.9895Z" fill="black"/>
</svg>
