<svg width="24" height="24" viewBox="0 0 24 24" fill="none" xmlns="http://www.w3.org/2000/svg">
<path d="M17.4519 3.87717C17.8892 3.54033 18.517 3.62171 18.8542 4.05882C19.053 4.31645 19.33 4.66312 19.6384 5.03342C19.9354 5.39003 20.4156 6.04535 20.7039 6.4426C21.0494 6.91889 21.2776 7.3104 21.4392 7.68382C21.5999 8.0554 21.6808 8.37886 21.7517 8.6594C21.8765 9.15337 22.0694 10.0332 22.1746 10.5198C22.2896 11.0523 22.3133 11.224 22.3103 11.6418C22.3078 11.9852 22.2921 12.5942 22.1677 13.2903C22.0453 13.975 21.8233 14.7001 21.7058 15.0735C21.5603 15.5359 21.4003 15.9515 21.199 16.4856L21.1892 16.509C21.081 16.7755 20.9965 16.9255 20.8064 17.3C20.6017 17.7033 20.2456 18.4199 19.865 19.1848C19.6191 19.679 19.0185 19.8804 18.5242 19.635C18.0298 19.389 17.8281 18.7886 18.074 18.2942C18.4524 17.5337 18.8139 16.8071 19.0232 16.3948C19.2415 15.9646 19.2676 15.9223 19.3308 15.7678C19.538 15.2182 19.6737 14.8667 19.7976 14.4729C19.9147 14.1008 20.1014 13.4847 20.199 12.9387C20.2944 12.4047 20.3081 11.9252 20.3103 11.6282C20.3114 11.4786 20.3096 11.4272 20.3025 11.3694C20.2934 11.2956 20.2732 11.1912 20.2195 10.9426C20.1129 10.4491 19.9271 9.60408 19.8123 9.14964C19.7407 8.86657 19.6929 8.68598 19.6033 8.47874C19.5142 8.27297 19.3688 8.00805 19.0847 7.61643C18.7867 7.20567 18.3472 6.609 18.1013 6.3137C17.7774 5.9248 17.4849 5.55769 17.2703 5.27952C16.9333 4.84225 17.0147 4.21441 17.4519 3.87717ZM11.5769 4.20725C11.5978 4.20781 11.6186 4.20833 11.6394 4.21018C11.6578 4.21182 11.676 4.2144 11.6941 4.21702C11.7078 4.21901 11.7215 4.22129 11.7351 4.22385C11.7556 4.22769 11.7757 4.23246 11.7957 4.23753C11.8061 4.24015 11.8166 4.24237 11.8269 4.24534C11.8501 4.25201 11.8728 4.25953 11.8953 4.2678C11.9024 4.27042 11.9097 4.27282 11.9167 4.27561C11.9374 4.28377 11.9573 4.29349 11.9773 4.30296C11.99 4.30898 12.0029 4.31492 12.0154 4.32151C12.027 4.32763 12.0382 4.33448 12.0496 4.34104C12.0657 4.35037 12.0817 4.36003 12.0974 4.37034C12.1097 4.37841 12.1216 4.38714 12.1335 4.39573C12.1487 4.4067 12.1647 4.41699 12.1794 4.42893C12.1872 4.43529 12.1943 4.44286 12.2019 4.44944C12.2162 4.46181 12.2321 4.47321 12.2458 4.48655C12.2496 4.4902 12.2529 4.4946 12.2566 4.49827C12.4062 4.64791 12.5078 4.84487 12.5388 5.06467C12.5451 5.10927 12.5483 5.15447 12.5486 5.19944C12.5487 5.20125 12.5496 5.20349 12.5496 5.2053C12.5496 5.23972 12.5497 5.27754 12.572 6.12229C12.5943 6.96382 12.6381 8.58847 12.6687 9.47776C12.6839 9.91901 12.6954 10.1654 12.7039 10.3362C12.7122 10.5039 12.719 10.6214 12.7234 10.7824C12.7317 11.0847 12.7321 11.592 12.7351 11.8401C12.7384 12.1087 12.7456 12.176 12.7419 13.1994C12.7383 14.2125 12.7236 16.1961 12.6941 17.2004C12.6867 17.4512 12.6788 17.6531 12.6667 17.8098C12.6569 17.9375 12.6387 18.1306 12.5818 18.3049C12.5576 18.3788 12.478 18.6128 12.2527 18.8039C11.9351 19.0729 11.5444 19.0914 11.2556 18.9944C11.0488 18.9248 10.9132 18.8041 10.8816 18.7766C10.8362 18.7371 10.7923 18.6932 10.7859 18.6867C10.4725 18.3745 10.1418 18.0807 9.71851 17.7688C9.40599 17.5385 8.98015 17.2817 8.5896 17.0158C8.1515 16.7176 7.58077 16.263 7.00757 15.844C6.83566 15.7183 6.71844 15.6574 6.6394 15.6223C6.56972 15.5914 6.52427 15.5759 6.44116 15.549C6.35762 15.5467 6.21995 15.5464 5.96069 15.5442C5.46619 15.5399 4.40375 15.5385 3.89819 15.5334C3.28846 15.5273 3.03843 15.495 2.76147 15.4045C2.44671 15.3016 2.25678 15.0894 2.15796 14.9475C2.0577 14.8033 1.99749 14.6552 1.95972 14.5451C1.88406 14.3246 1.84047 14.0771 1.81128 13.8645C1.75313 13.4407 1.71945 12.8896 1.6853 12.4885C1.67292 12.3431 1.65168 12.1913 1.6228 11.6155C1.59677 11.0962 1.55029 9.99733 1.65894 9.34592C1.71912 8.98556 1.86885 8.48993 2.36108 8.18284C2.57335 8.05047 2.78715 7.99531 2.94312 7.96702C3.09458 7.93958 3.25244 7.92786 3.3728 7.91917C3.88231 7.88236 4.69822 7.84548 5.11792 7.82151C5.64473 7.79142 6.12643 7.76582 6.79468 7.7551C6.83481 7.75445 6.8545 7.75065 6.86011 7.74924C6.85421 7.75137 6.85636 7.75257 6.87476 7.73948C6.90278 7.71948 6.93968 7.68871 7.02124 7.61448C7.09306 7.5491 7.2041 7.44577 7.33276 7.34299C7.64298 7.09525 8.25695 6.63349 8.64429 6.33128C9.31219 5.79839 9.7466 5.38612 10.0134 5.08811V5.08909C10.0839 5.01007 10.157 4.94916 10.198 4.91624C10.2479 4.87616 10.2998 4.83788 10.3464 4.80491C10.4398 4.73892 10.5446 4.67038 10.6345 4.61253C10.7371 4.54654 10.8033 4.50527 10.8728 4.46018C10.9039 4.44001 10.9217 4.42719 10.9304 4.42112C11.0015 4.3648 11.0782 4.31864 11.1589 4.2844C11.1988 4.26744 11.2406 4.25413 11.283 4.24241C11.3356 4.22786 11.3891 4.21694 11.4431 4.21116C11.4541 4.20999 11.4653 4.21001 11.4763 4.20921C11.4984 4.20758 11.5206 4.20644 11.5427 4.20628C11.545 4.20626 11.5473 4.20532 11.5496 4.2053C11.5586 4.2053 11.568 4.20701 11.5769 4.20725ZM10.6042 7.29514C10.3889 7.48471 10.1501 7.6893 9.88257 7.90257L9.87476 7.90842C9.4111 8.27018 8.89943 8.65104 8.58081 8.90549C8.51376 8.95906 8.45554 9.01234 8.36694 9.09299C8.28832 9.16457 8.17213 9.27022 8.03589 9.36741C7.71514 9.59607 7.33115 9.74697 6.8269 9.7551C6.19892 9.76517 5.74839 9.78812 5.23218 9.8176C4.79255 9.84271 4.09739 9.87511 3.6062 9.90842C3.57477 10.3485 3.59633 11.0268 3.62085 11.5158C3.64743 12.0458 3.66355 12.1434 3.67847 12.3186C3.71758 12.7779 3.74144 13.1858 3.78491 13.5295C3.8251 13.5303 3.86926 13.5329 3.91772 13.5334C4.47921 13.539 5.39427 13.5391 5.97729 13.5442C6.23677 13.5464 6.41253 13.5471 6.5271 13.551C6.63259 13.5546 6.79769 13.5612 6.97925 13.6213C7.20883 13.6974 7.60331 13.8021 8.18823 14.2297C8.88483 14.7389 9.29695 15.0775 9.71558 15.3625C9.91734 15.4998 10.377 15.7922 10.7166 16.0266C10.7305 15.0577 10.7394 13.8982 10.7419 13.1926C10.7455 12.1887 10.7385 12.1401 10.7351 11.8645C10.7315 11.5673 10.7322 11.124 10.7244 10.8381C10.7207 10.7056 10.7159 10.6193 10.7068 10.4358C10.6978 10.2548 10.6852 9.99847 10.6697 9.5471C10.6497 8.96607 10.6259 8.07728 10.6042 7.29514ZM15.0505 7.20237C15.5072 6.89213 16.1298 7.01046 16.4402 7.46702C16.7039 7.85519 17.1177 8.54704 17.3298 9.21311C17.5281 9.83601 17.4761 10.5101 17.4666 10.8293C17.4395 11.7326 17.3343 12.5184 17.24 12.9924L17.241 12.9934C17.1379 13.5196 16.9274 14.1388 16.7058 14.6291L16.7 14.6428L16.6931 14.6574C16.5845 14.8792 16.4777 15.0512 16.4041 15.1809C16.1312 15.6609 15.5209 15.8285 15.0408 15.5559C14.5608 15.283 14.393 14.6727 14.6658 14.1926C14.778 13.9951 14.8202 13.9314 14.8875 13.7961C15.0553 13.4228 15.21 12.9568 15.2781 12.6096V12.6057H15.2791C15.3509 12.2463 15.4436 11.5693 15.4675 10.7698C15.4815 10.3014 15.4934 10.0401 15.4236 9.82053C15.2974 9.42414 15.0076 8.91837 14.7859 8.59202C14.4755 8.13529 14.5939 7.51282 15.0505 7.20237Z" fill="black"/>
</svg>
