<svg width="24" height="24" viewBox="0 0 24 24" fill="none" xmlns="http://www.w3.org/2000/svg">
<path d="M14.6252 1.03996C15.5365 0.983432 15.9351 0.976523 16.2873 1.08097L16.4367 1.13273L16.5471 1.18254C16.6493 1.23589 16.7277 1.29715 16.7864 1.34855C16.8462 1.40104 16.9049 1.46185 16.9407 1.49894C17.0271 1.58849 17.1605 1.72889 17.4133 1.97746C17.9241 2.47971 18.9514 3.46918 19.5705 4.08781C20.0001 4.51699 20.3001 4.83401 20.5217 5.07121C20.7563 5.32222 20.866 5.44282 20.9573 5.53019C21.3466 5.90315 21.805 6.44479 22.0481 6.72453C22.2241 6.9271 22.2905 7.13631 22.3264 7.28507C22.3543 7.40061 22.3823 7.56402 22.4153 7.75089C22.4941 8.19797 22.6271 9.01033 22.6809 10.3691C22.7338 11.7062 22.7056 13.5501 22.6799 14.5829C22.6538 15.635 22.63 15.8433 22.6145 16.0898C22.5974 16.3607 22.5822 16.9448 22.0754 17.5605C21.8587 17.8238 21.5666 18.0697 21.2668 18.3153C20.9432 18.5805 20.5592 18.8839 20.0471 19.3173C19.0621 20.1509 17.4983 21.5649 16.5735 22.248C16.0806 22.612 15.6418 22.8681 15.0686 22.9599C14.5923 23.0361 14.0387 22.9843 13.4573 22.953C12.8025 22.9179 11.8774 22.8837 10.9485 22.8505C10.0262 22.8176 9.09892 22.785 8.45921 22.7528C7.84397 22.7219 7.43502 22.6891 7.15843 22.6288C7.00559 22.5955 6.8233 22.5403 6.64573 22.4267C6.46623 22.3117 6.35271 22.1711 6.33714 22.1532C6.05567 21.8302 5.83728 21.5963 5.26878 21.039C4.78642 20.5661 3.62597 19.4881 2.96018 18.8212C2.44919 18.3093 2.11602 17.941 1.89378 17.6835C1.78384 17.5561 1.70196 17.4567 1.64768 17.3915C1.57204 17.3007 1.5856 17.3208 1.62132 17.3534C1.36024 17.1151 1.14029 16.8309 1.01194 16.6611C0.992568 16.6354 0.924782 16.5488 0.86741 16.4257C0.809118 16.3006 0.779637 16.1804 0.762918 16.0761C0.734628 15.8995 0.734419 15.6934 0.73948 15.4765C0.751021 14.9822 0.798881 14.2162 0.80198 13.1064C0.805034 12.0117 0.761525 10.6619 0.736551 9.81437C0.712027 8.9821 0.707091 8.68222 0.71409 8.44132C0.715749 8.38433 0.719267 8.24561 0.759012 8.08195C0.799885 7.91383 0.866951 7.76301 0.949441 7.62199C1.09731 7.3693 1.3367 7.07785 1.68089 6.69718C2.38532 5.9181 3.76496 4.51626 4.49143 3.77238C5.25253 2.99305 5.4749 2.75354 5.70335 2.58293L6.18382 2.22355C6.33584 2.11178 6.47569 2.01297 6.59104 1.94328C6.6213 1.92448 6.7254 1.85898 6.75706 1.83976C6.79659 1.81578 6.83787 1.79616 6.87913 1.77824C7.05993 1.51989 7.35921 1.3505 7.69846 1.3505C7.7083 1.3505 7.72387 1.35032 8.03245 1.35343C8.33479 1.35648 8.9483 1.36291 10.2532 1.3007C11.5713 1.23785 13.5616 1.10594 14.6252 1.03996ZM15.6135 3.00187C15.4622 3.00108 15.2039 3.00786 14.7492 3.03605C13.7037 3.10091 11.6861 3.23498 10.3489 3.29875C9.02012 3.3621 8.36702 3.35584 8.02854 3.35246C7.96276 3.42771 7.88511 3.49507 7.79514 3.54972C7.71355 3.59924 7.75722 3.57383 7.63108 3.65129L7.62522 3.65519C7.50676 3.72678 7.30465 3.88223 6.90257 4.18351L6.90061 4.18546C6.88957 4.19369 6.86227 4.21295 6.71409 4.36125C6.56582 4.50964 6.33513 4.74691 5.9221 5.16984C5.17426 5.93559 3.83512 7.2961 3.16428 8.038C2.99984 8.21988 2.88476 8.35487 2.80393 8.45597C2.76124 8.50938 2.73346 8.55119 2.71311 8.58C2.71088 8.7527 2.71427 9.03168 2.73557 9.7548C2.7601 10.587 2.80515 11.9771 2.80198 13.1122C2.79885 14.2319 2.74755 15.1357 2.7385 15.5234C2.73765 15.5599 2.7378 15.592 2.73753 15.62C2.78688 15.681 2.83451 15.7392 2.88206 15.79L2.96897 15.8769L3.0969 16.0077C3.13482 16.0507 3.16614 16.0898 3.18479 16.1122C3.24338 16.1826 3.31266 16.2659 3.40843 16.3769C3.59844 16.5971 3.89757 16.9306 4.37522 17.4091C5.0773 18.1124 6.06771 19.0216 6.66917 19.6112C7.17967 20.1117 7.44034 20.3847 7.71214 20.6903C7.75178 20.6952 7.80098 20.7043 7.86253 20.7099C8.0259 20.7247 8.25017 20.7402 8.55979 20.7558C9.18113 20.787 10.0894 20.8183 11.0198 20.8515C11.9432 20.8844 12.8882 20.9186 13.5647 20.955C14.3141 20.9953 14.5501 21.0176 14.7522 20.9853C14.8573 20.9684 14.9874 20.9332 15.385 20.6396C16.2419 20.0066 17.6601 18.7176 18.7551 17.7909C19.2824 17.3447 19.7045 17.0099 19.9992 16.7685C20.3179 16.5074 20.4583 16.3779 20.5315 16.289C20.5844 16.2247 20.5933 16.1902 20.5969 16.1767C20.606 16.1425 20.6091 16.1117 20.6184 15.9638C20.634 15.716 20.6558 15.5423 20.6809 14.5331C20.7064 13.5041 20.733 11.7158 20.6828 10.4482C20.6335 9.20179 20.5132 8.4822 20.4455 8.09855C20.4297 8.00898 20.4166 7.94038 20.4065 7.88468C20.1459 7.58379 19.8328 7.2229 19.5735 6.97453C19.4293 6.83646 19.2573 6.64776 19.0598 6.43644C18.8492 6.21105 18.5656 5.91163 18.1565 5.50285C17.5388 4.88568 16.5549 3.93906 16.011 3.40421C15.8296 3.22586 15.7034 3.09468 15.6135 3.00187ZM11.5608 14.9443C12.0496 14.7281 12.6161 14.9357 12.8547 15.4071C13.1838 15.8014 13.1626 16.3874 12.7912 16.7558C12.3991 17.1446 11.766 17.1421 11.3772 16.7499C11.279 16.6509 11.2061 16.5505 11.1506 16.4579C11.0967 16.3679 11.0628 16.2893 11.051 16.2626C10.8276 15.7576 11.0558 15.1677 11.5608 14.9443ZM11.9201 6.22453C12.4723 6.22464 12.9201 6.67235 12.9201 7.22453C12.9201 7.26954 12.92 7.31469 12.9172 8.00187C12.9144 8.68831 12.9089 10.0292 12.8977 10.7792C12.8862 11.5468 12.8687 11.6819 12.8586 11.8622C12.8496 12.0235 12.8453 12.2563 12.841 12.5282C12.8323 13.0804 12.3775 13.5212 11.8254 13.5126C11.2732 13.5039 10.8323 13.0492 10.841 12.497C10.8451 12.2408 10.8497 11.9608 10.8616 11.7499C10.8723 11.558 10.887 11.4675 10.8977 10.7489C10.9087 10.0123 10.9144 8.68505 10.9172 7.99406C10.9201 7.30424 10.9201 7.26431 10.9201 7.22453C10.9202 6.67228 11.3679 6.22453 11.9201 6.22453Z" fill="black"/>
</svg>
